<?xml version="1.0" encoding="utf-8" standalone="no"?>
<!DOCTYPE svg PUBLIC "-//W3C//DTD SVG 1.1//EN"
  "http://www.w3.org/Graphics/SVG/1.1/DTD/svg11.dtd">
<!-- Created with matplotlib (https://matplotlib.org/) -->
<svg height="248.518125pt" version="1.1" viewBox="0 0 386.845313 248.518125" width="386.845313pt" xmlns="http://www.w3.org/2000/svg" xmlns:xlink="http://www.w3.org/1999/xlink">
 <metadata>
  <rdf:RDF xmlns:cc="http://creativecommons.org/ns#" xmlns:dc="http://purl.org/dc/elements/1.1/" xmlns:rdf="http://www.w3.org/1999/02/22-rdf-syntax-ns#">
   <cc:Work>
    <dc:type rdf:resource="http://purl.org/dc/dcmitype/StillImage"/>
    <dc:date>2021-10-24T19:02:58.585618</dc:date>
    <dc:format>image/svg+xml</dc:format>
    <dc:creator>
     <cc:Agent>
      <dc:title>Matplotlib v3.3.4, https://matplotlib.org/</dc:title>
     </cc:Agent>
    </dc:creator>
   </cc:Work>
  </rdf:RDF>
 </metadata>
 <defs>
  <style type="text/css">*{stroke-linecap:butt;stroke-linejoin:round;}</style>
 </defs>
 <g id="figure_1">
  <g id="patch_1">
   <path d="M -0 248.518125 
L 386.845313 248.518125 
L 386.845313 0 
L -0 0 
z
" style="fill:none;"/>
  </g>
  <g id="axes_1">
   <g id="patch_2">
    <path d="M 38.482813 224.64 
L 373.282813 224.64 
L 373.282813 7.2 
L 38.482813 7.2 
z
" style="fill:#ffffff;"/>
   </g>
   <g id="matplotlib.axis_1">
    <g id="xtick_1">
     <g id="line2d_1">
      <path clip-path="url(#p4b105601ca)" d="M 38.482813 224.64 
L 38.482813 7.2 
" style="fill:none;stroke:#b0b0b0;stroke-linecap:square;stroke-width:0.8;"/>
     </g>
     <g id="line2d_2">
      <defs>
       <path d="M 0 0 
L 0 3.5 
" id="m42f6c4b66b" style="stroke:#000000;stroke-width:0.8;"/>
      </defs>
      <g>
       <use style="stroke:#000000;stroke-width:0.8;" x="38.482813" xlink:href="#m42f6c4b66b" y="224.64"/>
      </g>
     </g>
     <g id="text_1">
      <!-- 0 -->
      <g transform="translate(35.301563 239.238437)scale(0.1 -0.1)">
       <defs>
        <path d="M 31.78125 66.40625 
Q 24.171875 66.40625 20.328125 58.90625 
Q 16.5 51.421875 16.5 36.375 
Q 16.5 21.390625 20.328125 13.890625 
Q 24.171875 6.390625 31.78125 6.390625 
Q 39.453125 6.390625 43.28125 13.890625 
Q 47.125 21.390625 47.125 36.375 
Q 47.125 51.421875 43.28125 58.90625 
Q 39.453125 66.40625 31.78125 66.40625 
z
M 31.78125 74.21875 
Q 44.046875 74.21875 50.515625 64.515625 
Q 56.984375 54.828125 56.984375 36.375 
Q 56.984375 17.96875 50.515625 8.265625 
Q 44.046875 -1.421875 31.78125 -1.421875 
Q 19.53125 -1.421875 13.0625 8.265625 
Q 6.59375 17.96875 6.59375 36.375 
Q 6.59375 54.828125 13.0625 64.515625 
Q 19.53125 74.21875 31.78125 74.21875 
z
" id="DejaVuSans-48"/>
       </defs>
       <use xlink:href="#DejaVuSans-48"/>
      </g>
     </g>
    </g>
    <g id="xtick_2">
     <g id="line2d_3">
      <path clip-path="url(#p4b105601ca)" d="M 105.442813 224.64 
L 105.442813 7.2 
" style="fill:none;stroke:#b0b0b0;stroke-linecap:square;stroke-width:0.8;"/>
     </g>
     <g id="line2d_4">
      <g>
       <use style="stroke:#000000;stroke-width:0.8;" x="105.442813" xlink:href="#m42f6c4b66b" y="224.64"/>
      </g>
     </g>
     <g id="text_2">
      <!-- 2 -->
      <g transform="translate(102.261562 239.238437)scale(0.1 -0.1)">
       <defs>
        <path d="M 19.1875 8.296875 
L 53.609375 8.296875 
L 53.609375 0 
L 7.328125 0 
L 7.328125 8.296875 
Q 12.9375 14.109375 22.625 23.890625 
Q 32.328125 33.6875 34.8125 36.53125 
Q 39.546875 41.84375 41.421875 45.53125 
Q 43.3125 49.21875 43.3125 52.78125 
Q 43.3125 58.59375 39.234375 62.25 
Q 35.15625 65.921875 28.609375 65.921875 
Q 23.96875 65.921875 18.8125 64.3125 
Q 13.671875 62.703125 7.8125 59.421875 
L 7.8125 69.390625 
Q 13.765625 71.78125 18.9375 73 
Q 24.125 74.21875 28.421875 74.21875 
Q 39.75 74.21875 46.484375 68.546875 
Q 53.21875 62.890625 53.21875 53.421875 
Q 53.21875 48.921875 51.53125 44.890625 
Q 49.859375 40.875 45.40625 35.40625 
Q 44.1875 33.984375 37.640625 27.21875 
Q 31.109375 20.453125 19.1875 8.296875 
z
" id="DejaVuSans-50"/>
       </defs>
       <use xlink:href="#DejaVuSans-50"/>
      </g>
     </g>
    </g>
    <g id="xtick_3">
     <g id="line2d_5">
      <path clip-path="url(#p4b105601ca)" d="M 172.402813 224.64 
L 172.402813 7.2 
" style="fill:none;stroke:#b0b0b0;stroke-linecap:square;stroke-width:0.8;"/>
     </g>
     <g id="line2d_6">
      <g>
       <use style="stroke:#000000;stroke-width:0.8;" x="172.402813" xlink:href="#m42f6c4b66b" y="224.64"/>
      </g>
     </g>
     <g id="text_3">
      <!-- 4 -->
      <g transform="translate(169.221563 239.238437)scale(0.1 -0.1)">
       <defs>
        <path d="M 37.796875 64.3125 
L 12.890625 25.390625 
L 37.796875 25.390625 
z
M 35.203125 72.90625 
L 47.609375 72.90625 
L 47.609375 25.390625 
L 58.015625 25.390625 
L 58.015625 17.1875 
L 47.609375 17.1875 
L 47.609375 0 
L 37.796875 0 
L 37.796875 17.1875 
L 4.890625 17.1875 
L 4.890625 26.703125 
z
" id="DejaVuSans-52"/>
       </defs>
       <use xlink:href="#DejaVuSans-52"/>
      </g>
     </g>
    </g>
    <g id="xtick_4">
     <g id="line2d_7">
      <path clip-path="url(#p4b105601ca)" d="M 239.362813 224.64 
L 239.362813 7.2 
" style="fill:none;stroke:#b0b0b0;stroke-linecap:square;stroke-width:0.8;"/>
     </g>
     <g id="line2d_8">
      <g>
       <use style="stroke:#000000;stroke-width:0.8;" x="239.362813" xlink:href="#m42f6c4b66b" y="224.64"/>
      </g>
     </g>
     <g id="text_4">
      <!-- 6 -->
      <g transform="translate(236.181563 239.238437)scale(0.1 -0.1)">
       <defs>
        <path d="M 33.015625 40.375 
Q 26.375 40.375 22.484375 35.828125 
Q 18.609375 31.296875 18.609375 23.390625 
Q 18.609375 15.53125 22.484375 10.953125 
Q 26.375 6.390625 33.015625 6.390625 
Q 39.65625 6.390625 43.53125 10.953125 
Q 47.40625 15.53125 47.40625 23.390625 
Q 47.40625 31.296875 43.53125 35.828125 
Q 39.65625 40.375 33.015625 40.375 
z
M 52.59375 71.296875 
L 52.59375 62.3125 
Q 48.875 64.0625 45.09375 64.984375 
Q 41.3125 65.921875 37.59375 65.921875 
Q 27.828125 65.921875 22.671875 59.328125 
Q 17.53125 52.734375 16.796875 39.40625 
Q 19.671875 43.65625 24.015625 45.921875 
Q 28.375 48.1875 33.59375 48.1875 
Q 44.578125 48.1875 50.953125 41.515625 
Q 57.328125 34.859375 57.328125 23.390625 
Q 57.328125 12.15625 50.6875 5.359375 
Q 44.046875 -1.421875 33.015625 -1.421875 
Q 20.359375 -1.421875 13.671875 8.265625 
Q 6.984375 17.96875 6.984375 36.375 
Q 6.984375 53.65625 15.1875 63.9375 
Q 23.390625 74.21875 37.203125 74.21875 
Q 40.921875 74.21875 44.703125 73.484375 
Q 48.484375 72.75 52.59375 71.296875 
z
" id="DejaVuSans-54"/>
       </defs>
       <use xlink:href="#DejaVuSans-54"/>
      </g>
     </g>
    </g>
    <g id="xtick_5">
     <g id="line2d_9">
      <path clip-path="url(#p4b105601ca)" d="M 306.322813 224.64 
L 306.322813 7.2 
" style="fill:none;stroke:#b0b0b0;stroke-linecap:square;stroke-width:0.8;"/>
     </g>
     <g id="line2d_10">
      <g>
       <use style="stroke:#000000;stroke-width:0.8;" x="306.322813" xlink:href="#m42f6c4b66b" y="224.64"/>
      </g>
     </g>
     <g id="text_5">
      <!-- 8 -->
      <g transform="translate(303.141563 239.238437)scale(0.1 -0.1)">
       <defs>
        <path d="M 31.78125 34.625 
Q 24.75 34.625 20.71875 30.859375 
Q 16.703125 27.09375 16.703125 20.515625 
Q 16.703125 13.921875 20.71875 10.15625 
Q 24.75 6.390625 31.78125 6.390625 
Q 38.8125 6.390625 42.859375 10.171875 
Q 46.921875 13.96875 46.921875 20.515625 
Q 46.921875 27.09375 42.890625 30.859375 
Q 38.875 34.625 31.78125 34.625 
z
M 21.921875 38.8125 
Q 15.578125 40.375 12.03125 44.71875 
Q 8.5 49.078125 8.5 55.328125 
Q 8.5 64.0625 14.71875 69.140625 
Q 20.953125 74.21875 31.78125 74.21875 
Q 42.671875 74.21875 48.875 69.140625 
Q 55.078125 64.0625 55.078125 55.328125 
Q 55.078125 49.078125 51.53125 44.71875 
Q 48 40.375 41.703125 38.8125 
Q 48.828125 37.15625 52.796875 32.3125 
Q 56.78125 27.484375 56.78125 20.515625 
Q 56.78125 9.90625 50.3125 4.234375 
Q 43.84375 -1.421875 31.78125 -1.421875 
Q 19.734375 -1.421875 13.25 4.234375 
Q 6.78125 9.90625 6.78125 20.515625 
Q 6.78125 27.484375 10.78125 32.3125 
Q 14.796875 37.15625 21.921875 38.8125 
z
M 18.3125 54.390625 
Q 18.3125 48.734375 21.84375 45.5625 
Q 25.390625 42.390625 31.78125 42.390625 
Q 38.140625 42.390625 41.71875 45.5625 
Q 45.3125 48.734375 45.3125 54.390625 
Q 45.3125 60.0625 41.71875 63.234375 
Q 38.140625 66.40625 31.78125 66.40625 
Q 25.390625 66.40625 21.84375 63.234375 
Q 18.3125 60.0625 18.3125 54.390625 
z
" id="DejaVuSans-56"/>
       </defs>
       <use xlink:href="#DejaVuSans-56"/>
      </g>
     </g>
    </g>
    <g id="xtick_6">
     <g id="line2d_11">
      <path clip-path="url(#p4b105601ca)" d="M 373.282813 224.64 
L 373.282813 7.2 
" style="fill:none;stroke:#b0b0b0;stroke-linecap:square;stroke-width:0.8;"/>
     </g>
     <g id="line2d_12">
      <g>
       <use style="stroke:#000000;stroke-width:0.8;" x="373.282813" xlink:href="#m42f6c4b66b" y="224.64"/>
      </g>
     </g>
     <g id="text_6">
      <!-- 10 -->
      <g transform="translate(366.920313 239.238437)scale(0.1 -0.1)">
       <defs>
        <path d="M 12.40625 8.296875 
L 28.515625 8.296875 
L 28.515625 63.921875 
L 10.984375 60.40625 
L 10.984375 69.390625 
L 28.421875 72.90625 
L 38.28125 72.90625 
L 38.28125 8.296875 
L 54.390625 8.296875 
L 54.390625 0 
L 12.40625 0 
z
" id="DejaVuSans-49"/>
       </defs>
       <use xlink:href="#DejaVuSans-49"/>
       <use x="63.623047" xlink:href="#DejaVuSans-48"/>
      </g>
     </g>
    </g>
   </g>
   <g id="matplotlib.axis_2">
    <g id="ytick_1">
     <g id="line2d_13">
      <path clip-path="url(#p4b105601ca)" d="M 38.482813 209.684397 
L 373.282813 209.684397 
" style="fill:none;stroke:#b0b0b0;stroke-linecap:square;stroke-width:0.8;"/>
     </g>
     <g id="line2d_14">
      <defs>
       <path d="M 0 0 
L -3.5 0 
" id="m13a9bb2346" style="stroke:#000000;stroke-width:0.8;"/>
      </defs>
      <g>
       <use style="stroke:#000000;stroke-width:0.8;" x="38.482813" xlink:href="#m13a9bb2346" y="209.684397"/>
      </g>
     </g>
     <g id="text_7">
      <!-- −0.6 -->
      <g transform="translate(7.2 213.483616)scale(0.1 -0.1)">
       <defs>
        <path d="M 10.59375 35.5 
L 73.1875 35.5 
L 73.1875 27.203125 
L 10.59375 27.203125 
z
" id="DejaVuSans-8722"/>
        <path d="M 10.6875 12.40625 
L 21 12.40625 
L 21 0 
L 10.6875 0 
z
" id="DejaVuSans-46"/>
       </defs>
       <use xlink:href="#DejaVuSans-8722"/>
       <use x="83.789062" xlink:href="#DejaVuSans-48"/>
       <use x="147.412109" xlink:href="#DejaVuSans-46"/>
       <use x="179.199219" xlink:href="#DejaVuSans-54"/>
      </g>
     </g>
    </g>
    <g id="ytick_2">
     <g id="line2d_15">
      <path clip-path="url(#p4b105601ca)" d="M 38.482813 178.429532 
L 373.282813 178.429532 
" style="fill:none;stroke:#b0b0b0;stroke-linecap:square;stroke-width:0.8;"/>
     </g>
     <g id="line2d_16">
      <g>
       <use style="stroke:#000000;stroke-width:0.8;" x="38.482813" xlink:href="#m13a9bb2346" y="178.429532"/>
      </g>
     </g>
     <g id="text_8">
      <!-- −0.4 -->
      <g transform="translate(7.2 182.228751)scale(0.1 -0.1)">
       <use xlink:href="#DejaVuSans-8722"/>
       <use x="83.789062" xlink:href="#DejaVuSans-48"/>
       <use x="147.412109" xlink:href="#DejaVuSans-46"/>
       <use x="179.199219" xlink:href="#DejaVuSans-52"/>
      </g>
     </g>
    </g>
    <g id="ytick_3">
     <g id="line2d_17">
      <path clip-path="url(#p4b105601ca)" d="M 38.482813 147.174667 
L 373.282813 147.174667 
" style="fill:none;stroke:#b0b0b0;stroke-linecap:square;stroke-width:0.8;"/>
     </g>
     <g id="line2d_18">
      <g>
       <use style="stroke:#000000;stroke-width:0.8;" x="38.482813" xlink:href="#m13a9bb2346" y="147.174667"/>
      </g>
     </g>
     <g id="text_9">
      <!-- −0.2 -->
      <g transform="translate(7.2 150.973886)scale(0.1 -0.1)">
       <use xlink:href="#DejaVuSans-8722"/>
       <use x="83.789062" xlink:href="#DejaVuSans-48"/>
       <use x="147.412109" xlink:href="#DejaVuSans-46"/>
       <use x="179.199219" xlink:href="#DejaVuSans-50"/>
      </g>
     </g>
    </g>
    <g id="ytick_4">
     <g id="line2d_19">
      <path clip-path="url(#p4b105601ca)" d="M 38.482813 115.919802 
L 373.282813 115.919802 
" style="fill:none;stroke:#b0b0b0;stroke-linecap:square;stroke-width:0.8;"/>
     </g>
     <g id="line2d_20">
      <g>
       <use style="stroke:#000000;stroke-width:0.8;" x="38.482813" xlink:href="#m13a9bb2346" y="115.919802"/>
      </g>
     </g>
     <g id="text_10">
      <!-- 0.0 -->
      <g transform="translate(15.579688 119.71902)scale(0.1 -0.1)">
       <use xlink:href="#DejaVuSans-48"/>
       <use x="63.623047" xlink:href="#DejaVuSans-46"/>
       <use x="95.410156" xlink:href="#DejaVuSans-48"/>
      </g>
     </g>
    </g>
    <g id="ytick_5">
     <g id="line2d_21">
      <path clip-path="url(#p4b105601ca)" d="M 38.482813 84.664936 
L 373.282813 84.664936 
" style="fill:none;stroke:#b0b0b0;stroke-linecap:square;stroke-width:0.8;"/>
     </g>
     <g id="line2d_22">
      <g>
       <use style="stroke:#000000;stroke-width:0.8;" x="38.482813" xlink:href="#m13a9bb2346" y="84.664936"/>
      </g>
     </g>
     <g id="text_11">
      <!-- 0.2 -->
      <g transform="translate(15.579688 88.464155)scale(0.1 -0.1)">
       <use xlink:href="#DejaVuSans-48"/>
       <use x="63.623047" xlink:href="#DejaVuSans-46"/>
       <use x="95.410156" xlink:href="#DejaVuSans-50"/>
      </g>
     </g>
    </g>
    <g id="ytick_6">
     <g id="line2d_23">
      <path clip-path="url(#p4b105601ca)" d="M 38.482813 53.410071 
L 373.282813 53.410071 
" style="fill:none;stroke:#b0b0b0;stroke-linecap:square;stroke-width:0.8;"/>
     </g>
     <g id="line2d_24">
      <g>
       <use style="stroke:#000000;stroke-width:0.8;" x="38.482813" xlink:href="#m13a9bb2346" y="53.410071"/>
      </g>
     </g>
     <g id="text_12">
      <!-- 0.4 -->
      <g transform="translate(15.579688 57.20929)scale(0.1 -0.1)">
       <use xlink:href="#DejaVuSans-48"/>
       <use x="63.623047" xlink:href="#DejaVuSans-46"/>
       <use x="95.410156" xlink:href="#DejaVuSans-52"/>
      </g>
     </g>
    </g>
    <g id="ytick_7">
     <g id="line2d_25">
      <path clip-path="url(#p4b105601ca)" d="M 38.482813 22.155206 
L 373.282813 22.155206 
" style="fill:none;stroke:#b0b0b0;stroke-linecap:square;stroke-width:0.8;"/>
     </g>
     <g id="line2d_26">
      <g>
       <use style="stroke:#000000;stroke-width:0.8;" x="38.482813" xlink:href="#m13a9bb2346" y="22.155206"/>
      </g>
     </g>
     <g id="text_13">
      <!-- 0.6 -->
      <g transform="translate(15.579688 25.954425)scale(0.1 -0.1)">
       <use xlink:href="#DejaVuSans-48"/>
       <use x="63.623047" xlink:href="#DejaVuSans-46"/>
       <use x="95.410156" xlink:href="#DejaVuSans-54"/>
      </g>
     </g>
    </g>
   </g>
   <g id="line2d_27">
    <path clip-path="url(#p4b105601ca)" d="M 38.482813 146.461979 
L 41.834164 144.865791 
L 45.185515 140.244066 
L 48.536867 133.079884 
L 51.888218 124.122069 
L 58.590921 104.660364 
L 61.942272 96.190679 
L 65.293623 89.783151 
L 68.644975 86.107519 
L 71.996326 85.547971 
L 75.347677 88.162993 
L 78.699029 93.679255 
L 82.05038 101.520177 
L 85.401731 110.866199 
L 88.753083 120.740441 
L 92.104434 130.110813 
L 95.455785 137.99789 
L 98.807137 143.577288 
L 102.158488 146.265828 
L 105.50984 145.782494 
L 108.861191 142.177807 
L 112.212542 135.828541 
L 115.563894 127.398343 
L 122.266596 107.945173 
L 125.617948 98.955515 
L 128.969299 91.739025 
L 132.32065 87.049994 
L 135.672002 85.378537 
L 139.023353 86.89936 
L 142.374704 91.453502 
L 145.726056 98.564948 
L 149.077407 107.490385 
L 155.78011 126.959464 
L 159.131461 135.468129 
L 162.482813 141.933535 
L 165.834164 145.679894 
L 169.185515 146.315623 
L 172.536867 143.774274 
L 175.888218 138.321477 
L 179.239569 130.527179 
L 182.590921 121.206066 
L 185.942272 111.332414 
L 189.293623 101.938251 
L 192.644975 94.00549 
L 195.996326 88.36329 
L 199.347677 85.601393 
L 202.699029 86.008483 
L 206.05038 89.54201 
L 209.401731 95.832636 
L 212.753083 104.222843 
L 219.455785 123.666314 
L 222.807137 132.687278 
L 226.158488 139.955647 
L 229.50984 144.711704 
L 232.861191 146.45833 
L 236.212542 145.012961 
L 239.563894 140.526674 
L 242.915245 133.468389 
L 246.266596 124.575864 
L 252.969299 105.100575 
L 256.32065 96.553437 
L 259.672002 90.030539 
L 263.023353 86.213678 
L 266.374704 85.501805 
L 269.726056 87.969329 
L 273.077407 93.358335 
L 276.428758 101.105544 
L 279.78011 110.401192 
L 283.131461 120.273664 
L 286.482813 129.691056 
L 289.834164 137.669027 
L 293.185515 143.373693 
L 296.536867 146.208781 
L 299.888218 145.877959 
L 303.239569 142.415804 
L 306.590921 136.184194 
L 309.942272 127.834479 
L 319.996326 99.350136 
L 323.347677 92.030325 
L 326.699029 87.207526 
L 330.05038 85.385835 
L 333.401731 86.755662 
L 336.753083 91.173827 
L 340.104434 98.178529 
L 343.455785 107.037611 
L 350.158488 126.517946 
L 353.50984 135.103047 
L 356.861191 141.683047 
L 360.212542 145.570182 
L 363.563894 146.358155 
L 366.915245 143.964604 
L 370.266596 138.639712 
L 373.617948 130.940054 
L 376.969299 121.670427 
L 380.32065 111.799724 
L 383.672002 102.359667 
L 387.023353 94.336962 
L 387.845313 92.922587 
L 387.845313 92.922587 
" style="fill:none;stroke:#1f77b4;stroke-linecap:square;stroke-width:1.5;"/>
   </g>
   <g id="line2d_28">
    <path clip-path="url(#p4b105601ca)" d="M 38.482813 35.959343 
L 41.834164 40.059484 
L 45.185515 51.939421 
L 48.536867 70.380815 
L 51.888218 93.492425 
L 58.590921 144.00964 
L 61.942272 166.234492 
L 65.293623 183.299361 
L 68.644975 193.454171 
L 71.996326 195.657505 
L 75.347677 189.683402 
L 78.699029 176.144529 
L 82.05038 156.429358 
L 85.401731 132.55976 
L 88.753083 106.983664 
L 92.104434 82.324007 
L 95.455785 61.10974 
L 98.807137 45.516477 
L 102.158488 37.143371 
L 105.50984 36.84912 
L 108.861191 44.663902 
L 112.212542 59.786276 
L 115.563894 80.66538 
L 118.915245 105.159974 
L 122.266596 130.758033 
L 125.617948 154.834369 
L 128.969299 174.919852 
L 132.32065 188.954632 
L 135.672002 195.499381 
L 139.023353 193.882909 
L 142.374704 184.270991 
L 145.726056 167.649371 
L 149.077407 145.722665 
L 155.78011 95.262149 
L 159.131461 71.903278 
L 162.482813 53.058487 
L 165.834164 40.660389 
L 169.185515 35.98046 
L 172.536867 39.498649 
L 175.888218 50.854149 
L 179.239569 68.882406 
L 182.590921 91.734546 
L 189.293623 142.281778 
L 192.644975 164.793038 
L 195.996326 182.292141 
L 199.347677 192.984481 
L 202.699029 195.773513 
L 206.05038 190.37321 
L 209.401731 177.337396 
L 212.753083 158.002949 
L 216.104434 134.352698 
L 222.807137 84.000379 
L 226.158488 62.462155 
L 229.50984 46.406238 
L 232.861191 37.479231 
L 236.212542 36.596634 
L 239.563894 43.848963 
L 242.915245 58.49246 
L 246.266596 79.025374 
L 249.617948 103.341966 
L 252.969299 128.948469 
L 256.32065 153.218827 
L 259.672002 173.664012 
L 263.023353 188.187285 
L 266.374704 195.299223 
L 269.726056 194.270467 
L 273.077407 185.206519 
L 276.428758 169.036927 
L 279.78011 147.419949 
L 289.834164 73.44899 
L 293.185515 54.210755 
L 296.536867 41.301044 
L 299.888218 36.043801 
L 303.239569 38.978179 
L 306.590921 49.803244 
L 309.942272 67.408841 
L 313.293623 89.989442 
L 319.996326 140.539992 
L 323.347677 163.325769 
L 326.699029 181.249864 
L 330.05038 192.474086 
L 333.401731 195.847343 
L 336.753083 191.023693 
L 340.104434 178.497823 
L 343.455785 159.554313 
L 346.807137 136.135899 
L 353.50984 85.693611 
L 356.861191 63.842806 
L 360.212542 47.332717 
L 363.563894 37.856522 
L 366.915245 36.386046 
L 370.266596 43.072091 
L 373.617948 57.228977 
L 376.969299 77.404855 
L 380.32065 101.530602 
L 383.672002 127.132023 
L 387.023353 151.583583 
L 387.845313 156.683585 
L 387.845313 156.683585 
" style="fill:none;stroke:#ff7f0e;stroke-linecap:square;stroke-width:1.5;"/>
   </g>
   <g id="line2d_29">
    <path clip-path="url(#p4b105601ca)" d="M 38.482813 214.756364 
L 41.834164 209.808649 
L 45.185515 195.460867 
L 48.536867 173.149505 
L 51.888218 145.108355 
L 58.590921 83.359096 
L 61.942272 55.833267 
L 65.293623 34.323249 
L 68.644975 20.982605 
L 71.996326 17.146989 
L 75.347677 23.200418 
L 78.699029 38.53683 
L 82.05038 61.620756 
L 85.401731 90.141054 
L 92.104434 151.810657 
L 95.455785 178.785656 
L 98.807137 199.466582 
L 102.158488 211.782879 
L 105.50984 214.50145 
L 108.861191 207.350114 
L 112.212542 191.044856 
L 115.563894 167.218145 
L 118.915245 138.25549 
L 125.617948 76.745096 
L 128.969299 50.355723 
L 132.32065 30.530568 
L 135.672002 19.254506 
L 139.023353 17.656488 
L 142.374704 25.896505 
L 145.726056 43.149575 
L 149.077407 67.688335 
L 152.428758 97.055986 
L 155.78011 128.312266 
L 159.131461 158.327823 
L 162.482813 184.097527 
L 165.834164 203.041338 
L 169.185515 213.262618 
L 172.536867 213.738022 
L 175.888218 204.419953 
L 179.239569 186.241328 
L 182.590921 161.022174 
L 185.942272 131.287411 
L 189.293623 100.014056 
L 192.644975 70.333171 
L 195.996326 45.216378 
L 199.347677 27.178349 
L 202.699029 18.025036 
L 206.05038 18.672859 
L 209.401731 29.056959 
L 212.753083 48.13769 
L 216.104434 74.004706 
L 219.455785 104.068223 
L 222.807137 135.31831 
L 226.158488 164.626236 
L 229.50984 189.057717 
L 232.861191 206.166695 
L 236.212542 214.240234 
L 239.563894 212.470019 
L 242.915245 201.033283 
L 246.266596 181.07506 
L 249.617948 154.593551 
L 259.672002 64.156395 
L 263.023353 40.441742 
L 266.374704 24.283886 
L 269.726056 17.300535 
L 273.077407 20.190858 
L 276.428758 32.665477 
L 279.78011 53.475446 
L 283.131461 80.537287 
L 289.834164 142.224292 
L 293.185515 170.673407 
L 296.536867 193.64064 
L 299.888218 208.826531 
L 303.239569 214.710684 
L 306.590921 210.703982 
L 309.942272 197.207572 
L 313.293623 175.572702 
L 316.644975 147.965438 
L 323.347677 86.211002 
L 326.699029 58.24663 
L 330.05038 36.056444 
L 333.401731 21.862107 
L 336.753083 17.084742 
L 340.104434 22.202656 
L 343.455785 36.703446 
L 346.807137 59.135308 
L 350.158488 87.252382 
L 356.861191 148.994587 
L 360.212542 176.438142 
L 363.563894 197.822655 
L 366.915245 211.007128 
L 370.266596 214.671542 
L 373.617948 208.449019 
L 376.969299 192.962554 
L 380.32065 169.762637 
L 383.672002 141.172024 
L 387.845313 102.564965 
L 387.845313 102.564965 
" style="fill:none;stroke:#2ca02c;stroke-linecap:square;stroke-width:1.5;"/>
   </g>
   <g id="line2d_30">
    <path clip-path="url(#p4b105601ca)" d="M 38.482813 35.959343 
L 41.834164 39.853233 
L 45.185515 51.155654 
L 48.536867 68.765805 
L 51.888218 90.968536 
L 58.590921 140.265285 
L 61.942272 162.558028 
L 65.293623 180.308422 
L 68.644975 191.787663 
L 71.996326 195.877724 
L 75.347677 192.180254 
L 78.699029 181.055368 
L 82.05038 163.586579 
L 85.401731 141.475266 
L 92.104434 92.181644 
L 95.455785 69.800305 
L 98.807137 51.910792 
L 102.158488 40.25546 
L 105.50984 35.969486 
L 108.861191 39.470303 
L 112.212542 50.416947 
L 115.563894 67.743267 
L 118.915245 89.761759 
L 125.617948 139.049129 
L 128.969299 161.517645 
L 132.32065 179.545142 
L 135.672002 191.375825 
L 139.023353 195.85744 
L 142.374704 192.553499 
L 145.726056 181.78579 
L 149.077407 164.603038 
L 152.428758 142.678764 
L 159.131461 93.400773 
L 162.482813 70.846504 
L 165.834164 52.682167 
L 169.185515 40.676882 
L 172.536867 35.999911 
L 175.888218 39.106767 
L 179.239569 49.694857 
L 182.590921 66.732951 
L 185.942272 88.561617 
L 192.644975 137.827104 
L 195.996326 160.465694 
L 199.347677 178.765721 
L 202.699029 190.944845 
L 206.05038 195.816877 
L 209.401731 192.907303 
L 212.753083 182.499502 
L 216.104434 165.607147 
L 219.455785 143.875473 
L 226.158488 94.625615 
L 229.50984 71.904139 
L 232.861191 53.469585 
L 236.212542 41.117393 
L 239.563894 36.05061 
L 242.915245 38.762717 
L 246.266596 48.989568 
L 249.617948 65.735114 
L 252.969299 87.368416 
L 259.672002 136.599522 
L 263.023353 159.402443 
L 266.374704 177.970356 
L 269.726056 190.494832 
L 273.077407 195.756044 
L 276.428758 193.241576 
L 279.78011 183.196324 
L 283.131461 166.59865 
L 286.482813 145.06509 
L 293.185515 95.855859 
L 296.536867 72.972939 
L 299.888218 54.272845 
L 303.239569 41.57688 
L 306.590921 36.121571 
L 309.942272 38.438241 
L 313.293623 48.301257 
L 316.644975 64.750007 
L 319.996326 86.182458 
L 326.699029 135.366694 
L 330.05038 158.328161 
L 333.401731 177.15925 
L 336.753083 190.0259 
L 340.104434 195.674959 
L 343.455785 193.556234 
L 346.807137 183.876079 
L 350.158488 167.577297 
L 353.50984 146.247314 
L 363.563894 74.052635 
L 366.915245 55.091745 
L 370.266596 42.055226 
L 373.617948 36.212776 
L 376.969299 38.133421 
L 380.32065 47.630101 
L 383.672002 63.777881 
L 387.023353 85.004044 
L 387.845313 90.948514 
L 387.845313 90.948514 
" style="fill:none;stroke:#d62728;stroke-linecap:square;stroke-width:1.5;"/>
   </g>
   <g id="line2d_31">
    <path clip-path="url(#p4b105601ca)" d="M 38.482813 146.461979 
L 41.834164 144.963147 
L 45.185515 140.61376 
L 48.536867 133.840702 
L 51.888218 125.308737 
L 58.590921 106.408126 
L 61.942272 97.894543 
L 65.293623 91.150108 
L 68.644975 86.836777 
L 71.996326 85.377897 
L 75.347677 86.916653 
L 78.699029 91.30202 
L 82.05038 98.103581 
L 85.401731 106.653774 
L 92.104434 125.554048 
L 95.455785 134.049098 
L 98.807137 140.764788 
L 102.158488 145.041985 
L 105.50984 146.460888 
L 108.861191 144.882235 
L 112.212542 140.460967 
L 115.563894 133.631025 
L 118.915245 125.062756 
L 125.617948 106.163158 
L 128.969299 97.686792 
L 132.32065 90.999965 
L 135.672002 86.758979 
L 139.023353 85.380079 
L 142.374704 86.998601 
L 145.726056 91.455691 
L 149.077407 98.313892 
L 152.428758 106.900084 
L 159.131461 125.79867 
L 162.482813 134.256199 
L 165.834164 140.914042 
L 169.185515 145.118742 
L 172.536867 146.457615 
L 175.888218 144.799253 
L 179.239569 140.306421 
L 182.590921 133.420083 
L 185.942272 124.816122 
L 192.644975 105.918886 
L 195.996326 97.480344 
L 199.347677 90.851603 
L 202.699029 86.683264 
L 206.05038 85.384443 
L 209.401731 87.082615 
L 212.753083 91.611109 
L 216.104434 98.525461 
L 219.455785 107.147038 
L 226.158488 126.042586 
L 229.50984 134.461991 
L 232.861191 141.06151 
L 236.212542 145.193414 
L 239.563894 146.452161 
L 242.915245 144.714208 
L 246.266596 140.150133 
L 249.617948 133.207891 
L 252.969299 124.568852 
L 259.672002 105.675329 
L 263.023353 97.275213 
L 266.374704 90.705032 
L 269.726056 86.609638 
L 273.077407 85.390988 
L 276.428758 87.168689 
L 279.78011 91.768264 
L 283.131461 98.738273 
L 286.482813 107.394619 
L 293.185515 126.285779 
L 296.536867 134.666457 
L 299.888218 141.207182 
L 303.239569 145.265994 
L 306.590921 146.444525 
L 309.942272 144.627106 
L 313.293623 139.992114 
L 316.644975 132.994464 
L 319.996326 124.320964 
L 326.699029 105.432504 
L 330.05038 97.071414 
L 333.401731 90.560262 
L 336.753083 86.538105 
L 340.104434 85.399714 
L 343.455785 87.256817 
L 346.807137 91.927145 
L 350.158488 98.952312 
L 353.50984 107.642809 
L 360.212542 126.528232 
L 363.563894 134.869585 
L 366.915245 141.351048 
L 370.266596 145.336477 
L 373.617948 146.434709 
L 376.969299 144.537954 
L 380.32065 139.832375 
L 383.672002 132.779817 
L 387.845313 121.740644 
L 387.845313 121.740644 
" style="fill:none;stroke:#9467bd;stroke-linecap:square;stroke-width:1.5;"/>
   </g>
   <g id="patch_3">
    <path d="M 38.482813 224.64 
L 38.482813 7.2 
" style="fill:none;stroke:#000000;stroke-linecap:square;stroke-linejoin:miter;stroke-width:0.8;"/>
   </g>
   <g id="patch_4">
    <path d="M 373.282813 224.64 
L 373.282813 7.2 
" style="fill:none;stroke:#000000;stroke-linecap:square;stroke-linejoin:miter;stroke-width:0.8;"/>
   </g>
   <g id="patch_5">
    <path d="M 38.482813 224.64 
L 373.282813 224.64 
" style="fill:none;stroke:#000000;stroke-linecap:square;stroke-linejoin:miter;stroke-width:0.8;"/>
   </g>
   <g id="patch_6">
    <path d="M 38.482813 7.2 
L 373.282813 7.2 
" style="fill:none;stroke:#000000;stroke-linecap:square;stroke-linejoin:miter;stroke-width:0.8;"/>
   </g>
  </g>
 </g>
 <defs>
  <clipPath id="p4b105601ca">
   <rect height="217.44" width="334.8" x="38.482813" y="7.2"/>
  </clipPath>
 </defs>
</svg>
