<?xml version="1.0" encoding="utf-8" standalone="no"?>
<!DOCTYPE svg PUBLIC "-//W3C//DTD SVG 1.1//EN"
  "http://www.w3.org/Graphics/SVG/1.1/DTD/svg11.dtd">
<!-- Created with matplotlib (https://matplotlib.org/) -->
<svg height="272.794688pt" version="1.1" viewBox="0 0 394.160937 272.794688" width="394.160937pt" xmlns="http://www.w3.org/2000/svg" xmlns:xlink="http://www.w3.org/1999/xlink">
 <metadata>
  <rdf:RDF xmlns:cc="http://creativecommons.org/ns#" xmlns:dc="http://purl.org/dc/elements/1.1/" xmlns:rdf="http://www.w3.org/1999/02/22-rdf-syntax-ns#">
   <cc:Work>
    <dc:type rdf:resource="http://purl.org/dc/dcmitype/StillImage"/>
    <dc:date>2021-10-20T15:25:22.475911</dc:date>
    <dc:format>image/svg+xml</dc:format>
    <dc:creator>
     <cc:Agent>
      <dc:title>Matplotlib v3.3.4, https://matplotlib.org/</dc:title>
     </cc:Agent>
    </dc:creator>
   </cc:Work>
  </rdf:RDF>
 </metadata>
 <defs>
  <style type="text/css">*{stroke-linecap:butt;stroke-linejoin:round;}</style>
 </defs>
 <g id="figure_1">
  <g id="patch_1">
   <path d="M 0 272.794688 
L 394.160937 272.794688 
L 394.160937 0 
L 0 0 
z
" style="fill:none;"/>
  </g>
  <g id="axes_1">
   <g id="patch_2">
    <path d="M 52.160938 235.238438 
L 386.960938 235.238438 
L 386.960938 17.798438 
L 52.160938 17.798438 
z
" style="fill:#ffffff;"/>
   </g>
   <g id="matplotlib.axis_1">
    <g id="xtick_1">
     <g id="line2d_1">
      <path clip-path="url(#pc69d8f7cbe)" d="M 52.678544 235.238438 
L 52.678544 17.798438 
" style="fill:none;stroke:#b0b0b0;stroke-linecap:square;stroke-width:0.8;"/>
     </g>
     <g id="line2d_2">
      <defs>
       <path d="M 0 0 
L 0 3.5 
" id="m7c4600b159" style="stroke:#000000;stroke-width:0.8;"/>
      </defs>
      <g>
       <use style="stroke:#000000;stroke-width:0.8;" x="52.678544" xlink:href="#m7c4600b159" y="235.238438"/>
      </g>
     </g>
     <g id="text_1">
      <!-- −1.00 -->
      <g transform="translate(37.355887 249.836875)scale(0.1 -0.1)">
       <defs>
        <path d="M 10.59375 35.5 
L 73.1875 35.5 
L 73.1875 27.203125 
L 10.59375 27.203125 
z
" id="DejaVuSans-8722"/>
        <path d="M 12.40625 8.296875 
L 28.515625 8.296875 
L 28.515625 63.921875 
L 10.984375 60.40625 
L 10.984375 69.390625 
L 28.421875 72.90625 
L 38.28125 72.90625 
L 38.28125 8.296875 
L 54.390625 8.296875 
L 54.390625 0 
L 12.40625 0 
z
" id="DejaVuSans-49"/>
        <path d="M 10.6875 12.40625 
L 21 12.40625 
L 21 0 
L 10.6875 0 
z
" id="DejaVuSans-46"/>
        <path d="M 31.78125 66.40625 
Q 24.171875 66.40625 20.328125 58.90625 
Q 16.5 51.421875 16.5 36.375 
Q 16.5 21.390625 20.328125 13.890625 
Q 24.171875 6.390625 31.78125 6.390625 
Q 39.453125 6.390625 43.28125 13.890625 
Q 47.125 21.390625 47.125 36.375 
Q 47.125 51.421875 43.28125 58.90625 
Q 39.453125 66.40625 31.78125 66.40625 
z
M 31.78125 74.21875 
Q 44.046875 74.21875 50.515625 64.515625 
Q 56.984375 54.828125 56.984375 36.375 
Q 56.984375 17.96875 50.515625 8.265625 
Q 44.046875 -1.421875 31.78125 -1.421875 
Q 19.53125 -1.421875 13.0625 8.265625 
Q 6.59375 17.96875 6.59375 36.375 
Q 6.59375 54.828125 13.0625 64.515625 
Q 19.53125 74.21875 31.78125 74.21875 
z
" id="DejaVuSans-48"/>
       </defs>
       <use xlink:href="#DejaVuSans-8722"/>
       <use x="83.789062" xlink:href="#DejaVuSans-49"/>
       <use x="147.412109" xlink:href="#DejaVuSans-46"/>
       <use x="179.199219" xlink:href="#DejaVuSans-48"/>
       <use x="242.822266" xlink:href="#DejaVuSans-48"/>
      </g>
     </g>
    </g>
    <g id="xtick_2">
     <g id="line2d_3">
      <path clip-path="url(#pc69d8f7cbe)" d="M 91.040284 235.238438 
L 91.040284 17.798438 
" style="fill:none;stroke:#b0b0b0;stroke-linecap:square;stroke-width:0.8;"/>
     </g>
     <g id="line2d_4">
      <g>
       <use style="stroke:#000000;stroke-width:0.8;" x="91.040284" xlink:href="#m7c4600b159" y="235.238438"/>
      </g>
     </g>
     <g id="text_2">
      <!-- −0.75 -->
      <g transform="translate(75.717628 249.836875)scale(0.1 -0.1)">
       <defs>
        <path d="M 8.203125 72.90625 
L 55.078125 72.90625 
L 55.078125 68.703125 
L 28.609375 0 
L 18.3125 0 
L 43.21875 64.59375 
L 8.203125 64.59375 
z
" id="DejaVuSans-55"/>
        <path d="M 10.796875 72.90625 
L 49.515625 72.90625 
L 49.515625 64.59375 
L 19.828125 64.59375 
L 19.828125 46.734375 
Q 21.96875 47.46875 24.109375 47.828125 
Q 26.265625 48.1875 28.421875 48.1875 
Q 40.625 48.1875 47.75 41.5 
Q 54.890625 34.8125 54.890625 23.390625 
Q 54.890625 11.625 47.5625 5.09375 
Q 40.234375 -1.421875 26.90625 -1.421875 
Q 22.3125 -1.421875 17.546875 -0.640625 
Q 12.796875 0.140625 7.71875 1.703125 
L 7.71875 11.625 
Q 12.109375 9.234375 16.796875 8.0625 
Q 21.484375 6.890625 26.703125 6.890625 
Q 35.15625 6.890625 40.078125 11.328125 
Q 45.015625 15.765625 45.015625 23.390625 
Q 45.015625 31 40.078125 35.4375 
Q 35.15625 39.890625 26.703125 39.890625 
Q 22.75 39.890625 18.8125 39.015625 
Q 14.890625 38.140625 10.796875 36.28125 
z
" id="DejaVuSans-53"/>
       </defs>
       <use xlink:href="#DejaVuSans-8722"/>
       <use x="83.789062" xlink:href="#DejaVuSans-48"/>
       <use x="147.412109" xlink:href="#DejaVuSans-46"/>
       <use x="179.199219" xlink:href="#DejaVuSans-55"/>
       <use x="242.822266" xlink:href="#DejaVuSans-53"/>
      </g>
     </g>
    </g>
    <g id="xtick_3">
     <g id="line2d_5">
      <path clip-path="url(#pc69d8f7cbe)" d="M 129.402025 235.238438 
L 129.402025 17.798438 
" style="fill:none;stroke:#b0b0b0;stroke-linecap:square;stroke-width:0.8;"/>
     </g>
     <g id="line2d_6">
      <g>
       <use style="stroke:#000000;stroke-width:0.8;" x="129.402025" xlink:href="#m7c4600b159" y="235.238438"/>
      </g>
     </g>
     <g id="text_3">
      <!-- −0.50 -->
      <g transform="translate(114.079368 249.836875)scale(0.1 -0.1)">
       <use xlink:href="#DejaVuSans-8722"/>
       <use x="83.789062" xlink:href="#DejaVuSans-48"/>
       <use x="147.412109" xlink:href="#DejaVuSans-46"/>
       <use x="179.199219" xlink:href="#DejaVuSans-53"/>
       <use x="242.822266" xlink:href="#DejaVuSans-48"/>
      </g>
     </g>
    </g>
    <g id="xtick_4">
     <g id="line2d_7">
      <path clip-path="url(#pc69d8f7cbe)" d="M 167.763765 235.238438 
L 167.763765 17.798438 
" style="fill:none;stroke:#b0b0b0;stroke-linecap:square;stroke-width:0.8;"/>
     </g>
     <g id="line2d_8">
      <g>
       <use style="stroke:#000000;stroke-width:0.8;" x="167.763765" xlink:href="#m7c4600b159" y="235.238438"/>
      </g>
     </g>
     <g id="text_4">
      <!-- −0.25 -->
      <g transform="translate(152.441109 249.836875)scale(0.1 -0.1)">
       <defs>
        <path d="M 19.1875 8.296875 
L 53.609375 8.296875 
L 53.609375 0 
L 7.328125 0 
L 7.328125 8.296875 
Q 12.9375 14.109375 22.625 23.890625 
Q 32.328125 33.6875 34.8125 36.53125 
Q 39.546875 41.84375 41.421875 45.53125 
Q 43.3125 49.21875 43.3125 52.78125 
Q 43.3125 58.59375 39.234375 62.25 
Q 35.15625 65.921875 28.609375 65.921875 
Q 23.96875 65.921875 18.8125 64.3125 
Q 13.671875 62.703125 7.8125 59.421875 
L 7.8125 69.390625 
Q 13.765625 71.78125 18.9375 73 
Q 24.125 74.21875 28.421875 74.21875 
Q 39.75 74.21875 46.484375 68.546875 
Q 53.21875 62.890625 53.21875 53.421875 
Q 53.21875 48.921875 51.53125 44.890625 
Q 49.859375 40.875 45.40625 35.40625 
Q 44.1875 33.984375 37.640625 27.21875 
Q 31.109375 20.453125 19.1875 8.296875 
z
" id="DejaVuSans-50"/>
       </defs>
       <use xlink:href="#DejaVuSans-8722"/>
       <use x="83.789062" xlink:href="#DejaVuSans-48"/>
       <use x="147.412109" xlink:href="#DejaVuSans-46"/>
       <use x="179.199219" xlink:href="#DejaVuSans-50"/>
       <use x="242.822266" xlink:href="#DejaVuSans-53"/>
      </g>
     </g>
    </g>
    <g id="xtick_5">
     <g id="line2d_9">
      <path clip-path="url(#pc69d8f7cbe)" d="M 206.125506 235.238438 
L 206.125506 17.798438 
" style="fill:none;stroke:#b0b0b0;stroke-linecap:square;stroke-width:0.8;"/>
     </g>
     <g id="line2d_10">
      <g>
       <use style="stroke:#000000;stroke-width:0.8;" x="206.125506" xlink:href="#m7c4600b159" y="235.238438"/>
      </g>
     </g>
     <g id="text_5">
      <!-- 0.00 -->
      <g transform="translate(194.992693 249.836875)scale(0.1 -0.1)">
       <use xlink:href="#DejaVuSans-48"/>
       <use x="63.623047" xlink:href="#DejaVuSans-46"/>
       <use x="95.410156" xlink:href="#DejaVuSans-48"/>
       <use x="159.033203" xlink:href="#DejaVuSans-48"/>
      </g>
     </g>
    </g>
    <g id="xtick_6">
     <g id="line2d_11">
      <path clip-path="url(#pc69d8f7cbe)" d="M 244.487246 235.238438 
L 244.487246 17.798438 
" style="fill:none;stroke:#b0b0b0;stroke-linecap:square;stroke-width:0.8;"/>
     </g>
     <g id="line2d_12">
      <g>
       <use style="stroke:#000000;stroke-width:0.8;" x="244.487246" xlink:href="#m7c4600b159" y="235.238438"/>
      </g>
     </g>
     <g id="text_6">
      <!-- 0.25 -->
      <g transform="translate(233.354434 249.836875)scale(0.1 -0.1)">
       <use xlink:href="#DejaVuSans-48"/>
       <use x="63.623047" xlink:href="#DejaVuSans-46"/>
       <use x="95.410156" xlink:href="#DejaVuSans-50"/>
       <use x="159.033203" xlink:href="#DejaVuSans-53"/>
      </g>
     </g>
    </g>
    <g id="xtick_7">
     <g id="line2d_13">
      <path clip-path="url(#pc69d8f7cbe)" d="M 282.848986 235.238438 
L 282.848986 17.798438 
" style="fill:none;stroke:#b0b0b0;stroke-linecap:square;stroke-width:0.8;"/>
     </g>
     <g id="line2d_14">
      <g>
       <use style="stroke:#000000;stroke-width:0.8;" x="282.848986" xlink:href="#m7c4600b159" y="235.238438"/>
      </g>
     </g>
     <g id="text_7">
      <!-- 0.50 -->
      <g transform="translate(271.716174 249.836875)scale(0.1 -0.1)">
       <use xlink:href="#DejaVuSans-48"/>
       <use x="63.623047" xlink:href="#DejaVuSans-46"/>
       <use x="95.410156" xlink:href="#DejaVuSans-53"/>
       <use x="159.033203" xlink:href="#DejaVuSans-48"/>
      </g>
     </g>
    </g>
    <g id="xtick_8">
     <g id="line2d_15">
      <path clip-path="url(#pc69d8f7cbe)" d="M 321.210727 235.238438 
L 321.210727 17.798438 
" style="fill:none;stroke:#b0b0b0;stroke-linecap:square;stroke-width:0.8;"/>
     </g>
     <g id="line2d_16">
      <g>
       <use style="stroke:#000000;stroke-width:0.8;" x="321.210727" xlink:href="#m7c4600b159" y="235.238438"/>
      </g>
     </g>
     <g id="text_8">
      <!-- 0.75 -->
      <g transform="translate(310.077914 249.836875)scale(0.1 -0.1)">
       <use xlink:href="#DejaVuSans-48"/>
       <use x="63.623047" xlink:href="#DejaVuSans-46"/>
       <use x="95.410156" xlink:href="#DejaVuSans-55"/>
       <use x="159.033203" xlink:href="#DejaVuSans-53"/>
      </g>
     </g>
    </g>
    <g id="xtick_9">
     <g id="line2d_17">
      <path clip-path="url(#pc69d8f7cbe)" d="M 359.572467 235.238438 
L 359.572467 17.798438 
" style="fill:none;stroke:#b0b0b0;stroke-linecap:square;stroke-width:0.8;"/>
     </g>
     <g id="line2d_18">
      <g>
       <use style="stroke:#000000;stroke-width:0.8;" x="359.572467" xlink:href="#m7c4600b159" y="235.238438"/>
      </g>
     </g>
     <g id="text_9">
      <!-- 1.00 -->
      <g transform="translate(348.439655 249.836875)scale(0.1 -0.1)">
       <use xlink:href="#DejaVuSans-49"/>
       <use x="63.623047" xlink:href="#DejaVuSans-46"/>
       <use x="95.410156" xlink:href="#DejaVuSans-48"/>
       <use x="159.033203" xlink:href="#DejaVuSans-48"/>
      </g>
     </g>
    </g>
    <g id="text_10">
     <!-- $x(t)$ -->
     <g transform="translate(210.710938 263.515)scale(0.1 -0.1)">
      <defs>
       <path d="M 60.015625 54.6875 
L 34.90625 27.875 
L 50.296875 0 
L 39.984375 0 
L 28.421875 21.6875 
L 8.296875 0 
L -2.59375 0 
L 24.3125 28.8125 
L 10.015625 54.6875 
L 20.3125 54.6875 
L 30.8125 34.90625 
L 49.125 54.6875 
z
" id="DejaVuSans-Oblique-120"/>
       <path d="M 31 75.875 
Q 24.46875 64.65625 21.28125 53.65625 
Q 18.109375 42.671875 18.109375 31.390625 
Q 18.109375 20.125 21.3125 9.0625 
Q 24.515625 -2 31 -13.1875 
L 23.1875 -13.1875 
Q 15.875 -1.703125 12.234375 9.375 
Q 8.59375 20.453125 8.59375 31.390625 
Q 8.59375 42.28125 12.203125 53.3125 
Q 15.828125 64.359375 23.1875 75.875 
z
" id="DejaVuSans-40"/>
       <path d="M 42.28125 54.6875 
L 40.921875 47.703125 
L 23 47.703125 
L 17.1875 18.015625 
Q 16.890625 16.359375 16.75 15.234375 
Q 16.609375 14.109375 16.609375 13.484375 
Q 16.609375 10.359375 18.484375 8.9375 
Q 20.359375 7.515625 24.515625 7.515625 
L 33.59375 7.515625 
L 32.078125 0 
L 23.484375 0 
Q 15.484375 0 11.546875 3.125 
Q 7.625 6.25 7.625 12.59375 
Q 7.625 13.71875 7.765625 15.0625 
Q 7.90625 16.40625 8.203125 18.015625 
L 14.015625 47.703125 
L 6.390625 47.703125 
L 7.8125 54.6875 
L 15.28125 54.6875 
L 18.3125 70.21875 
L 27.296875 70.21875 
L 24.3125 54.6875 
z
" id="DejaVuSans-Oblique-116"/>
       <path d="M 8.015625 75.875 
L 15.828125 75.875 
Q 23.140625 64.359375 26.78125 53.3125 
Q 30.421875 42.28125 30.421875 31.390625 
Q 30.421875 20.453125 26.78125 9.375 
Q 23.140625 -1.703125 15.828125 -13.1875 
L 8.015625 -13.1875 
Q 14.5 -2 17.703125 9.0625 
Q 20.90625 20.125 20.90625 31.390625 
Q 20.90625 42.671875 17.703125 53.65625 
Q 14.5 64.65625 8.015625 75.875 
z
" id="DejaVuSans-41"/>
      </defs>
      <use transform="translate(0 0.125)" xlink:href="#DejaVuSans-Oblique-120"/>
      <use transform="translate(59.179688 0.125)" xlink:href="#DejaVuSans-40"/>
      <use transform="translate(98.193359 0.125)" xlink:href="#DejaVuSans-Oblique-116"/>
      <use transform="translate(137.402344 0.125)" xlink:href="#DejaVuSans-41"/>
     </g>
    </g>
    <g id="text_11">
     <!-- 1e11 -->
     <g transform="translate(361.720312 262.515)scale(0.1 -0.1)">
      <defs>
       <path d="M 56.203125 29.59375 
L 56.203125 25.203125 
L 14.890625 25.203125 
Q 15.484375 15.921875 20.484375 11.0625 
Q 25.484375 6.203125 34.421875 6.203125 
Q 39.59375 6.203125 44.453125 7.46875 
Q 49.3125 8.734375 54.109375 11.28125 
L 54.109375 2.78125 
Q 49.265625 0.734375 44.1875 -0.34375 
Q 39.109375 -1.421875 33.890625 -1.421875 
Q 20.796875 -1.421875 13.15625 6.1875 
Q 5.515625 13.8125 5.515625 26.8125 
Q 5.515625 40.234375 12.765625 48.109375 
Q 20.015625 56 32.328125 56 
Q 43.359375 56 49.78125 48.890625 
Q 56.203125 41.796875 56.203125 29.59375 
z
M 47.21875 32.234375 
Q 47.125 39.59375 43.09375 43.984375 
Q 39.0625 48.390625 32.421875 48.390625 
Q 24.90625 48.390625 20.390625 44.140625 
Q 15.875 39.890625 15.1875 32.171875 
z
" id="DejaVuSans-101"/>
      </defs>
      <use xlink:href="#DejaVuSans-49"/>
      <use x="63.623047" xlink:href="#DejaVuSans-101"/>
      <use x="125.146484" xlink:href="#DejaVuSans-49"/>
      <use x="188.769531" xlink:href="#DejaVuSans-49"/>
     </g>
    </g>
   </g>
   <g id="matplotlib.axis_2">
    <g id="ytick_1">
     <g id="line2d_19">
      <path clip-path="url(#pc69d8f7cbe)" d="M 52.160938 223.476012 
L 386.960938 223.476012 
" style="fill:none;stroke:#b0b0b0;stroke-linecap:square;stroke-width:0.8;"/>
     </g>
     <g id="line2d_20">
      <defs>
       <path d="M 0 0 
L -3.5 0 
" id="m833afe9275" style="stroke:#000000;stroke-width:0.8;"/>
      </defs>
      <g>
       <use style="stroke:#000000;stroke-width:0.8;" x="52.160938" xlink:href="#m833afe9275" y="223.476012"/>
      </g>
     </g>
     <g id="text_12">
      <!-- −7.5 -->
      <g transform="translate(20.878125 227.275231)scale(0.1 -0.1)">
       <use xlink:href="#DejaVuSans-8722"/>
       <use x="83.789062" xlink:href="#DejaVuSans-55"/>
       <use x="147.412109" xlink:href="#DejaVuSans-46"/>
       <use x="179.199219" xlink:href="#DejaVuSans-53"/>
      </g>
     </g>
    </g>
    <g id="ytick_2">
     <g id="line2d_21">
      <path clip-path="url(#pc69d8f7cbe)" d="M 52.160938 194.065423 
L 386.960938 194.065423 
" style="fill:none;stroke:#b0b0b0;stroke-linecap:square;stroke-width:0.8;"/>
     </g>
     <g id="line2d_22">
      <g>
       <use style="stroke:#000000;stroke-width:0.8;" x="52.160938" xlink:href="#m833afe9275" y="194.065423"/>
      </g>
     </g>
     <g id="text_13">
      <!-- −5.0 -->
      <g transform="translate(20.878125 197.864642)scale(0.1 -0.1)">
       <use xlink:href="#DejaVuSans-8722"/>
       <use x="83.789062" xlink:href="#DejaVuSans-53"/>
       <use x="147.412109" xlink:href="#DejaVuSans-46"/>
       <use x="179.199219" xlink:href="#DejaVuSans-48"/>
      </g>
     </g>
    </g>
    <g id="ytick_3">
     <g id="line2d_23">
      <path clip-path="url(#pc69d8f7cbe)" d="M 52.160938 164.654834 
L 386.960938 164.654834 
" style="fill:none;stroke:#b0b0b0;stroke-linecap:square;stroke-width:0.8;"/>
     </g>
     <g id="line2d_24">
      <g>
       <use style="stroke:#000000;stroke-width:0.8;" x="52.160938" xlink:href="#m833afe9275" y="164.654834"/>
      </g>
     </g>
     <g id="text_14">
      <!-- −2.5 -->
      <g transform="translate(20.878125 168.454053)scale(0.1 -0.1)">
       <use xlink:href="#DejaVuSans-8722"/>
       <use x="83.789062" xlink:href="#DejaVuSans-50"/>
       <use x="147.412109" xlink:href="#DejaVuSans-46"/>
       <use x="179.199219" xlink:href="#DejaVuSans-53"/>
      </g>
     </g>
    </g>
    <g id="ytick_4">
     <g id="line2d_25">
      <path clip-path="url(#pc69d8f7cbe)" d="M 52.160938 135.244245 
L 386.960938 135.244245 
" style="fill:none;stroke:#b0b0b0;stroke-linecap:square;stroke-width:0.8;"/>
     </g>
     <g id="line2d_26">
      <g>
       <use style="stroke:#000000;stroke-width:0.8;" x="52.160938" xlink:href="#m833afe9275" y="135.244245"/>
      </g>
     </g>
     <g id="text_15">
      <!-- 0.0 -->
      <g transform="translate(29.257812 139.043464)scale(0.1 -0.1)">
       <use xlink:href="#DejaVuSans-48"/>
       <use x="63.623047" xlink:href="#DejaVuSans-46"/>
       <use x="95.410156" xlink:href="#DejaVuSans-48"/>
      </g>
     </g>
    </g>
    <g id="ytick_5">
     <g id="line2d_27">
      <path clip-path="url(#pc69d8f7cbe)" d="M 52.160938 105.833656 
L 386.960938 105.833656 
" style="fill:none;stroke:#b0b0b0;stroke-linecap:square;stroke-width:0.8;"/>
     </g>
     <g id="line2d_28">
      <g>
       <use style="stroke:#000000;stroke-width:0.8;" x="52.160938" xlink:href="#m833afe9275" y="105.833656"/>
      </g>
     </g>
     <g id="text_16">
      <!-- 2.5 -->
      <g transform="translate(29.257812 109.632875)scale(0.1 -0.1)">
       <use xlink:href="#DejaVuSans-50"/>
       <use x="63.623047" xlink:href="#DejaVuSans-46"/>
       <use x="95.410156" xlink:href="#DejaVuSans-53"/>
      </g>
     </g>
    </g>
    <g id="ytick_6">
     <g id="line2d_29">
      <path clip-path="url(#pc69d8f7cbe)" d="M 52.160938 76.423067 
L 386.960938 76.423067 
" style="fill:none;stroke:#b0b0b0;stroke-linecap:square;stroke-width:0.8;"/>
     </g>
     <g id="line2d_30">
      <g>
       <use style="stroke:#000000;stroke-width:0.8;" x="52.160938" xlink:href="#m833afe9275" y="76.423067"/>
      </g>
     </g>
     <g id="text_17">
      <!-- 5.0 -->
      <g transform="translate(29.257812 80.222285)scale(0.1 -0.1)">
       <use xlink:href="#DejaVuSans-53"/>
       <use x="63.623047" xlink:href="#DejaVuSans-46"/>
       <use x="95.410156" xlink:href="#DejaVuSans-48"/>
      </g>
     </g>
    </g>
    <g id="ytick_7">
     <g id="line2d_31">
      <path clip-path="url(#pc69d8f7cbe)" d="M 52.160938 47.012478 
L 386.960938 47.012478 
" style="fill:none;stroke:#b0b0b0;stroke-linecap:square;stroke-width:0.8;"/>
     </g>
     <g id="line2d_32">
      <g>
       <use style="stroke:#000000;stroke-width:0.8;" x="52.160938" xlink:href="#m833afe9275" y="47.012478"/>
      </g>
     </g>
     <g id="text_18">
      <!-- 7.5 -->
      <g transform="translate(29.257812 50.811696)scale(0.1 -0.1)">
       <use xlink:href="#DejaVuSans-55"/>
       <use x="63.623047" xlink:href="#DejaVuSans-46"/>
       <use x="95.410156" xlink:href="#DejaVuSans-53"/>
      </g>
     </g>
    </g>
    <g id="text_19">
     <!-- $v(t)$ -->
     <g transform="translate(14.798438 135.368437)rotate(-90)scale(0.1 -0.1)">
      <defs>
       <path d="M 7.171875 54.6875 
L 16.703125 54.6875 
L 24.703125 8.203125 
L 50.875 54.6875 
L 60.40625 54.6875 
L 29.296875 0 
L 17.1875 0 
z
" id="DejaVuSans-Oblique-118"/>
      </defs>
      <use transform="translate(0 0.125)" xlink:href="#DejaVuSans-Oblique-118"/>
      <use transform="translate(59.179688 0.125)" xlink:href="#DejaVuSans-40"/>
      <use transform="translate(98.193359 0.125)" xlink:href="#DejaVuSans-Oblique-116"/>
      <use transform="translate(137.402344 0.125)" xlink:href="#DejaVuSans-41"/>
     </g>
    </g>
    <g id="text_20">
     <!-- 1e10 -->
     <g transform="translate(52.160938 14.798437)scale(0.1 -0.1)">
      <use xlink:href="#DejaVuSans-49"/>
      <use x="63.623047" xlink:href="#DejaVuSans-101"/>
      <use x="125.146484" xlink:href="#DejaVuSans-49"/>
      <use x="188.769531" xlink:href="#DejaVuSans-48"/>
     </g>
    </g>
   </g>
   <g id="line2d_33">
    <path clip-path="url(#pc69d8f7cbe)" d="M 206.125506 135.244245 
L 206.024008 135.310164 
L 186.473009 148.007802 
L 186.473009 148.007802 
" style="fill:none;stroke:#0000ff;stroke-linecap:square;stroke-width:0.2;"/>
   </g>
   <g id="line2d_34">
    <path clip-path="url(#pc69d8f7cbe)" d="M 206.125506 135.244245 
L 206.032496 135.304651 
L 161.124468 164.470725 
L 161.124468 164.470725 
" style="fill:none;stroke:#0000ff;stroke-linecap:square;stroke-width:0.2;"/>
   </g>
   <g id="line2d_35">
    <path clip-path="url(#pc69d8f7cbe)" d="M 206.125506 135.244245 
L 206.21799 135.184179 
L 255.66577 103.069708 
L 255.66577 103.069708 
" style="fill:none;stroke:#0000ff;stroke-linecap:square;stroke-width:0.2;"/>
   </g>
   <g id="line2d_36">
    <path clip-path="url(#pc69d8f7cbe)" d="M 206.125506 135.244245 
L 205.944589 135.361744 
L 146.359825 174.059805 
L 146.359825 174.059805 
" style="fill:none;stroke:#0000ff;stroke-linecap:square;stroke-width:0.2;"/>
   </g>
   <g id="line2d_37">
    <path clip-path="url(#pc69d8f7cbe)" d="M 206.125506 135.244245 
L 205.9238 135.375245 
L 98.080444 205.415446 
L 98.080444 205.415446 
" style="fill:none;stroke:#0000ff;stroke-linecap:square;stroke-width:0.2;"/>
   </g>
   <g id="line2d_38">
    <path clip-path="url(#pc69d8f7cbe)" d="M 206.125506 135.244245 
L 206.23783 135.171294 
L 243.231867 111.14506 
L 243.231867 111.14506 
" style="fill:none;stroke:#0000ff;stroke-linecap:square;stroke-width:0.2;"/>
   </g>
   <g id="line2d_39">
    <path clip-path="url(#pc69d8f7cbe)" d="M 206.125506 135.244245 
L 206.256936 135.158886 
L 263.56331 97.940552 
L 263.56331 97.940552 
" style="fill:none;stroke:#0000ff;stroke-linecap:square;stroke-width:0.2;"/>
   </g>
   <g id="line2d_40">
    <path clip-path="url(#pc69d8f7cbe)" d="M 206.125506 135.244245 
L 206.239244 135.170376 
L 290.930537 80.166569 
L 290.930537 80.166569 
" style="fill:none;stroke:#0000ff;stroke-linecap:square;stroke-width:0.2;"/>
   </g>
   <g id="line2d_41">
    <path clip-path="url(#pc69d8f7cbe)" d="M 206.125506 135.244245 
L 206.027017 135.30821 
L 190.957922 145.09502 
L 190.957922 145.09502 
" style="fill:none;stroke:#0000ff;stroke-linecap:square;stroke-width:0.2;"/>
   </g>
   <g id="line2d_42">
    <path clip-path="url(#pc69d8f7cbe)" d="M 206.125506 135.244245 
L 206.221502 135.181899 
L 206.756199 134.834633 
L 206.756199 134.834633 
" style="fill:none;stroke:#0000ff;stroke-linecap:square;stroke-width:0.2;"/>
   </g>
   <g id="line2d_43">
    <path clip-path="url(#pc69d8f7cbe)" d="M 206.125506 135.244245 
L 206.125506 135.244245 
L 206.032032 135.304953 
L 175.246465 155.29902 
L 175.246465 155.29902 
" style="fill:none;stroke:#0000ff;stroke-linecap:square;stroke-width:0.2;"/>
   </g>
   <g id="line2d_44">
    <path clip-path="url(#pc69d8f7cbe)" d="M 206.125506 135.244245 
L 205.878222 135.404846 
L 80.236921 217.004143 
L 80.236921 217.004143 
" style="fill:none;stroke:#0000ff;stroke-linecap:square;stroke-width:0.2;"/>
   </g>
   <g id="line2d_45">
    <path clip-path="url(#pc69d8f7cbe)" d="M 206.125506 135.244245 
L 208.537882 133.677497 
L 340.417199 48.026844 
L 340.417199 48.026844 
" style="fill:none;stroke:#0000ff;stroke-linecap:square;stroke-width:0.2;"/>
   </g>
   <g id="line2d_46">
    <path clip-path="url(#pc69d8f7cbe)" d="M 206.125506 135.244245 
L 206.40819 135.060652 
L 284.277103 84.487724 
L 284.277103 84.487724 
" style="fill:none;stroke:#0000ff;stroke-linecap:square;stroke-width:0.2;"/>
   </g>
   <g id="line2d_47">
    <path clip-path="url(#pc69d8f7cbe)" d="M 206.125506 135.244245 
L 206.268121 135.151621 
L 242.656309 111.518863 
L 242.656309 111.518863 
" style="fill:none;stroke:#0000ff;stroke-linecap:square;stroke-width:0.2;"/>
   </g>
   <g id="line2d_48">
    <path clip-path="url(#pc69d8f7cbe)" d="M 206.125506 135.244245 
L 206.260231 135.156746 
L 266.520429 96.020015 
L 266.520429 96.020015 
" style="fill:none;stroke:#0000ff;stroke-linecap:square;stroke-width:0.2;"/>
   </g>
   <g id="line2d_49">
    <path clip-path="url(#pc69d8f7cbe)" d="M 206.125506 135.244245 
L 206.226059 135.178939 
L 209.666594 132.944441 
L 209.666594 132.944441 
" style="fill:none;stroke:#0000ff;stroke-linecap:square;stroke-width:0.2;"/>
   </g>
   <g id="line2d_50">
    <path clip-path="url(#pc69d8f7cbe)" d="M 206.125506 135.244245 
L 206.221622 135.181821 
L 210.718699 132.261139 
L 210.718699 132.261139 
" style="fill:none;stroke:#0000ff;stroke-linecap:square;stroke-width:0.2;"/>
   </g>
   <g id="line2d_51">
    <path clip-path="url(#pc69d8f7cbe)" d="M 206.125506 135.244245 
L 206.236346 135.172258 
L 213.132666 130.693358 
L 213.132666 130.693358 
" style="fill:none;stroke:#0000ff;stroke-linecap:square;stroke-width:0.2;"/>
   </g>
   <g id="line2d_52">
    <path clip-path="url(#pc69d8f7cbe)" d="M 206.125506 135.244245 
L 206.018794 135.31355 
L 164.002217 162.601735 
L 164.002217 162.601735 
" style="fill:none;stroke:#0000ff;stroke-linecap:square;stroke-width:0.2;"/>
   </g>
   <g id="line2d_53">
    <path clip-path="url(#pc69d8f7cbe)" d="M 206.125506 135.244245 
L 206.217888 135.184246 
L 238.23685 114.389135 
L 238.23685 114.389135 
" style="fill:none;stroke:#0000ff;stroke-linecap:square;stroke-width:0.2;"/>
   </g>
   <g id="line2d_54">
    <path clip-path="url(#pc69d8f7cbe)" d="M 206.125506 135.244245 
L 206.125506 135.244245 
L 206.220754 135.182385 
L 211.99573 131.431755 
L 211.99573 131.431755 
" style="fill:none;stroke:#0000ff;stroke-linecap:square;stroke-width:0.2;"/>
   </g>
   <g id="line2d_55">
    <path clip-path="url(#pc69d8f7cbe)" d="M 206.125506 135.244245 
L 205.963929 135.349183 
L 110.30516 197.475953 
L 110.30516 197.475953 
" style="fill:none;stroke:#0000ff;stroke-linecap:square;stroke-width:0.2;"/>
   </g>
   <g id="line2d_56">
    <path clip-path="url(#pc69d8f7cbe)" d="M 206.125506 135.244245 
L 205.844186 135.426951 
L 103.237527 202.066115 
L 103.237527 202.066115 
" style="fill:none;stroke:#0000ff;stroke-linecap:square;stroke-width:0.2;"/>
   </g>
   <g id="line2d_57">
    <path clip-path="url(#pc69d8f7cbe)" d="M 206.125506 135.244245 
L 206.328617 135.112332 
L 265.209024 96.871723 
L 265.209024 96.871723 
" style="fill:none;stroke:#0000ff;stroke-linecap:square;stroke-width:0.2;"/>
   </g>
   <g id="line2d_58">
    <path clip-path="url(#pc69d8f7cbe)" d="M 206.125506 135.244245 
L 206.224631 135.179867 
L 248.357283 107.816295 
L 248.357283 107.816295 
" style="fill:none;stroke:#0000ff;stroke-linecap:square;stroke-width:0.2;"/>
   </g>
   <g id="line2d_59">
    <path clip-path="url(#pc69d8f7cbe)" d="M 206.125506 135.244245 
L 206.289541 135.13771 
L 276.011624 89.855841 
L 276.011624 89.855841 
" style="fill:none;stroke:#0000ff;stroke-linecap:square;stroke-width:0.2;"/>
   </g>
   <g id="line2d_60">
    <path clip-path="url(#pc69d8f7cbe)" d="M 206.125506 135.244245 
L 205.925574 135.374093 
L 96.271148 206.590516 
L 96.271148 206.590516 
" style="fill:none;stroke:#0000ff;stroke-linecap:square;stroke-width:0.2;"/>
   </g>
   <g id="line2d_61">
    <path clip-path="url(#pc69d8f7cbe)" d="M 206.125506 135.244245 
L 206.240123 135.169805 
L 239.466862 113.590288 
L 239.466862 113.590288 
" style="fill:none;stroke:#0000ff;stroke-linecap:square;stroke-width:0.2;"/>
   </g>
   <g id="line2d_62">
    <path clip-path="url(#pc69d8f7cbe)" d="M 206.125506 135.244245 
L 206.125506 135.244245 
L 206.217274 135.184645 
L 238.02355 114.527665 
L 238.02355 114.527665 
" style="fill:none;stroke:#0000ff;stroke-linecap:square;stroke-width:0.2;"/>
   </g>
   <g id="line2d_63">
    <path clip-path="url(#pc69d8f7cbe)" d="M 206.125506 135.244245 
L 206.364788 135.08884 
L 331.079459 54.091355 
L 331.079459 54.091355 
" style="fill:none;stroke:#0000ff;stroke-linecap:square;stroke-width:0.2;"/>
   </g>
   <g id="line2d_64">
    <path clip-path="url(#pc69d8f7cbe)" d="M 206.125506 135.244245 
L 206.384822 135.075828 
L 298.584257 75.195766 
L 298.584257 75.195766 
" style="fill:none;stroke:#0000ff;stroke-linecap:square;stroke-width:0.2;"/>
   </g>
   <g id="line2d_65">
    <path clip-path="url(#pc69d8f7cbe)" d="M 206.125506 135.244245 
L 207.356045 134.445056 
L 264.930065 97.052896 
L 264.930065 97.052896 
" style="fill:none;stroke:#0000ff;stroke-linecap:square;stroke-width:0.2;"/>
   </g>
   <g id="line2d_66">
    <path clip-path="url(#pc69d8f7cbe)" d="M 206.125506 135.244245 
L 205.960961 135.35111 
L 113.385608 195.475318 
L 113.385608 195.475318 
" style="fill:none;stroke:#0000ff;stroke-linecap:square;stroke-width:0.2;"/>
   </g>
   <g id="line2d_67">
    <path clip-path="url(#pc69d8f7cbe)" d="M 206.125506 135.244245 
L 205.992788 135.33044 
L 99.321705 204.609294 
L 99.321705 204.609294 
" style="fill:none;stroke:#0000ff;stroke-linecap:square;stroke-width:0.2;"/>
   </g>
   <g id="line2d_68">
    <path clip-path="url(#pc69d8f7cbe)" d="M 206.125506 135.244245 
L 205.812898 135.447271 
L 171.539343 157.706656 
L 171.539343 157.706656 
" style="fill:none;stroke:#0000ff;stroke-linecap:square;stroke-width:0.2;"/>
   </g>
   <g id="line2d_69">
    <path clip-path="url(#pc69d8f7cbe)" d="M 206.125506 135.244245 
L 206.248583 135.164311 
L 259.912988 100.3113 
L 259.912988 100.3113 
" style="fill:none;stroke:#0000ff;stroke-linecap:square;stroke-width:0.2;"/>
   </g>
   <g id="line2d_70">
    <path clip-path="url(#pc69d8f7cbe)" d="M 206.125506 135.244245 
L 205.492575 135.65531 
L 168.097412 159.942061 
L 168.097412 159.942061 
" style="fill:none;stroke:#0000ff;stroke-linecap:square;stroke-width:0.2;"/>
   </g>
   <g id="line2d_71">
    <path clip-path="url(#pc69d8f7cbe)" d="M 206.125506 135.244245 
L 206.292324 135.135902 
L 245.716124 109.531628 
L 245.716124 109.531628 
" style="fill:none;stroke:#0000ff;stroke-linecap:square;stroke-width:0.2;"/>
   </g>
   <g id="line2d_72">
    <path clip-path="url(#pc69d8f7cbe)" d="M 206.125506 135.244245 
L 206.223163 135.18082 
L 215.400643 129.220392 
L 215.400643 129.220392 
" style="fill:none;stroke:#0000ff;stroke-linecap:square;stroke-width:0.2;"/>
   </g>
   <g id="line2d_73">
    <path clip-path="url(#pc69d8f7cbe)" d="M 206.125506 135.244245 
L 206.267519 135.152012 
L 294.740428 77.692188 
L 294.740428 77.692188 
" style="fill:none;stroke:#0000ff;stroke-linecap:square;stroke-width:0.2;"/>
   </g>
   <g id="line2d_74">
    <path clip-path="url(#pc69d8f7cbe)" d="M 206.125506 135.244245 
L 206.013032 135.317292 
L 158.206925 166.365559 
L 158.206925 166.365559 
" style="fill:none;stroke:#0000ff;stroke-linecap:square;stroke-width:0.2;"/>
   </g>
   <g id="line2d_75">
    <path clip-path="url(#pc69d8f7cbe)" d="M 206.125506 135.244245 
L 206.428049 135.047754 
L 325.551146 57.681786 
L 325.551146 57.681786 
" style="fill:none;stroke:#0000ff;stroke-linecap:square;stroke-width:0.2;"/>
   </g>
   <g id="line2d_76">
    <path clip-path="url(#pc69d8f7cbe)" d="M 206.125506 135.244245 
L 205.995583 135.328625 
L 106.757447 199.780059 
L 106.757447 199.780059 
" style="fill:none;stroke:#0000ff;stroke-linecap:square;stroke-width:0.2;"/>
   </g>
   <g id="line2d_77">
    <path clip-path="url(#pc69d8f7cbe)" d="M 206.125506 135.244245 
L 206.125506 135.244245 
L 206.032291 135.304785 
L 180.355073 151.981171 
L 180.355073 151.981171 
" style="fill:none;stroke:#0000ff;stroke-linecap:square;stroke-width:0.2;"/>
   </g>
   <g id="line2d_78">
    <path clip-path="url(#pc69d8f7cbe)" d="M 206.125506 135.244245 
L 205.623642 135.570186 
L 67.379119 225.354801 
L 67.379119 225.354801 
" style="fill:none;stroke:#0000ff;stroke-linecap:square;stroke-width:0.2;"/>
   </g>
   <g id="line2d_79">
    <path clip-path="url(#pc69d8f7cbe)" d="M 206.125506 135.244245 
L 205.998866 135.326493 
L 146.392191 174.038785 
L 146.392191 174.038785 
" style="fill:none;stroke:#0000ff;stroke-linecap:square;stroke-width:0.2;"/>
   </g>
   <g id="line2d_80">
    <path clip-path="url(#pc69d8f7cbe)" d="M 206.125506 135.244245 
L 206.253231 135.161292 
L 244.237315 110.492059 
L 244.237315 110.492059 
" style="fill:none;stroke:#0000ff;stroke-linecap:square;stroke-width:0.2;"/>
   </g>
   <g id="line2d_81">
    <path clip-path="url(#pc69d8f7cbe)" d="M 206.125506 135.244245 
L 206.228138 135.177589 
L 229.871199 119.822311 
L 229.871199 119.822311 
" style="fill:none;stroke:#0000ff;stroke-linecap:square;stroke-width:0.2;"/>
   </g>
   <g id="line2d_82">
    <path clip-path="url(#pc69d8f7cbe)" d="M 206.125506 135.244245 
L 205.983367 135.336559 
L 181.891024 150.983629 
L 181.891024 150.983629 
" style="fill:none;stroke:#0000ff;stroke-linecap:square;stroke-width:0.2;"/>
   </g>
   <g id="line2d_83">
    <path clip-path="url(#pc69d8f7cbe)" d="M 206.125506 135.244245 
L 206.225066 135.179584 
L 217.424502 127.905972 
L 217.424502 127.905972 
" style="fill:none;stroke:#0000ff;stroke-linecap:square;stroke-width:0.2;"/>
   </g>
   <g id="line2d_84">
    <path clip-path="url(#pc69d8f7cbe)" d="M 206.125506 135.244245 
L 206.318894 135.118646 
L 292.817836 78.940839 
L 292.817836 78.940839 
" style="fill:none;stroke:#0000ff;stroke-linecap:square;stroke-width:0.2;"/>
   </g>
   <g id="line2d_85">
    <path clip-path="url(#pc69d8f7cbe)" d="M 206.125506 135.244245 
L 206.125506 135.244245 
L 206.220271 135.182698 
L 206.970372 134.695536 
L 206.970372 134.695536 
" style="fill:none;stroke:#0000ff;stroke-linecap:square;stroke-width:0.2;"/>
   </g>
   <g id="line2d_86">
    <path clip-path="url(#pc69d8f7cbe)" d="M 206.125506 135.244245 
L 205.893855 135.394693 
L 107.43243 199.341683 
L 107.43243 199.341683 
" style="fill:none;stroke:#0000ff;stroke-linecap:square;stroke-width:0.2;"/>
   </g>
   <g id="line2d_87">
    <path clip-path="url(#pc69d8f7cbe)" d="M 206.125506 135.244245 
L 206.305599 135.127281 
L 262.667802 98.522151 
L 262.667802 98.522151 
" style="fill:none;stroke:#0000ff;stroke-linecap:square;stroke-width:0.2;"/>
   </g>
   <g id="line2d_88">
    <path clip-path="url(#pc69d8f7cbe)" d="M 206.125506 135.244245 
L 206.024203 135.310037 
L 182.687479 150.466361 
L 182.687479 150.466361 
" style="fill:none;stroke:#0000ff;stroke-linecap:square;stroke-width:0.2;"/>
   </g>
   <g id="line2d_89">
    <path clip-path="url(#pc69d8f7cbe)" d="M 206.125506 135.244245 
L 206.125506 135.244245 
L 206.217211 135.184685 
L 217.944738 127.568098 
L 217.944738 127.568098 
" style="fill:none;stroke:#0000ff;stroke-linecap:square;stroke-width:0.2;"/>
   </g>
   <g id="line2d_90">
    <path clip-path="url(#pc69d8f7cbe)" d="M 206.125506 135.244245 
L 206.02891 135.30698 
L 201.143359 138.479961 
L 201.143359 138.479961 
" style="fill:none;stroke:#0000ff;stroke-linecap:square;stroke-width:0.2;"/>
   </g>
   <g id="line2d_91">
    <path clip-path="url(#pc69d8f7cbe)" d="M 206.125506 135.244245 
L 205.625517 135.568969 
L 81.271095 216.332486 
L 81.271095 216.332486 
" style="fill:none;stroke:#0000ff;stroke-linecap:square;stroke-width:0.2;"/>
   </g>
   <g id="line2d_92">
    <path clip-path="url(#pc69d8f7cbe)" d="M 206.125506 135.244245 
L 206.361062 135.09126 
L 255.352259 103.273321 
L 255.352259 103.273321 
" style="fill:none;stroke:#0000ff;stroke-linecap:square;stroke-width:0.2;"/>
   </g>
   <g id="line2d_93">
    <path clip-path="url(#pc69d8f7cbe)" d="M 206.125506 135.244245 
L 206.033071 135.304278 
L 188.677329 146.576179 
L 188.677329 146.576179 
" style="fill:none;stroke:#0000ff;stroke-linecap:square;stroke-width:0.2;"/>
   </g>
   <g id="line2d_94">
    <path clip-path="url(#pc69d8f7cbe)" d="M 206.125506 135.244245 
L 206.225024 135.179611 
L 231.617043 118.688451 
L 231.617043 118.688451 
" style="fill:none;stroke:#0000ff;stroke-linecap:square;stroke-width:0.2;"/>
   </g>
   <g id="line2d_95">
    <path clip-path="url(#pc69d8f7cbe)" d="M 206.125506 135.244245 
L 206.337284 135.106703 
L 267.73024 95.234288 
L 267.73024 95.234288 
" style="fill:none;stroke:#0000ff;stroke-linecap:square;stroke-width:0.2;"/>
   </g>
   <g id="line2d_96">
    <path clip-path="url(#pc69d8f7cbe)" d="M 206.125506 135.244245 
L 206.027929 135.307617 
L 184.669561 149.179073 
L 184.669561 149.179073 
" style="fill:none;stroke:#0000ff;stroke-linecap:square;stroke-width:0.2;"/>
   </g>
   <g id="line2d_97">
    <path clip-path="url(#pc69d8f7cbe)" d="M 206.125506 135.244245 
L 206.217346 135.184598 
L 247.295705 108.50575 
L 247.295705 108.50575 
" style="fill:none;stroke:#0000ff;stroke-linecap:square;stroke-width:0.2;"/>
   </g>
   <g id="line2d_98">
    <path clip-path="url(#pc69d8f7cbe)" d="M 206.125506 135.244245 
L 206.55631 134.964453 
L 283.411081 85.050172 
L 283.411081 85.050172 
" style="fill:none;stroke:#0000ff;stroke-linecap:square;stroke-width:0.2;"/>
   </g>
   <g id="line2d_99">
    <path clip-path="url(#pc69d8f7cbe)" d="M 206.125506 135.244245 
L 206.231161 135.175626 
L 250.008683 106.743773 
L 250.008683 106.743773 
" style="fill:none;stroke:#0000ff;stroke-linecap:square;stroke-width:0.2;"/>
   </g>
   <g id="line2d_100">
    <path clip-path="url(#pc69d8f7cbe)" d="M 206.125506 135.244245 
L 191.390097 144.814338 
L 132.945207 182.772095 
L 132.945207 182.772095 
" style="fill:none;stroke:#0000ff;stroke-linecap:square;stroke-width:0.2;"/>
   </g>
   <g id="line2d_101">
    <path clip-path="url(#pc69d8f7cbe)" d="M 206.125506 135.244245 
L 206.024852 135.309615 
L 176.091879 154.749955 
L 176.091879 154.749955 
" style="fill:none;stroke:#0000ff;stroke-linecap:square;stroke-width:0.2;"/>
   </g>
   <g id="line2d_102">
    <path clip-path="url(#pc69d8f7cbe)" d="M 206.125506 135.244245 
L 205.934507 135.368291 
L 166.210447 161.167573 
L 166.210447 161.167573 
" style="fill:none;stroke:#0000ff;stroke-linecap:square;stroke-width:0.2;"/>
   </g>
   <g id="line2d_103">
    <path clip-path="url(#pc69d8f7cbe)" d="M 206.125506 135.244245 
L 206.027241 135.308064 
L 195.253738 142.305048 
L 195.253738 142.305048 
" style="fill:none;stroke:#0000ff;stroke-linecap:square;stroke-width:0.2;"/>
   </g>
   <g id="line2d_104">
    <path clip-path="url(#pc69d8f7cbe)" d="M 206.125506 135.244245 
L 206.270904 135.149814 
L 264.998832 97.008235 
L 264.998832 97.008235 
" style="fill:none;stroke:#0000ff;stroke-linecap:square;stroke-width:0.2;"/>
   </g>
   <g id="line2d_105">
    <path clip-path="url(#pc69d8f7cbe)" d="M 206.125506 135.244245 
L 206.125506 135.244245 
L 206.220407 135.18261 
L 208.084346 133.972052 
L 208.084346 133.972052 
" style="fill:none;stroke:#0000ff;stroke-linecap:square;stroke-width:0.2;"/>
   </g>
   <g id="line2d_106">
    <path clip-path="url(#pc69d8f7cbe)" d="M 206.125506 135.244245 
L 206.00744 135.320924 
L 108.664766 198.541327 
L 108.664766 198.541327 
" style="fill:none;stroke:#0000ff;stroke-linecap:square;stroke-width:0.2;"/>
   </g>
   <g id="line2d_107">
    <path clip-path="url(#pc69d8f7cbe)" d="M 206.125506 135.244245 
L 206.021942 135.311506 
L 181.547056 151.207023 
L 181.547056 151.207023 
" style="fill:none;stroke:#0000ff;stroke-linecap:square;stroke-width:0.2;"/>
   </g>
   <g id="line2d_108">
    <path clip-path="url(#pc69d8f7cbe)" d="M 206.125506 135.244245 
L 206.025778 135.309014 
L 140.648997 177.768773 
L 140.648997 177.768773 
" style="fill:none;stroke:#0000ff;stroke-linecap:square;stroke-width:0.2;"/>
   </g>
   <g id="line2d_109">
    <path clip-path="url(#pc69d8f7cbe)" d="M 206.125506 135.244245 
L 206.03215 135.304876 
L 181.596521 151.174897 
L 181.596521 151.174897 
" style="fill:none;stroke:#0000ff;stroke-linecap:square;stroke-width:0.2;"/>
   </g>
   <g id="line2d_110">
    <path clip-path="url(#pc69d8f7cbe)" d="M 206.125506 135.244245 
L 206.125506 135.244245 
L 206.031243 135.305465 
L 190.851094 145.1644 
L 190.851094 145.1644 
" style="fill:none;stroke:#0000ff;stroke-linecap:square;stroke-width:0.2;"/>
   </g>
   <g id="line2d_111">
    <path clip-path="url(#pc69d8f7cbe)" d="M 206.125506 135.244245 
L 205.941516 135.363739 
L 123.646549 188.811223 
L 123.646549 188.811223 
" style="fill:none;stroke:#0000ff;stroke-linecap:square;stroke-width:0.2;"/>
   </g>
   <g id="line2d_112">
    <path clip-path="url(#pc69d8f7cbe)" d="M 206.125506 135.244245 
L 206.260266 135.156723 
L 250.643408 106.331543 
L 250.643408 106.331543 
" style="fill:none;stroke:#0000ff;stroke-linecap:square;stroke-width:0.2;"/>
   </g>
   <g id="line2d_113">
    <path clip-path="url(#pc69d8f7cbe)" d="M 206.125506 135.244245 
L 206.125506 135.244245 
L 206.218028 135.184155 
L 218.357239 127.300195 
L 218.357239 127.300195 
" style="fill:none;stroke:#0000ff;stroke-linecap:square;stroke-width:0.2;"/>
   </g>
   <g id="line2d_114">
    <path clip-path="url(#pc69d8f7cbe)" d="M 206.125506 135.244245 
L 206.544373 134.972206 
L 355.47153 38.249623 
L 355.47153 38.249623 
" style="fill:none;stroke:#0000ff;stroke-linecap:square;stroke-width:0.2;"/>
   </g>
   <g id="line2d_115">
    <path clip-path="url(#pc69d8f7cbe)" d="M 206.125506 135.244245 
L 206.279015 135.144547 
L 274.94073 90.551346 
L 274.94073 90.551346 
" style="fill:none;stroke:#0000ff;stroke-linecap:square;stroke-width:0.2;"/>
   </g>
   <g id="line2d_116">
    <path clip-path="url(#pc69d8f7cbe)" d="M 206.125506 135.244245 
L 206.227257 135.178161 
L 232.188909 118.317045 
L 232.188909 118.317045 
" style="fill:none;stroke:#0000ff;stroke-linecap:square;stroke-width:0.2;"/>
   </g>
   <g id="line2d_117">
    <path clip-path="url(#pc69d8f7cbe)" d="M 206.125506 135.244245 
L 206.224427 135.179999 
L 264.789033 97.144492 
L 264.789033 97.144492 
" style="fill:none;stroke:#0000ff;stroke-linecap:square;stroke-width:0.2;"/>
   </g>
   <g id="line2d_118">
    <path clip-path="url(#pc69d8f7cbe)" d="M 206.125506 135.244245 
L 206.21738 135.184576 
L 211.50693 131.749212 
L 211.50693 131.749212 
" style="fill:none;stroke:#0000ff;stroke-linecap:square;stroke-width:0.2;"/>
   </g>
   <g id="line2d_119">
    <path clip-path="url(#pc69d8f7cbe)" d="M 206.125506 135.244245 
L 206.006457 135.321563 
L 194.818685 142.5876 
L 194.818685 142.5876 
" style="fill:none;stroke:#0000ff;stroke-linecap:square;stroke-width:0.2;"/>
   </g>
   <g id="line2d_120">
    <path clip-path="url(#pc69d8f7cbe)" d="M 206.125506 135.244245 
L 206.026439 135.308585 
L 197.183269 141.051891 
L 197.183269 141.051891 
" style="fill:none;stroke:#0000ff;stroke-linecap:square;stroke-width:0.2;"/>
   </g>
   <g id="line2d_121">
    <path clip-path="url(#pc69d8f7cbe)" d="M 206.125506 135.244245 
L 206.272786 135.148591 
L 214.53556 129.782231 
L 214.53556 129.782231 
" style="fill:none;stroke:#0000ff;stroke-linecap:square;stroke-width:0.2;"/>
   </g>
   <g id="line2d_122">
    <path clip-path="url(#pc69d8f7cbe)" d="M 206.125506 135.244245 
L 206.011395 135.318356 
L 146.536493 173.945066 
L 146.536493 173.945066 
" style="fill:none;stroke:#0000ff;stroke-linecap:square;stroke-width:0.2;"/>
   </g>
   <g id="line2d_123">
    <path clip-path="url(#pc69d8f7cbe)" d="M 206.125506 135.244245 
L 207.816989 134.14569 
L 307.75417 69.240252 
L 307.75417 69.240252 
" style="fill:none;stroke:#0000ff;stroke-linecap:square;stroke-width:0.2;"/>
   </g>
   <g id="line2d_124">
    <path clip-path="url(#pc69d8f7cbe)" d="M 206.125506 135.244245 
L 206.125506 135.244245 
L 206.032853 135.304419 
L 187.24934 147.503604 
L 187.24934 147.503604 
" style="fill:none;stroke:#0000ff;stroke-linecap:square;stroke-width:0.2;"/>
   </g>
   <g id="line2d_125">
    <path clip-path="url(#pc69d8f7cbe)" d="M 206.125506 135.244245 
L 206.878692 134.755078 
L 371.742756 27.682074 
L 371.742756 27.682074 
" style="fill:none;stroke:#0000ff;stroke-linecap:square;stroke-width:0.2;"/>
   </g>
   <g id="line2d_126">
    <path clip-path="url(#pc69d8f7cbe)" d="M 206.125506 135.244245 
L 205.877335 135.405423 
L 69.765771 223.804761 
L 69.765771 223.804761 
" style="fill:none;stroke:#0000ff;stroke-linecap:square;stroke-width:0.2;"/>
   </g>
   <g id="line2d_127">
    <path clip-path="url(#pc69d8f7cbe)" d="M 206.125506 135.244245 
L 206.219965 135.182897 
L 244.372972 110.403955 
L 244.372972 110.403955 
" style="fill:none;stroke:#0000ff;stroke-linecap:square;stroke-width:0.2;"/>
   </g>
   <g id="line2d_128">
    <path clip-path="url(#pc69d8f7cbe)" d="M 206.125506 135.244245 
L 206.026239 135.308715 
L 191.222174 144.923398 
L 191.222174 144.923398 
" style="fill:none;stroke:#0000ff;stroke-linecap:square;stroke-width:0.2;"/>
   </g>
   <g id="line2d_129">
    <path clip-path="url(#pc69d8f7cbe)" d="M 206.125506 135.244245 
L 205.809595 135.449417 
L 68.065804 224.908826 
L 68.065804 224.908826 
" style="fill:none;stroke:#0000ff;stroke-linecap:square;stroke-width:0.2;"/>
   </g>
   <g id="line2d_130">
    <path clip-path="url(#pc69d8f7cbe)" d="M 206.125506 135.244245 
L 205.585262 135.595113 
L 136.497809 180.464813 
L 136.497809 180.464813 
" style="fill:none;stroke:#0000ff;stroke-linecap:square;stroke-width:0.2;"/>
   </g>
   <g id="line2d_131">
    <path clip-path="url(#pc69d8f7cbe)" d="M 206.125506 135.244245 
L 206.226047 135.178947 
L 216.697381 128.37821 
L 216.697381 128.37821 
" style="fill:none;stroke:#0000ff;stroke-linecap:square;stroke-width:0.2;"/>
   </g>
   <g id="patch_3">
    <path d="M 52.160938 235.238438 
L 52.160938 17.798437 
" style="fill:none;stroke:#000000;stroke-linecap:square;stroke-linejoin:miter;stroke-width:0.8;"/>
   </g>
   <g id="patch_4">
    <path d="M 386.960938 235.238438 
L 386.960938 17.798437 
" style="fill:none;stroke:#000000;stroke-linecap:square;stroke-linejoin:miter;stroke-width:0.8;"/>
   </g>
   <g id="patch_5">
    <path d="M 52.160937 235.238438 
L 386.960938 235.238438 
" style="fill:none;stroke:#000000;stroke-linecap:square;stroke-linejoin:miter;stroke-width:0.8;"/>
   </g>
   <g id="patch_6">
    <path d="M 52.160937 17.798438 
L 386.960938 17.798438 
" style="fill:none;stroke:#000000;stroke-linecap:square;stroke-linejoin:miter;stroke-width:0.8;"/>
   </g>
  </g>
 </g>
 <defs>
  <clipPath id="pc69d8f7cbe">
   <rect height="217.44" width="334.8" x="52.160938" y="17.798438"/>
  </clipPath>
 </defs>
</svg>
