<?xml version="1.0" encoding="utf-8" standalone="no"?>
<!DOCTYPE svg PUBLIC "-//W3C//DTD SVG 1.1//EN"
  "http://www.w3.org/Graphics/SVG/1.1/DTD/svg11.dtd">
<!-- Created with matplotlib (https://matplotlib.org/) -->
<svg height="253.384837pt" version="1.1" viewBox="0 0 401.838548 253.384837" width="401.838548pt" xmlns="http://www.w3.org/2000/svg" xmlns:xlink="http://www.w3.org/1999/xlink">
 <metadata>
  <rdf:RDF xmlns:cc="http://creativecommons.org/ns#" xmlns:dc="http://purl.org/dc/elements/1.1/" xmlns:rdf="http://www.w3.org/1999/02/22-rdf-syntax-ns#">
   <cc:Work>
    <dc:type rdf:resource="http://purl.org/dc/dcmitype/StillImage"/>
    <dc:date>2021-10-24T20:36:03.069923</dc:date>
    <dc:format>image/svg+xml</dc:format>
    <dc:creator>
     <cc:Agent>
      <dc:title>Matplotlib v3.3.4, https://matplotlib.org/</dc:title>
     </cc:Agent>
    </dc:creator>
   </cc:Work>
  </rdf:RDF>
 </metadata>
 <defs>
  <style type="text/css">*{stroke-linecap:butt;stroke-linejoin:round;}</style>
 </defs>
 <g id="figure_1">
  <g id="patch_1">
   <path d="M 0 253.384837 
L 401.838548 253.384837 
L 401.838548 0 
L 0 0 
z
" style="fill:none;"/>
  </g>
  <g id="axes_1">
   <g id="patch_2">
    <path d="M 52.366568 225.817728 
L 387.166568 225.817728 
L 387.166568 8.377728 
L 52.366568 8.377728 
z
" style="fill:#ffffff;"/>
   </g>
   <g id="matplotlib.axis_1">
    <g id="xtick_1">
     <g id="line2d_1">
      <path clip-path="url(#p85187cfd88)" d="M 52.366568 225.817728 
L 52.366568 8.377728 
" style="fill:none;stroke:#b0b0b0;stroke-linecap:square;stroke-width:0.8;"/>
     </g>
     <g id="line2d_2">
      <defs>
       <path d="M 0 0 
L 0 3.5 
" id="m25abc60f2f" style="stroke:#000000;stroke-width:0.8;"/>
      </defs>
      <g>
       <use style="stroke:#000000;stroke-width:0.8;" x="52.366568" xlink:href="#m25abc60f2f" y="225.817728"/>
      </g>
     </g>
     <g id="text_1">
      <!-- $\mathdefault{0}$ -->
      <g transform="translate(48.630578 242.949594)scale(0.15 -0.15)">
       <defs>
        <path d="M 25.40625 68 
C 19.90625 68 15.703125 66.296875 12 62.796875 
C 6.203125 57.203125 2.40625 45.6875 2.40625 34 
C 2.40625 23.09375 5.703125 11.390625 10.40625 5.796875 
C 14.09375 1.390625 19.203125 -1 25 -1 
C 30.09375 -1 34.40625 0.6875 38 4.1875 
C 43.796875 9.6875 47.59375 21.296875 47.59375 33.390625 
C 47.59375 53.890625 38.5 68 25.40625 68 
z
M 25.09375 65.390625 
C 33.5 65.390625 38 54.09375 38 33.1875 
C 38 12.296875 33.59375 1.59375 25 1.59375 
C 16.40625 1.59375 12 12.296875 12 33.09375 
C 12 54.296875 16.5 65.390625 25.09375 65.390625 
z
" id="Nimbus_Roman_No9_L_Regular-48"/>
       </defs>
       <use transform="scale(0.996264)" xlink:href="#Nimbus_Roman_No9_L_Regular-48"/>
      </g>
     </g>
    </g>
    <g id="xtick_2">
     <g id="line2d_3">
      <path clip-path="url(#p85187cfd88)" d="M 119.326568 225.817728 
L 119.326568 8.377728 
" style="fill:none;stroke:#b0b0b0;stroke-linecap:square;stroke-width:0.8;"/>
     </g>
     <g id="line2d_4">
      <g>
       <use style="stroke:#000000;stroke-width:0.8;" x="119.326568" xlink:href="#m25abc60f2f" y="225.817728"/>
      </g>
     </g>
     <g id="text_2">
      <!-- $\mathdefault{2}$ -->
      <g transform="translate(115.590578 242.949594)scale(0.15 -0.15)">
       <defs>
        <path d="M 47.5 13.734375 
L 46.203125 14.25 
C 42.5 8.5 41.203125 7.59375 36.703125 7.59375 
L 12.796875 7.59375 
L 29.59375 25.328125 
C 38.5 34.703125 42.40625 42.359375 42.40625 50.21875 
C 42.40625 60.28125 34.296875 68 23.90625 68 
C 18.40625 68 13.203125 65.796875 9.5 61.796875 
C 6.296875 58.375 4.796875 55.15625 3.09375 48 
L 5.203125 47.484375 
C 9.203125 57.359375 12.796875 60.59375 19.703125 60.59375 
C 28.09375 60.59375 33.796875 54.84375 33.796875 46.390625 
C 33.796875 38.53125 29.203125 29.15625 20.796875 20.1875 
L 3 1.1875 
L 3 0 
L 42 0 
z
" id="Nimbus_Roman_No9_L_Regular-50"/>
       </defs>
       <use transform="scale(0.996264)" xlink:href="#Nimbus_Roman_No9_L_Regular-50"/>
      </g>
     </g>
    </g>
    <g id="xtick_3">
     <g id="line2d_5">
      <path clip-path="url(#p85187cfd88)" d="M 186.286568 225.817728 
L 186.286568 8.377728 
" style="fill:none;stroke:#b0b0b0;stroke-linecap:square;stroke-width:0.8;"/>
     </g>
     <g id="line2d_6">
      <g>
       <use style="stroke:#000000;stroke-width:0.8;" x="186.286568" xlink:href="#m25abc60f2f" y="225.817728"/>
      </g>
     </g>
     <g id="text_3">
      <!-- $\mathdefault{4}$ -->
      <g transform="translate(182.550578 242.949594)scale(0.15 -0.15)">
       <defs>
        <path d="M 47.203125 23.390625 
L 37 23.390625 
L 37 68 
L 32.59375 68 
L 1.203125 23.390625 
L 1.203125 17 
L 29.296875 17 
L 29.296875 0 
L 37 0 
L 37 17 
L 47.203125 17 
z
M 29.203125 23.390625 
L 5.203125 23.390625 
L 29.203125 57.765625 
z
" id="Nimbus_Roman_No9_L_Regular-52"/>
       </defs>
       <use transform="scale(0.996264)" xlink:href="#Nimbus_Roman_No9_L_Regular-52"/>
      </g>
     </g>
    </g>
    <g id="xtick_4">
     <g id="line2d_7">
      <path clip-path="url(#p85187cfd88)" d="M 253.246568 225.817728 
L 253.246568 8.377728 
" style="fill:none;stroke:#b0b0b0;stroke-linecap:square;stroke-width:0.8;"/>
     </g>
     <g id="line2d_8">
      <g>
       <use style="stroke:#000000;stroke-width:0.8;" x="253.246568" xlink:href="#m25abc60f2f" y="225.817728"/>
      </g>
     </g>
     <g id="text_4">
      <!-- $\mathdefault{6}$ -->
      <g transform="translate(249.510578 242.949594)scale(0.15 -0.15)">
       <defs>
        <path d="M 44.59375 68.59375 
C 33.203125 67.59375 27.40625 65.6875 20.09375 60.59375 
C 9.296875 52.890625 3.40625 41.484375 3.40625 28.140625 
C 3.40625 19.5 6.09375 10.75 10.40625 5.765625 
C 14.203125 1.390625 19.59375 -1 25.796875 -1 
C 38.203125 -1 46.796875 8.453125 46.796875 22.1875 
C 46.796875 34.90625 39.5 43 28 43 
C 23.59375 43 21.5 42.296875 15.203125 38.484375 
C 17.90625 53.59375 29.09375 64.390625 44.796875 67 
z
M 24.203125 38.390625 
C 32.796875 38.390625 37.796875 31.234375 37.796875 18.796875 
C 37.796875 7.859375 33.90625 1.796875 26.90625 1.796875 
C 18.09375 1.796875 12.703125 11.140625 12.703125 26.5625 
C 12.703125 31.625 13.5 34.421875 15.5 35.90625 
C 17.59375 37.5 20.703125 38.390625 24.203125 38.390625 
z
" id="Nimbus_Roman_No9_L_Regular-54"/>
       </defs>
       <use transform="scale(0.996264)" xlink:href="#Nimbus_Roman_No9_L_Regular-54"/>
      </g>
     </g>
    </g>
    <g id="xtick_5">
     <g id="line2d_9">
      <path clip-path="url(#p85187cfd88)" d="M 320.206568 225.817728 
L 320.206568 8.377728 
" style="fill:none;stroke:#b0b0b0;stroke-linecap:square;stroke-width:0.8;"/>
     </g>
     <g id="line2d_10">
      <g>
       <use style="stroke:#000000;stroke-width:0.8;" x="320.206568" xlink:href="#m25abc60f2f" y="225.817728"/>
      </g>
     </g>
     <g id="text_5">
      <!-- $\mathdefault{8}$ -->
      <g transform="translate(316.470578 242.949594)scale(0.15 -0.15)">
       <defs>
        <path d="M 29 37.5 
C 38.90625 42.796875 42.40625 47 42.40625 53.796875 
C 42.40625 62 35.203125 68 25.203125 68 
C 14.296875 68 6.203125 61.296875 6.203125 52.203125 
C 6.203125 45.6875 8.09375 42.796875 18.59375 33.59375 
C 7.796875 25.390625 5.59375 22.296875 5.59375 15.5 
C 5.59375 5.796875 13.5 -1 24.796875 -1 
C 36.796875 -1 44.5 5.59375 44.5 15.890625 
C 44.5 23.59375 41.09375 28.5 29 37.5 
z
M 27.203125 27.1875 
C 34.5 22 36.90625 18.390625 36.90625 12.796875 
C 36.90625 6.296875 32.40625 1.796875 25.90625 1.796875 
C 18.296875 1.796875 13.203125 7.59375 13.203125 16.296875 
C 13.203125 22.6875 15.40625 26.890625 21.203125 31.59375 
z
M 26.09375 39.296875 
C 17.203125 45.09375 13.59375 49.6875 13.59375 55.296875 
C 13.59375 61.09375 18.09375 65.1875 24.40625 65.1875 
C 31.203125 65.1875 35.5 60.796875 35.5 53.890625 
C 35.5 48.1875 32.703125 43.6875 27 39.890625 
C 26.5 39.59375 26.5 39.59375 26.09375 39.296875 
z
" id="Nimbus_Roman_No9_L_Regular-56"/>
       </defs>
       <use transform="scale(0.996264)" xlink:href="#Nimbus_Roman_No9_L_Regular-56"/>
      </g>
     </g>
    </g>
    <g id="xtick_6">
     <g id="line2d_11">
      <path clip-path="url(#p85187cfd88)" d="M 387.166568 225.817728 
L 387.166568 8.377728 
" style="fill:none;stroke:#b0b0b0;stroke-linecap:square;stroke-width:0.8;"/>
     </g>
     <g id="line2d_12">
      <g>
       <use style="stroke:#000000;stroke-width:0.8;" x="387.166568" xlink:href="#m25abc60f2f" y="225.817728"/>
      </g>
     </g>
     <g id="text_6">
      <!-- $\mathdefault{10}$ -->
      <g transform="translate(379.694588 242.949594)scale(0.15 -0.15)">
       <defs>
        <path d="M 29.09375 68 
L 11.09375 59 
L 11.09375 57.59375 
C 12.296875 58.09375 13.40625 58.484375 13.796875 58.6875 
C 15.59375 59.390625 17.296875 59.78125 18.296875 59.78125 
C 20.40625 59.78125 21.296875 58.296875 21.296875 55.078125 
L 21.296875 9.359375 
C 21.296875 6.03125 20.5 3.71875 18.90625 2.796875 
C 17.40625 1.890625 16 1.59375 11.796875 1.5 
L 11.796875 0 
L 39.40625 0 
L 39.40625 1.5 
C 31.5 1.59375 29.90625 2.609375 29.90625 7.453125 
L 29.90625 67.796875 
z
" id="Nimbus_Roman_No9_L_Regular-49"/>
       </defs>
       <use transform="scale(0.996264)" xlink:href="#Nimbus_Roman_No9_L_Regular-49"/>
       <use transform="translate(49.8132 0)scale(0.996264)" xlink:href="#Nimbus_Roman_No9_L_Regular-48"/>
      </g>
     </g>
    </g>
   </g>
   <g id="matplotlib.axis_2">
    <g id="ytick_1">
     <g id="line2d_13">
      <path clip-path="url(#p85187cfd88)" d="M 52.366568 221.929522 
L 387.166568 221.929522 
" style="fill:none;stroke:#b0b0b0;stroke-linecap:square;stroke-width:0.8;"/>
     </g>
     <g id="line2d_14">
      <defs>
       <path d="M 0 0 
L -3.5 0 
" id="md3e3c12dcf" style="stroke:#000000;stroke-width:0.8;"/>
      </defs>
      <g>
       <use style="stroke:#000000;stroke-width:0.8;" x="52.366568" xlink:href="#md3e3c12dcf" y="221.929522"/>
      </g>
     </g>
     <g id="text_7">
      <!-- $\mathdefault{−0.75}$ -->
      <g transform="translate(7.2 226.995455)scale(0.15 -0.15)">
       <defs>
        <path d="M 65.90625 23 
C 67.59375 23 69.40625 23 69.40625 25 
C 69.40625 27 67.59375 27 65.90625 27 
L 11.796875 27 
C 10.09375 27 8.296875 27 8.296875 25 
C 8.296875 23 10.09375 23 11.796875 23 
z
" id="CMSY10-0"/>
        <path d="M 19.203125 5.296875 
C 19.203125 8.1875 16.796875 10.59375 13.90625 10.59375 
C 11 10.59375 8.59375 8.1875 8.59375 5.296875 
C 8.59375 2.390625 11 0 13.90625 0 
C 16.796875 0 19.203125 2.390625 19.203125 5.296875 
z
" id="CMMI10-58"/>
        <path d="M 44.90625 66 
L 7.90625 66 
L 2 51.296875 
L 3.703125 50.5 
C 8 57.296875 9.796875 58.59375 15.296875 58.59375 
L 37 58.59375 
L 17.203125 -1 
L 23.703125 -1 
L 44.90625 64.390625 
z
" id="Nimbus_Roman_No9_L_Regular-55"/>
        <path d="M 18.09375 58.09375 
L 37.703125 58.09375 
C 39.296875 58.09375 39.703125 58.296875 40 58.984375 
L 43.796875 67.890625 
L 42.90625 68.59375 
C 41.40625 66.5 40.40625 66 38.296875 66 
L 17.40625 66 
L 6.5 42.453125 
C 6.40625 42.265625 6.40625 42.15625 6.40625 41.96875 
C 6.40625 41.46875 6.796875 41.171875 7.59375 41.171875 
C 10.796875 41.171875 14.796875 40.484375 18.90625 39.1875 
C 30.40625 35.53125 35.703125 29.40625 35.703125 19.609375 
C 35.703125 10.109375 29.59375 2.6875 21.796875 2.6875 
C 19.796875 2.6875 18.09375 3.390625 15.09375 5.5625 
C 11.90625 7.84375 9.59375 8.828125 7.5 8.828125 
C 4.59375 8.828125 3.203125 7.640625 3.203125 5.171875 
C 3.203125 1.390625 7.90625 -1 15.40625 -1 
C 23.796875 -1 31 1.6875 36 6.75 
C 40.59375 11.203125 42.703125 16.84375 42.703125 24.359375 
C 42.703125 31.484375 40.796875 36.03125 35.796875 40.96875 
C 31.40625 45.328125 25.703125 47.609375 13.90625 49.6875 
z
" id="Nimbus_Roman_No9_L_Regular-53"/>
       </defs>
       <use transform="scale(0.996264)" xlink:href="#CMSY10-0"/>
       <use transform="translate(77.408707 0)scale(0.996264)" xlink:href="#Nimbus_Roman_No9_L_Regular-48"/>
       <use transform="translate(127.221908 0)scale(0.996264)" xlink:href="#CMMI10-58"/>
       <use transform="translate(154.817414 0)scale(0.996264)" xlink:href="#Nimbus_Roman_No9_L_Regular-55"/>
       <use transform="translate(204.630615 0)scale(0.996264)" xlink:href="#Nimbus_Roman_No9_L_Regular-53"/>
      </g>
     </g>
    </g>
    <g id="ytick_2">
     <g id="line2d_15">
      <path clip-path="url(#p85187cfd88)" d="M 52.366568 186.985591 
L 387.166568 186.985591 
" style="fill:none;stroke:#b0b0b0;stroke-linecap:square;stroke-width:0.8;"/>
     </g>
     <g id="line2d_16">
      <g>
       <use style="stroke:#000000;stroke-width:0.8;" x="52.366568" xlink:href="#md3e3c12dcf" y="186.985591"/>
      </g>
     </g>
     <g id="text_8">
      <!-- $\mathdefault{−0.50}$ -->
      <g transform="translate(7.2 192.051524)scale(0.15 -0.15)">
       <use transform="scale(0.996264)" xlink:href="#CMSY10-0"/>
       <use transform="translate(77.408707 0)scale(0.996264)" xlink:href="#Nimbus_Roman_No9_L_Regular-48"/>
       <use transform="translate(127.221908 0)scale(0.996264)" xlink:href="#CMMI10-58"/>
       <use transform="translate(154.817414 0)scale(0.996264)" xlink:href="#Nimbus_Roman_No9_L_Regular-53"/>
       <use transform="translate(204.630615 0)scale(0.996264)" xlink:href="#Nimbus_Roman_No9_L_Regular-48"/>
      </g>
     </g>
    </g>
    <g id="ytick_3">
     <g id="line2d_17">
      <path clip-path="url(#p85187cfd88)" d="M 52.366568 152.041659 
L 387.166568 152.041659 
" style="fill:none;stroke:#b0b0b0;stroke-linecap:square;stroke-width:0.8;"/>
     </g>
     <g id="line2d_18">
      <g>
       <use style="stroke:#000000;stroke-width:0.8;" x="52.366568" xlink:href="#md3e3c12dcf" y="152.041659"/>
      </g>
     </g>
     <g id="text_9">
      <!-- $\mathdefault{−0.25}$ -->
      <g transform="translate(7.2 157.107592)scale(0.15 -0.15)">
       <use transform="scale(0.996264)" xlink:href="#CMSY10-0"/>
       <use transform="translate(77.408707 0)scale(0.996264)" xlink:href="#Nimbus_Roman_No9_L_Regular-48"/>
       <use transform="translate(127.221908 0)scale(0.996264)" xlink:href="#CMMI10-58"/>
       <use transform="translate(154.817414 0)scale(0.996264)" xlink:href="#Nimbus_Roman_No9_L_Regular-50"/>
       <use transform="translate(204.630615 0)scale(0.996264)" xlink:href="#Nimbus_Roman_No9_L_Regular-53"/>
      </g>
     </g>
    </g>
    <g id="ytick_4">
     <g id="line2d_19">
      <path clip-path="url(#p85187cfd88)" d="M 52.366568 117.097728 
L 387.166568 117.097728 
" style="fill:none;stroke:#b0b0b0;stroke-linecap:square;stroke-width:0.8;"/>
     </g>
     <g id="line2d_20">
      <g>
       <use style="stroke:#000000;stroke-width:0.8;" x="52.366568" xlink:href="#md3e3c12dcf" y="117.097728"/>
      </g>
     </g>
     <g id="text_10">
      <!-- $\mathdefault{0.00}$ -->
      <g transform="translate(18.811304 122.163661)scale(0.15 -0.15)">
       <use transform="scale(0.996264)" xlink:href="#Nimbus_Roman_No9_L_Regular-48"/>
       <use transform="translate(49.8132 0)scale(0.996264)" xlink:href="#CMMI10-58"/>
       <use transform="translate(77.408707 0)scale(0.996264)" xlink:href="#Nimbus_Roman_No9_L_Regular-48"/>
       <use transform="translate(127.221908 0)scale(0.996264)" xlink:href="#Nimbus_Roman_No9_L_Regular-48"/>
      </g>
     </g>
    </g>
    <g id="ytick_5">
     <g id="line2d_21">
      <path clip-path="url(#p85187cfd88)" d="M 52.366568 82.153796 
L 387.166568 82.153796 
" style="fill:none;stroke:#b0b0b0;stroke-linecap:square;stroke-width:0.8;"/>
     </g>
     <g id="line2d_22">
      <g>
       <use style="stroke:#000000;stroke-width:0.8;" x="52.366568" xlink:href="#md3e3c12dcf" y="82.153796"/>
      </g>
     </g>
     <g id="text_11">
      <!-- $\mathdefault{0.25}$ -->
      <g transform="translate(18.811304 87.219729)scale(0.15 -0.15)">
       <use transform="scale(0.996264)" xlink:href="#Nimbus_Roman_No9_L_Regular-48"/>
       <use transform="translate(49.8132 0)scale(0.996264)" xlink:href="#CMMI10-58"/>
       <use transform="translate(77.408707 0)scale(0.996264)" xlink:href="#Nimbus_Roman_No9_L_Regular-50"/>
       <use transform="translate(127.221908 0)scale(0.996264)" xlink:href="#Nimbus_Roman_No9_L_Regular-53"/>
      </g>
     </g>
    </g>
    <g id="ytick_6">
     <g id="line2d_23">
      <path clip-path="url(#p85187cfd88)" d="M 52.366568 47.209865 
L 387.166568 47.209865 
" style="fill:none;stroke:#b0b0b0;stroke-linecap:square;stroke-width:0.8;"/>
     </g>
     <g id="line2d_24">
      <g>
       <use style="stroke:#000000;stroke-width:0.8;" x="52.366568" xlink:href="#md3e3c12dcf" y="47.209865"/>
      </g>
     </g>
     <g id="text_12">
      <!-- $\mathdefault{0.50}$ -->
      <g transform="translate(18.811304 52.275798)scale(0.15 -0.15)">
       <use transform="scale(0.996264)" xlink:href="#Nimbus_Roman_No9_L_Regular-48"/>
       <use transform="translate(49.8132 0)scale(0.996264)" xlink:href="#CMMI10-58"/>
       <use transform="translate(77.408707 0)scale(0.996264)" xlink:href="#Nimbus_Roman_No9_L_Regular-53"/>
       <use transform="translate(127.221908 0)scale(0.996264)" xlink:href="#Nimbus_Roman_No9_L_Regular-48"/>
      </g>
     </g>
    </g>
    <g id="ytick_7">
     <g id="line2d_25">
      <path clip-path="url(#p85187cfd88)" d="M 52.366568 12.265933 
L 387.166568 12.265933 
" style="fill:none;stroke:#b0b0b0;stroke-linecap:square;stroke-width:0.8;"/>
     </g>
     <g id="line2d_26">
      <g>
       <use style="stroke:#000000;stroke-width:0.8;" x="52.366568" xlink:href="#md3e3c12dcf" y="12.265933"/>
      </g>
     </g>
     <g id="text_13">
      <!-- $\mathdefault{0.75}$ -->
      <g transform="translate(18.811304 17.331866)scale(0.15 -0.15)">
       <use transform="scale(0.996264)" xlink:href="#Nimbus_Roman_No9_L_Regular-48"/>
       <use transform="translate(49.8132 0)scale(0.996264)" xlink:href="#CMMI10-58"/>
       <use transform="translate(77.408707 0)scale(0.996264)" xlink:href="#Nimbus_Roman_No9_L_Regular-55"/>
       <use transform="translate(127.221908 0)scale(0.996264)" xlink:href="#Nimbus_Roman_No9_L_Regular-53"/>
      </g>
     </g>
    </g>
   </g>
   <g id="line2d_27">
    <path clip-path="url(#p85187cfd88)" d="M 52.366568 18.261364 
L 54.379393 20.077689 
L 56.392219 25.459908 
L 58.405045 34.210201 
L 60.41787 46.006958 
L 62.430696 60.4166 
L 64.443522 76.90951 
L 68.469173 113.666115 
L 72.494824 150.922589 
L 74.50765 168.023122 
L 76.520476 183.251933 
L 78.533301 196.0493 
L 80.546127 205.944866 
L 82.558953 212.574926 
L 84.571778 215.695799 
L 86.584604 215.192779 
L 88.597429 211.084355 
L 90.610255 203.521528 
L 92.623081 192.782264 
L 94.635906 179.261275 
L 96.648732 163.455516 
L 98.661558 145.945913 
L 106.71286 72.173627 
L 108.725686 56.199078 
L 110.738512 42.46281 
L 112.751337 31.469688 
L 114.764163 23.623755 
L 116.776989 19.213384 
L 118.789814 18.400672 
L 120.80264 21.215491 
L 122.815466 27.554385 
L 124.828291 37.184372 
L 126.841117 49.751509 
L 128.853943 64.793903 
L 130.866768 81.758682 
L 134.892419 118.913549 
L 138.918071 155.803913 
L 140.930896 172.447171 
L 142.943722 187.056105 
L 144.956548 199.093775 
L 146.969373 208.117746 
L 148.982199 213.79635 
L 150.995025 215.920874 
L 153.00785 214.413233 
L 155.020676 209.328839 
L 157.033502 200.854565 
L 159.046327 189.301876 
L 161.059153 175.095381 
L 163.071979 158.757229 
L 167.09763 122.144214 
L 171.123281 84.796098 
L 173.136107 67.564383 
L 175.148932 52.153227 
L 177.161758 39.129054 
L 179.174584 28.970557 
L 181.187409 22.051103 
L 183.200235 18.62501 
L 185.213061 18.818204 
L 187.225886 22.623582 
L 189.238712 29.901281 
L 191.251538 40.383815 
L 193.264363 53.685907 
L 195.277189 69.31865 
L 197.290015 86.707474 
L 205.341317 160.576125 
L 207.354143 176.715191 
L 209.366969 190.663066 
L 211.379794 201.907105 
L 213.39262 210.034045 
L 215.405446 214.745185 
L 217.418271 215.867371 
L 219.431097 213.359358 
L 221.443922 207.313327 
L 223.456748 197.951494 
L 225.469574 185.617946 
L 227.482399 170.765993 
L 229.495225 153.941506 
L 233.520876 116.898183 
L 237.546528 79.883927 
L 239.559353 63.094773 
L 241.572179 48.290453 
L 243.585005 36.01509 
L 245.59783 26.719853 
L 247.610656 20.746383 
L 249.623482 18.314228 
L 251.636307 19.512782 
L 253.649133 24.297991 
L 255.661959 32.49398 
L 257.674784 43.799512 
L 259.68761 57.79906 
L 261.700435 73.978084 
L 265.726087 110.437717 
L 269.751738 147.867488 
L 271.764564 165.225774 
L 273.777389 180.815153 
L 275.790215 194.062649 
L 277.803041 204.481362 
L 279.815866 211.688359 
L 281.828692 215.418754 
L 283.841518 215.535439 
L 285.854343 212.034125 
L 287.867169 205.043501 
L 289.879995 194.8205 
L 291.89282 181.740861 
L 293.905646 166.285316 
L 295.918472 149.021921 
L 303.969774 75.076661 
L 305.9826 58.777394 
L 307.995425 44.621644 
L 310.008251 33.129694 
L 312.021077 24.723921 
L 314.033902 19.713274 
L 316.046728 18.281913 
L 318.059554 20.482448 
L 320.072379 26.234 
L 322.085205 35.325175 
L 324.098031 47.421834 
L 326.110856 62.079374 
L 328.123682 78.75907 
L 332.149333 115.680942 
L 336.174985 152.809191 
L 338.18781 169.739751 
L 340.200636 184.735497 
L 342.213462 197.245271 
L 344.226287 206.809286 
L 346.239113 213.076026 
L 348.251938 215.81516 
L 350.264764 214.926015 
L 352.27759 210.44127 
L 354.290415 202.525758 
L 356.303241 191.470408 
L 358.316067 177.681549 
L 360.328892 161.665982 
L 362.341718 144.012344 
L 370.393021 70.387851 
L 372.405846 54.624419 
L 374.418672 41.157142 
L 376.431498 30.481001 
L 378.444323 22.988388 
L 380.457149 18.954688 
L 382.469975 18.528156 
L 384.4828 21.724469 
L 386.495626 28.42615 
L 388.508452 38.386883 
L 390.521277 51.24057 
L 392.534103 66.514783 
L 394.546928 83.648132 
L 402.838548 159.614845 
L 402.838548 159.614845 
" style="fill:none;stroke:#1f77b4;stroke-linecap:square;stroke-width:1.5;"/>
   </g>
   <g id="line2d_28">
    <path clip-path="url(#p85187cfd88)" d="M 52.366568 215.934091 
L 54.379393 214.117766 
L 56.392219 208.735547 
L 58.405045 199.985254 
L 60.41787 188.188497 
L 62.430696 173.778856 
L 64.443522 157.285945 
L 68.469173 120.52934 
L 72.494824 83.272867 
L 74.50765 66.172333 
L 76.520476 50.943522 
L 78.533301 38.146155 
L 80.546127 28.25059 
L 82.558953 21.620529 
L 84.571778 18.499656 
L 86.584604 19.002676 
L 88.597429 23.1111 
L 90.610255 30.673927 
L 92.623081 41.413191 
L 94.635906 54.93418 
L 96.648732 70.739939 
L 98.661558 88.249542 
L 106.71286 162.021828 
L 108.725686 177.996377 
L 110.738512 191.732645 
L 112.751337 202.725767 
L 114.764163 210.5717 
L 116.776989 214.982072 
L 118.789814 215.794783 
L 120.80264 212.979964 
L 122.815466 206.641071 
L 124.828291 197.011084 
L 126.841117 184.443946 
L 128.853943 169.401552 
L 130.866768 152.436773 
L 134.892419 115.281906 
L 138.918071 78.391543 
L 140.930896 61.748285 
L 142.943722 47.139351 
L 144.956548 35.10168 
L 146.969373 26.077709 
L 148.982199 20.399105 
L 150.995025 18.274581 
L 153.00785 19.782222 
L 155.020676 24.866616 
L 157.033502 33.34089 
L 159.046327 44.89358 
L 161.059153 59.100074 
L 163.071979 75.438226 
L 167.09763 112.051241 
L 171.123281 149.399358 
L 173.136107 166.631072 
L 175.148932 182.042228 
L 177.161758 195.066401 
L 179.174584 205.224898 
L 181.187409 212.144353 
L 183.200235 215.570445 
L 185.213061 215.377252 
L 187.225886 211.571874 
L 189.238712 204.294175 
L 191.251538 193.81164 
L 193.264363 180.509548 
L 195.277189 164.876805 
L 197.290015 147.487981 
L 205.341317 73.61933 
L 207.354143 57.480264 
L 209.366969 43.532389 
L 211.379794 32.28835 
L 213.39262 24.16141 
L 215.405446 19.450271 
L 217.418271 18.328085 
L 219.431097 20.836097 
L 221.443922 26.882128 
L 223.456748 36.243961 
L 225.469574 48.577509 
L 227.482399 63.429462 
L 229.495225 80.253949 
L 233.520876 117.297272 
L 237.546528 154.311528 
L 239.559353 171.100683 
L 241.572179 185.905002 
L 243.585005 198.180366 
L 245.59783 207.475602 
L 247.610656 213.449073 
L 249.623482 215.881227 
L 251.636307 214.682674 
L 253.649133 209.897464 
L 255.661959 201.701475 
L 257.674784 190.395943 
L 259.68761 176.396395 
L 261.700435 160.217372 
L 265.726087 123.757738 
L 269.751738 86.327968 
L 271.764564 68.969681 
L 273.777389 53.380302 
L 275.790215 40.132806 
L 277.803041 29.714094 
L 279.815866 22.507096 
L 281.828692 18.776701 
L 283.841518 18.660016 
L 285.854343 22.16133 
L 287.867169 29.151955 
L 289.879995 39.374955 
L 291.89282 52.454594 
L 293.905646 67.910139 
L 295.918472 85.173534 
L 303.969774 159.118794 
L 305.9826 175.418061 
L 307.995425 189.573811 
L 310.008251 201.065761 
L 312.021077 209.471534 
L 314.033902 214.482182 
L 316.046728 215.913542 
L 318.059554 213.713007 
L 320.072379 207.961455 
L 322.085205 198.870281 
L 324.098031 186.773621 
L 326.110856 172.116081 
L 328.123682 155.436385 
L 332.149333 118.514514 
L 336.174985 81.386265 
L 338.18781 64.455704 
L 340.200636 49.459958 
L 342.213462 36.950184 
L 344.226287 27.386169 
L 346.239113 21.119429 
L 348.251938 18.380295 
L 350.264764 19.26944 
L 352.27759 23.754185 
L 354.290415 31.669697 
L 356.303241 42.725048 
L 358.316067 56.513906 
L 360.328892 72.529474 
L 362.341718 90.183112 
L 370.393021 163.807604 
L 372.405846 179.571037 
L 374.418672 193.038313 
L 376.431498 203.714454 
L 378.444323 211.207067 
L 380.457149 215.240767 
L 382.469975 215.667299 
L 384.4828 212.470986 
L 386.495626 205.769305 
L 388.508452 195.808572 
L 390.521277 182.954886 
L 392.534103 167.680672 
L 394.546928 150.547323 
L 402.838548 74.58061 
L 402.838548 74.58061 
" style="fill:none;stroke:#ff7f0e;stroke-linecap:square;stroke-width:1.5;"/>
   </g>
   <g id="patch_3">
    <path d="M 52.366568 225.817728 
L 52.366568 8.377728 
" style="fill:none;stroke:#000000;stroke-linecap:square;stroke-linejoin:miter;stroke-width:0.8;"/>
   </g>
   <g id="patch_4">
    <path d="M 387.166568 225.817728 
L 387.166568 8.377728 
" style="fill:none;stroke:#000000;stroke-linecap:square;stroke-linejoin:miter;stroke-width:0.8;"/>
   </g>
   <g id="patch_5">
    <path d="M 52.366568 225.817728 
L 387.166568 225.817728 
" style="fill:none;stroke:#000000;stroke-linecap:square;stroke-linejoin:miter;stroke-width:0.8;"/>
   </g>
   <g id="patch_6">
    <path d="M 52.366568 8.377728 
L 387.166568 8.377728 
" style="fill:none;stroke:#000000;stroke-linecap:square;stroke-linejoin:miter;stroke-width:0.8;"/>
   </g>
  </g>
 </g>
 <defs>
  <clipPath id="p85187cfd88">
   <rect height="217.44" width="334.8" x="52.366568" y="8.377728"/>
  </clipPath>
 </defs>
</svg>
