<?xml version="1.0" encoding="utf-8" standalone="no"?>
<!DOCTYPE svg PUBLIC "-//W3C//DTD SVG 1.1//EN"
  "http://www.w3.org/Graphics/SVG/1.1/DTD/svg11.dtd">
<!-- Created with matplotlib (https://matplotlib.org/) -->
<svg height="262.19625pt" version="1.1" viewBox="0 0 394.182812 262.19625" width="394.182812pt" xmlns="http://www.w3.org/2000/svg" xmlns:xlink="http://www.w3.org/1999/xlink">
 <metadata>
  <rdf:RDF xmlns:cc="http://creativecommons.org/ns#" xmlns:dc="http://purl.org/dc/elements/1.1/" xmlns:rdf="http://www.w3.org/1999/02/22-rdf-syntax-ns#">
   <cc:Work>
    <dc:type rdf:resource="http://purl.org/dc/dcmitype/StillImage"/>
    <dc:date>2021-10-26T14:30:40.545289</dc:date>
    <dc:format>image/svg+xml</dc:format>
    <dc:creator>
     <cc:Agent>
      <dc:title>Matplotlib v3.3.4, https://matplotlib.org/</dc:title>
     </cc:Agent>
    </dc:creator>
   </cc:Work>
  </rdf:RDF>
 </metadata>
 <defs>
  <style type="text/css">*{stroke-linecap:butt;stroke-linejoin:round;}</style>
 </defs>
 <g id="figure_1">
  <g id="patch_1">
   <path d="M 0 262.19625 
L 394.182812 262.19625 
L 394.182812 0 
L 0 0 
z
" style="fill:none;"/>
  </g>
  <g id="axes_1">
   <g id="patch_2">
    <path d="M 52.182813 224.64 
L 386.982813 224.64 
L 386.982813 7.2 
L 52.182813 7.2 
z
" style="fill:#ffffff;"/>
   </g>
   <g id="matplotlib.axis_1">
    <g id="xtick_1">
     <g id="line2d_1">
      <path clip-path="url(#p9b7f5792e5)" d="M 65.069976 224.64 
L 65.069976 7.2 
" style="fill:none;stroke:#b0b0b0;stroke-linecap:square;stroke-width:0.8;"/>
     </g>
     <g id="line2d_2">
      <defs>
       <path d="M 0 0 
L 0 3.5 
" id="mf262a33b18" style="stroke:#000000;stroke-width:0.8;"/>
      </defs>
      <g>
       <use style="stroke:#000000;stroke-width:0.8;" x="65.069976" xlink:href="#mf262a33b18" y="224.64"/>
      </g>
     </g>
     <g id="text_1">
      <!-- −0.6 -->
      <g transform="translate(52.92857 239.238437)scale(0.1 -0.1)">
       <defs>
        <path d="M 10.59375 35.5 
L 73.1875 35.5 
L 73.1875 27.203125 
L 10.59375 27.203125 
z
" id="DejaVuSans-8722"/>
        <path d="M 31.78125 66.40625 
Q 24.171875 66.40625 20.328125 58.90625 
Q 16.5 51.421875 16.5 36.375 
Q 16.5 21.390625 20.328125 13.890625 
Q 24.171875 6.390625 31.78125 6.390625 
Q 39.453125 6.390625 43.28125 13.890625 
Q 47.125 21.390625 47.125 36.375 
Q 47.125 51.421875 43.28125 58.90625 
Q 39.453125 66.40625 31.78125 66.40625 
z
M 31.78125 74.21875 
Q 44.046875 74.21875 50.515625 64.515625 
Q 56.984375 54.828125 56.984375 36.375 
Q 56.984375 17.96875 50.515625 8.265625 
Q 44.046875 -1.421875 31.78125 -1.421875 
Q 19.53125 -1.421875 13.0625 8.265625 
Q 6.59375 17.96875 6.59375 36.375 
Q 6.59375 54.828125 13.0625 64.515625 
Q 19.53125 74.21875 31.78125 74.21875 
z
" id="DejaVuSans-48"/>
        <path d="M 10.6875 12.40625 
L 21 12.40625 
L 21 0 
L 10.6875 0 
z
" id="DejaVuSans-46"/>
        <path d="M 33.015625 40.375 
Q 26.375 40.375 22.484375 35.828125 
Q 18.609375 31.296875 18.609375 23.390625 
Q 18.609375 15.53125 22.484375 10.953125 
Q 26.375 6.390625 33.015625 6.390625 
Q 39.65625 6.390625 43.53125 10.953125 
Q 47.40625 15.53125 47.40625 23.390625 
Q 47.40625 31.296875 43.53125 35.828125 
Q 39.65625 40.375 33.015625 40.375 
z
M 52.59375 71.296875 
L 52.59375 62.3125 
Q 48.875 64.0625 45.09375 64.984375 
Q 41.3125 65.921875 37.59375 65.921875 
Q 27.828125 65.921875 22.671875 59.328125 
Q 17.53125 52.734375 16.796875 39.40625 
Q 19.671875 43.65625 24.015625 45.921875 
Q 28.375 48.1875 33.59375 48.1875 
Q 44.578125 48.1875 50.953125 41.515625 
Q 57.328125 34.859375 57.328125 23.390625 
Q 57.328125 12.15625 50.6875 5.359375 
Q 44.046875 -1.421875 33.015625 -1.421875 
Q 20.359375 -1.421875 13.671875 8.265625 
Q 6.984375 17.96875 6.984375 36.375 
Q 6.984375 53.65625 15.1875 63.9375 
Q 23.390625 74.21875 37.203125 74.21875 
Q 40.921875 74.21875 44.703125 73.484375 
Q 48.484375 72.75 52.59375 71.296875 
z
" id="DejaVuSans-54"/>
       </defs>
       <use xlink:href="#DejaVuSans-8722"/>
       <use x="83.789062" xlink:href="#DejaVuSans-48"/>
       <use x="147.412109" xlink:href="#DejaVuSans-46"/>
       <use x="179.199219" xlink:href="#DejaVuSans-54"/>
      </g>
     </g>
    </g>
    <g id="xtick_2">
     <g id="line2d_3">
      <path clip-path="url(#p9b7f5792e5)" d="M 116.57027 224.64 
L 116.57027 7.2 
" style="fill:none;stroke:#b0b0b0;stroke-linecap:square;stroke-width:0.8;"/>
     </g>
     <g id="line2d_4">
      <g>
       <use style="stroke:#000000;stroke-width:0.8;" x="116.57027" xlink:href="#mf262a33b18" y="224.64"/>
      </g>
     </g>
     <g id="text_2">
      <!-- −0.4 -->
      <g transform="translate(104.428863 239.238437)scale(0.1 -0.1)">
       <defs>
        <path d="M 37.796875 64.3125 
L 12.890625 25.390625 
L 37.796875 25.390625 
z
M 35.203125 72.90625 
L 47.609375 72.90625 
L 47.609375 25.390625 
L 58.015625 25.390625 
L 58.015625 17.1875 
L 47.609375 17.1875 
L 47.609375 0 
L 37.796875 0 
L 37.796875 17.1875 
L 4.890625 17.1875 
L 4.890625 26.703125 
z
" id="DejaVuSans-52"/>
       </defs>
       <use xlink:href="#DejaVuSans-8722"/>
       <use x="83.789062" xlink:href="#DejaVuSans-48"/>
       <use x="147.412109" xlink:href="#DejaVuSans-46"/>
       <use x="179.199219" xlink:href="#DejaVuSans-52"/>
      </g>
     </g>
    </g>
    <g id="xtick_3">
     <g id="line2d_5">
      <path clip-path="url(#p9b7f5792e5)" d="M 168.070563 224.64 
L 168.070563 7.2 
" style="fill:none;stroke:#b0b0b0;stroke-linecap:square;stroke-width:0.8;"/>
     </g>
     <g id="line2d_6">
      <g>
       <use style="stroke:#000000;stroke-width:0.8;" x="168.070563" xlink:href="#mf262a33b18" y="224.64"/>
      </g>
     </g>
     <g id="text_3">
      <!-- −0.2 -->
      <g transform="translate(155.929157 239.238437)scale(0.1 -0.1)">
       <defs>
        <path d="M 19.1875 8.296875 
L 53.609375 8.296875 
L 53.609375 0 
L 7.328125 0 
L 7.328125 8.296875 
Q 12.9375 14.109375 22.625 23.890625 
Q 32.328125 33.6875 34.8125 36.53125 
Q 39.546875 41.84375 41.421875 45.53125 
Q 43.3125 49.21875 43.3125 52.78125 
Q 43.3125 58.59375 39.234375 62.25 
Q 35.15625 65.921875 28.609375 65.921875 
Q 23.96875 65.921875 18.8125 64.3125 
Q 13.671875 62.703125 7.8125 59.421875 
L 7.8125 69.390625 
Q 13.765625 71.78125 18.9375 73 
Q 24.125 74.21875 28.421875 74.21875 
Q 39.75 74.21875 46.484375 68.546875 
Q 53.21875 62.890625 53.21875 53.421875 
Q 53.21875 48.921875 51.53125 44.890625 
Q 49.859375 40.875 45.40625 35.40625 
Q 44.1875 33.984375 37.640625 27.21875 
Q 31.109375 20.453125 19.1875 8.296875 
z
" id="DejaVuSans-50"/>
       </defs>
       <use xlink:href="#DejaVuSans-8722"/>
       <use x="83.789062" xlink:href="#DejaVuSans-48"/>
       <use x="147.412109" xlink:href="#DejaVuSans-46"/>
       <use x="179.199219" xlink:href="#DejaVuSans-50"/>
      </g>
     </g>
    </g>
    <g id="xtick_4">
     <g id="line2d_7">
      <path clip-path="url(#p9b7f5792e5)" d="M 219.570857 224.64 
L 219.570857 7.2 
" style="fill:none;stroke:#b0b0b0;stroke-linecap:square;stroke-width:0.8;"/>
     </g>
     <g id="line2d_8">
      <g>
       <use style="stroke:#000000;stroke-width:0.8;" x="219.570857" xlink:href="#mf262a33b18" y="224.64"/>
      </g>
     </g>
     <g id="text_4">
      <!-- 0.0 -->
      <g transform="translate(211.619294 239.238437)scale(0.1 -0.1)">
       <use xlink:href="#DejaVuSans-48"/>
       <use x="63.623047" xlink:href="#DejaVuSans-46"/>
       <use x="95.410156" xlink:href="#DejaVuSans-48"/>
      </g>
     </g>
    </g>
    <g id="xtick_5">
     <g id="line2d_9">
      <path clip-path="url(#p9b7f5792e5)" d="M 271.07115 224.64 
L 271.07115 7.2 
" style="fill:none;stroke:#b0b0b0;stroke-linecap:square;stroke-width:0.8;"/>
     </g>
     <g id="line2d_10">
      <g>
       <use style="stroke:#000000;stroke-width:0.8;" x="271.07115" xlink:href="#mf262a33b18" y="224.64"/>
      </g>
     </g>
     <g id="text_5">
      <!-- 0.2 -->
      <g transform="translate(263.119588 239.238437)scale(0.1 -0.1)">
       <use xlink:href="#DejaVuSans-48"/>
       <use x="63.623047" xlink:href="#DejaVuSans-46"/>
       <use x="95.410156" xlink:href="#DejaVuSans-50"/>
      </g>
     </g>
    </g>
    <g id="xtick_6">
     <g id="line2d_11">
      <path clip-path="url(#p9b7f5792e5)" d="M 322.571444 224.64 
L 322.571444 7.2 
" style="fill:none;stroke:#b0b0b0;stroke-linecap:square;stroke-width:0.8;"/>
     </g>
     <g id="line2d_12">
      <g>
       <use style="stroke:#000000;stroke-width:0.8;" x="322.571444" xlink:href="#mf262a33b18" y="224.64"/>
      </g>
     </g>
     <g id="text_6">
      <!-- 0.4 -->
      <g transform="translate(314.619881 239.238437)scale(0.1 -0.1)">
       <use xlink:href="#DejaVuSans-48"/>
       <use x="63.623047" xlink:href="#DejaVuSans-46"/>
       <use x="95.410156" xlink:href="#DejaVuSans-52"/>
      </g>
     </g>
    </g>
    <g id="xtick_7">
     <g id="line2d_13">
      <path clip-path="url(#p9b7f5792e5)" d="M 374.071737 224.64 
L 374.071737 7.2 
" style="fill:none;stroke:#b0b0b0;stroke-linecap:square;stroke-width:0.8;"/>
     </g>
     <g id="line2d_14">
      <g>
       <use style="stroke:#000000;stroke-width:0.8;" x="374.071737" xlink:href="#mf262a33b18" y="224.64"/>
      </g>
     </g>
     <g id="text_7">
      <!-- 0.6 -->
      <g transform="translate(366.120175 239.238437)scale(0.1 -0.1)">
       <use xlink:href="#DejaVuSans-48"/>
       <use x="63.623047" xlink:href="#DejaVuSans-46"/>
       <use x="95.410156" xlink:href="#DejaVuSans-54"/>
      </g>
     </g>
    </g>
    <g id="text_8">
     <!-- $x(t)$ -->
     <g transform="translate(210.732813 252.916562)scale(0.1 -0.1)">
      <defs>
       <path d="M 60.015625 54.6875 
L 34.90625 27.875 
L 50.296875 0 
L 39.984375 0 
L 28.421875 21.6875 
L 8.296875 0 
L -2.59375 0 
L 24.3125 28.8125 
L 10.015625 54.6875 
L 20.3125 54.6875 
L 30.8125 34.90625 
L 49.125 54.6875 
z
" id="DejaVuSans-Oblique-120"/>
       <path d="M 31 75.875 
Q 24.46875 64.65625 21.28125 53.65625 
Q 18.109375 42.671875 18.109375 31.390625 
Q 18.109375 20.125 21.3125 9.0625 
Q 24.515625 -2 31 -13.1875 
L 23.1875 -13.1875 
Q 15.875 -1.703125 12.234375 9.375 
Q 8.59375 20.453125 8.59375 31.390625 
Q 8.59375 42.28125 12.203125 53.3125 
Q 15.828125 64.359375 23.1875 75.875 
z
" id="DejaVuSans-40"/>
       <path d="M 42.28125 54.6875 
L 40.921875 47.703125 
L 23 47.703125 
L 17.1875 18.015625 
Q 16.890625 16.359375 16.75 15.234375 
Q 16.609375 14.109375 16.609375 13.484375 
Q 16.609375 10.359375 18.484375 8.9375 
Q 20.359375 7.515625 24.515625 7.515625 
L 33.59375 7.515625 
L 32.078125 0 
L 23.484375 0 
Q 15.484375 0 11.546875 3.125 
Q 7.625 6.25 7.625 12.59375 
Q 7.625 13.71875 7.765625 15.0625 
Q 7.90625 16.40625 8.203125 18.015625 
L 14.015625 47.703125 
L 6.390625 47.703125 
L 7.8125 54.6875 
L 15.28125 54.6875 
L 18.3125 70.21875 
L 27.296875 70.21875 
L 24.3125 54.6875 
z
" id="DejaVuSans-Oblique-116"/>
       <path d="M 8.015625 75.875 
L 15.828125 75.875 
Q 23.140625 64.359375 26.78125 53.3125 
Q 30.421875 42.28125 30.421875 31.390625 
Q 30.421875 20.453125 26.78125 9.375 
Q 23.140625 -1.703125 15.828125 -13.1875 
L 8.015625 -13.1875 
Q 14.5 -2 17.703125 9.0625 
Q 20.90625 20.125 20.90625 31.390625 
Q 20.90625 42.671875 17.703125 53.65625 
Q 14.5 64.65625 8.015625 75.875 
z
" id="DejaVuSans-41"/>
      </defs>
      <use transform="translate(0 0.125)" xlink:href="#DejaVuSans-Oblique-120"/>
      <use transform="translate(59.179688 0.125)" xlink:href="#DejaVuSans-40"/>
      <use transform="translate(98.193359 0.125)" xlink:href="#DejaVuSans-Oblique-116"/>
      <use transform="translate(137.402344 0.125)" xlink:href="#DejaVuSans-41"/>
     </g>
    </g>
   </g>
   <g id="matplotlib.axis_2">
    <g id="ytick_1">
     <g id="line2d_15">
      <path clip-path="url(#p9b7f5792e5)" d="M 52.182813 208.195096 
L 386.982813 208.195096 
" style="fill:none;stroke:#b0b0b0;stroke-linecap:square;stroke-width:0.8;"/>
     </g>
     <g id="line2d_16">
      <defs>
       <path d="M 0 0 
L -3.5 0 
" id="m8eee08733b" style="stroke:#000000;stroke-width:0.8;"/>
      </defs>
      <g>
       <use style="stroke:#000000;stroke-width:0.8;" x="52.182813" xlink:href="#m8eee08733b" y="208.195096"/>
      </g>
     </g>
     <g id="text_9">
      <!-- −2.5 -->
      <g transform="translate(20.9 211.994315)scale(0.1 -0.1)">
       <defs>
        <path d="M 10.796875 72.90625 
L 49.515625 72.90625 
L 49.515625 64.59375 
L 19.828125 64.59375 
L 19.828125 46.734375 
Q 21.96875 47.46875 24.109375 47.828125 
Q 26.265625 48.1875 28.421875 48.1875 
Q 40.625 48.1875 47.75 41.5 
Q 54.890625 34.8125 54.890625 23.390625 
Q 54.890625 11.625 47.5625 5.09375 
Q 40.234375 -1.421875 26.90625 -1.421875 
Q 22.3125 -1.421875 17.546875 -0.640625 
Q 12.796875 0.140625 7.71875 1.703125 
L 7.71875 11.625 
Q 12.109375 9.234375 16.796875 8.0625 
Q 21.484375 6.890625 26.703125 6.890625 
Q 35.15625 6.890625 40.078125 11.328125 
Q 45.015625 15.765625 45.015625 23.390625 
Q 45.015625 31 40.078125 35.4375 
Q 35.15625 39.890625 26.703125 39.890625 
Q 22.75 39.890625 18.8125 39.015625 
Q 14.890625 38.140625 10.796875 36.28125 
z
" id="DejaVuSans-53"/>
       </defs>
       <use xlink:href="#DejaVuSans-8722"/>
       <use x="83.789062" xlink:href="#DejaVuSans-50"/>
       <use x="147.412109" xlink:href="#DejaVuSans-46"/>
       <use x="179.199219" xlink:href="#DejaVuSans-53"/>
      </g>
     </g>
    </g>
    <g id="ytick_2">
     <g id="line2d_17">
      <path clip-path="url(#p9b7f5792e5)" d="M 52.182813 176.587641 
L 386.982813 176.587641 
" style="fill:none;stroke:#b0b0b0;stroke-linecap:square;stroke-width:0.8;"/>
     </g>
     <g id="line2d_18">
      <g>
       <use style="stroke:#000000;stroke-width:0.8;" x="52.182813" xlink:href="#m8eee08733b" y="176.587641"/>
      </g>
     </g>
     <g id="text_10">
      <!-- −2.4 -->
      <g transform="translate(20.9 180.38686)scale(0.1 -0.1)">
       <use xlink:href="#DejaVuSans-8722"/>
       <use x="83.789062" xlink:href="#DejaVuSans-50"/>
       <use x="147.412109" xlink:href="#DejaVuSans-46"/>
       <use x="179.199219" xlink:href="#DejaVuSans-52"/>
      </g>
     </g>
    </g>
    <g id="ytick_3">
     <g id="line2d_19">
      <path clip-path="url(#p9b7f5792e5)" d="M 52.182813 144.980186 
L 386.982813 144.980186 
" style="fill:none;stroke:#b0b0b0;stroke-linecap:square;stroke-width:0.8;"/>
     </g>
     <g id="line2d_20">
      <g>
       <use style="stroke:#000000;stroke-width:0.8;" x="52.182813" xlink:href="#m8eee08733b" y="144.980186"/>
      </g>
     </g>
     <g id="text_11">
      <!-- −2.3 -->
      <g transform="translate(20.9 148.779405)scale(0.1 -0.1)">
       <defs>
        <path d="M 40.578125 39.3125 
Q 47.65625 37.796875 51.625 33 
Q 55.609375 28.21875 55.609375 21.1875 
Q 55.609375 10.40625 48.1875 4.484375 
Q 40.765625 -1.421875 27.09375 -1.421875 
Q 22.515625 -1.421875 17.65625 -0.515625 
Q 12.796875 0.390625 7.625 2.203125 
L 7.625 11.71875 
Q 11.71875 9.328125 16.59375 8.109375 
Q 21.484375 6.890625 26.8125 6.890625 
Q 36.078125 6.890625 40.9375 10.546875 
Q 45.796875 14.203125 45.796875 21.1875 
Q 45.796875 27.640625 41.28125 31.265625 
Q 36.765625 34.90625 28.71875 34.90625 
L 20.21875 34.90625 
L 20.21875 43.015625 
L 29.109375 43.015625 
Q 36.375 43.015625 40.234375 45.921875 
Q 44.09375 48.828125 44.09375 54.296875 
Q 44.09375 59.90625 40.109375 62.90625 
Q 36.140625 65.921875 28.71875 65.921875 
Q 24.65625 65.921875 20.015625 65.03125 
Q 15.375 64.15625 9.8125 62.3125 
L 9.8125 71.09375 
Q 15.4375 72.65625 20.34375 73.4375 
Q 25.25 74.21875 29.59375 74.21875 
Q 40.828125 74.21875 47.359375 69.109375 
Q 53.90625 64.015625 53.90625 55.328125 
Q 53.90625 49.265625 50.4375 45.09375 
Q 46.96875 40.921875 40.578125 39.3125 
z
" id="DejaVuSans-51"/>
       </defs>
       <use xlink:href="#DejaVuSans-8722"/>
       <use x="83.789062" xlink:href="#DejaVuSans-50"/>
       <use x="147.412109" xlink:href="#DejaVuSans-46"/>
       <use x="179.199219" xlink:href="#DejaVuSans-51"/>
      </g>
     </g>
    </g>
    <g id="ytick_4">
     <g id="line2d_21">
      <path clip-path="url(#p9b7f5792e5)" d="M 52.182813 113.372732 
L 386.982813 113.372732 
" style="fill:none;stroke:#b0b0b0;stroke-linecap:square;stroke-width:0.8;"/>
     </g>
     <g id="line2d_22">
      <g>
       <use style="stroke:#000000;stroke-width:0.8;" x="52.182813" xlink:href="#m8eee08733b" y="113.372732"/>
      </g>
     </g>
     <g id="text_12">
      <!-- −2.2 -->
      <g transform="translate(20.9 117.17195)scale(0.1 -0.1)">
       <use xlink:href="#DejaVuSans-8722"/>
       <use x="83.789062" xlink:href="#DejaVuSans-50"/>
       <use x="147.412109" xlink:href="#DejaVuSans-46"/>
       <use x="179.199219" xlink:href="#DejaVuSans-50"/>
      </g>
     </g>
    </g>
    <g id="ytick_5">
     <g id="line2d_23">
      <path clip-path="url(#p9b7f5792e5)" d="M 52.182813 81.765277 
L 386.982813 81.765277 
" style="fill:none;stroke:#b0b0b0;stroke-linecap:square;stroke-width:0.8;"/>
     </g>
     <g id="line2d_24">
      <g>
       <use style="stroke:#000000;stroke-width:0.8;" x="52.182813" xlink:href="#m8eee08733b" y="81.765277"/>
      </g>
     </g>
     <g id="text_13">
      <!-- −2.1 -->
      <g transform="translate(20.9 85.564495)scale(0.1 -0.1)">
       <defs>
        <path d="M 12.40625 8.296875 
L 28.515625 8.296875 
L 28.515625 63.921875 
L 10.984375 60.40625 
L 10.984375 69.390625 
L 28.421875 72.90625 
L 38.28125 72.90625 
L 38.28125 8.296875 
L 54.390625 8.296875 
L 54.390625 0 
L 12.40625 0 
z
" id="DejaVuSans-49"/>
       </defs>
       <use xlink:href="#DejaVuSans-8722"/>
       <use x="83.789062" xlink:href="#DejaVuSans-50"/>
       <use x="147.412109" xlink:href="#DejaVuSans-46"/>
       <use x="179.199219" xlink:href="#DejaVuSans-49"/>
      </g>
     </g>
    </g>
    <g id="ytick_6">
     <g id="line2d_25">
      <path clip-path="url(#p9b7f5792e5)" d="M 52.182813 50.157822 
L 386.982813 50.157822 
" style="fill:none;stroke:#b0b0b0;stroke-linecap:square;stroke-width:0.8;"/>
     </g>
     <g id="line2d_26">
      <g>
       <use style="stroke:#000000;stroke-width:0.8;" x="52.182813" xlink:href="#m8eee08733b" y="50.157822"/>
      </g>
     </g>
     <g id="text_14">
      <!-- −2.0 -->
      <g transform="translate(20.9 53.957041)scale(0.1 -0.1)">
       <use xlink:href="#DejaVuSans-8722"/>
       <use x="83.789062" xlink:href="#DejaVuSans-50"/>
       <use x="147.412109" xlink:href="#DejaVuSans-46"/>
       <use x="179.199219" xlink:href="#DejaVuSans-48"/>
      </g>
     </g>
    </g>
    <g id="ytick_7">
     <g id="line2d_27">
      <path clip-path="url(#p9b7f5792e5)" d="M 52.182813 18.550367 
L 386.982813 18.550367 
" style="fill:none;stroke:#b0b0b0;stroke-linecap:square;stroke-width:0.8;"/>
     </g>
     <g id="line2d_28">
      <g>
       <use style="stroke:#000000;stroke-width:0.8;" x="52.182813" xlink:href="#m8eee08733b" y="18.550367"/>
      </g>
     </g>
     <g id="text_15">
      <!-- −1.9 -->
      <g transform="translate(20.9 22.349586)scale(0.1 -0.1)">
       <defs>
        <path d="M 10.984375 1.515625 
L 10.984375 10.5 
Q 14.703125 8.734375 18.5 7.8125 
Q 22.3125 6.890625 25.984375 6.890625 
Q 35.75 6.890625 40.890625 13.453125 
Q 46.046875 20.015625 46.78125 33.40625 
Q 43.953125 29.203125 39.59375 26.953125 
Q 35.25 24.703125 29.984375 24.703125 
Q 19.046875 24.703125 12.671875 31.3125 
Q 6.296875 37.9375 6.296875 49.421875 
Q 6.296875 60.640625 12.9375 67.421875 
Q 19.578125 74.21875 30.609375 74.21875 
Q 43.265625 74.21875 49.921875 64.515625 
Q 56.59375 54.828125 56.59375 36.375 
Q 56.59375 19.140625 48.40625 8.859375 
Q 40.234375 -1.421875 26.421875 -1.421875 
Q 22.703125 -1.421875 18.890625 -0.6875 
Q 15.09375 0.046875 10.984375 1.515625 
z
M 30.609375 32.421875 
Q 37.25 32.421875 41.125 36.953125 
Q 45.015625 41.5 45.015625 49.421875 
Q 45.015625 57.28125 41.125 61.84375 
Q 37.25 66.40625 30.609375 66.40625 
Q 23.96875 66.40625 20.09375 61.84375 
Q 16.21875 57.28125 16.21875 49.421875 
Q 16.21875 41.5 20.09375 36.953125 
Q 23.96875 32.421875 30.609375 32.421875 
z
" id="DejaVuSans-57"/>
       </defs>
       <use xlink:href="#DejaVuSans-8722"/>
       <use x="83.789062" xlink:href="#DejaVuSans-49"/>
       <use x="147.412109" xlink:href="#DejaVuSans-46"/>
       <use x="179.199219" xlink:href="#DejaVuSans-57"/>
      </g>
     </g>
    </g>
    <g id="text_16">
     <!-- $y(t)$ -->
     <g transform="translate(14.8 124.77)rotate(-90)scale(0.1 -0.1)">
      <defs>
       <path d="M 24.8125 -5.078125 
Q 18.5625 -15.578125 14.625 -18.1875 
Q 10.6875 -20.796875 4.59375 -20.796875 
L -2.484375 -20.796875 
L -0.984375 -13.28125 
L 4.203125 -13.28125 
Q 7.953125 -13.28125 10.59375 -11.234375 
Q 13.234375 -9.1875 16.5 -3.21875 
L 19.28125 2 
L 7.171875 54.6875 
L 16.703125 54.6875 
L 25.78125 12.796875 
L 50.875 54.6875 
L 60.296875 54.6875 
z
" id="DejaVuSans-Oblique-121"/>
      </defs>
      <use transform="translate(0 0.125)" xlink:href="#DejaVuSans-Oblique-121"/>
      <use transform="translate(59.179688 0.125)" xlink:href="#DejaVuSans-40"/>
      <use transform="translate(98.193359 0.125)" xlink:href="#DejaVuSans-Oblique-116"/>
      <use transform="translate(137.402344 0.125)" xlink:href="#DejaVuSans-41"/>
     </g>
    </g>
   </g>
   <g id="line2d_29">
    <path clip-path="url(#p9b7f5792e5)" d="M 371.764631 21.923824 
L 359.700245 35.296871 
L 348.374348 47.590231 
L 333.665287 63.162466 
L 325.14476 71.971858 
L 315.912595 81.33563 
L 306.024878 91.14816 
L 295.543073 101.297162 
L 284.53389 111.664793 
L 273.069085 122.128906 
L 261.225173 132.564425 
L 249.083058 142.844814 
L 236.727561 152.843641 
L 224.246854 162.436192 
L 211.731799 171.501116 
L 199.275209 179.922076 
L 186.971015 187.589363 
L 174.913385 194.401458 
L 163.19578 200.26651 
L 151.909987 205.103694 
L 141.145126 208.84445 
L 130.986673 211.433551 
L 121.515494 212.830016 
L 112.806925 213.007821 
L 104.929911 211.956428 
L 97.946215 209.6811 
L 91.909716 206.203009 
L 86.865819 201.559136 
L 82.850966 195.801954 
L 79.892281 188.998912 
L 78.007343 181.231712 
L 77.204093 172.595396 
L 77.480888 163.197255 
L 78.826683 153.155556 
L 81.221361 142.598127 
L 84.636185 131.660788 
L 89.034375 120.48566 
L 94.371792 109.219359 
L 100.597715 98.011101 
L 107.65569 87.010726 
L 115.484426 76.366665 
L 124.018709 66.22387 
L 133.190307 56.721725 
L 142.928828 47.991976 
L 153.162502 40.156697 
L 163.818848 33.326329 
L 174.82521 27.597848 
L 186.109135 23.053089 
L 197.598588 19.757289 
L 209.222008 17.757887 
L 220.908245 17.083636 
L 232.58638 17.744065 
L 244.185513 19.729297 
L 255.634539 23.010255 
L 266.861992 27.539227 
L 277.795983 33.250777 
L 288.364273 40.062954 
L 298.494509 47.878766 
L 308.114617 56.58785 
L 317.153348 66.068315 
L 325.54096 76.188689 
L 333.210006 86.80994 
L 340.096196 97.787544 
L 346.139299 108.973549 
L 351.284053 120.218636 
L 355.481054 131.374131 
L 358.687592 142.293967 
L 360.868413 152.836561 
L 361.996384 162.866611 
L 362.053057 172.256763 
L 361.029098 180.889174 
L 358.924594 188.656914 
L 355.749223 195.465227 
L 351.522276 201.232611 
L 346.272553 205.89173 
L 340.038112 209.390123 
L 332.865899 211.690725 
L 324.811242 212.772171 
L 315.937247 212.628902 
L 306.314082 211.271058 
L 296.018179 208.724162 
L 285.131363 205.028603 
L 273.739928 200.238926 
L 261.933669 194.422932 
L 249.8049 187.660619 
L 237.447468 180.042962 
L 224.955787 171.670566 
L 212.4239 162.652206 
L 199.944599 153.103291 
L 187.608607 143.144261 
L 175.50384 132.898966 
L 163.714749 122.493043 
L 152.32177 112.052315 
L 141.400851 101.701262 
L 131.023082 91.56156 
L 121.25442 81.750723 
L 112.155482 72.380873 
L 103.781419 63.557628 
L 89.400834 47.935202 
L 78.443003 35.56474 
L 71.15025 26.974875 
L 67.678489 22.527946 
L 67.400994 21.923749 
L 68.098891 22.411846 
L 69.768034 23.987796 
L 75.977549 30.329348 
L 107.206694 62.770613 
L 125.233481 80.924938 
L 135.237189 90.739633 
L 145.819818 100.898323 
L 156.913925 111.282822 
L 168.44711 121.770499 
L 180.342309 132.235663 
L 192.518169 142.551064 
L 204.889524 152.589468 
L 217.367964 162.225296 
L 229.862506 171.336295 
L 242.280342 179.805204 
L 254.527672 187.521394 
L 266.510599 194.38245 
L 278.136069 200.295659 
L 289.312853 205.179393 
L 299.952527 208.964352 
L 309.97046 211.594654 
L 319.28677 213.028744 
L 327.827241 213.240123 
L 335.524177 212.217878 
L 342.31718 209.966994 
L 348.153839 206.508473 
L 352.99031 201.879224 
L 356.791781 196.13175 
L 359.532817 189.333621 
L 361.197563 181.56675 
L 361.779813 172.926471 
L 361.282948 163.520435 
L 359.719717 153.467335 
L 357.111901 142.895468 
L 353.489833 131.94116 
L 348.891806 120.74706 
L 343.363369 109.460318 
L 336.95654 98.230675 
L 329.728944 87.208468 
L 321.742909 76.542585 
L 313.064546 66.378377 
L 303.762846 56.855557 
L 293.908827 48.106118 
L 283.574755 40.25228 
L 272.833491 33.404544 
L 261.757975 27.65984 
L 250.420855 23.099867 
L 238.894299 19.78964 
L 227.249939 17.776313 
L 215.558963 17.088308 
L 203.892292 17.7348 
L 192.320796 19.70557 
L 180.915517 22.971226 
L 169.747812 27.4838 
L 158.889407 33.177674 
L 148.412304 39.970807 
L 138.388531 47.766214 
L 128.889733 56.453642 
L 119.986612 65.91141 
L 111.748235 76.008345 
L 104.241238 86.605802 
L 97.528964 97.559705 
L 91.67056 108.722607 
L 86.720072 119.945729 
L 82.725568 131.080956 
L 79.728315 141.982786 
L 77.762028 152.510187 
L 76.852222 162.528378 
L 77.015675 171.910487 
L 78.260006 180.539093 
L 80.583397 188.307626 
L 83.974445 195.121608 
L 88.412152 200.899731 
L 93.866057 205.574757 
L 100.2965 209.094225 
L 107.655013 211.420963 
L 115.88484 212.533396 
L 124.921554 212.425649 
L 134.693789 211.107439 
L 145.124041 208.603769 
L 156.129551 204.954409 
L 167.623235 200.2132 
L 179.514649 194.447162 
L 191.710974 187.735448 
L 204.118002 180.168137 
L 216.641098 171.844904 
L 229.18613 162.873582 
L 241.660347 153.36864 
L 253.973187 143.449606 
L 266.037014 133.239468 
L 277.767758 122.863066 
L 289.085477 112.445527 
L 299.914811 102.110743 
L 310.18535 91.979933 
L 319.831917 82.170307 
L 328.794759 72.793837 
L 337.019679 63.95616 
L 344.458104 55.755608 
L 351.067104 48.282371 
L 361.653207 35.833749 
L 368.546255 27.144863 
L 370.559422 24.332691 
L 371.601914 22.585874 
L 371.669009 21.923544 
L 370.761213 22.353671 
L 368.884216 23.872984 
L 366.048874 26.466945 
L 357.572333 34.764469 
L 311.87466 80.518565 
L 301.75804 90.335869 
L 291.077809 100.504612 
L 279.902125 110.906247 
L 268.304011 121.41764 
L 256.361061 131.912479 
L 244.155057 142.262788 
L 231.771492 152.34053 
L 219.298992 162.019262 
L 206.82864 171.175833 
L 194.453219 179.692068 
L 182.266372 187.456433 
L 170.361704 194.365628 
L 158.831834 200.3261 
L 147.767412 205.255436 
L 137.256138 209.083621 
L 127.381771 211.754137 
L 118.223185 213.224881 
L 109.85345 213.468901 
L 102.338991 212.474927 
L 95.738818 210.247692 
L 90.103852 206.808043 
L 85.476363 202.192834 
L 81.889512 196.454611 
L 79.367038 189.661077 
L 77.923064 181.894365 
L 77.562051 173.250102 
L 78.278887 163.836305 
L 80.059114 153.772084 
L 82.879298 143.186203 
L 86.707521 132.215487 
L 91.503992 121.003098 
L 97.221766 109.696705 
L 103.80755 98.446552 
L 111.20257 87.403456 
L 119.343487 76.716737 
L 128.163316 66.532118 
L 137.592333 56.989614 
L 147.558923 48.221434 
L 157.990345 40.349925 
L 168.813377 33.485611 
L 179.954823 27.725356 
L 191.341852 23.150698 
L 202.902189 19.826415 
L 214.564138 17.799361 
L 226.256489 17.09762 
L 237.908335 17.730016 
L 249.448847 19.685986 
L 260.807064 22.935838 
L 271.911751 27.431364 
L 282.691366 33.106785 
L 293.074164 39.879993 
L 302.988462 47.654038 
L 312.363069 56.318807 
L 321.127854 65.752855 
L 329.214452 75.825339 
L 336.557063 86.398024 
L 343.093318 97.32731 
L 348.765178 108.466277 
L 353.519832 119.666707 
L 357.310568 130.781062 
L 360.097579 141.664415 
L 361.848702 152.176299 
L 362.540045 162.18246 
L 362.156512 171.556511 
L 360.692195 180.181455 
L 358.15064 187.951075 
L 354.544972 194.771167 
L 349.897884 200.560605 
L 344.241485 205.252236 
L 337.617022 208.793583 
L 330.074464 211.147351 
L 321.671977 212.291734 
L 312.475282 212.220517 
L 302.556923 210.942975 
L 291.995448 208.483562 
L 280.874525 204.881411 
L 269.282005 200.189633 
L 257.308953 194.474446 
L 245.048669 187.814138 
L 232.595696 180.297875 
L 220.044869 172.02439 
L 207.490385 163.100559 
L 195.024934 153.639905 
L 182.738894 143.761042 
L 170.719605 133.586093 
L 159.050728 123.239114 
L 147.811697 112.844539 
L 137.077265 102.525688 
L 126.917134 92.403341 
L 117.395689 82.594419 
L 108.571792 73.210766 
L 100.498664 64.358064 
L 93.223815 56.134854 
L 86.789021 48.631712 
L 81.230357 41.930518 
L 76.578228 36.103864 
L 72.857443 31.214546 
L 70.087289 27.315162 
L 68.281602 24.447783 
L 67.448857 22.643689 
L 67.592226 21.923174 
L 68.709654 22.295384 
L 70.793906 23.758219 
L 73.832611 26.298275 
L 77.808284 29.890831 
L 88.475077 40.078369 
L 139.555852 89.936782 
L 150.330444 100.115927 
L 161.584342 110.534944 
L 173.243923 121.070184 
L 185.231082 131.594704 
L 197.463625 141.979795 
L 209.855754 152.096612 
L 222.318647 161.817853 
L 234.761141 171.019474 
L 247.090501 179.582398 
L 259.213262 187.394195 
L 271.036135 194.350699 
L 282.466961 200.357536 
L 293.415694 205.33153 
L 303.795385 209.201973 
L 313.523168 211.911731 
L 322.521207 213.418178 
L 330.717603 213.693931 
L 338.047224 212.727384 
L 344.452471 210.523037 
L 349.883929 207.101599 
L 354.300926 202.499887 
L 357.67196 196.770501 
L 359.975004 189.981288 
L 361.197673 182.214606 
L 361.337254 173.566382 
L 360.400595 164.144996 
L 358.403854 154.069975 
L 355.372113 143.470543 
L 351.338864 132.48401 
L 346.345382 121.254042 
L 340.439986 109.928808 
L 333.677228 98.659041 
L 326.117005 87.59601 
L 317.823647 76.889443 
L 308.864985 66.685412 
L 299.311451 57.124205 
L 289.235235 48.338218 
L 278.709525 40.449897 
L 267.807879 33.569766 
L 256.603736 27.794594 
L 245.170084 23.20574 
L 233.579296 19.867727 
L 221.903114 17.827097 
L 210.212753 17.111591 
L 198.579098 17.729679 
L 187.072919 19.670465 
L 175.765083 22.903967 
L 164.726683 27.381752 
L 154.02906 33.037904 
L 143.743683 39.790275 
L 133.941862 47.541975 
L 124.694314 56.183058 
L 116.07057 65.592348 
L 108.13827 75.63936 
L 100.962351 86.186295 
L 94.604184 97.090054 
L 89.120678 108.204267 
L 84.563385 119.381295 
L 80.977646 130.474195 
L 78.401788 141.338632 
L 76.866413 151.834706 
L 76.393779 161.828702 
L 76.997299 171.194718 
L 78.681167 179.816182 
L 81.440112 187.587225 
L 85.259294 194.413908 
L 90.114338 200.215277 
L 95.971496 204.924252 
L 102.787955 208.48832 
L 110.512261 210.870046 
L 119.084863 212.047371 
L 128.438764 212.01372 
L 138.50027 210.777901 
L 149.189813 208.363796 
L 160.422842 204.809875 
L 172.110765 200.168499 
L 184.161919 194.505063 
L 196.482552 187.896968 
L 208.977806 180.43245 
L 221.552671 172.209286 
L 234.112907 163.333385 
L 246.565907 153.917319 
L 258.821498 144.078783 
L 270.792657 133.939041 
L 282.39615 123.621365 
L 293.553072 113.249512 
L 304.189302 102.946239 
L 314.235859 92.831907 
L 323.629178 83.023166 
L 332.311304 73.631756 
L 340.230016 64.76342 
L 347.338892 56.516938 
L 353.597323 48.983288 
L 358.970487 42.244918 
L 363.429307 36.375131 
L 366.950365 31.437575 
L 369.515829 27.485808 
L 371.113359 24.562956 
L 371.736013 22.701424 
L 371.382166 21.922666 
L 370.055426 22.23701 
L 367.764566 23.643524 
L 364.523469 26.129928 
L 360.351086 29.672564 
L 355.271416 34.236421 
L 342.511433 46.23165 
L 297.388443 89.542236 
L 286.522741 99.732105 
L 275.193997 110.168726 
L 263.476418 120.727922 
L 251.448598 131.282104 
L 239.193122 141.70183 
L 226.796078 151.857444 
L 214.346462 161.620787 
L 201.935494 170.866927 
L 189.65584 179.475894 
L 177.600764 187.33438 
L 165.863214 194.33737 
L 154.534865 200.389684 
L 143.705133 205.407405 
L 133.46019 209.319153 
L 123.881981 212.067204 
L 115.04728 213.608428 
L 107.026794 213.915033 
L 99.884333 212.975101 
L 93.676069 210.792914 
L 88.449885 207.389064 
L 84.244844 202.800343 
L 81.090772 197.079419 
L 79.007975 190.294292 
L 78.007093 182.527551 
L 78.089086 173.875426 
L 79.245374 164.446659 
L 81.4581 154.361192 
L 84.700544 143.748699 
L 88.937649 132.746969 
L 94.126673 121.500155 
L 100.217936 110.15691 
L 107.155653 98.868433 
L 114.878821 87.786425 
L 123.32215 77.060999 
L 132.416985 66.838547 
L 142.09221 57.259603 
L 152.275088 48.456723 
L 162.892004 40.552422 
L 173.869085 33.657198 
L 185.132677 27.867705 
L 196.609647 23.265099 
L 208.227547 19.913633 
L 219.914602 17.859529 
L 231.599603 17.130178 
L 243.211705 17.733699 
L 254.680208 19.658871 
L 265.934353 22.875434 
L 276.903204 27.334753 
L 287.51564 32.970794 
L 297.700491 39.701393 
L 307.38684 47.429751 
L 316.504472 56.046118 
L 324.984481 65.429611 
L 332.75998 75.450135 
L 339.766921 85.970352 
L 345.944955 96.84769 
L 351.238329 107.936351 
L 355.596769 119.089294 
L 358.976325 130.160187 
L 361.340162 141.005298 
L 362.659252 151.485308 
L 362.912978 161.467042 
L 362.089615 170.825087 
L 360.186683 179.443293 
L 357.211172 187.216135 
L 353.179631 194.04993 
L 348.118108 199.863885 
L 342.061972 204.590975 
L 335.055588 208.178639 
L 327.151874 210.589279 
L 318.411745 211.800563 
L 308.903449 211.805533 
L 298.701808 210.612504 
L 287.887385 208.244767 
L 276.545586 204.740102 
L 264.76572 200.150098 
L 252.640022 194.539304 
L 240.262672 187.984216 
L 227.72882 180.572126 
L 215.133625 172.399836 
L 202.57135 163.572283 
L 190.134496 154.201079 
L 177.913012 144.403001 
L 165.993581 134.298453 
L 154.458991 124.009936 
L 143.387594 113.660533 
L 132.852865 103.372459 
L 122.923037 93.26567 
L 113.660838 83.456567 
L 105.12329 74.056806 
L 97.361595 65.172216 
L 90.421069 56.901834 
L 84.341127 49.337065 
L 79.155318 42.560942 
L 74.89138 36.647504 
L 71.571316 31.661261 
L 69.211494 27.656751 
L 67.822749 24.678163 
L 67.410482 22.759032 
L 67.974768 21.92198 
L 69.510448 22.178515 
L 72.007215 23.528866 
L 75.449685 25.961877 
L 79.81745 29.454939 
L 85.085112 33.973999 
L 91.222302 39.473632 
L 105.958885 53.177135 
L 143.975524 89.152176 
L 154.929059 99.353072 
L 166.32926 109.807498 
L 178.101353 120.390733 
L 190.166275 130.974537 
L 202.441068 141.428726 
L 214.839376 151.622834 
L 227.272046 161.427847 
L 239.647824 170.717956 
L 251.874133 179.372308 
L 263.857934 187.276728 
L 275.506645 194.32537 
L 286.729099 200.422273 
L 297.436535 205.482794 
L 307.543585 209.434904 
L 316.969251 212.220313 
L 325.637846 213.795409 
L 333.479881 214.132012 
L 340.432889 213.217911 
L 346.44215 211.057191 
L 351.461329 207.670343 
L 355.45299 203.094148 
L 358.388996 197.381352 
L 360.250772 190.600117 
L 361.029432 182.833269 
L 360.725769 174.177342 
L 359.350097 164.741441 
L 356.921965 154.645917 
L 353.469724 144.020888 
L 349.029982 133.004606 
L 343.646933 121.741699 
L 337.371596 110.381288 
L 330.260974 99.075017 
L 322.377145 87.974997 
L 313.786343 77.231699 
L 304.558018 66.991809 
L 294.763943 57.39608 
L 284.477381 48.577202 
L 273.772349 40.657728 
L 262.723011 33.748108 
L 251.403224 27.944854 
L 239.886241 23.328903 
L 228.244577 19.964222 
L 216.55002 17.896703 
L 204.873759 17.153383 
L 193.286587 17.742035 
L 181.859119 19.651119 
L 170.661986 22.850114 
L 159.765952 27.290199 
L 149.241896 32.905249 
L 139.16067 39.61311 
L 129.592774 47.317103 
L 120.607895 55.907703 
L 112.274292 65.264352 
L 104.658069 75.257368 
L 97.822363 85.749904 
L 91.826473 96.599939 
L 86.724975 107.662266 
L 82.566845 118.790464 
L 79.394619 129.838827 
L 77.24363 140.664235 
L 76.141318 151.12796 
L 76.106652 161.097373 
L 77.149668 170.447549 
L 79.27113 179.062758 
L 82.462333 186.837814 
L 86.705029 193.679281 
L 91.971507 199.506513 
L 98.224794 204.252527 
L 105.41899 207.864695 
L 113.499731 210.305234 
L 122.40476 211.551521 
L 132.064603 211.596188 
L 142.403335 210.447036 
L 153.339424 208.126738 
L 164.78663 204.672363 
L 176.654958 200.134703 
L 188.851623 194.577441 
L 201.282041 188.076149 
L 213.850798 180.717156 
L 226.462604 172.596281 
L 239.023198 163.817477 
L 251.440206 154.491391 
L 263.623925 144.733879 
L 275.48803 134.664493 
L 286.950203 124.404965 
L 297.932662 114.077722 
L 308.362603 103.804447 
L 318.17256 93.70471 
L 327.300668 83.894684 
L 335.690854 74.485961 
L 343.292961 65.584482 
L 350.0628 57.289563 
L 355.962168 49.693057 
L 360.958806 42.878603 
L 365.02634 36.920993 
L 368.14419 31.885617 
L 370.297466 27.828002 
L 371.476851 24.793414 
L 371.678487 22.816522 
L 370.903853 21.921123 
L 369.159658 22.119901 
L 366.457736 23.414248 
L 362.814964 25.794117 
L 358.253195 29.237945 
L 352.799206 33.712619 
L 346.484682 39.173541 
L 339.346205 45.564765 
L 322.768287 60.859262 
L 281.881486 98.978674 
L 270.413231 109.451084 
L 258.590117 120.058423 
L 246.491661 130.671789 
L 234.201173 141.16025 
L 221.805258 151.392533 
L 209.393202 161.238772 
L 197.056277 170.572286 
L 184.886945 179.271354 
L 172.977998 187.220951 
L 161.42163 194.314414 
L 150.308471 200.455018 
L 139.726602 205.557421 
L 129.760563 209.548967 
L 120.490379 212.370818 
L 111.990624 213.978905 
L 104.329542 214.344681 
L 97.568237 213.45566 
L 91.759955 211.315749 
L 86.949466 207.945351 
L 83.172559 203.381254 
L 80.455671 197.676292 
L 78.815636 190.898795 
L 78.25958 183.131832 
L 78.784957 174.472243 
L 80.379717 165.029492 
L 83.022627 154.924333 
L 86.683713 144.28732 
L 91.324831 133.25716 
L 96.900347 121.978938 
L 103.357922 110.602224 
L 110.639361 99.279086 
L 118.681528 88.162023 
L 127.417274 77.401837 
L 136.776378 67.145484 
L 146.686433 57.533906 
L 157.073677 48.699898 
L 167.863714 40.766029 
L 178.982108 33.842672 
L 190.354823 28.026177 
L 201.908499 23.397243 
L 213.570575 20.019537 
L 225.26926 17.938613 
L 236.933398 17.181154 
L 248.492265 17.754587 
L 259.875346 19.647067 
L 271.012147 22.827826 
L 281.832102 27.247879 
L 292.264588 32.841032 
L 302.239097 39.52517 
L 311.685569 47.203762 
L 320.53487 55.767536 
L 328.719417 65.096289 
L 336.173911 75.060782 
L 342.836157 85.524684 
L 348.647928 96.346548 
L 353.555848 107.381783 
L 357.512262 118.484602 
L 360.476059 129.50994 
L 362.413427 140.315304 
L 363.298523 150.762561 
L 363.114032 160.719633 
L 361.851612 170.062084 
L 359.512209 178.674601 
L 356.106244 186.452329 
L 351.65365 193.302068 
L 346.183791 199.143308 
L 339.735231 203.909092 
L 332.355386 207.546703 
L 324.100043 210.018157 
L 315.032782 211.300513 
L 305.224278 211.385972 
L 294.751535 210.281797 
L 283.69703 208.010018 
L 272.147807 204.606968 
L 260.194527 200.122621 
L 247.930495 194.619771 
L 235.450677 188.173051 
L 222.850727 180.867809 
L 210.226043 172.798867 
L 197.670861 164.069187 
L 185.277406 154.788448 
L 173.135115 145.071586 
L 161.329931 135.037301 
L 149.943685 124.806567 
L 139.053567 114.501167 
L 128.731687 104.242267 
L 119.044725 94.149071 
L 110.053662 84.337543 
L 101.813596 74.919235 
L 94.373622 66.000218 
L 87.776777 57.680113 
L 82.060034 50.051241 
L 77.25434 43.197871 
L 73.38469 37.195562 
L 70.470226 32.110603 
L 68.524348 27.999522 
L 67.554845 24.90867 
L 67.564028 22.873862 
L 68.548863 21.920065 
L 70.501095 22.061145 
L 73.407366 23.299647 
L 77.249316 25.626633 
L 82.003664 29.021565 
L 87.642263 33.452266 
L 94.132135 38.874943 
L 101.435482 45.23432 
L 118.307263 60.48622 
L 171.144889 109.099356 
L 183.015517 119.73084 
L 195.14393 130.373684 
L 207.446484 140.896207 
L 219.836348 151.166325 
L 232.224118 161.053327 
L 244.518531 170.429669 
L 256.627257 179.172775 
L 268.457779 187.166781 
L 279.918315 194.304232 
L 290.918794 200.487655 
L 301.371842 205.631032 
L 311.193775 209.661099 
L 320.305567 212.518494 
L 328.63378 214.158713 
L 336.11144 214.552861 
L 342.678829 213.688199 
L 348.284196 211.568472 
L 352.884357 208.214012 
L 356.445181 203.661624 
L 358.941946 197.964241 
L 360.359568 191.190369 
L 360.692684 183.423322 
L 359.945601 174.760248 
L 358.132096 165.310967 
L 355.275084 155.196631 
L 351.406151 144.54822 
L 346.564966 133.504881 
L 340.798583 122.212141 
L 334.160643 110.820003 
L 326.710512 99.480936 
L 318.512361 88.347802 
L 309.634228 77.571711 
L 300.147083 67.29986 
L 290.123938 57.673352 
L 279.639033 48.825062 
L 268.767118 40.877547 
L 257.582881 33.94108 
L 246.160518 28.111826 
L 234.573477 23.470229 
L 222.894353 20.079645 
L 211.194923 17.985281 
L 199.546297 17.213465 
L 188.019119 17.771286 
L 176.683789 19.646603 
L 165.610641 22.80842 
L 154.870031 27.207606 
L 144.532303 32.777926 
L 134.667597 39.437331 
L 125.34551 47.089466 
L 116.634597 55.625345 
L 108.601738 64.925147 
L 101.311399 74.860103 
L 94.824811 85.294427 
L 89.199103 96.087269 
L 84.486428 107.094672 
L 80.733101 118.171503 
L 77.978789 129.173352 
L 76.25577 139.958362 
L 75.588282 150.389005 
L 75.991978 160.333753 
L 77.473505 169.668663 
L 80.030205 178.278831 
L 83.649955 186.059728 
L 88.311138 192.918379 
L 93.982753 198.774395 
L 100.624661 203.560827 
L 108.187949 207.224851 
L 116.615423 209.728262 
L 125.842209 211.047775 
L 135.796449 211.175141 
L 146.400089 210.117055 
L 157.56973 207.894882 
L 169.217551 204.544195 
L 181.252249 200.114128 
L 193.580024 194.666566 
L 206.105554 188.275181 
L 218.732968 181.024328 
L 231.366785 173.007821 
L 243.912814 164.327621 
L 256.279001 155.092436 
L 268.376197 145.416281 
L 280.118861 135.417014 
L 291.425672 125.214857 
L 302.220053 114.930959 
L 312.430606 104.685991 
L 321.991464 94.598805 
L 330.842547 84.785178 
L 338.929755 75.356646 
L 346.205079 66.419431 
L 352.626653 58.073482 
L 358.158758 50.411612 
L 362.771775 43.518735 
L 366.442103 37.4712 
L 369.152056 32.336207 
L 370.889735 28.1713 
L 371.648883 25.023924 
L 371.428743 22.931043 
L 370.233906 21.918801 
L 368.074169 22.002241 
L 364.964406 23.18506 
L 360.92445 25.459417 
L 355.978999 28.805793 
L 350.157551 33.192926 
L 343.494361 38.577815 
L 336.02842 44.905836 
L 327.803464 52.110963 
L 309.275263 68.833759 
L 265.563706 108.752151 
L 253.649084 119.407797 
L 241.494299 130.080012 
L 229.183313 140.636362 
L 216.803165 150.943956 
L 204.443352 160.871241 
L 192.195111 170.289822 
L 180.150613 179.076277 
L 168.402081 187.113924 
L 157.040857 194.294528 
L 146.156428 200.519895 
L 135.835434 205.703346 
L 126.16068 209.771034 
L 117.210165 212.663097 
L 109.056165 214.334614 
L 101.764363 214.756364 
L 95.393065 213.915373 
L 89.992507 211.815242 
L 85.604271 208.476247 
L 82.260813 203.93522 
L 79.985129 198.245203 
L 78.790544 191.474886 
L 78.680652 183.707829 
L 79.649386 175.041488 
L 81.681244 165.586035 
L 84.751634 155.463016 
L 88.82737 144.803823 
L 93.86727 133.748031 
L 99.822878 122.441596 
L 106.63927 111.034928 
L 114.255931 99.68088 
L 122.607678 88.532652 
L 131.62561 77.741636 
L 141.238034 67.455242 
L 151.371352 57.81471 
L 161.950876 48.952964 
L 172.90152 40.992524 
L 184.14837 34.043538 
L 195.617083 28.201966 
L 207.234142 23.547982 
L 218.926936 20.144617 
L 230.623714 18.036728 
L 242.253429 17.250289 
L 253.745531 17.792057 
L 265.029748 19.649607 
L 276.035921 22.791733 
L 286.693922 27.169184 
L 296.933711 32.715707 
L 306.685533 39.349348 
L 315.880283 46.973957 
L 324.45001 55.480862 
L 332.328565 64.750655 
L 339.452339 74.655067 
L 345.761097 85.058878 
L 351.198829 95.821859 
L 355.714629 106.80071 
L 359.263541 117.850969 
L 361.807357 128.828892 
L 363.315346 139.593272 
L 363.764887 150.007187 
L 363.141991 159.939668 
L 361.441709 169.267257 
L 358.668405 177.875459 
L 354.835905 185.66006 
L 349.967496 192.5283 
L 344.095801 198.399894 
L 337.262521 203.207885 
L 329.518047 206.899324 
L 320.920956 209.435759 
L 311.537398 210.793543 
L 301.440386 210.963946 
L 290.709003 209.953075 
L 279.427539 207.781604 
L 267.684573 204.484322 
L 255.572019 200.1095 
L 243.184149 194.718093 
L 230.616616 188.382796 
L 217.965486 181.186955 
L 205.3263 173.223366 
L 192.793179 164.592981 
L 180.457988 155.403533 
L 168.409562 145.768122 
L 156.733022 135.803763 
L 145.509157 125.62994 
L 134.813909 115.367183 
L 124.717941 105.135679 
L 115.286289 95.053953 
L 106.578106 85.237615 
L 98.646472 75.798203 
L 91.53829 66.842119 
L 91.53829 66.842119 
" style="fill:none;stroke:#000000;stroke-linecap:square;stroke-width:1.5;"/>
   </g>
   <g id="patch_3">
    <path d="M 52.182813 224.64 
L 52.182813 7.2 
" style="fill:none;stroke:#000000;stroke-linecap:square;stroke-linejoin:miter;stroke-width:0.8;"/>
   </g>
   <g id="patch_4">
    <path d="M 386.982813 224.64 
L 386.982813 7.2 
" style="fill:none;stroke:#000000;stroke-linecap:square;stroke-linejoin:miter;stroke-width:0.8;"/>
   </g>
   <g id="patch_5">
    <path d="M 52.182813 224.64 
L 386.982813 224.64 
" style="fill:none;stroke:#000000;stroke-linecap:square;stroke-linejoin:miter;stroke-width:0.8;"/>
   </g>
   <g id="patch_6">
    <path d="M 52.182813 7.2 
L 386.982813 7.2 
" style="fill:none;stroke:#000000;stroke-linecap:square;stroke-linejoin:miter;stroke-width:0.8;"/>
   </g>
  </g>
 </g>
 <defs>
  <clipPath id="p9b7f5792e5">
   <rect height="217.44" width="334.8" x="52.182813" y="7.2"/>
  </clipPath>
 </defs>
</svg>
