<?xml version="1.0" encoding="utf-8" standalone="no"?>
<!DOCTYPE svg PUBLIC "-//W3C//DTD SVG 1.1//EN"
  "http://www.w3.org/Graphics/SVG/1.1/DTD/svg11.dtd">
<!-- Created with matplotlib (https://matplotlib.org/) -->
<svg height="271.15107pt" version="1.1" viewBox="0 0 405.838548 271.15107" width="405.838548pt" xmlns="http://www.w3.org/2000/svg" xmlns:xlink="http://www.w3.org/1999/xlink">
 <metadata>
  <rdf:RDF xmlns:cc="http://creativecommons.org/ns#" xmlns:dc="http://purl.org/dc/elements/1.1/" xmlns:rdf="http://www.w3.org/1999/02/22-rdf-syntax-ns#">
   <cc:Work>
    <dc:type rdf:resource="http://purl.org/dc/dcmitype/StillImage"/>
    <dc:date>2021-10-24T21:02:01.965634</dc:date>
    <dc:format>image/svg+xml</dc:format>
    <dc:creator>
     <cc:Agent>
      <dc:title>Matplotlib v3.3.4, https://matplotlib.org/</dc:title>
     </cc:Agent>
    </dc:creator>
   </cc:Work>
  </rdf:RDF>
 </metadata>
 <defs>
  <style type="text/css">*{stroke-linecap:butt;stroke-linejoin:round;}</style>
 </defs>
 <g id="figure_1">
  <g id="patch_1">
   <path d="M 0 271.15107 
L 405.838548 271.15107 
L 405.838548 0 
L 0 0 
z
" style="fill:none;"/>
  </g>
  <g id="axes_1">
   <g id="patch_2">
    <path d="M 63.838548 224.64 
L 398.638548 224.64 
L 398.638548 7.2 
L 63.838548 7.2 
z
" style="fill:#ffffff;"/>
   </g>
   <g id="matplotlib.axis_1">
    <g id="xtick_1">
     <g id="line2d_1">
      <path clip-path="url(#p5873dada14)" d="M 76.725711 224.64 
L 76.725711 7.2 
" style="fill:none;stroke:#b0b0b0;stroke-linecap:square;stroke-width:0.8;"/>
     </g>
     <g id="line2d_2">
      <defs>
       <path d="M 0 0 
L 0 3.5 
" id="mf78aba1c9d" style="stroke:#000000;stroke-width:0.8;"/>
      </defs>
      <g>
       <use style="stroke:#000000;stroke-width:0.8;" x="76.725711" xlink:href="#mf78aba1c9d" y="224.64"/>
      </g>
     </g>
     <g id="text_1">
      <!-- $\mathdefault{−0.6}$ -->
      <g transform="translate(61.378418 241.771866)scale(0.15 -0.15)">
       <defs>
        <path d="M 65.90625 23 
C 67.59375 23 69.40625 23 69.40625 25 
C 69.40625 27 67.59375 27 65.90625 27 
L 11.796875 27 
C 10.09375 27 8.296875 27 8.296875 25 
C 8.296875 23 10.09375 23 11.796875 23 
z
" id="CMSY10-0"/>
        <path d="M 25.40625 68 
C 19.90625 68 15.703125 66.296875 12 62.796875 
C 6.203125 57.203125 2.40625 45.6875 2.40625 34 
C 2.40625 23.09375 5.703125 11.390625 10.40625 5.796875 
C 14.09375 1.390625 19.203125 -1 25 -1 
C 30.09375 -1 34.40625 0.6875 38 4.1875 
C 43.796875 9.6875 47.59375 21.296875 47.59375 33.390625 
C 47.59375 53.890625 38.5 68 25.40625 68 
z
M 25.09375 65.390625 
C 33.5 65.390625 38 54.09375 38 33.1875 
C 38 12.296875 33.59375 1.59375 25 1.59375 
C 16.40625 1.59375 12 12.296875 12 33.09375 
C 12 54.296875 16.5 65.390625 25.09375 65.390625 
z
" id="Nimbus_Roman_No9_L_Regular-48"/>
        <path d="M 19.203125 5.296875 
C 19.203125 8.1875 16.796875 10.59375 13.90625 10.59375 
C 11 10.59375 8.59375 8.1875 8.59375 5.296875 
C 8.59375 2.390625 11 0 13.90625 0 
C 16.796875 0 19.203125 2.390625 19.203125 5.296875 
z
" id="CMMI10-58"/>
        <path d="M 44.59375 68.59375 
C 33.203125 67.59375 27.40625 65.6875 20.09375 60.59375 
C 9.296875 52.890625 3.40625 41.484375 3.40625 28.140625 
C 3.40625 19.5 6.09375 10.75 10.40625 5.765625 
C 14.203125 1.390625 19.59375 -1 25.796875 -1 
C 38.203125 -1 46.796875 8.453125 46.796875 22.1875 
C 46.796875 34.90625 39.5 43 28 43 
C 23.59375 43 21.5 42.296875 15.203125 38.484375 
C 17.90625 53.59375 29.09375 64.390625 44.796875 67 
z
M 24.203125 38.390625 
C 32.796875 38.390625 37.796875 31.234375 37.796875 18.796875 
C 37.796875 7.859375 33.90625 1.796875 26.90625 1.796875 
C 18.09375 1.796875 12.703125 11.140625 12.703125 26.5625 
C 12.703125 31.625 13.5 34.421875 15.5 35.90625 
C 17.59375 37.5 20.703125 38.390625 24.203125 38.390625 
z
" id="Nimbus_Roman_No9_L_Regular-54"/>
       </defs>
       <use transform="scale(0.996264)" xlink:href="#CMSY10-0"/>
       <use transform="translate(77.408707 0)scale(0.996264)" xlink:href="#Nimbus_Roman_No9_L_Regular-48"/>
       <use transform="translate(127.221908 0)scale(0.996264)" xlink:href="#CMMI10-58"/>
       <use transform="translate(154.817414 0)scale(0.996264)" xlink:href="#Nimbus_Roman_No9_L_Regular-54"/>
      </g>
     </g>
    </g>
    <g id="xtick_2">
     <g id="line2d_3">
      <path clip-path="url(#p5873dada14)" d="M 128.226005 224.64 
L 128.226005 7.2 
" style="fill:none;stroke:#b0b0b0;stroke-linecap:square;stroke-width:0.8;"/>
     </g>
     <g id="line2d_4">
      <g>
       <use style="stroke:#000000;stroke-width:0.8;" x="128.226005" xlink:href="#mf78aba1c9d" y="224.64"/>
      </g>
     </g>
     <g id="text_2">
      <!-- $\mathdefault{−0.4}$ -->
      <g transform="translate(112.878711 241.771866)scale(0.15 -0.15)">
       <defs>
        <path d="M 47.203125 23.390625 
L 37 23.390625 
L 37 68 
L 32.59375 68 
L 1.203125 23.390625 
L 1.203125 17 
L 29.296875 17 
L 29.296875 0 
L 37 0 
L 37 17 
L 47.203125 17 
z
M 29.203125 23.390625 
L 5.203125 23.390625 
L 29.203125 57.765625 
z
" id="Nimbus_Roman_No9_L_Regular-52"/>
       </defs>
       <use transform="scale(0.996264)" xlink:href="#CMSY10-0"/>
       <use transform="translate(77.408707 0)scale(0.996264)" xlink:href="#Nimbus_Roman_No9_L_Regular-48"/>
       <use transform="translate(127.221908 0)scale(0.996264)" xlink:href="#CMMI10-58"/>
       <use transform="translate(154.817414 0)scale(0.996264)" xlink:href="#Nimbus_Roman_No9_L_Regular-52"/>
      </g>
     </g>
    </g>
    <g id="xtick_3">
     <g id="line2d_5">
      <path clip-path="url(#p5873dada14)" d="M 179.726299 224.64 
L 179.726299 7.2 
" style="fill:none;stroke:#b0b0b0;stroke-linecap:square;stroke-width:0.8;"/>
     </g>
     <g id="line2d_6">
      <g>
       <use style="stroke:#000000;stroke-width:0.8;" x="179.726299" xlink:href="#mf78aba1c9d" y="224.64"/>
      </g>
     </g>
     <g id="text_3">
      <!-- $\mathdefault{−0.2}$ -->
      <g transform="translate(164.379005 241.771866)scale(0.15 -0.15)">
       <defs>
        <path d="M 47.5 13.734375 
L 46.203125 14.25 
C 42.5 8.5 41.203125 7.59375 36.703125 7.59375 
L 12.796875 7.59375 
L 29.59375 25.328125 
C 38.5 34.703125 42.40625 42.359375 42.40625 50.21875 
C 42.40625 60.28125 34.296875 68 23.90625 68 
C 18.40625 68 13.203125 65.796875 9.5 61.796875 
C 6.296875 58.375 4.796875 55.15625 3.09375 48 
L 5.203125 47.484375 
C 9.203125 57.359375 12.796875 60.59375 19.703125 60.59375 
C 28.09375 60.59375 33.796875 54.84375 33.796875 46.390625 
C 33.796875 38.53125 29.203125 29.15625 20.796875 20.1875 
L 3 1.1875 
L 3 0 
L 42 0 
z
" id="Nimbus_Roman_No9_L_Regular-50"/>
       </defs>
       <use transform="scale(0.996264)" xlink:href="#CMSY10-0"/>
       <use transform="translate(77.408707 0)scale(0.996264)" xlink:href="#Nimbus_Roman_No9_L_Regular-48"/>
       <use transform="translate(127.221908 0)scale(0.996264)" xlink:href="#CMMI10-58"/>
       <use transform="translate(154.817414 0)scale(0.996264)" xlink:href="#Nimbus_Roman_No9_L_Regular-50"/>
      </g>
     </g>
    </g>
    <g id="xtick_4">
     <g id="line2d_7">
      <path clip-path="url(#p5873dada14)" d="M 231.226592 224.64 
L 231.226592 7.2 
" style="fill:none;stroke:#b0b0b0;stroke-linecap:square;stroke-width:0.8;"/>
     </g>
     <g id="line2d_8">
      <g>
       <use style="stroke:#000000;stroke-width:0.8;" x="231.226592" xlink:href="#mf78aba1c9d" y="224.64"/>
      </g>
     </g>
     <g id="text_4">
      <!-- $\mathdefault{0.0}$ -->
      <g transform="translate(221.68495 241.771866)scale(0.15 -0.15)">
       <use transform="scale(0.996264)" xlink:href="#Nimbus_Roman_No9_L_Regular-48"/>
       <use transform="translate(49.8132 0)scale(0.996264)" xlink:href="#CMMI10-58"/>
       <use transform="translate(77.408707 0)scale(0.996264)" xlink:href="#Nimbus_Roman_No9_L_Regular-48"/>
      </g>
     </g>
    </g>
    <g id="xtick_5">
     <g id="line2d_9">
      <path clip-path="url(#p5873dada14)" d="M 282.726886 224.64 
L 282.726886 7.2 
" style="fill:none;stroke:#b0b0b0;stroke-linecap:square;stroke-width:0.8;"/>
     </g>
     <g id="line2d_10">
      <g>
       <use style="stroke:#000000;stroke-width:0.8;" x="282.726886" xlink:href="#mf78aba1c9d" y="224.64"/>
      </g>
     </g>
     <g id="text_5">
      <!-- $\mathdefault{0.2}$ -->
      <g transform="translate(273.185244 241.771866)scale(0.15 -0.15)">
       <use transform="scale(0.996264)" xlink:href="#Nimbus_Roman_No9_L_Regular-48"/>
       <use transform="translate(49.8132 0)scale(0.996264)" xlink:href="#CMMI10-58"/>
       <use transform="translate(77.408707 0)scale(0.996264)" xlink:href="#Nimbus_Roman_No9_L_Regular-50"/>
      </g>
     </g>
    </g>
    <g id="xtick_6">
     <g id="line2d_11">
      <path clip-path="url(#p5873dada14)" d="M 334.227179 224.64 
L 334.227179 7.2 
" style="fill:none;stroke:#b0b0b0;stroke-linecap:square;stroke-width:0.8;"/>
     </g>
     <g id="line2d_12">
      <g>
       <use style="stroke:#000000;stroke-width:0.8;" x="334.227179" xlink:href="#mf78aba1c9d" y="224.64"/>
      </g>
     </g>
     <g id="text_6">
      <!-- $\mathdefault{0.4}$ -->
      <g transform="translate(324.685537 241.771866)scale(0.15 -0.15)">
       <use transform="scale(0.996264)" xlink:href="#Nimbus_Roman_No9_L_Regular-48"/>
       <use transform="translate(49.8132 0)scale(0.996264)" xlink:href="#CMMI10-58"/>
       <use transform="translate(77.408707 0)scale(0.996264)" xlink:href="#Nimbus_Roman_No9_L_Regular-52"/>
      </g>
     </g>
    </g>
    <g id="xtick_7">
     <g id="line2d_13">
      <path clip-path="url(#p5873dada14)" d="M 385.727473 224.64 
L 385.727473 7.2 
" style="fill:none;stroke:#b0b0b0;stroke-linecap:square;stroke-width:0.8;"/>
     </g>
     <g id="line2d_14">
      <g>
       <use style="stroke:#000000;stroke-width:0.8;" x="385.727473" xlink:href="#mf78aba1c9d" y="224.64"/>
      </g>
     </g>
     <g id="text_7">
      <!-- $\mathdefault{0.6}$ -->
      <g transform="translate(376.185831 241.771866)scale(0.15 -0.15)">
       <use transform="scale(0.996264)" xlink:href="#Nimbus_Roman_No9_L_Regular-48"/>
       <use transform="translate(49.8132 0)scale(0.996264)" xlink:href="#CMMI10-58"/>
       <use transform="translate(77.408707 0)scale(0.996264)" xlink:href="#Nimbus_Roman_No9_L_Regular-54"/>
      </g>
     </g>
    </g>
    <g id="text_8">
     <!-- $x(t)$ -->
     <g transform="translate(219.695508 260.21508)scale(0.15 -0.15)">
      <defs>
       <path d="M 40.203125 11.15625 
C 39.40625 10.265625 38.90625 9.65625 38 8.46875 
C 35.703125 5.484375 34.5 4.5 33.40625 4.5 
C 31.90625 4.5 31 5.78125 30.296875 8.5625 
C 30.09375 9.359375 30 9.96875 29.90625 10.265625 
C 27.40625 20.296875 26.296875 24.875 26.296875 26.359375 
C 30.703125 34.015625 34.296875 38.390625 36.09375 38.390625 
C 36.703125 38.390625 37.5 38.09375 38.5 37.59375 
C 39.703125 36.90625 40.40625 36.703125 41.203125 36.703125 
C 43.296875 36.703125 44.703125 38.1875 44.703125 40.296875 
C 44.703125 42.390625 43 44 40.59375 44 
C 36.203125 44 32.40625 40.390625 25.5 29.75 
L 24.40625 35.21875 
C 23 41.984375 21.90625 44 19.203125 44 
C 17 44 13.59375 43.09375 7.5 41.09375 
L 6.40625 40.6875 
L 6.796875 39.1875 
C 10.59375 40.09375 11.5 40.296875 12.40625 40.296875 
C 14.90625 40.296875 15.5 39.390625 16.90625 33.421875 
L 19.796875 21.203125 
L 11.59375 9.5625 
C 9.59375 6.578125 7.59375 4.796875 6.5 4.796875 
C 5.90625 4.796875 4.90625 5.09375 3.90625 5.6875 
C 2.59375 6.390625 1.5 6.6875 0.703125 6.6875 
C -1.203125 6.6875 -2.703125 5.1875 -2.703125 3.1875 
C -2.703125 0.59375 -0.703125 -1 2.296875 -1 
C 5.40625 -1 6.59375 -0.109375 11.59375 5.984375 
C 14.296875 9.171875 16.40625 11.84375 20.59375 17.609375 
L 23.59375 5.6875 
C 24.90625 0.59375 26.203125 -1 29.40625 -1 
C 33.203125 -1 35.796875 1.390625 41.59375 10.359375 
z
" id="Nimbus_Roman_No9_L_Regular_Italic-120"/>
       <path d="M 33.09375 -24 
C 33.09375 -23.703125 33.09375 -23.5 31.40625 -21.8125 
C 18.90625 -9.203125 15.703125 9.6875 15.703125 25 
C 15.703125 42.390625 19.5 59.796875 31.796875 72.296875 
C 33.09375 73.5 33.09375 73.6875 33.09375 74 
C 33.09375 74.6875 32.703125 75 32.09375 75 
C 31.09375 75 22.09375 68.203125 16.203125 55.5 
C 11.09375 44.5 9.90625 33.390625 9.90625 25 
C 9.90625 17.1875 11 5.09375 16.5 -6.203125 
C 22.5 -18.5 31.09375 -25 32.09375 -25 
C 32.703125 -25 33.09375 -24.703125 33.09375 -24 
z
" id="CMR10-40"/>
       <path d="M 29.59375 43 
L 21.59375 43 
L 24.40625 53.296875 
C 24.5 53.5 24.5 53.6875 24.5 53.796875 
C 24.5 54.5 24.203125 54.796875 23.703125 54.796875 
C 23.09375 54.796875 22.796875 54.6875 22.203125 53.890625 
C 18.296875 48.796875 12.09375 43.796875 8.90625 42.890625 
C 6.40625 42.09375 5.703125 41.484375 5.703125 40.390625 
C 5.703125 40.296875 5.703125 40.09375 5.796875 39.796875 
L 13.203125 39.796875 
L 6 12.21875 
C 5.796875 11.3125 5.703125 11.015625 5.40625 10.109375 
C 4.5 7.09375 3.703125 3.59375 3.703125 2.796875 
C 3.703125 0.59375 5.796875 -1 8.5 -1 
C 13.09375 -1 16.40625 1.796875 22.703125 11.109375 
L 21.40625 11.8125 
C 16.5 5.5 14.90625 3.890625 13.296875 3.890625 
C 12.40625 3.890625 11.796875 4.6875 11.796875 5.890625 
C 11.796875 6 11.796875 6.09375 11.90625 6.40625 
L 20.703125 39.796875 
L 29.09375 39.796875 
z
" id="Nimbus_Roman_No9_L_Regular_Italic-116"/>
       <path d="M 28.90625 25 
C 28.90625 32.796875 27.796875 44.890625 22.296875 56.203125 
C 16.296875 68.5 7.703125 75 6.703125 75 
C 6.09375 75 5.703125 74.59375 5.703125 74 
C 5.703125 73.6875 5.703125 73.5 7.59375 71.703125 
C 17.40625 61.796875 23.09375 45.890625 23.09375 25 
C 23.09375 7.890625 19.40625 -9.703125 7 -22.3125 
C 5.703125 -23.5 5.703125 -23.703125 5.703125 -24 
C 5.703125 -24.609375 6.09375 -25 6.703125 -25 
C 7.703125 -25 16.703125 -18.203125 22.59375 -5.5 
C 27.703125 5.5 28.90625 16.59375 28.90625 25 
z
" id="CMR10-41"/>
      </defs>
      <use transform="scale(0.996264)" xlink:href="#Nimbus_Roman_No9_L_Regular_Italic-120"/>
      <use transform="translate(44.531417 0)scale(0.996264)" xlink:href="#CMR10-40"/>
      <use transform="translate(80.694633 0)scale(0.996264)" xlink:href="#Nimbus_Roman_No9_L_Regular_Italic-116"/>
      <use transform="translate(115.163626 0)scale(0.996264)" xlink:href="#CMR10-41"/>
     </g>
    </g>
   </g>
   <g id="matplotlib.axis_2">
    <g id="ytick_1">
     <g id="line2d_15">
      <path clip-path="url(#p5873dada14)" d="M 63.838548 208.195096 
L 398.638548 208.195096 
" style="fill:none;stroke:#b0b0b0;stroke-linecap:square;stroke-width:0.8;"/>
     </g>
     <g id="line2d_16">
      <defs>
       <path d="M 0 0 
L -3.5 0 
" id="m1eb4deaee8" style="stroke:#000000;stroke-width:0.8;"/>
      </defs>
      <g>
       <use style="stroke:#000000;stroke-width:0.8;" x="63.838548" xlink:href="#m1eb4deaee8" y="208.195096"/>
      </g>
     </g>
     <g id="text_9">
      <!-- $\mathdefault{−2.5}$ -->
      <g transform="translate(26.14396 213.261029)scale(0.15 -0.15)">
       <defs>
        <path d="M 18.09375 58.09375 
L 37.703125 58.09375 
C 39.296875 58.09375 39.703125 58.296875 40 58.984375 
L 43.796875 67.890625 
L 42.90625 68.59375 
C 41.40625 66.5 40.40625 66 38.296875 66 
L 17.40625 66 
L 6.5 42.453125 
C 6.40625 42.265625 6.40625 42.15625 6.40625 41.96875 
C 6.40625 41.46875 6.796875 41.171875 7.59375 41.171875 
C 10.796875 41.171875 14.796875 40.484375 18.90625 39.1875 
C 30.40625 35.53125 35.703125 29.40625 35.703125 19.609375 
C 35.703125 10.109375 29.59375 2.6875 21.796875 2.6875 
C 19.796875 2.6875 18.09375 3.390625 15.09375 5.5625 
C 11.90625 7.84375 9.59375 8.828125 7.5 8.828125 
C 4.59375 8.828125 3.203125 7.640625 3.203125 5.171875 
C 3.203125 1.390625 7.90625 -1 15.40625 -1 
C 23.796875 -1 31 1.6875 36 6.75 
C 40.59375 11.203125 42.703125 16.84375 42.703125 24.359375 
C 42.703125 31.484375 40.796875 36.03125 35.796875 40.96875 
C 31.40625 45.328125 25.703125 47.609375 13.90625 49.6875 
z
" id="Nimbus_Roman_No9_L_Regular-53"/>
       </defs>
       <use transform="scale(0.996264)" xlink:href="#CMSY10-0"/>
       <use transform="translate(77.408707 0)scale(0.996264)" xlink:href="#Nimbus_Roman_No9_L_Regular-50"/>
       <use transform="translate(127.221908 0)scale(0.996264)" xlink:href="#CMMI10-58"/>
       <use transform="translate(154.817414 0)scale(0.996264)" xlink:href="#Nimbus_Roman_No9_L_Regular-53"/>
      </g>
     </g>
    </g>
    <g id="ytick_2">
     <g id="line2d_17">
      <path clip-path="url(#p5873dada14)" d="M 63.838548 176.587641 
L 398.638548 176.587641 
" style="fill:none;stroke:#b0b0b0;stroke-linecap:square;stroke-width:0.8;"/>
     </g>
     <g id="line2d_18">
      <g>
       <use style="stroke:#000000;stroke-width:0.8;" x="63.838548" xlink:href="#m1eb4deaee8" y="176.587641"/>
      </g>
     </g>
     <g id="text_10">
      <!-- $\mathdefault{−2.4}$ -->
      <g transform="translate(26.14396 181.653574)scale(0.15 -0.15)">
       <use transform="scale(0.996264)" xlink:href="#CMSY10-0"/>
       <use transform="translate(77.408707 0)scale(0.996264)" xlink:href="#Nimbus_Roman_No9_L_Regular-50"/>
       <use transform="translate(127.221908 0)scale(0.996264)" xlink:href="#CMMI10-58"/>
       <use transform="translate(154.817414 0)scale(0.996264)" xlink:href="#Nimbus_Roman_No9_L_Regular-52"/>
      </g>
     </g>
    </g>
    <g id="ytick_3">
     <g id="line2d_19">
      <path clip-path="url(#p5873dada14)" d="M 63.838548 144.980186 
L 398.638548 144.980186 
" style="fill:none;stroke:#b0b0b0;stroke-linecap:square;stroke-width:0.8;"/>
     </g>
     <g id="line2d_20">
      <g>
       <use style="stroke:#000000;stroke-width:0.8;" x="63.838548" xlink:href="#m1eb4deaee8" y="144.980186"/>
      </g>
     </g>
     <g id="text_11">
      <!-- $\mathdefault{−2.3}$ -->
      <g transform="translate(26.14396 150.04612)scale(0.15 -0.15)">
       <defs>
        <path d="M 15.296875 33.390625 
C 21.203125 33.390625 23.5 33.1875 25.90625 32.296875 
C 32.09375 30.09375 36 24.390625 36 17.5 
C 36 9.09375 30.296875 2.59375 22.90625 2.59375 
C 20.203125 2.59375 18.203125 3.296875 14.5 5.6875 
C 11.5 7.5 9.796875 8.1875 8.09375 8.1875 
C 5.796875 8.1875 4.296875 6.796875 4.296875 4.6875 
C 4.296875 1.1875 8.59375 -1 15.59375 -1 
C 23.296875 -1 31.203125 1.59375 35.90625 5.6875 
C 40.59375 9.796875 43.203125 15.59375 43.203125 22.296875 
C 43.203125 27.390625 41.59375 32.09375 38.703125 35.1875 
C 36.703125 37.390625 34.796875 38.59375 30.40625 40.5 
C 37.296875 45.1875 39.796875 48.890625 39.796875 54.296875 
C 39.796875 62.390625 33.40625 68 24.203125 68 
C 19.203125 68 14.796875 66.296875 11.203125 63.09375 
C 8.203125 60.390625 6.703125 57.796875 4.5 51.796875 
L 6 51.390625 
C 10.09375 58.703125 14.59375 61.984375 20.90625 61.984375 
C 27.40625 61.984375 31.90625 57.59375 31.90625 51.296875 
C 31.90625 47.6875 30.40625 44.09375 27.90625 41.59375 
C 24.90625 38.59375 22.09375 37.09375 15.296875 34.6875 
z
" id="Nimbus_Roman_No9_L_Regular-51"/>
       </defs>
       <use transform="scale(0.996264)" xlink:href="#CMSY10-0"/>
       <use transform="translate(77.408707 0)scale(0.996264)" xlink:href="#Nimbus_Roman_No9_L_Regular-50"/>
       <use transform="translate(127.221908 0)scale(0.996264)" xlink:href="#CMMI10-58"/>
       <use transform="translate(154.817414 0)scale(0.996264)" xlink:href="#Nimbus_Roman_No9_L_Regular-51"/>
      </g>
     </g>
    </g>
    <g id="ytick_4">
     <g id="line2d_21">
      <path clip-path="url(#p5873dada14)" d="M 63.838548 113.372732 
L 398.638548 113.372732 
" style="fill:none;stroke:#b0b0b0;stroke-linecap:square;stroke-width:0.8;"/>
     </g>
     <g id="line2d_22">
      <g>
       <use style="stroke:#000000;stroke-width:0.8;" x="63.838548" xlink:href="#m1eb4deaee8" y="113.372732"/>
      </g>
     </g>
     <g id="text_12">
      <!-- $\mathdefault{−2.2}$ -->
      <g transform="translate(26.14396 118.438665)scale(0.15 -0.15)">
       <use transform="scale(0.996264)" xlink:href="#CMSY10-0"/>
       <use transform="translate(77.408707 0)scale(0.996264)" xlink:href="#Nimbus_Roman_No9_L_Regular-50"/>
       <use transform="translate(127.221908 0)scale(0.996264)" xlink:href="#CMMI10-58"/>
       <use transform="translate(154.817414 0)scale(0.996264)" xlink:href="#Nimbus_Roman_No9_L_Regular-50"/>
      </g>
     </g>
    </g>
    <g id="ytick_5">
     <g id="line2d_23">
      <path clip-path="url(#p5873dada14)" d="M 63.838548 81.765277 
L 398.638548 81.765277 
" style="fill:none;stroke:#b0b0b0;stroke-linecap:square;stroke-width:0.8;"/>
     </g>
     <g id="line2d_24">
      <g>
       <use style="stroke:#000000;stroke-width:0.8;" x="63.838548" xlink:href="#m1eb4deaee8" y="81.765277"/>
      </g>
     </g>
     <g id="text_13">
      <!-- $\mathdefault{−2.1}$ -->
      <g transform="translate(26.14396 86.83121)scale(0.15 -0.15)">
       <defs>
        <path d="M 29.09375 68 
L 11.09375 59 
L 11.09375 57.59375 
C 12.296875 58.09375 13.40625 58.484375 13.796875 58.6875 
C 15.59375 59.390625 17.296875 59.78125 18.296875 59.78125 
C 20.40625 59.78125 21.296875 58.296875 21.296875 55.078125 
L 21.296875 9.359375 
C 21.296875 6.03125 20.5 3.71875 18.90625 2.796875 
C 17.40625 1.890625 16 1.59375 11.796875 1.5 
L 11.796875 0 
L 39.40625 0 
L 39.40625 1.5 
C 31.5 1.59375 29.90625 2.609375 29.90625 7.453125 
L 29.90625 67.796875 
z
" id="Nimbus_Roman_No9_L_Regular-49"/>
       </defs>
       <use transform="scale(0.996264)" xlink:href="#CMSY10-0"/>
       <use transform="translate(77.408707 0)scale(0.996264)" xlink:href="#Nimbus_Roman_No9_L_Regular-50"/>
       <use transform="translate(127.221908 0)scale(0.996264)" xlink:href="#CMMI10-58"/>
       <use transform="translate(154.817414 0)scale(0.996264)" xlink:href="#Nimbus_Roman_No9_L_Regular-49"/>
      </g>
     </g>
    </g>
    <g id="ytick_6">
     <g id="line2d_25">
      <path clip-path="url(#p5873dada14)" d="M 63.838548 50.157822 
L 398.638548 50.157822 
" style="fill:none;stroke:#b0b0b0;stroke-linecap:square;stroke-width:0.8;"/>
     </g>
     <g id="line2d_26">
      <g>
       <use style="stroke:#000000;stroke-width:0.8;" x="63.838548" xlink:href="#m1eb4deaee8" y="50.157822"/>
      </g>
     </g>
     <g id="text_14">
      <!-- $\mathdefault{−2.0}$ -->
      <g transform="translate(26.14396 55.223755)scale(0.15 -0.15)">
       <use transform="scale(0.996264)" xlink:href="#CMSY10-0"/>
       <use transform="translate(77.408707 0)scale(0.996264)" xlink:href="#Nimbus_Roman_No9_L_Regular-50"/>
       <use transform="translate(127.221908 0)scale(0.996264)" xlink:href="#CMMI10-58"/>
       <use transform="translate(154.817414 0)scale(0.996264)" xlink:href="#Nimbus_Roman_No9_L_Regular-48"/>
      </g>
     </g>
    </g>
    <g id="ytick_7">
     <g id="line2d_27">
      <path clip-path="url(#p5873dada14)" d="M 63.838548 18.550367 
L 398.638548 18.550367 
" style="fill:none;stroke:#b0b0b0;stroke-linecap:square;stroke-width:0.8;"/>
     </g>
     <g id="line2d_28">
      <g>
       <use style="stroke:#000000;stroke-width:0.8;" x="63.838548" xlink:href="#m1eb4deaee8" y="18.550367"/>
      </g>
     </g>
     <g id="text_15">
      <!-- $\mathdefault{−1.9}$ -->
      <g transform="translate(26.14396 23.6163)scale(0.15 -0.15)">
       <defs>
        <path d="M 5.90625 -1.90625 
C 17.09375 -0.609375 22.59375 1.296875 29.40625 6.1875 
C 39.796875 13.796875 45.90625 26.1875 45.90625 39.71875 
C 45.90625 56.265625 36.703125 68 23.796875 68 
C 11.90625 68 3 57.875 3 44.328125 
C 3 32.109375 10.203125 24 21 24 
C 26.5 24 30.703125 25.59375 36 29.703125 
C 31.90625 13.390625 20.796875 2.6875 5.59375 0.09375 
z
M 36.203125 35.8125 
C 36.203125 33.8125 35.796875 32.90625 34.703125 32 
C 31.90625 29.59375 28.203125 28.296875 24.59375 28.296875 
C 17 28.296875 12.203125 35.8125 12.203125 47.75 
C 12.203125 53.453125 13.796875 59.46875 15.90625 62.078125 
C 17.59375 64.09375 20.09375 65.1875 23 65.1875 
C 31.703125 65.1875 36.203125 56.5625 36.203125 39.71875 
z
" id="Nimbus_Roman_No9_L_Regular-57"/>
       </defs>
       <use transform="scale(0.996264)" xlink:href="#CMSY10-0"/>
       <use transform="translate(77.408707 0)scale(0.996264)" xlink:href="#Nimbus_Roman_No9_L_Regular-49"/>
       <use transform="translate(127.221908 0)scale(0.996264)" xlink:href="#CMMI10-58"/>
       <use transform="translate(154.817414 0)scale(0.996264)" xlink:href="#Nimbus_Roman_No9_L_Regular-57"/>
      </g>
     </g>
    </g>
    <g id="text_16">
     <!-- $y(t)$ -->
     <g transform="translate(18.40797 127.440701)rotate(-90)scale(0.15 -0.15)">
      <defs>
       <path d="M 1.5 39.890625 
C 2.796875 40.1875 3.5 40.296875 4.59375 40.296875 
C 10.296875 40.296875 11.796875 37.796875 16.40625 20.59375 
C 18.09375 14.09375 20.5 2.390625 20.5 0.6875 
C 20.5 -0.90625 19.90625 -2.515625 18.40625 -4.3125 
C 15.296875 -8.40625 13.296875 -11.015625 12.203125 -12.21875 
C 10.09375 -14.40625 8.90625 -15.21875 7.59375 -15.21875 
C 7 -15.21875 6.296875 -14.90625 5.203125 -14.109375 
C 3.703125 -12.90625 2.59375 -12.40625 1.5 -12.40625 
C -0.703125 -12.40625 -2.40625 -14.109375 -2.40625 -16.3125 
C -2.40625 -18.8125 -0.203125 -20.71875 2.703125 -20.71875 
C 9.09375 -20.71875 22.203125 -5.703125 33 14.09375 
C 39.796875 26.390625 42.59375 33.59375 42.59375 38.484375 
C 42.59375 41.484375 40.09375 44 37.09375 44 
C 34.796875 44 33.203125 42.484375 33.203125 40.296875 
C 33.203125 38.796875 34 37.6875 36 36.390625 
C 37.90625 35.296875 38.59375 34.390625 38.59375 32.984375 
C 38.59375 28.984375 34.90625 21.1875 26.40625 7.09375 
L 24.40625 18.6875 
C 22.90625 27.484375 17.296875 44 15.796875 44 
L 15.40625 44 
C 15.296875 43.890625 14.90625 43.890625 14.5 43.890625 
C 13.59375 43.796875 10 43.1875 4.703125 42.1875 
C 4.203125 42.09375 2.90625 41.796875 1.5 41.59375 
z
" id="Nimbus_Roman_No9_L_Regular_Italic-121"/>
      </defs>
      <use transform="scale(0.996264)" xlink:href="#Nimbus_Roman_No9_L_Regular_Italic-121"/>
      <use transform="translate(44.233569 0)scale(0.996264)" xlink:href="#CMR10-40"/>
      <use transform="translate(80.396785 0)scale(0.996264)" xlink:href="#Nimbus_Roman_No9_L_Regular_Italic-116"/>
      <use transform="translate(114.865777 0)scale(0.996264)" xlink:href="#CMR10-41"/>
     </g>
    </g>
   </g>
   <g id="line2d_29">
    <path clip-path="url(#p5873dada14)" d="M 383.420366 21.923824 
L 371.35598 35.296871 
L 360.030083 47.590231 
L 345.321022 63.162466 
L 336.800495 71.971858 
L 327.56833 81.33563 
L 317.680614 91.14816 
L 307.198809 101.297162 
L 296.189626 111.664793 
L 284.72482 122.128906 
L 272.880908 132.564425 
L 260.738794 142.844814 
L 248.383297 152.843641 
L 235.902589 162.436192 
L 223.387535 171.501116 
L 210.930944 179.922076 
L 198.62675 187.589363 
L 186.56912 194.401458 
L 174.851516 200.26651 
L 163.565722 205.103694 
L 152.800861 208.84445 
L 142.642408 211.433551 
L 133.171229 212.830016 
L 124.46266 213.007821 
L 116.585647 211.956428 
L 109.60195 209.6811 
L 103.565452 206.203009 
L 98.521554 201.559136 
L 94.506702 195.801954 
L 91.548017 188.998912 
L 89.663078 181.231712 
L 88.859828 172.595396 
L 89.136623 163.197255 
L 90.482418 153.155556 
L 92.877096 142.598127 
L 96.29192 131.660788 
L 100.69011 120.48566 
L 106.027528 109.219359 
L 112.25345 98.011101 
L 119.311425 87.010726 
L 127.140161 76.366665 
L 135.674444 66.22387 
L 144.846042 56.721725 
L 154.584564 47.991976 
L 164.818238 40.156697 
L 175.474583 33.326329 
L 186.480946 27.597848 
L 197.764871 23.053089 
L 209.254323 19.757289 
L 220.877744 17.757887 
L 232.56398 17.083636 
L 244.242116 17.744065 
L 255.841248 19.729297 
L 267.290274 23.010255 
L 278.517728 27.539227 
L 289.451718 33.250777 
L 300.020008 40.062954 
L 310.150245 47.878766 
L 319.770353 56.58785 
L 328.809084 66.068315 
L 337.196695 76.188689 
L 344.865741 86.80994 
L 351.751931 97.787544 
L 357.795034 108.973549 
L 362.939788 120.218636 
L 367.136789 131.374131 
L 370.343328 142.293967 
L 372.524148 152.836561 
L 373.652119 162.866611 
L 373.708792 172.256763 
L 372.684833 180.889174 
L 370.58033 188.656914 
L 367.404958 195.465227 
L 363.178012 201.232611 
L 357.928288 205.89173 
L 351.693848 209.390123 
L 344.521634 211.690725 
L 336.466977 212.772171 
L 327.592982 212.628902 
L 317.969817 211.271058 
L 307.673914 208.724162 
L 296.787099 205.028603 
L 285.395663 200.238926 
L 273.589404 194.422932 
L 261.460635 187.660619 
L 249.103204 180.042962 
L 236.611523 171.670566 
L 224.079636 162.652206 
L 211.600335 153.103291 
L 199.264343 143.144261 
L 187.159575 132.898966 
L 175.370485 122.493043 
L 163.977506 112.052315 
L 153.056586 101.701262 
L 142.678817 91.56156 
L 132.910155 81.750723 
L 123.811217 72.380873 
L 115.437155 63.557628 
L 101.056569 47.935202 
L 90.098738 35.56474 
L 82.805986 26.974875 
L 79.334225 22.527946 
L 79.05673 21.923749 
L 79.754626 22.411846 
L 81.423769 23.987796 
L 87.633284 30.329348 
L 118.862429 62.770613 
L 136.889217 80.924938 
L 146.892924 90.739633 
L 157.475553 100.898323 
L 168.56966 111.282822 
L 180.102845 121.770499 
L 191.998044 132.235663 
L 204.173904 142.551064 
L 216.545259 152.589468 
L 229.023699 162.225296 
L 241.518241 171.336295 
L 253.936077 179.805204 
L 266.183407 187.521394 
L 278.166334 194.38245 
L 289.791805 200.295659 
L 300.968588 205.179393 
L 311.608262 208.964352 
L 321.626195 211.594654 
L 330.942505 213.028744 
L 339.482977 213.240123 
L 347.179912 212.217878 
L 353.972915 209.966994 
L 359.809574 206.508473 
L 364.646045 201.879224 
L 368.447517 196.13175 
L 371.188553 189.333621 
L 372.853298 181.56675 
L 373.435549 172.926471 
L 372.938683 163.520435 
L 371.375453 153.467335 
L 368.767636 142.895468 
L 365.145568 131.94116 
L 360.547541 120.74706 
L 355.019104 109.460318 
L 348.612275 98.230675 
L 341.384679 87.208468 
L 333.398644 76.542585 
L 324.720282 66.378377 
L 315.418582 56.855557 
L 305.564562 48.106118 
L 295.23049 40.25228 
L 284.489227 33.404544 
L 273.413711 27.65984 
L 262.076591 23.099867 
L 250.550034 19.78964 
L 238.905674 17.776313 
L 227.214699 17.088308 
L 215.548027 17.7348 
L 203.976531 19.70557 
L 192.571252 22.971226 
L 181.403547 27.4838 
L 170.545143 33.177674 
L 160.06804 39.970807 
L 150.044266 47.766214 
L 140.545468 56.453642 
L 131.642347 65.91141 
L 123.40397 76.008345 
L 115.896973 86.605802 
L 109.184699 97.559705 
L 103.326295 108.722607 
L 98.375807 119.945729 
L 94.381303 131.080956 
L 91.38405 141.982786 
L 89.417763 152.510187 
L 88.507958 162.528378 
L 88.67141 171.910487 
L 89.915741 180.539093 
L 92.239132 188.307626 
L 95.63018 195.121608 
L 100.067887 200.899731 
L 105.521792 205.574757 
L 111.952235 209.094225 
L 119.310748 211.420963 
L 127.540575 212.533396 
L 136.577289 212.425649 
L 146.349524 211.107439 
L 156.779776 208.603769 
L 167.785287 204.954409 
L 179.278971 200.2132 
L 191.170384 194.447162 
L 203.366709 187.735448 
L 215.773737 180.168137 
L 228.296833 171.844904 
L 240.841865 162.873582 
L 253.316082 153.36864 
L 265.628922 143.449606 
L 277.692749 133.239468 
L 289.423493 122.863066 
L 300.741212 112.445527 
L 311.570546 102.110743 
L 321.841086 91.979933 
L 331.487652 82.170307 
L 340.450494 72.793837 
L 348.675414 63.95616 
L 356.113839 55.755608 
L 362.722839 48.282371 
L 373.308942 35.833749 
L 380.20199 27.144863 
L 382.215157 24.332691 
L 383.257649 22.585874 
L 383.324744 21.923544 
L 382.416948 22.353671 
L 380.539951 23.872984 
L 377.70461 26.466945 
L 369.228069 34.764469 
L 323.530395 80.518565 
L 313.413775 90.335869 
L 302.733544 100.504612 
L 291.557861 110.906247 
L 279.959747 121.41764 
L 268.016796 131.912479 
L 255.810792 142.262788 
L 243.427227 152.34053 
L 230.954727 162.019262 
L 218.484375 171.175833 
L 206.108954 179.692068 
L 193.922107 187.456433 
L 182.01744 194.365628 
L 170.487569 200.3261 
L 159.423148 205.255436 
L 148.911873 209.083621 
L 139.037507 211.754137 
L 129.878921 213.224881 
L 121.509186 213.468901 
L 113.994726 212.474927 
L 107.394553 210.247692 
L 101.759588 206.808043 
L 97.132098 202.192834 
L 93.545247 196.454611 
L 91.022773 189.661077 
L 89.5788 181.894365 
L 89.217787 173.250102 
L 89.934622 163.836305 
L 91.714849 153.772084 
L 94.535033 143.186203 
L 98.363256 132.215487 
L 103.159727 121.003098 
L 108.877501 109.696705 
L 115.463285 98.446552 
L 122.858305 87.403456 
L 130.999222 76.716737 
L 139.819051 66.532118 
L 149.248068 56.989614 
L 159.214658 48.221434 
L 169.64608 40.349925 
L 180.469112 33.485611 
L 191.610558 27.725356 
L 202.997588 23.150698 
L 214.557924 19.826415 
L 226.219873 17.799361 
L 237.912224 17.09762 
L 249.56407 17.730016 
L 261.104582 19.685986 
L 272.462799 22.935838 
L 283.567487 27.431364 
L 294.347102 33.106785 
L 304.729899 39.879993 
L 314.644197 47.654038 
L 324.018804 56.318807 
L 332.783589 65.752855 
L 340.870187 75.825339 
L 348.212798 86.398024 
L 354.749053 97.32731 
L 360.420913 108.466277 
L 365.175568 119.666707 
L 368.966303 130.781062 
L 371.753314 141.664415 
L 373.504437 152.176299 
L 374.19578 162.18246 
L 373.812247 171.556511 
L 372.34793 180.181455 
L 369.806375 187.951075 
L 366.200707 194.771167 
L 361.553619 200.560605 
L 355.89722 205.252236 
L 349.272757 208.793583 
L 341.730199 211.147351 
L 333.327712 212.291734 
L 324.131017 212.220517 
L 314.212658 210.942975 
L 303.651184 208.483562 
L 292.53026 204.881411 
L 280.93774 200.189633 
L 268.964689 194.474446 
L 256.704404 187.814138 
L 244.251431 180.297875 
L 231.700604 172.02439 
L 219.14612 163.100559 
L 206.680669 153.639905 
L 194.394629 143.761042 
L 182.37534 133.586093 
L 170.706463 123.239114 
L 159.467433 112.844539 
L 148.733 102.525688 
L 138.572869 92.403341 
L 129.051424 82.594419 
L 120.227528 73.210766 
L 112.154399 64.358064 
L 104.87955 56.134854 
L 98.444757 48.631712 
L 92.886092 41.930518 
L 88.233963 36.103864 
L 84.513179 31.214546 
L 81.743024 27.315162 
L 79.937338 24.447783 
L 79.104592 22.643689 
L 79.247961 21.923174 
L 80.365389 22.295384 
L 82.449642 23.758219 
L 85.488347 26.298275 
L 89.464019 29.890831 
L 100.130812 40.078369 
L 151.211587 89.936782 
L 161.986179 100.115927 
L 173.240078 110.534944 
L 184.899658 121.070184 
L 196.886817 131.594704 
L 209.119361 141.979795 
L 221.511489 152.096612 
L 233.974382 161.817853 
L 246.416876 171.019474 
L 258.746236 179.582398 
L 270.868997 187.394195 
L 282.69187 194.350699 
L 294.122697 200.357536 
L 305.071429 205.33153 
L 315.45112 209.201973 
L 325.178903 211.911731 
L 334.176943 213.418178 
L 342.373338 213.693931 
L 349.702959 212.727384 
L 356.108206 210.523037 
L 361.539664 207.101599 
L 365.956661 202.499887 
L 369.327696 196.770501 
L 371.63074 189.981288 
L 372.853409 182.214606 
L 372.99299 173.566382 
L 372.056331 164.144996 
L 370.059589 154.069975 
L 367.027848 143.470543 
L 362.994599 132.48401 
L 358.001117 121.254042 
L 352.095722 109.928808 
L 345.332963 98.659041 
L 337.772741 87.59601 
L 329.479382 76.889443 
L 320.52072 66.685412 
L 310.967187 57.124205 
L 300.89097 48.338218 
L 290.36526 40.449897 
L 279.463615 33.569766 
L 268.259472 27.794594 
L 256.82582 23.20574 
L 245.235032 19.867727 
L 233.558849 17.827097 
L 221.868489 17.111591 
L 210.234833 17.729679 
L 198.728654 19.670465 
L 187.420818 22.903967 
L 176.382418 27.381752 
L 165.684796 33.037904 
L 155.399418 39.790275 
L 145.597597 47.541975 
L 136.350049 56.183058 
L 127.726305 65.592348 
L 119.794005 75.63936 
L 112.618086 86.186295 
L 106.259919 97.090054 
L 100.776413 108.204267 
L 96.219121 119.381295 
L 92.633381 130.474195 
L 90.057524 141.338632 
L 88.522148 151.834706 
L 88.049514 161.828702 
L 88.653035 171.194718 
L 90.336902 179.816182 
L 93.095847 187.587225 
L 96.91503 194.413908 
L 101.770073 200.215277 
L 107.627231 204.924252 
L 114.44369 208.48832 
L 122.167996 210.870046 
L 130.740598 212.047371 
L 140.094499 212.01372 
L 150.156005 210.777901 
L 160.845548 208.363796 
L 172.078577 204.809875 
L 183.766501 200.168499 
L 195.817655 194.505063 
L 208.138288 187.896968 
L 220.633541 180.43245 
L 233.208406 172.209286 
L 245.768642 163.333385 
L 258.221643 153.917319 
L 270.477233 144.078783 
L 282.448392 133.939041 
L 294.051885 123.621365 
L 305.208808 113.249512 
L 315.845037 102.946239 
L 325.891594 92.831907 
L 335.284913 83.023166 
L 343.967039 73.631756 
L 351.885752 64.76342 
L 358.994628 56.516938 
L 365.253058 48.983288 
L 370.626223 42.244918 
L 375.085042 36.375131 
L 378.6061 31.437575 
L 381.171564 27.485808 
L 382.769094 24.562956 
L 383.391748 22.701424 
L 383.037901 21.922666 
L 381.711161 22.23701 
L 379.420302 23.643524 
L 376.179204 26.129928 
L 372.006821 29.672564 
L 366.927151 34.236421 
L 354.167168 46.23165 
L 309.044178 89.542236 
L 298.178477 99.732105 
L 286.849732 110.168726 
L 275.132153 120.727922 
L 263.104333 131.282104 
L 250.848858 141.70183 
L 238.451813 151.857444 
L 226.002197 161.620787 
L 213.591229 170.866927 
L 201.311575 179.475894 
L 189.256499 187.33438 
L 177.51895 194.33737 
L 166.1906 200.389684 
L 155.360868 205.407405 
L 145.115925 209.319153 
L 135.537716 212.067204 
L 126.703015 213.608428 
L 118.682529 213.915033 
L 111.540069 212.975101 
L 105.331804 210.792914 
L 100.10562 207.389064 
L 95.900579 202.800343 
L 92.746507 197.079419 
L 90.663711 190.294292 
L 89.662828 182.527551 
L 89.744822 173.875426 
L 90.901109 164.446659 
L 93.113836 154.361192 
L 96.356279 143.748699 
L 100.593384 132.746969 
L 105.782408 121.500155 
L 111.873671 110.15691 
L 118.811388 98.868433 
L 126.534557 87.786425 
L 134.977885 77.060999 
L 144.07272 66.838547 
L 153.747945 57.259603 
L 163.930823 48.456723 
L 174.547739 40.552422 
L 185.524821 33.657198 
L 196.788412 27.867705 
L 208.265383 23.265099 
L 219.883282 19.913633 
L 231.570337 17.859529 
L 243.255338 17.130178 
L 254.86744 17.733699 
L 266.335943 19.658871 
L 277.590088 22.875434 
L 288.55894 27.334753 
L 299.171376 32.970794 
L 309.356227 39.701393 
L 319.042575 47.429751 
L 328.160208 56.046118 
L 336.640216 65.429611 
L 344.415716 75.450135 
L 351.422657 85.970352 
L 357.600691 96.84769 
L 362.894065 107.936351 
L 367.252504 119.089294 
L 370.632061 130.160187 
L 372.995897 141.005298 
L 374.314987 151.485308 
L 374.568714 161.467042 
L 373.74535 170.825087 
L 371.842418 179.443293 
L 368.866908 187.216135 
L 364.835366 194.04993 
L 359.773844 199.863885 
L 353.717708 204.590975 
L 346.711323 208.178639 
L 338.807609 210.589279 
L 330.067481 211.800563 
L 320.559185 211.805533 
L 310.357544 210.612504 
L 299.54312 208.244767 
L 288.201322 204.740102 
L 276.421455 200.150098 
L 264.295757 194.539304 
L 251.918408 187.984216 
L 239.384555 180.572126 
L 226.78936 172.399836 
L 214.227085 163.572283 
L 201.790231 154.201079 
L 189.568748 144.403001 
L 177.649317 134.298453 
L 166.114726 124.009936 
L 155.04333 113.660533 
L 144.5086 103.372459 
L 134.578773 93.26567 
L 125.316573 83.456567 
L 116.779025 74.056806 
L 109.017331 65.172216 
L 102.076804 56.901834 
L 95.996862 49.337065 
L 90.811054 42.560942 
L 86.547115 36.647504 
L 83.227051 31.661261 
L 80.86723 27.656751 
L 79.478485 24.678163 
L 79.066218 22.759032 
L 79.630504 21.92198 
L 81.166184 22.178515 
L 83.66295 23.528866 
L 87.10542 25.961877 
L 91.473185 29.454939 
L 96.740848 33.973999 
L 102.878038 39.473632 
L 117.61462 53.177135 
L 155.631259 89.152176 
L 166.584794 99.353072 
L 177.984995 109.807498 
L 189.757088 120.390733 
L 201.82201 130.974537 
L 214.096803 141.428726 
L 226.495111 151.622834 
L 238.927782 161.427847 
L 251.30356 170.717956 
L 263.529869 179.372308 
L 275.51367 187.276728 
L 287.16238 194.32537 
L 298.384834 200.422273 
L 309.09227 205.482794 
L 319.199321 209.434904 
L 328.624987 212.220313 
L 337.293581 213.795409 
L 345.135617 214.132012 
L 352.088624 213.217911 
L 358.097885 211.057191 
L 363.117064 207.670343 
L 367.108725 203.094148 
L 370.044731 197.381352 
L 371.906507 190.600117 
L 372.685167 182.833269 
L 372.381504 174.177342 
L 371.005832 164.741441 
L 368.5777 154.645917 
L 365.125459 144.020888 
L 360.685717 133.004606 
L 355.302668 121.741699 
L 349.027332 110.381288 
L 341.916709 99.075017 
L 334.03288 87.974997 
L 325.442078 77.231699 
L 316.213753 66.991809 
L 306.419679 57.39608 
L 296.133116 48.577202 
L 285.428084 40.657728 
L 274.378747 33.748108 
L 263.05896 27.944854 
L 251.541977 23.328903 
L 239.900312 19.964222 
L 228.205755 17.896703 
L 216.529495 17.153383 
L 204.942322 17.742035 
L 193.514854 19.651119 
L 182.317722 22.850114 
L 171.421687 27.290199 
L 160.897632 32.905249 
L 150.816405 39.61311 
L 141.248509 47.317103 
L 132.26363 55.907703 
L 123.930027 65.264352 
L 116.313805 75.257368 
L 109.478099 85.749904 
L 103.482209 96.599939 
L 98.380711 107.662266 
L 94.22258 118.790464 
L 91.050354 129.838827 
L 88.899365 140.664235 
L 87.797053 151.12796 
L 87.762387 161.097373 
L 88.805403 170.447549 
L 90.926866 179.062758 
L 94.118068 186.837814 
L 98.360764 193.679281 
L 103.627243 199.506513 
L 109.880529 204.252527 
L 117.074725 207.864695 
L 125.155467 210.305234 
L 134.060496 211.551521 
L 143.720339 211.596188 
L 154.059071 210.447036 
L 164.995159 208.126738 
L 176.442365 204.672363 
L 188.310693 200.134703 
L 200.507358 194.577441 
L 212.937776 188.076149 
L 225.506534 180.717156 
L 238.118339 172.596281 
L 250.678933 163.817477 
L 263.095941 154.491391 
L 275.27966 144.733879 
L 287.143765 134.664493 
L 298.605939 124.404965 
L 309.588397 114.077722 
L 320.018338 103.804447 
L 329.828295 93.70471 
L 338.956403 83.894684 
L 347.346589 74.485961 
L 354.948696 65.584482 
L 361.718536 57.289563 
L 367.617903 49.693057 
L 372.614541 42.878603 
L 376.682076 36.920993 
L 379.799926 31.885617 
L 381.953201 27.828002 
L 383.132586 24.793414 
L 383.334222 22.816522 
L 382.559589 21.921123 
L 380.815393 22.119901 
L 378.113471 23.414248 
L 374.4707 25.794117 
L 369.90893 29.237945 
L 364.454942 33.712619 
L 358.140418 39.173541 
L 351.00194 45.564765 
L 334.424022 60.859262 
L 293.537221 98.978674 
L 282.068966 109.451084 
L 270.245852 120.058423 
L 258.147396 130.671789 
L 245.856909 141.16025 
L 233.460993 151.392533 
L 221.048937 161.238772 
L 208.712012 170.572286 
L 196.542681 179.271354 
L 184.633734 187.220951 
L 173.077365 194.314414 
L 161.964206 200.455018 
L 151.382337 205.557421 
L 141.416298 209.548967 
L 132.146114 212.370818 
L 123.646359 213.978905 
L 115.985277 214.344681 
L 109.223973 213.45566 
L 103.415691 211.315749 
L 98.605201 207.945351 
L 94.828294 203.381254 
L 92.111406 197.676292 
L 90.471371 190.898795 
L 89.915316 183.131832 
L 90.440692 174.472243 
L 92.035452 165.029492 
L 94.678363 154.924333 
L 98.339449 144.28732 
L 102.980566 133.25716 
L 108.556082 121.978938 
L 115.013657 110.602224 
L 122.295097 99.279086 
L 130.337263 88.162023 
L 139.07301 77.401837 
L 148.432113 67.145484 
L 158.342168 57.533906 
L 168.729412 48.699898 
L 179.51945 40.766029 
L 190.637843 33.842672 
L 202.010558 28.026177 
L 213.564234 23.397243 
L 225.22631 20.019537 
L 236.924995 17.938613 
L 248.589134 17.181154 
L 260.148001 17.754587 
L 271.531081 19.647067 
L 282.667883 22.827826 
L 293.487837 27.247879 
L 303.920323 32.841032 
L 313.894833 39.52517 
L 323.341304 47.203762 
L 332.190605 55.767536 
L 340.375152 65.096289 
L 347.829647 75.060782 
L 354.491893 85.524684 
L 360.303663 96.346548 
L 365.211583 107.381783 
L 369.167997 118.484602 
L 372.131794 129.50994 
L 374.069162 140.315304 
L 374.954258 150.762561 
L 374.769767 160.719633 
L 373.507347 170.062084 
L 371.167945 178.674601 
L 367.761979 186.452329 
L 363.309385 193.302068 
L 357.839526 199.143308 
L 351.390967 203.909092 
L 344.011121 207.546703 
L 335.755779 210.018157 
L 326.688517 211.300513 
L 316.880014 211.385972 
L 306.407271 210.281797 
L 295.352766 208.010018 
L 283.803543 204.606968 
L 271.850262 200.122621 
L 259.586231 194.619771 
L 247.106413 188.173051 
L 234.506463 180.867809 
L 221.881778 172.798867 
L 209.326596 164.069187 
L 196.933141 154.788448 
L 184.79085 145.071586 
L 172.985666 135.037301 
L 161.59942 124.806567 
L 150.709302 114.501167 
L 140.387422 104.242267 
L 130.70046 94.149071 
L 121.709397 84.337543 
L 113.469331 74.919235 
L 106.029357 66.000218 
L 99.432513 57.680113 
L 93.715769 50.051241 
L 88.910075 43.197871 
L 85.040426 37.195562 
L 82.125961 32.110603 
L 80.180083 27.999522 
L 79.21058 24.90867 
L 79.219764 22.873862 
L 80.204598 21.920065 
L 82.15683 22.061145 
L 85.063101 23.299647 
L 88.905052 25.626633 
L 93.6594 29.021565 
L 99.297998 33.452266 
L 105.78787 38.874943 
L 113.091217 45.23432 
L 129.962999 60.48622 
L 182.800625 109.099356 
L 194.671252 119.73084 
L 206.799665 130.373684 
L 219.102219 140.896207 
L 231.492083 151.166325 
L 243.879854 161.053327 
L 256.174266 170.429669 
L 268.282993 179.172775 
L 280.113514 187.166781 
L 291.57405 194.304232 
L 302.574529 200.487655 
L 313.027577 205.631032 
L 322.849511 209.661099 
L 331.961302 212.518494 
L 340.289516 214.158713 
L 347.767175 214.552861 
L 354.334564 213.688199 
L 359.939931 211.568472 
L 364.540093 208.214012 
L 368.100916 203.661624 
L 370.597682 197.964241 
L 372.015303 191.190369 
L 372.34842 183.423322 
L 371.601337 174.760248 
L 369.787831 165.310967 
L 366.930819 155.196631 
L 363.061886 144.54822 
L 358.220702 133.504881 
L 352.454318 122.212141 
L 345.816378 110.820003 
L 338.366247 99.480936 
L 330.168096 88.347802 
L 321.289963 77.571711 
L 311.802818 67.29986 
L 301.779674 57.673352 
L 291.294769 48.825062 
L 280.422854 40.877547 
L 269.238616 33.94108 
L 257.816253 28.111826 
L 246.229212 23.470229 
L 234.550088 20.079645 
L 222.850659 17.985281 
L 211.202033 17.213465 
L 199.674854 17.771286 
L 188.339524 19.646603 
L 177.266376 22.80842 
L 166.525767 27.207606 
L 156.188038 32.777926 
L 146.323333 39.437331 
L 137.001246 47.089466 
L 128.290332 55.625345 
L 120.257473 64.925147 
L 112.967134 74.860103 
L 106.480546 85.294427 
L 100.854839 96.087269 
L 96.142163 107.094672 
L 92.388837 118.171503 
L 89.634525 129.173352 
L 87.911505 139.958362 
L 87.244017 150.389005 
L 87.647713 160.333753 
L 89.12924 169.668663 
L 91.685941 178.278831 
L 95.305691 186.059728 
L 99.966873 192.918379 
L 105.638489 198.774395 
L 112.280396 203.560827 
L 119.843684 207.224851 
L 128.271159 209.728262 
L 137.497945 211.047775 
L 147.452185 211.175141 
L 158.055824 210.117055 
L 169.225466 207.894882 
L 180.873286 204.544195 
L 192.907984 200.114128 
L 205.235759 194.666566 
L 217.761289 188.275181 
L 230.388703 181.024328 
L 243.02252 173.007821 
L 255.56855 164.327621 
L 267.934736 155.092436 
L 280.031932 145.416281 
L 291.774596 135.417014 
L 303.081407 125.214857 
L 313.875788 114.930959 
L 324.086342 104.685991 
L 333.647199 94.598805 
L 342.498282 84.785178 
L 350.58549 75.356646 
L 357.860814 66.419431 
L 364.282388 58.073482 
L 369.814494 50.411612 
L 374.42751 43.518735 
L 378.097838 37.4712 
L 380.807791 32.336207 
L 382.54547 28.1713 
L 383.304618 25.023924 
L 383.084478 22.931043 
L 381.889641 21.918801 
L 379.729905 22.002241 
L 376.620142 23.18506 
L 372.580185 25.459417 
L 367.634734 28.805793 
L 361.813287 33.192926 
L 355.150097 38.577815 
L 347.684155 44.905836 
L 339.4592 52.110963 
L 320.930999 68.833759 
L 277.219441 108.752151 
L 265.304819 119.407797 
L 253.150035 130.080012 
L 240.839048 140.636362 
L 228.4589 150.943956 
L 216.099087 160.871241 
L 203.850846 170.289822 
L 191.806348 179.076277 
L 180.057816 187.113924 
L 168.696592 194.294528 
L 157.812163 200.519895 
L 147.49117 205.703346 
L 137.816415 209.771034 
L 128.865901 212.663097 
L 120.711901 214.334614 
L 113.420098 214.756364 
L 107.0488 213.915373 
L 101.648242 211.815242 
L 97.260006 208.476247 
L 93.916549 203.93522 
L 91.640865 198.245203 
L 90.44628 191.474886 
L 90.336387 183.707829 
L 91.305121 175.041488 
L 93.336979 165.586035 
L 96.40737 155.463016 
L 100.483105 144.803823 
L 105.523006 133.748031 
L 111.478614 122.441596 
L 118.295006 111.034928 
L 125.911666 99.68088 
L 134.263413 88.532652 
L 143.281345 77.741636 
L 152.893769 67.455242 
L 163.027087 57.81471 
L 173.606611 48.952964 
L 184.557256 40.992524 
L 195.804105 34.043538 
L 207.272818 28.201966 
L 218.889877 23.547982 
L 230.582671 20.144617 
L 242.279449 18.036728 
L 253.909164 17.250289 
L 265.401266 17.792057 
L 276.685484 19.649607 
L 287.691656 22.791733 
L 298.349658 27.169184 
L 308.589446 32.715707 
L 318.341268 39.349348 
L 327.536018 46.973957 
L 336.105746 55.480862 
L 343.9843 64.750655 
L 351.108075 74.655067 
L 357.416832 85.058878 
L 362.854564 95.821859 
L 367.370364 106.80071 
L 370.919276 117.850969 
L 373.463092 128.828892 
L 374.971082 139.593272 
L 375.420623 150.007187 
L 374.797726 159.939668 
L 373.097444 169.267257 
L 370.324141 177.875459 
L 366.491641 185.66006 
L 361.623231 192.5283 
L 355.751536 198.399894 
L 348.918256 203.207885 
L 341.173782 206.899324 
L 332.576692 209.435759 
L 323.193133 210.793543 
L 313.096121 210.963946 
L 302.364738 209.953075 
L 291.083275 207.781604 
L 279.340309 204.484322 
L 267.227754 200.1095 
L 254.839884 194.718093 
L 242.272352 188.382796 
L 229.621222 181.186955 
L 216.982036 173.223366 
L 204.448915 164.592981 
L 192.113723 155.403533 
L 180.065298 145.768122 
L 168.388757 135.803763 
L 157.164892 125.62994 
L 146.469644 115.367183 
L 136.373676 105.135679 
L 126.942025 95.053953 
L 118.233841 85.237615 
L 110.302207 75.798203 
L 103.194025 66.842119 
L 103.194025 66.842119 
" style="fill:none;stroke:#000000;stroke-linecap:square;stroke-width:1.5;"/>
   </g>
   <g id="patch_3">
    <path d="M 63.838548 224.64 
L 63.838548 7.2 
" style="fill:none;stroke:#000000;stroke-linecap:square;stroke-linejoin:miter;stroke-width:0.8;"/>
   </g>
   <g id="patch_4">
    <path d="M 398.638548 224.64 
L 398.638548 7.2 
" style="fill:none;stroke:#000000;stroke-linecap:square;stroke-linejoin:miter;stroke-width:0.8;"/>
   </g>
   <g id="patch_5">
    <path d="M 63.838548 224.64 
L 398.638548 224.64 
" style="fill:none;stroke:#000000;stroke-linecap:square;stroke-linejoin:miter;stroke-width:0.8;"/>
   </g>
   <g id="patch_6">
    <path d="M 63.838548 7.2 
L 398.638548 7.2 
" style="fill:none;stroke:#000000;stroke-linecap:square;stroke-linejoin:miter;stroke-width:0.8;"/>
   </g>
  </g>
 </g>
 <defs>
  <clipPath id="p5873dada14">
   <rect height="217.44" width="334.8" x="63.838548" y="7.2"/>
  </clipPath>
 </defs>
</svg>
