<?xml version="1.0" encoding="utf-8" standalone="no"?>
<!DOCTYPE svg PUBLIC "-//W3C//DTD SVG 1.1//EN"
  "http://www.w3.org/Graphics/SVG/1.1/DTD/svg11.dtd">
<!-- Created with matplotlib (https://matplotlib.org/) -->
<svg height="248.518125pt" version="1.1" viewBox="0 0 386.845313 248.518125" width="386.845313pt" xmlns="http://www.w3.org/2000/svg" xmlns:xlink="http://www.w3.org/1999/xlink">
 <metadata>
  <rdf:RDF xmlns:cc="http://creativecommons.org/ns#" xmlns:dc="http://purl.org/dc/elements/1.1/" xmlns:rdf="http://www.w3.org/1999/02/22-rdf-syntax-ns#">
   <cc:Work>
    <dc:type rdf:resource="http://purl.org/dc/dcmitype/StillImage"/>
    <dc:date>2021-10-24T17:04:49.536560</dc:date>
    <dc:format>image/svg+xml</dc:format>
    <dc:creator>
     <cc:Agent>
      <dc:title>Matplotlib v3.3.4, https://matplotlib.org/</dc:title>
     </cc:Agent>
    </dc:creator>
   </cc:Work>
  </rdf:RDF>
 </metadata>
 <defs>
  <style type="text/css">*{stroke-linecap:butt;stroke-linejoin:round;}</style>
 </defs>
 <g id="figure_1">
  <g id="patch_1">
   <path d="M -0 248.518125 
L 386.845313 248.518125 
L 386.845313 0 
L -0 0 
z
" style="fill:none;"/>
  </g>
  <g id="axes_1">
   <g id="patch_2">
    <path d="M 38.482813 224.64 
L 373.282813 224.64 
L 373.282813 7.2 
L 38.482813 7.2 
z
" style="fill:#ffffff;"/>
   </g>
   <g id="matplotlib.axis_1">
    <g id="xtick_1">
     <g id="line2d_1">
      <defs>
       <path d="M 0 0 
L 0 3.5 
" id="m660d102102" style="stroke:#000000;stroke-width:0.8;"/>
      </defs>
      <g>
       <use style="stroke:#000000;stroke-width:0.8;" x="38.482813" xlink:href="#m660d102102" y="224.64"/>
      </g>
     </g>
     <g id="text_1">
      <!-- 0 -->
      <g transform="translate(35.301563 239.238437)scale(0.1 -0.1)">
       <defs>
        <path d="M 31.78125 66.40625 
Q 24.171875 66.40625 20.328125 58.90625 
Q 16.5 51.421875 16.5 36.375 
Q 16.5 21.390625 20.328125 13.890625 
Q 24.171875 6.390625 31.78125 6.390625 
Q 39.453125 6.390625 43.28125 13.890625 
Q 47.125 21.390625 47.125 36.375 
Q 47.125 51.421875 43.28125 58.90625 
Q 39.453125 66.40625 31.78125 66.40625 
z
M 31.78125 74.21875 
Q 44.046875 74.21875 50.515625 64.515625 
Q 56.984375 54.828125 56.984375 36.375 
Q 56.984375 17.96875 50.515625 8.265625 
Q 44.046875 -1.421875 31.78125 -1.421875 
Q 19.53125 -1.421875 13.0625 8.265625 
Q 6.59375 17.96875 6.59375 36.375 
Q 6.59375 54.828125 13.0625 64.515625 
Q 19.53125 74.21875 31.78125 74.21875 
z
" id="DejaVuSans-48"/>
       </defs>
       <use xlink:href="#DejaVuSans-48"/>
      </g>
     </g>
    </g>
    <g id="xtick_2">
     <g id="line2d_2">
      <g>
       <use style="stroke:#000000;stroke-width:0.8;" x="80.332813" xlink:href="#m660d102102" y="224.64"/>
      </g>
     </g>
     <g id="text_2">
      <!-- 5 -->
      <g transform="translate(77.151563 239.238437)scale(0.1 -0.1)">
       <defs>
        <path d="M 10.796875 72.90625 
L 49.515625 72.90625 
L 49.515625 64.59375 
L 19.828125 64.59375 
L 19.828125 46.734375 
Q 21.96875 47.46875 24.109375 47.828125 
Q 26.265625 48.1875 28.421875 48.1875 
Q 40.625 48.1875 47.75 41.5 
Q 54.890625 34.8125 54.890625 23.390625 
Q 54.890625 11.625 47.5625 5.09375 
Q 40.234375 -1.421875 26.90625 -1.421875 
Q 22.3125 -1.421875 17.546875 -0.640625 
Q 12.796875 0.140625 7.71875 1.703125 
L 7.71875 11.625 
Q 12.109375 9.234375 16.796875 8.0625 
Q 21.484375 6.890625 26.703125 6.890625 
Q 35.15625 6.890625 40.078125 11.328125 
Q 45.015625 15.765625 45.015625 23.390625 
Q 45.015625 31 40.078125 35.4375 
Q 35.15625 39.890625 26.703125 39.890625 
Q 22.75 39.890625 18.8125 39.015625 
Q 14.890625 38.140625 10.796875 36.28125 
z
" id="DejaVuSans-53"/>
       </defs>
       <use xlink:href="#DejaVuSans-53"/>
      </g>
     </g>
    </g>
    <g id="xtick_3">
     <g id="line2d_3">
      <g>
       <use style="stroke:#000000;stroke-width:0.8;" x="122.182813" xlink:href="#m660d102102" y="224.64"/>
      </g>
     </g>
     <g id="text_3">
      <!-- 10 -->
      <g transform="translate(115.820313 239.238437)scale(0.1 -0.1)">
       <defs>
        <path d="M 12.40625 8.296875 
L 28.515625 8.296875 
L 28.515625 63.921875 
L 10.984375 60.40625 
L 10.984375 69.390625 
L 28.421875 72.90625 
L 38.28125 72.90625 
L 38.28125 8.296875 
L 54.390625 8.296875 
L 54.390625 0 
L 12.40625 0 
z
" id="DejaVuSans-49"/>
       </defs>
       <use xlink:href="#DejaVuSans-49"/>
       <use x="63.623047" xlink:href="#DejaVuSans-48"/>
      </g>
     </g>
    </g>
    <g id="xtick_4">
     <g id="line2d_4">
      <g>
       <use style="stroke:#000000;stroke-width:0.8;" x="164.032813" xlink:href="#m660d102102" y="224.64"/>
      </g>
     </g>
     <g id="text_4">
      <!-- 15 -->
      <g transform="translate(157.670312 239.238437)scale(0.1 -0.1)">
       <use xlink:href="#DejaVuSans-49"/>
       <use x="63.623047" xlink:href="#DejaVuSans-53"/>
      </g>
     </g>
    </g>
    <g id="xtick_5">
     <g id="line2d_5">
      <g>
       <use style="stroke:#000000;stroke-width:0.8;" x="205.882813" xlink:href="#m660d102102" y="224.64"/>
      </g>
     </g>
     <g id="text_5">
      <!-- 20 -->
      <g transform="translate(199.520313 239.238437)scale(0.1 -0.1)">
       <defs>
        <path d="M 19.1875 8.296875 
L 53.609375 8.296875 
L 53.609375 0 
L 7.328125 0 
L 7.328125 8.296875 
Q 12.9375 14.109375 22.625 23.890625 
Q 32.328125 33.6875 34.8125 36.53125 
Q 39.546875 41.84375 41.421875 45.53125 
Q 43.3125 49.21875 43.3125 52.78125 
Q 43.3125 58.59375 39.234375 62.25 
Q 35.15625 65.921875 28.609375 65.921875 
Q 23.96875 65.921875 18.8125 64.3125 
Q 13.671875 62.703125 7.8125 59.421875 
L 7.8125 69.390625 
Q 13.765625 71.78125 18.9375 73 
Q 24.125 74.21875 28.421875 74.21875 
Q 39.75 74.21875 46.484375 68.546875 
Q 53.21875 62.890625 53.21875 53.421875 
Q 53.21875 48.921875 51.53125 44.890625 
Q 49.859375 40.875 45.40625 35.40625 
Q 44.1875 33.984375 37.640625 27.21875 
Q 31.109375 20.453125 19.1875 8.296875 
z
" id="DejaVuSans-50"/>
       </defs>
       <use xlink:href="#DejaVuSans-50"/>
       <use x="63.623047" xlink:href="#DejaVuSans-48"/>
      </g>
     </g>
    </g>
    <g id="xtick_6">
     <g id="line2d_6">
      <g>
       <use style="stroke:#000000;stroke-width:0.8;" x="247.732813" xlink:href="#m660d102102" y="224.64"/>
      </g>
     </g>
     <g id="text_6">
      <!-- 25 -->
      <g transform="translate(241.370313 239.238437)scale(0.1 -0.1)">
       <use xlink:href="#DejaVuSans-50"/>
       <use x="63.623047" xlink:href="#DejaVuSans-53"/>
      </g>
     </g>
    </g>
    <g id="xtick_7">
     <g id="line2d_7">
      <g>
       <use style="stroke:#000000;stroke-width:0.8;" x="289.582813" xlink:href="#m660d102102" y="224.64"/>
      </g>
     </g>
     <g id="text_7">
      <!-- 30 -->
      <g transform="translate(283.220313 239.238437)scale(0.1 -0.1)">
       <defs>
        <path d="M 40.578125 39.3125 
Q 47.65625 37.796875 51.625 33 
Q 55.609375 28.21875 55.609375 21.1875 
Q 55.609375 10.40625 48.1875 4.484375 
Q 40.765625 -1.421875 27.09375 -1.421875 
Q 22.515625 -1.421875 17.65625 -0.515625 
Q 12.796875 0.390625 7.625 2.203125 
L 7.625 11.71875 
Q 11.71875 9.328125 16.59375 8.109375 
Q 21.484375 6.890625 26.8125 6.890625 
Q 36.078125 6.890625 40.9375 10.546875 
Q 45.796875 14.203125 45.796875 21.1875 
Q 45.796875 27.640625 41.28125 31.265625 
Q 36.765625 34.90625 28.71875 34.90625 
L 20.21875 34.90625 
L 20.21875 43.015625 
L 29.109375 43.015625 
Q 36.375 43.015625 40.234375 45.921875 
Q 44.09375 48.828125 44.09375 54.296875 
Q 44.09375 59.90625 40.109375 62.90625 
Q 36.140625 65.921875 28.71875 65.921875 
Q 24.65625 65.921875 20.015625 65.03125 
Q 15.375 64.15625 9.8125 62.3125 
L 9.8125 71.09375 
Q 15.4375 72.65625 20.34375 73.4375 
Q 25.25 74.21875 29.59375 74.21875 
Q 40.828125 74.21875 47.359375 69.109375 
Q 53.90625 64.015625 53.90625 55.328125 
Q 53.90625 49.265625 50.4375 45.09375 
Q 46.96875 40.921875 40.578125 39.3125 
z
" id="DejaVuSans-51"/>
       </defs>
       <use xlink:href="#DejaVuSans-51"/>
       <use x="63.623047" xlink:href="#DejaVuSans-48"/>
      </g>
     </g>
    </g>
    <g id="xtick_8">
     <g id="line2d_8">
      <g>
       <use style="stroke:#000000;stroke-width:0.8;" x="331.432813" xlink:href="#m660d102102" y="224.64"/>
      </g>
     </g>
     <g id="text_8">
      <!-- 35 -->
      <g transform="translate(325.070313 239.238437)scale(0.1 -0.1)">
       <use xlink:href="#DejaVuSans-51"/>
       <use x="63.623047" xlink:href="#DejaVuSans-53"/>
      </g>
     </g>
    </g>
    <g id="xtick_9">
     <g id="line2d_9">
      <g>
       <use style="stroke:#000000;stroke-width:0.8;" x="373.282813" xlink:href="#m660d102102" y="224.64"/>
      </g>
     </g>
     <g id="text_9">
      <!-- 40 -->
      <g transform="translate(366.920313 239.238437)scale(0.1 -0.1)">
       <defs>
        <path d="M 37.796875 64.3125 
L 12.890625 25.390625 
L 37.796875 25.390625 
z
M 35.203125 72.90625 
L 47.609375 72.90625 
L 47.609375 25.390625 
L 58.015625 25.390625 
L 58.015625 17.1875 
L 47.609375 17.1875 
L 47.609375 0 
L 37.796875 0 
L 37.796875 17.1875 
L 4.890625 17.1875 
L 4.890625 26.703125 
z
" id="DejaVuSans-52"/>
       </defs>
       <use xlink:href="#DejaVuSans-52"/>
       <use x="63.623047" xlink:href="#DejaVuSans-48"/>
      </g>
     </g>
    </g>
   </g>
   <g id="matplotlib.axis_2">
    <g id="ytick_1">
     <g id="line2d_10">
      <defs>
       <path d="M 0 0 
L -3.5 0 
" id="m0527adc190" style="stroke:#000000;stroke-width:0.8;"/>
      </defs>
      <g>
       <use style="stroke:#000000;stroke-width:0.8;" x="38.482813" xlink:href="#m0527adc190" y="209.684407"/>
      </g>
     </g>
     <g id="text_10">
      <!-- −0.6 -->
      <g transform="translate(7.2 213.483626)scale(0.1 -0.1)">
       <defs>
        <path d="M 10.59375 35.5 
L 73.1875 35.5 
L 73.1875 27.203125 
L 10.59375 27.203125 
z
" id="DejaVuSans-8722"/>
        <path d="M 10.6875 12.40625 
L 21 12.40625 
L 21 0 
L 10.6875 0 
z
" id="DejaVuSans-46"/>
        <path d="M 33.015625 40.375 
Q 26.375 40.375 22.484375 35.828125 
Q 18.609375 31.296875 18.609375 23.390625 
Q 18.609375 15.53125 22.484375 10.953125 
Q 26.375 6.390625 33.015625 6.390625 
Q 39.65625 6.390625 43.53125 10.953125 
Q 47.40625 15.53125 47.40625 23.390625 
Q 47.40625 31.296875 43.53125 35.828125 
Q 39.65625 40.375 33.015625 40.375 
z
M 52.59375 71.296875 
L 52.59375 62.3125 
Q 48.875 64.0625 45.09375 64.984375 
Q 41.3125 65.921875 37.59375 65.921875 
Q 27.828125 65.921875 22.671875 59.328125 
Q 17.53125 52.734375 16.796875 39.40625 
Q 19.671875 43.65625 24.015625 45.921875 
Q 28.375 48.1875 33.59375 48.1875 
Q 44.578125 48.1875 50.953125 41.515625 
Q 57.328125 34.859375 57.328125 23.390625 
Q 57.328125 12.15625 50.6875 5.359375 
Q 44.046875 -1.421875 33.015625 -1.421875 
Q 20.359375 -1.421875 13.671875 8.265625 
Q 6.984375 17.96875 6.984375 36.375 
Q 6.984375 53.65625 15.1875 63.9375 
Q 23.390625 74.21875 37.203125 74.21875 
Q 40.921875 74.21875 44.703125 73.484375 
Q 48.484375 72.75 52.59375 71.296875 
z
" id="DejaVuSans-54"/>
       </defs>
       <use xlink:href="#DejaVuSans-8722"/>
       <use x="83.789062" xlink:href="#DejaVuSans-48"/>
       <use x="147.412109" xlink:href="#DejaVuSans-46"/>
       <use x="179.199219" xlink:href="#DejaVuSans-54"/>
      </g>
     </g>
    </g>
    <g id="ytick_2">
     <g id="line2d_11">
      <g>
       <use style="stroke:#000000;stroke-width:0.8;" x="38.482813" xlink:href="#m0527adc190" y="178.429605"/>
      </g>
     </g>
     <g id="text_11">
      <!-- −0.4 -->
      <g transform="translate(7.2 182.228823)scale(0.1 -0.1)">
       <use xlink:href="#DejaVuSans-8722"/>
       <use x="83.789062" xlink:href="#DejaVuSans-48"/>
       <use x="147.412109" xlink:href="#DejaVuSans-46"/>
       <use x="179.199219" xlink:href="#DejaVuSans-52"/>
      </g>
     </g>
    </g>
    <g id="ytick_3">
     <g id="line2d_12">
      <g>
       <use style="stroke:#000000;stroke-width:0.8;" x="38.482813" xlink:href="#m0527adc190" y="147.174802"/>
      </g>
     </g>
     <g id="text_12">
      <!-- −0.2 -->
      <g transform="translate(7.2 150.974021)scale(0.1 -0.1)">
       <use xlink:href="#DejaVuSans-8722"/>
       <use x="83.789062" xlink:href="#DejaVuSans-48"/>
       <use x="147.412109" xlink:href="#DejaVuSans-46"/>
       <use x="179.199219" xlink:href="#DejaVuSans-50"/>
      </g>
     </g>
    </g>
    <g id="ytick_4">
     <g id="line2d_13">
      <g>
       <use style="stroke:#000000;stroke-width:0.8;" x="38.482813" xlink:href="#m0527adc190" y="115.919999"/>
      </g>
     </g>
     <g id="text_13">
      <!-- 0.0 -->
      <g transform="translate(15.579688 119.719218)scale(0.1 -0.1)">
       <use xlink:href="#DejaVuSans-48"/>
       <use x="63.623047" xlink:href="#DejaVuSans-46"/>
       <use x="95.410156" xlink:href="#DejaVuSans-48"/>
      </g>
     </g>
    </g>
    <g id="ytick_5">
     <g id="line2d_14">
      <g>
       <use style="stroke:#000000;stroke-width:0.8;" x="38.482813" xlink:href="#m0527adc190" y="84.665197"/>
      </g>
     </g>
     <g id="text_14">
      <!-- 0.2 -->
      <g transform="translate(15.579688 88.464415)scale(0.1 -0.1)">
       <use xlink:href="#DejaVuSans-48"/>
       <use x="63.623047" xlink:href="#DejaVuSans-46"/>
       <use x="95.410156" xlink:href="#DejaVuSans-50"/>
      </g>
     </g>
    </g>
    <g id="ytick_6">
     <g id="line2d_15">
      <g>
       <use style="stroke:#000000;stroke-width:0.8;" x="38.482813" xlink:href="#m0527adc190" y="53.410394"/>
      </g>
     </g>
     <g id="text_15">
      <!-- 0.4 -->
      <g transform="translate(15.579688 57.209613)scale(0.1 -0.1)">
       <use xlink:href="#DejaVuSans-48"/>
       <use x="63.623047" xlink:href="#DejaVuSans-46"/>
       <use x="95.410156" xlink:href="#DejaVuSans-52"/>
      </g>
     </g>
    </g>
    <g id="ytick_7">
     <g id="line2d_16">
      <g>
       <use style="stroke:#000000;stroke-width:0.8;" x="38.482813" xlink:href="#m0527adc190" y="22.155591"/>
      </g>
     </g>
     <g id="text_16">
      <!-- 0.6 -->
      <g transform="translate(15.579688 25.95481)scale(0.1 -0.1)">
       <use xlink:href="#DejaVuSans-48"/>
       <use x="63.623047" xlink:href="#DejaVuSans-46"/>
       <use x="95.410156" xlink:href="#DejaVuSans-54"/>
      </g>
     </g>
    </g>
   </g>
   <g id="line2d_17">
    <path clip-path="url(#p5aef8dddff)" d="M 38.482813 146.462116 
L 39.32065 144.757209 
L 40.158488 139.83283 
L 40.996326 132.238751 
L 44.347677 94.459164 
L 45.185515 88.498074 
L 46.023353 85.59845 
L 46.861191 86.084014 
L 47.699029 89.900557 
L 48.536867 96.621988 
L 50.212542 115.53738 
L 51.888218 134.61887 
L 52.726056 141.530572 
L 53.563894 145.583033 
L 54.401731 146.323825 
L 55.239569 143.670242 
L 56.077407 137.918539 
L 56.915245 129.710854 
L 59.428758 100.25317 
L 60.266596 92.490684 
L 61.104434 87.343917 
L 61.942272 85.38747 
L 62.78011 86.839765 
L 63.617948 91.538665 
L 64.455785 98.95957 
L 66.131461 118.44203 
L 66.969299 128.328504 
L 67.807137 136.829656 
L 68.644975 142.996392 
L 69.482813 146.140237 
L 70.32065 145.910205 
L 71.158488 142.331977 
L 71.996326 135.805036 
L 72.834164 127.05807 
L 75.347677 97.832008 
L 76.185515 90.734373 
L 77.023353 86.448537 
L 77.861191 85.452984 
L 78.699029 87.858859 
L 79.536867 93.397564 
L 80.374704 101.450741 
L 83.726056 138.851091 
L 84.563894 144.217015 
L 85.401731 146.423775 
L 86.239569 145.225003 
L 87.077407 140.754532 
L 87.915245 133.511459 
L 89.590921 114.161326 
L 91.266596 95.574646 
L 92.104434 89.206137 
L 92.942272 85.820043 
L 93.78011 85.794399 
L 94.617948 89.132067 
L 95.455785 95.460419 
L 96.293623 104.072941 
L 98.807137 133.385756 
L 99.644975 140.664868 
L 100.482813 145.181388 
L 101.32065 146.431079 
L 102.158488 144.274422 
L 102.996326 138.952192 
L 103.834164 131.058579 
L 107.185515 93.501526 
L 108.023353 87.919814 
L 108.861191 85.464126 
L 109.699029 86.408623 
L 110.536867 90.647859 
L 111.374704 97.708552 
L 113.05038 116.914212 
L 114.726056 135.688276 
L 115.563894 142.254562 
L 116.401731 145.880777 
L 117.239569 146.162082 
L 118.077407 143.06707 
L 118.915245 136.941278 
L 119.753083 128.468608 
L 122.266596 99.08744 
L 123.104434 91.631422 
L 123.942272 86.887053 
L 124.78011 85.38401 
L 125.617948 87.290095 
L 126.455785 92.392509 
L 127.293623 100.121602 
L 130.644975 137.81178 
L 131.482813 143.605777 
L 132.32065 146.30885 
L 133.158488 145.619221 
L 133.996326 141.613883 
L 134.834164 134.740002 
L 136.50984 115.690872 
L 138.185515 96.741208 
L 139.023353 89.981269 
L 139.861191 86.117207 
L 140.699029 85.580419 
L 141.536867 88.430831 
L 142.374704 94.350217 
L 143.212542 102.677718 
L 145.726056 132.108793 
L 146.563894 139.737038 
L 147.401731 144.706277 
L 148.239569 146.46173 
L 149.077407 144.807413 
L 149.915245 139.928018 
L 150.753083 132.368296 
L 154.104434 94.568654 
L 154.942272 88.56601 
L 155.78011 85.617247 
L 156.617948 86.051575 
L 157.455785 89.820502 
L 158.293623 96.503256 
L 159.131461 105.353753 
L 161.644975 134.497265 
L 162.482813 141.446614 
L 163.32065 145.546096 
L 164.158488 146.338032 
L 164.996326 143.734007 
L 165.834164 138.024743 
L 166.672002 129.84764 
L 169.185515 100.385133 
L 170.023353 92.589451 
L 170.861191 87.398461 
L 171.699029 85.391701 
L 172.536867 86.793211 
L 173.374704 91.446523 
L 174.212542 98.832128 
L 175.888218 118.289023 
L 176.726056 128.188088 
L 177.563894 136.717506 
L 178.401731 142.925029 
L 179.239569 146.117629 
L 180.077407 145.938876 
L 180.915245 142.408725 
L 181.753083 135.921294 
L 182.590921 127.200858 
L 185.104434 97.955921 
L 185.942272 90.821524 
L 186.78011 86.489196 
L 187.617948 85.442611 
L 188.455785 87.798612 
L 189.293623 93.29417 
L 190.131461 101.315743 
L 193.482813 138.749411 
L 194.32065 144.158893 
L 195.158488 146.415701 
L 195.996326 145.267877 
L 196.834164 140.843568 
L 197.672002 133.636718 
L 199.347677 114.314592 
L 201.023353 95.689387 
L 201.861191 89.280882 
L 202.699029 85.846448 
L 203.536867 85.769515 
L 204.374704 89.058673 
L 205.212542 95.346709 
L 206.05038 103.93161 
L 208.563894 133.259613 
L 209.401731 140.574579 
L 210.239569 145.137034 
L 211.077407 146.437612 
L 211.915245 144.331112 
L 212.753083 139.052711 
L 213.590921 131.191704 
L 216.942272 93.606055 
L 217.78011 87.981477 
L 218.617948 85.476038 
L 219.455785 86.369455 
L 220.293623 90.561983 
L 221.131461 97.585555 
L 222.807137 116.760781 
L 224.482813 135.571017 
L 225.32065 142.176481 
L 226.158488 145.850593 
L 226.996326 146.183163 
L 227.834164 143.137063 
L 228.672002 137.052369 
L 229.50984 128.608394 
L 232.023353 99.215736 
L 232.861191 91.724793 
L 233.699029 86.935075 
L 234.536867 85.381321 
L 235.374704 87.236996 
L 236.212542 92.294928 
L 237.05038 99.990433 
L 240.401731 137.704468 
L 241.239569 143.540612 
L 242.077407 146.293108 
L 242.915245 145.654659 
L 243.753083 141.696544 
L 244.590921 134.860659 
L 246.266596 115.84437 
L 247.942272 96.860912 
L 248.78011 90.062636 
L 249.617948 86.151153 
L 250.455785 85.563154 
L 251.293623 88.364283 
L 252.131461 94.241815 
L 252.969299 102.539565 
L 255.482813 131.978426 
L 256.32065 139.640644 
L 257.158488 144.654618 
L 257.996326 146.460573 
L 258.834164 144.856887 
L 259.672002 140.0226 
L 260.50984 132.497427 
L 262.185515 112.941576 
L 263.023353 103.094172 
L 263.861191 94.678682 
L 264.699029 88.634636 
L 265.536867 85.63681 
L 266.374704 86.01989 
L 267.212542 89.741107 
L 268.05038 96.385015 
L 268.888218 105.209866 
L 271.401731 134.375191 
L 272.239569 141.362012 
L 273.077407 145.50841 
L 273.915245 146.35147 
L 274.753083 143.797069 
L 275.590921 138.130389 
L 276.428758 129.984074 
L 278.942272 100.51749 
L 279.78011 92.688808 
L 280.617948 87.453725 
L 281.455785 85.396703 
L 282.293623 86.747393 
L 283.131461 91.355 
L 283.969299 98.705117 
L 285.644975 118.135956 
L 286.482813 128.047361 
L 287.32065 136.604831 
L 288.158488 142.852984 
L 288.996326 146.094258 
L 289.834164 145.966788 
L 290.672002 142.484804 
L 291.50984 136.037046 
L 292.347677 127.34336 
L 294.861191 98.080288 
L 295.699029 90.909309 
L 296.536867 86.530598 
L 297.374704 85.433007 
L 298.212542 87.739076 
L 299.05038 93.191347 
L 299.888218 101.181114 
L 303.239569 138.647154 
L 304.077407 144.100059 
L 304.915245 146.406857 
L 305.753083 145.310011 
L 306.590921 140.931976 
L 307.428758 133.761529 
L 309.104434 114.4679 
L 310.78011 95.804638 
L 311.617948 89.3563 
L 312.455785 85.873612 
L 313.293623 85.745393 
L 314.131461 88.985958 
L 314.969299 95.233519 
L 315.807137 103.790581 
L 318.32065 133.133031 
L 319.158488 140.483667 
L 319.996326 145.091942 
L 320.834164 146.443374 
L 321.672002 144.387085 
L 322.50984 139.152645 
L 323.347677 131.324443 
L 326.699029 93.711148 
L 327.536867 88.043845 
L 328.374704 85.488719 
L 329.212542 86.331033 
L 330.05038 90.476747 
L 330.888218 97.463022 
L 332.563894 116.60733 
L 334.239569 135.453262 
L 335.077407 142.097737 
L 335.915245 145.819652 
L 336.753083 146.20348 
L 337.590921 143.206369 
L 338.428758 137.162926 
L 339.266596 128.74786 
L 341.78011 99.344454 
L 342.617948 91.818775 
L 343.455785 86.983829 
L 344.293623 85.379403 
L 345.131461 87.184622 
L 345.969299 92.197944 
L 346.807137 99.859667 
L 350.158488 137.596605 
L 350.996326 143.474749 
L 351.834164 146.276599 
L 352.672002 145.689346 
L 353.50984 141.778555 
L 354.347677 134.980837 
L 356.023353 115.997869 
L 357.699029 96.981097 
L 358.536867 90.144656 
L 359.374704 86.185851 
L 360.212542 85.546655 
L 361.05038 88.298431 
L 361.888218 94.133961 
L 362.726056 102.401749 
L 365.239569 131.847654 
L 366.077407 139.543651 
L 366.915245 144.602233 
L 367.753083 146.458644 
L 368.590921 144.90563 
L 369.428758 140.116573 
L 370.266596 132.626138 
L 371.942272 113.094381 
L 372.78011 103.233642 
L 373.617948 94.789247 
L 374.455785 88.703952 
L 375.293623 85.657138 
L 376.131461 85.98896 
L 376.969299 89.662373 
L 377.807137 96.267266 
L 378.644975 105.066249 
L 381.158488 134.252651 
L 381.996326 141.276767 
L 382.834164 145.469977 
L 383.672002 146.36414 
L 384.50984 143.859427 
L 385.347677 138.235473 
L 386.185515 130.120153 
L 387.845313 110.409844 
L 387.845313 110.409844 
" style="fill:none;stroke:#1f77b4;stroke-linecap:square;stroke-width:1.5;"/>
   </g>
   <g id="line2d_18">
    <path clip-path="url(#p5aef8dddff)" d="M 38.482813 35.959701 
L 39.32065 40.265903 
L 40.158488 52.720696 
L 40.996326 71.982593 
L 42.672002 122.11929 
L 43.50984 147.593942 
L 44.347677 169.657041 
L 45.185515 185.932202 
L 46.023353 194.666453 
L 46.861191 194.91904 
L 47.699029 186.662758 
L 48.536867 170.786878 
L 49.374704 149.001368 
L 51.888218 73.276739 
L 52.726056 53.675342 
L 53.563894 40.778225 
L 54.401731 35.974517 
L 55.239569 39.781618 
L 56.077407 51.789471 
L 56.915245 70.704729 
L 58.590921 120.58357 
L 60.266596 168.507289 
L 61.104434 185.175701 
L 61.942272 194.384684 
L 62.78011 195.142352 
L 63.617948 187.367098 
L 64.455785 171.896383 
L 65.293623 150.396534 
L 67.807137 74.586688 
L 68.644975 54.653054 
L 69.482813 41.318392 
L 70.32065 36.018959 
L 71.158488 39.325548 
L 71.996326 50.882012 
L 72.834164 69.443621 
L 74.50984 119.046122 
L 76.185515 167.33805 
L 77.023353 184.393535 
L 77.861191 194.073837 
L 78.699029 195.336305 
L 79.536867 188.044961 
L 80.374704 172.985144 
L 81.212542 151.778925 
L 83.726056 75.911955 
L 84.563894 55.653471 
L 85.401731 41.886206 
L 86.239569 36.093011 
L 87.077407 38.897862 
L 87.915245 49.998654 
L 88.753083 68.199736 
L 90.428758 117.507516 
L 92.104434 166.149756 
L 92.942272 183.585994 
L 93.78011 193.734028 
L 94.617948 195.500828 
L 95.455785 188.696096 
L 96.293623 174.052757 
L 97.131461 153.148026 
L 100.482813 56.676222 
L 101.32065 42.481455 
L 102.158488 36.196646 
L 102.996326 38.49872 
L 103.834164 49.139725 
L 104.672002 66.973535 
L 106.347677 115.968321 
L 108.023353 164.942848 
L 108.861191 182.753377 
L 109.699029 193.365383 
L 110.536867 195.63586 
L 111.374704 189.320261 
L 112.212542 175.098828 
L 113.05038 154.503331 
L 116.401731 57.720927 
L 117.239569 43.103919 
L 118.077407 36.329824 
L 118.915245 38.128268 
L 119.753083 48.305545 
L 120.590921 65.765473 
L 122.266596 114.429108 
L 123.942272 163.717773 
L 124.78011 181.895993 
L 125.617948 192.968037 
L 126.455785 195.741351 
L 127.293623 189.917225 
L 128.131461 176.122968 
L 128.969299 155.844339 
L 132.32065 58.7872 
L 133.158488 43.753368 
L 133.996326 36.492497 
L 134.834164 37.786645 
L 135.672002 47.49642 
L 136.50984 64.575998 
L 137.347677 87.185762 
L 139.861191 162.474985 
L 140.699029 181.01416 
L 141.536867 192.542139 
L 142.374704 195.817261 
L 143.212542 190.486768 
L 144.05038 177.124798 
L 144.888218 157.17055 
L 148.239569 59.874644 
L 149.077407 44.42956 
L 149.915245 36.684605 
L 150.753083 37.473976 
L 151.590921 46.712653 
L 152.428758 63.40555 
L 153.266596 85.7547 
L 155.78011 161.214945 
L 156.617948 180.108204 
L 157.455785 192.087846 
L 158.293623 195.863563 
L 159.131461 191.028677 
L 159.969299 178.103947 
L 160.807137 158.481476 
L 164.158488 60.982859 
L 164.996326 45.132245 
L 165.834164 36.906075 
L 166.672002 37.190378 
L 167.50984 45.954532 
L 168.347677 62.254562 
L 169.185515 84.334817 
L 171.699029 159.938119 
L 172.536867 179.178461 
L 173.374704 191.605327 
L 174.212542 195.880239 
L 175.05038 191.542753 
L 175.888218 179.060051 
L 176.726056 159.776628 
L 178.401731 109.624361 
L 179.239569 84.157342 
L 180.077407 62.111432 
L 180.915245 45.861163 
L 181.753083 37.156827 
L 182.590921 36.935956 
L 183.428758 45.222339 
L 184.266596 61.123462 
L 185.104434 82.926639 
L 187.617948 158.644981 
L 188.455785 178.225275 
L 189.293623 191.09476 
L 190.131461 195.867284 
L 190.969299 192.028804 
L 191.807137 179.992757 
L 192.644975 161.055529 
L 194.32065 111.159953 
L 195.996326 63.259945 
L 196.834164 46.616043 
L 197.672002 37.436767 
L 198.50984 36.710804 
L 199.347677 44.516345 
L 200.185515 60.012669 
L 201.023353 81.530687 
L 203.536867 157.33601 
L 204.374704 177.249 
L 205.212542 190.556335 
L 206.05038 195.824701 
L 206.888218 192.48665 
L 207.726056 180.901719 
L 208.563894 162.317703 
L 210.239569 112.697309 
L 211.915245 64.427974 
L 212.753083 47.396606 
L 213.590921 37.745792 
L 214.428758 36.515005 
L 215.266596 43.836813 
L 216.104434 58.922593 
L 216.942272 80.14748 
L 219.455785 156.01169 
L 220.293623 176.249998 
L 221.131461 189.990251 
L 221.969299 195.752507 
L 222.807137 192.916122 
L 223.644975 181.786599 
L 224.482813 163.562682 
L 226.158488 114.23586 
L 227.834164 65.615084 
L 228.672002 48.202563 
L 229.50984 38.083786 
L 230.347677 36.348632 
L 231.185515 43.183993 
L 232.023353 57.85364 
L 232.861191 78.777529 
L 236.212542 175.228639 
L 237.05038 189.396718 
L 237.888218 195.650729 
L 238.726056 193.317062 
L 239.563894 182.647071 
L 240.401731 164.790007 
L 242.077407 115.775035 
L 243.753083 66.820837 
L 244.590921 49.033614 
L 245.428758 38.450625 
L 246.266596 36.211747 
L 247.104434 42.558127 
L 247.942272 56.806206 
L 248.78011 77.421343 
L 252.131461 174.185301 
L 252.969299 188.775956 
L 253.807137 195.519404 
L 254.644975 193.689319 
L 255.482813 183.482815 
L 256.32065 165.99922 
L 257.996326 117.314263 
L 259.672002 68.044784 
L 260.50984 49.889452 
L 261.347677 38.846173 
L 262.185515 36.104401 
L 263.023353 41.959448 
L 263.861191 55.780677 
L 264.699029 76.079423 
L 268.05038 173.120371 
L 268.888218 188.128195 
L 269.726056 195.358581 
L 270.563894 194.032756 
L 271.401731 184.293521 
L 272.239569 167.189876 
L 273.077407 144.564028 
L 275.590921 69.286474 
L 276.428758 50.76976 
L 277.266596 39.270283 
L 278.104434 36.026632 
L 278.942272 41.388178 
L 279.78011 54.777436 
L 280.617948 74.752268 
L 283.969299 172.034243 
L 284.807137 187.453675 
L 285.644975 195.16832 
L 286.482813 194.347246 
L 287.32065 185.07889 
L 288.158488 168.361532 
L 288.996326 145.995774 
L 291.50984 70.545445 
L 292.347677 51.674212 
L 293.185515 39.722798 
L 294.023353 35.978471 
L 294.861191 40.844528 
L 295.699029 53.796852 
L 296.536867 73.440369 
L 299.888218 170.927321 
L 300.726056 186.752645 
L 301.563894 194.94869 
L 302.401731 194.632672 
L 303.239569 185.838629 
L 304.077407 169.513754 
L 304.915245 147.416375 
L 307.428758 71.82123 
L 308.266596 52.602472 
L 309.104434 40.20355 
L 309.942272 35.959934 
L 310.78011 40.328699 
L 311.617948 52.83929 
L 312.455785 72.144212 
L 314.131461 122.311976 
L 314.969299 147.771325 
L 315.807137 169.800014 
L 316.644975 186.025367 
L 317.482813 194.699774 
L 318.32065 194.888929 
L 319.158488 186.572458 
L 319.996326 170.646115 
L 320.834164 148.825303 
L 323.347677 73.113359 
L 324.185515 53.554196 
L 325.023353 40.712361 
L 325.861191 35.97103 
L 326.699029 39.840883 
L 327.536867 51.905105 
L 328.374704 70.864277 
L 330.05038 120.776514 
L 331.726056 168.65274 
L 332.563894 185.272108 
L 333.401731 194.421664 
L 334.239569 195.115922 
L 335.077407 187.280104 
L 335.915245 171.758195 
L 336.753083 150.222037 
L 339.266596 74.42135 
L 340.104434 54.529031 
L 340.942272 41.249043 
L 341.78011 36.011752 
L 342.617948 39.381261 
L 343.455785 50.994643 
L 344.293623 69.601039 
L 345.969299 119.239251 
L 347.644975 167.485924 
L 348.482813 184.493149 
L 349.32065 194.114462 
L 350.158488 195.313565 
L 350.996326 187.961306 
L 351.834164 172.849583 
L 352.672002 151.60606 
L 355.185515 75.74472 
L 356.023353 55.526617 
L 356.861191 41.813396 
L 357.699029 36.082088 
L 358.536867 38.950002 
L 359.374704 50.108241 
L 360.212542 68.354966 
L 361.888218 117.700759 
L 363.563894 166.299999 
L 364.401731 183.688778 
L 365.239569 193.778283 
L 366.077407 195.481788 
L 366.915245 188.61581 
L 367.753083 173.919874 
L 368.590921 152.976858 
L 371.942272 56.546584 
L 372.78011 42.405212 
L 373.617948 36.182009 
L 374.455785 38.547267 
L 375.293623 49.246227 
L 376.131461 67.12652 
L 377.807137 116.161607 
L 379.482813 165.095404 
L 380.32065 182.859293 
L 381.158488 193.413251 
L 381.996326 195.620526 
L 382.834164 189.243374 
L 383.672002 174.968671 
L 384.50984 154.333924 
L 387.845313 57.983639 
L 387.845313 57.983639 
" style="fill:none;stroke:#ff7f0e;stroke-linecap:square;stroke-width:1.5;"/>
   </g>
   <g id="line2d_19">
    <path clip-path="url(#p5aef8dddff)" d="M 38.482813 214.756364 
L 39.32065 209.67412 
L 40.158488 194.950055 
L 40.996326 172.098414 
L 42.672002 112.006966 
L 44.347677 53.483822 
L 45.185515 32.441621 
L 46.023353 19.984469 
L 46.861191 17.393477 
L 47.699029 24.935108 
L 48.536867 41.833769 
L 49.374704 66.351574 
L 52.726056 184.222476 
L 53.563894 203.323307 
L 54.401731 213.435444 
L 55.239569 213.518938 
L 56.077407 203.565204 
L 56.915245 184.597899 
L 57.753083 158.567651 
L 60.266596 66.802759 
L 61.104434 42.179465 
L 61.942272 25.139763 
L 62.78011 17.436043 
L 63.617948 19.860569 
L 64.455785 32.163998 
L 65.293623 53.081027 
L 66.131461 80.460514 
L 68.644975 171.669211 
L 69.482813 194.636253 
L 70.32065 209.507991 
L 71.158488 214.754992 
L 71.996326 209.837647 
L 72.834164 195.261663 
L 73.672002 172.526057 
L 75.347677 112.52733 
L 77.023353 53.888351 
L 77.861191 32.721562 
L 78.699029 20.111031 
L 79.536867 17.353645 
L 80.374704 24.732979 
L 81.212542 41.490129 
L 82.05038 65.901765 
L 85.401731 183.845158 
L 86.239569 203.078984 
L 87.077407 213.349242 
L 87.915245 213.599724 
L 88.753083 203.804669 
L 89.590921 184.971416 
L 90.428758 159.036806 
L 92.942272 67.255308 
L 93.78011 42.527208 
L 94.617948 25.346937 
L 95.455785 17.481344 
L 96.293623 19.739337 
L 97.131461 31.8887 
L 97.969299 52.679975 
L 98.807137 79.974954 
L 101.32065 171.238462 
L 102.158488 194.320266 
L 102.996326 209.339264 
L 103.834164 214.750877 
L 104.672002 209.998567 
L 105.50984 195.571069 
L 106.347677 172.952129 
L 108.023353 113.047789 
L 109.699029 54.294601 
L 110.536867 33.003811 
L 111.374704 20.240252 
L 112.212542 17.316549 
L 113.05038 24.53338 
L 113.888218 41.148556 
L 114.726056 65.453344 
L 118.077407 183.465954 
L 118.915245 202.832241 
L 119.753083 213.260336 
L 120.590921 213.677798 
L 121.428758 204.041694 
L 122.266596 185.343015 
L 123.104434 159.504765 
L 125.617948 67.709207 
L 126.455785 42.876988 
L 127.293623 25.556626 
L 128.131461 17.529376 
L 128.969299 19.620773 
L 129.807137 31.615735 
L 130.644975 52.280679 
L 131.482813 79.490392 
L 133.996326 170.806176 
L 134.834164 194.002103 
L 135.672002 209.167944 
L 136.50984 214.744018 
L 137.347677 210.156875 
L 138.185515 195.878264 
L 139.023353 173.376618 
L 140.699029 113.568327 
L 142.374704 54.702563 
L 143.212542 33.288362 
L 144.05038 20.372129 
L 144.888218 17.28219 
L 145.726056 24.336319 
L 146.563894 40.809057 
L 147.401731 65.006324 
L 150.753083 183.084875 
L 151.590921 202.583086 
L 152.428758 213.168729 
L 153.266596 213.753159 
L 154.104434 204.276273 
L 154.942272 185.712688 
L 155.78011 159.971513 
L 158.293623 68.164445 
L 159.131461 43.228795 
L 159.969299 25.768823 
L 160.807137 17.58014 
L 161.644975 19.504883 
L 162.482813 31.345109 
L 163.32065 51.883149 
L 164.158488 79.006841 
L 166.672002 170.372367 
L 167.50984 193.681773 
L 168.347677 208.994035 
L 169.185515 214.734417 
L 170.023353 210.312568 
L 170.861191 196.183239 
L 171.699029 173.799512 
L 173.374704 114.08893 
L 175.05038 55.112223 
L 175.888218 33.575207 
L 176.726056 20.506659 
L 177.563894 17.250569 
L 178.401731 24.141799 
L 179.239569 40.471644 
L 180.077407 64.560717 
L 183.428758 182.701932 
L 184.266596 202.331525 
L 185.104434 213.074422 
L 185.942272 213.825804 
L 186.78011 204.508399 
L 187.617948 186.080424 
L 188.455785 160.437039 
L 190.969299 68.621008 
L 191.807137 43.58262 
L 192.644975 25.983522 
L 193.482813 17.633633 
L 194.32065 19.391669 
L 195.158488 31.076831 
L 195.996326 51.487397 
L 196.834164 78.524314 
L 199.347677 169.937047 
L 200.185515 193.359284 
L 201.023353 208.817543 
L 201.861191 214.722073 
L 202.699029 210.465641 
L 203.536867 196.485987 
L 204.374704 174.220799 
L 206.05038 114.609585 
L 207.726056 55.523571 
L 208.563894 33.864337 
L 209.401731 20.643837 
L 210.239569 17.221687 
L 211.077407 23.949827 
L 211.915245 40.136325 
L 212.753083 64.116535 
L 216.104434 182.317135 
L 216.942272 202.077566 
L 217.78011 212.977418 
L 218.617948 213.895732 
L 219.455785 204.738067 
L 220.293623 186.446212 
L 221.131461 160.90133 
L 224.482813 43.938453 
L 225.32065 26.200718 
L 226.158488 17.689855 
L 226.996326 19.281135 
L 227.834164 30.810908 
L 228.672002 51.093434 
L 229.50984 78.042826 
L 232.023353 169.500227 
L 232.861191 193.034646 
L 233.699029 208.638473 
L 234.536867 214.706986 
L 235.374704 210.61609 
L 236.212542 196.786498 
L 237.05038 174.640468 
L 238.726056 115.130275 
L 240.401731 55.936596 
L 241.239569 34.155745 
L 242.077407 20.783659 
L 242.915245 17.195544 
L 243.753083 23.760408 
L 244.590921 39.80311 
L 245.428758 63.673792 
L 248.78011 181.930495 
L 249.617948 201.821216 
L 250.455785 212.87772 
L 251.293623 213.96294 
L 252.131461 204.965269 
L 252.969299 186.810042 
L 253.807137 161.364372 
L 257.158488 44.296284 
L 257.996326 26.420404 
L 258.834164 17.748803 
L 259.672002 19.173282 
L 260.50984 30.547347 
L 261.347677 50.701269 
L 262.185515 77.562389 
L 264.699029 169.06192 
L 265.536867 192.707867 
L 266.374704 208.456829 
L 267.212542 214.689157 
L 268.05038 210.76391 
L 268.888218 197.084765 
L 269.726056 175.058508 
L 271.401731 115.650988 
L 273.077407 56.351285 
L 273.915245 34.449422 
L 274.753083 20.926122 
L 275.590921 17.172142 
L 276.428758 23.573547 
L 277.266596 39.472007 
L 278.104434 63.232499 
L 279.78011 124.008069 
L 281.455785 181.542023 
L 282.293623 201.562481 
L 283.131461 212.775331 
L 283.969299 214.027427 
L 284.807137 205.189999 
L 285.644975 187.171905 
L 286.482813 161.826152 
L 289.834164 44.656103 
L 290.672002 26.642574 
L 291.50984 17.810476 
L 292.347677 19.068116 
L 293.185515 30.286156 
L 294.023353 50.310915 
L 294.861191 77.083017 
L 297.374704 168.622138 
L 298.212542 192.378957 
L 299.05038 208.272617 
L 299.888218 214.668587 
L 300.726056 210.909097 
L 301.563894 197.380779 
L 302.401731 175.474905 
L 304.077407 116.171708 
L 305.753083 56.767628 
L 306.590921 34.745361 
L 307.428758 21.071222 
L 308.266596 17.151481 
L 309.104434 23.389249 
L 309.942272 39.143026 
L 310.78011 62.792668 
L 312.455785 123.488985 
L 314.131461 181.151729 
L 314.969299 201.301369 
L 315.807137 212.670254 
L 316.644975 214.08919 
L 317.482813 205.412252 
L 318.32065 187.53179 
L 319.158488 162.286658 
L 322.50984 45.017901 
L 323.347677 26.867222 
L 324.185515 17.874872 
L 325.023353 18.965637 
L 325.861191 30.027342 
L 326.699029 49.922383 
L 327.536867 76.604722 
L 330.05038 168.180893 
L 330.888218 192.047925 
L 331.726056 208.085841 
L 332.563894 214.645276 
L 333.401731 211.051648 
L 334.239569 197.674532 
L 335.077407 175.88965 
L 336.753083 116.692421 
L 338.428758 57.185613 
L 339.266596 35.043553 
L 340.104434 21.218955 
L 340.942272 17.133561 
L 341.78011 23.20752 
L 342.617948 38.816176 
L 343.455785 62.354312 
L 345.131461 122.969691 
L 346.807137 180.759625 
L 347.644975 201.037887 
L 348.482813 212.562491 
L 349.32065 214.148229 
L 350.158488 205.632021 
L 350.996326 187.889687 
L 351.834164 162.745877 
L 355.185515 45.381666 
L 356.023353 27.094343 
L 356.861191 17.94199 
L 357.699029 18.86585 
L 358.536867 29.770912 
L 359.374704 49.535682 
L 360.212542 76.127519 
L 362.726056 167.738198 
L 363.563894 191.714779 
L 364.401731 207.896506 
L 365.239569 214.619224 
L 366.077407 211.191558 
L 366.915245 197.966015 
L 367.753083 176.30273 
L 369.428758 117.213113 
L 371.104434 57.605228 
L 371.942272 35.34399 
L 372.78011 21.369316 
L 373.617948 17.118383 
L 374.455785 23.028364 
L 375.293623 38.491467 
L 376.131461 61.917442 
L 377.807137 122.450201 
L 379.482813 180.365721 
L 380.32065 200.772042 
L 381.158488 212.452045 
L 381.996326 214.204541 
L 382.834164 205.849299 
L 383.672002 188.245587 
L 384.50984 163.203797 
L 387.845313 46.233311 
L 387.845313 46.233311 
" style="fill:none;stroke:#2ca02c;stroke-linecap:square;stroke-width:1.5;"/>
   </g>
   <g id="line2d_20">
    <path clip-path="url(#p5aef8dddff)" d="M 38.482813 35.959701 
L 39.32065 39.853583 
L 40.158488 51.155982 
L 40.996326 68.766097 
L 42.672002 115.601604 
L 44.347677 162.558132 
L 45.185515 180.308491 
L 46.023353 191.787709 
L 46.861191 195.877762 
L 47.699029 192.180299 
L 48.536867 181.055435 
L 49.374704 163.586681 
L 51.05038 116.875165 
L 52.726056 69.800594 
L 53.563894 51.911117 
L 54.401731 40.255809 
L 55.239569 35.969843 
L 56.077407 39.470653 
L 56.915245 50.417276 
L 57.753083 67.743561 
L 59.428758 114.328124 
L 61.104434 161.517751 
L 61.942272 179.545212 
L 62.78011 191.375872 
L 63.617948 195.857478 
L 64.455785 192.553543 
L 65.293623 181.785856 
L 66.131461 164.603138 
L 67.807137 118.148484 
L 69.482813 70.846792 
L 70.32065 52.682491 
L 71.158488 40.67723 
L 71.996326 36.000268 
L 72.834164 39.107118 
L 73.672002 49.695187 
L 74.50984 66.733247 
L 76.185515 113.055047 
L 77.861191 160.465803 
L 78.699029 178.765792 
L 79.536867 190.944892 
L 80.374704 195.816915 
L 81.212542 192.907346 
L 82.05038 182.499567 
L 82.888218 165.607245 
L 84.563894 119.421237 
L 86.239569 71.904424 
L 87.077407 53.469907 
L 87.915245 41.11774 
L 88.753083 36.050967 
L 89.590921 38.763069 
L 90.428758 48.989899 
L 91.266596 65.735411 
L 92.942272 111.782697 
L 94.617948 159.402554 
L 95.455785 177.97043 
L 96.293623 190.49488 
L 97.131461 195.756082 
L 97.969299 193.241619 
L 98.807137 183.196387 
L 99.644975 166.598746 
L 101.32065 120.693102 
L 102.996326 72.973223 
L 103.834164 54.273166 
L 104.672002 41.577226 
L 105.50984 36.121928 
L 106.347677 38.438594 
L 107.185515 48.30159 
L 108.023353 64.750307 
L 108.861191 86.182715 
L 111.374704 158.328274 
L 112.212542 177.159325 
L 113.05038 190.02595 
L 113.888218 195.674997 
L 114.726056 193.556276 
L 115.563894 183.876141 
L 116.401731 167.577392 
L 117.239569 146.247451 
L 119.753083 74.052916 
L 120.590921 55.092064 
L 121.428758 42.055572 
L 122.266596 36.213133 
L 123.104434 38.133775 
L 123.942272 47.630435 
L 124.78011 63.778183 
L 125.617948 85.004303 
L 128.131461 157.243236 
L 128.969299 176.332686 
L 129.807137 189.538219 
L 130.644975 195.573679 
L 131.482813 193.851238 
L 132.32065 184.538655 
L 133.158488 168.542932 
L 133.996326 147.421979 
L 136.50984 75.143231 
L 137.347677 55.926393 
L 138.185515 42.552656 
L 139.023353 36.324558 
L 139.861191 37.848689 
L 140.699029 46.976604 
L 141.536867 62.819287 
L 142.374704 83.833735 
L 144.888218 156.147714 
L 145.726056 175.49072 
L 146.563894 189.031813 
L 147.401731 195.452154 
L 148.239569 194.12643 
L 149.077407 185.183761 
L 149.915245 169.495123 
L 150.753083 148.588514 
L 153.266596 76.24389 
L 154.104434 56.775942 
L 154.942272 43.068352 
L 155.78011 36.456176 
L 156.617948 37.583409 
L 157.455785 46.340263 
L 158.293623 61.873862 
L 159.131461 82.671306 
L 161.644975 155.041987 
L 162.482813 174.633642 
L 163.32065 188.506859 
L 164.158488 195.310452 
L 164.996326 194.381782 
L 165.834164 185.811296 
L 166.672002 170.433722 
L 167.50984 149.746763 
L 170.023353 77.354614 
L 170.861191 57.640495 
L 171.699029 43.60253 
L 172.536867 36.607952 
L 173.374704 37.338001 
L 174.212542 45.721574 
L 175.05038 60.942148 
L 175.888218 81.517311 
L 178.401731 153.926336 
L 179.239569 173.761669 
L 180.077407 187.963491 
L 180.915245 195.14861 
L 181.753083 194.617229 
L 182.590921 186.421101 
L 183.428758 171.358492 
L 184.266596 150.89643 
L 187.617948 58.519832 
L 188.455785 44.155054 
L 189.293623 36.779849 
L 190.131461 37.112529 
L 190.969299 45.120693 
L 191.807137 60.024381 
L 192.644975 80.372045 
L 195.996326 172.875023 
L 196.834164 187.401847 
L 197.672002 194.966669 
L 198.50984 194.832711 
L 199.347677 187.01302 
L 200.185515 172.269198 
L 201.023353 152.037223 
L 204.374704 59.413732 
L 205.212542 44.725783 
L 206.05038 36.971823 
L 206.888218 36.90705 
L 207.726056 44.537773 
L 208.563894 59.120794 
L 209.401731 79.235796 
L 212.753083 171.973927 
L 213.590921 186.822068 
L 214.428758 194.764675 
L 215.266596 195.028175 
L 216.104434 187.586904 
L 216.942272 173.165608 
L 217.78011 153.168855 
L 221.131461 60.321966 
L 221.969299 45.314574 
L 222.807137 37.183825 
L 223.644975 36.721615 
L 224.482813 43.972961 
L 225.32065 58.231616 
L 226.158488 78.108854 
L 229.50984 171.058612 
L 230.347677 186.224303 
L 231.185515 194.542679 
L 232.023353 195.20357 
L 232.861191 188.142607 
L 233.699029 174.047497 
L 234.536867 154.291037 
L 237.888218 61.244304 
L 238.726056 45.921277 
L 239.563894 37.415801 
L 240.401731 36.556271 
L 241.239569 43.426402 
L 242.077407 57.357073 
L 242.915245 76.991503 
L 246.266596 170.129309 
L 247.104434 185.608702 
L 247.942272 194.300737 
L 248.78011 195.358852 
L 249.617948 188.679989 
L 250.455785 174.914639 
L 251.293623 155.403484 
L 254.644975 62.180513 
L 255.482813 46.545737 
L 256.32065 37.667692 
L 257.158488 36.411061 
L 257.996326 42.898233 
L 258.834164 56.497387 
L 259.672002 75.884029 
L 263.023353 169.186253 
L 263.861191 184.975422 
L 264.699029 194.038912 
L 265.536867 195.493981 
L 266.374704 189.198912 
L 267.212542 175.766815 
L 268.05038 156.505916 
L 271.401731 63.130355 
L 272.239569 47.187796 
L 273.077407 37.939435 
L 273.915245 36.286021 
L 274.753083 42.388589 
L 275.590921 55.652775 
L 276.428758 74.786711 
L 279.78011 168.229685 
L 280.617948 184.324624 
L 281.455785 193.757268 
L 282.293623 195.608923 
L 283.131461 189.699245 
L 283.969299 176.603809 
L 284.807137 157.598051 
L 288.158488 64.09359 
L 288.996326 47.847292 
L 289.834164 38.230961 
L 290.672002 36.181184 
L 291.50984 41.897598 
L 292.347677 54.823453 
L 293.185515 73.699828 
L 294.861191 121.549761 
L 296.536867 167.259846 
L 297.374704 183.656472 
L 298.212542 193.455879 
L 299.05038 195.703649 
L 299.888218 190.180861 
L 300.726056 177.425408 
L 301.563894 158.679613 
L 303.239569 110.925621 
L 304.915245 65.069971 
L 305.753083 48.524057 
L 306.590921 38.542196 
L 307.428758 36.096575 
L 308.266596 41.425387 
L 309.104434 54.009629 
L 309.942272 72.623656 
L 311.617948 120.278677 
L 313.293623 166.276983 
L 314.131461 182.971137 
L 314.969299 193.134819 
L 315.807137 195.778135 
L 316.644975 190.643638 
L 317.482813 178.231404 
L 318.32065 159.750327 
L 319.996326 112.197299 
L 321.672002 66.059253 
L 322.50984 49.217919 
L 323.347677 38.87306 
L 324.185515 36.032216 
L 325.023353 40.972073 
L 325.861191 53.211512 
L 326.699029 71.558467 
L 328.374704 119.006486 
L 330.05038 165.281345 
L 330.888218 182.268791 
L 331.726056 192.794171 
L 332.563894 195.832363 
L 333.401731 191.087459 
L 334.239569 179.021592 
L 335.077407 160.809922 
L 336.753083 113.469921 
L 338.428758 67.061184 
L 339.266596 49.928703 
L 340.104434 39.22347 
L 340.942272 35.988124 
L 341.78011 40.537773 
L 342.617948 52.429303 
L 343.455785 70.504532 
L 345.131461 117.733513 
L 346.807137 164.273185 
L 347.644975 181.549614 
L 348.482813 192.434022 
L 349.32065 195.866317 
L 350.158488 191.512211 
L 350.996326 179.795773 
L 351.834164 161.858129 
L 353.50984 114.743165 
L 355.185515 68.075509 
L 356.023353 50.656228 
L 356.861191 39.593337 
L 357.699029 35.964309 
L 358.536867 40.122596 
L 359.374704 51.6632 
L 360.212542 69.462119 
L 361.888218 116.46008 
L 363.563894 163.252759 
L 364.401731 180.813787 
L 365.239569 192.054461 
L 366.077407 195.87999 
L 366.915245 191.917786 
L 367.753083 180.553749 
L 368.590921 162.894683 
L 370.266596 116.016707 
L 371.942272 69.101972 
L 372.78011 51.40031 
L 373.617948 39.982567 
L 374.455785 35.960778 
L 375.293623 39.726648 
L 376.131461 50.913399 
L 376.969299 68.431491 
L 378.644975 115.18651 
L 380.32065 162.220324 
L 381.158488 180.061498 
L 381.996326 191.655586 
L 382.834164 195.873379 
L 383.672002 192.304082 
L 384.50984 181.295328 
L 385.347677 163.919319 
L 387.023353 117.290224 
L 387.845313 93.046921 
L 387.845313 93.046921 
" style="fill:none;stroke:#d62728;stroke-linecap:square;stroke-width:1.5;"/>
   </g>
   <g id="line2d_21">
    <path clip-path="url(#p5aef8dddff)" d="M 38.482813 146.462116 
L 39.32065 144.95179 
L 40.158488 140.570186 
L 40.996326 133.75065 
L 42.672002 115.67003 
L 44.347677 97.685854 
L 45.185515 90.977946 
L 46.023353 86.736836 
L 46.861191 85.381975 
L 47.699029 87.04736 
L 48.536867 91.568284 
L 49.374704 98.497621 
L 51.05038 116.66984 
L 52.726056 134.552753 
L 53.563894 141.147237 
L 54.401731 145.246717 
L 55.239569 146.44575 
L 56.077407 144.62575 
L 56.915245 139.966718 
L 57.753083 132.929437 
L 59.428758 114.670487 
L 61.104434 96.893628 
L 61.942272 90.414337 
L 62.78011 86.457586 
L 63.617948 85.414702 
L 64.455785 87.388828 
L 65.293623 92.18472 
L 66.131461 99.328059 
L 67.807137 117.668847 
L 69.482813 135.334889 
L 70.32065 141.697252 
L 71.158488 145.510215 
L 71.996326 146.39667 
L 72.834164 144.268947 
L 73.672002 139.33748 
L 74.50984 132.089996 
L 76.185515 113.672284 
L 77.861191 96.121793 
L 78.699029 89.878063 
L 79.536867 86.20991 
L 80.374704 85.480121 
L 81.212542 87.760871 
L 82.05038 92.826592 
L 82.888218 100.176278 
L 86.239569 136.096218 
L 87.077407 142.219642 
L 87.915245 145.742001 
L 88.753083 146.314929 
L 89.590921 143.881763 
L 90.428758 138.683145 
L 91.266596 131.233226 
L 94.617948 95.371175 
L 95.455785 89.369697 
L 96.293623 85.994075 
L 97.131461 85.578162 
L 97.969299 88.163092 
L 98.807137 93.493213 
L 99.644975 101.04137 
L 102.996326 136.835924 
L 103.834164 142.713847 
L 104.672002 145.941828 
L 105.50984 146.200615 
L 106.347677 143.464613 
L 107.185515 138.004416 
L 108.023353 130.360044 
L 111.374704 94.642579 
L 112.212542 88.889784 
L 113.05038 85.81031 
L 113.888218 85.708719 
L 114.726056 88.59506 
L 115.563894 94.183869 
L 116.401731 101.922407 
L 119.753083 137.553215 
L 120.590921 143.179338 
L 121.428758 146.109481 
L 122.266596 146.053849 
L 123.104434 143.017943 
L 123.942272 137.302019 
L 124.78011 129.471388 
L 128.131461 93.936785 
L 128.969299 88.43884 
L 129.807137 85.658814 
L 130.644975 85.871654 
L 131.482813 89.056311 
L 132.32065 94.897819 
L 133.158488 102.818445 
L 135.672002 130.67083 
L 136.50984 138.247322 
L 137.347677 143.615616 
L 138.185515 146.244781 
L 139.023353 145.874789 
L 139.861191 142.542233 
L 140.699029 136.576707 
L 141.536867 128.568209 
L 144.05038 100.733394 
L 144.888218 93.254551 
L 145.726056 88.017346 
L 146.563894 85.539747 
L 147.401731 86.066791 
L 148.239569 89.546352 
L 149.077407 95.634298 
L 149.915245 103.728523 
L 152.428758 131.53831 
L 153.266596 138.917501 
L 154.104434 144.022212 
L 154.942272 146.347582 
L 155.78011 145.663627 
L 156.617948 142.037993 
L 157.455785 135.829258 
L 158.293623 127.651475 
L 160.807137 99.874168 
L 161.644975 92.596606 
L 162.482813 87.625756 
L 163.32065 85.453239 
L 164.158488 86.293921 
L 164.996326 90.064657 
L 165.834164 96.392517 
L 166.672002 104.651667 
L 169.185515 132.389053 
L 170.023353 139.563034 
L 170.861191 144.398692 
L 171.699029 146.417774 
L 172.536867 145.42059 
L 173.374704 141.505762 
L 174.212542 135.060473 
L 175.888218 117.315516 
L 177.563894 99.032137 
L 178.401731 91.963657 
L 179.239569 87.264487 
L 180.077407 85.399382 
L 180.915245 86.552801 
L 181.753083 90.610671 
L 182.590921 97.171663 
L 184.266596 115.024069 
L 185.942272 133.222146 
L 186.78011 140.18323 
L 187.617948 144.744652 
L 188.455785 146.455282 
L 189.293623 145.145937 
L 190.131461 140.946112 
L 190.969299 134.271175 
L 192.644975 116.316103 
L 194.32065 98.208205 
L 195.158488 91.356381 
L 195.996326 86.933929 
L 196.834164 85.378233 
L 197.672002 86.843153 
L 198.50984 91.183808 
L 199.347677 97.970901 
L 201.023353 116.023828 
L 202.699029 134.036696 
L 203.536867 140.777423 
L 204.374704 145.059721 
L 205.212542 146.460066 
L 206.05038 144.839963 
L 206.888218 140.359642 
L 207.726056 133.462211 
L 209.401731 115.316265 
L 211.077407 97.403254 
L 211.915245 90.77543 
L 212.753083 86.634434 
L 213.590921 85.389815 
L 214.428758 87.164666 
L 215.266596 91.783454 
L 216.104434 98.789375 
L 217.78011 117.023477 
L 219.455785 134.831832 
L 220.293623 141.344976 
L 221.131461 145.343561 
L 221.969299 146.432121 
L 222.807137 144.502996 
L 223.644975 139.74698 
L 224.482813 132.634446 
L 226.158488 114.317074 
L 227.834164 96.618147 
L 228.672002 90.221426 
L 229.50984 86.366324 
L 230.347677 85.434115 
L 231.185515 87.516996 
L 232.023353 92.408968 
L 232.861191 99.626208 
L 234.536867 118.021943 
L 236.212542 135.606699 
L 237.05038 141.885283 
L 237.888218 145.595869 
L 238.726056 146.371477 
L 239.563894 144.135398 
L 240.401731 139.108783 
L 241.239569 131.78877 
L 244.590921 95.853726 
L 245.428758 89.694963 
L 246.266596 86.129886 
L 247.104434 85.511087 
L 247.942272 87.899765 
L 248.78011 93.059677 
L 249.617948 100.480502 
L 252.969299 136.360469 
L 253.807137 142.397762 
L 254.644975 145.816374 
L 255.482813 146.278198 
L 256.32065 143.737561 
L 257.158488 138.445735 
L 257.996326 130.926087 
L 261.347677 95.110809 
L 262.185515 89.196604 
L 263.023353 85.925374 
L 263.861191 85.620648 
L 264.699029 88.312563 
L 265.536867 93.734886 
L 266.374704 101.351343 
L 269.726056 137.092333 
L 270.563894 142.881866 
L 271.401731 146.004839 
L 272.239569 146.152385 
L 273.077407 143.309913 
L 273.915245 137.758546 
L 274.753083 130.047322 
L 278.104434 94.390194 
L 278.942272 88.726885 
L 279.78011 85.753006 
L 280.617948 85.762679 
L 281.455785 88.754947 
L 282.293623 94.43387 
L 283.131461 102.237796 
L 286.482813 137.801508 
L 287.32065 143.337076 
L 288.158488 146.161062 
L 288.996326 145.994173 
L 289.834164 142.852912 
L 290.672002 137.047954 
L 291.50984 129.153417 
L 294.023353 101.297306 
L 294.861191 93.692651 
L 295.699029 88.286307 
L 296.536867 85.612968 
L 297.374704 85.93703 
L 298.212542 89.226443 
L 299.05038 95.15588 
L 299.888218 103.138913 
L 302.401731 130.979635 
L 303.239569 138.487232 
L 304.077407 143.762903 
L 304.915245 146.284877 
L 305.753083 145.80373 
L 306.590921 142.367047 
L 307.428758 136.314719 
L 308.266596 128.24533 
L 310.78011 100.427456 
L 311.617948 93.018929 
L 312.455785 87.875345 
L 313.293623 85.50541 
L 314.131461 86.143513 
L 314.969299 89.726547 
L 315.807137 95.900143 
L 316.644975 104.053727 
L 319.158488 131.841299 
L 319.996326 139.148771 
L 320.834164 144.158891 
L 321.672002 146.376151 
L 322.50984 145.581262 
L 323.347677 141.852839 
L 324.185515 135.559628 
L 325.023353 127.324034 
L 327.536867 99.57421 
L 328.374704 92.36975 
L 329.212542 87.494437 
L 330.05038 85.430446 
L 330.888218 86.381907 
L 331.726056 90.254721 
L 332.563894 96.665861 
L 334.239569 114.378508 
L 335.915245 132.685899 
L 336.753083 139.785416 
L 337.590921 144.524616 
L 338.428758 146.434785 
L 339.266596 145.327006 
L 340.104434 141.310839 
L 340.942272 134.783489 
L 342.617948 116.961999 
L 344.293623 98.738481 
L 345.131461 91.745809 
L 345.969299 87.143993 
L 346.807137 85.388157 
L 347.644975 86.651957 
L 348.482813 90.8104 
L 349.32065 97.452213 
L 350.996326 115.37777 
L 352.672002 133.512532 
L 353.50984 140.396486 
L 354.347677 144.859686 
L 355.185515 146.460717 
L 356.023353 145.041235 
L 356.861191 140.741629 
L 357.699029 133.987134 
L 359.374704 115.962312 
L 361.05038 97.921165 
L 361.888218 91.147775 
L 362.726056 86.824387 
L 363.563894 85.378589 
L 364.401731 86.953372 
L 365.239569 91.392989 
L 366.077407 98.258356 
L 367.753083 116.377613 
L 369.428758 134.320312 
L 370.266596 140.981324 
L 371.104434 145.163742 
L 371.942272 146.453919 
L 372.78011 144.724256 
L 373.617948 140.145818 
L 374.455785 133.171417 
L 376.131461 114.962581 
L 377.807137 97.123139 
L 378.644975 90.576289 
L 379.482813 86.535962 
L 380.32065 85.401751 
L 381.158488 87.285831 
L 381.996326 92.001864 
L 382.834164 99.083428 
L 384.50984 117.376966 
L 386.185515 135.108372 
L 387.023353 141.539304 
L 387.845313 145.3626 
L 387.845313 145.3626 
" style="fill:none;stroke:#9467bd;stroke-linecap:square;stroke-width:1.5;"/>
   </g>
   <g id="patch_3">
    <path d="M 38.482813 224.64 
L 38.482813 7.2 
" style="fill:none;stroke:#000000;stroke-linecap:square;stroke-linejoin:miter;stroke-width:0.8;"/>
   </g>
   <g id="patch_4">
    <path d="M 373.282813 224.64 
L 373.282813 7.2 
" style="fill:none;stroke:#000000;stroke-linecap:square;stroke-linejoin:miter;stroke-width:0.8;"/>
   </g>
   <g id="patch_5">
    <path d="M 38.482813 224.64 
L 373.282813 224.64 
" style="fill:none;stroke:#000000;stroke-linecap:square;stroke-linejoin:miter;stroke-width:0.8;"/>
   </g>
   <g id="patch_6">
    <path d="M 38.482813 7.2 
L 373.282813 7.2 
" style="fill:none;stroke:#000000;stroke-linecap:square;stroke-linejoin:miter;stroke-width:0.8;"/>
   </g>
  </g>
 </g>
 <defs>
  <clipPath id="p5aef8dddff">
   <rect height="217.44" width="334.8" x="38.482813" y="7.2"/>
  </clipPath>
 </defs>
</svg>
