<?xml version="1.0" encoding="utf-8" standalone="no"?>
<!DOCTYPE svg PUBLIC "-//W3C//DTD SVG 1.1//EN"
  "http://www.w3.org/Graphics/SVG/1.1/DTD/svg11.dtd">
<!-- Created with matplotlib (https://matplotlib.org/) -->
<svg height="248.518125pt" version="1.1" viewBox="0 0 386.845313 248.518125" width="386.845313pt" xmlns="http://www.w3.org/2000/svg" xmlns:xlink="http://www.w3.org/1999/xlink">
 <metadata>
  <rdf:RDF xmlns:cc="http://creativecommons.org/ns#" xmlns:dc="http://purl.org/dc/elements/1.1/" xmlns:rdf="http://www.w3.org/1999/02/22-rdf-syntax-ns#">
   <cc:Work>
    <dc:type rdf:resource="http://purl.org/dc/dcmitype/StillImage"/>
    <dc:date>2021-10-24T17:08:43.885823</dc:date>
    <dc:format>image/svg+xml</dc:format>
    <dc:creator>
     <cc:Agent>
      <dc:title>Matplotlib v3.3.4, https://matplotlib.org/</dc:title>
     </cc:Agent>
    </dc:creator>
   </cc:Work>
  </rdf:RDF>
 </metadata>
 <defs>
  <style type="text/css">*{stroke-linecap:butt;stroke-linejoin:round;}</style>
 </defs>
 <g id="figure_1">
  <g id="patch_1">
   <path d="M -0 248.518125 
L 386.845313 248.518125 
L 386.845313 0 
L -0 0 
z
" style="fill:none;"/>
  </g>
  <g id="axes_1">
   <g id="patch_2">
    <path d="M 38.482813 224.64 
L 373.282813 224.64 
L 373.282813 7.2 
L 38.482813 7.2 
z
" style="fill:#ffffff;"/>
   </g>
   <g id="matplotlib.axis_1">
    <g id="xtick_1">
     <g id="line2d_1">
      <path clip-path="url(#p1b8e6568b1)" d="M 38.482813 224.64 
L 38.482813 7.2 
" style="fill:none;stroke:#b0b0b0;stroke-linecap:square;stroke-width:0.8;"/>
     </g>
     <g id="line2d_2">
      <defs>
       <path d="M 0 0 
L 0 3.5 
" id="mfda83712f1" style="stroke:#000000;stroke-width:0.8;"/>
      </defs>
      <g>
       <use style="stroke:#000000;stroke-width:0.8;" x="38.482813" xlink:href="#mfda83712f1" y="224.64"/>
      </g>
     </g>
     <g id="text_1">
      <!-- 0 -->
      <g transform="translate(35.301563 239.238437)scale(0.1 -0.1)">
       <defs>
        <path d="M 31.78125 66.40625 
Q 24.171875 66.40625 20.328125 58.90625 
Q 16.5 51.421875 16.5 36.375 
Q 16.5 21.390625 20.328125 13.890625 
Q 24.171875 6.390625 31.78125 6.390625 
Q 39.453125 6.390625 43.28125 13.890625 
Q 47.125 21.390625 47.125 36.375 
Q 47.125 51.421875 43.28125 58.90625 
Q 39.453125 66.40625 31.78125 66.40625 
z
M 31.78125 74.21875 
Q 44.046875 74.21875 50.515625 64.515625 
Q 56.984375 54.828125 56.984375 36.375 
Q 56.984375 17.96875 50.515625 8.265625 
Q 44.046875 -1.421875 31.78125 -1.421875 
Q 19.53125 -1.421875 13.0625 8.265625 
Q 6.59375 17.96875 6.59375 36.375 
Q 6.59375 54.828125 13.0625 64.515625 
Q 19.53125 74.21875 31.78125 74.21875 
z
" id="DejaVuSans-48"/>
       </defs>
       <use xlink:href="#DejaVuSans-48"/>
      </g>
     </g>
    </g>
    <g id="xtick_2">
     <g id="line2d_3">
      <path clip-path="url(#p1b8e6568b1)" d="M 105.442813 224.64 
L 105.442813 7.2 
" style="fill:none;stroke:#b0b0b0;stroke-linecap:square;stroke-width:0.8;"/>
     </g>
     <g id="line2d_4">
      <g>
       <use style="stroke:#000000;stroke-width:0.8;" x="105.442813" xlink:href="#mfda83712f1" y="224.64"/>
      </g>
     </g>
     <g id="text_2">
      <!-- 2 -->
      <g transform="translate(102.261562 239.238437)scale(0.1 -0.1)">
       <defs>
        <path d="M 19.1875 8.296875 
L 53.609375 8.296875 
L 53.609375 0 
L 7.328125 0 
L 7.328125 8.296875 
Q 12.9375 14.109375 22.625 23.890625 
Q 32.328125 33.6875 34.8125 36.53125 
Q 39.546875 41.84375 41.421875 45.53125 
Q 43.3125 49.21875 43.3125 52.78125 
Q 43.3125 58.59375 39.234375 62.25 
Q 35.15625 65.921875 28.609375 65.921875 
Q 23.96875 65.921875 18.8125 64.3125 
Q 13.671875 62.703125 7.8125 59.421875 
L 7.8125 69.390625 
Q 13.765625 71.78125 18.9375 73 
Q 24.125 74.21875 28.421875 74.21875 
Q 39.75 74.21875 46.484375 68.546875 
Q 53.21875 62.890625 53.21875 53.421875 
Q 53.21875 48.921875 51.53125 44.890625 
Q 49.859375 40.875 45.40625 35.40625 
Q 44.1875 33.984375 37.640625 27.21875 
Q 31.109375 20.453125 19.1875 8.296875 
z
" id="DejaVuSans-50"/>
       </defs>
       <use xlink:href="#DejaVuSans-50"/>
      </g>
     </g>
    </g>
    <g id="xtick_3">
     <g id="line2d_5">
      <path clip-path="url(#p1b8e6568b1)" d="M 172.402813 224.64 
L 172.402813 7.2 
" style="fill:none;stroke:#b0b0b0;stroke-linecap:square;stroke-width:0.8;"/>
     </g>
     <g id="line2d_6">
      <g>
       <use style="stroke:#000000;stroke-width:0.8;" x="172.402813" xlink:href="#mfda83712f1" y="224.64"/>
      </g>
     </g>
     <g id="text_3">
      <!-- 4 -->
      <g transform="translate(169.221563 239.238437)scale(0.1 -0.1)">
       <defs>
        <path d="M 37.796875 64.3125 
L 12.890625 25.390625 
L 37.796875 25.390625 
z
M 35.203125 72.90625 
L 47.609375 72.90625 
L 47.609375 25.390625 
L 58.015625 25.390625 
L 58.015625 17.1875 
L 47.609375 17.1875 
L 47.609375 0 
L 37.796875 0 
L 37.796875 17.1875 
L 4.890625 17.1875 
L 4.890625 26.703125 
z
" id="DejaVuSans-52"/>
       </defs>
       <use xlink:href="#DejaVuSans-52"/>
      </g>
     </g>
    </g>
    <g id="xtick_4">
     <g id="line2d_7">
      <path clip-path="url(#p1b8e6568b1)" d="M 239.362813 224.64 
L 239.362813 7.2 
" style="fill:none;stroke:#b0b0b0;stroke-linecap:square;stroke-width:0.8;"/>
     </g>
     <g id="line2d_8">
      <g>
       <use style="stroke:#000000;stroke-width:0.8;" x="239.362813" xlink:href="#mfda83712f1" y="224.64"/>
      </g>
     </g>
     <g id="text_4">
      <!-- 6 -->
      <g transform="translate(236.181563 239.238437)scale(0.1 -0.1)">
       <defs>
        <path d="M 33.015625 40.375 
Q 26.375 40.375 22.484375 35.828125 
Q 18.609375 31.296875 18.609375 23.390625 
Q 18.609375 15.53125 22.484375 10.953125 
Q 26.375 6.390625 33.015625 6.390625 
Q 39.65625 6.390625 43.53125 10.953125 
Q 47.40625 15.53125 47.40625 23.390625 
Q 47.40625 31.296875 43.53125 35.828125 
Q 39.65625 40.375 33.015625 40.375 
z
M 52.59375 71.296875 
L 52.59375 62.3125 
Q 48.875 64.0625 45.09375 64.984375 
Q 41.3125 65.921875 37.59375 65.921875 
Q 27.828125 65.921875 22.671875 59.328125 
Q 17.53125 52.734375 16.796875 39.40625 
Q 19.671875 43.65625 24.015625 45.921875 
Q 28.375 48.1875 33.59375 48.1875 
Q 44.578125 48.1875 50.953125 41.515625 
Q 57.328125 34.859375 57.328125 23.390625 
Q 57.328125 12.15625 50.6875 5.359375 
Q 44.046875 -1.421875 33.015625 -1.421875 
Q 20.359375 -1.421875 13.671875 8.265625 
Q 6.984375 17.96875 6.984375 36.375 
Q 6.984375 53.65625 15.1875 63.9375 
Q 23.390625 74.21875 37.203125 74.21875 
Q 40.921875 74.21875 44.703125 73.484375 
Q 48.484375 72.75 52.59375 71.296875 
z
" id="DejaVuSans-54"/>
       </defs>
       <use xlink:href="#DejaVuSans-54"/>
      </g>
     </g>
    </g>
    <g id="xtick_5">
     <g id="line2d_9">
      <path clip-path="url(#p1b8e6568b1)" d="M 306.322813 224.64 
L 306.322813 7.2 
" style="fill:none;stroke:#b0b0b0;stroke-linecap:square;stroke-width:0.8;"/>
     </g>
     <g id="line2d_10">
      <g>
       <use style="stroke:#000000;stroke-width:0.8;" x="306.322813" xlink:href="#mfda83712f1" y="224.64"/>
      </g>
     </g>
     <g id="text_5">
      <!-- 8 -->
      <g transform="translate(303.141563 239.238437)scale(0.1 -0.1)">
       <defs>
        <path d="M 31.78125 34.625 
Q 24.75 34.625 20.71875 30.859375 
Q 16.703125 27.09375 16.703125 20.515625 
Q 16.703125 13.921875 20.71875 10.15625 
Q 24.75 6.390625 31.78125 6.390625 
Q 38.8125 6.390625 42.859375 10.171875 
Q 46.921875 13.96875 46.921875 20.515625 
Q 46.921875 27.09375 42.890625 30.859375 
Q 38.875 34.625 31.78125 34.625 
z
M 21.921875 38.8125 
Q 15.578125 40.375 12.03125 44.71875 
Q 8.5 49.078125 8.5 55.328125 
Q 8.5 64.0625 14.71875 69.140625 
Q 20.953125 74.21875 31.78125 74.21875 
Q 42.671875 74.21875 48.875 69.140625 
Q 55.078125 64.0625 55.078125 55.328125 
Q 55.078125 49.078125 51.53125 44.71875 
Q 48 40.375 41.703125 38.8125 
Q 48.828125 37.15625 52.796875 32.3125 
Q 56.78125 27.484375 56.78125 20.515625 
Q 56.78125 9.90625 50.3125 4.234375 
Q 43.84375 -1.421875 31.78125 -1.421875 
Q 19.734375 -1.421875 13.25 4.234375 
Q 6.78125 9.90625 6.78125 20.515625 
Q 6.78125 27.484375 10.78125 32.3125 
Q 14.796875 37.15625 21.921875 38.8125 
z
M 18.3125 54.390625 
Q 18.3125 48.734375 21.84375 45.5625 
Q 25.390625 42.390625 31.78125 42.390625 
Q 38.140625 42.390625 41.71875 45.5625 
Q 45.3125 48.734375 45.3125 54.390625 
Q 45.3125 60.0625 41.71875 63.234375 
Q 38.140625 66.40625 31.78125 66.40625 
Q 25.390625 66.40625 21.84375 63.234375 
Q 18.3125 60.0625 18.3125 54.390625 
z
" id="DejaVuSans-56"/>
       </defs>
       <use xlink:href="#DejaVuSans-56"/>
      </g>
     </g>
    </g>
    <g id="xtick_6">
     <g id="line2d_11">
      <path clip-path="url(#p1b8e6568b1)" d="M 373.282813 224.64 
L 373.282813 7.2 
" style="fill:none;stroke:#b0b0b0;stroke-linecap:square;stroke-width:0.8;"/>
     </g>
     <g id="line2d_12">
      <g>
       <use style="stroke:#000000;stroke-width:0.8;" x="373.282813" xlink:href="#mfda83712f1" y="224.64"/>
      </g>
     </g>
     <g id="text_6">
      <!-- 10 -->
      <g transform="translate(366.920313 239.238437)scale(0.1 -0.1)">
       <defs>
        <path d="M 12.40625 8.296875 
L 28.515625 8.296875 
L 28.515625 63.921875 
L 10.984375 60.40625 
L 10.984375 69.390625 
L 28.421875 72.90625 
L 38.28125 72.90625 
L 38.28125 8.296875 
L 54.390625 8.296875 
L 54.390625 0 
L 12.40625 0 
z
" id="DejaVuSans-49"/>
       </defs>
       <use xlink:href="#DejaVuSans-49"/>
       <use x="63.623047" xlink:href="#DejaVuSans-48"/>
      </g>
     </g>
    </g>
   </g>
   <g id="matplotlib.axis_2">
    <g id="ytick_1">
     <g id="line2d_13">
      <path clip-path="url(#p1b8e6568b1)" d="M 38.482813 214.509732 
L 373.282813 214.509732 
" style="fill:none;stroke:#b0b0b0;stroke-linecap:square;stroke-width:0.8;"/>
     </g>
     <g id="line2d_14">
      <defs>
       <path d="M 0 0 
L -3.5 0 
" id="mfd0a70682f" style="stroke:#000000;stroke-width:0.8;"/>
      </defs>
      <g>
       <use style="stroke:#000000;stroke-width:0.8;" x="38.482813" xlink:href="#mfd0a70682f" y="214.509732"/>
      </g>
     </g>
     <g id="text_7">
      <!-- −0.6 -->
      <g transform="translate(7.2 218.308951)scale(0.1 -0.1)">
       <defs>
        <path d="M 10.59375 35.5 
L 73.1875 35.5 
L 73.1875 27.203125 
L 10.59375 27.203125 
z
" id="DejaVuSans-8722"/>
        <path d="M 10.6875 12.40625 
L 21 12.40625 
L 21 0 
L 10.6875 0 
z
" id="DejaVuSans-46"/>
       </defs>
       <use xlink:href="#DejaVuSans-8722"/>
       <use x="83.789062" xlink:href="#DejaVuSans-48"/>
       <use x="147.412109" xlink:href="#DejaVuSans-46"/>
       <use x="179.199219" xlink:href="#DejaVuSans-54"/>
      </g>
     </g>
    </g>
    <g id="ytick_2">
     <g id="line2d_15">
      <path clip-path="url(#p1b8e6568b1)" d="M 38.482813 181.646488 
L 373.282813 181.646488 
" style="fill:none;stroke:#b0b0b0;stroke-linecap:square;stroke-width:0.8;"/>
     </g>
     <g id="line2d_16">
      <g>
       <use style="stroke:#000000;stroke-width:0.8;" x="38.482813" xlink:href="#mfd0a70682f" y="181.646488"/>
      </g>
     </g>
     <g id="text_8">
      <!-- −0.4 -->
      <g transform="translate(7.2 185.445707)scale(0.1 -0.1)">
       <use xlink:href="#DejaVuSans-8722"/>
       <use x="83.789062" xlink:href="#DejaVuSans-48"/>
       <use x="147.412109" xlink:href="#DejaVuSans-46"/>
       <use x="179.199219" xlink:href="#DejaVuSans-52"/>
      </g>
     </g>
    </g>
    <g id="ytick_3">
     <g id="line2d_17">
      <path clip-path="url(#p1b8e6568b1)" d="M 38.482813 148.783244 
L 373.282813 148.783244 
" style="fill:none;stroke:#b0b0b0;stroke-linecap:square;stroke-width:0.8;"/>
     </g>
     <g id="line2d_18">
      <g>
       <use style="stroke:#000000;stroke-width:0.8;" x="38.482813" xlink:href="#mfd0a70682f" y="148.783244"/>
      </g>
     </g>
     <g id="text_9">
      <!-- −0.2 -->
      <g transform="translate(7.2 152.582463)scale(0.1 -0.1)">
       <use xlink:href="#DejaVuSans-8722"/>
       <use x="83.789062" xlink:href="#DejaVuSans-48"/>
       <use x="147.412109" xlink:href="#DejaVuSans-46"/>
       <use x="179.199219" xlink:href="#DejaVuSans-50"/>
      </g>
     </g>
    </g>
    <g id="ytick_4">
     <g id="line2d_19">
      <path clip-path="url(#p1b8e6568b1)" d="M 38.482813 115.92 
L 373.282813 115.92 
" style="fill:none;stroke:#b0b0b0;stroke-linecap:square;stroke-width:0.8;"/>
     </g>
     <g id="line2d_20">
      <g>
       <use style="stroke:#000000;stroke-width:0.8;" x="38.482813" xlink:href="#mfd0a70682f" y="115.92"/>
      </g>
     </g>
     <g id="text_10">
      <!-- 0.0 -->
      <g transform="translate(15.579688 119.719219)scale(0.1 -0.1)">
       <use xlink:href="#DejaVuSans-48"/>
       <use x="63.623047" xlink:href="#DejaVuSans-46"/>
       <use x="95.410156" xlink:href="#DejaVuSans-48"/>
      </g>
     </g>
    </g>
    <g id="ytick_5">
     <g id="line2d_21">
      <path clip-path="url(#p1b8e6568b1)" d="M 38.482813 83.056756 
L 373.282813 83.056756 
" style="fill:none;stroke:#b0b0b0;stroke-linecap:square;stroke-width:0.8;"/>
     </g>
     <g id="line2d_22">
      <g>
       <use style="stroke:#000000;stroke-width:0.8;" x="38.482813" xlink:href="#mfd0a70682f" y="83.056756"/>
      </g>
     </g>
     <g id="text_11">
      <!-- 0.2 -->
      <g transform="translate(15.579688 86.855975)scale(0.1 -0.1)">
       <use xlink:href="#DejaVuSans-48"/>
       <use x="63.623047" xlink:href="#DejaVuSans-46"/>
       <use x="95.410156" xlink:href="#DejaVuSans-50"/>
      </g>
     </g>
    </g>
    <g id="ytick_6">
     <g id="line2d_23">
      <path clip-path="url(#p1b8e6568b1)" d="M 38.482813 50.193512 
L 373.282813 50.193512 
" style="fill:none;stroke:#b0b0b0;stroke-linecap:square;stroke-width:0.8;"/>
     </g>
     <g id="line2d_24">
      <g>
       <use style="stroke:#000000;stroke-width:0.8;" x="38.482813" xlink:href="#mfd0a70682f" y="50.193512"/>
      </g>
     </g>
     <g id="text_12">
      <!-- 0.4 -->
      <g transform="translate(15.579688 53.99273)scale(0.1 -0.1)">
       <use xlink:href="#DejaVuSans-48"/>
       <use x="63.623047" xlink:href="#DejaVuSans-46"/>
       <use x="95.410156" xlink:href="#DejaVuSans-52"/>
      </g>
     </g>
    </g>
    <g id="ytick_7">
     <g id="line2d_25">
      <path clip-path="url(#p1b8e6568b1)" d="M 38.482813 17.330268 
L 373.282813 17.330268 
" style="fill:none;stroke:#b0b0b0;stroke-linecap:square;stroke-width:0.8;"/>
     </g>
     <g id="line2d_26">
      <g>
       <use style="stroke:#000000;stroke-width:0.8;" x="38.482813" xlink:href="#mfd0a70682f" y="17.330268"/>
      </g>
     </g>
     <g id="text_13">
      <!-- 0.6 -->
      <g transform="translate(15.579688 21.129486)scale(0.1 -0.1)">
       <use xlink:href="#DejaVuSans-48"/>
       <use x="63.623047" xlink:href="#DejaVuSans-46"/>
       <use x="95.410156" xlink:href="#DejaVuSans-54"/>
      </g>
     </g>
    </g>
   </g>
   <g id="line2d_27">
    <path clip-path="url(#p1b8e6568b1)" d="M 38.482813 214.756364 
L 41.834164 209.23917 
L 45.185515 193.303545 
L 48.536867 168.728589 
L 51.888218 138.257924 
L 55.239569 105.293387 
L 58.590921 73.515236 
L 61.942272 46.47128 
L 65.293623 27.180787 
L 68.644975 17.797406 
L 71.996326 19.368725 
L 75.347677 31.719317 
L 78.699029 53.470325 
L 82.05038 82.193402 
L 88.753083 147.308468 
L 92.104434 176.430815 
L 95.455785 198.797554 
L 98.807137 211.911594 
L 102.158488 214.308846 
L 105.50984 205.721672 
L 108.861191 187.108771 
L 112.212542 160.548142 
L 115.563894 129.005094 
L 118.915245 96.001187 
L 122.266596 65.221076 
L 125.617948 40.101144 
L 128.969299 23.445857 
L 132.32065 17.114659 
L 135.672002 21.814386 
L 139.023353 37.020345 
L 142.374704 61.034898 
L 145.726056 91.176988 
L 152.428758 156.074766 
L 155.78011 183.585071 
L 159.131461 203.541046 
L 162.482813 213.714744 
L 165.834164 212.970345 
L 169.185515 201.390954 
L 172.536867 180.269331 
L 175.888218 151.963555 
L 182.590921 86.889367 
L 185.942272 57.386031 
L 189.293623 34.417603 
L 192.644975 20.548347 
L 195.996326 17.326667 
L 199.347677 25.112242 
L 202.699029 43.035868 
L 206.05038 69.096496 
L 209.401731 100.38464 
L 212.753083 133.407198 
L 216.104434 164.477433 
L 219.455785 190.126571 
L 222.807137 207.491065 
L 226.158488 214.632292 
L 229.50984 210.752982 
L 232.861191 196.286235 
L 236.212542 172.84716 
L 239.563894 143.052567 
L 246.266596 78.04044 
L 249.617948 50.081055 
L 252.969299 29.472126 
L 256.32065 18.514497 
L 259.672002 18.43151 
L 263.023353 29.23243 
L 266.374704 49.711409 
L 269.726056 77.582114 
L 276.428758 142.574575 
L 279.78011 172.440377 
L 283.131461 195.996076 
L 286.482813 210.611842 
L 289.834164 214.655927 
L 293.185515 207.676837 
L 296.536867 190.45374 
L 299.888218 164.909473 
L 303.239569 133.895874 
L 306.590921 100.875395 
L 309.942272 69.534541 
L 313.293623 43.372298 
L 316.644975 25.309498 
L 319.996326 17.362726 
L 323.347677 20.419182 
L 326.699029 34.137636 
L 330.05038 56.986518 
L 333.401731 86.41491 
L 340.104434 151.500575 
L 343.455785 179.891488 
L 346.807137 201.140433 
L 350.158488 212.875114 
L 353.50984 213.785436 
L 356.861191 203.769767 
L 360.212542 183.946287 
L 363.563894 156.528149 
L 373.617948 61.448696 
L 376.969299 37.320514 
L 380.32065 21.967414 
L 383.672002 17.103462 
L 387.023353 23.271685 
L 387.845313 27.321393 
L 387.845313 27.321393 
" style="fill:none;stroke:#1f77b4;stroke-linecap:square;stroke-width:1.5;"/>
   </g>
   <g id="line2d_28">
    <path clip-path="url(#p1b8e6568b1)" d="M 38.482813 177.004232 
L 41.834164 173.714586 
L 45.185515 164.199971 
L 48.536867 149.485192 
L 51.888218 131.155155 
L 58.590921 91.723261 
L 61.942272 74.868554 
L 65.293623 62.435437 
L 68.644975 55.763063 
L 71.996326 55.570103 
L 75.347677 61.877342 
L 78.699029 74.005435 
L 82.05038 90.648083 
L 92.104434 148.496552 
L 95.455785 163.470686 
L 98.807137 173.323207 
L 102.158488 176.992914 
L 105.50984 174.084547 
L 108.861191 164.911364 
L 112.212542 150.461393 
L 115.563894 132.29102 
L 122.266596 92.807405 
L 125.617948 75.746885 
L 128.969299 63.013352 
L 132.32065 55.978315 
L 135.672002 55.399508 
L 139.023353 61.339274 
L 142.374704 73.157848 
L 145.726056 89.582271 
L 149.077407 108.843491 
L 152.428758 128.866912 
L 155.78011 147.49584 
L 159.131461 162.723781 
L 162.482813 172.910556 
L 165.834164 176.958963 
L 169.185515 174.432954 
L 172.536867 165.604601 
L 175.888218 151.424794 
L 179.239569 133.420818 
L 185.942272 93.900115 
L 189.293623 76.640105 
L 192.644975 63.610874 
L 195.996326 56.215781 
L 199.347677 55.251341 
L 202.699029 60.821433 
L 206.05038 72.326109 
L 209.401731 88.526219 
L 212.753083 107.676872 
L 216.104434 127.715381 
L 219.455785 146.483426 
L 222.807137 161.95953 
L 226.158488 172.476785 
L 229.50984 176.902392 
L 232.861191 174.759676 
L 236.212542 166.279426 
L 239.563894 152.375037 
L 242.915245 134.54413 
L 249.617948 95.000985 
L 252.969299 77.54788 
L 256.32065 64.22778 
L 259.672002 56.475372 
L 263.023353 55.125657 
L 266.374704 60.32401 
L 269.726056 71.510525 
L 273.077407 87.480318 
L 276.428758 106.513308 
L 279.78011 126.559478 
L 283.131461 145.459686 
L 286.482813 161.178218 
L 289.834164 172.022055 
L 293.185515 176.823222 
L 296.536867 175.064594 
L 299.888218 166.935589 
L 303.239569 153.311771 
L 306.590921 135.66054 
L 313.293623 96.109607 
L 316.644975 78.469876 
L 319.996326 64.863843 
L 323.347677 56.756992 
L 326.699029 55.022502 
L 330.05038 59.84719 
L 333.401731 70.711398 
L 336.753083 86.444957 
L 340.104434 105.35323 
L 343.455785 125.399633 
L 346.807137 144.425 
L 350.158488 160.380135 
L 353.50984 171.546535 
L 356.861191 176.721483 
L 360.212542 175.347594 
L 363.563894 167.572847 
L 366.915245 154.234648 
L 370.266596 136.769635 
L 376.969299 97.22557 
L 380.32065 79.40575 
L 383.672002 65.518826 
L 387.023353 57.060537 
L 387.845313 56.540919 
L 387.845313 56.540919 
" style="fill:none;stroke:#ff7f0e;stroke-linecap:square;stroke-width:1.5;"/>
   </g>
   <g id="line2d_29">
    <path clip-path="url(#p1b8e6568b1)" d="M 38.482813 115.92 
L 387.845313 115.92 
L 387.845313 115.92 
" style="fill:none;stroke:#2ca02c;stroke-linecap:square;stroke-width:1.5;"/>
   </g>
   <g id="line2d_30">
    <path clip-path="url(#p1b8e6568b1)" d="M 38.482813 54.835768 
L 41.834164 57.810429 
L 45.185515 66.444693 
L 48.536867 79.897624 
L 51.888218 96.858968 
L 58.590921 134.518257 
L 61.942272 151.548363 
L 65.293623 165.10843 
L 68.644975 173.877772 
L 71.996326 177.002295 
L 75.347677 174.177685 
L 78.699029 165.679045 
L 82.05038 152.334105 
L 85.401731 135.442599 
L 92.104434 97.785697 
L 95.455785 80.68791 
L 98.807137 67.021566 
L 102.158488 58.117703 
L 105.50984 54.843516 
L 108.861191 57.517897 
L 112.212542 65.880372 
L 115.563894 79.116476 
L 118.915245 95.937073 
L 125.617948 133.589198 
L 128.969299 150.753583 
L 132.32065 164.525337 
L 135.672002 173.563157 
L 139.023353 176.986799 
L 142.374704 174.462818 
L 145.726056 166.237037 
L 149.077407 153.110608 
L 152.428758 136.361987 
L 159.131461 98.717027 
L 162.482813 81.487134 
L 165.834164 67.610843 
L 169.185515 58.43964 
L 172.536867 54.866758 
L 175.888218 57.240181 
L 179.239569 65.328746 
L 182.590921 78.344665 
L 185.942272 95.020249 
L 192.644975 132.655656 
L 195.996326 149.949966 
L 199.347677 163.929914 
L 202.699029 173.233918 
L 206.05038 176.955812 
L 209.401731 174.733099 
L 212.753083 166.782263 
L 216.104434 153.877678 
L 219.455785 137.27619 
L 226.158488 99.652722 
L 229.50984 82.295093 
L 232.861191 68.212375 
L 236.212542 58.776159 
L 239.563894 54.905489 
L 242.915245 56.977351 
L 246.266596 64.789954 
L 249.617948 77.582387 
L 252.969299 94.108726 
L 259.672002 131.717869 
L 263.023353 149.137716 
L 266.374704 163.32231 
L 269.726056 172.890139 
L 273.077407 176.90934 
L 276.428758 174.988461 
L 279.78011 167.314587 
L 283.131461 154.635118 
L 286.482813 138.184975 
L 293.185515 100.592543 
L 296.536867 83.111582 
L 299.888218 68.82601 
L 303.239569 59.127175 
L 306.590921 54.959699 
L 309.942272 56.729474 
L 313.293623 64.264132 
L 316.644975 76.829834 
L 319.996326 93.202737 
L 326.699029 130.776074 
L 330.05038 148.317039 
L 333.401731 162.702682 
L 336.753083 172.531908 
L 340.104434 176.847396 
L 343.455785 175.228838 
L 346.807137 167.833872 
L 350.158488 155.382736 
L 353.50984 139.088111 
L 363.563894 83.936395 
L 366.915245 69.451593 
L 370.266596 59.492599 
L 373.617948 55.029373 
L 376.969299 56.496613 
L 380.32065 63.751415 
L 383.672002 76.087197 
L 387.023353 92.30251 
L 387.845313 96.843672 
L 387.845313 96.843672 
" style="fill:none;stroke:#d62728;stroke-linecap:square;stroke-width:1.5;"/>
   </g>
   <g id="line2d_31">
    <path clip-path="url(#p1b8e6568b1)" d="M 38.482813 17.083636 
L 41.834164 21.971153 
L 45.185515 36.15032 
L 48.536867 58.218803 
L 51.888218 85.994002 
L 58.590921 147.38383 
L 61.942272 174.926933 
L 65.293623 196.634181 
L 68.644975 210.358701 
L 71.996326 214.743123 
L 75.347677 209.353821 
L 78.699029 194.723805 
L 82.05038 172.3 
L 85.401731 144.300147 
L 92.104434 82.926768 
L 95.455785 55.623141 
L 98.807137 34.282945 
L 102.158488 21.016749 
L 105.50984 17.136597 
L 108.861191 23.026239 
L 112.212542 38.103184 
L 115.563894 60.876303 
L 118.915245 89.093308 
L 125.617948 150.433794 
L 128.969299 177.490629 
L 132.32065 198.458056 
L 135.672002 211.262372 
L 139.023353 214.637216 
L 142.374704 208.24881 
L 145.726056 192.728977 
L 149.077407 169.612646 
L 152.428758 141.186049 
L 159.131461 79.894891 
L 162.482813 53.092098 
L 165.834164 32.503058 
L 169.185515 20.164052 
L 172.536867 17.295422 
L 175.888218 24.180878 
L 179.239569 40.139442 
L 182.590921 63.592792 
L 185.942272 92.221364 
L 192.644975 153.446771 
L 195.996326 179.988341 
L 199.347677 200.193477 
L 202.699029 212.063867 
L 206.05038 214.425515 
L 209.401731 207.044852 
L 212.753083 190.651834 
L 216.104434 166.86775 
L 219.455785 138.044874 
L 226.158488 76.901622 
L 229.50984 50.628387 
L 232.861191 30.812568 
L 236.212542 19.413975 
L 239.563894 17.559941 
L 242.915245 25.433833 
L 246.266596 42.256913 
L 249.617948 66.365359 
L 252.969299 95.374817 
L 256.32065 126.416218 
L 259.672002 156.41953 
L 263.023353 182.417392 
L 266.374704 201.838583 
L 269.726056 212.762325 
L 273.077407 214.108248 
L 276.428758 205.743237 
L 279.78011 188.494603 
L 283.131461 164.068255 
L 286.482813 134.879988 
L 289.834164 103.816556 
L 293.185515 73.950168 
L 296.536867 48.234647 
L 299.888218 29.213286 
L 303.239569 18.767322 
L 306.590921 17.929871 
L 309.942272 26.78376 
L 313.293623 44.453327 
L 316.644975 69.191032 
L 319.996326 98.550288 
L 323.347677 129.627428 
L 326.699029 159.348887 
L 330.05038 184.775179 
L 333.401731 203.391612 
L 336.753083 213.357 
L 340.104434 213.685754 
L 343.455785 204.34536 
L 346.807137 186.259594 
L 350.158488 161.21716 
L 353.50984 131.694783 
L 356.861191 100.612261 
L 360.212542 71.043693 
L 363.563894 45.913444 
L 366.915245 27.706926 
L 370.266596 18.224785 
L 373.617948 18.404816 
L 376.969299 28.229212 
L 380.32065 46.726331 
L 383.672002 72.066785 
L 387.845313 109.367015 
L 387.845313 109.367015 
" style="fill:none;stroke:#9467bd;stroke-linecap:square;stroke-width:1.5;"/>
   </g>
   <g id="patch_3">
    <path d="M 38.482813 224.64 
L 38.482813 7.2 
" style="fill:none;stroke:#000000;stroke-linecap:square;stroke-linejoin:miter;stroke-width:0.8;"/>
   </g>
   <g id="patch_4">
    <path d="M 373.282813 224.64 
L 373.282813 7.2 
" style="fill:none;stroke:#000000;stroke-linecap:square;stroke-linejoin:miter;stroke-width:0.8;"/>
   </g>
   <g id="patch_5">
    <path d="M 38.482813 224.64 
L 373.282813 224.64 
" style="fill:none;stroke:#000000;stroke-linecap:square;stroke-linejoin:miter;stroke-width:0.8;"/>
   </g>
   <g id="patch_6">
    <path d="M 38.482813 7.2 
L 373.282813 7.2 
" style="fill:none;stroke:#000000;stroke-linecap:square;stroke-linejoin:miter;stroke-width:0.8;"/>
   </g>
  </g>
 </g>
 <defs>
  <clipPath id="p1b8e6568b1">
   <rect height="217.44" width="334.8" x="38.482813" y="7.2"/>
  </clipPath>
 </defs>
</svg>
