<?xml version="1.0" encoding="utf-8" standalone="no"?>
<!DOCTYPE svg PUBLIC "-//W3C//DTD SVG 1.1//EN"
  "http://www.w3.org/Graphics/SVG/1.1/DTD/svg11.dtd">
<!-- Created with matplotlib (https://matplotlib.org/) -->
<svg height="248.518125pt" version="1.1" viewBox="0 0 386.845313 248.518125" width="386.845313pt" xmlns="http://www.w3.org/2000/svg" xmlns:xlink="http://www.w3.org/1999/xlink">
 <metadata>
  <rdf:RDF xmlns:cc="http://creativecommons.org/ns#" xmlns:dc="http://purl.org/dc/elements/1.1/" xmlns:rdf="http://www.w3.org/1999/02/22-rdf-syntax-ns#">
   <cc:Work>
    <dc:type rdf:resource="http://purl.org/dc/dcmitype/StillImage"/>
    <dc:date>2021-10-24T19:22:23.168828</dc:date>
    <dc:format>image/svg+xml</dc:format>
    <dc:creator>
     <cc:Agent>
      <dc:title>Matplotlib v3.3.4, https://matplotlib.org/</dc:title>
     </cc:Agent>
    </dc:creator>
   </cc:Work>
  </rdf:RDF>
 </metadata>
 <defs>
  <style type="text/css">*{stroke-linecap:butt;stroke-linejoin:round;}</style>
 </defs>
 <g id="figure_1">
  <g id="patch_1">
   <path d="M -0 248.518125 
L 386.845313 248.518125 
L 386.845313 0 
L -0 0 
z
" style="fill:none;"/>
  </g>
  <g id="axes_1">
   <g id="patch_2">
    <path d="M 38.482813 224.64 
L 373.282813 224.64 
L 373.282813 7.2 
L 38.482813 7.2 
z
" style="fill:#ffffff;"/>
   </g>
   <g id="matplotlib.axis_1">
    <g id="xtick_1">
     <g id="line2d_1">
      <path clip-path="url(#p4cc7c5c92d)" d="M 38.482813 224.64 
L 38.482813 7.2 
" style="fill:none;stroke:#b0b0b0;stroke-linecap:square;stroke-width:0.8;"/>
     </g>
     <g id="line2d_2">
      <defs>
       <path d="M 0 0 
L 0 3.5 
" id="m6fbfed6d11" style="stroke:#000000;stroke-width:0.8;"/>
      </defs>
      <g>
       <use style="stroke:#000000;stroke-width:0.8;" x="38.482813" xlink:href="#m6fbfed6d11" y="224.64"/>
      </g>
     </g>
     <g id="text_1">
      <!-- 0 -->
      <g transform="translate(35.301563 239.238437)scale(0.1 -0.1)">
       <defs>
        <path d="M 31.78125 66.40625 
Q 24.171875 66.40625 20.328125 58.90625 
Q 16.5 51.421875 16.5 36.375 
Q 16.5 21.390625 20.328125 13.890625 
Q 24.171875 6.390625 31.78125 6.390625 
Q 39.453125 6.390625 43.28125 13.890625 
Q 47.125 21.390625 47.125 36.375 
Q 47.125 51.421875 43.28125 58.90625 
Q 39.453125 66.40625 31.78125 66.40625 
z
M 31.78125 74.21875 
Q 44.046875 74.21875 50.515625 64.515625 
Q 56.984375 54.828125 56.984375 36.375 
Q 56.984375 17.96875 50.515625 8.265625 
Q 44.046875 -1.421875 31.78125 -1.421875 
Q 19.53125 -1.421875 13.0625 8.265625 
Q 6.59375 17.96875 6.59375 36.375 
Q 6.59375 54.828125 13.0625 64.515625 
Q 19.53125 74.21875 31.78125 74.21875 
z
" id="DejaVuSans-48"/>
       </defs>
       <use xlink:href="#DejaVuSans-48"/>
      </g>
     </g>
    </g>
    <g id="xtick_2">
     <g id="line2d_3">
      <path clip-path="url(#p4cc7c5c92d)" d="M 105.442813 224.64 
L 105.442813 7.2 
" style="fill:none;stroke:#b0b0b0;stroke-linecap:square;stroke-width:0.8;"/>
     </g>
     <g id="line2d_4">
      <g>
       <use style="stroke:#000000;stroke-width:0.8;" x="105.442813" xlink:href="#m6fbfed6d11" y="224.64"/>
      </g>
     </g>
     <g id="text_2">
      <!-- 2 -->
      <g transform="translate(102.261562 239.238437)scale(0.1 -0.1)">
       <defs>
        <path d="M 19.1875 8.296875 
L 53.609375 8.296875 
L 53.609375 0 
L 7.328125 0 
L 7.328125 8.296875 
Q 12.9375 14.109375 22.625 23.890625 
Q 32.328125 33.6875 34.8125 36.53125 
Q 39.546875 41.84375 41.421875 45.53125 
Q 43.3125 49.21875 43.3125 52.78125 
Q 43.3125 58.59375 39.234375 62.25 
Q 35.15625 65.921875 28.609375 65.921875 
Q 23.96875 65.921875 18.8125 64.3125 
Q 13.671875 62.703125 7.8125 59.421875 
L 7.8125 69.390625 
Q 13.765625 71.78125 18.9375 73 
Q 24.125 74.21875 28.421875 74.21875 
Q 39.75 74.21875 46.484375 68.546875 
Q 53.21875 62.890625 53.21875 53.421875 
Q 53.21875 48.921875 51.53125 44.890625 
Q 49.859375 40.875 45.40625 35.40625 
Q 44.1875 33.984375 37.640625 27.21875 
Q 31.109375 20.453125 19.1875 8.296875 
z
" id="DejaVuSans-50"/>
       </defs>
       <use xlink:href="#DejaVuSans-50"/>
      </g>
     </g>
    </g>
    <g id="xtick_3">
     <g id="line2d_5">
      <path clip-path="url(#p4cc7c5c92d)" d="M 172.402813 224.64 
L 172.402813 7.2 
" style="fill:none;stroke:#b0b0b0;stroke-linecap:square;stroke-width:0.8;"/>
     </g>
     <g id="line2d_6">
      <g>
       <use style="stroke:#000000;stroke-width:0.8;" x="172.402813" xlink:href="#m6fbfed6d11" y="224.64"/>
      </g>
     </g>
     <g id="text_3">
      <!-- 4 -->
      <g transform="translate(169.221563 239.238437)scale(0.1 -0.1)">
       <defs>
        <path d="M 37.796875 64.3125 
L 12.890625 25.390625 
L 37.796875 25.390625 
z
M 35.203125 72.90625 
L 47.609375 72.90625 
L 47.609375 25.390625 
L 58.015625 25.390625 
L 58.015625 17.1875 
L 47.609375 17.1875 
L 47.609375 0 
L 37.796875 0 
L 37.796875 17.1875 
L 4.890625 17.1875 
L 4.890625 26.703125 
z
" id="DejaVuSans-52"/>
       </defs>
       <use xlink:href="#DejaVuSans-52"/>
      </g>
     </g>
    </g>
    <g id="xtick_4">
     <g id="line2d_7">
      <path clip-path="url(#p4cc7c5c92d)" d="M 239.362813 224.64 
L 239.362813 7.2 
" style="fill:none;stroke:#b0b0b0;stroke-linecap:square;stroke-width:0.8;"/>
     </g>
     <g id="line2d_8">
      <g>
       <use style="stroke:#000000;stroke-width:0.8;" x="239.362813" xlink:href="#m6fbfed6d11" y="224.64"/>
      </g>
     </g>
     <g id="text_4">
      <!-- 6 -->
      <g transform="translate(236.181563 239.238437)scale(0.1 -0.1)">
       <defs>
        <path d="M 33.015625 40.375 
Q 26.375 40.375 22.484375 35.828125 
Q 18.609375 31.296875 18.609375 23.390625 
Q 18.609375 15.53125 22.484375 10.953125 
Q 26.375 6.390625 33.015625 6.390625 
Q 39.65625 6.390625 43.53125 10.953125 
Q 47.40625 15.53125 47.40625 23.390625 
Q 47.40625 31.296875 43.53125 35.828125 
Q 39.65625 40.375 33.015625 40.375 
z
M 52.59375 71.296875 
L 52.59375 62.3125 
Q 48.875 64.0625 45.09375 64.984375 
Q 41.3125 65.921875 37.59375 65.921875 
Q 27.828125 65.921875 22.671875 59.328125 
Q 17.53125 52.734375 16.796875 39.40625 
Q 19.671875 43.65625 24.015625 45.921875 
Q 28.375 48.1875 33.59375 48.1875 
Q 44.578125 48.1875 50.953125 41.515625 
Q 57.328125 34.859375 57.328125 23.390625 
Q 57.328125 12.15625 50.6875 5.359375 
Q 44.046875 -1.421875 33.015625 -1.421875 
Q 20.359375 -1.421875 13.671875 8.265625 
Q 6.984375 17.96875 6.984375 36.375 
Q 6.984375 53.65625 15.1875 63.9375 
Q 23.390625 74.21875 37.203125 74.21875 
Q 40.921875 74.21875 44.703125 73.484375 
Q 48.484375 72.75 52.59375 71.296875 
z
" id="DejaVuSans-54"/>
       </defs>
       <use xlink:href="#DejaVuSans-54"/>
      </g>
     </g>
    </g>
    <g id="xtick_5">
     <g id="line2d_9">
      <path clip-path="url(#p4cc7c5c92d)" d="M 306.322813 224.64 
L 306.322813 7.2 
" style="fill:none;stroke:#b0b0b0;stroke-linecap:square;stroke-width:0.8;"/>
     </g>
     <g id="line2d_10">
      <g>
       <use style="stroke:#000000;stroke-width:0.8;" x="306.322813" xlink:href="#m6fbfed6d11" y="224.64"/>
      </g>
     </g>
     <g id="text_5">
      <!-- 8 -->
      <g transform="translate(303.141563 239.238437)scale(0.1 -0.1)">
       <defs>
        <path d="M 31.78125 34.625 
Q 24.75 34.625 20.71875 30.859375 
Q 16.703125 27.09375 16.703125 20.515625 
Q 16.703125 13.921875 20.71875 10.15625 
Q 24.75 6.390625 31.78125 6.390625 
Q 38.8125 6.390625 42.859375 10.171875 
Q 46.921875 13.96875 46.921875 20.515625 
Q 46.921875 27.09375 42.890625 30.859375 
Q 38.875 34.625 31.78125 34.625 
z
M 21.921875 38.8125 
Q 15.578125 40.375 12.03125 44.71875 
Q 8.5 49.078125 8.5 55.328125 
Q 8.5 64.0625 14.71875 69.140625 
Q 20.953125 74.21875 31.78125 74.21875 
Q 42.671875 74.21875 48.875 69.140625 
Q 55.078125 64.0625 55.078125 55.328125 
Q 55.078125 49.078125 51.53125 44.71875 
Q 48 40.375 41.703125 38.8125 
Q 48.828125 37.15625 52.796875 32.3125 
Q 56.78125 27.484375 56.78125 20.515625 
Q 56.78125 9.90625 50.3125 4.234375 
Q 43.84375 -1.421875 31.78125 -1.421875 
Q 19.734375 -1.421875 13.25 4.234375 
Q 6.78125 9.90625 6.78125 20.515625 
Q 6.78125 27.484375 10.78125 32.3125 
Q 14.796875 37.15625 21.921875 38.8125 
z
M 18.3125 54.390625 
Q 18.3125 48.734375 21.84375 45.5625 
Q 25.390625 42.390625 31.78125 42.390625 
Q 38.140625 42.390625 41.71875 45.5625 
Q 45.3125 48.734375 45.3125 54.390625 
Q 45.3125 60.0625 41.71875 63.234375 
Q 38.140625 66.40625 31.78125 66.40625 
Q 25.390625 66.40625 21.84375 63.234375 
Q 18.3125 60.0625 18.3125 54.390625 
z
" id="DejaVuSans-56"/>
       </defs>
       <use xlink:href="#DejaVuSans-56"/>
      </g>
     </g>
    </g>
    <g id="xtick_6">
     <g id="line2d_11">
      <path clip-path="url(#p4cc7c5c92d)" d="M 373.282813 224.64 
L 373.282813 7.2 
" style="fill:none;stroke:#b0b0b0;stroke-linecap:square;stroke-width:0.8;"/>
     </g>
     <g id="line2d_12">
      <g>
       <use style="stroke:#000000;stroke-width:0.8;" x="373.282813" xlink:href="#m6fbfed6d11" y="224.64"/>
      </g>
     </g>
     <g id="text_6">
      <!-- 10 -->
      <g transform="translate(366.920313 239.238437)scale(0.1 -0.1)">
       <defs>
        <path d="M 12.40625 8.296875 
L 28.515625 8.296875 
L 28.515625 63.921875 
L 10.984375 60.40625 
L 10.984375 69.390625 
L 28.421875 72.90625 
L 38.28125 72.90625 
L 38.28125 8.296875 
L 54.390625 8.296875 
L 54.390625 0 
L 12.40625 0 
z
" id="DejaVuSans-49"/>
       </defs>
       <use xlink:href="#DejaVuSans-49"/>
       <use x="63.623047" xlink:href="#DejaVuSans-48"/>
      </g>
     </g>
    </g>
   </g>
   <g id="matplotlib.axis_2">
    <g id="ytick_1">
     <g id="line2d_13">
      <path clip-path="url(#p4cc7c5c92d)" d="M 38.482813 214.509732 
L 373.282813 214.509732 
" style="fill:none;stroke:#b0b0b0;stroke-linecap:square;stroke-width:0.8;"/>
     </g>
     <g id="line2d_14">
      <defs>
       <path d="M 0 0 
L -3.5 0 
" id="m8a592ac1a7" style="stroke:#000000;stroke-width:0.8;"/>
      </defs>
      <g>
       <use style="stroke:#000000;stroke-width:0.8;" x="38.482813" xlink:href="#m8a592ac1a7" y="214.509732"/>
      </g>
     </g>
     <g id="text_7">
      <!-- −0.6 -->
      <g transform="translate(7.2 218.308951)scale(0.1 -0.1)">
       <defs>
        <path d="M 10.59375 35.5 
L 73.1875 35.5 
L 73.1875 27.203125 
L 10.59375 27.203125 
z
" id="DejaVuSans-8722"/>
        <path d="M 10.6875 12.40625 
L 21 12.40625 
L 21 0 
L 10.6875 0 
z
" id="DejaVuSans-46"/>
       </defs>
       <use xlink:href="#DejaVuSans-8722"/>
       <use x="83.789062" xlink:href="#DejaVuSans-48"/>
       <use x="147.412109" xlink:href="#DejaVuSans-46"/>
       <use x="179.199219" xlink:href="#DejaVuSans-54"/>
      </g>
     </g>
    </g>
    <g id="ytick_2">
     <g id="line2d_15">
      <path clip-path="url(#p4cc7c5c92d)" d="M 38.482813 181.646488 
L 373.282813 181.646488 
" style="fill:none;stroke:#b0b0b0;stroke-linecap:square;stroke-width:0.8;"/>
     </g>
     <g id="line2d_16">
      <g>
       <use style="stroke:#000000;stroke-width:0.8;" x="38.482813" xlink:href="#m8a592ac1a7" y="181.646488"/>
      </g>
     </g>
     <g id="text_8">
      <!-- −0.4 -->
      <g transform="translate(7.2 185.445707)scale(0.1 -0.1)">
       <use xlink:href="#DejaVuSans-8722"/>
       <use x="83.789062" xlink:href="#DejaVuSans-48"/>
       <use x="147.412109" xlink:href="#DejaVuSans-46"/>
       <use x="179.199219" xlink:href="#DejaVuSans-52"/>
      </g>
     </g>
    </g>
    <g id="ytick_3">
     <g id="line2d_17">
      <path clip-path="url(#p4cc7c5c92d)" d="M 38.482813 148.783244 
L 373.282813 148.783244 
" style="fill:none;stroke:#b0b0b0;stroke-linecap:square;stroke-width:0.8;"/>
     </g>
     <g id="line2d_18">
      <g>
       <use style="stroke:#000000;stroke-width:0.8;" x="38.482813" xlink:href="#m8a592ac1a7" y="148.783244"/>
      </g>
     </g>
     <g id="text_9">
      <!-- −0.2 -->
      <g transform="translate(7.2 152.582463)scale(0.1 -0.1)">
       <use xlink:href="#DejaVuSans-8722"/>
       <use x="83.789062" xlink:href="#DejaVuSans-48"/>
       <use x="147.412109" xlink:href="#DejaVuSans-46"/>
       <use x="179.199219" xlink:href="#DejaVuSans-50"/>
      </g>
     </g>
    </g>
    <g id="ytick_4">
     <g id="line2d_19">
      <path clip-path="url(#p4cc7c5c92d)" d="M 38.482813 115.92 
L 373.282813 115.92 
" style="fill:none;stroke:#b0b0b0;stroke-linecap:square;stroke-width:0.8;"/>
     </g>
     <g id="line2d_20">
      <g>
       <use style="stroke:#000000;stroke-width:0.8;" x="38.482813" xlink:href="#m8a592ac1a7" y="115.92"/>
      </g>
     </g>
     <g id="text_10">
      <!-- 0.0 -->
      <g transform="translate(15.579688 119.719219)scale(0.1 -0.1)">
       <use xlink:href="#DejaVuSans-48"/>
       <use x="63.623047" xlink:href="#DejaVuSans-46"/>
       <use x="95.410156" xlink:href="#DejaVuSans-48"/>
      </g>
     </g>
    </g>
    <g id="ytick_5">
     <g id="line2d_21">
      <path clip-path="url(#p4cc7c5c92d)" d="M 38.482813 83.056756 
L 373.282813 83.056756 
" style="fill:none;stroke:#b0b0b0;stroke-linecap:square;stroke-width:0.8;"/>
     </g>
     <g id="line2d_22">
      <g>
       <use style="stroke:#000000;stroke-width:0.8;" x="38.482813" xlink:href="#m8a592ac1a7" y="83.056756"/>
      </g>
     </g>
     <g id="text_11">
      <!-- 0.2 -->
      <g transform="translate(15.579688 86.855975)scale(0.1 -0.1)">
       <use xlink:href="#DejaVuSans-48"/>
       <use x="63.623047" xlink:href="#DejaVuSans-46"/>
       <use x="95.410156" xlink:href="#DejaVuSans-50"/>
      </g>
     </g>
    </g>
    <g id="ytick_6">
     <g id="line2d_23">
      <path clip-path="url(#p4cc7c5c92d)" d="M 38.482813 50.193512 
L 373.282813 50.193512 
" style="fill:none;stroke:#b0b0b0;stroke-linecap:square;stroke-width:0.8;"/>
     </g>
     <g id="line2d_24">
      <g>
       <use style="stroke:#000000;stroke-width:0.8;" x="38.482813" xlink:href="#m8a592ac1a7" y="50.193512"/>
      </g>
     </g>
     <g id="text_12">
      <!-- 0.4 -->
      <g transform="translate(15.579688 53.99273)scale(0.1 -0.1)">
       <use xlink:href="#DejaVuSans-48"/>
       <use x="63.623047" xlink:href="#DejaVuSans-46"/>
       <use x="95.410156" xlink:href="#DejaVuSans-52"/>
      </g>
     </g>
    </g>
    <g id="ytick_7">
     <g id="line2d_25">
      <path clip-path="url(#p4cc7c5c92d)" d="M 38.482813 17.330268 
L 373.282813 17.330268 
" style="fill:none;stroke:#b0b0b0;stroke-linecap:square;stroke-width:0.8;"/>
     </g>
     <g id="line2d_26">
      <g>
       <use style="stroke:#000000;stroke-width:0.8;" x="38.482813" xlink:href="#m8a592ac1a7" y="17.330268"/>
      </g>
     </g>
     <g id="text_13">
      <!-- 0.6 -->
      <g transform="translate(15.579688 21.129486)scale(0.1 -0.1)">
       <use xlink:href="#DejaVuSans-48"/>
       <use x="63.623047" xlink:href="#DejaVuSans-46"/>
       <use x="95.410156" xlink:href="#DejaVuSans-54"/>
      </g>
     </g>
    </g>
   </g>
   <g id="line2d_27">
    <path clip-path="url(#p4cc7c5c92d)" d="M 38.482813 214.756364 
L 41.834164 209.906052 
L 45.185515 195.831167 
L 48.536867 173.913134 
L 51.888218 146.303173 
L 58.590921 85.139633 
L 61.942272 57.589153 
L 65.293623 35.763749 
L 68.644975 21.805546 
L 71.996326 17.084519 
L 75.347677 22.064029 
L 78.699029 36.255346 
L 82.05038 58.265614 
L 85.401731 85.934565 
L 92.104434 147.097012 
L 95.455785 174.587518 
L 98.807137 196.319905 
L 102.158488 210.161176 
L 105.50984 214.752833 
L 108.861191 209.644214 
L 112.212542 195.33672 
L 115.563894 173.234608 
L 118.915245 145.507163 
L 125.617948 84.3469 
L 128.969299 56.916859 
L 132.32065 35.277878 
L 135.672002 21.553786 
L 139.023353 17.09158 
L 142.374704 22.329217 
L 145.726056 36.752634 
L 149.077407 58.946194 
L 152.428758 86.731638 
L 159.131461 147.888624 
L 162.482813 175.25771 
L 165.834164 196.802899 
L 169.185515 210.409567 
L 172.536867 214.742242 
L 175.888218 209.37568 
L 179.239569 194.836599 
L 182.590921 172.551986 
L 185.942272 144.709039 
L 192.644975 83.556423 
L 195.996326 56.24878 
L 199.347677 34.797768 
L 202.699029 21.308768 
L 206.05038 17.105701 
L 209.401731 22.601092 
L 212.753083 37.255577 
L 216.104434 59.630844 
L 219.455785 87.530798 
L 226.158488 148.677952 
L 229.50984 175.923663 
L 232.861191 197.280115 
L 236.212542 210.651208 
L 239.563894 214.724592 
L 242.915245 209.10047 
L 246.266596 194.330841 
L 249.617948 171.86532 
L 252.969299 143.908859 
L 259.672002 82.768257 
L 263.023353 55.584964 
L 266.374704 34.323454 
L 269.726056 21.070508 
L 273.077407 17.126881 
L 276.428758 22.879633 
L 279.78011 37.764141 
L 283.131461 60.319516 
L 286.482813 88.331985 
L 293.185515 149.464941 
L 296.536867 176.58533 
L 299.888218 197.751519 
L 303.239569 210.886082 
L 306.590921 214.699882 
L 309.942272 208.818603 
L 313.293623 193.819481 
L 316.644975 171.174656 
L 319.996326 143.106679 
L 326.699029 81.982461 
L 330.05038 54.925459 
L 333.401731 33.854969 
L 336.753083 20.839025 
L 340.104434 17.155119 
L 343.455785 23.164821 
L 346.807137 38.278288 
L 350.158488 61.012159 
L 353.50984 89.135143 
L 360.212542 150.249532 
L 363.563894 177.242663 
L 366.915245 198.217077 
L 370.266596 211.114171 
L 373.617948 214.668116 
L 376.969299 208.530099 
L 380.32065 193.302556 
L 383.672002 170.480045 
L 387.845313 134.756605 
L 387.845313 134.756605 
" style="fill:none;stroke:#1f77b4;stroke-linecap:square;stroke-width:1.5;"/>
   </g>
   <g id="line2d_28">
    <path clip-path="url(#p4cc7c5c92d)" d="M 38.482813 177.004232 
L 41.834164 174.006575 
L 45.185515 165.307817 
L 48.536867 151.761728 
L 51.888218 134.697833 
L 58.590921 96.896687 
L 61.942272 79.869554 
L 65.293623 66.380712 
L 68.644975 57.754068 
L 71.996326 54.836313 
L 75.347677 57.91382 
L 78.699029 66.684536 
L 82.05038 80.28763 
L 85.401731 97.387982 
L 92.104434 135.188453 
L 95.455785 152.17852 
L 98.807137 165.609874 
L 102.158488 174.16425 
L 105.50984 177.00205 
L 108.861191 173.84475 
L 112.212542 165.002232 
L 115.563894 151.342376 
L 118.915245 134.205872 
L 125.617948 96.406751 
L 128.969299 79.454054 
L 132.32065 66.080428 
L 135.672002 57.598472 
L 139.023353 54.840677 
L 142.374704 58.077715 
L 145.726056 66.991877 
L 149.077407 80.708252 
L 152.428758 97.8806 
L 159.131461 135.677696 
L 162.482813 152.592722 
L 165.834164 165.908381 
L 169.185515 174.317764 
L 172.536867 176.995505 
L 175.888218 173.678787 
L 179.239569 164.693141 
L 182.590921 150.920492 
L 185.942272 133.712605 
L 192.644975 95.918209 
L 195.996326 79.041158 
L 199.347677 65.783704 
L 202.699029 57.447043 
L 206.05038 54.849404 
L 209.401731 58.245743 
L 212.753083 67.302713 
L 216.104434 81.131389 
L 219.455785 98.374508 
L 226.158488 136.165528 
L 229.50984 153.004303 
L 232.861191 166.203317 
L 236.212542 174.467106 
L 239.563894 176.984596 
L 242.915245 173.508697 
L 246.266596 164.380565 
L 249.617948 150.496109 
L 252.969299 133.218066 
L 259.672002 95.431096 
L 263.023353 78.630897 
L 266.374704 65.490561 
L 269.726056 57.29979 
L 273.077407 54.862495 
L 276.428758 58.417891 
L 279.78011 67.617023 
L 283.131461 81.557011 
L 286.482813 98.869669 
L 293.185515 136.651913 
L 296.536867 153.413236 
L 299.888218 166.49466 
L 303.239569 174.612266 
L 306.590921 176.969325 
L 309.942272 173.334494 
L 313.293623 164.064527 
L 316.644975 150.069256 
L 319.996326 132.722292 
L 326.699029 94.945447 
L 330.05038 78.2233 
L 333.401731 65.201022 
L 336.753083 57.156726 
L 340.104434 54.879947 
L 343.455785 58.594147 
L 346.807137 67.934783 
L 350.158488 81.985088 
L 353.50984 99.366048 
L 360.212542 137.136818 
L 363.563894 153.81949 
L 366.915245 166.782391 
L 370.266596 174.753233 
L 373.617948 176.949692 
L 376.969299 173.156189 
L 380.32065 163.74505 
L 383.672002 149.639962 
L 387.845313 127.561662 
L 387.845313 127.561662 
" style="fill:none;stroke:#ff7f0e;stroke-linecap:square;stroke-width:1.5;"/>
   </g>
   <g id="line2d_29">
    <path clip-path="url(#p4cc7c5c92d)" d="M 38.482813 115.92 
L 387.845313 115.92 
L 387.845313 115.92 
" style="fill:none;stroke:#2ca02c;stroke-linecap:square;stroke-width:1.5;"/>
   </g>
   <g id="line2d_30">
    <path clip-path="url(#p4cc7c5c92d)" d="M 38.482813 54.835768 
L 41.834164 57.833425 
L 45.185515 66.532183 
L 48.536867 80.078272 
L 51.888218 97.142167 
L 58.590921 134.943313 
L 61.942272 151.970446 
L 65.293623 165.459288 
L 68.644975 174.085932 
L 71.996326 177.003687 
L 75.347677 173.92618 
L 78.699029 165.155464 
L 82.05038 151.55237 
L 85.401731 134.452018 
L 92.104434 96.651547 
L 95.455785 79.66148 
L 98.807137 66.230126 
L 102.158488 57.67575 
L 105.50984 54.83795 
L 108.861191 57.99525 
L 112.212542 66.837768 
L 115.563894 80.497624 
L 118.915245 97.634128 
L 125.617948 135.433249 
L 128.969299 152.385946 
L 132.32065 165.759572 
L 135.672002 174.241528 
L 139.023353 176.999323 
L 142.374704 173.762285 
L 145.726056 164.848123 
L 149.077407 151.131748 
L 152.428758 133.9594 
L 159.131461 96.162304 
L 162.482813 79.247278 
L 165.834164 65.931619 
L 169.185515 57.522236 
L 172.536867 54.844495 
L 175.888218 58.161213 
L 179.239569 67.146859 
L 182.590921 80.919508 
L 185.942272 98.127395 
L 192.644975 135.921791 
L 195.996326 152.798842 
L 199.347677 166.056296 
L 202.699029 174.392957 
L 206.05038 176.990596 
L 209.401731 173.594257 
L 212.753083 164.537287 
L 216.104434 150.708611 
L 219.455785 133.465492 
L 226.158488 95.674472 
L 229.50984 78.835697 
L 232.861191 65.636683 
L 236.212542 57.372894 
L 239.563894 54.855404 
L 242.915245 58.331303 
L 246.266596 67.459435 
L 249.617948 81.343891 
L 252.969299 98.621934 
L 259.672002 136.408904 
L 263.023353 153.209103 
L 266.374704 166.349439 
L 269.726056 174.54021 
L 273.077407 176.977505 
L 276.428758 173.422109 
L 279.78011 164.222977 
L 283.131461 150.282989 
L 286.482813 132.970331 
L 293.185515 95.188087 
L 296.536867 78.426764 
L 299.888218 65.34534 
L 303.239569 57.227734 
L 306.590921 54.870675 
L 309.942272 58.505506 
L 313.293623 67.775473 
L 316.644975 81.770744 
L 319.996326 99.117708 
L 326.699029 136.894553 
L 330.05038 153.6167 
L 333.401731 166.638978 
L 336.753083 174.683274 
L 340.104434 176.960053 
L 343.455785 173.245853 
L 346.807137 163.905217 
L 350.158488 149.854912 
L 353.50984 132.473952 
L 360.212542 94.703182 
L 363.563894 78.02051 
L 366.915245 65.057609 
L 370.266596 57.086767 
L 373.617948 54.890308 
L 376.969299 58.683811 
L 380.32065 68.09495 
L 383.672002 82.200038 
L 387.845313 104.278338 
L 387.845313 104.278338 
" style="fill:none;stroke:#d62728;stroke-linecap:square;stroke-width:1.5;"/>
   </g>
   <g id="line2d_31">
    <path clip-path="url(#p4cc7c5c92d)" d="M 38.482813 17.083636 
L 41.834164 21.933948 
L 45.185515 36.008833 
L 48.536867 57.926866 
L 51.888218 85.536827 
L 58.590921 146.700367 
L 61.942272 174.250847 
L 65.293623 196.076251 
L 68.644975 210.034454 
L 71.996326 214.755481 
L 75.347677 209.775971 
L 78.699029 195.584654 
L 82.05038 173.574386 
L 85.401731 145.905435 
L 92.104434 84.742988 
L 95.455785 57.252482 
L 98.807137 35.520095 
L 102.158488 21.678824 
L 105.50984 17.087167 
L 108.861191 22.195786 
L 112.212542 36.50328 
L 115.563894 58.605392 
L 118.915245 86.332837 
L 125.617948 147.4931 
L 128.969299 174.923141 
L 132.32065 196.562122 
L 135.672002 210.286214 
L 139.023353 214.74842 
L 142.374704 209.510783 
L 145.726056 195.087366 
L 149.077407 172.893806 
L 152.428758 145.108362 
L 159.131461 83.951376 
L 162.482813 56.58229 
L 165.834164 35.037101 
L 169.185515 21.430433 
L 172.536867 17.097758 
L 175.888218 22.46432 
L 179.239569 37.003401 
L 182.590921 59.288014 
L 185.942272 87.130961 
L 192.644975 148.283577 
L 195.996326 175.59122 
L 199.347677 197.042232 
L 202.699029 210.531232 
L 206.05038 214.734299 
L 209.401731 209.238908 
L 212.753083 194.584423 
L 216.104434 172.209156 
L 219.455785 144.309202 
L 226.158488 83.162048 
L 229.50984 55.916337 
L 232.861191 34.559885 
L 236.212542 21.188792 
L 239.563894 17.115408 
L 242.915245 22.73953 
L 246.266596 37.509159 
L 249.617948 59.97468 
L 252.969299 87.931141 
L 259.672002 149.071743 
L 263.023353 176.255036 
L 266.374704 197.516546 
L 269.726056 210.769492 
L 273.077407 214.713119 
L 276.428758 208.960367 
L 279.78011 194.075859 
L 283.131461 171.520484 
L 286.482813 143.508015 
L 293.185515 82.375059 
L 296.536867 55.25467 
L 299.888218 34.088481 
L 303.239569 20.953918 
L 306.590921 17.140118 
L 309.942272 23.021397 
L 313.293623 38.020519 
L 316.644975 60.665344 
L 319.996326 88.733321 
L 326.699029 149.857539 
L 330.05038 176.914541 
L 333.401731 197.985031 
L 336.753083 211.000975 
L 340.104434 214.684881 
L 343.455785 208.675179 
L 346.807137 193.561712 
L 350.158488 170.827841 
L 353.50984 142.704857 
L 360.212542 81.590468 
L 363.563894 54.597337 
L 366.915245 33.622923 
L 370.266596 20.725829 
L 373.617948 17.171884 
L 376.969299 23.309901 
L 380.32065 38.537444 
L 383.672002 61.359955 
L 387.845313 97.083395 
L 387.845313 97.083395 
" style="fill:none;stroke:#9467bd;stroke-linecap:square;stroke-width:1.5;"/>
   </g>
   <g id="patch_3">
    <path d="M 38.482813 224.64 
L 38.482813 7.2 
" style="fill:none;stroke:#000000;stroke-linecap:square;stroke-linejoin:miter;stroke-width:0.8;"/>
   </g>
   <g id="patch_4">
    <path d="M 373.282813 224.64 
L 373.282813 7.2 
" style="fill:none;stroke:#000000;stroke-linecap:square;stroke-linejoin:miter;stroke-width:0.8;"/>
   </g>
   <g id="patch_5">
    <path d="M 38.482813 224.64 
L 373.282813 224.64 
" style="fill:none;stroke:#000000;stroke-linecap:square;stroke-linejoin:miter;stroke-width:0.8;"/>
   </g>
   <g id="patch_6">
    <path d="M 38.482813 7.2 
L 373.282813 7.2 
" style="fill:none;stroke:#000000;stroke-linecap:square;stroke-linejoin:miter;stroke-width:0.8;"/>
   </g>
  </g>
 </g>
 <defs>
  <clipPath id="p4cc7c5c92d">
   <rect height="217.44" width="334.8" x="38.482813" y="7.2"/>
  </clipPath>
 </defs>
</svg>
