<?xml version="1.0" encoding="utf-8" standalone="no"?>
<!DOCTYPE svg PUBLIC "-//W3C//DTD SVG 1.1//EN"
  "http://www.w3.org/Graphics/SVG/1.1/DTD/svg11.dtd">
<!-- Created with matplotlib (https://matplotlib.org/) -->
<svg height="248.518125pt" version="1.1" viewBox="0 0 375.2875 248.518125" width="375.2875pt" xmlns="http://www.w3.org/2000/svg" xmlns:xlink="http://www.w3.org/1999/xlink">
 <metadata>
  <rdf:RDF xmlns:cc="http://creativecommons.org/ns#" xmlns:dc="http://purl.org/dc/elements/1.1/" xmlns:rdf="http://www.w3.org/1999/02/22-rdf-syntax-ns#">
   <cc:Work>
    <dc:type rdf:resource="http://purl.org/dc/dcmitype/StillImage"/>
    <dc:date>2021-10-24T17:02:31.102448</dc:date>
    <dc:format>image/svg+xml</dc:format>
    <dc:creator>
     <cc:Agent>
      <dc:title>Matplotlib v3.3.4, https://matplotlib.org/</dc:title>
     </cc:Agent>
    </dc:creator>
   </cc:Work>
  </rdf:RDF>
 </metadata>
 <defs>
  <style type="text/css">*{stroke-linecap:butt;stroke-linejoin:round;}</style>
 </defs>
 <g id="figure_1">
  <g id="patch_1">
   <path d="M 0 248.518125 
L 375.2875 248.518125 
L 375.2875 0 
L 0 0 
z
" style="fill:none;"/>
  </g>
  <g id="axes_1">
   <g id="patch_2">
    <path d="M 33.2875 224.64 
L 368.0875 224.64 
L 368.0875 7.2 
L 33.2875 7.2 
z
" style="fill:#ffffff;"/>
   </g>
   <g id="matplotlib.axis_1">
    <g id="xtick_1">
     <g id="line2d_1">
      <defs>
       <path d="M 0 0 
L 0 3.5 
" id="mfe944854b9" style="stroke:#000000;stroke-width:0.8;"/>
      </defs>
      <g>
       <use style="stroke:#000000;stroke-width:0.8;" x="56.316407" xlink:href="#mfe944854b9" y="224.64"/>
      </g>
     </g>
     <g id="text_1">
      <!-- −0.6 -->
      <g transform="translate(44.175001 239.238437)scale(0.1 -0.1)">
       <defs>
        <path d="M 10.59375 35.5 
L 73.1875 35.5 
L 73.1875 27.203125 
L 10.59375 27.203125 
z
" id="DejaVuSans-8722"/>
        <path d="M 31.78125 66.40625 
Q 24.171875 66.40625 20.328125 58.90625 
Q 16.5 51.421875 16.5 36.375 
Q 16.5 21.390625 20.328125 13.890625 
Q 24.171875 6.390625 31.78125 6.390625 
Q 39.453125 6.390625 43.28125 13.890625 
Q 47.125 21.390625 47.125 36.375 
Q 47.125 51.421875 43.28125 58.90625 
Q 39.453125 66.40625 31.78125 66.40625 
z
M 31.78125 74.21875 
Q 44.046875 74.21875 50.515625 64.515625 
Q 56.984375 54.828125 56.984375 36.375 
Q 56.984375 17.96875 50.515625 8.265625 
Q 44.046875 -1.421875 31.78125 -1.421875 
Q 19.53125 -1.421875 13.0625 8.265625 
Q 6.59375 17.96875 6.59375 36.375 
Q 6.59375 54.828125 13.0625 64.515625 
Q 19.53125 74.21875 31.78125 74.21875 
z
" id="DejaVuSans-48"/>
        <path d="M 10.6875 12.40625 
L 21 12.40625 
L 21 0 
L 10.6875 0 
z
" id="DejaVuSans-46"/>
        <path d="M 33.015625 40.375 
Q 26.375 40.375 22.484375 35.828125 
Q 18.609375 31.296875 18.609375 23.390625 
Q 18.609375 15.53125 22.484375 10.953125 
Q 26.375 6.390625 33.015625 6.390625 
Q 39.65625 6.390625 43.53125 10.953125 
Q 47.40625 15.53125 47.40625 23.390625 
Q 47.40625 31.296875 43.53125 35.828125 
Q 39.65625 40.375 33.015625 40.375 
z
M 52.59375 71.296875 
L 52.59375 62.3125 
Q 48.875 64.0625 45.09375 64.984375 
Q 41.3125 65.921875 37.59375 65.921875 
Q 27.828125 65.921875 22.671875 59.328125 
Q 17.53125 52.734375 16.796875 39.40625 
Q 19.671875 43.65625 24.015625 45.921875 
Q 28.375 48.1875 33.59375 48.1875 
Q 44.578125 48.1875 50.953125 41.515625 
Q 57.328125 34.859375 57.328125 23.390625 
Q 57.328125 12.15625 50.6875 5.359375 
Q 44.046875 -1.421875 33.015625 -1.421875 
Q 20.359375 -1.421875 13.671875 8.265625 
Q 6.984375 17.96875 6.984375 36.375 
Q 6.984375 53.65625 15.1875 63.9375 
Q 23.390625 74.21875 37.203125 74.21875 
Q 40.921875 74.21875 44.703125 73.484375 
Q 48.484375 72.75 52.59375 71.296875 
z
" id="DejaVuSans-54"/>
       </defs>
       <use xlink:href="#DejaVuSans-8722"/>
       <use x="83.789062" xlink:href="#DejaVuSans-48"/>
       <use x="147.412109" xlink:href="#DejaVuSans-46"/>
       <use x="179.199219" xlink:href="#DejaVuSans-54"/>
      </g>
     </g>
    </g>
    <g id="xtick_2">
     <g id="line2d_2">
      <g>
       <use style="stroke:#000000;stroke-width:0.8;" x="104.448264" xlink:href="#mfe944854b9" y="224.64"/>
      </g>
     </g>
     <g id="text_2">
      <!-- −0.4 -->
      <g transform="translate(92.306858 239.238437)scale(0.1 -0.1)">
       <defs>
        <path d="M 37.796875 64.3125 
L 12.890625 25.390625 
L 37.796875 25.390625 
z
M 35.203125 72.90625 
L 47.609375 72.90625 
L 47.609375 25.390625 
L 58.015625 25.390625 
L 58.015625 17.1875 
L 47.609375 17.1875 
L 47.609375 0 
L 37.796875 0 
L 37.796875 17.1875 
L 4.890625 17.1875 
L 4.890625 26.703125 
z
" id="DejaVuSans-52"/>
       </defs>
       <use xlink:href="#DejaVuSans-8722"/>
       <use x="83.789062" xlink:href="#DejaVuSans-48"/>
       <use x="147.412109" xlink:href="#DejaVuSans-46"/>
       <use x="179.199219" xlink:href="#DejaVuSans-52"/>
      </g>
     </g>
    </g>
    <g id="xtick_3">
     <g id="line2d_3">
      <g>
       <use style="stroke:#000000;stroke-width:0.8;" x="152.580122" xlink:href="#mfe944854b9" y="224.64"/>
      </g>
     </g>
     <g id="text_3">
      <!-- −0.2 -->
      <g transform="translate(140.438715 239.238437)scale(0.1 -0.1)">
       <defs>
        <path d="M 19.1875 8.296875 
L 53.609375 8.296875 
L 53.609375 0 
L 7.328125 0 
L 7.328125 8.296875 
Q 12.9375 14.109375 22.625 23.890625 
Q 32.328125 33.6875 34.8125 36.53125 
Q 39.546875 41.84375 41.421875 45.53125 
Q 43.3125 49.21875 43.3125 52.78125 
Q 43.3125 58.59375 39.234375 62.25 
Q 35.15625 65.921875 28.609375 65.921875 
Q 23.96875 65.921875 18.8125 64.3125 
Q 13.671875 62.703125 7.8125 59.421875 
L 7.8125 69.390625 
Q 13.765625 71.78125 18.9375 73 
Q 24.125 74.21875 28.421875 74.21875 
Q 39.75 74.21875 46.484375 68.546875 
Q 53.21875 62.890625 53.21875 53.421875 
Q 53.21875 48.921875 51.53125 44.890625 
Q 49.859375 40.875 45.40625 35.40625 
Q 44.1875 33.984375 37.640625 27.21875 
Q 31.109375 20.453125 19.1875 8.296875 
z
" id="DejaVuSans-50"/>
       </defs>
       <use xlink:href="#DejaVuSans-8722"/>
       <use x="83.789062" xlink:href="#DejaVuSans-48"/>
       <use x="147.412109" xlink:href="#DejaVuSans-46"/>
       <use x="179.199219" xlink:href="#DejaVuSans-50"/>
      </g>
     </g>
    </g>
    <g id="xtick_4">
     <g id="line2d_4">
      <g>
       <use style="stroke:#000000;stroke-width:0.8;" x="200.711979" xlink:href="#mfe944854b9" y="224.64"/>
      </g>
     </g>
     <g id="text_4">
      <!-- 0.0 -->
      <g transform="translate(192.760416 239.238437)scale(0.1 -0.1)">
       <use xlink:href="#DejaVuSans-48"/>
       <use x="63.623047" xlink:href="#DejaVuSans-46"/>
       <use x="95.410156" xlink:href="#DejaVuSans-48"/>
      </g>
     </g>
    </g>
    <g id="xtick_5">
     <g id="line2d_5">
      <g>
       <use style="stroke:#000000;stroke-width:0.8;" x="248.843836" xlink:href="#mfe944854b9" y="224.64"/>
      </g>
     </g>
     <g id="text_5">
      <!-- 0.2 -->
      <g transform="translate(240.892274 239.238437)scale(0.1 -0.1)">
       <use xlink:href="#DejaVuSans-48"/>
       <use x="63.623047" xlink:href="#DejaVuSans-46"/>
       <use x="95.410156" xlink:href="#DejaVuSans-50"/>
      </g>
     </g>
    </g>
    <g id="xtick_6">
     <g id="line2d_6">
      <g>
       <use style="stroke:#000000;stroke-width:0.8;" x="296.975693" xlink:href="#mfe944854b9" y="224.64"/>
      </g>
     </g>
     <g id="text_6">
      <!-- 0.4 -->
      <g transform="translate(289.024131 239.238437)scale(0.1 -0.1)">
       <use xlink:href="#DejaVuSans-48"/>
       <use x="63.623047" xlink:href="#DejaVuSans-46"/>
       <use x="95.410156" xlink:href="#DejaVuSans-52"/>
      </g>
     </g>
    </g>
    <g id="xtick_7">
     <g id="line2d_7">
      <g>
       <use style="stroke:#000000;stroke-width:0.8;" x="345.107551" xlink:href="#mfe944854b9" y="224.64"/>
      </g>
     </g>
     <g id="text_7">
      <!-- 0.6 -->
      <g transform="translate(337.155988 239.238437)scale(0.1 -0.1)">
       <use xlink:href="#DejaVuSans-48"/>
       <use x="63.623047" xlink:href="#DejaVuSans-46"/>
       <use x="95.410156" xlink:href="#DejaVuSans-54"/>
      </g>
     </g>
    </g>
   </g>
   <g id="matplotlib.axis_2">
    <g id="ytick_1">
     <g id="line2d_8">
      <defs>
       <path d="M 0 0 
L -3.5 0 
" id="mce171e0bb6" style="stroke:#000000;stroke-width:0.8;"/>
      </defs>
      <g>
       <use style="stroke:#000000;stroke-width:0.8;" x="33.2875" xlink:href="#mce171e0bb6" y="214.756364"/>
      </g>
     </g>
     <g id="text_8">
      <!-- 0 -->
      <g transform="translate(19.925 218.555582)scale(0.1 -0.1)">
       <use xlink:href="#DejaVuSans-48"/>
      </g>
     </g>
    </g>
    <g id="ytick_2">
     <g id="line2d_9">
      <g>
       <use style="stroke:#000000;stroke-width:0.8;" x="33.2875" xlink:href="#mce171e0bb6" y="175.221818"/>
      </g>
     </g>
     <g id="text_9">
      <!-- 20 -->
      <g transform="translate(13.5625 179.021037)scale(0.1 -0.1)">
       <use xlink:href="#DejaVuSans-50"/>
       <use x="63.623047" xlink:href="#DejaVuSans-48"/>
      </g>
     </g>
    </g>
    <g id="ytick_3">
     <g id="line2d_10">
      <g>
       <use style="stroke:#000000;stroke-width:0.8;" x="33.2875" xlink:href="#mce171e0bb6" y="135.687273"/>
      </g>
     </g>
     <g id="text_10">
      <!-- 40 -->
      <g transform="translate(13.5625 139.486491)scale(0.1 -0.1)">
       <use xlink:href="#DejaVuSans-52"/>
       <use x="63.623047" xlink:href="#DejaVuSans-48"/>
      </g>
     </g>
    </g>
    <g id="ytick_4">
     <g id="line2d_11">
      <g>
       <use style="stroke:#000000;stroke-width:0.8;" x="33.2875" xlink:href="#mce171e0bb6" y="96.152727"/>
      </g>
     </g>
     <g id="text_11">
      <!-- 60 -->
      <g transform="translate(13.5625 99.951946)scale(0.1 -0.1)">
       <use xlink:href="#DejaVuSans-54"/>
       <use x="63.623047" xlink:href="#DejaVuSans-48"/>
      </g>
     </g>
    </g>
    <g id="ytick_5">
     <g id="line2d_12">
      <g>
       <use style="stroke:#000000;stroke-width:0.8;" x="33.2875" xlink:href="#mce171e0bb6" y="56.618182"/>
      </g>
     </g>
     <g id="text_12">
      <!-- 80 -->
      <g transform="translate(13.5625 60.417401)scale(0.1 -0.1)">
       <defs>
        <path d="M 31.78125 34.625 
Q 24.75 34.625 20.71875 30.859375 
Q 16.703125 27.09375 16.703125 20.515625 
Q 16.703125 13.921875 20.71875 10.15625 
Q 24.75 6.390625 31.78125 6.390625 
Q 38.8125 6.390625 42.859375 10.171875 
Q 46.921875 13.96875 46.921875 20.515625 
Q 46.921875 27.09375 42.890625 30.859375 
Q 38.875 34.625 31.78125 34.625 
z
M 21.921875 38.8125 
Q 15.578125 40.375 12.03125 44.71875 
Q 8.5 49.078125 8.5 55.328125 
Q 8.5 64.0625 14.71875 69.140625 
Q 20.953125 74.21875 31.78125 74.21875 
Q 42.671875 74.21875 48.875 69.140625 
Q 55.078125 64.0625 55.078125 55.328125 
Q 55.078125 49.078125 51.53125 44.71875 
Q 48 40.375 41.703125 38.8125 
Q 48.828125 37.15625 52.796875 32.3125 
Q 56.78125 27.484375 56.78125 20.515625 
Q 56.78125 9.90625 50.3125 4.234375 
Q 43.84375 -1.421875 31.78125 -1.421875 
Q 19.734375 -1.421875 13.25 4.234375 
Q 6.78125 9.90625 6.78125 20.515625 
Q 6.78125 27.484375 10.78125 32.3125 
Q 14.796875 37.15625 21.921875 38.8125 
z
M 18.3125 54.390625 
Q 18.3125 48.734375 21.84375 45.5625 
Q 25.390625 42.390625 31.78125 42.390625 
Q 38.140625 42.390625 41.71875 45.5625 
Q 45.3125 48.734375 45.3125 54.390625 
Q 45.3125 60.0625 41.71875 63.234375 
Q 38.140625 66.40625 31.78125 66.40625 
Q 25.390625 66.40625 21.84375 63.234375 
Q 18.3125 60.0625 18.3125 54.390625 
z
" id="DejaVuSans-56"/>
       </defs>
       <use xlink:href="#DejaVuSans-56"/>
       <use x="63.623047" xlink:href="#DejaVuSans-48"/>
      </g>
     </g>
    </g>
    <g id="ytick_6">
     <g id="line2d_13">
      <g>
       <use style="stroke:#000000;stroke-width:0.8;" x="33.2875" xlink:href="#mce171e0bb6" y="17.083636"/>
      </g>
     </g>
     <g id="text_13">
      <!-- 100 -->
      <g transform="translate(7.2 20.882855)scale(0.1 -0.1)">
       <defs>
        <path d="M 12.40625 8.296875 
L 28.515625 8.296875 
L 28.515625 63.921875 
L 10.984375 60.40625 
L 10.984375 69.390625 
L 28.421875 72.90625 
L 38.28125 72.90625 
L 38.28125 8.296875 
L 54.390625 8.296875 
L 54.390625 0 
L 12.40625 0 
z
" id="DejaVuSans-49"/>
       </defs>
       <use xlink:href="#DejaVuSans-49"/>
       <use x="63.623047" xlink:href="#DejaVuSans-48"/>
       <use x="127.246094" xlink:href="#DejaVuSans-48"/>
      </g>
     </g>
    </g>
   </g>
   <g id="line2d_14">
    <path clip-path="url(#pb1c5a8b60f)" d="M 153.677646 214.756364 
L 160.888731 210.722226 
L 180.310845 206.688089 
L 205.988572 202.653952 
L 230.048334 198.619814 
L 245.11267 194.585677 
L 246.562392 190.55154 
L 233.952971 186.517403 
L 211.150842 182.483265 
L 185.147838 178.449128 
L 163.917276 174.414991 
L 153.9691 170.380853 
L 158.353723 166.346716 
L 175.726687 162.312579 
L 200.760908 158.278442 
L 225.780126 154.244304 
L 243.112681 150.210167 
L 247.44388 146.17603 
L 237.445645 142.141892 
L 216.183741 138.107755 
L 190.17772 134.073618 
L 167.401826 130.039481 
L 154.839847 126.005343 
L 156.34367 121.971206 
L 171.452178 117.937069 
L 195.532638 113.902931 
L 221.201243 109.868794 
L 240.587211 105.834657 
L 247.746209 101.800519 
L 240.48307 97.766382 
L 221.024895 93.732245 
L 195.338156 89.698108 
L 171.299196 85.66397 
L 156.279098 81.629833 
L 154.883483 77.595696 
L 167.540291 73.561558 
L 190.368556 69.527421 
L 216.368432 65.493284 
L 237.567559 61.459147 
L 247.465634 57.425009 
L 243.027605 53.390872 
L 225.614307 49.356735 
L 200.565191 45.322597 
L 175.561085 41.28846 
L 158.269014 37.254323 
L 153.991259 33.220186 
L 164.039509 29.186048 
L 185.332663 25.151911 
L 211.341587 21.117774 
L 234.091147 17.083636 
" style="fill:none;stroke:#1f77b4;stroke-linecap:square;stroke-width:1.5;"/>
   </g>
   <g id="line2d_15">
    <path clip-path="url(#pb1c5a8b60f)" d="M 323.84946 214.756364 
L 312.211632 210.722226 
L 279.49795 206.688089 
L 231.892009 202.653952 
L 178.392367 198.619814 
L 129.111615 194.585677 
L 93.364886 190.55154 
L 77.909087 186.517403 
L 85.665699 182.483265 
L 115.168555 178.449128 
L 160.840975 174.414991 
L 214.049879 170.380853 
L 264.737631 166.346716 
L 303.323145 162.312579 
L 322.512922 158.278442 
L 318.679677 154.244304 
L 292.547978 150.210167 
L 249.057282 146.17603 
L 196.428274 142.141892 
L 144.60898 138.107755 
L 103.394369 134.073618 
L 80.574899 130.039481 
L 80.463944 126.005343 
L 103.082477 121.971206 
L 144.155105 117.937069 
L 195.918209 113.902931 
L 248.587439 109.868794 
L 292.207169 105.834657 
L 318.532322 101.800519 
L 322.586873 97.766382 
L 303.604425 93.732245 
L 265.173071 89.698108 
L 214.557172 85.66397 
L 161.324231 81.629833 
L 115.536429 77.595696 
L 85.848655 73.561558 
L 77.872541 69.527421 
L 93.115746 65.493284 
L 128.696975 61.459147 
L 177.890602 57.425009 
L 231.397964 53.390872 
L 279.10501 49.356735 
L 311.994071 45.322597 
L 323.848402 41.28846 
L 312.427277 37.254323 
L 279.889536 33.220186 
L 232.385518 29.186048 
L 178.894515 25.151911 
L 129.527485 21.117774 
L 93.61587 17.083636 
" style="fill:none;stroke:#ff7f0e;stroke-linecap:square;stroke-width:1.5;"/>
   </g>
   <g id="line2d_16">
    <path clip-path="url(#pb1c5a8b60f)" d="M 48.505682 214.756364 
L 54.572617 210.722226 
L 72.289768 206.688089 
L 100.244724 202.653952 
L 136.208919 198.619814 
L 177.315292 194.585677 
L 220.286847 190.55154 
L 261.697895 186.517403 
L 298.247152 182.483265 
L 327.020915 178.449128 
L 345.725342 174.414991 
L 352.869318 170.380853 
L 347.883327 166.346716 
L 331.164851 162.312579 
L 304.046685 158.278442 
L 268.690686 154.244304 
L 227.915432 150.210167 
L 184.971521 146.17603 
L 143.282439 142.141892 
L 106.171633 138.107755 
L 76.597574 134.073618 
L 56.917903 130.039481 
L 48.701481 126.005343 
L 52.603321 121.971206 
L 68.312368 117.937069 
L 94.576298 113.902931 
L 129.301355 109.868794 
L 169.719259 105.834657 
L 212.607899 101.800519 
L 254.548199 97.766382 
L 292.19668 93.732245 
L 322.55201 89.698108 
L 343.194265 85.66397 
L 352.477846 81.629833 
L 349.662668 77.595696 
L 334.973156 73.561558 
L 309.580357 69.527421 
L 275.508581 65.493284 
L 235.474028 61.459147 
L 192.668248 57.425009 
L 150.503713 53.390872 
L 112.341776 49.356735 
L 81.224703 45.322597 
L 59.633143 41.28846 
L 49.288374 37.254323 
L 51.015079 33.220186 
L 64.675607 29.186048 
L 89.18094 25.151911 
L 122.577516 21.117774 
L 162.202963 17.083636 
" style="fill:none;stroke:#2ca02c;stroke-linecap:square;stroke-width:1.5;"/>
   </g>
   <g id="line2d_17">
    <path clip-path="url(#pb1c5a8b60f)" d="M 323.84946 214.756364 
L 323.163777 210.722226 
L 321.114367 206.688089 
L 317.724052 202.653952 
L 313.030591 198.619814 
L 307.086253 194.585677 
L 299.957239 190.55154 
L 291.722946 186.517403 
L 282.475076 182.483265 
L 272.316623 178.449128 
L 261.360718 174.414991 
L 249.729378 170.380853 
L 237.552137 166.346716 
L 224.964613 162.312579 
L 212.106991 158.278442 
L 199.122464 154.244304 
L 186.155639 150.210167 
L 173.350926 146.17603 
L 160.85093 142.141892 
L 148.79486 138.107755 
L 137.316984 134.073618 
L 126.545129 130.039481 
L 116.599259 126.005343 
L 107.590141 121.971206 
L 99.618107 117.937069 
L 92.771942 113.902931 
L 87.127889 109.868794 
L 82.748806 105.834657 
L 79.683463 101.800519 
L 77.965996 97.766382 
L 77.615534 93.732245 
L 78.63598 89.698108 
L 81.015969 85.66397 
L 84.728995 81.629833 
L 89.733707 77.595696 
L 95.974368 73.561558 
L 103.381477 69.527421 
L 111.872543 65.493284 
L 121.353 61.459147 
L 131.717267 57.425009 
L 142.849918 53.390872 
L 154.626971 49.356735 
L 166.917266 45.322597 
L 179.583927 41.28846 
L 192.485889 37.254323 
L 205.479464 33.220186 
L 218.419944 29.186048 
L 231.163213 25.151911 
L 243.56735 21.117774 
L 255.494214 17.083636 
" style="fill:none;stroke:#d62728;stroke-linecap:square;stroke-width:1.5;"/>
   </g>
   <g id="line2d_18">
    <path clip-path="url(#pb1c5a8b60f)" d="M 153.677646 214.756364 
L 154.242894 210.722226 
L 155.925049 206.688089 
L 158.683681 202.653952 
L 162.452486 198.619814 
L 167.140876 194.585677 
L 172.636166 190.55154 
L 178.806272 186.517403 
L 185.502893 182.483265 
L 192.565072 178.449128 
L 199.823066 174.414991 
L 207.102426 170.380853 
L 214.228188 166.346716 
L 221.029081 162.312579 
L 227.341642 158.278442 
L 233.014145 154.244304 
L 237.910249 150.210167 
L 241.912274 146.17603 
L 244.924028 142.141892 
L 246.873123 138.107755 
L 247.712712 134.073618 
L 247.422613 130.039481 
L 246.0098 126.005343 
L 243.508231 121.971206 
L 239.978032 117.937069 
L 235.504054 113.902931 
L 230.193829 109.868794 
L 224.174994 105.834657 
L 217.592213 101.800519 
L 210.603706 97.766382 
L 203.377447 93.732245 
L 196.087122 89.698108 
L 188.907958 85.66397 
L 182.012509 81.629833 
L 175.566512 77.595696 
L 169.724899 73.561558 
L 164.628077 69.527421 
L 160.39855 65.493284 
L 157.137976 61.459147 
L 154.924726 57.425009 
L 153.811997 53.390872 
L 153.826532 49.356735 
L 154.967983 45.322597 
L 157.208915 41.28846 
L 160.495465 37.254323 
L 164.74864 33.220186 
L 169.866212 29.186048 
L 175.725178 25.151911 
L 182.184715 21.117774 
L 189.089564 17.083636 
" style="fill:none;stroke:#9467bd;stroke-linecap:square;stroke-width:1.5;"/>
   </g>
   <g id="patch_3">
    <path d="M 33.2875 224.64 
L 33.2875 7.2 
" style="fill:none;stroke:#000000;stroke-linecap:square;stroke-linejoin:miter;stroke-width:0.8;"/>
   </g>
   <g id="patch_4">
    <path d="M 368.0875 224.64 
L 368.0875 7.2 
" style="fill:none;stroke:#000000;stroke-linecap:square;stroke-linejoin:miter;stroke-width:0.8;"/>
   </g>
   <g id="patch_5">
    <path d="M 33.2875 224.64 
L 368.0875 224.64 
" style="fill:none;stroke:#000000;stroke-linecap:square;stroke-linejoin:miter;stroke-width:0.8;"/>
   </g>
   <g id="patch_6">
    <path d="M 33.2875 7.2 
L 368.0875 7.2 
" style="fill:none;stroke:#000000;stroke-linecap:square;stroke-linejoin:miter;stroke-width:0.8;"/>
   </g>
  </g>
 </g>
 <defs>
  <clipPath id="pb1c5a8b60f">
   <rect height="217.44" width="334.8" x="33.2875" y="7.2"/>
  </clipPath>
 </defs>
</svg>
