<?xml version="1.0" encoding="utf-8" standalone="no"?>
<!DOCTYPE svg PUBLIC "-//W3C//DTD SVG 1.1//EN"
  "http://www.w3.org/Graphics/SVG/1.1/DTD/svg11.dtd">
<!-- Created with matplotlib (https://matplotlib.org/) -->
<svg height="248.518125pt" version="1.1" viewBox="0 0 380.482812 248.518125" width="380.482812pt" xmlns="http://www.w3.org/2000/svg" xmlns:xlink="http://www.w3.org/1999/xlink">
 <metadata>
  <rdf:RDF xmlns:cc="http://creativecommons.org/ns#" xmlns:dc="http://purl.org/dc/elements/1.1/" xmlns:rdf="http://www.w3.org/1999/02/22-rdf-syntax-ns#">
   <cc:Work>
    <dc:type rdf:resource="http://purl.org/dc/dcmitype/StillImage"/>
    <dc:date>2021-10-24T19:04:59.570247</dc:date>
    <dc:format>image/svg+xml</dc:format>
    <dc:creator>
     <cc:Agent>
      <dc:title>Matplotlib v3.3.4, https://matplotlib.org/</dc:title>
     </cc:Agent>
    </dc:creator>
   </cc:Work>
  </rdf:RDF>
 </metadata>
 <defs>
  <style type="text/css">*{stroke-linecap:butt;stroke-linejoin:round;}</style>
 </defs>
 <g id="figure_1">
  <g id="patch_1">
   <path d="M -0 248.518125 
L 380.482812 248.518125 
L 380.482812 0 
L -0 0 
z
" style="fill:none;"/>
  </g>
  <g id="axes_1">
   <g id="patch_2">
    <path d="M 38.482813 224.64 
L 373.282813 224.64 
L 373.282813 7.2 
L 38.482813 7.2 
z
" style="fill:#ffffff;"/>
   </g>
   <g id="matplotlib.axis_1">
    <g id="xtick_1">
     <g id="line2d_1">
      <path clip-path="url(#p0b1b790274)" d="M 53.700994 224.64 
L 53.700994 7.2 
" style="fill:none;stroke:#b0b0b0;stroke-linecap:square;stroke-width:0.8;"/>
     </g>
     <g id="line2d_2">
      <defs>
       <path d="M 0 0 
L 0 3.5 
" id="mc2c318ebbb" style="stroke:#000000;stroke-width:0.8;"/>
      </defs>
      <g>
       <use style="stroke:#000000;stroke-width:0.8;" x="53.700994" xlink:href="#mc2c318ebbb" y="224.64"/>
      </g>
     </g>
     <g id="text_1">
      <!-- 0 -->
      <g transform="translate(50.519744 239.238437)scale(0.1 -0.1)">
       <defs>
        <path d="M 31.78125 66.40625 
Q 24.171875 66.40625 20.328125 58.90625 
Q 16.5 51.421875 16.5 36.375 
Q 16.5 21.390625 20.328125 13.890625 
Q 24.171875 6.390625 31.78125 6.390625 
Q 39.453125 6.390625 43.28125 13.890625 
Q 47.125 21.390625 47.125 36.375 
Q 47.125 51.421875 43.28125 58.90625 
Q 39.453125 66.40625 31.78125 66.40625 
z
M 31.78125 74.21875 
Q 44.046875 74.21875 50.515625 64.515625 
Q 56.984375 54.828125 56.984375 36.375 
Q 56.984375 17.96875 50.515625 8.265625 
Q 44.046875 -1.421875 31.78125 -1.421875 
Q 19.53125 -1.421875 13.0625 8.265625 
Q 6.59375 17.96875 6.59375 36.375 
Q 6.59375 54.828125 13.0625 64.515625 
Q 19.53125 74.21875 31.78125 74.21875 
z
" id="DejaVuSans-48"/>
       </defs>
       <use xlink:href="#DejaVuSans-48"/>
      </g>
     </g>
    </g>
    <g id="xtick_2">
     <g id="line2d_3">
      <path clip-path="url(#p0b1b790274)" d="M 114.573722 224.64 
L 114.573722 7.2 
" style="fill:none;stroke:#b0b0b0;stroke-linecap:square;stroke-width:0.8;"/>
     </g>
     <g id="line2d_4">
      <g>
       <use style="stroke:#000000;stroke-width:0.8;" x="114.573722" xlink:href="#mc2c318ebbb" y="224.64"/>
      </g>
     </g>
     <g id="text_2">
      <!-- 20 -->
      <g transform="translate(108.211222 239.238437)scale(0.1 -0.1)">
       <defs>
        <path d="M 19.1875 8.296875 
L 53.609375 8.296875 
L 53.609375 0 
L 7.328125 0 
L 7.328125 8.296875 
Q 12.9375 14.109375 22.625 23.890625 
Q 32.328125 33.6875 34.8125 36.53125 
Q 39.546875 41.84375 41.421875 45.53125 
Q 43.3125 49.21875 43.3125 52.78125 
Q 43.3125 58.59375 39.234375 62.25 
Q 35.15625 65.921875 28.609375 65.921875 
Q 23.96875 65.921875 18.8125 64.3125 
Q 13.671875 62.703125 7.8125 59.421875 
L 7.8125 69.390625 
Q 13.765625 71.78125 18.9375 73 
Q 24.125 74.21875 28.421875 74.21875 
Q 39.75 74.21875 46.484375 68.546875 
Q 53.21875 62.890625 53.21875 53.421875 
Q 53.21875 48.921875 51.53125 44.890625 
Q 49.859375 40.875 45.40625 35.40625 
Q 44.1875 33.984375 37.640625 27.21875 
Q 31.109375 20.453125 19.1875 8.296875 
z
" id="DejaVuSans-50"/>
       </defs>
       <use xlink:href="#DejaVuSans-50"/>
       <use x="63.623047" xlink:href="#DejaVuSans-48"/>
      </g>
     </g>
    </g>
    <g id="xtick_3">
     <g id="line2d_5">
      <path clip-path="url(#p0b1b790274)" d="M 175.446449 224.64 
L 175.446449 7.2 
" style="fill:none;stroke:#b0b0b0;stroke-linecap:square;stroke-width:0.8;"/>
     </g>
     <g id="line2d_6">
      <g>
       <use style="stroke:#000000;stroke-width:0.8;" x="175.446449" xlink:href="#mc2c318ebbb" y="224.64"/>
      </g>
     </g>
     <g id="text_3">
      <!-- 40 -->
      <g transform="translate(169.083949 239.238437)scale(0.1 -0.1)">
       <defs>
        <path d="M 37.796875 64.3125 
L 12.890625 25.390625 
L 37.796875 25.390625 
z
M 35.203125 72.90625 
L 47.609375 72.90625 
L 47.609375 25.390625 
L 58.015625 25.390625 
L 58.015625 17.1875 
L 47.609375 17.1875 
L 47.609375 0 
L 37.796875 0 
L 37.796875 17.1875 
L 4.890625 17.1875 
L 4.890625 26.703125 
z
" id="DejaVuSans-52"/>
       </defs>
       <use xlink:href="#DejaVuSans-52"/>
       <use x="63.623047" xlink:href="#DejaVuSans-48"/>
      </g>
     </g>
    </g>
    <g id="xtick_4">
     <g id="line2d_7">
      <path clip-path="url(#p0b1b790274)" d="M 236.319176 224.64 
L 236.319176 7.2 
" style="fill:none;stroke:#b0b0b0;stroke-linecap:square;stroke-width:0.8;"/>
     </g>
     <g id="line2d_8">
      <g>
       <use style="stroke:#000000;stroke-width:0.8;" x="236.319176" xlink:href="#mc2c318ebbb" y="224.64"/>
      </g>
     </g>
     <g id="text_4">
      <!-- 60 -->
      <g transform="translate(229.956676 239.238437)scale(0.1 -0.1)">
       <defs>
        <path d="M 33.015625 40.375 
Q 26.375 40.375 22.484375 35.828125 
Q 18.609375 31.296875 18.609375 23.390625 
Q 18.609375 15.53125 22.484375 10.953125 
Q 26.375 6.390625 33.015625 6.390625 
Q 39.65625 6.390625 43.53125 10.953125 
Q 47.40625 15.53125 47.40625 23.390625 
Q 47.40625 31.296875 43.53125 35.828125 
Q 39.65625 40.375 33.015625 40.375 
z
M 52.59375 71.296875 
L 52.59375 62.3125 
Q 48.875 64.0625 45.09375 64.984375 
Q 41.3125 65.921875 37.59375 65.921875 
Q 27.828125 65.921875 22.671875 59.328125 
Q 17.53125 52.734375 16.796875 39.40625 
Q 19.671875 43.65625 24.015625 45.921875 
Q 28.375 48.1875 33.59375 48.1875 
Q 44.578125 48.1875 50.953125 41.515625 
Q 57.328125 34.859375 57.328125 23.390625 
Q 57.328125 12.15625 50.6875 5.359375 
Q 44.046875 -1.421875 33.015625 -1.421875 
Q 20.359375 -1.421875 13.671875 8.265625 
Q 6.984375 17.96875 6.984375 36.375 
Q 6.984375 53.65625 15.1875 63.9375 
Q 23.390625 74.21875 37.203125 74.21875 
Q 40.921875 74.21875 44.703125 73.484375 
Q 48.484375 72.75 52.59375 71.296875 
z
" id="DejaVuSans-54"/>
       </defs>
       <use xlink:href="#DejaVuSans-54"/>
       <use x="63.623047" xlink:href="#DejaVuSans-48"/>
      </g>
     </g>
    </g>
    <g id="xtick_5">
     <g id="line2d_9">
      <path clip-path="url(#p0b1b790274)" d="M 297.191903 224.64 
L 297.191903 7.2 
" style="fill:none;stroke:#b0b0b0;stroke-linecap:square;stroke-width:0.8;"/>
     </g>
     <g id="line2d_10">
      <g>
       <use style="stroke:#000000;stroke-width:0.8;" x="297.191903" xlink:href="#mc2c318ebbb" y="224.64"/>
      </g>
     </g>
     <g id="text_5">
      <!-- 80 -->
      <g transform="translate(290.829403 239.238437)scale(0.1 -0.1)">
       <defs>
        <path d="M 31.78125 34.625 
Q 24.75 34.625 20.71875 30.859375 
Q 16.703125 27.09375 16.703125 20.515625 
Q 16.703125 13.921875 20.71875 10.15625 
Q 24.75 6.390625 31.78125 6.390625 
Q 38.8125 6.390625 42.859375 10.171875 
Q 46.921875 13.96875 46.921875 20.515625 
Q 46.921875 27.09375 42.890625 30.859375 
Q 38.875 34.625 31.78125 34.625 
z
M 21.921875 38.8125 
Q 15.578125 40.375 12.03125 44.71875 
Q 8.5 49.078125 8.5 55.328125 
Q 8.5 64.0625 14.71875 69.140625 
Q 20.953125 74.21875 31.78125 74.21875 
Q 42.671875 74.21875 48.875 69.140625 
Q 55.078125 64.0625 55.078125 55.328125 
Q 55.078125 49.078125 51.53125 44.71875 
Q 48 40.375 41.703125 38.8125 
Q 48.828125 37.15625 52.796875 32.3125 
Q 56.78125 27.484375 56.78125 20.515625 
Q 56.78125 9.90625 50.3125 4.234375 
Q 43.84375 -1.421875 31.78125 -1.421875 
Q 19.734375 -1.421875 13.25 4.234375 
Q 6.78125 9.90625 6.78125 20.515625 
Q 6.78125 27.484375 10.78125 32.3125 
Q 14.796875 37.15625 21.921875 38.8125 
z
M 18.3125 54.390625 
Q 18.3125 48.734375 21.84375 45.5625 
Q 25.390625 42.390625 31.78125 42.390625 
Q 38.140625 42.390625 41.71875 45.5625 
Q 45.3125 48.734375 45.3125 54.390625 
Q 45.3125 60.0625 41.71875 63.234375 
Q 38.140625 66.40625 31.78125 66.40625 
Q 25.390625 66.40625 21.84375 63.234375 
Q 18.3125 60.0625 18.3125 54.390625 
z
" id="DejaVuSans-56"/>
       </defs>
       <use xlink:href="#DejaVuSans-56"/>
       <use x="63.623047" xlink:href="#DejaVuSans-48"/>
      </g>
     </g>
    </g>
    <g id="xtick_6">
     <g id="line2d_11">
      <path clip-path="url(#p0b1b790274)" d="M 358.064631 224.64 
L 358.064631 7.2 
" style="fill:none;stroke:#b0b0b0;stroke-linecap:square;stroke-width:0.8;"/>
     </g>
     <g id="line2d_12">
      <g>
       <use style="stroke:#000000;stroke-width:0.8;" x="358.064631" xlink:href="#mc2c318ebbb" y="224.64"/>
      </g>
     </g>
     <g id="text_6">
      <!-- 100 -->
      <g transform="translate(348.520881 239.238437)scale(0.1 -0.1)">
       <defs>
        <path d="M 12.40625 8.296875 
L 28.515625 8.296875 
L 28.515625 63.921875 
L 10.984375 60.40625 
L 10.984375 69.390625 
L 28.421875 72.90625 
L 38.28125 72.90625 
L 38.28125 8.296875 
L 54.390625 8.296875 
L 54.390625 0 
L 12.40625 0 
z
" id="DejaVuSans-49"/>
       </defs>
       <use xlink:href="#DejaVuSans-49"/>
       <use x="63.623047" xlink:href="#DejaVuSans-48"/>
       <use x="127.246094" xlink:href="#DejaVuSans-48"/>
      </g>
     </g>
    </g>
   </g>
   <g id="matplotlib.axis_2">
    <g id="ytick_1">
     <g id="line2d_13">
      <path clip-path="url(#p0b1b790274)" d="M 38.482813 209.684397 
L 373.282813 209.684397 
" style="fill:none;stroke:#b0b0b0;stroke-linecap:square;stroke-width:0.8;"/>
     </g>
     <g id="line2d_14">
      <defs>
       <path d="M 0 0 
L -3.5 0 
" id="m7c98e5e071" style="stroke:#000000;stroke-width:0.8;"/>
      </defs>
      <g>
       <use style="stroke:#000000;stroke-width:0.8;" x="38.482813" xlink:href="#m7c98e5e071" y="209.684397"/>
      </g>
     </g>
     <g id="text_7">
      <!-- −0.6 -->
      <g transform="translate(7.2 213.483616)scale(0.1 -0.1)">
       <defs>
        <path d="M 10.59375 35.5 
L 73.1875 35.5 
L 73.1875 27.203125 
L 10.59375 27.203125 
z
" id="DejaVuSans-8722"/>
        <path d="M 10.6875 12.40625 
L 21 12.40625 
L 21 0 
L 10.6875 0 
z
" id="DejaVuSans-46"/>
       </defs>
       <use xlink:href="#DejaVuSans-8722"/>
       <use x="83.789062" xlink:href="#DejaVuSans-48"/>
       <use x="147.412109" xlink:href="#DejaVuSans-46"/>
       <use x="179.199219" xlink:href="#DejaVuSans-54"/>
      </g>
     </g>
    </g>
    <g id="ytick_2">
     <g id="line2d_15">
      <path clip-path="url(#p0b1b790274)" d="M 38.482813 178.429532 
L 373.282813 178.429532 
" style="fill:none;stroke:#b0b0b0;stroke-linecap:square;stroke-width:0.8;"/>
     </g>
     <g id="line2d_16">
      <g>
       <use style="stroke:#000000;stroke-width:0.8;" x="38.482813" xlink:href="#m7c98e5e071" y="178.429532"/>
      </g>
     </g>
     <g id="text_8">
      <!-- −0.4 -->
      <g transform="translate(7.2 182.228751)scale(0.1 -0.1)">
       <use xlink:href="#DejaVuSans-8722"/>
       <use x="83.789062" xlink:href="#DejaVuSans-48"/>
       <use x="147.412109" xlink:href="#DejaVuSans-46"/>
       <use x="179.199219" xlink:href="#DejaVuSans-52"/>
      </g>
     </g>
    </g>
    <g id="ytick_3">
     <g id="line2d_17">
      <path clip-path="url(#p0b1b790274)" d="M 38.482813 147.174667 
L 373.282813 147.174667 
" style="fill:none;stroke:#b0b0b0;stroke-linecap:square;stroke-width:0.8;"/>
     </g>
     <g id="line2d_18">
      <g>
       <use style="stroke:#000000;stroke-width:0.8;" x="38.482813" xlink:href="#m7c98e5e071" y="147.174667"/>
      </g>
     </g>
     <g id="text_9">
      <!-- −0.2 -->
      <g transform="translate(7.2 150.973886)scale(0.1 -0.1)">
       <use xlink:href="#DejaVuSans-8722"/>
       <use x="83.789062" xlink:href="#DejaVuSans-48"/>
       <use x="147.412109" xlink:href="#DejaVuSans-46"/>
       <use x="179.199219" xlink:href="#DejaVuSans-50"/>
      </g>
     </g>
    </g>
    <g id="ytick_4">
     <g id="line2d_19">
      <path clip-path="url(#p0b1b790274)" d="M 38.482813 115.919802 
L 373.282813 115.919802 
" style="fill:none;stroke:#b0b0b0;stroke-linecap:square;stroke-width:0.8;"/>
     </g>
     <g id="line2d_20">
      <g>
       <use style="stroke:#000000;stroke-width:0.8;" x="38.482813" xlink:href="#m7c98e5e071" y="115.919802"/>
      </g>
     </g>
     <g id="text_10">
      <!-- 0.0 -->
      <g transform="translate(15.579688 119.71902)scale(0.1 -0.1)">
       <use xlink:href="#DejaVuSans-48"/>
       <use x="63.623047" xlink:href="#DejaVuSans-46"/>
       <use x="95.410156" xlink:href="#DejaVuSans-48"/>
      </g>
     </g>
    </g>
    <g id="ytick_5">
     <g id="line2d_21">
      <path clip-path="url(#p0b1b790274)" d="M 38.482813 84.664936 
L 373.282813 84.664936 
" style="fill:none;stroke:#b0b0b0;stroke-linecap:square;stroke-width:0.8;"/>
     </g>
     <g id="line2d_22">
      <g>
       <use style="stroke:#000000;stroke-width:0.8;" x="38.482813" xlink:href="#m7c98e5e071" y="84.664936"/>
      </g>
     </g>
     <g id="text_11">
      <!-- 0.2 -->
      <g transform="translate(15.579688 88.464155)scale(0.1 -0.1)">
       <use xlink:href="#DejaVuSans-48"/>
       <use x="63.623047" xlink:href="#DejaVuSans-46"/>
       <use x="95.410156" xlink:href="#DejaVuSans-50"/>
      </g>
     </g>
    </g>
    <g id="ytick_6">
     <g id="line2d_23">
      <path clip-path="url(#p0b1b790274)" d="M 38.482813 53.410071 
L 373.282813 53.410071 
" style="fill:none;stroke:#b0b0b0;stroke-linecap:square;stroke-width:0.8;"/>
     </g>
     <g id="line2d_24">
      <g>
       <use style="stroke:#000000;stroke-width:0.8;" x="38.482813" xlink:href="#m7c98e5e071" y="53.410071"/>
      </g>
     </g>
     <g id="text_12">
      <!-- 0.4 -->
      <g transform="translate(15.579688 57.20929)scale(0.1 -0.1)">
       <use xlink:href="#DejaVuSans-48"/>
       <use x="63.623047" xlink:href="#DejaVuSans-46"/>
       <use x="95.410156" xlink:href="#DejaVuSans-52"/>
      </g>
     </g>
    </g>
    <g id="ytick_7">
     <g id="line2d_25">
      <path clip-path="url(#p0b1b790274)" d="M 38.482813 22.155206 
L 373.282813 22.155206 
" style="fill:none;stroke:#b0b0b0;stroke-linecap:square;stroke-width:0.8;"/>
     </g>
     <g id="line2d_26">
      <g>
       <use style="stroke:#000000;stroke-width:0.8;" x="38.482813" xlink:href="#m7c98e5e071" y="22.155206"/>
      </g>
     </g>
     <g id="text_13">
      <!-- 0.6 -->
      <g transform="translate(15.579688 25.954425)scale(0.1 -0.1)">
       <use xlink:href="#DejaVuSans-48"/>
       <use x="63.623047" xlink:href="#DejaVuSans-46"/>
       <use x="95.410156" xlink:href="#DejaVuSans-54"/>
      </g>
     </g>
    </g>
   </g>
   <g id="line2d_27">
    <path clip-path="url(#p0b1b790274)" d="M 53.700994 146.461979 
L 54.005663 144.865791 
L 54.310331 140.244066 
L 54.919668 124.122069 
L 55.833672 96.190679 
L 56.138341 89.783151 
L 56.443009 86.107519 
L 56.747677 85.547971 
L 57.052346 88.162993 
L 57.357014 93.679255 
L 57.966351 110.866199 
L 58.880355 137.99789 
L 59.185024 143.577288 
L 59.489692 146.265828 
L 59.79436 145.782494 
L 60.099029 142.177807 
L 60.708365 127.398343 
L 61.927039 91.739025 
L 62.231707 87.049994 
L 62.536375 85.378537 
L 62.841043 86.89936 
L 63.145712 91.453502 
L 63.755048 107.490385 
L 64.669053 135.468129 
L 64.973722 141.933535 
L 65.27839 145.679894 
L 65.583058 146.315623 
L 65.887727 143.774274 
L 66.192395 138.321477 
L 66.801731 121.206066 
L 67.715736 94.00549 
L 68.020405 88.36329 
L 68.325073 85.601393 
L 68.629741 86.008483 
L 68.93441 89.54201 
L 69.543746 104.222843 
L 70.762419 139.955647 
L 71.067088 144.711704 
L 71.371756 146.45833 
L 71.676424 145.012961 
L 71.981093 140.526674 
L 72.590429 124.575864 
L 73.504434 96.553437 
L 73.809102 90.030539 
L 74.113771 86.213678 
L 74.418439 85.501805 
L 74.723107 87.969329 
L 75.027776 93.358335 
L 75.637112 110.401192 
L 76.551117 137.669027 
L 76.855785 143.373693 
L 77.160454 146.208781 
L 77.465122 145.877959 
L 77.76979 142.415804 
L 78.379127 127.834479 
L 79.5978 92.030325 
L 79.902469 87.207526 
L 80.207137 85.385835 
L 80.511805 86.755662 
L 80.816473 91.173827 
L 81.42581 107.037611 
L 82.339815 135.103047 
L 82.644483 141.683047 
L 82.949152 145.570182 
L 83.25382 146.358155 
L 83.558488 143.964604 
L 83.863156 138.639712 
L 84.472493 121.670427 
L 85.386498 94.336962 
L 85.691166 88.570172 
L 85.995835 85.662061 
L 86.300503 85.916596 
L 86.605171 89.307171 
L 87.214508 103.788118 
L 88.433181 139.661483 
L 88.737849 144.550736 
L 89.042518 146.447383 
L 89.347186 145.15318 
L 89.651854 140.803401 
L 90.261191 125.02759 
L 91.175196 96.920822 
L 91.479864 90.284113 
L 91.784532 86.326936 
L 92.089201 85.462909 
L 92.393869 87.782344 
L 92.698537 93.042806 
L 93.307874 109.937504 
L 94.221879 137.334966 
L 94.526547 143.163537 
L 94.831215 146.144496 
L 95.135884 145.966264 
L 95.440552 142.64747 
L 96.049889 128.267768 
L 97.268562 92.327334 
L 97.57323 87.371919 
L 97.877898 85.400429 
L 98.182567 86.618932 
L 98.487235 90.900065 
L 99.096572 106.586959 
L 100.010577 134.73338 
L 100.315245 141.426403 
L 100.619913 145.453385 
L 100.924582 146.393413 
L 101.22925 144.148233 
L 101.533918 138.952517 
L 102.143255 122.133414 
L 103.05726 94.673591 
L 103.361928 88.783589 
L 103.666596 85.729959 
L 103.971265 85.831878 
L 104.275933 89.078692 
L 104.88527 103.356291 
L 106.103943 139.361646 
L 106.408611 144.382927 
L 106.713279 146.429141 
L 107.017948 145.286412 
L 107.322616 141.074182 
L 107.931953 125.47714 
L 108.845957 97.292748 
L 109.150626 90.543812 
L 109.455294 86.447265 
L 109.759962 85.431291 
L 110.064631 87.602083 
L 110.369299 92.732743 
L 110.978636 109.475245 
L 111.892641 136.995789 
L 112.197309 142.946871 
L 112.501977 146.072989 
L 112.806645 146.04739 
L 113.111314 142.872749 
L 113.415982 136.880891 
L 114.025319 119.179688 
L 114.939324 92.629981 
L 115.243992 87.543134 
L 115.54866 85.422317 
L 115.853328 86.489204 
L 116.157997 90.632281 
L 116.767333 106.138538 
L 117.681338 134.359218 
L 117.986007 141.163663 
L 118.290675 145.329531 
L 118.595343 146.42139 
L 118.900012 144.325116 
L 119.20468 139.259818 
L 119.814016 122.594917 
L 120.728021 95.015297 
L 121.03269 89.00349 
L 121.337358 85.805071 
L 121.642026 85.75435 
L 121.946695 88.856627 
L 122.251363 94.787643 
L 122.860699 112.425295 
L 123.774704 139.056208 
L 124.079373 144.208316 
L 124.384041 146.403609 
L 124.688709 145.412627 
L 124.993378 141.338952 
L 125.602714 125.924407 
L 126.516719 97.669124 
L 126.821387 90.809576 
L 127.126056 86.574637 
L 127.430724 85.406958 
L 127.735392 87.428589 
L 128.040061 92.428222 
L 128.649397 109.014526 
L 129.563402 136.651574 
L 129.86807 142.723747 
L 130.172739 145.994276 
L 130.477407 146.121316 
L 130.782075 143.091587 
L 131.086744 137.221767 
L 131.69608 119.64872 
L 132.610085 92.938193 
L 132.914754 87.72113 
L 133.219422 85.451492 
L 133.52409 86.366509 
L 133.828758 90.37054 
L 134.438095 105.692454 
L 135.3521 133.98065 
L 135.656768 140.894891 
L 135.961437 145.198648 
L 136.266105 146.442077 
L 136.570773 144.495211 
L 136.875441 139.561542 
L 137.484778 123.054824 
L 138.398783 95.361999 
L 138.703451 89.229824 
L 139.00812 85.88738 
L 139.312788 85.68403 
L 139.617456 88.641029 
L 139.922125 94.449302 
L 140.531461 111.956694 
L 141.445466 138.745241 
L 141.750134 144.026945 
L 142.054803 146.370792 
L 142.359471 145.531795 
L 142.664139 141.597648 
L 143.273476 126.369282 
L 144.492149 91.08134 
L 144.796817 86.709022 
L 145.101486 85.389917 
L 145.406154 87.261903 
L 145.710822 92.129314 
L 146.320159 108.555458 
L 147.234164 136.302406 
L 147.538832 142.494217 
L 147.8435 145.908377 
L 148.148169 146.188025 
L 148.452837 143.303932 
L 148.757505 137.557553 
L 149.366842 120.116861 
L 150.280847 93.251896 
L 150.585515 87.905865 
L 150.890184 85.487948 
L 151.194852 86.250876 
L 151.49952 90.114905 
L 152.108857 105.248813 
L 153.32753 140.620151 
L 153.632198 145.060769 
L 153.936867 146.455471 
L 154.241535 144.658477 
L 154.546203 139.857616 
L 155.15554 123.513027 
L 156.069545 95.713613 
L 156.374213 89.462536 
L 156.678881 85.976865 
L 156.98355 85.620935 
L 157.288218 88.43195 
L 157.592886 94.116091 
L 158.202223 111.489041 
L 159.116228 138.428819 
L 159.420896 143.838858 
L 159.725564 146.330699 
L 160.030233 145.643886 
L 160.334901 141.850207 
L 160.944238 126.81166 
L 162.162911 91.35904 
L 162.467579 86.850387 
L 162.772247 85.380171 
L 163.076916 87.102065 
L 163.381584 91.836091 
L 163.990921 108.098149 
L 164.904926 135.948367 
L 165.209594 142.258337 
L 165.514262 145.815311 
L 165.81893 146.247501 
L 166.123599 143.509733 
L 166.428267 137.888168 
L 167.037604 120.583999 
L 167.951609 93.571017 
L 168.256277 88.097294 
L 168.560945 85.531677 
L 168.865613 86.142333 
L 169.170282 89.865436 
L 169.779618 104.807723 
L 170.998292 140.339509 
L 171.30296 144.915927 
L 171.607628 146.461568 
L 171.912297 144.814877 
L 172.216965 140.14797 
L 172.826301 123.969415 
L 173.740306 96.070056 
L 174.044975 89.70157 
L 174.349643 86.073505 
L 174.654311 85.565081 
L 174.95898 88.229439 
L 175.263648 93.788091 
L 175.872984 111.022446 
L 176.786989 138.107018 
L 177.091658 143.644099 
L 177.396326 146.283339 
L 177.700994 145.748875 
L 178.005663 142.096571 
L 178.614999 127.251436 
L 179.833672 91.642608 
L 180.138341 86.998698 
L 180.443009 85.377723 
L 180.747677 86.949114 
L 181.052346 91.548623 
L 181.661682 107.642709 
L 182.575687 135.589542 
L 182.880355 142.016164 
L 183.185024 145.715102 
L 183.489692 146.29973 
L 183.79436 143.708941 
L 184.099029 138.213534 
L 184.708365 121.050023 
L 185.62237 93.895478 
L 185.927039 88.295371 
L 186.231707 85.582666 
L 186.536375 86.040906 
L 186.841043 89.622193 
L 187.45038 104.369288 
L 188.669053 140.053031 
L 188.973722 144.764156 
L 189.27839 146.460367 
L 189.583058 144.964371 
L 189.887727 140.432535 
L 190.497063 124.423879 
L 191.411068 96.431242 
L 191.715736 89.946868 
L 192.020405 86.177278 
L 192.325073 85.51648 
L 192.629741 88.033545 
L 192.93441 93.46538 
L 193.543746 110.557021 
L 194.457751 137.779916 
L 194.762419 143.442715 
L 195.067088 146.228723 
L 195.371756 145.846735 
L 195.676424 142.336679 
L 196.285761 127.688504 
L 197.504434 91.931978 
L 197.809102 87.15392 
L 198.113771 85.382574 
L 198.418439 86.803085 
L 198.723107 91.266979 
L 199.332444 107.189247 
L 200.246449 135.226017 
L 200.551117 141.767754 
L 200.855785 145.607772 
L 201.160454 146.344699 
L 201.465122 143.901509 
L 201.76979 138.533572 
L 202.379127 121.51482 
L 203.293132 94.225202 
L 203.5978 88.500049 
L 203.902469 85.640905 
L 204.207137 85.946618 
L 204.511805 89.385234 
L 205.121142 103.933614 
L 206.339815 139.760786 
L 206.644483 144.605492 
L 206.949152 146.451868 
L 207.25382 145.106925 
L 207.558488 140.711241 
L 208.167825 124.876311 
L 209.08183 96.797085 
L 209.386498 90.198374 
L 209.691166 86.288158 
L 209.995835 85.475145 
L 210.300503 87.844315 
L 210.605171 93.148034 
L 211.214508 110.092879 
L 212.128513 137.44759 
L 212.433181 143.234755 
L 212.737849 146.166864 
L 213.042518 145.937444 
L 213.347186 142.570475 
L 213.956523 128.122759 
L 215.175196 92.22708 
L 215.479864 87.316017 
L 215.784532 85.394721 
L 216.089201 86.664015 
L 216.393869 90.991226 
L 217.003206 106.737872 
L 217.917211 134.857878 
L 218.221879 141.513168 
L 218.526547 145.493349 
L 218.831215 146.382398 
L 219.135884 144.08739 
L 219.440552 138.848207 
L 220.049889 121.978281 
L 220.963894 94.56011 
L 221.268562 88.71128 
L 221.57323 85.70638 
L 221.877898 85.859493 
L 222.182567 89.154616 
L 222.791903 103.500803 
L 224.010577 139.462844 
L 224.315245 144.439973 
L 224.619913 146.436073 
L 224.924582 145.242505 
L 225.22925 140.984024 
L 225.838586 125.326603 
L 226.752591 97.167497 
L 227.05726 90.456026 
L 227.361928 86.406118 
L 227.666596 85.441085 
L 227.971265 87.661794 
L 228.275933 92.836129 
L 228.88527 109.630128 
L 229.799274 137.11012 
L 230.103943 143.020267 
L 230.408611 146.097778 
L 230.713279 146.02098 
L 231.017948 142.797902 
L 231.627284 128.554099 
L 232.845957 92.527844 
L 233.150626 87.484948 
L 233.455294 85.414163 
L 233.759962 86.531935 
L 234.064631 90.72143 
L 234.673967 106.28869 
L 235.587972 134.485214 
L 235.892641 141.252466 
L 236.197309 145.371858 
L 236.501977 146.412818 
L 236.806645 144.266541 
L 237.111314 139.157362 
L 237.72065 122.440294 
L 238.634655 94.900123 
L 238.939324 88.929012 
L 239.243992 85.779074 
L 239.54866 85.779551 
L 239.853328 88.930393 
L 240.157997 94.902263 
L 240.767333 112.582664 
L 241.681338 139.159277 
L 241.986007 144.267639 
L 242.290675 146.412985 
L 242.595343 145.371077 
L 242.900012 141.250817 
L 243.509348 125.774647 
L 244.423353 97.542391 
L 244.728021 90.719763 
L 245.03269 86.531131 
L 245.337358 85.414307 
L 245.642026 87.486025 
L 245.946695 92.529741 
L 246.556031 109.16888 
L 247.470036 136.767586 
L 247.774704 142.799303 
L 248.079373 146.02148 
L 248.384041 146.097323 
L 248.688709 143.018906 
L 248.993378 137.107995 
L 249.602714 119.491493 
L 250.516719 92.834198 
L 250.821387 87.660674 
L 251.126056 85.440895 
L 251.430724 86.406878 
L 251.735392 90.457655 
L 252.344729 105.84181 
L 253.258734 134.108113 
L 253.563402 140.98571 
L 253.86807 145.24333 
L 254.172739 146.435951 
L 254.477407 144.438917 
L 254.782075 139.460965 
L 255.391412 122.900748 
L 256.305417 95.245158 
L 256.610085 89.153195 
L 256.914754 85.858971 
L 257.219422 85.706812 
L 257.52409 88.71262 
L 257.828758 94.562219 
L 258.438095 112.11377 
L 259.3521 138.850156 
L 259.656768 144.088531 
L 259.961437 146.382611 
L 260.266105 145.492611 
L 260.570773 141.511558 
L 261.18011 126.220337 
L 262.094115 97.921676 
L 262.398783 90.989521 
L 262.703451 86.663167 
L 263.00812 85.39482 
L 263.312788 87.317051 
L 263.617456 92.228942 
L 264.226793 108.709246 
L 265.140798 136.42007 
L 265.445466 142.571916 
L 265.750134 145.937989 
L 266.054803 146.166455 
L 266.359471 143.233435 
L 266.664139 137.445497 
L 267.273476 119.959945 
L 268.187481 93.146068 
L 268.492149 87.843153 
L 268.796817 85.474909 
L 269.101486 86.288873 
L 269.406154 90.199965 
L 270.015491 105.397339 
L 271.234164 140.712965 
L 271.538832 145.107794 
L 271.8435 146.451792 
L 272.148169 144.604479 
L 272.452837 139.758942 
L 273.062174 123.359535 
L 273.976179 95.595134 
L 274.280847 89.383773 
L 274.585515 85.946052 
L 274.890184 85.641292 
L 275.194852 88.501349 
L 275.49952 94.227279 
L 276.108857 111.645787 
L 277.022862 138.535555 
L 277.32753 143.902691 
L 277.632198 146.344958 
L 277.936867 145.607079 
L 278.241535 141.766182 
L 278.850871 126.663564 
L 280.069545 91.265237 
L 280.374213 86.802195 
L 280.678881 85.382627 
L 280.98355 87.154912 
L 281.288218 91.933805 
L 281.897555 108.251335 
L 282.811559 136.067655 
L 283.116228 142.33816 
L 283.420896 145.847324 
L 283.725564 146.228359 
L 284.030233 143.441436 
L 284.334901 137.777856 
L 284.944238 120.427432 
L 285.858242 93.46338 
L 286.162911 88.032342 
L 286.467579 85.516199 
L 286.772247 86.177949 
L 287.076916 89.948421 
L 287.686252 104.955381 
L 288.904926 140.434294 
L 289.209594 144.965284 
L 289.514262 146.460337 
L 289.81893 144.763186 
L 290.123599 140.051222 
L 290.732935 123.816544 
L 291.64694 95.949966 
L 291.951609 89.620692 
L 292.256277 86.040294 
L 292.560945 85.583008 
L 292.865613 88.296629 
L 293.170282 93.897522 
L 293.779618 111.178825 
L 294.693623 138.21555 
L 294.998292 143.710165 
L 295.30296 146.300034 
L 295.607628 145.714453 
L 295.912297 142.014631 
L 296.521633 127.104225 
L 297.740306 91.546845 
L 298.044975 86.94818 
L 298.349643 85.377731 
L 298.654311 86.999647 
L 298.95898 91.644399 
L 299.568316 107.795256 
L 300.482321 135.710426 
L 300.786989 142.098091 
L 301.091658 145.749508 
L 301.396326 146.28302 
L 301.700994 143.642861 
L 302.005663 138.104991 
L 302.614999 120.893842 
L 303.529004 93.786058 
L 303.833672 88.228194 
L 304.138341 85.564755 
L 304.443009 86.074132 
L 304.747677 89.703083 
L 305.357014 104.516044 
L 306.575687 140.149766 
L 306.880355 144.815832 
L 307.185024 146.461584 
L 307.489692 144.915 
L 307.79436 140.337736 
L 308.403697 124.271665 
L 309.317702 96.309571 
L 309.62237 89.863896 
L 309.927039 86.141677 
L 310.231707 85.531973 
L 310.536375 88.098511 
L 310.841043 93.573028 
L 311.45038 110.712995 
L 312.364385 137.890218 
L 312.669053 143.510998 
L 312.973722 146.24785 
L 313.27839 145.814707 
L 313.583058 142.256844 
L 314.192395 127.542212 
L 315.411068 91.834276 
L 315.715736 87.101088 
L 316.020405 85.380133 
L 316.325073 86.851292 
L 316.629741 91.360794 
L 317.239078 107.341119 
L 318.153083 135.348468 
L 318.457751 141.851766 
L 318.762419 145.644564 
L 319.067088 146.330426 
L 319.371756 143.837662 
L 319.676424 138.426825 
L 320.285761 121.359063 
L 321.199766 94.114026 
L 321.504434 88.430664 
L 321.809102 85.620564 
L 322.113771 85.977447 
L 322.418439 89.46401 
L 323.027776 104.079432 
L 324.246449 139.859448 
L 324.551117 144.659476 
L 324.855785 146.455532 
L 325.160454 145.059886 
L 325.465122 140.618416 
L 326.074459 124.724791 
L 326.988464 96.673861 
L 327.293132 90.113327 
L 327.5978 86.250176 
L 327.902469 85.488199 
L 328.207137 87.90704 
L 328.511805 93.253874 
L 329.121142 110.24841 
L 330.035147 137.559635 
L 330.339815 143.305238 
L 330.644483 146.188419 
L 330.949152 145.907817 
L 331.25382 142.492763 
L 331.863156 127.977423 
L 333.08183 92.127464 
L 333.386498 87.260883 
L 333.691166 85.389833 
L 333.995835 86.709884 
L 334.300503 91.083057 
L 334.90984 106.889031 
L 335.823844 134.981867 
L 336.128513 141.599245 
L 336.433181 145.532517 
L 336.737849 146.370565 
L 337.042518 144.025791 
L 337.347186 138.74328 
L 337.956523 121.822985 
L 338.870527 94.447204 
L 339.175196 88.639702 
L 339.479864 85.683613 
L 339.784532 85.887917 
L 340.089201 89.231259 
L 340.698537 103.645649 
L 341.917211 139.56341 
L 342.221879 144.496252 
L 342.526547 146.442184 
L 342.831215 145.197808 
L 343.135884 140.893193 
L 343.74522 125.175813 
L 344.659225 97.042751 
L 344.963894 90.368924 
L 345.268562 86.365765 
L 345.57323 85.451698 
L 345.877898 87.722264 
L 346.182567 92.940136 
L 346.791903 109.78518 
L 347.705908 137.223881 
L 348.010577 143.092934 
L 348.315245 146.121755 
L 348.619913 145.993762 
L 348.924582 142.722332 
L 349.533918 128.409752 
L 350.752591 92.426336 
L 351.05726 87.427526 
L 351.361928 85.406829 
L 351.666596 86.575455 
L 351.971265 90.811256 
L 352.580601 106.439102 
L 353.494606 134.610711 
L 353.799274 141.340587 
L 354.103943 145.413394 
L 354.408611 146.403427 
L 354.713279 144.207204 
L 355.017948 139.054282 
L 355.627284 122.285495 
L 356.541289 94.785513 
L 356.845957 88.85526 
L 357.150626 85.753888 
L 357.455294 85.805563 
L 357.759962 89.004885 
L 358.064631 95.017448 
L 358.064631 95.017448 
" style="fill:none;stroke:#1f77b4;stroke-linecap:square;stroke-width:1.5;"/>
   </g>
   <g id="line2d_28">
    <path clip-path="url(#p0b1b790274)" d="M 53.700994 35.959343 
L 54.005663 40.059484 
L 54.310331 51.939421 
L 54.919668 93.492425 
L 55.833672 166.234492 
L 56.138341 183.299361 
L 56.443009 193.454171 
L 56.747677 195.657505 
L 57.052346 189.683402 
L 57.357014 176.144529 
L 57.966351 132.55976 
L 58.880355 61.10974 
L 59.185024 45.516477 
L 59.489692 37.143371 
L 59.79436 36.84912 
L 60.099029 44.663902 
L 60.403697 59.786276 
L 61.013034 105.159974 
L 61.927039 174.919852 
L 62.231707 188.954632 
L 62.536375 195.499381 
L 62.841043 193.882909 
L 63.145712 184.270991 
L 63.755048 145.722665 
L 64.973722 53.058487 
L 65.27839 40.660389 
L 65.583058 35.98046 
L 65.887727 39.498649 
L 66.192395 50.854149 
L 66.801731 91.734546 
L 67.715736 164.793038 
L 68.020405 182.292141 
L 68.325073 192.984481 
L 68.629741 195.773513 
L 68.93441 190.37321 
L 69.239078 177.337396 
L 69.848414 134.352698 
L 70.762419 62.462155 
L 71.067088 46.406238 
L 71.371756 37.479231 
L 71.676424 36.596634 
L 71.981093 43.848963 
L 72.285761 58.49246 
L 72.895098 103.341966 
L 73.809102 173.664012 
L 74.113771 188.187285 
L 74.418439 195.299223 
L 74.723107 194.270467 
L 75.027776 185.206519 
L 75.637112 147.419949 
L 76.855785 54.210755 
L 77.160454 41.301044 
L 77.465122 36.043801 
L 77.76979 38.978179 
L 78.074459 49.803244 
L 78.683795 89.989442 
L 79.5978 163.325769 
L 79.902469 181.249864 
L 80.207137 192.474086 
L 80.511805 195.847343 
L 80.816473 191.023693 
L 81.121142 178.497823 
L 81.730478 136.135899 
L 82.644483 63.842806 
L 82.949152 47.332717 
L 83.25382 37.856522 
L 83.558488 36.386046 
L 83.863156 43.072091 
L 84.167825 57.228977 
L 84.777161 101.530602 
L 85.691166 172.377672 
L 85.995835 187.381768 
L 86.300503 195.057138 
L 86.605171 194.616641 
L 86.90984 186.105451 
L 87.519176 149.100594 
L 88.737849 55.395618 
L 89.042518 41.981112 
L 89.347186 36.149331 
L 89.651854 38.498348 
L 89.956523 48.787261 
L 90.565859 88.258034 
L 91.784532 180.173081 
L 92.089201 191.923255 
L 92.393869 195.878956 
L 92.698537 191.634507 
L 93.003206 179.625197 
L 93.612542 137.908423 
L 94.526547 65.250963 
L 94.831215 48.295422 
L 95.135884 38.275045 
L 95.440552 36.217466 
L 95.74522 42.333698 
L 96.049889 55.996494 
L 96.659225 99.726839 
L 97.57323 171.061511 
L 97.877898 186.538505 
L 98.182567 194.773254 
L 98.487235 194.921248 
L 98.791903 186.967311 
L 99.096572 171.727152 
L 99.705908 126.226885 
L 100.619913 56.612449 
L 100.924582 42.700235 
L 101.22925 36.296995 
L 101.533918 38.059411 
L 101.838586 47.806737 
L 102.447923 86.541237 
L 103.666596 179.062359 
L 103.971265 191.332281 
L 104.275933 195.868335 
L 104.580601 192.205329 
L 104.88527 180.718921 
L 105.494606 139.669332 
L 106.408611 66.685884 
L 106.713279 49.293845 
L 107.017948 38.73458 
L 107.322616 36.090985 
L 107.627284 41.634171 
L 107.931953 54.795662 
L 108.541289 97.931628 
L 109.455294 169.716225 
L 109.759962 185.657942 
L 110.064631 194.447719 
L 110.369299 195.184127 
L 110.673967 187.791644 
L 110.978636 173.0284 
L 111.587972 128.046395 
L 112.501977 57.860606 
L 112.806645 43.458031 
L 113.111314 36.486715 
L 113.415982 37.661598 
L 113.72065 46.86219 
L 114.329987 84.839957 
L 115.54866 177.918286 
L 115.853328 190.701474 
L 116.157997 195.815486 
L 116.462665 192.735858 
L 116.767333 181.77842 
L 117.37667 141.417698 
L 118.290675 68.146809 
L 118.595343 50.32746 
L 118.900012 39.234883 
L 119.20468 36.006668 
L 119.509348 40.973882 
L 119.814016 53.627115 
L 120.423353 96.145918 
L 121.337358 168.342524 
L 121.642026 184.740544 
L 121.946695 194.080707 
L 122.251363 195.40514 
L 122.556031 188.578015 
L 122.860699 174.299485 
L 123.470036 129.8595 
L 124.384041 59.139429 
L 124.688709 44.2541 
L 124.993378 36.718391 
L 125.298046 37.305121 
L 125.602714 45.954118 
L 126.212051 83.155094 
L 127.430724 176.741466 
L 127.735392 190.031168 
L 128.040061 195.720436 
L 128.344729 193.225813 
L 128.649397 182.803133 
L 129.258734 143.152595 
L 130.477407 51.395721 
L 130.782075 39.775691 
L 131.086744 35.964561 
L 131.391412 40.353178 
L 131.69608 52.491471 
L 132.305417 94.370653 
L 133.219422 166.941134 
L 133.52409 183.786796 
L 133.828758 193.672411 
L 134.133427 195.584169 
L 134.438095 189.326009 
L 134.742763 175.539733 
L 135.3521 131.665241 
L 136.266105 60.448243 
L 136.570773 45.088023 
L 136.875441 36.991901 
L 137.18011 36.990168 
L 137.484778 45.083002 
L 137.789446 60.440448 
L 138.398783 106.065798 
L 139.312788 175.532521 
L 139.617456 189.321717 
L 139.922125 195.583237 
L 140.226793 193.674936 
L 140.531461 183.792518 
L 141.140798 144.873108 
L 142.359471 52.498062 
L 142.664139 40.356717 
L 142.968808 35.964685 
L 143.273476 39.772388 
L 143.578144 51.389329 
L 144.187481 92.60677 
L 145.101486 165.512795 
L 145.406154 182.797201 
L 145.710822 193.223047 
L 146.015491 195.72112 
L 146.320159 190.03523 
L 146.624827 176.748491 
L 147.234164 133.462666 
L 148.148169 61.786356 
L 148.452837 45.959359 
L 148.757505 37.307099 
L 149.062174 36.716904 
L 149.366842 44.249301 
L 149.67151 59.131809 
L 150.280847 104.244846 
L 151.194852 174.292088 
L 151.49952 188.573496 
L 151.804188 195.403961 
L 152.108857 194.08299 
L 152.413525 184.746054 
L 153.022862 146.578329 
L 154.241535 53.633902 
L 154.546203 40.977655 
L 154.850871 36.007041 
L 155.15554 39.231818 
L 155.460208 50.321271 
L 156.069545 90.855201 
L 156.98355 164.058261 
L 157.288218 181.772282 
L 157.592886 192.732852 
L 157.897555 195.81592 
L 158.202223 190.705305 
L 158.506891 177.92512 
L 159.116228 135.250825 
L 160.030233 63.153062 
L 160.334901 46.867646 
L 160.639569 37.66382 
L 160.944238 36.485475 
L 161.248906 43.453455 
L 161.553574 57.853165 
L 162.162911 102.43006 
L 163.076916 173.020824 
L 163.381584 187.7869 
L 163.686252 195.182701 
L 163.990921 194.449758 
L 164.295589 185.663237 
L 164.904926 148.267356 
L 166.123599 54.802641 
L 166.428267 41.638176 
L 166.732935 36.091606 
L 167.037604 38.731754 
L 167.342272 49.287862 
L 167.951609 89.116871 
L 169.170282 180.71258 
L 169.47495 192.202085 
L 169.779618 195.868521 
L 170.084287 191.335878 
L 170.388955 179.068999 
L 170.998292 137.028774 
L 171.912297 64.547639 
L 172.216965 47.812407 
L 172.521633 38.061875 
L 172.826301 36.296002 
L 173.13097 42.695886 
L 173.435638 56.605191 
L 174.044975 100.622399 
L 174.95898 171.7194 
L 175.263648 186.962344 
L 175.568316 194.919576 
L 175.872984 194.775048 
L 176.177653 186.543581 
L 176.482321 171.069348 
L 177.091658 125.320403 
L 178.005663 56.003661 
L 178.310331 42.337933 
L 178.614999 36.218336 
L 178.919668 38.27246 
L 179.224336 48.289647 
L 179.833672 87.392697 
L 181.052346 179.618655 
L 181.357014 191.631027 
L 181.661682 195.878893 
L 181.966351 191.926617 
L 182.271019 180.179522 
L 182.880355 138.795573 
L 183.79436 65.969351 
L 184.099029 48.793142 
L 184.403697 38.501054 
L 184.708365 36.148586 
L 185.013034 41.976993 
L 185.317702 55.388546 
L 185.927039 98.822818 
L 186.841043 170.388503 
L 187.145712 186.100265 
L 187.45038 194.614724 
L 187.755048 195.058687 
L 188.059717 187.386623 
L 188.364385 172.385336 
L 188.973722 127.142739 
L 189.887727 57.236328 
L 190.192395 43.076555 
L 190.497063 36.387163 
L 190.801731 37.854179 
L 191.1064 47.327154 
L 191.715736 85.683592 
L 192.93441 178.491085 
L 193.239078 191.019978 
L 193.543746 195.847032 
L 193.848414 192.47721 
L 194.153083 181.256104 
L 194.762419 140.550289 
L 195.676424 67.417446 
L 195.981093 49.809332 
L 196.285761 38.981125 
L 196.590429 36.043304 
L 196.895098 41.297155 
L 197.199766 54.203873 
L 197.809102 97.032268 
L 198.723107 169.028836 
L 199.027776 185.201116 
L 199.332444 194.268305 
L 199.637112 195.300525 
L 199.941781 188.191917 
L 200.246449 173.671498 
L 200.855785 128.959147 
L 201.76979 58.499992 
L 202.074459 43.853651 
L 202.379127 36.597999 
L 202.683795 37.477131 
L 202.988464 46.40089 
L 203.5978 83.990456 
L 204.816473 177.330465 
L 205.121142 190.369262 
L 205.42581 195.772953 
L 205.730478 192.987367 
L 206.035147 182.298176 
L 206.644483 142.291996 
L 207.558488 68.891159 
L 207.863156 50.860441 
L 208.167825 39.501834 
L 208.472493 35.980213 
L 208.777161 40.656733 
L 209.08183 53.051798 
L 209.691166 95.251694 
L 210.605171 167.641118 
L 210.90984 184.265374 
L 211.214508 193.880504 
L 211.519176 195.500435 
L 211.823844 188.959037 
L 212.128513 174.927157 
L 212.737849 130.768668 
L 213.651854 59.793984 
L 213.956523 44.668813 
L 214.261191 36.850731 
L 214.565859 37.141516 
L 214.870527 45.511346 
L 215.479864 82.314186 
L 216.698537 176.137409 
L 217.003206 189.679223 
L 217.307874 195.656697 
L 217.612542 193.456817 
L 217.917211 183.305188 
L 218.526547 144.019773 
L 219.74522 51.945913 
L 220.049889 40.062906 
L 220.354557 35.959344 
L 220.659225 40.056064 
L 220.963894 51.93293 
L 221.57323 93.482037 
L 222.487235 166.22608 
L 222.791903 183.293533 
L 223.096572 193.451525 
L 223.40124 195.658312 
L 223.705908 189.687579 
L 224.010577 176.151648 
L 224.619913 132.570346 
L 225.533918 61.117621 
L 225.838586 45.521609 
L 226.143255 37.145227 
L 226.447923 36.847511 
L 226.752591 44.658991 
L 227.05726 59.778569 
L 227.666596 105.149249 
L 228.580601 174.912547 
L 228.88527 188.950225 
L 229.189938 195.498325 
L 229.494606 193.885312 
L 229.799274 184.276607 
L 230.408611 145.732708 
L 231.627284 53.065176 
L 231.931953 40.664046 
L 232.236621 35.98071 
L 232.541289 39.495465 
L 232.845957 50.847859 
L 233.455294 91.724231 
L 234.369299 164.784472 
L 234.673967 182.286105 
L 234.978636 192.981594 
L 235.283304 195.774071 
L 235.587972 190.377157 
L 235.892641 177.344326 
L 236.501977 134.363229 
L 237.415982 62.470205 
L 237.72065 46.411588 
L 238.025319 37.481331 
L 238.329987 36.595271 
L 238.634655 43.844276 
L 238.939324 58.48493 
L 239.54866 103.331278 
L 240.462665 173.656525 
L 240.767333 188.182653 
L 241.072002 195.29792 
L 241.37667 194.272627 
L 241.681338 185.211921 
L 242.290675 147.429896 
L 243.509348 54.217639 
L 243.814016 41.304934 
L 244.118685 36.044299 
L 244.423353 38.975233 
L 244.728021 49.797158 
L 245.337358 89.979204 
L 246.251363 163.317053 
L 246.556031 181.243623 
L 246.860699 192.47096 
L 247.165368 195.847653 
L 247.470036 191.027407 
L 247.774704 178.50456 
L 248.384041 136.14637 
L 249.298046 63.85102 
L 249.602714 47.338281 
L 249.907383 37.858866 
L 250.212051 36.38493 
L 250.516719 43.06763 
L 250.821387 57.221627 
L 251.430724 101.519956 
L 252.344729 172.370007 
L 252.649397 187.376912 
L 252.954066 195.055589 
L 253.258734 194.618557 
L 253.563402 186.110635 
L 254.172739 149.110441 
L 255.391412 55.402692 
L 255.69608 41.985234 
L 256.000749 36.150077 
L 256.305417 38.495643 
L 256.610085 48.781382 
L 257.219422 88.24788 
L 258.438095 180.166638 
L 258.742763 191.919892 
L 259.047432 195.879017 
L 259.3521 191.637986 
L 259.656768 179.631737 
L 260.266105 137.918828 
L 261.18011 65.259337 
L 261.484778 48.301198 
L 261.789446 38.277632 
L 262.094115 36.216598 
L 262.398783 42.329464 
L 262.703451 55.989329 
L 263.312788 99.71624 
L 264.226793 171.053673 
L 264.531461 186.533428 
L 264.836129 194.771458 
L 265.140798 194.922918 
L 265.445466 186.972276 
L 265.750134 171.734902 
L 266.359471 126.237618 
L 267.273476 56.619709 
L 267.578144 42.704585 
L 267.882813 36.29799 
L 268.187481 38.056947 
L 268.492149 47.801069 
L 269.101486 86.531171 
L 270.320159 179.055718 
L 270.624827 191.328682 
L 270.929496 195.868147 
L 271.234164 192.208572 
L 271.538832 180.725262 
L 272.148169 139.679667 
L 273.062174 66.694412 
L 273.366842 49.29983 
L 273.67151 38.737407 
L 273.976179 36.090365 
L 274.280847 41.630167 
L 274.585515 54.788685 
L 275.194852 97.921082 
L 276.108857 169.708217 
L 276.413525 185.652647 
L 276.718193 194.445679 
L 277.022862 195.185551 
L 277.32753 187.796387 
L 277.632198 173.035975 
L 278.241535 128.057093 
L 279.15554 57.868048 
L 279.460208 43.462607 
L 279.764876 36.487957 
L 280.069545 37.659378 
L 280.374213 46.856735 
L 280.98355 84.829986 
L 282.202223 177.911451 
L 282.506891 190.697641 
L 282.811559 195.815049 
L 283.116228 192.738863 
L 283.420896 181.784557 
L 284.030233 141.427955 
L 284.944238 68.155488 
L 285.248906 50.333651 
L 285.553574 39.23795 
L 285.858242 36.006296 
L 286.162911 40.97011 
L 286.467579 53.62033 
L 287.076916 96.135432 
L 287.990921 168.334351 
L 288.295589 184.735033 
L 288.600257 194.078423 
L 288.904926 195.406317 
L 289.209594 188.582533 
L 289.514262 174.30688 
L 290.123599 129.870157 
L 291.037604 59.14705 
L 291.342272 44.258901 
L 291.64694 36.71988 
L 291.951609 37.303145 
L 292.256277 45.948879 
L 292.865613 83.145221 
L 294.084287 176.73444 
L 294.388955 190.027104 
L 294.693623 195.719752 
L 294.998292 193.228578 
L 295.30296 182.809064 
L 295.912297 143.162771 
L 297.13097 51.402113 
L 297.435638 39.778995 
L 297.740306 35.964438 
L 298.044975 40.34964 
L 298.349643 52.484881 
L 298.95898 94.360231 
L 299.872984 166.9328 
L 300.177653 183.781072 
L 300.482321 193.669885 
L 300.786989 195.585098 
L 301.091658 189.3303 
L 301.396326 175.546945 
L 302.005663 131.675852 
L 302.919668 60.456038 
L 303.224336 45.093046 
L 303.529004 36.993635 
L 303.833672 36.988436 
L 304.138341 45.077982 
L 304.443009 60.432655 
L 305.052346 106.055058 
L 305.966351 175.525307 
L 306.271019 189.317424 
L 306.575687 195.582305 
L 306.880355 193.67746 
L 307.185024 183.79824 
L 307.79436 144.883197 
L 309.013034 52.504654 
L 309.317702 40.360257 
L 309.62237 35.964811 
L 309.927039 39.769086 
L 310.231707 51.382938 
L 310.841043 92.596418 
L 311.755048 165.504305 
L 312.059717 182.791268 
L 312.364385 193.220279 
L 312.669053 195.721801 
L 312.973722 190.039292 
L 313.27839 176.755516 
L 313.887727 133.473226 
L 314.801731 61.794322 
L 315.1064 45.9646 
L 315.411068 37.309079 
L 315.715736 36.715419 
L 316.020405 44.244502 
L 316.325073 59.12419 
L 316.93441 104.234139 
L 317.848414 174.284691 
L 318.153083 188.568975 
L 318.457751 195.40278 
L 318.762419 194.085271 
L 319.067088 184.751563 
L 319.676424 146.588325 
L 320.895098 53.640689 
L 321.199766 40.981429 
L 321.504434 36.007416 
L 321.809102 39.228754 
L 322.113771 50.315083 
L 322.723107 90.844924 
L 323.637112 164.049619 
L 323.941781 181.766142 
L 324.246449 192.729845 
L 324.551117 195.816354 
L 324.855785 190.709134 
L 325.160454 177.931954 
L 325.76979 135.261327 
L 326.683795 63.161195 
L 326.988464 46.873104 
L 327.293132 37.666044 
L 327.5978 36.484236 
L 327.902469 43.448881 
L 328.207137 57.845724 
L 328.816473 102.419392 
L 329.730478 173.013247 
L 330.035147 187.782154 
L 330.339815 195.181274 
L 330.644483 194.451795 
L 330.949152 185.66853 
L 331.558488 148.277253 
L 332.777161 54.80962 
L 333.08183 41.642183 
L 333.386498 36.092229 
L 333.691166 38.72893 
L 333.995835 49.281879 
L 334.605171 89.106674 
L 335.823844 180.706237 
L 336.128513 192.19884 
L 336.433181 195.868706 
L 336.737849 191.339474 
L 337.042518 179.075637 
L 337.651854 137.039213 
L 338.565859 64.555934 
L 338.870527 47.818078 
L 339.175196 38.064342 
L 339.479864 36.295011 
L 339.784532 42.691538 
L 340.089201 56.597933 
L 340.698537 100.611776 
L 341.612542 171.711648 
L 341.917211 186.957376 
L 342.221879 194.917903 
L 342.526547 194.77684 
L 342.831215 186.548656 
L 343.135884 171.077185 
L 343.74522 125.331151 
L 344.659225 56.010828 
L 344.963894 42.342169 
L 345.268562 36.219207 
L 345.57323 38.269876 
L 345.877898 48.283873 
L 346.487235 87.382587 
L 347.705908 179.612112 
L 348.010577 191.627545 
L 348.315245 195.878829 
L 348.619913 191.929978 
L 348.924582 180.185963 
L 349.533918 138.805944 
L 350.447923 65.977803 
L 350.752591 48.799023 
L 351.05726 38.503762 
L 351.361928 36.147843 
L 351.666596 41.972874 
L 351.971265 55.381475 
L 352.580601 98.812246 
L 353.494606 170.380579 
L 353.799274 186.095077 
L 354.103943 194.612805 
L 354.408611 195.060233 
L 354.713279 187.391477 
L 355.017948 172.392998 
L 355.627284 127.153455 
L 356.541289 57.24368 
L 356.845957 43.081019 
L 357.150626 36.388282 
L 357.455294 37.851837 
L 357.759962 47.321592 
L 358.064631 63.826382 
L 358.064631 63.826382 
" style="fill:none;stroke:#ff7f0e;stroke-linecap:square;stroke-width:1.5;"/>
   </g>
   <g id="line2d_29">
    <path clip-path="url(#p0b1b790274)" d="M 53.700994 214.756364 
L 54.005663 209.808649 
L 54.310331 195.460867 
L 54.919668 145.108355 
L 55.833672 55.833267 
L 56.138341 34.323249 
L 56.443009 20.982605 
L 56.747677 17.146989 
L 57.052346 23.200418 
L 57.357014 38.53683 
L 57.966351 90.141054 
L 58.880355 178.785656 
L 59.185024 199.466582 
L 59.489692 211.782879 
L 59.79436 214.50145 
L 60.099029 207.350114 
L 60.403697 191.044856 
L 61.013034 138.25549 
L 61.927039 50.355723 
L 62.231707 30.530568 
L 62.536375 19.254506 
L 62.841043 17.656488 
L 63.145712 25.896505 
L 63.45038 43.149575 
L 64.059717 97.055986 
L 64.973722 184.097527 
L 65.27839 203.041338 
L 65.583058 213.262618 
L 65.887727 213.738022 
L 66.192395 204.419953 
L 66.497063 186.241328 
L 67.1064 131.287411 
L 68.020405 45.216378 
L 68.325073 27.178349 
L 68.629741 18.025036 
L 68.93441 18.672859 
L 69.239078 29.056959 
L 69.848414 74.004706 
L 71.067088 189.057717 
L 71.371756 206.166695 
L 71.676424 214.240234 
L 71.981093 212.470019 
L 72.285761 201.033283 
L 72.895098 154.593551 
L 74.113771 40.441742 
L 74.418439 24.283886 
L 74.723107 17.300535 
L 75.027776 20.190858 
L 75.332444 32.665477 
L 75.941781 80.537287 
L 77.160454 193.64064 
L 77.465122 208.826531 
L 77.76979 214.710684 
L 78.074459 210.703982 
L 78.379127 197.207572 
L 78.988464 147.965438 
L 79.902469 58.24663 
L 80.511805 21.862107 
L 80.816473 17.084742 
L 81.121142 22.202656 
L 81.42581 36.703446 
L 82.035147 87.252382 
L 82.949152 176.438142 
L 83.25382 197.822655 
L 83.558488 211.007128 
L 83.863156 214.671542 
L 84.167825 208.449019 
L 84.472493 192.962554 
L 85.08183 141.172024 
L 85.995835 52.63436 
L 86.300503 32.083105 
L 86.605171 19.925506 
L 86.90984 17.37877 
L 87.214508 24.697874 
L 87.519176 41.150036 
L 88.128513 94.115352 
L 89.042518 181.890706 
L 89.347186 201.582192 
L 89.651854 212.697235 
L 89.956523 214.123008 
L 90.261191 205.716764 
L 90.565859 188.320128 
L 91.175196 134.248351 
L 92.089201 47.348536 
L 92.393869 28.542221 
L 92.698537 18.484072 
L 93.003206 18.181101 
L 93.307874 27.663642 
L 93.612542 45.982311 
L 94.221879 101.090796 
L 95.135884 187.002973 
L 95.440552 204.899856 
L 95.74522 213.888136 
L 96.049889 213.067914 
L 96.354557 202.521309 
L 96.963894 157.340698 
L 98.182567 42.416422 
L 98.487235 25.452056 
L 98.791903 17.54524 
L 99.096572 19.487597 
L 99.40124 31.084661 
L 100.010577 77.748184 
L 101.22925 191.748571 
L 101.533918 207.758536 
L 101.838586 214.573688 
L 102.143255 211.511701 
L 102.447923 198.879138 
L 103.05726 150.7929 
L 104.275933 37.863461 
L 104.580601 22.82855 
L 104.88527 17.113853 
L 105.189938 21.29152 
L 105.494606 34.943286 
L 106.103943 84.390209 
L 107.017948 174.034689 
L 107.627284 210.143483 
L 107.931953 214.750353 
L 108.236621 209.462396 
L 108.541289 194.809038 
L 109.150626 144.065216 
L 110.064631 54.971495 
L 110.369299 33.713137 
L 110.673967 20.685237 
L 110.978636 17.192137 
L 111.283304 23.583563 
L 111.587972 39.219611 
L 112.197309 91.194873 
L 113.111314 179.622906 
L 113.415982 200.043865 
L 113.72065 212.042397 
L 114.025319 214.417221 
L 114.329987 206.930572 
L 114.634655 190.332004 
L 115.243992 137.192349 
L 116.157997 49.544077 
L 116.462665 29.98686 
L 116.767333 19.033172 
L 117.072002 17.779687 
L 117.37667 26.351904 
L 117.681338 43.891578 
L 118.290675 98.127076 
L 119.20468 184.882523 
L 119.509348 203.55077 
L 119.814016 213.445483 
L 120.118685 213.576011 
L 120.423353 203.929286 
L 120.728021 185.47113 
L 121.337358 130.209753 
L 122.251363 44.459045 
L 122.556031 26.70385 
L 122.860699 17.880877 
L 123.165368 18.873473 
L 123.470036 29.582262 
L 124.079373 74.994364 
L 125.298046 189.786411 
L 125.602714 206.605649 
L 125.907383 214.345501 
L 126.212051 212.23106 
L 126.516719 200.474022 
L 127.126056 153.588127 
L 128.344729 39.742628 
L 128.649397 23.881042 
L 128.954066 17.234295 
L 129.258734 20.467853 
L 129.563402 33.257975 
L 130.172739 81.55718 
L 131.391412 194.309272 
L 131.69608 209.192744 
L 132.000749 214.737811 
L 132.305417 210.389308 
L 132.610085 196.582602 
L 133.219422 146.932392 
L 134.133427 57.364967 
L 134.438095 35.419156 
L 134.742763 21.532998 
L 135.047432 17.096763 
L 135.3521 22.554602 
L 135.656768 37.360082 
L 136.266105 88.297249 
L 137.18011 177.296222 
L 137.484778 198.427778 
L 137.789446 211.298709 
L 138.094115 214.620389 
L 138.398783 208.060254 
L 138.703451 192.275099 
L 139.312788 140.116684 
L 140.226793 51.800972 
L 140.531461 31.51093 
L 140.836129 19.671829 
L 141.140798 17.468989 
L 141.445466 25.122957 
L 141.750134 41.867424 
L 142.359471 95.179803 
L 143.273476 182.698329 
L 143.578144 202.120683 
L 143.882812 212.912681 
L 144.187481 213.993839 
L 144.492149 205.255912 
L 144.796817 187.573733 
L 145.406154 133.176163 
L 146.320159 46.567721 
L 146.624827 28.03811 
L 146.929496 18.307135 
L 147.234164 18.349054 
L 147.538832 28.159668 
L 147.8435 46.75675 
L 148.452837 102.169339 
L 149.366842 187.755972 
L 149.67151 205.368938 
L 149.976179 214.026336 
L 150.280847 212.861395 
L 150.585515 201.990748 
L 151.194852 156.348535 
L 152.413525 41.692209 
L 152.718193 25.01861 
L 153.022862 17.445956 
L 153.32753 19.732417 
L 153.632198 31.649073 
L 154.241535 78.755914 
L 155.460208 192.443063 
L 155.764876 208.155788 
L 156.069545 214.633928 
L 156.374213 211.228897 
L 156.678881 198.281605 
L 157.288218 149.770901 
L 158.506891 37.199585 
L 158.811559 22.468005 
L 159.116228 17.092735 
L 159.420896 21.611943 
L 159.725564 35.57317 
L 160.334901 85.425157 
L 161.248906 174.912804 
L 161.553574 196.735425 
L 161.858242 210.466857 
L 162.162911 214.732323 
L 162.467579 209.104767 
L 162.772247 194.147615 
L 163.381584 143.018653 
L 164.295589 54.117135 
L 164.600257 33.113023 
L 164.904926 20.399452 
L 165.209594 17.249293 
L 165.514262 23.977938 
L 165.81893 39.91172 
L 166.428267 92.2517 
L 167.342272 180.452407 
L 167.64694 200.610916 
L 167.951609 212.290225 
L 168.256277 214.321014 
L 168.560945 206.49996 
L 168.865613 189.610102 
L 169.47495 136.126621 
L 170.388955 48.740503 
L 170.693623 29.453603 
L 170.998292 18.823621 
L 171.30296 17.914823 
L 171.607628 26.818195 
L 171.912297 44.642342 
L 172.521633 99.20033 
L 173.435638 185.659132 
L 173.740306 204.049545 
L 174.044975 213.616486 
L 174.349643 213.402122 
L 174.654311 203.427915 
L 174.95898 184.692474 
L 175.568316 129.130357 
L 176.482321 43.710402 
L 176.786989 26.240201 
L 177.091658 17.748641 
L 177.396326 19.085891 
L 177.700994 30.118066 
L 178.310331 75.989001 
L 179.529004 190.506121 
L 179.833672 207.033574 
L 180.138341 214.438798 
L 180.443009 211.980388 
L 180.747677 199.904477 
L 181.357014 152.578121 
L 182.575687 39.052779 
L 182.880355 23.489393 
L 183.185024 17.180058 
L 183.489692 20.756457 
L 183.79436 33.860526 
L 184.403697 82.581253 
L 185.62237 194.968371 
L 185.927039 209.547612 
L 186.231707 214.75292 
L 186.536375 210.063144 
L 186.841043 195.947821 
L 187.45038 145.895574 
L 188.364385 56.490425 
L 188.669053 34.791658 
L 188.973722 21.215368 
L 189.27839 17.120803 
L 189.583058 22.917904 
L 189.887727 38.026273 
L 190.497063 89.345475 
L 191.411068 178.146836 
L 191.715736 199.022865 
L 192.020405 211.57869 
L 192.325073 214.557232 
L 192.629741 207.660282 
L 192.93441 191.578357 
L 193.543746 139.058402 
L 194.457751 50.975382 
L 194.762419 30.94902 
L 195.067088 19.429857 
L 195.371756 17.571182 
L 195.676424 25.559083 
L 195.981093 42.593818 
L 196.590429 96.246775 
L 197.504434 183.497829 
L 197.809102 202.648689 
L 198.113771 213.116331 
L 198.418439 213.852742 
L 198.723107 204.784195 
L 199.027776 186.818623 
L 199.637112 132.101875 
L 200.551117 45.795341 
L 200.855785 27.544687 
L 201.160454 18.14207 
L 201.465122 18.528873 
L 201.76979 28.666369 
L 202.379127 73.258997 
L 203.5978 188.500235 
L 203.902469 205.82714 
L 204.207137 214.152603 
L 204.511805 212.643085 
L 204.816473 201.449719 
L 205.42581 155.351456 
L 206.644483 40.977024 
L 206.949152 24.596219 
L 207.25382 17.358649 
L 207.558488 19.988935 
L 207.863156 32.223733 
L 208.472493 79.768165 
L 209.691166 193.128249 
L 209.995835 208.541822 
L 210.300503 214.682162 
L 210.605171 210.934501 
L 210.90984 197.674054 
L 211.519176 148.744786 
L 212.737849 36.545283 
L 213.042518 22.118825 
L 213.347186 17.083636 
L 213.651854 21.943837 
L 213.956523 36.212827 
L 214.565859 86.463814 
L 215.479864 175.783746 
L 215.784532 197.357999 
L 216.089201 210.778733 
L 216.393869 214.702275 
L 216.698537 208.735803 
L 217.003206 193.476677 
L 217.612542 141.968795 
L 218.526547 53.270292 
L 218.831215 32.52298 
L 219.135884 20.125284 
L 219.440552 17.318449 
L 219.74522 24.383495 
L 220.049889 40.613073 
L 220.659225 93.311405 
L 221.57323 181.274061 
L 221.877898 201.167667 
L 222.182567 212.526332 
L 222.487235 214.212838 
L 222.791903 206.058333 
L 223.096572 188.879238 
L 223.705908 135.058436 
L 224.619913 47.9451 
L 224.924582 28.930862 
L 225.22925 18.625879 
L 225.533918 18.061878 
L 225.838586 27.295324 
L 226.143255 45.401774 
L 226.752591 100.275618 
L 227.666596 186.427259 
L 227.971265 204.537601 
L 228.275933 213.775607 
L 228.580601 213.216377 
L 228.88527 202.915901 
L 229.494606 158.088342 
L 230.713279 42.970542 
L 231.017948 25.787459 
L 231.322616 17.628346 
L 231.627284 19.310086 
L 231.931953 30.664304 
L 232.541289 76.988494 
L 233.759962 191.216759 
L 234.064631 207.450418 
L 234.369299 214.520113 
L 234.673967 211.718032 
L 234.978636 199.324718 
L 235.587972 151.563657 
L 236.806645 38.372278 
L 237.111314 23.108985 
L 237.415982 17.137829 
L 237.72065 21.056636 
L 238.025319 34.473058 
L 238.634655 83.60938 
L 239.853328 195.617856 
L 240.157997 209.891093 
L 240.462665 214.756008 
L 240.767333 209.725531 
L 241.072002 195.303307 
L 241.681338 144.85511 
L 242.595343 55.623111 
L 242.900012 34.174027 
L 243.20468 20.909257 
L 243.509348 17.156858 
L 243.814016 23.292518 
L 244.118685 38.701938 
L 244.728021 90.396933 
L 245.642026 178.989882 
L 245.946695 199.607846 
L 246.251363 211.847036 
L 246.556031 214.482078 
L 246.860699 207.249152 
L 247.165368 190.872413 
L 247.774704 137.997306 
L 248.688709 50.15769 
L 248.993378 30.397445 
L 249.298046 19.199622 
L 249.602714 17.685337 
L 249.907383 26.006199 
L 250.212051 43.329131 
L 250.821387 97.316141 
L 251.735392 184.289111 
L 252.040061 203.166148 
L 252.344729 213.308159 
L 252.649397 213.699734 
L 252.954066 204.301669 
L 253.258734 186.054891 
L 253.86807 131.02562 
L 254.782075 45.03149 
L 255.086744 27.062013 
L 255.391412 17.988897 
L 255.69608 18.720537 
L 256.000749 29.183681 
L 256.610085 74.244808 
L 257.828758 189.23567 
L 258.133427 206.274408 
L 258.438095 214.266923 
L 258.742763 212.413012 
L 259.047432 200.898287 
L 259.656768 154.34958 
L 260.875441 40.270953 
L 261.18011 24.184935 
L 261.484778 17.28333 
L 261.789446 20.25712 
L 262.094115 32.808573 
L 262.703451 80.784812 
L 263.922125 193.804044 
L 264.226793 208.916592 
L 264.531461 214.718384 
L 264.836129 210.62855 
L 265.140798 197.05656 
L 265.750134 147.714678 
L 266.664139 58.031665 
L 267.273476 21.781053 
L 267.578144 17.086558 
L 267.882813 22.28716 
L 268.187481 36.862178 
L 268.796817 87.506053 
L 269.710822 176.647406 
L 270.015491 197.970668 
L 270.320159 211.079071 
L 270.624827 214.660212 
L 270.929496 208.355552 
L 271.234164 192.796306 
L 271.8435 140.915769 
L 272.757505 52.431068 
L 273.062174 31.94308 
L 273.366842 19.862767 
L 273.67151 17.399598 
L 273.976179 24.800185 
L 274.280847 41.323586 
L 274.890184 94.37386 
L 275.804188 182.087765 
L 276.108857 201.71405 
L 276.413525 212.75069 
L 276.718193 214.092708 
L 277.022862 205.605742 
L 277.32753 188.1395 
L 277.936867 133.987923 
L 278.850871 47.157964 
L 279.15554 28.418701 
L 279.460208 18.439971 
L 279.764876 18.220834 
L 280.069545 27.783231 
L 280.374213 46.169783 
L 280.98355 101.352808 
L 281.897555 187.186811 
L 282.202223 205.014879 
L 282.506891 213.922827 
L 282.811559 213.018799 
L 283.116228 202.393307 
L 283.725564 157.099981 
L 284.944238 42.239554 
L 285.248906 25.345679 
L 285.553574 17.520005 
L 285.858242 19.54603 
L 286.162911 31.220912 
L 286.772247 77.992721 
L 287.990921 191.91824 
L 288.295589 207.856129 
L 288.600257 214.589435 
L 288.904926 211.444025 
L 289.209594 198.734815 
L 289.81893 150.544857 
L 291.037604 37.701209 
L 291.342272 22.739865 
L 291.64694 17.107614 
L 291.951609 21.368351 
L 292.256277 35.095495 
L 292.865613 84.641437 
L 293.779618 174.248796 
L 294.084287 196.257647 
L 294.388955 210.223145 
L 294.693623 214.747076 
L 294.998292 209.376509 
L 295.30296 194.649139 
L 295.912297 143.811127 
L 296.826301 54.763131 
L 297.13097 33.566338 
L 297.435638 20.614701 
L 297.740306 17.204926 
L 298.044975 23.678396 
L 298.349643 39.386994 
L 298.95898 91.451496 
L 299.872984 179.825258 
L 300.177653 200.182648 
L 300.482321 212.103716 
L 300.786989 214.394937 
L 301.091658 206.826915 
L 301.396326 190.157353 
L 302.005663 136.933525 
L 302.919668 49.347997 
L 303.224336 29.856271 
L 303.529004 18.981149 
L 303.833672 17.811439 
L 304.138341 26.46425 
L 304.443009 44.073272 
L 305.052346 98.387769 
L 305.966351 185.072077 
L 306.271019 203.672995 
L 306.575687 213.488142 
L 306.880355 213.534834 
L 307.185024 203.808395 
L 307.489692 185.282629 
L 308.099029 129.947527 
L 309.013034 44.276261 
L 309.317702 26.590145 
L 309.62237 17.847635 
L 309.927039 18.924023 
L 310.231707 29.711542 
L 310.841043 75.235688 
L 312.059717 189.962188 
L 312.364385 206.710686 
L 312.669053 214.369282 
L 312.973722 212.171203 
L 313.27839 200.33652 
L 313.887727 153.343031 
L 315.1064 39.574083 
L 315.411068 23.784808 
L 315.715736 17.220007 
L 316.020405 20.536941 
L 316.325073 33.403522 
L 316.93441 81.805733 
L 318.153083 194.470367 
L 318.457751 209.280051 
L 318.762419 214.74259 
L 319.067088 210.311079 
L 319.371756 196.429198 
L 319.981093 146.680703 
L 320.895098 57.151723 
L 321.199766 35.26572 
L 321.504434 21.454731 
L 321.809102 17.101501 
L 322.113771 22.641871 
L 322.418439 37.521145 
L 323.027776 88.551748 
L 323.941781 177.50368 
L 324.246449 198.573358 
L 324.551117 211.367835 
L 324.855785 214.606141 
L 325.160454 207.964057 
L 325.465122 192.106585 
L 326.074459 139.859702 
L 326.988464 51.599566 
L 327.293132 31.373393 
L 327.5978 19.611932 
L 327.902469 17.492729 
L 328.207137 25.227957 
L 328.511805 42.043171 
L 329.121142 95.438936 
L 330.035147 182.893422 
L 330.339815 202.249998 
L 330.644483 212.963271 
L 330.949152 213.960638 
L 331.25382 205.142244 
L 331.558488 187.390979 
L 332.167825 132.915212 
L 333.08183 46.379191 
L 333.386498 27.917183 
L 333.691166 18.265918 
L 333.995835 18.391673 
L 334.300503 28.281858 
L 334.605171 46.946275 
L 335.214508 102.43177 
L 336.128513 187.937695 
L 336.433181 205.481321 
L 336.737849 214.058127 
L 337.042518 212.809412 
L 337.347186 201.860195 
L 337.956523 156.106612 
L 339.175196 41.517528 
L 339.479864 24.914915 
L 339.784532 17.423632 
L 340.089201 19.793696 
L 340.393869 31.787821 
L 341.003206 79.001562 
L 342.221879 192.610478 
L 342.526547 208.250659 
L 342.831215 214.646757 
L 343.135884 211.1584 
L 343.440552 198.13484 
L 344.049889 149.521847 
L 345.268562 37.039653 
L 345.57323 22.382078 
L 345.877898 17.089418 
L 346.182567 21.691567 
L 346.487235 35.727763 
L 347.096572 85.677298 
L 348.010577 175.125177 
L 348.315245 196.887668 
L 348.619913 210.543728 
L 348.924582 214.726124 
L 349.22925 209.01612 
L 349.533918 193.985395 
L 350.143255 142.763752 
L 351.05726 53.910588 
L 351.361928 32.968666 
L 351.666596 20.331737 
L 351.971265 17.265 
L 352.275933 24.075494 
L 352.580601 40.081358 
L 353.189938 92.509034 
L 354.103943 180.652861 
L 354.408611 200.747201 
L 354.713279 212.348698 
L 355.017948 214.295819 
L 355.322616 206.393621 
L 355.627284 189.433265 
L 356.236621 135.867187 
L 357.150626 48.546401 
L 357.455294 29.325565 
L 357.759962 18.774467 
L 358.064631 17.949473 
L 358.064631 17.949473 
" style="fill:none;stroke:#2ca02c;stroke-linecap:square;stroke-width:1.5;"/>
   </g>
   <g id="line2d_30">
    <path clip-path="url(#p0b1b790274)" d="M 53.700994 35.959343 
L 54.005663 39.853233 
L 54.310331 51.155654 
L 54.919668 90.968536 
L 55.833672 162.558028 
L 56.443009 191.787663 
L 56.747677 195.877724 
L 57.052346 192.180254 
L 57.357014 181.055368 
L 57.966351 141.475266 
L 59.185024 51.910792 
L 59.489692 40.25546 
L 59.79436 35.969486 
L 60.099029 39.470303 
L 60.403697 50.416947 
L 61.013034 89.761759 
L 62.231707 179.545142 
L 62.536375 191.375825 
L 62.841043 195.85744 
L 63.145712 192.553499 
L 63.45038 181.78579 
L 64.059717 142.678764 
L 65.27839 52.682167 
L 65.583058 40.676882 
L 65.887727 35.999911 
L 66.192395 39.106767 
L 66.497063 49.694857 
L 67.1064 88.561617 
L 68.325073 178.765721 
L 68.629741 190.944845 
L 68.93441 195.816877 
L 69.239078 192.907303 
L 69.543746 182.499502 
L 70.153083 143.875473 
L 71.371756 53.469585 
L 71.676424 41.117393 
L 71.981093 36.05061 
L 72.285761 38.762717 
L 72.590429 48.989568 
L 73.199766 87.368416 
L 74.418439 177.970356 
L 74.723107 190.494832 
L 75.027776 195.756044 
L 75.332444 193.241576 
L 75.637112 183.196324 
L 76.246449 145.06509 
L 77.465122 54.272845 
L 77.76979 41.57688 
L 78.074459 36.121571 
L 78.379127 38.438241 
L 78.683795 48.301257 
L 79.293132 86.182458 
L 80.511805 177.15925 
L 80.816473 190.0259 
L 81.121142 195.674959 
L 81.42581 193.556234 
L 81.730478 183.876079 
L 82.339815 146.247314 
L 83.558488 55.091745 
L 83.863156 42.055226 
L 84.167825 36.212776 
L 84.472493 38.133421 
L 84.777161 47.630101 
L 85.386498 85.004044 
L 86.605171 176.332609 
L 86.90984 189.538169 
L 87.214508 195.57364 
L 87.519176 193.851196 
L 87.823844 184.538595 
L 88.433181 147.421844 
L 89.651854 55.926076 
L 89.956523 42.552311 
L 90.261191 36.324201 
L 90.565859 37.848335 
L 90.870527 46.976269 
L 91.479864 83.833473 
L 92.698537 175.490641 
L 93.003206 189.031762 
L 93.307874 195.452115 
L 93.612542 194.126389 
L 93.917211 185.183702 
L 94.526547 148.588382 
L 95.74522 56.775626 
L 96.049889 43.068009 
L 96.354557 36.455819 
L 96.659225 37.583054 
L 96.963894 46.339926 
L 97.57323 82.671042 
L 98.791903 174.633562 
L 99.096572 188.506807 
L 99.40124 195.310413 
L 99.705908 194.381741 
L 100.010577 185.811238 
L 100.619913 149.746633 
L 101.838586 57.640181 
L 102.143255 43.602188 
L 102.447923 36.607596 
L 102.752591 37.337647 
L 103.05726 45.721236 
L 103.666596 81.517045 
L 104.88527 173.761587 
L 105.189938 187.963438 
L 105.494606 195.148571 
L 105.799274 194.617188 
L 106.103943 186.421044 
L 106.713279 150.896302 
L 107.931953 58.51952 
L 108.236621 44.154713 
L 108.541289 36.779493 
L 108.845957 37.112174 
L 109.150626 45.120354 
L 109.455294 60.024072 
L 110.064631 104.181693 
L 110.978636 172.874939 
L 111.283304 187.401792 
L 111.587972 194.96663 
L 111.892641 194.832672 
L 112.197309 187.012965 
L 112.501977 172.269113 
L 113.111314 128.287426 
L 114.025319 59.413421 
L 114.329987 44.725444 
L 114.634655 36.971467 
L 114.939324 36.906694 
L 115.243992 44.537432 
L 115.54866 59.120483 
L 116.157997 102.923446 
L 117.072002 171.973842 
L 117.37667 186.822012 
L 117.681338 194.764635 
L 117.986007 195.028136 
L 118.290675 187.58685 
L 118.595343 173.165525 
L 119.20468 129.544065 
L 120.118685 60.321657 
L 120.423353 45.314235 
L 120.728021 37.18347 
L 121.03269 36.721259 
L 121.337358 43.97262 
L 121.642026 58.231303 
L 122.251363 101.668496 
L 123.165368 171.058525 
L 123.470036 186.224246 
L 123.774704 194.542639 
L 124.079373 195.203531 
L 124.384041 188.142554 
L 124.688709 174.047415 
L 125.298046 130.797247 
L 126.212051 61.243997 
L 126.516719 45.920939 
L 126.821387 37.415446 
L 127.126056 36.555915 
L 127.430724 43.426059 
L 127.735392 57.356759 
L 128.344729 100.41716 
L 129.258734 170.129219 
L 129.563402 185.608644 
L 129.86807 194.300697 
L 130.172739 195.358813 
L 130.477407 188.679937 
L 130.782075 174.914559 
L 131.391412 132.046655 
L 132.305417 62.180208 
L 132.610085 46.5454 
L 132.914754 37.667338 
L 133.219422 36.410704 
L 133.52409 42.897889 
L 133.828758 56.497071 
L 134.438095 99.169758 
L 135.3521 169.186162 
L 135.656768 184.975362 
L 135.961437 194.03887 
L 136.266105 195.493942 
L 136.570773 189.19886 
L 136.875441 175.766737 
L 137.484778 133.291972 
L 138.398783 63.130052 
L 138.703451 47.187461 
L 139.00812 37.939082 
L 139.312788 36.285665 
L 139.617456 42.388244 
L 139.922125 55.652457 
L 140.531461 97.926605 
L 141.445466 168.229592 
L 141.750134 184.324563 
L 142.054803 193.757226 
L 142.359471 195.608885 
L 142.664139 189.699195 
L 142.968808 176.603733 
L 143.578144 134.532882 
L 144.492149 64.093288 
L 144.796817 47.846958 
L 145.101486 38.230608 
L 145.406154 36.180827 
L 145.710822 41.897253 
L 146.015491 54.823133 
L 146.624827 96.688017 
L 147.538832 167.259751 
L 147.8435 183.65641 
L 148.148169 193.455836 
L 148.452837 195.703611 
L 148.757505 190.180812 
L 149.062174 177.425333 
L 149.67151 135.769071 
L 150.585515 65.069672 
L 150.890184 48.523725 
L 151.194852 38.541843 
L 151.49952 36.096218 
L 151.804188 41.42504 
L 152.108857 54.009308 
L 152.718193 95.454307 
L 153.632198 166.276886 
L 153.936867 182.971073 
L 154.241535 193.134776 
L 154.546203 195.778097 
L 154.850871 190.64359 
L 155.15554 178.231331 
L 155.764876 137.000223 
L 156.678881 66.058956 
L 156.98355 49.217588 
L 157.288218 38.872708 
L 157.592886 36.031859 
L 157.897555 40.971726 
L 158.202223 53.211189 
L 158.811559 94.22579 
L 159.725564 165.281246 
L 160.030233 182.268726 
L 160.334901 192.794127 
L 160.639569 195.832325 
L 160.944238 191.087412 
L 161.248906 179.021521 
L 161.858242 138.226028 
L 162.772247 67.060889 
L 163.076916 49.928374 
L 163.381584 39.223119 
L 163.686252 35.987766 
L 163.990921 40.537425 
L 164.295589 52.428978 
L 164.904926 93.002775 
L 165.81893 164.273084 
L 166.123599 181.549548 
L 166.428267 192.433977 
L 166.732935 195.866279 
L 167.037604 191.512164 
L 167.342272 179.795703 
L 167.951609 139.446174 
L 168.865613 68.075216 
L 169.170282 50.6559 
L 169.47495 39.592986 
L 169.779618 35.963952 
L 170.084287 40.122247 
L 170.388955 51.662874 
L 170.998292 91.785575 
L 171.912297 163.252656 
L 172.521633 192.054416 
L 172.826301 195.879953 
L 173.13097 191.91774 
L 173.435638 180.55368 
L 174.044975 140.660352 
L 174.95898 69.101681 
L 175.568316 39.982217 
L 175.872984 35.960421 
L 176.177653 39.726298 
L 176.482321 50.913071 
L 177.091658 90.574497 
L 178.310331 180.061429 
L 178.614999 191.65554 
L 178.919668 195.873341 
L 179.224336 192.304037 
L 179.529004 181.295261 
L 180.138341 141.868253 
L 181.357014 52.160434 
L 181.661682 40.390712 
L 181.966351 35.977174 
L 182.271019 39.349679 
L 182.575687 50.17976 
L 183.185024 89.369849 
L 184.403697 179.292866 
L 184.708365 191.237452 
L 185.013034 195.846446 
L 185.317702 192.670955 
L 185.62237 182.020257 
L 186.231707 143.069572 
L 187.45038 52.93706 
L 187.755048 40.818368 
L 188.059717 36.014209 
L 188.364385 38.992484 
L 188.669053 49.463126 
L 189.27839 88.171936 
L 190.497063 178.508226 
L 190.801731 190.800256 
L 191.1064 195.799275 
L 191.411068 193.018403 
L 191.715736 182.728484 
L 192.325073 144.264003 
L 193.543746 53.729663 
L 193.848414 41.265076 
L 194.153083 36.071514 
L 194.457751 38.654805 
L 194.762419 48.763351 
L 195.371756 86.981063 
L 196.590429 177.707709 
L 196.895098 190.344064 
L 197.199766 195.73184 
L 197.504434 193.346292 
L 197.809102 183.419762 
L 198.418439 145.451243 
L 199.637112 54.538044 
L 199.941781 41.730723 
L 200.246449 36.149075 
L 200.551117 38.336727 
L 200.855785 48.080612 
L 201.465122 85.79753 
L 202.683795 176.891517 
L 202.988464 189.868992 
L 203.293132 195.644157 
L 203.5978 193.654539 
L 203.902469 184.093917 
L 204.511805 146.630992 
L 205.730478 55.361996 
L 206.035147 42.21519 
L 206.339815 36.246873 
L 206.644483 38.038331 
L 206.949152 47.415084 
L 207.558488 84.62164 
L 208.777161 176.059857 
L 209.08183 189.375159 
L 209.386498 195.53625 
L 209.691166 193.943066 
L 209.995835 184.750777 
L 210.605171 147.80295 
L 211.823844 56.201311 
L 212.128513 42.718356 
L 212.433181 36.364883 
L 212.737849 37.759692 
L 213.042518 46.766934 
L 213.651854 83.453689 
L 214.870527 175.21294 
L 215.175196 188.862693 
L 215.479864 195.408144 
L 215.784532 194.211799 
L 216.089201 185.390175 
L 216.698537 148.966819 
L 217.917211 57.055776 
L 218.221879 43.240092 
L 218.526547 36.503076 
L 218.831215 37.500882 
L 219.135884 46.136328 
L 219.74522 82.293975 
L 220.963894 174.350982 
L 221.268562 188.331721 
L 221.57323 195.259874 
L 221.877898 194.460671 
L 222.182567 186.01195 
L 222.791903 150.122305 
L 224.010577 57.925173 
L 224.315245 43.780265 
L 224.619913 36.661415 
L 224.924582 37.261965 
L 225.22925 45.523425 
L 225.838586 81.142791 
L 227.05726 173.4742 
L 227.361928 187.782379 
L 227.666596 195.091476 
L 227.971265 194.689617 
L 228.275933 186.615943 
L 228.88527 151.269114 
L 230.103943 58.809283 
L 230.408611 44.33874 
L 230.713279 36.839861 
L 231.017948 37.043003 
L 231.322616 44.92838 
L 231.627284 59.727993 
L 232.236621 103.771246 
L 233.150626 172.582818 
L 233.455294 187.214807 
L 233.759962 194.902993 
L 234.064631 194.898581 
L 234.369299 187.202002 
L 234.673967 172.562865 
L 235.283304 128.697366 
L 236.197309 59.707882 
L 236.501977 44.915374 
L 236.806645 37.038368 
L 237.111314 36.84405 
L 237.415982 44.351345 
L 237.72065 58.829076 
L 238.329987 102.514038 
L 239.243992 171.67706 
L 239.54866 186.629149 
L 239.853328 194.694474 
L 240.157997 195.08751 
L 240.462665 187.769977 
L 240.767333 173.454569 
L 241.37667 129.952914 
L 242.290675 60.62074 
L 242.595343 45.51002 
L 242.900012 37.256887 
L 243.20468 36.665158 
L 243.509348 43.792465 
L 243.814016 57.944642 
L 244.423353 101.260231 
L 245.337358 170.757158 
L 245.642026 186.025552 
L 245.946695 194.46597 
L 246.251363 195.256354 
L 246.556031 188.319724 
L 246.860699 174.331677 
L 247.470036 131.204901 
L 248.384041 61.547627 
L 248.688709 46.122529 
L 248.993378 37.495361 
L 249.298046 36.506372 
L 249.602714 43.251884 
L 249.907383 57.074915 
L 250.516719 100.010143 
L 251.430724 169.823345 
L 251.735392 185.404171 
L 252.040061 194.21754 
L 252.344729 195.405071 
L 252.649397 188.851105 
L 252.954066 175.193967 
L 253.563402 132.45301 
L 254.477407 62.488308 
L 254.782075 46.752744 
L 255.086744 37.753731 
L 255.391412 36.367732 
L 255.69608 42.729737 
L 256.000749 56.220116 
L 256.610085 98.764091 
L 257.52409 168.875857 
L 257.828758 184.765162 
L 258.133427 193.949247 
L 258.438095 195.533625 
L 258.742763 189.363984 
L 259.047432 176.04122 
L 259.656768 133.696926 
L 260.570773 63.442544 
L 260.875441 47.400506 
L 261.18011 38.03193 
L 261.484778 36.249274 
L 261.789446 42.226158 
L 262.094115 55.380463 
L 262.703451 97.522391 
L 263.617456 167.914934 
L 263.922125 184.108688 
L 264.226793 193.661159 
L 264.531461 195.641981 
L 264.836129 189.858232 
L 265.140798 176.873221 
L 265.750134 134.936331 
L 266.664139 64.410092 
L 266.968808 48.06565 
L 267.273476 38.329889 
L 267.578144 36.151027 
L 267.882813 41.741274 
L 268.187481 54.556167 
L 268.796817 96.285359 
L 269.710822 166.940821 
L 270.015491 183.434915 
L 270.320159 193.353349 
L 270.624827 195.730113 
L 270.929496 190.333722 
L 271.234164 177.689759 
L 271.8435 136.170913 
L 272.757505 65.390708 
L 273.062174 48.748008 
L 273.366842 38.647531 
L 273.67151 36.073016 
L 273.976179 41.275208 
L 274.280847 53.747439 
L 274.890184 95.053307 
L 275.804188 165.953765 
L 276.108857 182.744015 
L 276.413525 193.025895 
L 276.718193 195.797998 
L 277.022862 190.790334 
L 277.32753 178.490626 
L 277.936867 137.400356 
L 278.850871 66.384142 
L 279.15554 49.447407 
L 279.460208 38.984776 
L 279.764876 36.015261 
L 280.069545 40.828078 
L 280.374213 52.954483 
L 280.98355 93.826549 
L 281.897555 164.954016 
L 282.202223 182.036162 
L 282.506891 192.67888 
L 282.811559 195.845619 
L 283.116228 191.227953 
L 283.420896 179.275621 
L 284.030233 138.624351 
L 284.944238 67.390143 
L 285.248906 50.163669 
L 285.553574 39.341538 
L 285.858242 35.977777 
L 286.162911 40.399999 
L 286.467579 52.1775 
L 287.076916 92.605396 
L 287.990921 163.941828 
L 288.295589 181.311537 
L 288.600257 192.312393 
L 288.904926 195.872964 
L 289.209594 191.646467 
L 289.514262 180.044542 
L 290.123599 139.842586 
L 291.037604 68.408455 
L 291.64694 39.717727 
L 291.951609 35.960573 
L 292.256277 39.991077 
L 292.560945 51.416688 
L 293.170282 91.390157 
L 294.084287 162.917457 
L 294.693623 191.926526 
L 294.998292 195.880026 
L 295.30296 192.04577 
L 295.607628 180.797197 
L 296.216965 141.054751 
L 297.13097 69.43882 
L 297.740306 40.113248 
L 298.044975 35.963653 
L 298.349643 39.601418 
L 298.654311 50.67224 
L 299.263648 90.181141 
L 300.482321 179.812707 
L 300.786989 191.521377 
L 301.091658 195.866803 
L 301.396326 192.425761 
L 301.700994 181.533392 
L 302.310331 142.260541 
L 303.529004 52.411795 
L 303.833672 40.528 
L 304.138341 35.987018 
L 304.443009 39.231119 
L 304.747677 49.944344 
L 305.357014 88.978655 
L 306.575687 179.038882 
L 306.880355 191.097049 
L 307.185024 195.833299 
L 307.489692 192.786343 
L 307.79436 182.252942 
L 308.403697 143.459648 
L 309.62237 53.19365 
L 309.927039 40.961877 
L 310.231707 36.03066 
L 310.536375 38.880276 
L 310.841043 49.233185 
L 311.45038 87.783003 
L 312.669053 178.249046 
L 312.973722 190.653649 
L 313.27839 195.779521 
L 313.583058 193.127426 
L 313.887727 182.955665 
L 314.497063 144.651769 
L 315.715736 53.991418 
L 316.020405 41.414771 
L 316.325073 36.094569 
L 316.629741 38.548976 
L 316.93441 48.538943 
L 317.543746 86.594489 
L 318.762419 177.443397 
L 319.067088 190.19129 
L 319.371756 195.705484 
L 319.676424 193.448922 
L 319.981093 183.641381 
L 320.590429 145.8366 
L 321.809102 54.804897 
L 322.113771 41.886565 
L 322.418439 36.178729 
L 322.723107 38.237304 
L 323.027776 47.861796 
L 323.637112 85.413415 
L 324.855785 176.62214 
L 325.160454 189.71009 
L 325.465122 195.611207 
L 325.76979 193.75075 
L 326.074459 184.309918 
L 326.683795 147.013842 
L 327.902469 55.633879 
L 328.207137 42.377141 
L 328.511805 36.283118 
L 328.816473 37.945339 
L 329.121142 47.201913 
L 329.730478 84.240079 
L 330.949152 175.785484 
L 331.25382 189.21017 
L 331.558488 195.496713 
L 331.863156 194.032833 
L 332.167825 184.961104 
L 332.777161 148.183197 
L 333.995835 56.478156 
L 334.300503 42.886373 
L 334.605171 36.40771 
L 334.90984 37.673156 
L 335.214508 46.559464 
L 335.823844 83.074781 
L 337.042518 174.933641 
L 337.347186 188.691657 
L 337.651854 195.362032 
L 337.956523 194.2951 
L 338.261191 185.594776 
L 338.870527 149.344366 
L 340.089201 57.337511 
L 340.393869 43.414133 
L 340.698537 36.552472 
L 341.003206 37.420822 
L 341.307874 45.93461 
L 341.917211 81.917814 
L 343.135884 174.066827 
L 343.440552 188.154684 
L 343.74522 195.207197 
L 344.049889 194.537484 
L 344.354557 186.210772 
L 344.963894 150.497056 
L 346.182567 58.211729 
L 346.487235 43.960287 
L 346.791903 36.71737 
L 347.096572 37.188403 
L 347.40124 45.32751 
L 348.010577 80.769474 
L 349.22925 173.185262 
L 349.533918 187.599385 
L 349.838586 195.032247 
L 350.143255 194.759924 
L 350.447923 186.808936 
L 350.752591 171.953675 
L 351.361928 127.849195 
L 352.275933 59.100586 
L 352.580601 44.524696 
L 352.88527 36.90236 
L 353.189938 36.975957 
L 353.494606 44.738319 
L 353.799274 59.433429 
L 354.408611 103.361126 
L 355.322616 172.289169 
L 355.627284 187.025901 
L 355.931953 194.837228 
L 356.236621 194.962363 
L 356.541289 187.389117 
L 356.845957 172.85509 
L 357.455294 129.106963 
L 358.064631 80.346452 
L 358.064631 80.346452 
" style="fill:none;stroke:#d62728;stroke-linecap:square;stroke-width:1.5;"/>
   </g>
   <g id="line2d_31">
    <path clip-path="url(#p0b1b790274)" d="M 53.700994 146.461979 
L 54.005663 144.963147 
L 54.310331 140.61376 
L 54.919668 125.308737 
L 55.833672 97.894543 
L 56.443009 86.836777 
L 56.747677 85.377897 
L 57.052346 86.916653 
L 57.357014 91.30202 
L 57.966351 106.653774 
L 58.880355 134.049098 
L 59.489692 145.041985 
L 59.79436 146.460888 
L 60.099029 144.882235 
L 60.403697 140.460967 
L 61.013034 125.062756 
L 61.927039 97.686792 
L 62.231707 90.999965 
L 62.536375 86.758979 
L 62.841043 85.380079 
L 63.145712 86.998601 
L 63.45038 91.455691 
L 64.059717 106.900084 
L 64.973722 134.256199 
L 65.27839 140.914042 
L 65.583058 145.118742 
L 65.887727 146.457615 
L 66.192395 144.799253 
L 66.497063 140.306421 
L 67.1064 124.816122 
L 68.020405 97.480344 
L 68.325073 90.851603 
L 68.629741 86.683264 
L 68.93441 85.384443 
L 69.239078 87.082615 
L 69.543746 91.611109 
L 70.153083 107.147038 
L 71.067088 134.461991 
L 71.371756 141.06151 
L 71.676424 145.193414 
L 71.981093 146.452161 
L 72.285761 144.714208 
L 72.590429 140.150133 
L 73.199766 124.568852 
L 74.113771 97.275213 
L 74.418439 90.705032 
L 74.723107 86.609638 
L 75.027776 85.390988 
L 75.332444 87.168689 
L 75.637112 91.768264 
L 76.246449 107.394619 
L 77.160454 134.666457 
L 77.465122 141.207182 
L 77.76979 145.265994 
L 78.074459 146.444525 
L 78.379127 144.627106 
L 78.683795 139.992114 
L 79.293132 124.320964 
L 80.207137 97.071414 
L 80.511805 90.560262 
L 80.816473 86.538105 
L 81.121142 85.399714 
L 81.42581 87.256817 
L 81.730478 91.927145 
L 82.339815 107.642809 
L 83.25382 134.869585 
L 83.558488 141.351048 
L 83.863156 145.336477 
L 84.167825 146.434709 
L 84.472493 144.537954 
L 84.777161 139.832375 
L 85.386498 124.072476 
L 86.300503 96.868962 
L 86.605171 90.417303 
L 86.90984 86.468672 
L 87.214508 85.41062 
L 87.519176 87.346993 
L 87.823844 92.087739 
L 88.433181 107.89159 
L 89.347186 135.071358 
L 89.651854 141.493097 
L 89.956523 145.404859 
L 90.261191 146.422713 
L 90.565859 144.446756 
L 90.870527 139.670927 
L 91.479864 123.823406 
L 92.393869 96.66787 
L 92.698537 90.276167 
L 93.003206 86.401343 
L 93.307874 85.423706 
L 93.612542 87.43921 
L 93.917211 92.250036 
L 94.526547 108.140945 
L 95.440552 135.271764 
L 95.74522 141.633319 
L 96.049889 145.471135 
L 96.354557 146.408537 
L 96.659225 144.353521 
L 96.963894 139.507783 
L 97.57323 123.573771 
L 98.487235 96.468154 
L 98.791903 90.136862 
L 99.096572 86.336122 
L 99.40124 85.43897 
L 99.705908 87.533462 
L 100.010577 92.414024 
L 100.619913 108.390856 
L 101.533918 135.470787 
L 101.838586 141.771704 
L 102.143255 145.535299 
L 102.447923 146.392184 
L 102.752591 144.258255 
L 103.05726 139.342954 
L 103.666596 123.32359 
L 104.580601 96.269828 
L 104.88527 89.999399 
L 105.189938 86.273015 
L 105.494606 85.456413 
L 105.799274 87.629741 
L 106.103943 92.579692 
L 106.713279 108.641304 
L 107.627284 135.668413 
L 107.931953 141.908242 
L 108.236621 145.597348 
L 108.541289 146.373653 
L 108.845957 144.160964 
L 109.150626 139.176452 
L 109.759962 123.072879 
L 110.673967 96.072905 
L 110.978636 89.863788 
L 111.283304 86.212025 
L 111.587972 85.476031 
L 111.892641 87.728042 
L 112.197309 92.747026 
L 112.806645 108.892272 
L 113.72065 135.864628 
L 114.025319 142.042923 
L 114.329987 145.657277 
L 114.634655 146.352947 
L 114.939324 144.061656 
L 115.243992 139.008288 
L 115.853328 122.821657 
L 116.767333 95.8774 
L 117.072002 89.730039 
L 117.37667 86.153158 
L 117.681338 85.497824 
L 117.986007 87.828356 
L 118.290675 92.916016 
L 118.900012 109.143743 
L 119.814016 136.059419 
L 120.118685 142.175738 
L 120.423353 145.715081 
L 120.728021 146.330067 
L 121.03269 143.960337 
L 121.337358 138.838475 
L 121.946695 122.569943 
L 122.860699 95.683328 
L 123.165368 89.59816 
L 123.470036 86.096418 
L 123.774704 85.521791 
L 124.079373 87.930677 
L 124.384041 93.08665 
L 124.993378 109.395697 
L 125.907383 136.252771 
L 126.212051 142.306678 
L 126.516719 145.770757 
L 126.821387 146.305015 
L 127.126056 143.857015 
L 127.430724 138.667024 
L 128.040061 122.317753 
L 128.954066 95.4907 
L 129.258734 89.468162 
L 129.563402 86.041808 
L 129.86807 85.547929 
L 130.172739 88.034998 
L 130.477407 93.258914 
L 131.086744 109.648118 
L 132.000749 136.44467 
L 132.305417 142.435732 
L 132.610085 145.8243 
L 132.914754 146.277791 
L 133.219422 143.751697 
L 133.52409 138.493949 
L 134.133427 122.065106 
L 135.047432 95.299532 
L 135.3521 89.340054 
L 135.656768 85.989333 
L 135.961437 85.576237 
L 136.266105 88.141311 
L 136.570773 93.432798 
L 137.18011 109.900987 
L 138.094115 136.635103 
L 138.398783 142.562892 
L 138.703451 145.875707 
L 139.00812 146.248399 
L 139.312788 143.644391 
L 139.617456 138.31926 
L 140.226793 121.81202 
L 141.140798 95.109838 
L 141.445466 89.213844 
L 141.750134 85.938995 
L 142.054803 85.606713 
L 142.359471 88.249609 
L 142.664139 93.608288 
L 143.273476 110.154285 
L 144.187481 136.824056 
L 144.492149 142.688149 
L 144.796817 145.924974 
L 145.101486 146.216841 
L 145.406154 143.535104 
L 145.710822 138.142972 
L 146.320159 121.558513 
L 147.234164 94.92163 
L 147.538832 89.089542 
L 147.8435 85.8908 
L 148.148169 85.639354 
L 148.452837 88.359883 
L 148.757505 93.785372 
L 149.366842 110.407996 
L 150.280847 137.011516 
L 150.585515 142.811494 
L 150.890184 145.972097 
L 151.194852 146.183118 
L 151.49952 143.423845 
L 151.804188 137.965096 
L 152.413525 121.304604 
L 153.32753 94.734922 
L 153.632198 88.967157 
L 153.936867 85.84475 
L 154.241535 85.674158 
L 154.546203 88.472126 
L 154.850871 93.964037 
L 155.460208 110.6621 
L 156.374213 137.197469 
L 156.678881 142.932917 
L 156.98355 146.017073 
L 157.288218 146.147232 
L 157.592886 143.31062 
L 157.897555 137.785645 
L 158.506891 121.050309 
L 159.420896 94.549727 
L 159.725564 88.846698 
L 160.030233 85.800848 
L 160.334901 85.711123 
L 160.639569 88.58633 
L 160.944238 94.144271 
L 161.553574 110.91658 
L 162.467579 137.381902 
L 162.772247 143.052411 
L 163.076916 146.059899 
L 163.381584 146.109188 
L 163.686252 143.195439 
L 163.990921 137.604632 
L 164.600257 120.795648 
L 165.514262 94.366059 
L 165.81893 88.728172 
L 166.123599 85.759098 
L 166.428267 85.750247 
L 166.732935 88.702486 
L 167.037604 94.32606 
L 167.64694 111.171417 
L 168.560945 137.564801 
L 168.865613 143.169966 
L 169.170282 146.100572 
L 169.47495 146.068987 
L 169.779618 143.078309 
L 170.084287 137.422069 
L 170.693623 120.540639 
L 171.607628 94.183931 
L 171.912297 88.611589 
L 172.216965 85.719503 
L 172.521633 85.791525 
L 172.826301 88.820587 
L 173.13097 94.509392 
L 173.740306 111.426594 
L 174.654311 137.746155 
L 174.95898 143.285574 
L 175.263648 146.139089 
L 175.568316 146.026632 
L 175.872984 142.959239 
L 176.177653 137.237971 
L 176.786989 120.2853 
L 177.700994 94.003356 
L 178.005663 88.496957 
L 178.310331 85.682065 
L 178.614999 85.834956 
L 178.919668 88.940624 
L 179.529004 102.531135 
L 180.747677 137.925949 
L 181.052346 143.399228 
L 181.357014 146.175447 
L 181.661682 145.982126 
L 181.966351 142.838237 
L 182.575687 129.192338 
L 183.79436 93.824346 
L 184.099029 88.384284 
L 184.403697 85.646787 
L 184.708365 85.880536 
L 185.013034 89.062588 
L 185.62237 102.763633 
L 186.841043 138.104171 
L 187.145712 143.510918 
L 187.45038 146.209644 
L 187.755048 145.935472 
L 188.059717 142.715313 
L 188.669053 128.959367 
L 189.887727 93.646915 
L 190.192395 88.273579 
L 190.497063 85.613673 
L 190.801731 85.928262 
L 191.1064 89.186471 
L 191.715736 102.997072 
L 192.93441 138.280808 
L 193.239078 143.620637 
L 193.543746 146.241676 
L 193.848414 145.886674 
L 194.153083 142.590474 
L 194.762419 128.725465 
L 195.981093 93.471075 
L 196.285761 88.164848 
L 196.590429 85.582723 
L 196.895098 85.978131 
L 197.199766 89.312264 
L 197.809102 103.231434 
L 199.027776 138.455847 
L 199.332444 143.728378 
L 199.637112 146.271543 
L 199.941781 145.835736 
L 200.246449 142.463729 
L 200.855785 128.490648 
L 202.074459 93.296839 
L 202.379127 88.0581 
L 202.683795 85.55394 
L 202.988464 86.030139 
L 203.293132 89.439958 
L 203.902469 103.466702 
L 205.121142 138.629277 
L 205.42581 143.834132 
L 205.730478 146.299241 
L 206.035147 145.78266 
L 206.339815 142.335089 
L 206.949152 128.254933 
L 208.167825 93.124219 
L 208.472493 87.953342 
L 208.777161 85.527327 
L 209.08183 86.084282 
L 209.386498 89.569543 
L 209.995835 103.70286 
L 211.214508 138.801085 
L 211.519176 143.937891 
L 211.823844 146.324769 
L 212.128513 145.727451 
L 212.433181 142.204561 
L 213.042518 128.018336 
L 214.261191 92.953227 
L 214.565859 87.850583 
L 214.870527 85.502885 
L 215.175196 86.140556 
L 215.479864 89.701011 
L 216.089201 103.93989 
L 217.307874 138.971257 
L 217.612542 144.039649 
L 217.917211 146.348125 
L 218.221879 145.670112 
L 218.526547 142.072156 
L 219.135884 127.780876 
L 220.354557 92.783876 
L 220.659225 87.749828 
L 220.963894 85.480616 
L 221.268562 86.198958 
L 221.57323 89.834352 
L 222.182567 104.177777 
L 223.40124 139.139783 
L 223.705908 144.139398 
L 224.010577 146.369307 
L 224.315245 145.610648 
L 224.619913 141.937882 
L 225.22925 127.542568 
L 226.447923 92.616178 
L 226.752591 87.651086 
L 227.05726 85.460521 
L 227.361928 86.259483 
L 227.666596 89.969556 
L 228.275933 104.416502 
L 229.494606 139.30665 
L 229.799274 144.237131 
L 230.103943 146.388314 
L 230.408611 145.549063 
L 230.713279 141.801749 
L 231.322616 127.303429 
L 232.541289 92.450145 
L 232.845957 87.554364 
L 233.150626 85.442602 
L 233.455294 86.322127 
L 233.759962 90.106614 
L 234.369299 104.656049 
L 235.587972 139.471847 
L 235.892641 144.332841 
L 236.197309 146.405144 
L 236.501977 145.485361 
L 236.806645 141.663768 
L 237.415982 127.063478 
L 238.634655 92.285789 
L 238.939324 87.459668 
L 239.243992 85.426861 
L 239.54866 86.386886 
L 239.853328 90.245516 
L 240.462665 104.896401 
L 241.681338 139.63536 
L 241.986007 144.426522 
L 242.290675 146.419796 
L 242.595343 145.419547 
L 242.900012 141.523947 
L 243.509348 126.82273 
L 244.728021 92.123121 
L 245.03269 87.367005 
L 245.337358 85.413298 
L 245.642026 86.453754 
L 245.946695 90.386253 
L 246.556031 105.13754 
L 247.774704 139.79718 
L 248.079373 144.518165 
L 248.384041 146.432269 
L 248.688709 145.351626 
L 248.993378 141.382298 
L 249.602714 126.581203 
L 250.821387 91.962152 
L 251.126056 87.276382 
L 251.430724 85.401915 
L 251.735392 86.522727 
L 252.040061 90.528813 
L 252.649397 105.37945 
L 253.86807 139.957294 
L 254.172739 144.607766 
L 254.477407 146.442563 
L 254.782075 145.281602 
L 255.086744 141.238829 
L 255.69608 126.338915 
L 256.914754 91.802896 
L 257.219422 87.187805 
L 257.52409 85.392711 
L 257.828758 86.593801 
L 258.133427 90.673188 
L 258.742763 105.622112 
L 259.961437 140.11569 
L 260.266105 144.695317 
L 260.570773 146.450676 
L 260.875441 145.20948 
L 261.18011 141.093551 
L 261.789446 126.095883 
L 263.00812 91.645362 
L 263.312788 87.101281 
L 263.617456 85.385689 
L 263.922125 86.666969 
L 264.226793 90.819366 
L 264.836129 105.865511 
L 266.054803 140.272358 
L 266.359471 144.780813 
L 266.664139 146.456608 
L 266.968808 145.135266 
L 267.273476 140.946475 
L 267.882813 125.852123 
L 269.101486 91.489562 
L 269.406154 87.016815 
L 269.710822 85.380848 
L 270.015491 86.742227 
L 270.320159 90.967337 
L 270.929496 106.109627 
L 272.148169 140.427287 
L 272.452837 144.864247 
L 272.757505 146.460358 
L 273.062174 145.058965 
L 273.366842 140.797612 
L 273.976179 125.607654 
L 274.890184 98.149509 
L 275.49952 86.934415 
L 275.804188 85.378188 
L 276.108857 86.81957 
L 276.413525 91.117091 
L 277.022862 106.354445 
L 277.936867 133.794913 
L 278.546203 144.945613 
L 278.850871 146.461927 
L 279.15554 144.980582 
L 279.460208 140.646971 
L 280.069545 125.362493 
L 280.98355 97.940191 
L 281.592886 86.854085 
L 281.897555 85.377711 
L 282.202223 86.898991 
L 282.506891 91.268616 
L 283.116228 106.599945 
L 284.030233 134.003591 
L 284.639569 145.024905 
L 284.944238 146.461313 
L 285.248906 144.900123 
L 285.553574 140.494563 
L 286.162911 125.116657 
L 287.076916 97.732157 
L 287.686252 86.775831 
L 287.990921 85.379415 
L 288.295589 86.980486 
L 288.600257 91.421903 
L 289.209594 106.846112 
L 290.123599 134.210977 
L 290.428267 140.881523 
L 290.732935 145.102118 
L 291.037604 146.458518 
L 291.342272 144.817594 
L 291.64694 140.3404 
L 292.256277 124.870164 
L 293.170282 97.525422 
L 293.47495 90.883926 
L 293.779618 86.69966 
L 294.084287 85.383301 
L 294.388955 87.064049 
L 294.693623 91.57694 
L 295.30296 107.092926 
L 296.216965 134.417056 
L 296.521633 141.029383 
L 296.826301 145.177247 
L 297.13097 146.453541 
L 297.435638 144.733 
L 297.740306 140.184492 
L 298.349643 124.623032 
L 299.263648 97.320002 
L 299.568316 90.736962 
L 299.872984 86.625576 
L 300.177653 85.389368 
L 300.482321 87.149672 
L 300.786989 91.733716 
L 301.396326 107.340372 
L 302.310331 134.621814 
L 302.614999 141.175449 
L 302.919668 145.250285 
L 303.224336 146.446383 
L 303.529004 144.646348 
L 303.833672 140.026851 
L 304.443009 124.375278 
L 305.357014 97.11591 
L 305.661682 90.591797 
L 305.966351 86.553584 
L 306.271019 85.397617 
L 306.575687 87.237351 
L 306.880355 91.89222 
L 307.489692 107.58843 
L 308.403697 134.825236 
L 308.708365 141.319711 
L 309.013034 145.321228 
L 309.317702 146.437044 
L 309.62237 144.557644 
L 309.927039 139.867487 
L 310.536375 124.12692 
L 311.45038 96.913162 
L 311.755048 90.448441 
L 312.059717 86.483691 
L 312.364385 85.408046 
L 312.669053 87.327079 
L 312.973722 92.05244 
L 313.583058 107.837083 
L 314.497063 135.027307 
L 314.801731 141.462159 
L 315.1064 145.390071 
L 315.411068 146.425525 
L 315.715736 144.466894 
L 316.020405 139.706413 
L 316.629741 123.877976 
L 317.543746 96.711771 
L 317.848414 90.306905 
L 318.153083 86.415901 
L 318.457751 85.420655 
L 318.762419 87.41885 
L 319.067088 92.214365 
L 319.676424 108.086314 
L 320.590429 135.228013 
L 320.895098 141.602781 
L 321.199766 145.456808 
L 321.504434 146.411826 
L 321.809102 144.374104 
L 322.113771 139.54364 
L 322.723107 123.628463 
L 323.637112 96.511753 
L 323.941781 90.167198 
L 324.246449 86.350218 
L 324.551117 85.435443 
L 324.855785 87.512657 
L 325.160454 92.377984 
L 325.76979 108.336104 
L 326.683795 135.42734 
L 326.988464 141.741569 
L 327.293132 145.521435 
L 327.5978 146.39595 
L 327.902469 144.279282 
L 328.207137 139.379178 
L 328.816473 123.378399 
L 329.730478 96.313121 
L 330.035147 90.029331 
L 330.339815 86.286648 
L 330.644483 85.452408 
L 330.949152 87.608493 
L 331.25382 92.543285 
L 331.863156 108.586437 
L 332.777161 135.625273 
L 333.08183 141.878512 
L 333.386498 145.583947 
L 333.691166 146.377896 
L 333.995835 144.182433 
L 334.300503 139.213041 
L 334.90984 123.127803 
L 335.823844 96.11589 
L 336.128513 89.893314 
L 336.433181 86.225194 
L 336.737849 85.471551 
L 337.042518 87.706352 
L 337.347186 92.710255 
L 337.956523 108.837293 
L 338.870527 135.821799 
L 339.175196 142.013601 
L 339.479864 145.64434 
L 339.784532 146.357666 
L 340.089201 144.083566 
L 340.393869 139.04524 
L 341.003206 122.876692 
L 341.917211 95.920074 
L 342.221879 89.759156 
L 342.526547 86.165862 
L 342.831215 85.492868 
L 343.135884 87.806226 
L 343.440552 92.878884 
L 344.049889 109.088655 
L 344.963894 136.016903 
L 345.268562 142.146825 
L 345.57323 145.70261 
L 345.877898 146.335262 
L 346.182567 143.982687 
L 346.487235 138.875787 
L 347.096572 122.625083 
L 348.010577 95.725686 
L 348.315245 89.626868 
L 348.619913 86.108656 
L 348.924582 85.516359 
L 349.22925 87.908108 
L 349.533918 93.049159 
L 350.143255 109.340505 
L 351.05726 136.210571 
L 351.361928 142.278176 
L 351.666596 145.758752 
L 351.971265 146.310684 
L 352.275933 143.879803 
L 352.580601 138.704694 
L 353.189938 122.372996 
L 354.103943 95.532741 
L 354.408611 89.496457 
L 354.713279 86.05358 
L 355.017948 85.542022 
L 355.322616 88.011992 
L 355.627284 93.221067 
L 356.236621 109.592825 
L 357.150626 136.402789 
L 357.455294 142.407644 
L 357.759962 145.812762 
L 358.064631 146.283936 
L 358.064631 146.283936 
" style="fill:none;stroke:#9467bd;stroke-linecap:square;stroke-width:1.5;"/>
   </g>
   <g id="patch_3">
    <path d="M 38.482813 224.64 
L 38.482813 7.2 
" style="fill:none;stroke:#000000;stroke-linecap:square;stroke-linejoin:miter;stroke-width:0.8;"/>
   </g>
   <g id="patch_4">
    <path d="M 373.282813 224.64 
L 373.282813 7.2 
" style="fill:none;stroke:#000000;stroke-linecap:square;stroke-linejoin:miter;stroke-width:0.8;"/>
   </g>
   <g id="patch_5">
    <path d="M 38.482813 224.64 
L 373.282812 224.64 
" style="fill:none;stroke:#000000;stroke-linecap:square;stroke-linejoin:miter;stroke-width:0.8;"/>
   </g>
   <g id="patch_6">
    <path d="M 38.482813 7.2 
L 373.282812 7.2 
" style="fill:none;stroke:#000000;stroke-linecap:square;stroke-linejoin:miter;stroke-width:0.8;"/>
   </g>
  </g>
 </g>
 <defs>
  <clipPath id="p0b1b790274">
   <rect height="217.44" width="334.8" x="38.482813" y="7.2"/>
  </clipPath>
 </defs>
</svg>
