<?xml version="1.0" encoding="utf-8" standalone="no"?>
<!DOCTYPE svg PUBLIC "-//W3C//DTD SVG 1.1//EN"
  "http://www.w3.org/Graphics/SVG/1.1/DTD/svg11.dtd">
<!-- Created with matplotlib (https://matplotlib.org/) -->
<svg height="248.518125pt" version="1.1" viewBox="0 0 386.845313 248.518125" width="386.845313pt" xmlns="http://www.w3.org/2000/svg" xmlns:xlink="http://www.w3.org/1999/xlink">
 <metadata>
  <rdf:RDF xmlns:cc="http://creativecommons.org/ns#" xmlns:dc="http://purl.org/dc/elements/1.1/" xmlns:rdf="http://www.w3.org/1999/02/22-rdf-syntax-ns#">
   <cc:Work>
    <dc:type rdf:resource="http://purl.org/dc/dcmitype/StillImage"/>
    <dc:date>2021-10-24T19:25:55.766377</dc:date>
    <dc:format>image/svg+xml</dc:format>
    <dc:creator>
     <cc:Agent>
      <dc:title>Matplotlib v3.3.4, https://matplotlib.org/</dc:title>
     </cc:Agent>
    </dc:creator>
   </cc:Work>
  </rdf:RDF>
 </metadata>
 <defs>
  <style type="text/css">*{stroke-linecap:butt;stroke-linejoin:round;}</style>
 </defs>
 <g id="figure_1">
  <g id="patch_1">
   <path d="M -0 248.518125 
L 386.845313 248.518125 
L 386.845313 0 
L -0 0 
z
" style="fill:none;"/>
  </g>
  <g id="axes_1">
   <g id="patch_2">
    <path d="M 38.482813 224.64 
L 373.282813 224.64 
L 373.282813 7.2 
L 38.482813 7.2 
z
" style="fill:#ffffff;"/>
   </g>
   <g id="matplotlib.axis_1">
    <g id="xtick_1">
     <g id="line2d_1">
      <path clip-path="url(#pbef8474858)" d="M 38.482813 224.64 
L 38.482813 7.2 
" style="fill:none;stroke:#b0b0b0;stroke-linecap:square;stroke-width:0.8;"/>
     </g>
     <g id="line2d_2">
      <defs>
       <path d="M 0 0 
L 0 3.5 
" id="m1ce2e929ee" style="stroke:#000000;stroke-width:0.8;"/>
      </defs>
      <g>
       <use style="stroke:#000000;stroke-width:0.8;" x="38.482813" xlink:href="#m1ce2e929ee" y="224.64"/>
      </g>
     </g>
     <g id="text_1">
      <!-- 0 -->
      <g transform="translate(35.301563 239.238437)scale(0.1 -0.1)">
       <defs>
        <path d="M 31.78125 66.40625 
Q 24.171875 66.40625 20.328125 58.90625 
Q 16.5 51.421875 16.5 36.375 
Q 16.5 21.390625 20.328125 13.890625 
Q 24.171875 6.390625 31.78125 6.390625 
Q 39.453125 6.390625 43.28125 13.890625 
Q 47.125 21.390625 47.125 36.375 
Q 47.125 51.421875 43.28125 58.90625 
Q 39.453125 66.40625 31.78125 66.40625 
z
M 31.78125 74.21875 
Q 44.046875 74.21875 50.515625 64.515625 
Q 56.984375 54.828125 56.984375 36.375 
Q 56.984375 17.96875 50.515625 8.265625 
Q 44.046875 -1.421875 31.78125 -1.421875 
Q 19.53125 -1.421875 13.0625 8.265625 
Q 6.59375 17.96875 6.59375 36.375 
Q 6.59375 54.828125 13.0625 64.515625 
Q 19.53125 74.21875 31.78125 74.21875 
z
" id="DejaVuSans-48"/>
       </defs>
       <use xlink:href="#DejaVuSans-48"/>
      </g>
     </g>
    </g>
    <g id="xtick_2">
     <g id="line2d_3">
      <path clip-path="url(#pbef8474858)" d="M 105.442813 224.64 
L 105.442813 7.2 
" style="fill:none;stroke:#b0b0b0;stroke-linecap:square;stroke-width:0.8;"/>
     </g>
     <g id="line2d_4">
      <g>
       <use style="stroke:#000000;stroke-width:0.8;" x="105.442813" xlink:href="#m1ce2e929ee" y="224.64"/>
      </g>
     </g>
     <g id="text_2">
      <!-- 2 -->
      <g transform="translate(102.261562 239.238437)scale(0.1 -0.1)">
       <defs>
        <path d="M 19.1875 8.296875 
L 53.609375 8.296875 
L 53.609375 0 
L 7.328125 0 
L 7.328125 8.296875 
Q 12.9375 14.109375 22.625 23.890625 
Q 32.328125 33.6875 34.8125 36.53125 
Q 39.546875 41.84375 41.421875 45.53125 
Q 43.3125 49.21875 43.3125 52.78125 
Q 43.3125 58.59375 39.234375 62.25 
Q 35.15625 65.921875 28.609375 65.921875 
Q 23.96875 65.921875 18.8125 64.3125 
Q 13.671875 62.703125 7.8125 59.421875 
L 7.8125 69.390625 
Q 13.765625 71.78125 18.9375 73 
Q 24.125 74.21875 28.421875 74.21875 
Q 39.75 74.21875 46.484375 68.546875 
Q 53.21875 62.890625 53.21875 53.421875 
Q 53.21875 48.921875 51.53125 44.890625 
Q 49.859375 40.875 45.40625 35.40625 
Q 44.1875 33.984375 37.640625 27.21875 
Q 31.109375 20.453125 19.1875 8.296875 
z
" id="DejaVuSans-50"/>
       </defs>
       <use xlink:href="#DejaVuSans-50"/>
      </g>
     </g>
    </g>
    <g id="xtick_3">
     <g id="line2d_5">
      <path clip-path="url(#pbef8474858)" d="M 172.402813 224.64 
L 172.402813 7.2 
" style="fill:none;stroke:#b0b0b0;stroke-linecap:square;stroke-width:0.8;"/>
     </g>
     <g id="line2d_6">
      <g>
       <use style="stroke:#000000;stroke-width:0.8;" x="172.402813" xlink:href="#m1ce2e929ee" y="224.64"/>
      </g>
     </g>
     <g id="text_3">
      <!-- 4 -->
      <g transform="translate(169.221563 239.238437)scale(0.1 -0.1)">
       <defs>
        <path d="M 37.796875 64.3125 
L 12.890625 25.390625 
L 37.796875 25.390625 
z
M 35.203125 72.90625 
L 47.609375 72.90625 
L 47.609375 25.390625 
L 58.015625 25.390625 
L 58.015625 17.1875 
L 47.609375 17.1875 
L 47.609375 0 
L 37.796875 0 
L 37.796875 17.1875 
L 4.890625 17.1875 
L 4.890625 26.703125 
z
" id="DejaVuSans-52"/>
       </defs>
       <use xlink:href="#DejaVuSans-52"/>
      </g>
     </g>
    </g>
    <g id="xtick_4">
     <g id="line2d_7">
      <path clip-path="url(#pbef8474858)" d="M 239.362813 224.64 
L 239.362813 7.2 
" style="fill:none;stroke:#b0b0b0;stroke-linecap:square;stroke-width:0.8;"/>
     </g>
     <g id="line2d_8">
      <g>
       <use style="stroke:#000000;stroke-width:0.8;" x="239.362813" xlink:href="#m1ce2e929ee" y="224.64"/>
      </g>
     </g>
     <g id="text_4">
      <!-- 6 -->
      <g transform="translate(236.181563 239.238437)scale(0.1 -0.1)">
       <defs>
        <path d="M 33.015625 40.375 
Q 26.375 40.375 22.484375 35.828125 
Q 18.609375 31.296875 18.609375 23.390625 
Q 18.609375 15.53125 22.484375 10.953125 
Q 26.375 6.390625 33.015625 6.390625 
Q 39.65625 6.390625 43.53125 10.953125 
Q 47.40625 15.53125 47.40625 23.390625 
Q 47.40625 31.296875 43.53125 35.828125 
Q 39.65625 40.375 33.015625 40.375 
z
M 52.59375 71.296875 
L 52.59375 62.3125 
Q 48.875 64.0625 45.09375 64.984375 
Q 41.3125 65.921875 37.59375 65.921875 
Q 27.828125 65.921875 22.671875 59.328125 
Q 17.53125 52.734375 16.796875 39.40625 
Q 19.671875 43.65625 24.015625 45.921875 
Q 28.375 48.1875 33.59375 48.1875 
Q 44.578125 48.1875 50.953125 41.515625 
Q 57.328125 34.859375 57.328125 23.390625 
Q 57.328125 12.15625 50.6875 5.359375 
Q 44.046875 -1.421875 33.015625 -1.421875 
Q 20.359375 -1.421875 13.671875 8.265625 
Q 6.984375 17.96875 6.984375 36.375 
Q 6.984375 53.65625 15.1875 63.9375 
Q 23.390625 74.21875 37.203125 74.21875 
Q 40.921875 74.21875 44.703125 73.484375 
Q 48.484375 72.75 52.59375 71.296875 
z
" id="DejaVuSans-54"/>
       </defs>
       <use xlink:href="#DejaVuSans-54"/>
      </g>
     </g>
    </g>
    <g id="xtick_5">
     <g id="line2d_9">
      <path clip-path="url(#pbef8474858)" d="M 306.322813 224.64 
L 306.322813 7.2 
" style="fill:none;stroke:#b0b0b0;stroke-linecap:square;stroke-width:0.8;"/>
     </g>
     <g id="line2d_10">
      <g>
       <use style="stroke:#000000;stroke-width:0.8;" x="306.322813" xlink:href="#m1ce2e929ee" y="224.64"/>
      </g>
     </g>
     <g id="text_5">
      <!-- 8 -->
      <g transform="translate(303.141563 239.238437)scale(0.1 -0.1)">
       <defs>
        <path d="M 31.78125 34.625 
Q 24.75 34.625 20.71875 30.859375 
Q 16.703125 27.09375 16.703125 20.515625 
Q 16.703125 13.921875 20.71875 10.15625 
Q 24.75 6.390625 31.78125 6.390625 
Q 38.8125 6.390625 42.859375 10.171875 
Q 46.921875 13.96875 46.921875 20.515625 
Q 46.921875 27.09375 42.890625 30.859375 
Q 38.875 34.625 31.78125 34.625 
z
M 21.921875 38.8125 
Q 15.578125 40.375 12.03125 44.71875 
Q 8.5 49.078125 8.5 55.328125 
Q 8.5 64.0625 14.71875 69.140625 
Q 20.953125 74.21875 31.78125 74.21875 
Q 42.671875 74.21875 48.875 69.140625 
Q 55.078125 64.0625 55.078125 55.328125 
Q 55.078125 49.078125 51.53125 44.71875 
Q 48 40.375 41.703125 38.8125 
Q 48.828125 37.15625 52.796875 32.3125 
Q 56.78125 27.484375 56.78125 20.515625 
Q 56.78125 9.90625 50.3125 4.234375 
Q 43.84375 -1.421875 31.78125 -1.421875 
Q 19.734375 -1.421875 13.25 4.234375 
Q 6.78125 9.90625 6.78125 20.515625 
Q 6.78125 27.484375 10.78125 32.3125 
Q 14.796875 37.15625 21.921875 38.8125 
z
M 18.3125 54.390625 
Q 18.3125 48.734375 21.84375 45.5625 
Q 25.390625 42.390625 31.78125 42.390625 
Q 38.140625 42.390625 41.71875 45.5625 
Q 45.3125 48.734375 45.3125 54.390625 
Q 45.3125 60.0625 41.71875 63.234375 
Q 38.140625 66.40625 31.78125 66.40625 
Q 25.390625 66.40625 21.84375 63.234375 
Q 18.3125 60.0625 18.3125 54.390625 
z
" id="DejaVuSans-56"/>
       </defs>
       <use xlink:href="#DejaVuSans-56"/>
      </g>
     </g>
    </g>
    <g id="xtick_6">
     <g id="line2d_11">
      <path clip-path="url(#pbef8474858)" d="M 373.282813 224.64 
L 373.282813 7.2 
" style="fill:none;stroke:#b0b0b0;stroke-linecap:square;stroke-width:0.8;"/>
     </g>
     <g id="line2d_12">
      <g>
       <use style="stroke:#000000;stroke-width:0.8;" x="373.282813" xlink:href="#m1ce2e929ee" y="224.64"/>
      </g>
     </g>
     <g id="text_6">
      <!-- 10 -->
      <g transform="translate(366.920313 239.238437)scale(0.1 -0.1)">
       <defs>
        <path d="M 12.40625 8.296875 
L 28.515625 8.296875 
L 28.515625 63.921875 
L 10.984375 60.40625 
L 10.984375 69.390625 
L 28.421875 72.90625 
L 38.28125 72.90625 
L 38.28125 8.296875 
L 54.390625 8.296875 
L 54.390625 0 
L 12.40625 0 
z
" id="DejaVuSans-49"/>
       </defs>
       <use xlink:href="#DejaVuSans-49"/>
       <use x="63.623047" xlink:href="#DejaVuSans-48"/>
      </g>
     </g>
    </g>
   </g>
   <g id="matplotlib.axis_2">
    <g id="ytick_1">
     <g id="line2d_13">
      <path clip-path="url(#pbef8474858)" d="M 38.482813 214.509732 
L 373.282813 214.509732 
" style="fill:none;stroke:#b0b0b0;stroke-linecap:square;stroke-width:0.8;"/>
     </g>
     <g id="line2d_14">
      <defs>
       <path d="M 0 0 
L -3.5 0 
" id="m248fe8bc31" style="stroke:#000000;stroke-width:0.8;"/>
      </defs>
      <g>
       <use style="stroke:#000000;stroke-width:0.8;" x="38.482813" xlink:href="#m248fe8bc31" y="214.509732"/>
      </g>
     </g>
     <g id="text_7">
      <!-- −0.6 -->
      <g transform="translate(7.2 218.308951)scale(0.1 -0.1)">
       <defs>
        <path d="M 10.59375 35.5 
L 73.1875 35.5 
L 73.1875 27.203125 
L 10.59375 27.203125 
z
" id="DejaVuSans-8722"/>
        <path d="M 10.6875 12.40625 
L 21 12.40625 
L 21 0 
L 10.6875 0 
z
" id="DejaVuSans-46"/>
       </defs>
       <use xlink:href="#DejaVuSans-8722"/>
       <use x="83.789062" xlink:href="#DejaVuSans-48"/>
       <use x="147.412109" xlink:href="#DejaVuSans-46"/>
       <use x="179.199219" xlink:href="#DejaVuSans-54"/>
      </g>
     </g>
    </g>
    <g id="ytick_2">
     <g id="line2d_15">
      <path clip-path="url(#pbef8474858)" d="M 38.482813 181.646488 
L 373.282813 181.646488 
" style="fill:none;stroke:#b0b0b0;stroke-linecap:square;stroke-width:0.8;"/>
     </g>
     <g id="line2d_16">
      <g>
       <use style="stroke:#000000;stroke-width:0.8;" x="38.482813" xlink:href="#m248fe8bc31" y="181.646488"/>
      </g>
     </g>
     <g id="text_8">
      <!-- −0.4 -->
      <g transform="translate(7.2 185.445707)scale(0.1 -0.1)">
       <use xlink:href="#DejaVuSans-8722"/>
       <use x="83.789062" xlink:href="#DejaVuSans-48"/>
       <use x="147.412109" xlink:href="#DejaVuSans-46"/>
       <use x="179.199219" xlink:href="#DejaVuSans-52"/>
      </g>
     </g>
    </g>
    <g id="ytick_3">
     <g id="line2d_17">
      <path clip-path="url(#pbef8474858)" d="M 38.482813 148.783244 
L 373.282813 148.783244 
" style="fill:none;stroke:#b0b0b0;stroke-linecap:square;stroke-width:0.8;"/>
     </g>
     <g id="line2d_18">
      <g>
       <use style="stroke:#000000;stroke-width:0.8;" x="38.482813" xlink:href="#m248fe8bc31" y="148.783244"/>
      </g>
     </g>
     <g id="text_9">
      <!-- −0.2 -->
      <g transform="translate(7.2 152.582463)scale(0.1 -0.1)">
       <use xlink:href="#DejaVuSans-8722"/>
       <use x="83.789062" xlink:href="#DejaVuSans-48"/>
       <use x="147.412109" xlink:href="#DejaVuSans-46"/>
       <use x="179.199219" xlink:href="#DejaVuSans-50"/>
      </g>
     </g>
    </g>
    <g id="ytick_4">
     <g id="line2d_19">
      <path clip-path="url(#pbef8474858)" d="M 38.482813 115.92 
L 373.282813 115.92 
" style="fill:none;stroke:#b0b0b0;stroke-linecap:square;stroke-width:0.8;"/>
     </g>
     <g id="line2d_20">
      <g>
       <use style="stroke:#000000;stroke-width:0.8;" x="38.482813" xlink:href="#m248fe8bc31" y="115.92"/>
      </g>
     </g>
     <g id="text_10">
      <!-- 0.0 -->
      <g transform="translate(15.579688 119.719219)scale(0.1 -0.1)">
       <use xlink:href="#DejaVuSans-48"/>
       <use x="63.623047" xlink:href="#DejaVuSans-46"/>
       <use x="95.410156" xlink:href="#DejaVuSans-48"/>
      </g>
     </g>
    </g>
    <g id="ytick_5">
     <g id="line2d_21">
      <path clip-path="url(#pbef8474858)" d="M 38.482813 83.056756 
L 373.282813 83.056756 
" style="fill:none;stroke:#b0b0b0;stroke-linecap:square;stroke-width:0.8;"/>
     </g>
     <g id="line2d_22">
      <g>
       <use style="stroke:#000000;stroke-width:0.8;" x="38.482813" xlink:href="#m248fe8bc31" y="83.056756"/>
      </g>
     </g>
     <g id="text_11">
      <!-- 0.2 -->
      <g transform="translate(15.579688 86.855975)scale(0.1 -0.1)">
       <use xlink:href="#DejaVuSans-48"/>
       <use x="63.623047" xlink:href="#DejaVuSans-46"/>
       <use x="95.410156" xlink:href="#DejaVuSans-50"/>
      </g>
     </g>
    </g>
    <g id="ytick_6">
     <g id="line2d_23">
      <path clip-path="url(#pbef8474858)" d="M 38.482813 50.193512 
L 373.282813 50.193512 
" style="fill:none;stroke:#b0b0b0;stroke-linecap:square;stroke-width:0.8;"/>
     </g>
     <g id="line2d_24">
      <g>
       <use style="stroke:#000000;stroke-width:0.8;" x="38.482813" xlink:href="#m248fe8bc31" y="50.193512"/>
      </g>
     </g>
     <g id="text_12">
      <!-- 0.4 -->
      <g transform="translate(15.579688 53.99273)scale(0.1 -0.1)">
       <use xlink:href="#DejaVuSans-48"/>
       <use x="63.623047" xlink:href="#DejaVuSans-46"/>
       <use x="95.410156" xlink:href="#DejaVuSans-52"/>
      </g>
     </g>
    </g>
    <g id="ytick_7">
     <g id="line2d_25">
      <path clip-path="url(#pbef8474858)" d="M 38.482813 17.330268 
L 373.282813 17.330268 
" style="fill:none;stroke:#b0b0b0;stroke-linecap:square;stroke-width:0.8;"/>
     </g>
     <g id="line2d_26">
      <g>
       <use style="stroke:#000000;stroke-width:0.8;" x="38.482813" xlink:href="#m248fe8bc31" y="17.330268"/>
      </g>
     </g>
     <g id="text_13">
      <!-- 0.6 -->
      <g transform="translate(15.579688 21.129486)scale(0.1 -0.1)">
       <use xlink:href="#DejaVuSans-48"/>
       <use x="63.623047" xlink:href="#DejaVuSans-46"/>
       <use x="95.410156" xlink:href="#DejaVuSans-54"/>
      </g>
     </g>
    </g>
   </g>
   <g id="line2d_27">
    <path clip-path="url(#pbef8474858)" d="M 38.482813 177.004232 
L 41.834164 173.872009 
L 45.185515 164.796563 
L 48.536867 150.70862 
L 51.888218 133.052957 
L 58.590921 94.461316 
L 61.942272 77.483074 
L 65.293623 64.4467 
L 68.644975 56.689131 
L 71.996326 55.005937 
L 75.347677 59.569737 
L 78.699029 69.912494 
L 82.05038 84.973515 
L 85.401731 103.208229 
L 88.753083 122.746588 
L 92.104434 141.584852 
L 95.455785 157.791077 
L 98.807137 169.703246 
L 102.158488 176.099717 
L 105.50984 176.324504 
L 108.861191 170.354555 
L 112.212542 158.802112 
L 115.563894 142.851928 
L 118.915245 124.139761 
L 122.266596 104.584623 
L 125.617948 86.191975 
L 128.969299 70.848062 
L 132.32065 60.126467 
L 135.672002 55.126733 
L 139.023353 56.361605 
L 142.374704 63.704442 
L 145.726056 76.402205 
L 149.077407 93.152684 
L 155.78011 131.70101 
L 159.131461 149.545564 
L 162.482813 163.941675 
L 165.834164 173.41296 
L 169.185515 176.9881 
L 172.536867 174.300449 
L 175.888218 165.625636 
L 179.239569 151.853301 
L 182.590921 134.395854 
L 189.293623 95.781282 
L 192.644975 78.584245 
L 195.996326 65.216146 
L 199.347677 57.047942 
L 202.699029 54.917315 
L 206.05038 59.042771 
L 209.401731 69.001227 
L 212.753083 83.771401 
L 216.104434 101.838549 
L 222.807137 140.30422 
L 226.158488 156.757926 
L 229.50984 169.02353 
L 232.861191 175.843144 
L 236.212542 176.517386 
L 239.563894 170.977111 
L 242.915245 159.790497 
L 246.266596 144.104778 
L 249.617948 125.528592 
L 252.969299 105.967004 
L 256.32065 87.426138 
L 259.672002 71.807437 
L 263.023353 60.712666 
L 266.374704 55.279639 
L 269.726056 56.065538 
L 273.077407 62.989764 
L 276.428758 75.342209 
L 279.78011 91.856077 
L 289.834164 148.364748 
L 293.185515 163.061422 
L 296.536867 172.923544 
L 299.888218 176.939712 
L 303.239569 174.698052 
L 306.590921 166.428454 
L 309.942272 152.979002 
L 313.293623 135.728992 
L 319.996326 97.111886 
L 323.347677 79.705136 
L 326.699029 66.012373 
L 330.05038 57.437848 
L 333.401731 54.860914 
L 336.753083 58.545847 
L 340.104434 68.114742 
L 343.455785 82.586267 
L 346.807137 100.476307 
L 353.50984 139.010708 
L 356.861191 155.703205 
L 360.212542 168.315765 
L 363.563894 175.55492 
L 366.915245 176.678261 
L 370.266596 171.570587 
L 373.617948 160.75571 
L 376.969299 145.342742 
L 380.32065 126.912348 
L 383.672002 107.354642 
L 387.023353 88.67535 
L 387.845313 84.779303 
L 387.845313 84.779303 
" style="fill:none;stroke:#1f77b4;stroke-linecap:square;stroke-width:1.5;"/>
   </g>
   <g id="line2d_28">
    <path clip-path="url(#pbef8474858)" d="M 38.482813 17.083636 
L 41.834164 22.151679 
L 45.185515 36.836059 
L 48.536867 59.63083 
L 51.888218 88.198293 
L 58.590921 150.64088 
L 61.942272 178.112253 
L 65.293623 199.205548 
L 68.644975 211.757559 
L 71.996326 214.481024 
L 75.347677 207.096641 
L 78.699029 190.361708 
L 82.05038 165.992464 
L 85.401731 136.488078 
L 88.753083 104.874349 
L 92.104434 74.393398 
L 95.455785 48.171175 
L 98.807137 28.896879 
L 102.158488 18.547172 
L 105.50984 18.183459 
L 108.861191 27.84304 
L 112.212542 46.535285 
L 115.563894 72.343226 
L 118.915245 102.620148 
L 122.266596 134.261026 
L 125.617948 164.020954 
L 128.969299 188.847927 
L 132.32065 206.195833 
L 135.672002 214.285572 
L 139.023353 212.287507 
L 142.374704 200.406547 
L 145.726056 179.861136 
L 149.077407 152.758291 
L 155.78011 90.385789 
L 159.131461 61.512694 
L 162.482813 38.219298 
L 165.834164 22.894436 
L 169.185515 17.109739 
L 172.536867 21.45845 
L 175.888218 35.494592 
L 179.239569 57.778698 
L 182.590921 86.02544 
L 189.293623 148.50513 
L 192.644975 176.330521 
L 195.996326 197.960559 
L 199.347677 211.176991 
L 202.699029 214.624418 
L 206.05038 207.949289 
L 209.401731 191.83617 
L 212.753083 167.937526 
L 216.104434 138.704267 
L 222.807137 76.465504 
L 226.158488 49.842848 
L 229.50984 29.996683 
L 232.861191 18.962317 
L 236.212542 17.871369 
L 239.563894 26.835723 
L 242.915245 44.936045 
L 246.266596 70.31607 
L 249.617948 100.372972 
L 252.969299 132.024286 
L 256.32065 162.024038 
L 259.672002 187.295626 
L 263.023353 205.247343 
L 266.374704 214.038164 
L 269.726056 212.766554 
L 273.077407 201.562921 
L 276.428758 181.576245 
L 279.78011 154.856245 
L 289.834164 63.423295 
L 293.185515 39.643577 
L 296.536867 23.686328 
L 299.888218 17.188031 
L 303.239569 20.815114 
L 306.590921 34.195604 
L 309.942272 55.957276 
L 313.293623 83.868378 
L 319.996326 146.352168 
L 323.347677 174.516881 
L 326.699029 196.672236 
L 330.05038 210.546109 
L 333.401731 214.715676 
L 336.753083 208.753329 
L 340.104434 193.270533 
L 343.455785 169.855114 
L 346.807137 140.908421 
L 353.50984 78.558449 
L 356.861191 51.549423 
L 360.212542 31.141871 
L 363.563894 19.428673 
L 366.915245 17.611068 
L 370.266596 25.875459 
L 373.617948 43.374297 
L 376.969299 68.313003 
L 380.32065 98.134007 
L 383.672002 129.77904 
L 387.023353 160.00277 
L 387.845313 166.306706 
L 387.845313 166.306706 
" style="fill:none;stroke:#ff7f0e;stroke-linecap:square;stroke-width:1.5;"/>
   </g>
   <g id="line2d_29">
    <path clip-path="url(#pbef8474858)" d="M 38.482813 115.92 
L 387.845313 115.92 
L 387.845313 115.92 
" style="fill:none;stroke:#2ca02c;stroke-linecap:square;stroke-width:1.5;"/>
   </g>
   <g id="line2d_30">
    <path clip-path="url(#pbef8474858)" d="M 38.482813 214.756364 
L 41.834164 209.688321 
L 45.185515 195.003941 
L 48.536867 172.20917 
L 51.888218 143.641707 
L 58.590921 81.19912 
L 61.942272 53.727747 
L 65.293623 32.634452 
L 68.644975 20.082441 
L 71.996326 17.358976 
L 75.347677 24.743359 
L 78.699029 41.478292 
L 82.05038 65.847536 
L 85.401731 95.351922 
L 88.753083 126.965651 
L 92.104434 157.446602 
L 95.455785 183.668825 
L 98.807137 202.943121 
L 102.158488 213.292828 
L 105.50984 213.656541 
L 108.861191 203.99696 
L 112.212542 185.304715 
L 115.563894 159.496774 
L 118.915245 129.219852 
L 122.266596 97.578974 
L 125.617948 67.819046 
L 128.969299 42.992073 
L 132.32065 25.644167 
L 135.672002 17.554428 
L 139.023353 19.552493 
L 142.374704 31.433453 
L 145.726056 51.978864 
L 149.077407 79.081709 
L 155.78011 141.454211 
L 159.131461 170.327306 
L 162.482813 193.620702 
L 165.834164 208.945564 
L 169.185515 214.730261 
L 172.536867 210.38155 
L 175.888218 196.345408 
L 179.239569 174.061302 
L 182.590921 145.81456 
L 189.293623 83.33487 
L 192.644975 55.509479 
L 195.996326 33.879441 
L 199.347677 20.663009 
L 202.699029 17.215582 
L 206.05038 23.890711 
L 209.401731 40.00383 
L 212.753083 63.902474 
L 216.104434 93.135733 
L 222.807137 155.374496 
L 226.158488 181.997152 
L 229.50984 201.843317 
L 232.861191 212.877683 
L 236.212542 213.968631 
L 239.563894 205.004277 
L 242.915245 186.903955 
L 246.266596 161.52393 
L 249.617948 131.467028 
L 252.969299 99.815714 
L 256.32065 69.815962 
L 259.672002 44.544374 
L 263.023353 26.592657 
L 266.374704 17.801836 
L 269.726056 19.073446 
L 273.077407 30.277079 
L 276.428758 50.263755 
L 279.78011 76.983755 
L 289.834164 168.416705 
L 293.185515 192.196423 
L 296.536867 208.153672 
L 299.888218 214.651969 
L 303.239569 211.024886 
L 306.590921 197.644396 
L 309.942272 175.882724 
L 313.293623 147.971622 
L 319.996326 85.487832 
L 323.347677 57.323119 
L 326.699029 35.167764 
L 330.05038 21.293891 
L 333.401731 17.124324 
L 336.753083 23.086671 
L 340.104434 38.569467 
L 343.455785 61.984886 
L 346.807137 90.931579 
L 353.50984 153.281551 
L 356.861191 180.290577 
L 360.212542 200.698129 
L 363.563894 212.411327 
L 366.915245 214.228932 
L 370.266596 205.964541 
L 373.617948 188.465703 
L 376.969299 163.526997 
L 380.32065 133.705993 
L 383.672002 102.06096 
L 387.023353 71.83723 
L 387.845313 65.533294 
L 387.845313 65.533294 
" style="fill:none;stroke:#d62728;stroke-linecap:square;stroke-width:1.5;"/>
   </g>
   <g id="line2d_31">
    <path clip-path="url(#pbef8474858)" d="M 38.482813 54.835768 
L 41.834164 57.967991 
L 45.185515 67.043437 
L 48.536867 81.13138 
L 51.888218 98.787043 
L 58.590921 137.378684 
L 61.942272 154.356926 
L 65.293623 167.3933 
L 68.644975 175.150869 
L 71.996326 176.834063 
L 75.347677 172.270263 
L 78.699029 161.927506 
L 82.05038 146.866485 
L 85.401731 128.631771 
L 88.753083 109.093412 
L 92.104434 90.255148 
L 95.455785 74.048923 
L 98.807137 62.136754 
L 102.158488 55.740283 
L 105.50984 55.515496 
L 108.861191 61.485445 
L 112.212542 73.037888 
L 115.563894 88.988072 
L 118.915245 107.700239 
L 122.266596 127.255377 
L 125.617948 145.648025 
L 128.969299 160.991938 
L 132.32065 171.713533 
L 135.672002 176.713267 
L 139.023353 175.478395 
L 142.374704 168.135558 
L 145.726056 155.437795 
L 149.077407 138.687316 
L 155.78011 100.13899 
L 159.131461 82.294436 
L 162.482813 67.898325 
L 165.834164 58.42704 
L 169.185515 54.8519 
L 172.536867 57.539551 
L 175.888218 66.214364 
L 179.239569 79.986699 
L 182.590921 97.444146 
L 189.293623 136.058718 
L 192.644975 153.255755 
L 195.996326 166.623854 
L 199.347677 174.792058 
L 202.699029 176.922685 
L 206.05038 172.797229 
L 209.401731 162.838773 
L 212.753083 148.068599 
L 216.104434 130.001451 
L 222.807137 91.53578 
L 226.158488 75.082074 
L 229.50984 62.81647 
L 232.861191 55.996856 
L 236.212542 55.322614 
L 239.563894 60.862889 
L 242.915245 72.049503 
L 246.266596 87.735222 
L 249.617948 106.311408 
L 252.969299 125.872996 
L 256.32065 144.413862 
L 259.672002 160.032563 
L 263.023353 171.127334 
L 266.374704 176.560361 
L 269.726056 175.774462 
L 273.077407 168.850236 
L 276.428758 156.497791 
L 279.78011 139.983923 
L 289.834164 83.475252 
L 293.185515 68.778578 
L 296.536867 58.916456 
L 299.888218 54.900288 
L 303.239569 57.141948 
L 306.590921 65.411546 
L 309.942272 78.860998 
L 313.293623 96.111008 
L 319.996326 134.728114 
L 323.347677 152.134864 
L 326.699029 165.827627 
L 330.05038 174.402152 
L 333.401731 176.979086 
L 336.753083 173.294153 
L 340.104434 163.725258 
L 343.455785 149.253733 
L 346.807137 131.363693 
L 353.50984 92.829292 
L 356.861191 76.136795 
L 360.212542 63.524235 
L 363.563894 56.28508 
L 366.915245 55.161739 
L 370.266596 60.269413 
L 373.617948 71.08429 
L 376.969299 86.497258 
L 380.32065 104.927652 
L 383.672002 124.485358 
L 387.023353 143.16465 
L 387.845313 147.060697 
L 387.845313 147.060697 
" style="fill:none;stroke:#9467bd;stroke-linecap:square;stroke-width:1.5;"/>
   </g>
   <g id="patch_3">
    <path d="M 38.482813 224.64 
L 38.482813 7.2 
" style="fill:none;stroke:#000000;stroke-linecap:square;stroke-linejoin:miter;stroke-width:0.8;"/>
   </g>
   <g id="patch_4">
    <path d="M 373.282813 224.64 
L 373.282813 7.2 
" style="fill:none;stroke:#000000;stroke-linecap:square;stroke-linejoin:miter;stroke-width:0.8;"/>
   </g>
   <g id="patch_5">
    <path d="M 38.482813 224.64 
L 373.282813 224.64 
" style="fill:none;stroke:#000000;stroke-linecap:square;stroke-linejoin:miter;stroke-width:0.8;"/>
   </g>
   <g id="patch_6">
    <path d="M 38.482813 7.2 
L 373.282813 7.2 
" style="fill:none;stroke:#000000;stroke-linecap:square;stroke-linejoin:miter;stroke-width:0.8;"/>
   </g>
  </g>
 </g>
 <defs>
  <clipPath id="pbef8474858">
   <rect height="217.44" width="334.8" x="38.482813" y="7.2"/>
  </clipPath>
 </defs>
</svg>
