<?xml version="1.0" encoding="utf-8" standalone="no"?>
<!DOCTYPE svg PUBLIC "-//W3C//DTD SVG 1.1//EN"
  "http://www.w3.org/Graphics/SVG/1.1/DTD/svg11.dtd">
<!-- Created with matplotlib (https://matplotlib.org/) -->
<svg height="248.518125pt" version="1.1" viewBox="0 0 386.845313 248.518125" width="386.845313pt" xmlns="http://www.w3.org/2000/svg" xmlns:xlink="http://www.w3.org/1999/xlink">
 <metadata>
  <rdf:RDF xmlns:cc="http://creativecommons.org/ns#" xmlns:dc="http://purl.org/dc/elements/1.1/" xmlns:rdf="http://www.w3.org/1999/02/22-rdf-syntax-ns#">
   <cc:Work>
    <dc:type rdf:resource="http://purl.org/dc/dcmitype/StillImage"/>
    <dc:date>2021-10-24T17:06:12.646131</dc:date>
    <dc:format>image/svg+xml</dc:format>
    <dc:creator>
     <cc:Agent>
      <dc:title>Matplotlib v3.3.4, https://matplotlib.org/</dc:title>
     </cc:Agent>
    </dc:creator>
   </cc:Work>
  </rdf:RDF>
 </metadata>
 <defs>
  <style type="text/css">*{stroke-linecap:butt;stroke-linejoin:round;}</style>
 </defs>
 <g id="figure_1">
  <g id="patch_1">
   <path d="M -0 248.518125 
L 386.845313 248.518125 
L 386.845313 0 
L -0 0 
z
" style="fill:none;"/>
  </g>
  <g id="axes_1">
   <g id="patch_2">
    <path d="M 38.482813 224.64 
L 373.282813 224.64 
L 373.282813 7.2 
L 38.482813 7.2 
z
" style="fill:#ffffff;"/>
   </g>
   <g id="matplotlib.axis_1">
    <g id="xtick_1">
     <g id="line2d_1">
      <path clip-path="url(#p925fb3f374)" d="M 38.482813 224.64 
L 38.482813 7.2 
" style="fill:none;stroke:#b0b0b0;stroke-linecap:square;stroke-width:0.8;"/>
     </g>
     <g id="line2d_2">
      <defs>
       <path d="M 0 0 
L 0 3.5 
" id="mc5dcac19fc" style="stroke:#000000;stroke-width:0.8;"/>
      </defs>
      <g>
       <use style="stroke:#000000;stroke-width:0.8;" x="38.482813" xlink:href="#mc5dcac19fc" y="224.64"/>
      </g>
     </g>
     <g id="text_1">
      <!-- 0 -->
      <g transform="translate(35.301563 239.238438)scale(0.1 -0.1)">
       <defs>
        <path d="M 31.78125 66.40625 
Q 24.171875 66.40625 20.328125 58.90625 
Q 16.5 51.421875 16.5 36.375 
Q 16.5 21.390625 20.328125 13.890625 
Q 24.171875 6.390625 31.78125 6.390625 
Q 39.453125 6.390625 43.28125 13.890625 
Q 47.125 21.390625 47.125 36.375 
Q 47.125 51.421875 43.28125 58.90625 
Q 39.453125 66.40625 31.78125 66.40625 
z
M 31.78125 74.21875 
Q 44.046875 74.21875 50.515625 64.515625 
Q 56.984375 54.828125 56.984375 36.375 
Q 56.984375 17.96875 50.515625 8.265625 
Q 44.046875 -1.421875 31.78125 -1.421875 
Q 19.53125 -1.421875 13.0625 8.265625 
Q 6.59375 17.96875 6.59375 36.375 
Q 6.59375 54.828125 13.0625 64.515625 
Q 19.53125 74.21875 31.78125 74.21875 
z
" id="DejaVuSans-48"/>
       </defs>
       <use xlink:href="#DejaVuSans-48"/>
      </g>
     </g>
    </g>
    <g id="xtick_2">
     <g id="line2d_3">
      <path clip-path="url(#p925fb3f374)" d="M 105.442813 224.64 
L 105.442813 7.2 
" style="fill:none;stroke:#b0b0b0;stroke-linecap:square;stroke-width:0.8;"/>
     </g>
     <g id="line2d_4">
      <g>
       <use style="stroke:#000000;stroke-width:0.8;" x="105.442813" xlink:href="#mc5dcac19fc" y="224.64"/>
      </g>
     </g>
     <g id="text_2">
      <!-- 2 -->
      <g transform="translate(102.261562 239.238438)scale(0.1 -0.1)">
       <defs>
        <path d="M 19.1875 8.296875 
L 53.609375 8.296875 
L 53.609375 0 
L 7.328125 0 
L 7.328125 8.296875 
Q 12.9375 14.109375 22.625 23.890625 
Q 32.328125 33.6875 34.8125 36.53125 
Q 39.546875 41.84375 41.421875 45.53125 
Q 43.3125 49.21875 43.3125 52.78125 
Q 43.3125 58.59375 39.234375 62.25 
Q 35.15625 65.921875 28.609375 65.921875 
Q 23.96875 65.921875 18.8125 64.3125 
Q 13.671875 62.703125 7.8125 59.421875 
L 7.8125 69.390625 
Q 13.765625 71.78125 18.9375 73 
Q 24.125 74.21875 28.421875 74.21875 
Q 39.75 74.21875 46.484375 68.546875 
Q 53.21875 62.890625 53.21875 53.421875 
Q 53.21875 48.921875 51.53125 44.890625 
Q 49.859375 40.875 45.40625 35.40625 
Q 44.1875 33.984375 37.640625 27.21875 
Q 31.109375 20.453125 19.1875 8.296875 
z
" id="DejaVuSans-50"/>
       </defs>
       <use xlink:href="#DejaVuSans-50"/>
      </g>
     </g>
    </g>
    <g id="xtick_3">
     <g id="line2d_5">
      <path clip-path="url(#p925fb3f374)" d="M 172.402813 224.64 
L 172.402813 7.2 
" style="fill:none;stroke:#b0b0b0;stroke-linecap:square;stroke-width:0.8;"/>
     </g>
     <g id="line2d_6">
      <g>
       <use style="stroke:#000000;stroke-width:0.8;" x="172.402813" xlink:href="#mc5dcac19fc" y="224.64"/>
      </g>
     </g>
     <g id="text_3">
      <!-- 4 -->
      <g transform="translate(169.221563 239.238438)scale(0.1 -0.1)">
       <defs>
        <path d="M 37.796875 64.3125 
L 12.890625 25.390625 
L 37.796875 25.390625 
z
M 35.203125 72.90625 
L 47.609375 72.90625 
L 47.609375 25.390625 
L 58.015625 25.390625 
L 58.015625 17.1875 
L 47.609375 17.1875 
L 47.609375 0 
L 37.796875 0 
L 37.796875 17.1875 
L 4.890625 17.1875 
L 4.890625 26.703125 
z
" id="DejaVuSans-52"/>
       </defs>
       <use xlink:href="#DejaVuSans-52"/>
      </g>
     </g>
    </g>
    <g id="xtick_4">
     <g id="line2d_7">
      <path clip-path="url(#p925fb3f374)" d="M 239.362813 224.64 
L 239.362813 7.2 
" style="fill:none;stroke:#b0b0b0;stroke-linecap:square;stroke-width:0.8;"/>
     </g>
     <g id="line2d_8">
      <g>
       <use style="stroke:#000000;stroke-width:0.8;" x="239.362813" xlink:href="#mc5dcac19fc" y="224.64"/>
      </g>
     </g>
     <g id="text_4">
      <!-- 6 -->
      <g transform="translate(236.181563 239.238438)scale(0.1 -0.1)">
       <defs>
        <path d="M 33.015625 40.375 
Q 26.375 40.375 22.484375 35.828125 
Q 18.609375 31.296875 18.609375 23.390625 
Q 18.609375 15.53125 22.484375 10.953125 
Q 26.375 6.390625 33.015625 6.390625 
Q 39.65625 6.390625 43.53125 10.953125 
Q 47.40625 15.53125 47.40625 23.390625 
Q 47.40625 31.296875 43.53125 35.828125 
Q 39.65625 40.375 33.015625 40.375 
z
M 52.59375 71.296875 
L 52.59375 62.3125 
Q 48.875 64.0625 45.09375 64.984375 
Q 41.3125 65.921875 37.59375 65.921875 
Q 27.828125 65.921875 22.671875 59.328125 
Q 17.53125 52.734375 16.796875 39.40625 
Q 19.671875 43.65625 24.015625 45.921875 
Q 28.375 48.1875 33.59375 48.1875 
Q 44.578125 48.1875 50.953125 41.515625 
Q 57.328125 34.859375 57.328125 23.390625 
Q 57.328125 12.15625 50.6875 5.359375 
Q 44.046875 -1.421875 33.015625 -1.421875 
Q 20.359375 -1.421875 13.671875 8.265625 
Q 6.984375 17.96875 6.984375 36.375 
Q 6.984375 53.65625 15.1875 63.9375 
Q 23.390625 74.21875 37.203125 74.21875 
Q 40.921875 74.21875 44.703125 73.484375 
Q 48.484375 72.75 52.59375 71.296875 
z
" id="DejaVuSans-54"/>
       </defs>
       <use xlink:href="#DejaVuSans-54"/>
      </g>
     </g>
    </g>
    <g id="xtick_5">
     <g id="line2d_9">
      <path clip-path="url(#p925fb3f374)" d="M 306.322813 224.64 
L 306.322813 7.2 
" style="fill:none;stroke:#b0b0b0;stroke-linecap:square;stroke-width:0.8;"/>
     </g>
     <g id="line2d_10">
      <g>
       <use style="stroke:#000000;stroke-width:0.8;" x="306.322813" xlink:href="#mc5dcac19fc" y="224.64"/>
      </g>
     </g>
     <g id="text_5">
      <!-- 8 -->
      <g transform="translate(303.141563 239.238438)scale(0.1 -0.1)">
       <defs>
        <path d="M 31.78125 34.625 
Q 24.75 34.625 20.71875 30.859375 
Q 16.703125 27.09375 16.703125 20.515625 
Q 16.703125 13.921875 20.71875 10.15625 
Q 24.75 6.390625 31.78125 6.390625 
Q 38.8125 6.390625 42.859375 10.171875 
Q 46.921875 13.96875 46.921875 20.515625 
Q 46.921875 27.09375 42.890625 30.859375 
Q 38.875 34.625 31.78125 34.625 
z
M 21.921875 38.8125 
Q 15.578125 40.375 12.03125 44.71875 
Q 8.5 49.078125 8.5 55.328125 
Q 8.5 64.0625 14.71875 69.140625 
Q 20.953125 74.21875 31.78125 74.21875 
Q 42.671875 74.21875 48.875 69.140625 
Q 55.078125 64.0625 55.078125 55.328125 
Q 55.078125 49.078125 51.53125 44.71875 
Q 48 40.375 41.703125 38.8125 
Q 48.828125 37.15625 52.796875 32.3125 
Q 56.78125 27.484375 56.78125 20.515625 
Q 56.78125 9.90625 50.3125 4.234375 
Q 43.84375 -1.421875 31.78125 -1.421875 
Q 19.734375 -1.421875 13.25 4.234375 
Q 6.78125 9.90625 6.78125 20.515625 
Q 6.78125 27.484375 10.78125 32.3125 
Q 14.796875 37.15625 21.921875 38.8125 
z
M 18.3125 54.390625 
Q 18.3125 48.734375 21.84375 45.5625 
Q 25.390625 42.390625 31.78125 42.390625 
Q 38.140625 42.390625 41.71875 45.5625 
Q 45.3125 48.734375 45.3125 54.390625 
Q 45.3125 60.0625 41.71875 63.234375 
Q 38.140625 66.40625 31.78125 66.40625 
Q 25.390625 66.40625 21.84375 63.234375 
Q 18.3125 60.0625 18.3125 54.390625 
z
" id="DejaVuSans-56"/>
       </defs>
       <use xlink:href="#DejaVuSans-56"/>
      </g>
     </g>
    </g>
    <g id="xtick_6">
     <g id="line2d_11">
      <path clip-path="url(#p925fb3f374)" d="M 373.282813 224.64 
L 373.282813 7.2 
" style="fill:none;stroke:#b0b0b0;stroke-linecap:square;stroke-width:0.8;"/>
     </g>
     <g id="line2d_12">
      <g>
       <use style="stroke:#000000;stroke-width:0.8;" x="373.282813" xlink:href="#mc5dcac19fc" y="224.64"/>
      </g>
     </g>
     <g id="text_6">
      <!-- 10 -->
      <g transform="translate(366.920313 239.238438)scale(0.1 -0.1)">
       <defs>
        <path d="M 12.40625 8.296875 
L 28.515625 8.296875 
L 28.515625 63.921875 
L 10.984375 60.40625 
L 10.984375 69.390625 
L 28.421875 72.90625 
L 38.28125 72.90625 
L 38.28125 8.296875 
L 54.390625 8.296875 
L 54.390625 0 
L 12.40625 0 
z
" id="DejaVuSans-49"/>
       </defs>
       <use xlink:href="#DejaVuSans-49"/>
       <use x="63.623047" xlink:href="#DejaVuSans-48"/>
      </g>
     </g>
    </g>
   </g>
   <g id="matplotlib.axis_2">
    <g id="ytick_1">
     <g id="line2d_13">
      <path clip-path="url(#p925fb3f374)" d="M 38.482813 214.509732 
L 373.282813 214.509732 
" style="fill:none;stroke:#b0b0b0;stroke-linecap:square;stroke-width:0.8;"/>
     </g>
     <g id="line2d_14">
      <defs>
       <path d="M 0 0 
L -3.5 0 
" id="md6921b0a56" style="stroke:#000000;stroke-width:0.8;"/>
      </defs>
      <g>
       <use style="stroke:#000000;stroke-width:0.8;" x="38.482813" xlink:href="#md6921b0a56" y="214.509732"/>
      </g>
     </g>
     <g id="text_7">
      <!-- −0.6 -->
      <g transform="translate(7.2 218.308951)scale(0.1 -0.1)">
       <defs>
        <path d="M 10.59375 35.5 
L 73.1875 35.5 
L 73.1875 27.203125 
L 10.59375 27.203125 
z
" id="DejaVuSans-8722"/>
        <path d="M 10.6875 12.40625 
L 21 12.40625 
L 21 0 
L 10.6875 0 
z
" id="DejaVuSans-46"/>
       </defs>
       <use xlink:href="#DejaVuSans-8722"/>
       <use x="83.789062" xlink:href="#DejaVuSans-48"/>
       <use x="147.412109" xlink:href="#DejaVuSans-46"/>
       <use x="179.199219" xlink:href="#DejaVuSans-54"/>
      </g>
     </g>
    </g>
    <g id="ytick_2">
     <g id="line2d_15">
      <path clip-path="url(#p925fb3f374)" d="M 38.482813 181.646488 
L 373.282813 181.646488 
" style="fill:none;stroke:#b0b0b0;stroke-linecap:square;stroke-width:0.8;"/>
     </g>
     <g id="line2d_16">
      <g>
       <use style="stroke:#000000;stroke-width:0.8;" x="38.482813" xlink:href="#md6921b0a56" y="181.646488"/>
      </g>
     </g>
     <g id="text_8">
      <!-- −0.4 -->
      <g transform="translate(7.2 185.445707)scale(0.1 -0.1)">
       <use xlink:href="#DejaVuSans-8722"/>
       <use x="83.789062" xlink:href="#DejaVuSans-48"/>
       <use x="147.412109" xlink:href="#DejaVuSans-46"/>
       <use x="179.199219" xlink:href="#DejaVuSans-52"/>
      </g>
     </g>
    </g>
    <g id="ytick_3">
     <g id="line2d_17">
      <path clip-path="url(#p925fb3f374)" d="M 38.482813 148.783244 
L 373.282813 148.783244 
" style="fill:none;stroke:#b0b0b0;stroke-linecap:square;stroke-width:0.8;"/>
     </g>
     <g id="line2d_18">
      <g>
       <use style="stroke:#000000;stroke-width:0.8;" x="38.482813" xlink:href="#md6921b0a56" y="148.783244"/>
      </g>
     </g>
     <g id="text_9">
      <!-- −0.2 -->
      <g transform="translate(7.2 152.582463)scale(0.1 -0.1)">
       <use xlink:href="#DejaVuSans-8722"/>
       <use x="83.789062" xlink:href="#DejaVuSans-48"/>
       <use x="147.412109" xlink:href="#DejaVuSans-46"/>
       <use x="179.199219" xlink:href="#DejaVuSans-50"/>
      </g>
     </g>
    </g>
    <g id="ytick_4">
     <g id="line2d_19">
      <path clip-path="url(#p925fb3f374)" d="M 38.482813 115.92 
L 373.282813 115.92 
" style="fill:none;stroke:#b0b0b0;stroke-linecap:square;stroke-width:0.8;"/>
     </g>
     <g id="line2d_20">
      <g>
       <use style="stroke:#000000;stroke-width:0.8;" x="38.482813" xlink:href="#md6921b0a56" y="115.92"/>
      </g>
     </g>
     <g id="text_10">
      <!-- 0.0 -->
      <g transform="translate(15.579688 119.719219)scale(0.1 -0.1)">
       <use xlink:href="#DejaVuSans-48"/>
       <use x="63.623047" xlink:href="#DejaVuSans-46"/>
       <use x="95.410156" xlink:href="#DejaVuSans-48"/>
      </g>
     </g>
    </g>
    <g id="ytick_5">
     <g id="line2d_21">
      <path clip-path="url(#p925fb3f374)" d="M 38.482813 83.056756 
L 373.282813 83.056756 
" style="fill:none;stroke:#b0b0b0;stroke-linecap:square;stroke-width:0.8;"/>
     </g>
     <g id="line2d_22">
      <g>
       <use style="stroke:#000000;stroke-width:0.8;" x="38.482813" xlink:href="#md6921b0a56" y="83.056756"/>
      </g>
     </g>
     <g id="text_11">
      <!-- 0.2 -->
      <g transform="translate(15.579688 86.855975)scale(0.1 -0.1)">
       <use xlink:href="#DejaVuSans-48"/>
       <use x="63.623047" xlink:href="#DejaVuSans-46"/>
       <use x="95.410156" xlink:href="#DejaVuSans-50"/>
      </g>
     </g>
    </g>
    <g id="ytick_6">
     <g id="line2d_23">
      <path clip-path="url(#p925fb3f374)" d="M 38.482813 50.193512 
L 373.282813 50.193512 
" style="fill:none;stroke:#b0b0b0;stroke-linecap:square;stroke-width:0.8;"/>
     </g>
     <g id="line2d_24">
      <g>
       <use style="stroke:#000000;stroke-width:0.8;" x="38.482813" xlink:href="#md6921b0a56" y="50.193512"/>
      </g>
     </g>
     <g id="text_12">
      <!-- 0.4 -->
      <g transform="translate(15.579688 53.99273)scale(0.1 -0.1)">
       <use xlink:href="#DejaVuSans-48"/>
       <use x="63.623047" xlink:href="#DejaVuSans-46"/>
       <use x="95.410156" xlink:href="#DejaVuSans-52"/>
      </g>
     </g>
    </g>
    <g id="ytick_7">
     <g id="line2d_25">
      <path clip-path="url(#p925fb3f374)" d="M 38.482813 17.330268 
L 373.282813 17.330268 
" style="fill:none;stroke:#b0b0b0;stroke-linecap:square;stroke-width:0.8;"/>
     </g>
     <g id="line2d_26">
      <g>
       <use style="stroke:#000000;stroke-width:0.8;" x="38.482813" xlink:href="#md6921b0a56" y="17.330268"/>
      </g>
     </g>
     <g id="text_13">
      <!-- 0.6 -->
      <g transform="translate(15.579688 21.129486)scale(0.1 -0.1)">
       <use xlink:href="#DejaVuSans-48"/>
       <use x="63.623047" xlink:href="#DejaVuSans-46"/>
       <use x="95.410156" xlink:href="#DejaVuSans-54"/>
      </g>
     </g>
    </g>
   </g>
   <g id="line2d_27">
    <path clip-path="url(#p925fb3f374)" d="M 38.482813 177.004232 
L 41.834164 173.594419 
L 45.185515 163.745661 
L 48.536867 148.557503 
L 51.888218 129.725596 
L 55.239569 109.352392 
L 58.590921 89.712415 
L 61.942272 72.998331 
L 65.293623 61.076151 
L 68.644975 55.276902 
L 71.996326 56.24803 
L 75.347677 63.881116 
L 78.699029 77.323979 
L 82.05038 95.075816 
L 88.753083 135.31914 
L 92.104434 153.31774 
L 95.455785 167.141145 
L 98.807137 175.246068 
L 102.158488 176.727651 
L 105.50984 171.420486 
L 108.861191 159.91708 
L 112.212542 143.501709 
L 115.563894 124.007033 
L 118.915245 103.609496 
L 122.266596 84.586342 
L 125.617948 69.06137 
L 128.969299 58.767836 
L 132.32065 54.854941 
L 135.672002 57.759532 
L 139.023353 67.157332 
L 142.374704 81.999142 
L 145.726056 100.627978 
L 152.428758 140.73701 
L 155.78011 157.739314 
L 159.131461 170.072784 
L 162.482813 176.360476 
L 165.834164 175.900412 
L 169.185515 168.743955 
L 172.536867 155.690074 
L 175.888218 138.196142 
L 182.590921 97.978082 
L 185.942272 79.744018 
L 189.293623 65.548749 
L 192.644975 56.977077 
L 195.996326 54.985969 
L 199.347677 59.797719 
L 202.699029 70.875129 
L 206.05038 86.981483 
L 209.401731 106.318619 
L 212.753083 126.727683 
L 216.104434 145.930144 
L 219.455785 161.782183 
L 222.807137 172.514031 
L 226.158488 176.927551 
L 229.50984 174.530006 
L 232.861191 165.589065 
L 236.212542 151.10292 
L 239.563894 132.688849 
L 246.266596 92.509145 
L 249.617948 75.229294 
L 252.969299 62.492276 
L 256.32065 55.720088 
L 259.672002 55.6688 
L 263.023353 62.344135 
L 266.374704 75.000841 
L 269.726056 92.225884 
L 276.428758 132.393433 
L 279.78011 150.851514 
L 283.131461 165.409737 
L 286.482813 174.442777 
L 289.834164 176.942159 
L 293.185515 172.628844 
L 296.536867 161.984385 
L 299.888218 146.197159 
L 303.239569 127.029701 
L 306.590921 106.621923 
L 309.942272 87.25221 
L 313.293623 71.083054 
L 316.644975 59.91963 
L 319.996326 55.008255 
L 323.347677 56.897249 
L 326.699029 65.37572 
L 330.05038 79.497105 
L 333.401731 97.684852 
L 340.104434 137.910004 
L 343.455785 155.456554 
L 346.807137 168.589124 
L 350.158488 175.841556 
L 353.50984 176.404165 
L 356.861191 170.214142 
L 360.212542 157.962558 
L 363.563894 141.017217 
L 373.617948 82.254882 
L 376.969299 67.342846 
L 380.32065 57.854109 
L 383.672002 54.848021 
L 387.023353 58.660192 
L 387.845313 61.163049 
L 387.845313 61.163049 
" style="fill:none;stroke:#1f77b4;stroke-linecap:square;stroke-width:1.5;"/>
   </g>
   <g id="line2d_28">
    <path clip-path="url(#p925fb3f374)" d="M 38.482813 17.083636 
L 41.834164 22.406395 
L 45.185515 37.801366 
L 48.536867 61.610379 
L 51.888218 91.269001 
L 58.590921 155.071146 
L 61.942272 182.342636 
L 65.293623 202.459842 
L 68.644975 213.255969 
L 71.996326 213.568184 
L 75.347677 203.362858 
L 78.699029 183.739191 
L 82.05038 156.81082 
L 92.104434 63.210032 
L 95.455785 38.981373 
L 98.807137 23.03966 
L 102.158488 17.10195 
L 105.50984 21.807786 
L 108.861191 36.650309 
L 112.212542 60.030852 
L 115.563894 89.431133 
L 122.266596 153.316964 
L 125.617948 180.921465 
L 128.969299 201.524755 
L 132.32065 212.907684 
L 135.672002 213.844213 
L 139.023353 204.23347 
L 142.374704 185.110615 
L 145.726056 158.535341 
L 149.077407 127.370032 
L 152.428758 94.971457 
L 155.78011 64.829218 
L 159.131461 40.189892 
L 162.482813 23.707344 
L 165.834164 17.156883 
L 169.185515 21.244052 
L 172.536867 35.528627 
L 175.888218 58.472037 
L 179.239569 87.603082 
L 185.942272 151.548922 
L 189.293623 179.476206 
L 192.644975 200.557944 
L 195.996326 212.523456 
L 199.347677 214.083952 
L 202.699029 205.071355 
L 206.05038 186.456397 
L 209.401731 160.244069 
L 212.753083 129.257661 
L 216.104434 96.834673 
L 219.455785 66.467338 
L 222.807137 41.426475 
L 226.158488 24.4092 
L 229.50984 17.248417 
L 232.861191 20.715404 
L 236.212542 34.436737 
L 239.563894 56.934511 
L 242.915245 85.785525 
L 249.617948 149.767678 
L 252.969299 178.007394 
L 256.32065 199.559769 
L 259.672002 212.103429 
L 263.023353 214.287314 
L 266.374704 205.876202 
L 269.726056 187.77604 
L 273.077407 161.936371 
L 276.428758 131.140347 
L 279.78011 98.704962 
L 283.131461 68.123784 
L 286.482813 42.690664 
L 289.834164 25.144968 
L 293.185515 17.376516 
L 296.536867 20.222037 
L 299.888218 33.375043 
L 303.239569 55.418844 
L 306.590921 83.979135 
L 313.293623 147.97389 
L 316.644975 176.515573 
L 319.996326 198.530598 
L 323.347677 211.647758 
L 326.699029 214.454222 
L 330.05038 206.647712 
L 333.401731 189.069055 
L 336.753083 163.611621 
L 340.104434 133.017394 
L 343.455785 100.581631 
L 346.807137 69.797942 
L 350.158488 43.981991 
L 353.50984 25.914376 
L 356.861191 17.541134 
L 360.212542 19.764133 
L 363.563894 32.343938 
L 366.915245 53.925597 
L 370.266596 82.184581 
L 376.969299 146.168223 
L 380.32065 175.001297 
L 383.672002 197.470813 
L 387.023353 211.156612 
L 387.845313 211.997371 
L 387.845313 211.997371 
" style="fill:none;stroke:#ff7f0e;stroke-linecap:square;stroke-width:1.5;"/>
   </g>
   <g id="line2d_29">
    <path clip-path="url(#p925fb3f374)" d="M 38.482813 115.92 
L 387.845313 115.92 
L 387.845313 115.92 
" style="fill:none;stroke:#2ca02c;stroke-linecap:square;stroke-width:1.5;"/>
   </g>
   <g id="line2d_30">
    <path clip-path="url(#p925fb3f374)" d="M 38.482813 214.756364 
L 41.834164 209.943261 
L 45.185515 195.972728 
L 48.536867 174.205429 
L 51.888218 146.761398 
L 58.590921 85.827387 
L 61.942272 58.272098 
L 65.293623 36.331448 
L 68.644975 22.142355 
L 71.996326 17.086771 
L 75.347677 21.657086 
L 78.699029 35.408174 
L 82.05038 57.000741 
L 85.401731 84.331772 
L 92.104434 145.261918 
L 95.455785 172.926719 
L 98.807137 195.039329 
L 102.158488 209.446082 
L 105.50984 214.743827 
L 108.861191 210.416588 
L 112.212542 196.885818 
L 115.563894 175.469352 
L 118.915245 148.253054 
L 125.617948 87.330637 
L 128.969299 59.558079 
L 132.32065 37.274912 
L 135.672002 22.651413 
L 139.023353 17.111843 
L 142.374704 21.195731 
L 145.726056 34.505325 
L 149.077407 55.744331 
L 152.428758 82.84417 
L 159.131461 143.754994 
L 162.482813 171.633547 
L 165.834164 194.085859 
L 169.185515 208.925176 
L 172.536867 214.70622 
L 175.888218 210.865942 
L 179.239569 197.778369 
L 182.590921 176.718169 
L 185.942272 149.736508 
L 192.644975 88.841139 
L 195.996326 60.858359 
L 199.347677 38.238328 
L 202.699029 23.184133 
L 206.05038 17.161982 
L 209.401731 20.758406 
L 212.753083 33.623129 
L 216.104434 54.503187 
L 219.455785 81.364959 
L 226.158488 142.241009 
L 229.50984 170.326242 
L 232.861191 193.112559 
L 236.212542 208.380677 
L 239.563894 214.643552 
L 242.915245 211.29121 
L 246.266596 198.650153 
L 249.617948 177.951561 
L 252.969299 151.211383 
L 259.672002 90.358511 
L 263.023353 62.172607 
L 266.374704 39.221451 
L 269.726056 23.740378 
L 273.077407 17.237175 
L 276.428758 20.345222 
L 279.78011 32.761812 
L 283.131461 53.277624 
L 286.482813 79.894514 
L 293.185515 140.720347 
L 296.536867 169.005135 
L 299.888218 192.119676 
L 303.239569 207.812721 
L 306.590921 214.555839 
L 309.942272 211.692283 
L 313.293623 199.50095 
L 316.644975 179.169218 
L 319.996326 152.677304 
L 326.699029 91.882368 
L 330.05038 63.50049 
L 333.401731 40.22403 
L 336.753083 24.320008 
L 340.104434 17.337402 
L 343.455785 19.956285 
L 346.807137 31.92159 
L 350.158488 52.067952 
L 353.50984 78.433208 
L 363.563894 167.67056 
L 366.915245 191.107462 
L 370.266596 207.221453 
L 373.617948 214.443104 
L 376.969299 212.069061 
L 380.32065 200.330543 
L 383.672002 180.370829 
L 387.023353 154.133901 
L 387.845313 146.786147 
L 387.845313 146.786147 
" style="fill:none;stroke:#d62728;stroke-linecap:square;stroke-width:1.5;"/>
   </g>
   <g id="line2d_31">
    <path clip-path="url(#p925fb3f374)" d="M 38.482813 54.835768 
L 41.834164 57.856419 
L 45.185515 66.619627 
L 48.536867 80.258699 
L 51.888218 97.424716 
L 58.590921 135.365717 
L 61.942272 152.38829 
L 65.293623 165.804107 
L 68.644975 174.286327 
L 71.996326 176.996049 
L 75.347677 173.665277 
L 78.699029 164.62343 
L 82.05038 150.764756 
L 85.401731 133.459895 
L 92.104434 95.529061 
L 95.455785 78.654492 
L 98.807137 65.465525 
L 102.158488 57.266565 
L 105.50984 54.868499 
L 108.861191 58.508499 
L 112.212542 67.826563 
L 115.563894 81.901124 
L 118.915245 99.340193 
L 125.617948 137.250698 
L 128.969299 153.972741 
L 132.32065 166.931324 
L 135.672002 174.844827 
L 139.023353 176.930595 
L 142.374704 172.982343 
L 145.726056 163.390559 
L 149.077407 149.10388 
L 152.428758 131.535277 
L 159.131461 93.655258 
L 162.482813 77.090221 
L 165.834164 64.365495 
L 169.185515 56.73957 
L 172.536867 54.966659 
L 175.888218 59.222105 
L 179.239569 69.085039 
L 182.590921 83.580007 
L 185.942272 101.273437 
L 192.644975 139.11282 
L 195.996326 155.516412 
L 199.347677 168.003873 
L 202.699029 175.340177 
L 206.05038 176.799756 
L 209.401731 172.238256 
L 212.753083 162.106814 
L 216.104434 147.407441 
L 219.455785 129.593924 
L 226.158488 91.805316 
L 229.50984 75.567564 
L 232.861191 63.320714 
L 236.212542 56.275996 
L 239.563894 55.130141 
L 242.915245 59.996473 
L 246.266596 70.393708 
L 249.617948 85.293547 
L 252.969299 103.222378 
L 259.672002 140.950086 
L 263.023353 157.017648 
L 266.374704 169.020605 
L 269.726056 175.771849 
L 273.077407 176.603675 
L 276.428758 171.433814 
L 279.78011 160.773571 
L 283.131461 145.677258 
L 286.482813 127.637917 
L 289.834164 108.43966 
L 293.185515 89.981218 
L 296.536867 74.088151 
L 299.888218 62.332304 
L 303.239569 55.876343 
L 306.590921 55.35877 
L 309.942272 60.830774 
L 313.293623 71.751167 
L 316.644975 87.03991 
L 319.996326 105.184927 
L 323.347677 124.391656 
L 326.699029 142.760528 
L 330.05038 158.474841 
L 333.401731 169.980429 
L 336.753083 176.139378 
L 340.104434 176.342559 
L 343.455785 170.569878 
L 346.807137 159.39226 
L 350.158488 143.915184 
L 353.50984 125.669352 
L 356.861191 106.459297 
L 360.212542 88.184917 
L 363.563894 72.653569 
L 366.915245 61.401322 
L 370.266596 55.541037 
L 373.617948 55.652302 
L 376.969299 61.724113 
L 380.32065 73.155961 
L 383.672002 88.817223 
L 387.845313 111.870033 
L 387.845313 111.870033 
" style="fill:none;stroke:#9467bd;stroke-linecap:square;stroke-width:1.5;"/>
   </g>
   <g id="patch_3">
    <path d="M 38.482813 224.64 
L 38.482813 7.2 
" style="fill:none;stroke:#000000;stroke-linecap:square;stroke-linejoin:miter;stroke-width:0.8;"/>
   </g>
   <g id="patch_4">
    <path d="M 373.282813 224.64 
L 373.282813 7.2 
" style="fill:none;stroke:#000000;stroke-linecap:square;stroke-linejoin:miter;stroke-width:0.8;"/>
   </g>
   <g id="patch_5">
    <path d="M 38.482813 224.64 
L 373.282813 224.64 
" style="fill:none;stroke:#000000;stroke-linecap:square;stroke-linejoin:miter;stroke-width:0.8;"/>
   </g>
   <g id="patch_6">
    <path d="M 38.482813 7.2 
L 373.282813 7.2 
" style="fill:none;stroke:#000000;stroke-linecap:square;stroke-linejoin:miter;stroke-width:0.8;"/>
   </g>
  </g>
 </g>
 <defs>
  <clipPath id="p925fb3f374">
   <rect height="217.44" width="334.8" x="38.482813" y="7.2"/>
  </clipPath>
 </defs>
</svg>
