<?xml version="1.0" encoding="utf-8" standalone="no"?>
<!DOCTYPE svg PUBLIC "-//W3C//DTD SVG 1.1//EN"
  "http://www.w3.org/Graphics/SVG/1.1/DTD/svg11.dtd">
<!-- Created with matplotlib (https://matplotlib.org/) -->
<svg height="253.384837pt" version="1.1" viewBox="0 0 401.838548 253.384837" width="401.838548pt" xmlns="http://www.w3.org/2000/svg" xmlns:xlink="http://www.w3.org/1999/xlink">
 <metadata>
  <rdf:RDF xmlns:cc="http://creativecommons.org/ns#" xmlns:dc="http://purl.org/dc/elements/1.1/" xmlns:rdf="http://www.w3.org/1999/02/22-rdf-syntax-ns#">
   <cc:Work>
    <dc:type rdf:resource="http://purl.org/dc/dcmitype/StillImage"/>
    <dc:date>2021-10-24T20:35:52.734717</dc:date>
    <dc:format>image/svg+xml</dc:format>
    <dc:creator>
     <cc:Agent>
      <dc:title>Matplotlib v3.3.4, https://matplotlib.org/</dc:title>
     </cc:Agent>
    </dc:creator>
   </cc:Work>
  </rdf:RDF>
 </metadata>
 <defs>
  <style type="text/css">*{stroke-linecap:butt;stroke-linejoin:round;}</style>
 </defs>
 <g id="figure_1">
  <g id="patch_1">
   <path d="M 0 253.384837 
L 401.838548 253.384837 
L 401.838548 0 
L 0 0 
z
" style="fill:none;"/>
  </g>
  <g id="axes_1">
   <g id="patch_2">
    <path d="M 52.366568 225.817728 
L 387.166568 225.817728 
L 387.166568 8.377728 
L 52.366568 8.377728 
z
" style="fill:#ffffff;"/>
   </g>
   <g id="matplotlib.axis_1">
    <g id="xtick_1">
     <g id="line2d_1">
      <path clip-path="url(#p9d6a39bdb7)" d="M 52.366568 225.817728 
L 52.366568 8.377728 
" style="fill:none;stroke:#b0b0b0;stroke-linecap:square;stroke-width:0.8;"/>
     </g>
     <g id="line2d_2">
      <defs>
       <path d="M 0 0 
L 0 3.5 
" id="m8b10e1ef15" style="stroke:#000000;stroke-width:0.8;"/>
      </defs>
      <g>
       <use style="stroke:#000000;stroke-width:0.8;" x="52.366568" xlink:href="#m8b10e1ef15" y="225.817728"/>
      </g>
     </g>
     <g id="text_1">
      <!-- $\mathdefault{0}$ -->
      <g transform="translate(48.630578 242.949594)scale(0.15 -0.15)">
       <defs>
        <path d="M 25.40625 68 
C 19.90625 68 15.703125 66.296875 12 62.796875 
C 6.203125 57.203125 2.40625 45.6875 2.40625 34 
C 2.40625 23.09375 5.703125 11.390625 10.40625 5.796875 
C 14.09375 1.390625 19.203125 -1 25 -1 
C 30.09375 -1 34.40625 0.6875 38 4.1875 
C 43.796875 9.6875 47.59375 21.296875 47.59375 33.390625 
C 47.59375 53.890625 38.5 68 25.40625 68 
z
M 25.09375 65.390625 
C 33.5 65.390625 38 54.09375 38 33.1875 
C 38 12.296875 33.59375 1.59375 25 1.59375 
C 16.40625 1.59375 12 12.296875 12 33.09375 
C 12 54.296875 16.5 65.390625 25.09375 65.390625 
z
" id="Nimbus_Roman_No9_L_Regular-48"/>
       </defs>
       <use transform="scale(0.996264)" xlink:href="#Nimbus_Roman_No9_L_Regular-48"/>
      </g>
     </g>
    </g>
    <g id="xtick_2">
     <g id="line2d_3">
      <path clip-path="url(#p9d6a39bdb7)" d="M 119.326568 225.817728 
L 119.326568 8.377728 
" style="fill:none;stroke:#b0b0b0;stroke-linecap:square;stroke-width:0.8;"/>
     </g>
     <g id="line2d_4">
      <g>
       <use style="stroke:#000000;stroke-width:0.8;" x="119.326568" xlink:href="#m8b10e1ef15" y="225.817728"/>
      </g>
     </g>
     <g id="text_2">
      <!-- $\mathdefault{2}$ -->
      <g transform="translate(115.590578 242.949594)scale(0.15 -0.15)">
       <defs>
        <path d="M 47.5 13.734375 
L 46.203125 14.25 
C 42.5 8.5 41.203125 7.59375 36.703125 7.59375 
L 12.796875 7.59375 
L 29.59375 25.328125 
C 38.5 34.703125 42.40625 42.359375 42.40625 50.21875 
C 42.40625 60.28125 34.296875 68 23.90625 68 
C 18.40625 68 13.203125 65.796875 9.5 61.796875 
C 6.296875 58.375 4.796875 55.15625 3.09375 48 
L 5.203125 47.484375 
C 9.203125 57.359375 12.796875 60.59375 19.703125 60.59375 
C 28.09375 60.59375 33.796875 54.84375 33.796875 46.390625 
C 33.796875 38.53125 29.203125 29.15625 20.796875 20.1875 
L 3 1.1875 
L 3 0 
L 42 0 
z
" id="Nimbus_Roman_No9_L_Regular-50"/>
       </defs>
       <use transform="scale(0.996264)" xlink:href="#Nimbus_Roman_No9_L_Regular-50"/>
      </g>
     </g>
    </g>
    <g id="xtick_3">
     <g id="line2d_5">
      <path clip-path="url(#p9d6a39bdb7)" d="M 186.286568 225.817728 
L 186.286568 8.377728 
" style="fill:none;stroke:#b0b0b0;stroke-linecap:square;stroke-width:0.8;"/>
     </g>
     <g id="line2d_6">
      <g>
       <use style="stroke:#000000;stroke-width:0.8;" x="186.286568" xlink:href="#m8b10e1ef15" y="225.817728"/>
      </g>
     </g>
     <g id="text_3">
      <!-- $\mathdefault{4}$ -->
      <g transform="translate(182.550578 242.949594)scale(0.15 -0.15)">
       <defs>
        <path d="M 47.203125 23.390625 
L 37 23.390625 
L 37 68 
L 32.59375 68 
L 1.203125 23.390625 
L 1.203125 17 
L 29.296875 17 
L 29.296875 0 
L 37 0 
L 37 17 
L 47.203125 17 
z
M 29.203125 23.390625 
L 5.203125 23.390625 
L 29.203125 57.765625 
z
" id="Nimbus_Roman_No9_L_Regular-52"/>
       </defs>
       <use transform="scale(0.996264)" xlink:href="#Nimbus_Roman_No9_L_Regular-52"/>
      </g>
     </g>
    </g>
    <g id="xtick_4">
     <g id="line2d_7">
      <path clip-path="url(#p9d6a39bdb7)" d="M 253.246568 225.817728 
L 253.246568 8.377728 
" style="fill:none;stroke:#b0b0b0;stroke-linecap:square;stroke-width:0.8;"/>
     </g>
     <g id="line2d_8">
      <g>
       <use style="stroke:#000000;stroke-width:0.8;" x="253.246568" xlink:href="#m8b10e1ef15" y="225.817728"/>
      </g>
     </g>
     <g id="text_4">
      <!-- $\mathdefault{6}$ -->
      <g transform="translate(249.510578 242.949594)scale(0.15 -0.15)">
       <defs>
        <path d="M 44.59375 68.59375 
C 33.203125 67.59375 27.40625 65.6875 20.09375 60.59375 
C 9.296875 52.890625 3.40625 41.484375 3.40625 28.140625 
C 3.40625 19.5 6.09375 10.75 10.40625 5.765625 
C 14.203125 1.390625 19.59375 -1 25.796875 -1 
C 38.203125 -1 46.796875 8.453125 46.796875 22.1875 
C 46.796875 34.90625 39.5 43 28 43 
C 23.59375 43 21.5 42.296875 15.203125 38.484375 
C 17.90625 53.59375 29.09375 64.390625 44.796875 67 
z
M 24.203125 38.390625 
C 32.796875 38.390625 37.796875 31.234375 37.796875 18.796875 
C 37.796875 7.859375 33.90625 1.796875 26.90625 1.796875 
C 18.09375 1.796875 12.703125 11.140625 12.703125 26.5625 
C 12.703125 31.625 13.5 34.421875 15.5 35.90625 
C 17.59375 37.5 20.703125 38.390625 24.203125 38.390625 
z
" id="Nimbus_Roman_No9_L_Regular-54"/>
       </defs>
       <use transform="scale(0.996264)" xlink:href="#Nimbus_Roman_No9_L_Regular-54"/>
      </g>
     </g>
    </g>
    <g id="xtick_5">
     <g id="line2d_9">
      <path clip-path="url(#p9d6a39bdb7)" d="M 320.206568 225.817728 
L 320.206568 8.377728 
" style="fill:none;stroke:#b0b0b0;stroke-linecap:square;stroke-width:0.8;"/>
     </g>
     <g id="line2d_10">
      <g>
       <use style="stroke:#000000;stroke-width:0.8;" x="320.206568" xlink:href="#m8b10e1ef15" y="225.817728"/>
      </g>
     </g>
     <g id="text_5">
      <!-- $\mathdefault{8}$ -->
      <g transform="translate(316.470578 242.949594)scale(0.15 -0.15)">
       <defs>
        <path d="M 29 37.5 
C 38.90625 42.796875 42.40625 47 42.40625 53.796875 
C 42.40625 62 35.203125 68 25.203125 68 
C 14.296875 68 6.203125 61.296875 6.203125 52.203125 
C 6.203125 45.6875 8.09375 42.796875 18.59375 33.59375 
C 7.796875 25.390625 5.59375 22.296875 5.59375 15.5 
C 5.59375 5.796875 13.5 -1 24.796875 -1 
C 36.796875 -1 44.5 5.59375 44.5 15.890625 
C 44.5 23.59375 41.09375 28.5 29 37.5 
z
M 27.203125 27.1875 
C 34.5 22 36.90625 18.390625 36.90625 12.796875 
C 36.90625 6.296875 32.40625 1.796875 25.90625 1.796875 
C 18.296875 1.796875 13.203125 7.59375 13.203125 16.296875 
C 13.203125 22.6875 15.40625 26.890625 21.203125 31.59375 
z
M 26.09375 39.296875 
C 17.203125 45.09375 13.59375 49.6875 13.59375 55.296875 
C 13.59375 61.09375 18.09375 65.1875 24.40625 65.1875 
C 31.203125 65.1875 35.5 60.796875 35.5 53.890625 
C 35.5 48.1875 32.703125 43.6875 27 39.890625 
C 26.5 39.59375 26.5 39.59375 26.09375 39.296875 
z
" id="Nimbus_Roman_No9_L_Regular-56"/>
       </defs>
       <use transform="scale(0.996264)" xlink:href="#Nimbus_Roman_No9_L_Regular-56"/>
      </g>
     </g>
    </g>
    <g id="xtick_6">
     <g id="line2d_11">
      <path clip-path="url(#p9d6a39bdb7)" d="M 387.166568 225.817728 
L 387.166568 8.377728 
" style="fill:none;stroke:#b0b0b0;stroke-linecap:square;stroke-width:0.8;"/>
     </g>
     <g id="line2d_12">
      <g>
       <use style="stroke:#000000;stroke-width:0.8;" x="387.166568" xlink:href="#m8b10e1ef15" y="225.817728"/>
      </g>
     </g>
     <g id="text_6">
      <!-- $\mathdefault{10}$ -->
      <g transform="translate(379.694588 242.949594)scale(0.15 -0.15)">
       <defs>
        <path d="M 29.09375 68 
L 11.09375 59 
L 11.09375 57.59375 
C 12.296875 58.09375 13.40625 58.484375 13.796875 58.6875 
C 15.59375 59.390625 17.296875 59.78125 18.296875 59.78125 
C 20.40625 59.78125 21.296875 58.296875 21.296875 55.078125 
L 21.296875 9.359375 
C 21.296875 6.03125 20.5 3.71875 18.90625 2.796875 
C 17.40625 1.890625 16 1.59375 11.796875 1.5 
L 11.796875 0 
L 39.40625 0 
L 39.40625 1.5 
C 31.5 1.59375 29.90625 2.609375 29.90625 7.453125 
L 29.90625 67.796875 
z
" id="Nimbus_Roman_No9_L_Regular-49"/>
       </defs>
       <use transform="scale(0.996264)" xlink:href="#Nimbus_Roman_No9_L_Regular-49"/>
       <use transform="translate(49.8132 0)scale(0.996264)" xlink:href="#Nimbus_Roman_No9_L_Regular-48"/>
      </g>
     </g>
    </g>
   </g>
   <g id="matplotlib.axis_2">
    <g id="ytick_1">
     <g id="line2d_13">
      <path clip-path="url(#p9d6a39bdb7)" d="M 52.366568 221.929522 
L 387.166568 221.929522 
" style="fill:none;stroke:#b0b0b0;stroke-linecap:square;stroke-width:0.8;"/>
     </g>
     <g id="line2d_14">
      <defs>
       <path d="M 0 0 
L -3.5 0 
" id="mcc373cfc97" style="stroke:#000000;stroke-width:0.8;"/>
      </defs>
      <g>
       <use style="stroke:#000000;stroke-width:0.8;" x="52.366568" xlink:href="#mcc373cfc97" y="221.929522"/>
      </g>
     </g>
     <g id="text_7">
      <!-- $\mathdefault{−0.75}$ -->
      <g transform="translate(7.2 226.995455)scale(0.15 -0.15)">
       <defs>
        <path d="M 65.90625 23 
C 67.59375 23 69.40625 23 69.40625 25 
C 69.40625 27 67.59375 27 65.90625 27 
L 11.796875 27 
C 10.09375 27 8.296875 27 8.296875 25 
C 8.296875 23 10.09375 23 11.796875 23 
z
" id="CMSY10-0"/>
        <path d="M 19.203125 5.296875 
C 19.203125 8.1875 16.796875 10.59375 13.90625 10.59375 
C 11 10.59375 8.59375 8.1875 8.59375 5.296875 
C 8.59375 2.390625 11 0 13.90625 0 
C 16.796875 0 19.203125 2.390625 19.203125 5.296875 
z
" id="CMMI10-58"/>
        <path d="M 44.90625 66 
L 7.90625 66 
L 2 51.296875 
L 3.703125 50.5 
C 8 57.296875 9.796875 58.59375 15.296875 58.59375 
L 37 58.59375 
L 17.203125 -1 
L 23.703125 -1 
L 44.90625 64.390625 
z
" id="Nimbus_Roman_No9_L_Regular-55"/>
        <path d="M 18.09375 58.09375 
L 37.703125 58.09375 
C 39.296875 58.09375 39.703125 58.296875 40 58.984375 
L 43.796875 67.890625 
L 42.90625 68.59375 
C 41.40625 66.5 40.40625 66 38.296875 66 
L 17.40625 66 
L 6.5 42.453125 
C 6.40625 42.265625 6.40625 42.15625 6.40625 41.96875 
C 6.40625 41.46875 6.796875 41.171875 7.59375 41.171875 
C 10.796875 41.171875 14.796875 40.484375 18.90625 39.1875 
C 30.40625 35.53125 35.703125 29.40625 35.703125 19.609375 
C 35.703125 10.109375 29.59375 2.6875 21.796875 2.6875 
C 19.796875 2.6875 18.09375 3.390625 15.09375 5.5625 
C 11.90625 7.84375 9.59375 8.828125 7.5 8.828125 
C 4.59375 8.828125 3.203125 7.640625 3.203125 5.171875 
C 3.203125 1.390625 7.90625 -1 15.40625 -1 
C 23.796875 -1 31 1.6875 36 6.75 
C 40.59375 11.203125 42.703125 16.84375 42.703125 24.359375 
C 42.703125 31.484375 40.796875 36.03125 35.796875 40.96875 
C 31.40625 45.328125 25.703125 47.609375 13.90625 49.6875 
z
" id="Nimbus_Roman_No9_L_Regular-53"/>
       </defs>
       <use transform="scale(0.996264)" xlink:href="#CMSY10-0"/>
       <use transform="translate(77.408707 0)scale(0.996264)" xlink:href="#Nimbus_Roman_No9_L_Regular-48"/>
       <use transform="translate(127.221908 0)scale(0.996264)" xlink:href="#CMMI10-58"/>
       <use transform="translate(154.817414 0)scale(0.996264)" xlink:href="#Nimbus_Roman_No9_L_Regular-55"/>
       <use transform="translate(204.630615 0)scale(0.996264)" xlink:href="#Nimbus_Roman_No9_L_Regular-53"/>
      </g>
     </g>
    </g>
    <g id="ytick_2">
     <g id="line2d_15">
      <path clip-path="url(#p9d6a39bdb7)" d="M 52.366568 186.985591 
L 387.166568 186.985591 
" style="fill:none;stroke:#b0b0b0;stroke-linecap:square;stroke-width:0.8;"/>
     </g>
     <g id="line2d_16">
      <g>
       <use style="stroke:#000000;stroke-width:0.8;" x="52.366568" xlink:href="#mcc373cfc97" y="186.985591"/>
      </g>
     </g>
     <g id="text_8">
      <!-- $\mathdefault{−0.50}$ -->
      <g transform="translate(7.2 192.051524)scale(0.15 -0.15)">
       <use transform="scale(0.996264)" xlink:href="#CMSY10-0"/>
       <use transform="translate(77.408707 0)scale(0.996264)" xlink:href="#Nimbus_Roman_No9_L_Regular-48"/>
       <use transform="translate(127.221908 0)scale(0.996264)" xlink:href="#CMMI10-58"/>
       <use transform="translate(154.817414 0)scale(0.996264)" xlink:href="#Nimbus_Roman_No9_L_Regular-53"/>
       <use transform="translate(204.630615 0)scale(0.996264)" xlink:href="#Nimbus_Roman_No9_L_Regular-48"/>
      </g>
     </g>
    </g>
    <g id="ytick_3">
     <g id="line2d_17">
      <path clip-path="url(#p9d6a39bdb7)" d="M 52.366568 152.041659 
L 387.166568 152.041659 
" style="fill:none;stroke:#b0b0b0;stroke-linecap:square;stroke-width:0.8;"/>
     </g>
     <g id="line2d_18">
      <g>
       <use style="stroke:#000000;stroke-width:0.8;" x="52.366568" xlink:href="#mcc373cfc97" y="152.041659"/>
      </g>
     </g>
     <g id="text_9">
      <!-- $\mathdefault{−0.25}$ -->
      <g transform="translate(7.2 157.107592)scale(0.15 -0.15)">
       <use transform="scale(0.996264)" xlink:href="#CMSY10-0"/>
       <use transform="translate(77.408707 0)scale(0.996264)" xlink:href="#Nimbus_Roman_No9_L_Regular-48"/>
       <use transform="translate(127.221908 0)scale(0.996264)" xlink:href="#CMMI10-58"/>
       <use transform="translate(154.817414 0)scale(0.996264)" xlink:href="#Nimbus_Roman_No9_L_Regular-50"/>
       <use transform="translate(204.630615 0)scale(0.996264)" xlink:href="#Nimbus_Roman_No9_L_Regular-53"/>
      </g>
     </g>
    </g>
    <g id="ytick_4">
     <g id="line2d_19">
      <path clip-path="url(#p9d6a39bdb7)" d="M 52.366568 117.097728 
L 387.166568 117.097728 
" style="fill:none;stroke:#b0b0b0;stroke-linecap:square;stroke-width:0.8;"/>
     </g>
     <g id="line2d_20">
      <g>
       <use style="stroke:#000000;stroke-width:0.8;" x="52.366568" xlink:href="#mcc373cfc97" y="117.097728"/>
      </g>
     </g>
     <g id="text_10">
      <!-- $\mathdefault{0.00}$ -->
      <g transform="translate(18.811304 122.163661)scale(0.15 -0.15)">
       <use transform="scale(0.996264)" xlink:href="#Nimbus_Roman_No9_L_Regular-48"/>
       <use transform="translate(49.8132 0)scale(0.996264)" xlink:href="#CMMI10-58"/>
       <use transform="translate(77.408707 0)scale(0.996264)" xlink:href="#Nimbus_Roman_No9_L_Regular-48"/>
       <use transform="translate(127.221908 0)scale(0.996264)" xlink:href="#Nimbus_Roman_No9_L_Regular-48"/>
      </g>
     </g>
    </g>
    <g id="ytick_5">
     <g id="line2d_21">
      <path clip-path="url(#p9d6a39bdb7)" d="M 52.366568 82.153796 
L 387.166568 82.153796 
" style="fill:none;stroke:#b0b0b0;stroke-linecap:square;stroke-width:0.8;"/>
     </g>
     <g id="line2d_22">
      <g>
       <use style="stroke:#000000;stroke-width:0.8;" x="52.366568" xlink:href="#mcc373cfc97" y="82.153796"/>
      </g>
     </g>
     <g id="text_11">
      <!-- $\mathdefault{0.25}$ -->
      <g transform="translate(18.811304 87.219729)scale(0.15 -0.15)">
       <use transform="scale(0.996264)" xlink:href="#Nimbus_Roman_No9_L_Regular-48"/>
       <use transform="translate(49.8132 0)scale(0.996264)" xlink:href="#CMMI10-58"/>
       <use transform="translate(77.408707 0)scale(0.996264)" xlink:href="#Nimbus_Roman_No9_L_Regular-50"/>
       <use transform="translate(127.221908 0)scale(0.996264)" xlink:href="#Nimbus_Roman_No9_L_Regular-53"/>
      </g>
     </g>
    </g>
    <g id="ytick_6">
     <g id="line2d_23">
      <path clip-path="url(#p9d6a39bdb7)" d="M 52.366568 47.209865 
L 387.166568 47.209865 
" style="fill:none;stroke:#b0b0b0;stroke-linecap:square;stroke-width:0.8;"/>
     </g>
     <g id="line2d_24">
      <g>
       <use style="stroke:#000000;stroke-width:0.8;" x="52.366568" xlink:href="#mcc373cfc97" y="47.209865"/>
      </g>
     </g>
     <g id="text_12">
      <!-- $\mathdefault{0.50}$ -->
      <g transform="translate(18.811304 52.275798)scale(0.15 -0.15)">
       <use transform="scale(0.996264)" xlink:href="#Nimbus_Roman_No9_L_Regular-48"/>
       <use transform="translate(49.8132 0)scale(0.996264)" xlink:href="#CMMI10-58"/>
       <use transform="translate(77.408707 0)scale(0.996264)" xlink:href="#Nimbus_Roman_No9_L_Regular-53"/>
       <use transform="translate(127.221908 0)scale(0.996264)" xlink:href="#Nimbus_Roman_No9_L_Regular-48"/>
      </g>
     </g>
    </g>
    <g id="ytick_7">
     <g id="line2d_25">
      <path clip-path="url(#p9d6a39bdb7)" d="M 52.366568 12.265933 
L 387.166568 12.265933 
" style="fill:none;stroke:#b0b0b0;stroke-linecap:square;stroke-width:0.8;"/>
     </g>
     <g id="line2d_26">
      <g>
       <use style="stroke:#000000;stroke-width:0.8;" x="52.366568" xlink:href="#mcc373cfc97" y="12.265933"/>
      </g>
     </g>
     <g id="text_13">
      <!-- $\mathdefault{0.75}$ -->
      <g transform="translate(18.811304 17.331866)scale(0.15 -0.15)">
       <use transform="scale(0.996264)" xlink:href="#Nimbus_Roman_No9_L_Regular-48"/>
       <use transform="translate(49.8132 0)scale(0.996264)" xlink:href="#CMMI10-58"/>
       <use transform="translate(77.408707 0)scale(0.996264)" xlink:href="#Nimbus_Roman_No9_L_Regular-55"/>
       <use transform="translate(127.221908 0)scale(0.996264)" xlink:href="#Nimbus_Roman_No9_L_Regular-53"/>
      </g>
     </g>
    </g>
   </g>
   <g id="line2d_27">
    <path clip-path="url(#p9d6a39bdb7)" d="M 52.366568 18.261364 
L 54.379393 20.006671 
L 56.392219 25.180954 
L 58.405045 33.601472 
L 60.41787 44.970837 
L 62.430696 58.887514 
L 64.443522 74.860009 
L 68.469173 110.663354 
L 72.494824 147.367648 
L 74.50765 164.436516 
L 76.520476 179.833514 
L 78.533301 193.014865 
L 80.546127 203.515042 
L 82.558953 210.96321 
L 84.571778 215.096319 
L 86.584604 215.768402 
L 88.597429 212.955722 
L 90.610255 206.757614 
L 92.623081 197.392978 
L 94.635906 185.192546 
L 96.648732 170.587201 
L 98.661558 154.092763 
L 102.687209 117.812894 
L 106.71286 81.432885 
L 108.725686 64.816588 
L 110.738512 50.046709 
L 112.751337 37.644879 
L 114.764163 28.049094 
L 116.776989 21.598249 
L 118.789814 18.520169 
L 120.80264 18.923565 
L 122.815466 22.794188 
L 124.828291 29.99534 
L 126.841117 40.272696 
L 128.853943 53.26329 
L 130.866768 68.508333 
L 132.879594 85.469412 
L 140.930896 158.037914 
L 142.943722 174.145931 
L 144.956548 188.23917 
L 146.969373 199.819899 
L 148.982199 208.479119 
L 150.995025 213.911013 
L 153.00785 215.923742 
L 155.020676 214.446221 
L 157.033502 209.530632 
L 159.046327 201.350581 
L 161.059153 190.194962 
L 163.071979 176.45776 
L 165.084804 160.624133 
L 169.110456 124.958687 
L 173.136107 88.192541 
L 175.148932 71.019461 
L 177.161758 55.473732 
L 179.174584 42.104384 
L 181.187409 31.383585 
L 183.200235 23.689962 
L 185.213061 19.295231 
L 187.225886 18.354601 
L 189.238712 20.901294 
L 191.251538 26.845367 
L 193.264363 35.976892 
L 195.277189 47.973371 
L 197.290015 62.411122 
L 199.30284 78.780246 
L 203.328492 114.95238 
L 207.354143 151.424907 
L 209.366969 168.159584 
L 211.379794 183.090903 
L 213.39262 195.691535 
L 215.405446 205.51646 
L 217.418271 212.218691 
L 219.431097 215.561524 
L 221.443922 215.426901 
L 223.456748 211.819575 
L 225.469574 204.866947 
L 227.482399 194.814564 
L 229.495225 182.017447 
L 231.508051 166.927553 
L 233.520876 150.077814 
L 241.572179 77.463648 
L 243.585005 61.223482 
L 245.59783 46.956634 
L 247.610656 35.166966 
L 249.623482 26.270856 
L 251.636307 20.582488 
L 253.649133 18.302761 
L 255.661959 19.512185 
L 257.674784 24.16805 
L 259.68761 32.105922 
L 261.700435 43.045459 
L 263.713261 56.600308 
L 265.726087 72.291751 
L 267.738912 89.565612 
L 275.790215 161.905823 
L 277.803041 177.597027 
L 279.815866 191.151571 
L 281.828692 202.090747 
L 283.841518 210.028215 
L 285.854343 214.683647 
L 287.867169 215.892626 
L 289.879995 213.612455 
L 291.89282 207.923662 
L 293.905646 199.02716 
L 295.918472 187.237147 
L 297.931297 172.970012 
L 299.944123 156.72963 
L 303.969774 120.672808 
L 307.995425 84.1154 
L 310.008251 67.265849 
L 312.021077 52.176215 
L 314.033902 39.379422 
L 316.046728 29.327415 
L 318.059554 22.375201 
L 320.072379 18.768314 
L 322.085205 18.634137 
L 324.098031 21.97741 
L 326.110856 28.680058 
L 328.123682 38.505362 
L 330.136508 51.106322 
L 332.149333 66.037907 
L 334.162159 82.772778 
L 338.18781 119.245453 
L 342.213462 155.4174 
L 344.226287 171.786314 
L 346.239113 186.223784 
L 348.251938 198.219922 
L 350.264764 207.351058 
L 352.27759 213.294707 
L 354.290415 215.840957 
L 356.303241 214.899882 
L 358.316067 210.504716 
L 360.328892 202.810686 
L 362.341718 192.089522 
L 364.354544 178.719865 
L 366.367369 163.173891 
L 368.380195 146.000641 
L 376.431498 73.569187 
L 378.444323 57.735794 
L 380.457149 43.998893 
L 382.469975 32.843631 
L 384.4828 24.663981 
L 386.495626 19.748824 
L 388.508452 18.271748 
L 390.521277 20.284921 
L 392.534103 25.717242 
L 394.546928 34.376858 
L 396.559754 45.957936 
L 398.57258 60.051466 
L 400.585405 76.159705 
L 402.838548 95.908184 
L 402.838548 95.908184 
" style="fill:none;stroke:#1f77b4;stroke-linecap:square;stroke-width:1.5;"/>
   </g>
   <g id="line2d_28">
    <path clip-path="url(#p9d6a39bdb7)" d="M 52.366568 18.261364 
L 54.379393 20.006671 
L 56.392219 25.180954 
L 58.405045 33.601472 
L 60.41787 44.970837 
L 62.430696 58.887514 
L 64.443522 74.860009 
L 68.469173 110.663354 
L 72.494824 147.367648 
L 74.50765 164.436516 
L 76.520476 179.833514 
L 78.533301 193.014865 
L 80.546127 203.515042 
L 82.558953 210.96321 
L 84.571778 215.096319 
L 86.584604 215.768402 
L 88.597429 212.955722 
L 90.610255 206.757614 
L 92.623081 197.392978 
L 94.635906 185.192546 
L 96.648732 170.587201 
L 98.661558 154.092763 
L 102.687209 117.812894 
L 106.71286 81.432885 
L 108.725686 64.816588 
L 110.738512 50.046709 
L 112.751337 37.644879 
L 114.764163 28.049094 
L 116.776989 21.598249 
L 118.789814 18.520169 
L 120.80264 18.923565 
L 122.815466 22.794188 
L 124.828291 29.99534 
L 126.841117 40.272696 
L 128.853943 53.26329 
L 130.866768 68.508333 
L 132.879594 85.469412 
L 140.930896 158.037914 
L 142.943722 174.145931 
L 144.956548 188.23917 
L 146.969373 199.819899 
L 148.982199 208.479119 
L 150.995025 213.911013 
L 153.00785 215.923742 
L 155.020676 214.446221 
L 157.033502 209.530632 
L 159.046327 201.350581 
L 161.059153 190.194962 
L 163.071979 176.45776 
L 165.084804 160.624133 
L 169.110456 124.958687 
L 173.136107 88.192541 
L 175.148932 71.019461 
L 177.161758 55.473732 
L 179.174584 42.104384 
L 181.187409 31.383585 
L 183.200235 23.689962 
L 185.213061 19.295231 
L 187.225886 18.354601 
L 189.238712 20.901294 
L 191.251538 26.845367 
L 193.264363 35.976892 
L 195.277189 47.973371 
L 197.290015 62.411122 
L 199.30284 78.780246 
L 203.328492 114.95238 
L 207.354143 151.424907 
L 209.366969 168.159584 
L 211.379794 183.090903 
L 213.39262 195.691535 
L 215.405446 205.51646 
L 217.418271 212.218691 
L 219.431097 215.561524 
L 221.443922 215.426901 
L 223.456748 211.819575 
L 225.469574 204.866947 
L 227.482399 194.814564 
L 229.495225 182.017447 
L 231.508051 166.927553 
L 233.520876 150.077814 
L 241.572179 77.463648 
L 243.585005 61.223482 
L 245.59783 46.956634 
L 247.610656 35.166966 
L 249.623482 26.270856 
L 251.636307 20.582488 
L 253.649133 18.302761 
L 255.661959 19.512185 
L 257.674784 24.16805 
L 259.68761 32.105922 
L 261.700435 43.045459 
L 263.713261 56.600308 
L 265.726087 72.291751 
L 267.738912 89.565612 
L 275.790215 161.905823 
L 277.803041 177.597027 
L 279.815866 191.151571 
L 281.828692 202.090747 
L 283.841518 210.028215 
L 285.854343 214.683647 
L 287.867169 215.892626 
L 289.879995 213.612455 
L 291.89282 207.923662 
L 293.905646 199.02716 
L 295.918472 187.237147 
L 297.931297 172.970012 
L 299.944123 156.72963 
L 303.969774 120.672808 
L 307.995425 84.1154 
L 310.008251 67.265849 
L 312.021077 52.176215 
L 314.033902 39.379422 
L 316.046728 29.327415 
L 318.059554 22.375201 
L 320.072379 18.768314 
L 322.085205 18.634137 
L 324.098031 21.97741 
L 326.110856 28.680058 
L 328.123682 38.505362 
L 330.136508 51.106322 
L 332.149333 66.037907 
L 334.162159 82.772778 
L 338.18781 119.245453 
L 342.213462 155.4174 
L 344.226287 171.786314 
L 346.239113 186.223784 
L 348.251938 198.219922 
L 350.264764 207.351058 
L 352.27759 213.294707 
L 354.290415 215.840957 
L 356.303241 214.899882 
L 358.316067 210.504716 
L 360.328892 202.810686 
L 362.341718 192.089522 
L 364.354544 178.719865 
L 366.367369 163.173891 
L 368.380195 146.000641 
L 376.431498 73.569187 
L 378.444323 57.735794 
L 380.457149 43.998893 
L 382.469975 32.843631 
L 384.4828 24.663981 
L 386.495626 19.748824 
L 388.508452 18.271748 
L 390.521277 20.284921 
L 392.534103 25.717242 
L 394.546928 34.376858 
L 396.559754 45.957936 
L 398.57258 60.051466 
L 400.585405 76.159705 
L 402.838548 95.908184 
L 402.838548 95.908184 
" style="fill:none;stroke:#ff7f0e;stroke-linecap:square;stroke-width:1.5;"/>
   </g>
   <g id="patch_3">
    <path d="M 52.366568 225.817728 
L 52.366568 8.377728 
" style="fill:none;stroke:#000000;stroke-linecap:square;stroke-linejoin:miter;stroke-width:0.8;"/>
   </g>
   <g id="patch_4">
    <path d="M 387.166568 225.817728 
L 387.166568 8.377728 
" style="fill:none;stroke:#000000;stroke-linecap:square;stroke-linejoin:miter;stroke-width:0.8;"/>
   </g>
   <g id="patch_5">
    <path d="M 52.366568 225.817728 
L 387.166568 225.817728 
" style="fill:none;stroke:#000000;stroke-linecap:square;stroke-linejoin:miter;stroke-width:0.8;"/>
   </g>
   <g id="patch_6">
    <path d="M 52.366568 8.377728 
L 387.166568 8.377728 
" style="fill:none;stroke:#000000;stroke-linecap:square;stroke-linejoin:miter;stroke-width:0.8;"/>
   </g>
  </g>
 </g>
 <defs>
  <clipPath id="p9d6a39bdb7">
   <rect height="217.44" width="334.8" x="52.366568" y="8.377728"/>
  </clipPath>
 </defs>
</svg>
