<?xml version="1.0" encoding="utf-8" standalone="no"?>
<!DOCTYPE svg PUBLIC "-//W3C//DTD SVG 1.1//EN"
  "http://www.w3.org/Graphics/SVG/1.1/DTD/svg11.dtd">
<!-- Created with matplotlib (https://matplotlib.org/) -->
<svg height="248.518125pt" version="1.1" viewBox="0 0 386.845313 248.518125" width="386.845313pt" xmlns="http://www.w3.org/2000/svg" xmlns:xlink="http://www.w3.org/1999/xlink">
 <metadata>
  <rdf:RDF xmlns:cc="http://creativecommons.org/ns#" xmlns:dc="http://purl.org/dc/elements/1.1/" xmlns:rdf="http://www.w3.org/1999/02/22-rdf-syntax-ns#">
   <cc:Work>
    <dc:type rdf:resource="http://purl.org/dc/dcmitype/StillImage"/>
    <dc:date>2021-10-24T18:57:59.157465</dc:date>
    <dc:format>image/svg+xml</dc:format>
    <dc:creator>
     <cc:Agent>
      <dc:title>Matplotlib v3.3.4, https://matplotlib.org/</dc:title>
     </cc:Agent>
    </dc:creator>
   </cc:Work>
  </rdf:RDF>
 </metadata>
 <defs>
  <style type="text/css">*{stroke-linecap:butt;stroke-linejoin:round;}</style>
 </defs>
 <g id="figure_1">
  <g id="patch_1">
   <path d="M -0 248.518125 
L 386.845313 248.518125 
L 386.845313 0 
L -0 0 
z
" style="fill:none;"/>
  </g>
  <g id="axes_1">
   <g id="patch_2">
    <path d="M 38.482813 224.64 
L 373.282813 224.64 
L 373.282813 7.2 
L 38.482813 7.2 
z
" style="fill:#ffffff;"/>
   </g>
   <g id="matplotlib.axis_1">
    <g id="xtick_1">
     <g id="line2d_1">
      <path clip-path="url(#pbef93043a4)" d="M 38.482813 224.64 
L 38.482813 7.2 
" style="fill:none;stroke:#b0b0b0;stroke-linecap:square;stroke-width:0.8;"/>
     </g>
     <g id="line2d_2">
      <defs>
       <path d="M 0 0 
L 0 3.5 
" id="m8f8f8ac09d" style="stroke:#000000;stroke-width:0.8;"/>
      </defs>
      <g>
       <use style="stroke:#000000;stroke-width:0.8;" x="38.482813" xlink:href="#m8f8f8ac09d" y="224.64"/>
      </g>
     </g>
     <g id="text_1">
      <!-- 0 -->
      <g transform="translate(35.301563 239.238437)scale(0.1 -0.1)">
       <defs>
        <path d="M 31.78125 66.40625 
Q 24.171875 66.40625 20.328125 58.90625 
Q 16.5 51.421875 16.5 36.375 
Q 16.5 21.390625 20.328125 13.890625 
Q 24.171875 6.390625 31.78125 6.390625 
Q 39.453125 6.390625 43.28125 13.890625 
Q 47.125 21.390625 47.125 36.375 
Q 47.125 51.421875 43.28125 58.90625 
Q 39.453125 66.40625 31.78125 66.40625 
z
M 31.78125 74.21875 
Q 44.046875 74.21875 50.515625 64.515625 
Q 56.984375 54.828125 56.984375 36.375 
Q 56.984375 17.96875 50.515625 8.265625 
Q 44.046875 -1.421875 31.78125 -1.421875 
Q 19.53125 -1.421875 13.0625 8.265625 
Q 6.59375 17.96875 6.59375 36.375 
Q 6.59375 54.828125 13.0625 64.515625 
Q 19.53125 74.21875 31.78125 74.21875 
z
" id="DejaVuSans-48"/>
       </defs>
       <use xlink:href="#DejaVuSans-48"/>
      </g>
     </g>
    </g>
    <g id="xtick_2">
     <g id="line2d_3">
      <path clip-path="url(#pbef93043a4)" d="M 105.442813 224.64 
L 105.442813 7.2 
" style="fill:none;stroke:#b0b0b0;stroke-linecap:square;stroke-width:0.8;"/>
     </g>
     <g id="line2d_4">
      <g>
       <use style="stroke:#000000;stroke-width:0.8;" x="105.442813" xlink:href="#m8f8f8ac09d" y="224.64"/>
      </g>
     </g>
     <g id="text_2">
      <!-- 2 -->
      <g transform="translate(102.261562 239.238437)scale(0.1 -0.1)">
       <defs>
        <path d="M 19.1875 8.296875 
L 53.609375 8.296875 
L 53.609375 0 
L 7.328125 0 
L 7.328125 8.296875 
Q 12.9375 14.109375 22.625 23.890625 
Q 32.328125 33.6875 34.8125 36.53125 
Q 39.546875 41.84375 41.421875 45.53125 
Q 43.3125 49.21875 43.3125 52.78125 
Q 43.3125 58.59375 39.234375 62.25 
Q 35.15625 65.921875 28.609375 65.921875 
Q 23.96875 65.921875 18.8125 64.3125 
Q 13.671875 62.703125 7.8125 59.421875 
L 7.8125 69.390625 
Q 13.765625 71.78125 18.9375 73 
Q 24.125 74.21875 28.421875 74.21875 
Q 39.75 74.21875 46.484375 68.546875 
Q 53.21875 62.890625 53.21875 53.421875 
Q 53.21875 48.921875 51.53125 44.890625 
Q 49.859375 40.875 45.40625 35.40625 
Q 44.1875 33.984375 37.640625 27.21875 
Q 31.109375 20.453125 19.1875 8.296875 
z
" id="DejaVuSans-50"/>
       </defs>
       <use xlink:href="#DejaVuSans-50"/>
      </g>
     </g>
    </g>
    <g id="xtick_3">
     <g id="line2d_5">
      <path clip-path="url(#pbef93043a4)" d="M 172.402813 224.64 
L 172.402813 7.2 
" style="fill:none;stroke:#b0b0b0;stroke-linecap:square;stroke-width:0.8;"/>
     </g>
     <g id="line2d_6">
      <g>
       <use style="stroke:#000000;stroke-width:0.8;" x="172.402813" xlink:href="#m8f8f8ac09d" y="224.64"/>
      </g>
     </g>
     <g id="text_3">
      <!-- 4 -->
      <g transform="translate(169.221563 239.238437)scale(0.1 -0.1)">
       <defs>
        <path d="M 37.796875 64.3125 
L 12.890625 25.390625 
L 37.796875 25.390625 
z
M 35.203125 72.90625 
L 47.609375 72.90625 
L 47.609375 25.390625 
L 58.015625 25.390625 
L 58.015625 17.1875 
L 47.609375 17.1875 
L 47.609375 0 
L 37.796875 0 
L 37.796875 17.1875 
L 4.890625 17.1875 
L 4.890625 26.703125 
z
" id="DejaVuSans-52"/>
       </defs>
       <use xlink:href="#DejaVuSans-52"/>
      </g>
     </g>
    </g>
    <g id="xtick_4">
     <g id="line2d_7">
      <path clip-path="url(#pbef93043a4)" d="M 239.362813 224.64 
L 239.362813 7.2 
" style="fill:none;stroke:#b0b0b0;stroke-linecap:square;stroke-width:0.8;"/>
     </g>
     <g id="line2d_8">
      <g>
       <use style="stroke:#000000;stroke-width:0.8;" x="239.362813" xlink:href="#m8f8f8ac09d" y="224.64"/>
      </g>
     </g>
     <g id="text_4">
      <!-- 6 -->
      <g transform="translate(236.181563 239.238437)scale(0.1 -0.1)">
       <defs>
        <path d="M 33.015625 40.375 
Q 26.375 40.375 22.484375 35.828125 
Q 18.609375 31.296875 18.609375 23.390625 
Q 18.609375 15.53125 22.484375 10.953125 
Q 26.375 6.390625 33.015625 6.390625 
Q 39.65625 6.390625 43.53125 10.953125 
Q 47.40625 15.53125 47.40625 23.390625 
Q 47.40625 31.296875 43.53125 35.828125 
Q 39.65625 40.375 33.015625 40.375 
z
M 52.59375 71.296875 
L 52.59375 62.3125 
Q 48.875 64.0625 45.09375 64.984375 
Q 41.3125 65.921875 37.59375 65.921875 
Q 27.828125 65.921875 22.671875 59.328125 
Q 17.53125 52.734375 16.796875 39.40625 
Q 19.671875 43.65625 24.015625 45.921875 
Q 28.375 48.1875 33.59375 48.1875 
Q 44.578125 48.1875 50.953125 41.515625 
Q 57.328125 34.859375 57.328125 23.390625 
Q 57.328125 12.15625 50.6875 5.359375 
Q 44.046875 -1.421875 33.015625 -1.421875 
Q 20.359375 -1.421875 13.671875 8.265625 
Q 6.984375 17.96875 6.984375 36.375 
Q 6.984375 53.65625 15.1875 63.9375 
Q 23.390625 74.21875 37.203125 74.21875 
Q 40.921875 74.21875 44.703125 73.484375 
Q 48.484375 72.75 52.59375 71.296875 
z
" id="DejaVuSans-54"/>
       </defs>
       <use xlink:href="#DejaVuSans-54"/>
      </g>
     </g>
    </g>
    <g id="xtick_5">
     <g id="line2d_9">
      <path clip-path="url(#pbef93043a4)" d="M 306.322813 224.64 
L 306.322813 7.2 
" style="fill:none;stroke:#b0b0b0;stroke-linecap:square;stroke-width:0.8;"/>
     </g>
     <g id="line2d_10">
      <g>
       <use style="stroke:#000000;stroke-width:0.8;" x="306.322813" xlink:href="#m8f8f8ac09d" y="224.64"/>
      </g>
     </g>
     <g id="text_5">
      <!-- 8 -->
      <g transform="translate(303.141563 239.238437)scale(0.1 -0.1)">
       <defs>
        <path d="M 31.78125 34.625 
Q 24.75 34.625 20.71875 30.859375 
Q 16.703125 27.09375 16.703125 20.515625 
Q 16.703125 13.921875 20.71875 10.15625 
Q 24.75 6.390625 31.78125 6.390625 
Q 38.8125 6.390625 42.859375 10.171875 
Q 46.921875 13.96875 46.921875 20.515625 
Q 46.921875 27.09375 42.890625 30.859375 
Q 38.875 34.625 31.78125 34.625 
z
M 21.921875 38.8125 
Q 15.578125 40.375 12.03125 44.71875 
Q 8.5 49.078125 8.5 55.328125 
Q 8.5 64.0625 14.71875 69.140625 
Q 20.953125 74.21875 31.78125 74.21875 
Q 42.671875 74.21875 48.875 69.140625 
Q 55.078125 64.0625 55.078125 55.328125 
Q 55.078125 49.078125 51.53125 44.71875 
Q 48 40.375 41.703125 38.8125 
Q 48.828125 37.15625 52.796875 32.3125 
Q 56.78125 27.484375 56.78125 20.515625 
Q 56.78125 9.90625 50.3125 4.234375 
Q 43.84375 -1.421875 31.78125 -1.421875 
Q 19.734375 -1.421875 13.25 4.234375 
Q 6.78125 9.90625 6.78125 20.515625 
Q 6.78125 27.484375 10.78125 32.3125 
Q 14.796875 37.15625 21.921875 38.8125 
z
M 18.3125 54.390625 
Q 18.3125 48.734375 21.84375 45.5625 
Q 25.390625 42.390625 31.78125 42.390625 
Q 38.140625 42.390625 41.71875 45.5625 
Q 45.3125 48.734375 45.3125 54.390625 
Q 45.3125 60.0625 41.71875 63.234375 
Q 38.140625 66.40625 31.78125 66.40625 
Q 25.390625 66.40625 21.84375 63.234375 
Q 18.3125 60.0625 18.3125 54.390625 
z
" id="DejaVuSans-56"/>
       </defs>
       <use xlink:href="#DejaVuSans-56"/>
      </g>
     </g>
    </g>
    <g id="xtick_6">
     <g id="line2d_11">
      <path clip-path="url(#pbef93043a4)" d="M 373.282813 224.64 
L 373.282813 7.2 
" style="fill:none;stroke:#b0b0b0;stroke-linecap:square;stroke-width:0.8;"/>
     </g>
     <g id="line2d_12">
      <g>
       <use style="stroke:#000000;stroke-width:0.8;" x="373.282813" xlink:href="#m8f8f8ac09d" y="224.64"/>
      </g>
     </g>
     <g id="text_6">
      <!-- 10 -->
      <g transform="translate(366.920313 239.238437)scale(0.1 -0.1)">
       <defs>
        <path d="M 12.40625 8.296875 
L 28.515625 8.296875 
L 28.515625 63.921875 
L 10.984375 60.40625 
L 10.984375 69.390625 
L 28.421875 72.90625 
L 38.28125 72.90625 
L 38.28125 8.296875 
L 54.390625 8.296875 
L 54.390625 0 
L 12.40625 0 
z
" id="DejaVuSans-49"/>
       </defs>
       <use xlink:href="#DejaVuSans-49"/>
       <use x="63.623047" xlink:href="#DejaVuSans-48"/>
      </g>
     </g>
    </g>
   </g>
   <g id="matplotlib.axis_2">
    <g id="ytick_1">
     <g id="line2d_13">
      <path clip-path="url(#pbef93043a4)" d="M 38.482813 214.509732 
L 373.282813 214.509732 
" style="fill:none;stroke:#b0b0b0;stroke-linecap:square;stroke-width:0.8;"/>
     </g>
     <g id="line2d_14">
      <defs>
       <path d="M 0 0 
L -3.5 0 
" id="mddd8fb3207" style="stroke:#000000;stroke-width:0.8;"/>
      </defs>
      <g>
       <use style="stroke:#000000;stroke-width:0.8;" x="38.482813" xlink:href="#mddd8fb3207" y="214.509732"/>
      </g>
     </g>
     <g id="text_7">
      <!-- −0.6 -->
      <g transform="translate(7.2 218.308951)scale(0.1 -0.1)">
       <defs>
        <path d="M 10.59375 35.5 
L 73.1875 35.5 
L 73.1875 27.203125 
L 10.59375 27.203125 
z
" id="DejaVuSans-8722"/>
        <path d="M 10.6875 12.40625 
L 21 12.40625 
L 21 0 
L 10.6875 0 
z
" id="DejaVuSans-46"/>
       </defs>
       <use xlink:href="#DejaVuSans-8722"/>
       <use x="83.789062" xlink:href="#DejaVuSans-48"/>
       <use x="147.412109" xlink:href="#DejaVuSans-46"/>
       <use x="179.199219" xlink:href="#DejaVuSans-54"/>
      </g>
     </g>
    </g>
    <g id="ytick_2">
     <g id="line2d_15">
      <path clip-path="url(#pbef93043a4)" d="M 38.482813 181.646488 
L 373.282813 181.646488 
" style="fill:none;stroke:#b0b0b0;stroke-linecap:square;stroke-width:0.8;"/>
     </g>
     <g id="line2d_16">
      <g>
       <use style="stroke:#000000;stroke-width:0.8;" x="38.482813" xlink:href="#mddd8fb3207" y="181.646488"/>
      </g>
     </g>
     <g id="text_8">
      <!-- −0.4 -->
      <g transform="translate(7.2 185.445707)scale(0.1 -0.1)">
       <use xlink:href="#DejaVuSans-8722"/>
       <use x="83.789062" xlink:href="#DejaVuSans-48"/>
       <use x="147.412109" xlink:href="#DejaVuSans-46"/>
       <use x="179.199219" xlink:href="#DejaVuSans-52"/>
      </g>
     </g>
    </g>
    <g id="ytick_3">
     <g id="line2d_17">
      <path clip-path="url(#pbef93043a4)" d="M 38.482813 148.783244 
L 373.282813 148.783244 
" style="fill:none;stroke:#b0b0b0;stroke-linecap:square;stroke-width:0.8;"/>
     </g>
     <g id="line2d_18">
      <g>
       <use style="stroke:#000000;stroke-width:0.8;" x="38.482813" xlink:href="#mddd8fb3207" y="148.783244"/>
      </g>
     </g>
     <g id="text_9">
      <!-- −0.2 -->
      <g transform="translate(7.2 152.582463)scale(0.1 -0.1)">
       <use xlink:href="#DejaVuSans-8722"/>
       <use x="83.789062" xlink:href="#DejaVuSans-48"/>
       <use x="147.412109" xlink:href="#DejaVuSans-46"/>
       <use x="179.199219" xlink:href="#DejaVuSans-50"/>
      </g>
     </g>
    </g>
    <g id="ytick_4">
     <g id="line2d_19">
      <path clip-path="url(#pbef93043a4)" d="M 38.482813 115.92 
L 373.282813 115.92 
" style="fill:none;stroke:#b0b0b0;stroke-linecap:square;stroke-width:0.8;"/>
     </g>
     <g id="line2d_20">
      <g>
       <use style="stroke:#000000;stroke-width:0.8;" x="38.482813" xlink:href="#mddd8fb3207" y="115.92"/>
      </g>
     </g>
     <g id="text_10">
      <!-- 0.0 -->
      <g transform="translate(15.579688 119.719219)scale(0.1 -0.1)">
       <use xlink:href="#DejaVuSans-48"/>
       <use x="63.623047" xlink:href="#DejaVuSans-46"/>
       <use x="95.410156" xlink:href="#DejaVuSans-48"/>
      </g>
     </g>
    </g>
    <g id="ytick_5">
     <g id="line2d_21">
      <path clip-path="url(#pbef93043a4)" d="M 38.482813 83.056756 
L 373.282813 83.056756 
" style="fill:none;stroke:#b0b0b0;stroke-linecap:square;stroke-width:0.8;"/>
     </g>
     <g id="line2d_22">
      <g>
       <use style="stroke:#000000;stroke-width:0.8;" x="38.482813" xlink:href="#mddd8fb3207" y="83.056756"/>
      </g>
     </g>
     <g id="text_11">
      <!-- 0.2 -->
      <g transform="translate(15.579688 86.855975)scale(0.1 -0.1)">
       <use xlink:href="#DejaVuSans-48"/>
       <use x="63.623047" xlink:href="#DejaVuSans-46"/>
       <use x="95.410156" xlink:href="#DejaVuSans-50"/>
      </g>
     </g>
    </g>
    <g id="ytick_6">
     <g id="line2d_23">
      <path clip-path="url(#pbef93043a4)" d="M 38.482813 50.193512 
L 373.282813 50.193512 
" style="fill:none;stroke:#b0b0b0;stroke-linecap:square;stroke-width:0.8;"/>
     </g>
     <g id="line2d_24">
      <g>
       <use style="stroke:#000000;stroke-width:0.8;" x="38.482813" xlink:href="#mddd8fb3207" y="50.193512"/>
      </g>
     </g>
     <g id="text_12">
      <!-- 0.4 -->
      <g transform="translate(15.579688 53.99273)scale(0.1 -0.1)">
       <use xlink:href="#DejaVuSans-48"/>
       <use x="63.623047" xlink:href="#DejaVuSans-46"/>
       <use x="95.410156" xlink:href="#DejaVuSans-52"/>
      </g>
     </g>
    </g>
    <g id="ytick_7">
     <g id="line2d_25">
      <path clip-path="url(#pbef93043a4)" d="M 38.482813 17.330268 
L 373.282813 17.330268 
" style="fill:none;stroke:#b0b0b0;stroke-linecap:square;stroke-width:0.8;"/>
     </g>
     <g id="line2d_26">
      <g>
       <use style="stroke:#000000;stroke-width:0.8;" x="38.482813" xlink:href="#mddd8fb3207" y="17.330268"/>
      </g>
     </g>
     <g id="text_13">
      <!-- 0.6 -->
      <g transform="translate(15.579688 21.129486)scale(0.1 -0.1)">
       <use xlink:href="#DejaVuSans-48"/>
       <use x="63.623047" xlink:href="#DejaVuSans-46"/>
       <use x="95.410156" xlink:href="#DejaVuSans-54"/>
      </g>
     </g>
    </g>
   </g>
   <g id="line2d_27">
    <path clip-path="url(#pbef93043a4)" d="M 38.482813 214.756364 
L 41.834164 209.591001 
L 45.185515 194.634816 
L 48.536867 171.451081 
L 51.888218 142.463042 
L 58.590921 79.483767 
L 61.942272 52.075346 
L 65.293623 31.340193 
L 68.644975 19.445619 
L 71.996326 17.634887 
L 75.347677 26.097261 
L 78.699029 43.948224 
L 82.05038 69.321931 
L 85.401731 99.566231 
L 88.753083 131.519885 
L 92.104434 161.842984 
L 95.455785 187.366052 
L 98.807137 205.421326 
L 102.158488 214.121607 
L 105.50984 212.55751 
L 108.861191 200.89252 
L 112.212542 180.345903 
L 115.563894 153.065265 
L 122.266596 90.113612 
L 125.617948 61.022527 
L 128.969299 37.669519 
L 132.32065 22.495526 
L 135.672002 17.086589 
L 139.023353 22.008067 
L 142.374704 36.745552 
L 145.726056 59.758628 
L 149.077407 88.641889 
L 155.78011 151.645025 
L 159.131461 179.179591 
L 162.482813 200.102041 
L 165.834164 212.225489 
L 169.185515 214.282747 
L 172.536867 206.058785 
L 175.888218 188.4132 
L 179.239569 163.190371 
L 182.590921 133.026675 
L 185.942272 101.07493 
L 189.293623 70.674844 
L 192.644975 45.003941 
L 195.996326 26.745434 
L 199.347677 17.807766 
L 202.699029 19.125135 
L 206.05038 30.559844 
L 209.401731 50.916696 
L 212.753083 78.067923 
L 219.455785 140.988192 
L 222.807137 170.180585 
L 226.158488 193.701472 
L 229.50984 209.092365 
L 232.861191 214.744555 
L 236.212542 210.067254 
L 239.563894 195.549351 
L 242.915245 172.708307 
L 246.266596 143.93155 
L 252.969299 80.908318 
L 256.32065 53.249252 
L 259.672002 32.140753 
L 263.023353 19.789157 
L 266.374704 17.485494 
L 269.726056 25.470553 
L 273.077407 42.909706 
L 276.428758 67.980152 
L 279.78011 98.06144 
L 283.131461 130.009367 
L 286.482813 160.484624 
L 289.834164 186.30183 
L 293.185515 204.762479 
L 296.536867 213.936999 
L 299.888218 212.866438 
L 303.239569 201.662693 
L 306.590921 181.496821 
L 309.942272 154.476628 
L 319.996326 62.299544 
L 323.347677 38.612184 
L 326.699029 23.00531 
L 330.05038 17.110206 
L 333.401731 21.54305 
L 336.753083 35.840504 
L 340.104434 58.50815 
L 343.455785 87.176684 
L 350.158488 150.216248 
L 353.50984 177.998161 
L 356.861191 199.291447 
L 360.212542 211.870455 
L 363.563894 214.420383 
L 366.915245 206.674705 
L 370.266596 189.443026 
L 373.617948 164.526461 
L 376.969299 134.529378 
L 380.32065 102.587177 
L 383.672002 72.038569 
L 387.023353 46.076604 
L 387.845313 41.499599 
L 387.845313 41.499599 
" style="fill:none;stroke:#1f77b4;stroke-linecap:square;stroke-width:1.5;"/>
   </g>
   <g id="line2d_28">
    <path clip-path="url(#pbef93043a4)" d="M 38.482813 177.004232 
L 41.834164 173.872009 
L 45.185515 164.796563 
L 48.536867 150.70862 
L 51.888218 133.052957 
L 58.590921 94.461316 
L 61.942272 77.483074 
L 65.293623 64.4467 
L 68.644975 56.689131 
L 71.996326 55.005937 
L 75.347677 59.569737 
L 78.699029 69.912494 
L 82.05038 84.973515 
L 85.401731 103.208229 
L 88.753083 122.746588 
L 92.104434 141.584852 
L 95.455785 157.791077 
L 98.807137 169.703246 
L 102.158488 176.099717 
L 105.50984 176.324504 
L 108.861191 170.354555 
L 112.212542 158.802112 
L 115.563894 142.851928 
L 118.915245 124.139761 
L 122.266596 104.584623 
L 125.617948 86.191975 
L 128.969299 70.848062 
L 132.32065 60.126467 
L 135.672002 55.126733 
L 139.023353 56.361605 
L 142.374704 63.704442 
L 145.726056 76.402205 
L 149.077407 93.152684 
L 155.78011 131.70101 
L 159.131461 149.545564 
L 162.482813 163.941675 
L 165.834164 173.41296 
L 169.185515 176.9881 
L 172.536867 174.300449 
L 175.888218 165.625636 
L 179.239569 151.853301 
L 182.590921 134.395854 
L 189.293623 95.781282 
L 192.644975 78.584245 
L 195.996326 65.216146 
L 199.347677 57.047942 
L 202.699029 54.917315 
L 206.05038 59.042771 
L 209.401731 69.001227 
L 212.753083 83.771401 
L 216.104434 101.838549 
L 222.807137 140.30422 
L 226.158488 156.757926 
L 229.50984 169.02353 
L 232.861191 175.843144 
L 236.212542 176.517386 
L 239.563894 170.977111 
L 242.915245 159.790497 
L 246.266596 144.104778 
L 249.617948 125.528592 
L 252.969299 105.967004 
L 256.32065 87.426138 
L 259.672002 71.807437 
L 263.023353 60.712666 
L 266.374704 55.279639 
L 269.726056 56.065538 
L 273.077407 62.989764 
L 276.428758 75.342209 
L 279.78011 91.856077 
L 289.834164 148.364748 
L 293.185515 163.061422 
L 296.536867 172.923544 
L 299.888218 176.939712 
L 303.239569 174.698052 
L 306.590921 166.428454 
L 309.942272 152.979002 
L 313.293623 135.728992 
L 319.996326 97.111886 
L 323.347677 79.705136 
L 326.699029 66.012373 
L 330.05038 57.437848 
L 333.401731 54.860914 
L 336.753083 58.545847 
L 340.104434 68.114742 
L 343.455785 82.586267 
L 346.807137 100.476307 
L 353.50984 139.010708 
L 356.861191 155.703205 
L 360.212542 168.315765 
L 363.563894 175.55492 
L 366.915245 176.678261 
L 370.266596 171.570587 
L 373.617948 160.75571 
L 376.969299 145.342742 
L 380.32065 126.912348 
L 383.672002 107.354642 
L 387.023353 88.67535 
L 387.845313 84.779303 
L 387.845313 84.779303 
" style="fill:none;stroke:#ff7f0e;stroke-linecap:square;stroke-width:1.5;"/>
   </g>
   <g id="line2d_29">
    <path clip-path="url(#pbef93043a4)" d="M 38.482813 115.92 
L 387.845313 115.92 
L 387.845313 115.92 
" style="fill:none;stroke:#2ca02c;stroke-linecap:square;stroke-width:1.5;"/>
   </g>
   <g id="line2d_30">
    <path clip-path="url(#pbef93043a4)" d="M 38.482813 54.835768 
L 41.834164 57.810429 
L 45.185515 66.444693 
L 48.536867 79.897624 
L 51.888218 96.858968 
L 58.590921 134.518257 
L 61.942272 151.548363 
L 65.293623 165.10843 
L 68.644975 173.877772 
L 71.996326 177.002295 
L 75.347677 174.177685 
L 78.699029 165.679045 
L 82.05038 152.334105 
L 85.401731 135.442599 
L 92.104434 97.785697 
L 95.455785 80.68791 
L 98.807137 67.021566 
L 102.158488 58.117703 
L 105.50984 54.843516 
L 108.861191 57.517897 
L 112.212542 65.880372 
L 115.563894 79.116476 
L 118.915245 95.937073 
L 125.617948 133.589198 
L 128.969299 150.753583 
L 132.32065 164.525337 
L 135.672002 173.563157 
L 139.023353 176.986799 
L 142.374704 174.462818 
L 145.726056 166.237037 
L 149.077407 153.110608 
L 152.428758 136.361987 
L 159.131461 98.717027 
L 162.482813 81.487134 
L 165.834164 67.610843 
L 169.185515 58.43964 
L 172.536867 54.866758 
L 175.888218 57.240181 
L 179.239569 65.328746 
L 182.590921 78.344665 
L 185.942272 95.020249 
L 192.644975 132.655656 
L 195.996326 149.949966 
L 199.347677 163.929914 
L 202.699029 173.233918 
L 206.05038 176.955812 
L 209.401731 174.733099 
L 212.753083 166.782263 
L 216.104434 153.877678 
L 219.455785 137.27619 
L 226.158488 99.652722 
L 229.50984 82.295093 
L 232.861191 68.212375 
L 236.212542 58.776159 
L 239.563894 54.905489 
L 242.915245 56.977351 
L 246.266596 64.789954 
L 249.617948 77.582387 
L 252.969299 94.108726 
L 259.672002 131.717869 
L 263.023353 149.137716 
L 266.374704 163.32231 
L 269.726056 172.890139 
L 273.077407 176.90934 
L 276.428758 174.988461 
L 279.78011 167.314587 
L 283.131461 154.635118 
L 286.482813 138.184975 
L 293.185515 100.592543 
L 296.536867 83.111582 
L 299.888218 68.82601 
L 303.239569 59.127175 
L 306.590921 54.959699 
L 309.942272 56.729474 
L 313.293623 64.264132 
L 316.644975 76.829834 
L 319.996326 93.202737 
L 326.699029 130.776074 
L 330.05038 148.317039 
L 333.401731 162.702682 
L 336.753083 172.531908 
L 340.104434 176.847396 
L 343.455785 175.228838 
L 346.807137 167.833872 
L 350.158488 155.382736 
L 353.50984 139.088111 
L 363.563894 83.936395 
L 366.915245 69.451593 
L 370.266596 59.492599 
L 373.617948 55.029373 
L 376.969299 56.496613 
L 380.32065 63.751415 
L 383.672002 76.087197 
L 387.023353 92.30251 
L 387.845313 96.843672 
L 387.845313 96.843672 
" style="fill:none;stroke:#d62728;stroke-linecap:square;stroke-width:1.5;"/>
   </g>
   <g id="line2d_31">
    <path clip-path="url(#pbef93043a4)" d="M 38.482813 17.083636 
L 41.834164 21.933948 
L 45.185515 36.008833 
L 48.536867 57.926866 
L 51.888218 85.536827 
L 58.590921 146.700367 
L 61.942272 174.250847 
L 65.293623 196.076251 
L 68.644975 210.034454 
L 71.996326 214.755481 
L 75.347677 209.775971 
L 78.699029 195.584654 
L 82.05038 173.574386 
L 85.401731 145.905435 
L 92.104434 84.742988 
L 95.455785 57.252482 
L 98.807137 35.520095 
L 102.158488 21.678824 
L 105.50984 17.087167 
L 108.861191 22.195786 
L 112.212542 36.50328 
L 115.563894 58.605392 
L 118.915245 86.332837 
L 125.617948 147.4931 
L 128.969299 174.923141 
L 132.32065 196.562122 
L 135.672002 210.286214 
L 139.023353 214.74842 
L 142.374704 209.510783 
L 145.726056 195.087366 
L 149.077407 172.893806 
L 152.428758 145.108362 
L 159.131461 83.951376 
L 162.482813 56.58229 
L 165.834164 35.037101 
L 169.185515 21.430433 
L 172.536867 17.097758 
L 175.888218 22.46432 
L 179.239569 37.003401 
L 182.590921 59.288014 
L 185.942272 87.130961 
L 192.644975 148.283577 
L 195.996326 175.59122 
L 199.347677 197.042232 
L 202.699029 210.531232 
L 206.05038 214.734299 
L 209.401731 209.238908 
L 212.753083 194.584423 
L 216.104434 172.209156 
L 219.455785 144.309202 
L 226.158488 83.162048 
L 229.50984 55.916337 
L 232.861191 34.559885 
L 236.212542 21.188792 
L 239.563894 17.115408 
L 242.915245 22.73953 
L 246.266596 37.509159 
L 249.617948 59.97468 
L 252.969299 87.931141 
L 259.672002 149.071743 
L 263.023353 176.255036 
L 266.374704 197.516546 
L 269.726056 210.769492 
L 273.077407 214.713119 
L 276.428758 208.960367 
L 279.78011 194.075859 
L 283.131461 171.520484 
L 286.482813 143.508015 
L 293.185515 82.375059 
L 296.536867 55.25467 
L 299.888218 34.088481 
L 303.239569 20.953918 
L 306.590921 17.140118 
L 309.942272 23.021397 
L 313.293623 38.020519 
L 316.644975 60.665344 
L 319.996326 88.733321 
L 326.699029 149.857539 
L 330.05038 176.914541 
L 333.401731 197.985031 
L 336.753083 211.000975 
L 340.104434 214.684881 
L 343.455785 208.675179 
L 346.807137 193.561712 
L 350.158488 170.827841 
L 353.50984 142.704857 
L 360.212542 81.590468 
L 363.563894 54.597337 
L 366.915245 33.622923 
L 370.266596 20.725829 
L 373.617948 17.171884 
L 376.969299 23.309901 
L 380.32065 38.537444 
L 383.672002 61.359955 
L 387.845313 97.083395 
L 387.845313 97.083395 
" style="fill:none;stroke:#9467bd;stroke-linecap:square;stroke-width:1.5;"/>
   </g>
   <g id="patch_3">
    <path d="M 38.482813 224.64 
L 38.482813 7.2 
" style="fill:none;stroke:#000000;stroke-linecap:square;stroke-linejoin:miter;stroke-width:0.8;"/>
   </g>
   <g id="patch_4">
    <path d="M 373.282813 224.64 
L 373.282813 7.2 
" style="fill:none;stroke:#000000;stroke-linecap:square;stroke-linejoin:miter;stroke-width:0.8;"/>
   </g>
   <g id="patch_5">
    <path d="M 38.482813 224.64 
L 373.282813 224.64 
" style="fill:none;stroke:#000000;stroke-linecap:square;stroke-linejoin:miter;stroke-width:0.8;"/>
   </g>
   <g id="patch_6">
    <path d="M 38.482813 7.2 
L 373.282813 7.2 
" style="fill:none;stroke:#000000;stroke-linecap:square;stroke-linejoin:miter;stroke-width:0.8;"/>
   </g>
  </g>
 </g>
 <defs>
  <clipPath id="pbef93043a4">
   <rect height="217.44" width="334.8" x="38.482813" y="7.2"/>
  </clipPath>
 </defs>
</svg>
