<?xml version="1.0" encoding="utf-8" standalone="no"?>
<!DOCTYPE svg PUBLIC "-//W3C//DTD SVG 1.1//EN"
  "http://www.w3.org/Graphics/SVG/1.1/DTD/svg11.dtd">
<!-- Created with matplotlib (https://matplotlib.org/) -->
<svg height="248.518125pt" version="1.1" viewBox="0 0 386.845313 248.518125" width="386.845313pt" xmlns="http://www.w3.org/2000/svg" xmlns:xlink="http://www.w3.org/1999/xlink">
 <metadata>
  <rdf:RDF xmlns:cc="http://creativecommons.org/ns#" xmlns:dc="http://purl.org/dc/elements/1.1/" xmlns:rdf="http://www.w3.org/1999/02/22-rdf-syntax-ns#">
   <cc:Work>
    <dc:type rdf:resource="http://purl.org/dc/dcmitype/StillImage"/>
    <dc:date>2021-10-24T19:22:07.140031</dc:date>
    <dc:format>image/svg+xml</dc:format>
    <dc:creator>
     <cc:Agent>
      <dc:title>Matplotlib v3.3.4, https://matplotlib.org/</dc:title>
     </cc:Agent>
    </dc:creator>
   </cc:Work>
  </rdf:RDF>
 </metadata>
 <defs>
  <style type="text/css">*{stroke-linecap:butt;stroke-linejoin:round;}</style>
 </defs>
 <g id="figure_1">
  <g id="patch_1">
   <path d="M -0 248.518125 
L 386.845313 248.518125 
L 386.845313 0 
L -0 0 
z
" style="fill:none;"/>
  </g>
  <g id="axes_1">
   <g id="patch_2">
    <path d="M 38.482813 224.64 
L 373.282813 224.64 
L 373.282813 7.2 
L 38.482813 7.2 
z
" style="fill:#ffffff;"/>
   </g>
   <g id="matplotlib.axis_1">
    <g id="xtick_1">
     <g id="line2d_1">
      <path clip-path="url(#p072430ca31)" d="M 38.482813 224.64 
L 38.482813 7.2 
" style="fill:none;stroke:#b0b0b0;stroke-linecap:square;stroke-width:0.8;"/>
     </g>
     <g id="line2d_2">
      <defs>
       <path d="M 0 0 
L 0 3.5 
" id="m248339cbb8" style="stroke:#000000;stroke-width:0.8;"/>
      </defs>
      <g>
       <use style="stroke:#000000;stroke-width:0.8;" x="38.482813" xlink:href="#m248339cbb8" y="224.64"/>
      </g>
     </g>
     <g id="text_1">
      <!-- 0 -->
      <g transform="translate(35.301563 239.238437)scale(0.1 -0.1)">
       <defs>
        <path d="M 31.78125 66.40625 
Q 24.171875 66.40625 20.328125 58.90625 
Q 16.5 51.421875 16.5 36.375 
Q 16.5 21.390625 20.328125 13.890625 
Q 24.171875 6.390625 31.78125 6.390625 
Q 39.453125 6.390625 43.28125 13.890625 
Q 47.125 21.390625 47.125 36.375 
Q 47.125 51.421875 43.28125 58.90625 
Q 39.453125 66.40625 31.78125 66.40625 
z
M 31.78125 74.21875 
Q 44.046875 74.21875 50.515625 64.515625 
Q 56.984375 54.828125 56.984375 36.375 
Q 56.984375 17.96875 50.515625 8.265625 
Q 44.046875 -1.421875 31.78125 -1.421875 
Q 19.53125 -1.421875 13.0625 8.265625 
Q 6.59375 17.96875 6.59375 36.375 
Q 6.59375 54.828125 13.0625 64.515625 
Q 19.53125 74.21875 31.78125 74.21875 
z
" id="DejaVuSans-48"/>
       </defs>
       <use xlink:href="#DejaVuSans-48"/>
      </g>
     </g>
    </g>
    <g id="xtick_2">
     <g id="line2d_3">
      <path clip-path="url(#p072430ca31)" d="M 105.442813 224.64 
L 105.442813 7.2 
" style="fill:none;stroke:#b0b0b0;stroke-linecap:square;stroke-width:0.8;"/>
     </g>
     <g id="line2d_4">
      <g>
       <use style="stroke:#000000;stroke-width:0.8;" x="105.442813" xlink:href="#m248339cbb8" y="224.64"/>
      </g>
     </g>
     <g id="text_2">
      <!-- 2 -->
      <g transform="translate(102.261562 239.238437)scale(0.1 -0.1)">
       <defs>
        <path d="M 19.1875 8.296875 
L 53.609375 8.296875 
L 53.609375 0 
L 7.328125 0 
L 7.328125 8.296875 
Q 12.9375 14.109375 22.625 23.890625 
Q 32.328125 33.6875 34.8125 36.53125 
Q 39.546875 41.84375 41.421875 45.53125 
Q 43.3125 49.21875 43.3125 52.78125 
Q 43.3125 58.59375 39.234375 62.25 
Q 35.15625 65.921875 28.609375 65.921875 
Q 23.96875 65.921875 18.8125 64.3125 
Q 13.671875 62.703125 7.8125 59.421875 
L 7.8125 69.390625 
Q 13.765625 71.78125 18.9375 73 
Q 24.125 74.21875 28.421875 74.21875 
Q 39.75 74.21875 46.484375 68.546875 
Q 53.21875 62.890625 53.21875 53.421875 
Q 53.21875 48.921875 51.53125 44.890625 
Q 49.859375 40.875 45.40625 35.40625 
Q 44.1875 33.984375 37.640625 27.21875 
Q 31.109375 20.453125 19.1875 8.296875 
z
" id="DejaVuSans-50"/>
       </defs>
       <use xlink:href="#DejaVuSans-50"/>
      </g>
     </g>
    </g>
    <g id="xtick_3">
     <g id="line2d_5">
      <path clip-path="url(#p072430ca31)" d="M 172.402813 224.64 
L 172.402813 7.2 
" style="fill:none;stroke:#b0b0b0;stroke-linecap:square;stroke-width:0.8;"/>
     </g>
     <g id="line2d_6">
      <g>
       <use style="stroke:#000000;stroke-width:0.8;" x="172.402813" xlink:href="#m248339cbb8" y="224.64"/>
      </g>
     </g>
     <g id="text_3">
      <!-- 4 -->
      <g transform="translate(169.221563 239.238437)scale(0.1 -0.1)">
       <defs>
        <path d="M 37.796875 64.3125 
L 12.890625 25.390625 
L 37.796875 25.390625 
z
M 35.203125 72.90625 
L 47.609375 72.90625 
L 47.609375 25.390625 
L 58.015625 25.390625 
L 58.015625 17.1875 
L 47.609375 17.1875 
L 47.609375 0 
L 37.796875 0 
L 37.796875 17.1875 
L 4.890625 17.1875 
L 4.890625 26.703125 
z
" id="DejaVuSans-52"/>
       </defs>
       <use xlink:href="#DejaVuSans-52"/>
      </g>
     </g>
    </g>
    <g id="xtick_4">
     <g id="line2d_7">
      <path clip-path="url(#p072430ca31)" d="M 239.362813 224.64 
L 239.362813 7.2 
" style="fill:none;stroke:#b0b0b0;stroke-linecap:square;stroke-width:0.8;"/>
     </g>
     <g id="line2d_8">
      <g>
       <use style="stroke:#000000;stroke-width:0.8;" x="239.362813" xlink:href="#m248339cbb8" y="224.64"/>
      </g>
     </g>
     <g id="text_4">
      <!-- 6 -->
      <g transform="translate(236.181563 239.238437)scale(0.1 -0.1)">
       <defs>
        <path d="M 33.015625 40.375 
Q 26.375 40.375 22.484375 35.828125 
Q 18.609375 31.296875 18.609375 23.390625 
Q 18.609375 15.53125 22.484375 10.953125 
Q 26.375 6.390625 33.015625 6.390625 
Q 39.65625 6.390625 43.53125 10.953125 
Q 47.40625 15.53125 47.40625 23.390625 
Q 47.40625 31.296875 43.53125 35.828125 
Q 39.65625 40.375 33.015625 40.375 
z
M 52.59375 71.296875 
L 52.59375 62.3125 
Q 48.875 64.0625 45.09375 64.984375 
Q 41.3125 65.921875 37.59375 65.921875 
Q 27.828125 65.921875 22.671875 59.328125 
Q 17.53125 52.734375 16.796875 39.40625 
Q 19.671875 43.65625 24.015625 45.921875 
Q 28.375 48.1875 33.59375 48.1875 
Q 44.578125 48.1875 50.953125 41.515625 
Q 57.328125 34.859375 57.328125 23.390625 
Q 57.328125 12.15625 50.6875 5.359375 
Q 44.046875 -1.421875 33.015625 -1.421875 
Q 20.359375 -1.421875 13.671875 8.265625 
Q 6.984375 17.96875 6.984375 36.375 
Q 6.984375 53.65625 15.1875 63.9375 
Q 23.390625 74.21875 37.203125 74.21875 
Q 40.921875 74.21875 44.703125 73.484375 
Q 48.484375 72.75 52.59375 71.296875 
z
" id="DejaVuSans-54"/>
       </defs>
       <use xlink:href="#DejaVuSans-54"/>
      </g>
     </g>
    </g>
    <g id="xtick_5">
     <g id="line2d_9">
      <path clip-path="url(#p072430ca31)" d="M 306.322813 224.64 
L 306.322813 7.2 
" style="fill:none;stroke:#b0b0b0;stroke-linecap:square;stroke-width:0.8;"/>
     </g>
     <g id="line2d_10">
      <g>
       <use style="stroke:#000000;stroke-width:0.8;" x="306.322813" xlink:href="#m248339cbb8" y="224.64"/>
      </g>
     </g>
     <g id="text_5">
      <!-- 8 -->
      <g transform="translate(303.141563 239.238437)scale(0.1 -0.1)">
       <defs>
        <path d="M 31.78125 34.625 
Q 24.75 34.625 20.71875 30.859375 
Q 16.703125 27.09375 16.703125 20.515625 
Q 16.703125 13.921875 20.71875 10.15625 
Q 24.75 6.390625 31.78125 6.390625 
Q 38.8125 6.390625 42.859375 10.171875 
Q 46.921875 13.96875 46.921875 20.515625 
Q 46.921875 27.09375 42.890625 30.859375 
Q 38.875 34.625 31.78125 34.625 
z
M 21.921875 38.8125 
Q 15.578125 40.375 12.03125 44.71875 
Q 8.5 49.078125 8.5 55.328125 
Q 8.5 64.0625 14.71875 69.140625 
Q 20.953125 74.21875 31.78125 74.21875 
Q 42.671875 74.21875 48.875 69.140625 
Q 55.078125 64.0625 55.078125 55.328125 
Q 55.078125 49.078125 51.53125 44.71875 
Q 48 40.375 41.703125 38.8125 
Q 48.828125 37.15625 52.796875 32.3125 
Q 56.78125 27.484375 56.78125 20.515625 
Q 56.78125 9.90625 50.3125 4.234375 
Q 43.84375 -1.421875 31.78125 -1.421875 
Q 19.734375 -1.421875 13.25 4.234375 
Q 6.78125 9.90625 6.78125 20.515625 
Q 6.78125 27.484375 10.78125 32.3125 
Q 14.796875 37.15625 21.921875 38.8125 
z
M 18.3125 54.390625 
Q 18.3125 48.734375 21.84375 45.5625 
Q 25.390625 42.390625 31.78125 42.390625 
Q 38.140625 42.390625 41.71875 45.5625 
Q 45.3125 48.734375 45.3125 54.390625 
Q 45.3125 60.0625 41.71875 63.234375 
Q 38.140625 66.40625 31.78125 66.40625 
Q 25.390625 66.40625 21.84375 63.234375 
Q 18.3125 60.0625 18.3125 54.390625 
z
" id="DejaVuSans-56"/>
       </defs>
       <use xlink:href="#DejaVuSans-56"/>
      </g>
     </g>
    </g>
    <g id="xtick_6">
     <g id="line2d_11">
      <path clip-path="url(#p072430ca31)" d="M 373.282813 224.64 
L 373.282813 7.2 
" style="fill:none;stroke:#b0b0b0;stroke-linecap:square;stroke-width:0.8;"/>
     </g>
     <g id="line2d_12">
      <g>
       <use style="stroke:#000000;stroke-width:0.8;" x="373.282813" xlink:href="#m248339cbb8" y="224.64"/>
      </g>
     </g>
     <g id="text_6">
      <!-- 10 -->
      <g transform="translate(366.920313 239.238437)scale(0.1 -0.1)">
       <defs>
        <path d="M 12.40625 8.296875 
L 28.515625 8.296875 
L 28.515625 63.921875 
L 10.984375 60.40625 
L 10.984375 69.390625 
L 28.421875 72.90625 
L 38.28125 72.90625 
L 38.28125 8.296875 
L 54.390625 8.296875 
L 54.390625 0 
L 12.40625 0 
z
" id="DejaVuSans-49"/>
       </defs>
       <use xlink:href="#DejaVuSans-49"/>
       <use x="63.623047" xlink:href="#DejaVuSans-48"/>
      </g>
     </g>
    </g>
   </g>
   <g id="matplotlib.axis_2">
    <g id="ytick_1">
     <g id="line2d_13">
      <path clip-path="url(#p072430ca31)" d="M 38.482813 209.684399 
L 373.282813 209.684399 
" style="fill:none;stroke:#b0b0b0;stroke-linecap:square;stroke-width:0.8;"/>
     </g>
     <g id="line2d_14">
      <defs>
       <path d="M 0 0 
L -3.5 0 
" id="m4fb246190a" style="stroke:#000000;stroke-width:0.8;"/>
      </defs>
      <g>
       <use style="stroke:#000000;stroke-width:0.8;" x="38.482813" xlink:href="#m4fb246190a" y="209.684399"/>
      </g>
     </g>
     <g id="text_7">
      <!-- −0.6 -->
      <g transform="translate(7.2 213.483618)scale(0.1 -0.1)">
       <defs>
        <path d="M 10.59375 35.5 
L 73.1875 35.5 
L 73.1875 27.203125 
L 10.59375 27.203125 
z
" id="DejaVuSans-8722"/>
        <path d="M 10.6875 12.40625 
L 21 12.40625 
L 21 0 
L 10.6875 0 
z
" id="DejaVuSans-46"/>
       </defs>
       <use xlink:href="#DejaVuSans-8722"/>
       <use x="83.789062" xlink:href="#DejaVuSans-48"/>
       <use x="147.412109" xlink:href="#DejaVuSans-46"/>
       <use x="179.199219" xlink:href="#DejaVuSans-54"/>
      </g>
     </g>
    </g>
    <g id="ytick_2">
     <g id="line2d_15">
      <path clip-path="url(#p072430ca31)" d="M 38.482813 178.429546 
L 373.282813 178.429546 
" style="fill:none;stroke:#b0b0b0;stroke-linecap:square;stroke-width:0.8;"/>
     </g>
     <g id="line2d_16">
      <g>
       <use style="stroke:#000000;stroke-width:0.8;" x="38.482813" xlink:href="#m4fb246190a" y="178.429546"/>
      </g>
     </g>
     <g id="text_8">
      <!-- −0.4 -->
      <g transform="translate(7.2 182.228765)scale(0.1 -0.1)">
       <use xlink:href="#DejaVuSans-8722"/>
       <use x="83.789062" xlink:href="#DejaVuSans-48"/>
       <use x="147.412109" xlink:href="#DejaVuSans-46"/>
       <use x="179.199219" xlink:href="#DejaVuSans-52"/>
      </g>
     </g>
    </g>
    <g id="ytick_3">
     <g id="line2d_17">
      <path clip-path="url(#p072430ca31)" d="M 38.482813 147.174693 
L 373.282813 147.174693 
" style="fill:none;stroke:#b0b0b0;stroke-linecap:square;stroke-width:0.8;"/>
     </g>
     <g id="line2d_18">
      <g>
       <use style="stroke:#000000;stroke-width:0.8;" x="38.482813" xlink:href="#m4fb246190a" y="147.174693"/>
      </g>
     </g>
     <g id="text_9">
      <!-- −0.2 -->
      <g transform="translate(7.2 150.973912)scale(0.1 -0.1)">
       <use xlink:href="#DejaVuSans-8722"/>
       <use x="83.789062" xlink:href="#DejaVuSans-48"/>
       <use x="147.412109" xlink:href="#DejaVuSans-46"/>
       <use x="179.199219" xlink:href="#DejaVuSans-50"/>
      </g>
     </g>
    </g>
    <g id="ytick_4">
     <g id="line2d_19">
      <path clip-path="url(#p072430ca31)" d="M 38.482813 115.91984 
L 373.282813 115.91984 
" style="fill:none;stroke:#b0b0b0;stroke-linecap:square;stroke-width:0.8;"/>
     </g>
     <g id="line2d_20">
      <g>
       <use style="stroke:#000000;stroke-width:0.8;" x="38.482813" xlink:href="#m4fb246190a" y="115.91984"/>
      </g>
     </g>
     <g id="text_10">
      <!-- 0.0 -->
      <g transform="translate(15.579688 119.719059)scale(0.1 -0.1)">
       <use xlink:href="#DejaVuSans-48"/>
       <use x="63.623047" xlink:href="#DejaVuSans-46"/>
       <use x="95.410156" xlink:href="#DejaVuSans-48"/>
      </g>
     </g>
    </g>
    <g id="ytick_5">
     <g id="line2d_21">
      <path clip-path="url(#p072430ca31)" d="M 38.482813 84.664987 
L 373.282813 84.664987 
" style="fill:none;stroke:#b0b0b0;stroke-linecap:square;stroke-width:0.8;"/>
     </g>
     <g id="line2d_22">
      <g>
       <use style="stroke:#000000;stroke-width:0.8;" x="38.482813" xlink:href="#m4fb246190a" y="84.664987"/>
      </g>
     </g>
     <g id="text_11">
      <!-- 0.2 -->
      <g transform="translate(15.579688 88.464206)scale(0.1 -0.1)">
       <use xlink:href="#DejaVuSans-48"/>
       <use x="63.623047" xlink:href="#DejaVuSans-46"/>
       <use x="95.410156" xlink:href="#DejaVuSans-50"/>
      </g>
     </g>
    </g>
    <g id="ytick_6">
     <g id="line2d_23">
      <path clip-path="url(#p072430ca31)" d="M 38.482813 53.410134 
L 373.282813 53.410134 
" style="fill:none;stroke:#b0b0b0;stroke-linecap:square;stroke-width:0.8;"/>
     </g>
     <g id="line2d_24">
      <g>
       <use style="stroke:#000000;stroke-width:0.8;" x="38.482813" xlink:href="#m4fb246190a" y="53.410134"/>
      </g>
     </g>
     <g id="text_12">
      <!-- 0.4 -->
      <g transform="translate(15.579688 57.209353)scale(0.1 -0.1)">
       <use xlink:href="#DejaVuSans-48"/>
       <use x="63.623047" xlink:href="#DejaVuSans-46"/>
       <use x="95.410156" xlink:href="#DejaVuSans-52"/>
      </g>
     </g>
    </g>
    <g id="ytick_7">
     <g id="line2d_25">
      <path clip-path="url(#p072430ca31)" d="M 38.482813 22.155281 
L 373.282813 22.155281 
" style="fill:none;stroke:#b0b0b0;stroke-linecap:square;stroke-width:0.8;"/>
     </g>
     <g id="line2d_26">
      <g>
       <use style="stroke:#000000;stroke-width:0.8;" x="38.482813" xlink:href="#m4fb246190a" y="22.155281"/>
      </g>
     </g>
     <g id="text_13">
      <!-- 0.6 -->
      <g transform="translate(15.579688 25.9545)scale(0.1 -0.1)">
       <use xlink:href="#DejaVuSans-48"/>
       <use x="63.623047" xlink:href="#DejaVuSans-46"/>
       <use x="95.410156" xlink:href="#DejaVuSans-54"/>
      </g>
     </g>
    </g>
   </g>
   <g id="line2d_27">
    <path clip-path="url(#p072430ca31)" d="M 38.482813 146.462006 
L 41.834164 144.865818 
L 45.185515 140.244095 
L 48.536867 133.079916 
L 51.888218 124.122105 
L 58.590921 104.660407 
L 61.942272 96.190725 
L 65.293623 89.7832 
L 68.644975 86.107569 
L 71.996326 85.548021 
L 75.347677 88.163042 
L 78.699029 93.679302 
L 82.05038 101.520221 
L 85.401731 110.866239 
L 88.753083 120.740478 
L 92.104434 130.110846 
L 95.455785 137.99792 
L 98.807137 143.577316 
L 102.158488 146.265854 
L 105.50984 145.782521 
L 108.861191 142.177835 
L 112.212542 135.828571 
L 115.563894 127.398377 
L 122.266596 107.945215 
L 125.617948 98.95556 
L 128.969299 91.739072 
L 132.32065 87.050043 
L 135.672002 85.378587 
L 139.023353 86.89941 
L 142.374704 91.45355 
L 145.726056 98.564994 
L 149.077407 107.490426 
L 155.78011 126.959498 
L 159.131461 135.46816 
L 162.482813 141.933564 
L 165.834164 145.679921 
L 169.185515 146.31565 
L 172.536867 143.774302 
L 175.888218 138.321507 
L 179.239569 130.527212 
L 182.590921 121.206102 
L 185.942272 111.332454 
L 189.293623 101.938295 
L 192.644975 94.005537 
L 195.996326 88.363339 
L 199.347677 85.601443 
L 202.699029 86.008533 
L 206.05038 89.542058 
L 209.401731 95.832682 
L 212.753083 104.222886 
L 219.455785 123.66635 
L 222.807137 132.68731 
L 226.158488 139.955676 
L 229.50984 144.711731 
L 232.861191 146.458356 
L 236.212542 145.012989 
L 239.563894 140.526702 
L 242.915245 133.468421 
L 246.266596 124.575899 
L 252.969299 105.100618 
L 256.32065 96.553483 
L 259.672002 90.030587 
L 263.023353 86.213728 
L 266.374704 85.501856 
L 269.726056 87.969379 
L 273.077407 93.358382 
L 276.428758 101.105588 
L 279.78011 110.401233 
L 283.131461 120.273701 
L 286.482813 129.691089 
L 289.834164 137.669057 
L 293.185515 143.37372 
L 296.536867 146.208808 
L 299.888218 145.877985 
L 303.239569 142.415832 
L 306.590921 136.184225 
L 309.942272 127.834513 
L 319.996326 99.350181 
L 323.347677 92.030373 
L 326.699029 87.207575 
L 330.05038 85.385885 
L 333.401731 86.755711 
L 336.753083 91.173875 
L 340.104434 98.178574 
L 343.455785 107.037653 
L 350.158488 126.517981 
L 353.50984 135.103078 
L 356.861191 141.683076 
L 360.212542 145.570209 
L 363.563894 146.358182 
L 366.915245 143.964632 
L 370.266596 138.639741 
L 373.617948 130.940087 
L 376.969299 121.670463 
L 380.32065 111.799764 
L 383.672002 102.35971 
L 387.023353 94.337009 
L 387.845313 92.922634 
L 387.845313 92.922634 
" style="fill:none;stroke:#1f77b4;stroke-linecap:square;stroke-width:1.5;"/>
   </g>
   <g id="line2d_28">
    <path clip-path="url(#p072430ca31)" d="M 38.482813 35.959413 
L 41.834164 40.138285 
L 45.185515 52.238113 
L 48.536867 70.994179 
L 51.888218 94.446033 
L 58.590921 145.39742 
L 61.942272 167.571334 
L 65.293623 184.346452 
L 68.644975 193.96938 
L 71.996326 195.434295 
L 75.347677 188.58808 
L 78.699029 174.146324 
L 82.05038 153.618531 
L 85.401731 129.150338 
L 88.753083 103.299247 
L 92.104434 78.767305 
L 95.455785 58.118677 
L 98.807137 43.511629 
L 102.158488 36.472943 
L 105.50984 37.738326 
L 108.861191 47.175516 
L 112.212542 63.798105 
L 115.563894 85.868641 
L 122.266596 136.79768 
L 125.617948 160.332901 
L 128.969299 179.225912 
L 132.32065 191.501949 
L 135.672002 195.877879 
L 139.023353 191.896313 
L 142.374704 179.973418 
L 145.726056 161.355418 
L 149.077407 137.988331 
L 155.78011 87.017641 
L 159.131461 64.741673 
L 162.482813 47.815028 
L 165.834164 38.006937 
L 169.185515 36.342577 
L 172.536867 42.995913 
L 175.888218 57.271514 
L 179.239569 77.677245 
L 182.590921 102.080227 
L 185.942272 127.929773 
L 189.293623 152.523999 
L 192.644975 173.29223 
L 195.996326 188.063696 
L 199.347677 195.294433 
L 202.699029 194.228658 
L 206.05038 184.977769 
L 209.401731 168.508703 
L 212.753083 146.542863 
L 219.455785 95.639214 
L 222.807137 72.022033 
L 226.158488 52.993206 
L 229.50984 40.541691 
L 232.861191 35.968967 
L 236.212542 39.752988 
L 239.563894 51.498238 
L 242.915245 69.97706 
L 246.266596 93.257983 
L 252.969299 144.244932 
L 256.32065 166.621622 
L 259.672002 183.698784 
L 263.023353 193.691452 
L 266.374704 195.555157 
L 269.726056 189.095098 
L 273.077407 174.986504 
L 276.428758 154.704054 
L 279.78011 130.367742 
L 283.131461 104.521284 
L 286.482813 79.866243 
L 289.834164 58.979651 
L 293.185515 44.044648 
L 296.536867 36.622293 
L 299.888218 37.488397 
L 303.239569 46.552432 
L 306.590921 62.866992 
L 309.942272 84.726822 
L 319.996326 159.29977 
L 323.347677 178.463278 
L 326.699029 191.089525 
L 330.05038 195.858772 
L 333.401731 192.27252 
L 336.753083 180.705618 
L 340.104434 162.367078 
L 343.455785 139.173709 
L 350.158488 88.173547 
L 353.50984 65.697471 
L 356.861191 48.470814 
L 360.212542 38.294166 
L 363.563894 36.231227 
L 366.915245 42.497622 
L 370.266596 56.438366 
L 373.617948 76.596323 
L 376.969299 100.864513 
L 380.32065 126.706338 
L 383.672002 151.420721 
L 387.023353 172.424426 
L 387.845313 176.127307 
L 387.845313 176.127307 
" style="fill:none;stroke:#ff7f0e;stroke-linecap:square;stroke-width:1.5;"/>
   </g>
   <g id="line2d_29">
    <path clip-path="url(#p072430ca31)" d="M 38.482813 214.756364 
L 41.834164 209.590993 
L 45.185515 194.634784 
L 48.536867 171.451011 
L 51.888218 142.462925 
L 58.590921 79.483548 
L 61.942272 52.075083 
L 65.293623 31.339896 
L 68.644975 19.445303 
L 71.996326 17.634568 
L 75.347677 26.096956 
L 78.699029 43.947948 
L 82.05038 69.321695 
L 85.401731 99.566045 
L 88.753083 131.519751 
L 92.104434 161.842899 
L 95.455785 187.366007 
L 98.807137 205.421311 
L 102.158488 214.121606 
L 105.50984 212.557506 
L 108.861191 200.892498 
L 112.212542 180.345848 
L 115.563894 153.065165 
L 122.266596 90.11341 
L 125.617948 61.022278 
L 128.969299 37.669232 
L 132.32065 22.495215 
L 135.672002 17.086269 
L 139.023353 22.007755 
L 142.374704 36.745264 
L 145.726056 59.758377 
L 149.077407 88.641685 
L 155.78011 151.644923 
L 159.131461 179.179533 
L 162.482813 200.102018 
L 165.834164 212.225485 
L 169.185515 214.282747 
L 172.536867 206.058771 
L 175.888218 188.413158 
L 179.239569 163.190287 
L 182.590921 133.026543 
L 185.942272 101.074746 
L 189.293623 70.674611 
L 192.644975 45.003666 
L 195.996326 26.74513 
L 199.347677 17.807448 
L 202.699029 19.124818 
L 206.05038 30.559545 
L 209.401731 50.916431 
L 212.753083 78.067702 
L 219.455785 140.988072 
L 222.807137 170.180513 
L 226.158488 193.701438 
L 229.50984 209.092356 
L 232.861191 214.744555 
L 236.212542 210.067246 
L 239.563894 195.54932 
L 242.915245 172.708239 
L 246.266596 143.931436 
L 252.969299 80.908101 
L 256.32065 53.248991 
L 259.672002 32.140458 
L 263.023353 19.788841 
L 266.374704 17.485175 
L 269.726056 25.470247 
L 273.077407 42.909428 
L 276.428758 67.979915 
L 279.78011 98.061251 
L 283.131461 130.00923 
L 286.482813 160.484537 
L 289.834164 186.301784 
L 293.185515 204.762463 
L 296.536867 213.936998 
L 299.888218 212.866435 
L 303.239569 201.662672 
L 306.590921 181.496767 
L 309.942272 154.47653 
L 319.996326 62.299297 
L 323.347677 38.611899 
L 326.699029 23.005 
L 330.05038 17.109886 
L 333.401731 21.542737 
L 336.753083 35.840215 
L 340.104434 58.507897 
L 343.455785 87.176477 
L 350.158488 150.216144 
L 353.50984 177.998102 
L 356.861191 199.291422 
L 360.212542 211.87045 
L 363.563894 214.420383 
L 366.915245 206.674692 
L 370.266596 189.442985 
L 373.617948 164.52638 
L 376.969299 134.529248 
L 380.32065 102.586995 
L 383.672002 72.038339 
L 387.023353 46.076331 
L 387.845313 41.499319 
L 387.845313 41.499319 
" style="fill:none;stroke:#2ca02c;stroke-linecap:square;stroke-width:1.5;"/>
   </g>
   <g id="line2d_30">
    <path clip-path="url(#p072430ca31)" d="M 38.482813 35.959413 
L 41.834164 40.138285 
L 45.185515 52.238113 
L 48.536867 70.994179 
L 51.888218 94.446033 
L 58.590921 145.39742 
L 61.942272 167.571334 
L 65.293623 184.346452 
L 68.644975 193.96938 
L 71.996326 195.434295 
L 75.347677 188.58808 
L 78.699029 174.146324 
L 82.05038 153.618531 
L 85.401731 129.150338 
L 88.753083 103.299247 
L 92.104434 78.767305 
L 95.455785 58.118677 
L 98.807137 43.511629 
L 102.158488 36.472943 
L 105.50984 37.738326 
L 108.861191 47.175516 
L 112.212542 63.798105 
L 115.563894 85.868641 
L 122.266596 136.79768 
L 125.617948 160.332901 
L 128.969299 179.225912 
L 132.32065 191.501949 
L 135.672002 195.877879 
L 139.023353 191.896313 
L 142.374704 179.973418 
L 145.726056 161.355418 
L 149.077407 137.988331 
L 155.78011 87.017641 
L 159.131461 64.741673 
L 162.482813 47.815028 
L 165.834164 38.006937 
L 169.185515 36.342577 
L 172.536867 42.995913 
L 175.888218 57.271514 
L 179.239569 77.677245 
L 182.590921 102.080227 
L 185.942272 127.929773 
L 189.293623 152.523999 
L 192.644975 173.29223 
L 195.996326 188.063696 
L 199.347677 195.294433 
L 202.699029 194.228658 
L 206.05038 184.977769 
L 209.401731 168.508703 
L 212.753083 146.542863 
L 219.455785 95.639214 
L 222.807137 72.022033 
L 226.158488 52.993206 
L 229.50984 40.541691 
L 232.861191 35.968967 
L 236.212542 39.752988 
L 239.563894 51.498238 
L 242.915245 69.97706 
L 246.266596 93.257983 
L 252.969299 144.244932 
L 256.32065 166.621622 
L 259.672002 183.698784 
L 263.023353 193.691452 
L 266.374704 195.555157 
L 269.726056 189.095098 
L 273.077407 174.986504 
L 276.428758 154.704054 
L 279.78011 130.367742 
L 283.131461 104.521284 
L 286.482813 79.866243 
L 289.834164 58.979651 
L 293.185515 44.044648 
L 296.536867 36.622293 
L 299.888218 37.488397 
L 303.239569 46.552432 
L 306.590921 62.866992 
L 309.942272 84.726822 
L 319.996326 159.29977 
L 323.347677 178.463278 
L 326.699029 191.089525 
L 330.05038 195.858772 
L 333.401731 192.27252 
L 336.753083 180.705618 
L 340.104434 162.367078 
L 343.455785 139.173709 
L 350.158488 88.173547 
L 353.50984 65.697471 
L 356.861191 48.470814 
L 360.212542 38.294166 
L 363.563894 36.231227 
L 366.915245 42.497622 
L 370.266596 56.438366 
L 373.617948 76.596323 
L 376.969299 100.864513 
L 380.32065 126.706338 
L 383.672002 151.420721 
L 387.023353 172.424426 
L 387.845313 176.127307 
L 387.845313 176.127307 
" style="fill:none;stroke:#d62728;stroke-linecap:square;stroke-width:1.5;"/>
   </g>
   <g id="line2d_31">
    <path clip-path="url(#p072430ca31)" d="M 38.482813 146.462006 
L 41.834164 144.865818 
L 45.185515 140.244095 
L 48.536867 133.079916 
L 51.888218 124.122105 
L 58.590921 104.660407 
L 61.942272 96.190725 
L 65.293623 89.7832 
L 68.644975 86.107569 
L 71.996326 85.548021 
L 75.347677 88.163042 
L 78.699029 93.679302 
L 82.05038 101.520221 
L 85.401731 110.866239 
L 88.753083 120.740478 
L 92.104434 130.110846 
L 95.455785 137.99792 
L 98.807137 143.577316 
L 102.158488 146.265854 
L 105.50984 145.782521 
L 108.861191 142.177835 
L 112.212542 135.828571 
L 115.563894 127.398377 
L 122.266596 107.945215 
L 125.617948 98.95556 
L 128.969299 91.739072 
L 132.32065 87.050043 
L 135.672002 85.378587 
L 139.023353 86.89941 
L 142.374704 91.45355 
L 145.726056 98.564994 
L 149.077407 107.490426 
L 155.78011 126.959498 
L 159.131461 135.46816 
L 162.482813 141.933564 
L 165.834164 145.679921 
L 169.185515 146.31565 
L 172.536867 143.774302 
L 175.888218 138.321507 
L 179.239569 130.527212 
L 182.590921 121.206102 
L 185.942272 111.332454 
L 189.293623 101.938295 
L 192.644975 94.005537 
L 195.996326 88.363339 
L 199.347677 85.601443 
L 202.699029 86.008533 
L 206.05038 89.542058 
L 209.401731 95.832682 
L 212.753083 104.222886 
L 219.455785 123.66635 
L 222.807137 132.68731 
L 226.158488 139.955676 
L 229.50984 144.711731 
L 232.861191 146.458356 
L 236.212542 145.012989 
L 239.563894 140.526702 
L 242.915245 133.468421 
L 246.266596 124.575899 
L 252.969299 105.100618 
L 256.32065 96.553483 
L 259.672002 90.030587 
L 263.023353 86.213728 
L 266.374704 85.501856 
L 269.726056 87.969379 
L 273.077407 93.358382 
L 276.428758 101.105588 
L 279.78011 110.401233 
L 283.131461 120.273701 
L 286.482813 129.691089 
L 289.834164 137.669057 
L 293.185515 143.37372 
L 296.536867 146.208808 
L 299.888218 145.877985 
L 303.239569 142.415832 
L 306.590921 136.184225 
L 309.942272 127.834513 
L 319.996326 99.350181 
L 323.347677 92.030373 
L 326.699029 87.207575 
L 330.05038 85.385885 
L 333.401731 86.755711 
L 336.753083 91.173875 
L 340.104434 98.178574 
L 343.455785 107.037653 
L 350.158488 126.517981 
L 353.50984 135.103078 
L 356.861191 141.683076 
L 360.212542 145.570209 
L 363.563894 146.358182 
L 366.915245 143.964632 
L 370.266596 138.639741 
L 373.617948 130.940087 
L 376.969299 121.670463 
L 380.32065 111.799764 
L 383.672002 102.35971 
L 387.023353 94.337009 
L 387.845313 92.922634 
L 387.845313 92.922634 
" style="fill:none;stroke:#9467bd;stroke-linecap:square;stroke-width:1.5;"/>
   </g>
   <g id="patch_3">
    <path d="M 38.482813 224.64 
L 38.482813 7.2 
" style="fill:none;stroke:#000000;stroke-linecap:square;stroke-linejoin:miter;stroke-width:0.8;"/>
   </g>
   <g id="patch_4">
    <path d="M 373.282813 224.64 
L 373.282813 7.2 
" style="fill:none;stroke:#000000;stroke-linecap:square;stroke-linejoin:miter;stroke-width:0.8;"/>
   </g>
   <g id="patch_5">
    <path d="M 38.482813 224.64 
L 373.282813 224.64 
" style="fill:none;stroke:#000000;stroke-linecap:square;stroke-linejoin:miter;stroke-width:0.8;"/>
   </g>
   <g id="patch_6">
    <path d="M 38.482813 7.2 
L 373.282813 7.2 
" style="fill:none;stroke:#000000;stroke-linecap:square;stroke-linejoin:miter;stroke-width:0.8;"/>
   </g>
  </g>
 </g>
 <defs>
  <clipPath id="p072430ca31">
   <rect height="217.44" width="334.8" x="38.482813" y="7.2"/>
  </clipPath>
 </defs>
</svg>
