<?xml version="1.0" encoding="utf-8" standalone="no"?>
<!DOCTYPE svg PUBLIC "-//W3C//DTD SVG 1.1//EN"
  "http://www.w3.org/Graphics/SVG/1.1/DTD/svg11.dtd">
<!-- Created with matplotlib (https://matplotlib.org/) -->
<svg height="248.518125pt" version="1.1" viewBox="0 0 386.845313 248.518125" width="386.845313pt" xmlns="http://www.w3.org/2000/svg" xmlns:xlink="http://www.w3.org/1999/xlink">
 <metadata>
  <rdf:RDF xmlns:cc="http://creativecommons.org/ns#" xmlns:dc="http://purl.org/dc/elements/1.1/" xmlns:rdf="http://www.w3.org/1999/02/22-rdf-syntax-ns#">
   <cc:Work>
    <dc:type rdf:resource="http://purl.org/dc/dcmitype/StillImage"/>
    <dc:date>2021-10-24T17:04:58.684352</dc:date>
    <dc:format>image/svg+xml</dc:format>
    <dc:creator>
     <cc:Agent>
      <dc:title>Matplotlib v3.3.4, https://matplotlib.org/</dc:title>
     </cc:Agent>
    </dc:creator>
   </cc:Work>
  </rdf:RDF>
 </metadata>
 <defs>
  <style type="text/css">*{stroke-linecap:butt;stroke-linejoin:round;}</style>
 </defs>
 <g id="figure_1">
  <g id="patch_1">
   <path d="M -0 248.518125 
L 386.845313 248.518125 
L 386.845313 0 
L -0 0 
z
" style="fill:none;"/>
  </g>
  <g id="axes_1">
   <g id="patch_2">
    <path d="M 38.482813 224.64 
L 373.282813 224.64 
L 373.282813 7.2 
L 38.482813 7.2 
z
" style="fill:#ffffff;"/>
   </g>
   <g id="matplotlib.axis_1">
    <g id="xtick_1">
     <g id="line2d_1">
      <defs>
       <path d="M 0 0 
L 0 3.5 
" id="m6124caecc8" style="stroke:#000000;stroke-width:0.8;"/>
      </defs>
      <g>
       <use style="stroke:#000000;stroke-width:0.8;" x="38.482813" xlink:href="#m6124caecc8" y="224.64"/>
      </g>
     </g>
     <g id="text_1">
      <!-- 0 -->
      <g transform="translate(35.301563 239.238437)scale(0.1 -0.1)">
       <defs>
        <path d="M 31.78125 66.40625 
Q 24.171875 66.40625 20.328125 58.90625 
Q 16.5 51.421875 16.5 36.375 
Q 16.5 21.390625 20.328125 13.890625 
Q 24.171875 6.390625 31.78125 6.390625 
Q 39.453125 6.390625 43.28125 13.890625 
Q 47.125 21.390625 47.125 36.375 
Q 47.125 51.421875 43.28125 58.90625 
Q 39.453125 66.40625 31.78125 66.40625 
z
M 31.78125 74.21875 
Q 44.046875 74.21875 50.515625 64.515625 
Q 56.984375 54.828125 56.984375 36.375 
Q 56.984375 17.96875 50.515625 8.265625 
Q 44.046875 -1.421875 31.78125 -1.421875 
Q 19.53125 -1.421875 13.0625 8.265625 
Q 6.59375 17.96875 6.59375 36.375 
Q 6.59375 54.828125 13.0625 64.515625 
Q 19.53125 74.21875 31.78125 74.21875 
z
" id="DejaVuSans-48"/>
       </defs>
       <use xlink:href="#DejaVuSans-48"/>
      </g>
     </g>
    </g>
    <g id="xtick_2">
     <g id="line2d_2">
      <g>
       <use style="stroke:#000000;stroke-width:0.8;" x="105.442813" xlink:href="#m6124caecc8" y="224.64"/>
      </g>
     </g>
     <g id="text_2">
      <!-- 2 -->
      <g transform="translate(102.261562 239.238437)scale(0.1 -0.1)">
       <defs>
        <path d="M 19.1875 8.296875 
L 53.609375 8.296875 
L 53.609375 0 
L 7.328125 0 
L 7.328125 8.296875 
Q 12.9375 14.109375 22.625 23.890625 
Q 32.328125 33.6875 34.8125 36.53125 
Q 39.546875 41.84375 41.421875 45.53125 
Q 43.3125 49.21875 43.3125 52.78125 
Q 43.3125 58.59375 39.234375 62.25 
Q 35.15625 65.921875 28.609375 65.921875 
Q 23.96875 65.921875 18.8125 64.3125 
Q 13.671875 62.703125 7.8125 59.421875 
L 7.8125 69.390625 
Q 13.765625 71.78125 18.9375 73 
Q 24.125 74.21875 28.421875 74.21875 
Q 39.75 74.21875 46.484375 68.546875 
Q 53.21875 62.890625 53.21875 53.421875 
Q 53.21875 48.921875 51.53125 44.890625 
Q 49.859375 40.875 45.40625 35.40625 
Q 44.1875 33.984375 37.640625 27.21875 
Q 31.109375 20.453125 19.1875 8.296875 
z
" id="DejaVuSans-50"/>
       </defs>
       <use xlink:href="#DejaVuSans-50"/>
      </g>
     </g>
    </g>
    <g id="xtick_3">
     <g id="line2d_3">
      <g>
       <use style="stroke:#000000;stroke-width:0.8;" x="172.402813" xlink:href="#m6124caecc8" y="224.64"/>
      </g>
     </g>
     <g id="text_3">
      <!-- 4 -->
      <g transform="translate(169.221563 239.238437)scale(0.1 -0.1)">
       <defs>
        <path d="M 37.796875 64.3125 
L 12.890625 25.390625 
L 37.796875 25.390625 
z
M 35.203125 72.90625 
L 47.609375 72.90625 
L 47.609375 25.390625 
L 58.015625 25.390625 
L 58.015625 17.1875 
L 47.609375 17.1875 
L 47.609375 0 
L 37.796875 0 
L 37.796875 17.1875 
L 4.890625 17.1875 
L 4.890625 26.703125 
z
" id="DejaVuSans-52"/>
       </defs>
       <use xlink:href="#DejaVuSans-52"/>
      </g>
     </g>
    </g>
    <g id="xtick_4">
     <g id="line2d_4">
      <g>
       <use style="stroke:#000000;stroke-width:0.8;" x="239.362813" xlink:href="#m6124caecc8" y="224.64"/>
      </g>
     </g>
     <g id="text_4">
      <!-- 6 -->
      <g transform="translate(236.181563 239.238437)scale(0.1 -0.1)">
       <defs>
        <path d="M 33.015625 40.375 
Q 26.375 40.375 22.484375 35.828125 
Q 18.609375 31.296875 18.609375 23.390625 
Q 18.609375 15.53125 22.484375 10.953125 
Q 26.375 6.390625 33.015625 6.390625 
Q 39.65625 6.390625 43.53125 10.953125 
Q 47.40625 15.53125 47.40625 23.390625 
Q 47.40625 31.296875 43.53125 35.828125 
Q 39.65625 40.375 33.015625 40.375 
z
M 52.59375 71.296875 
L 52.59375 62.3125 
Q 48.875 64.0625 45.09375 64.984375 
Q 41.3125 65.921875 37.59375 65.921875 
Q 27.828125 65.921875 22.671875 59.328125 
Q 17.53125 52.734375 16.796875 39.40625 
Q 19.671875 43.65625 24.015625 45.921875 
Q 28.375 48.1875 33.59375 48.1875 
Q 44.578125 48.1875 50.953125 41.515625 
Q 57.328125 34.859375 57.328125 23.390625 
Q 57.328125 12.15625 50.6875 5.359375 
Q 44.046875 -1.421875 33.015625 -1.421875 
Q 20.359375 -1.421875 13.671875 8.265625 
Q 6.984375 17.96875 6.984375 36.375 
Q 6.984375 53.65625 15.1875 63.9375 
Q 23.390625 74.21875 37.203125 74.21875 
Q 40.921875 74.21875 44.703125 73.484375 
Q 48.484375 72.75 52.59375 71.296875 
z
" id="DejaVuSans-54"/>
       </defs>
       <use xlink:href="#DejaVuSans-54"/>
      </g>
     </g>
    </g>
    <g id="xtick_5">
     <g id="line2d_5">
      <g>
       <use style="stroke:#000000;stroke-width:0.8;" x="306.322813" xlink:href="#m6124caecc8" y="224.64"/>
      </g>
     </g>
     <g id="text_5">
      <!-- 8 -->
      <g transform="translate(303.141563 239.238437)scale(0.1 -0.1)">
       <defs>
        <path d="M 31.78125 34.625 
Q 24.75 34.625 20.71875 30.859375 
Q 16.703125 27.09375 16.703125 20.515625 
Q 16.703125 13.921875 20.71875 10.15625 
Q 24.75 6.390625 31.78125 6.390625 
Q 38.8125 6.390625 42.859375 10.171875 
Q 46.921875 13.96875 46.921875 20.515625 
Q 46.921875 27.09375 42.890625 30.859375 
Q 38.875 34.625 31.78125 34.625 
z
M 21.921875 38.8125 
Q 15.578125 40.375 12.03125 44.71875 
Q 8.5 49.078125 8.5 55.328125 
Q 8.5 64.0625 14.71875 69.140625 
Q 20.953125 74.21875 31.78125 74.21875 
Q 42.671875 74.21875 48.875 69.140625 
Q 55.078125 64.0625 55.078125 55.328125 
Q 55.078125 49.078125 51.53125 44.71875 
Q 48 40.375 41.703125 38.8125 
Q 48.828125 37.15625 52.796875 32.3125 
Q 56.78125 27.484375 56.78125 20.515625 
Q 56.78125 9.90625 50.3125 4.234375 
Q 43.84375 -1.421875 31.78125 -1.421875 
Q 19.734375 -1.421875 13.25 4.234375 
Q 6.78125 9.90625 6.78125 20.515625 
Q 6.78125 27.484375 10.78125 32.3125 
Q 14.796875 37.15625 21.921875 38.8125 
z
M 18.3125 54.390625 
Q 18.3125 48.734375 21.84375 45.5625 
Q 25.390625 42.390625 31.78125 42.390625 
Q 38.140625 42.390625 41.71875 45.5625 
Q 45.3125 48.734375 45.3125 54.390625 
Q 45.3125 60.0625 41.71875 63.234375 
Q 38.140625 66.40625 31.78125 66.40625 
Q 25.390625 66.40625 21.84375 63.234375 
Q 18.3125 60.0625 18.3125 54.390625 
z
" id="DejaVuSans-56"/>
       </defs>
       <use xlink:href="#DejaVuSans-56"/>
      </g>
     </g>
    </g>
    <g id="xtick_6">
     <g id="line2d_6">
      <g>
       <use style="stroke:#000000;stroke-width:0.8;" x="373.282813" xlink:href="#m6124caecc8" y="224.64"/>
      </g>
     </g>
     <g id="text_6">
      <!-- 10 -->
      <g transform="translate(366.920313 239.238437)scale(0.1 -0.1)">
       <defs>
        <path d="M 12.40625 8.296875 
L 28.515625 8.296875 
L 28.515625 63.921875 
L 10.984375 60.40625 
L 10.984375 69.390625 
L 28.421875 72.90625 
L 38.28125 72.90625 
L 38.28125 8.296875 
L 54.390625 8.296875 
L 54.390625 0 
L 12.40625 0 
z
" id="DejaVuSans-49"/>
       </defs>
       <use xlink:href="#DejaVuSans-49"/>
       <use x="63.623047" xlink:href="#DejaVuSans-48"/>
      </g>
     </g>
    </g>
   </g>
   <g id="matplotlib.axis_2">
    <g id="ytick_1">
     <g id="line2d_7">
      <defs>
       <path d="M 0 0 
L -3.5 0 
" id="m1aa7c92b1e" style="stroke:#000000;stroke-width:0.8;"/>
      </defs>
      <g>
       <use style="stroke:#000000;stroke-width:0.8;" x="38.482813" xlink:href="#m1aa7c92b1e" y="209.684407"/>
      </g>
     </g>
     <g id="text_7">
      <!-- −0.6 -->
      <g transform="translate(7.2 213.483626)scale(0.1 -0.1)">
       <defs>
        <path d="M 10.59375 35.5 
L 73.1875 35.5 
L 73.1875 27.203125 
L 10.59375 27.203125 
z
" id="DejaVuSans-8722"/>
        <path d="M 10.6875 12.40625 
L 21 12.40625 
L 21 0 
L 10.6875 0 
z
" id="DejaVuSans-46"/>
       </defs>
       <use xlink:href="#DejaVuSans-8722"/>
       <use x="83.789062" xlink:href="#DejaVuSans-48"/>
       <use x="147.412109" xlink:href="#DejaVuSans-46"/>
       <use x="179.199219" xlink:href="#DejaVuSans-54"/>
      </g>
     </g>
    </g>
    <g id="ytick_2">
     <g id="line2d_8">
      <g>
       <use style="stroke:#000000;stroke-width:0.8;" x="38.482813" xlink:href="#m1aa7c92b1e" y="178.429605"/>
      </g>
     </g>
     <g id="text_8">
      <!-- −0.4 -->
      <g transform="translate(7.2 182.228823)scale(0.1 -0.1)">
       <use xlink:href="#DejaVuSans-8722"/>
       <use x="83.789062" xlink:href="#DejaVuSans-48"/>
       <use x="147.412109" xlink:href="#DejaVuSans-46"/>
       <use x="179.199219" xlink:href="#DejaVuSans-52"/>
      </g>
     </g>
    </g>
    <g id="ytick_3">
     <g id="line2d_9">
      <g>
       <use style="stroke:#000000;stroke-width:0.8;" x="38.482813" xlink:href="#m1aa7c92b1e" y="147.174802"/>
      </g>
     </g>
     <g id="text_9">
      <!-- −0.2 -->
      <g transform="translate(7.2 150.974021)scale(0.1 -0.1)">
       <use xlink:href="#DejaVuSans-8722"/>
       <use x="83.789062" xlink:href="#DejaVuSans-48"/>
       <use x="147.412109" xlink:href="#DejaVuSans-46"/>
       <use x="179.199219" xlink:href="#DejaVuSans-50"/>
      </g>
     </g>
    </g>
    <g id="ytick_4">
     <g id="line2d_10">
      <g>
       <use style="stroke:#000000;stroke-width:0.8;" x="38.482813" xlink:href="#m1aa7c92b1e" y="115.919999"/>
      </g>
     </g>
     <g id="text_10">
      <!-- 0.0 -->
      <g transform="translate(15.579688 119.719218)scale(0.1 -0.1)">
       <use xlink:href="#DejaVuSans-48"/>
       <use x="63.623047" xlink:href="#DejaVuSans-46"/>
       <use x="95.410156" xlink:href="#DejaVuSans-48"/>
      </g>
     </g>
    </g>
    <g id="ytick_5">
     <g id="line2d_11">
      <g>
       <use style="stroke:#000000;stroke-width:0.8;" x="38.482813" xlink:href="#m1aa7c92b1e" y="84.665197"/>
      </g>
     </g>
     <g id="text_11">
      <!-- 0.2 -->
      <g transform="translate(15.579688 88.464415)scale(0.1 -0.1)">
       <use xlink:href="#DejaVuSans-48"/>
       <use x="63.623047" xlink:href="#DejaVuSans-46"/>
       <use x="95.410156" xlink:href="#DejaVuSans-50"/>
      </g>
     </g>
    </g>
    <g id="ytick_6">
     <g id="line2d_12">
      <g>
       <use style="stroke:#000000;stroke-width:0.8;" x="38.482813" xlink:href="#m1aa7c92b1e" y="53.410394"/>
      </g>
     </g>
     <g id="text_12">
      <!-- 0.4 -->
      <g transform="translate(15.579688 57.209613)scale(0.1 -0.1)">
       <use xlink:href="#DejaVuSans-48"/>
       <use x="63.623047" xlink:href="#DejaVuSans-46"/>
       <use x="95.410156" xlink:href="#DejaVuSans-52"/>
      </g>
     </g>
    </g>
    <g id="ytick_7">
     <g id="line2d_13">
      <g>
       <use style="stroke:#000000;stroke-width:0.8;" x="38.482813" xlink:href="#m1aa7c92b1e" y="22.155591"/>
      </g>
     </g>
     <g id="text_13">
      <!-- 0.6 -->
      <g transform="translate(15.579688 25.95481)scale(0.1 -0.1)">
       <use xlink:href="#DejaVuSans-48"/>
       <use x="63.623047" xlink:href="#DejaVuSans-46"/>
       <use x="95.410156" xlink:href="#DejaVuSans-54"/>
      </g>
     </g>
    </g>
   </g>
   <g id="line2d_14">
    <path clip-path="url(#p6f30b86fa8)" d="M 38.482813 146.462116 
L 41.834164 144.757209 
L 45.185515 139.83283 
L 48.536867 132.238751 
L 51.888218 122.822797 
L 55.239569 112.636195 
L 58.590921 102.816206 
L 61.942272 94.459164 
L 65.293623 88.498074 
L 68.644975 85.59845 
L 71.996326 86.084014 
L 75.347677 89.900557 
L 78.699029 96.621988 
L 82.05038 105.497907 
L 88.753083 125.619569 
L 92.104434 134.61887 
L 95.455785 141.530572 
L 98.807137 145.583033 
L 102.158488 146.323825 
L 105.50984 143.670242 
L 108.861191 137.918539 
L 112.212542 129.710854 
L 115.563894 119.963516 
L 118.915245 109.764747 
L 122.266596 100.25317 
L 125.617948 92.490684 
L 128.969299 87.343917 
L 132.32065 85.38747 
L 135.672002 86.839765 
L 139.023353 91.538665 
L 142.374704 98.95957 
L 145.726056 108.273988 
L 152.428758 128.328504 
L 155.78011 136.829656 
L 159.131461 142.996392 
L 162.482813 146.140237 
L 165.834164 145.910205 
L 169.185515 142.331977 
L 172.536867 135.805036 
L 175.888218 127.05807 
L 182.590921 106.94904 
L 185.942272 97.832008 
L 189.293623 90.734373 
L 192.644975 86.448537 
L 195.996326 85.452984 
L 199.347677 87.858859 
L 202.699029 93.397564 
L 206.05038 101.450741 
L 209.401731 111.119309 
L 212.753083 121.323841 
L 216.104434 130.925071 
L 219.455785 138.851091 
L 222.807137 144.217015 
L 226.158488 146.423775 
L 229.50984 145.225003 
L 232.861191 140.754532 
L 236.212542 133.511459 
L 239.563894 124.304424 
L 246.266596 104.214571 
L 249.617948 95.574646 
L 252.969299 89.206137 
L 256.32065 85.820043 
L 259.672002 85.794399 
L 263.023353 89.132067 
L 266.374704 95.460419 
L 269.726056 104.072941 
L 276.428758 124.156716 
L 279.78011 133.385756 
L 283.131461 140.664868 
L 286.482813 145.181388 
L 289.834164 146.431079 
L 293.185515 144.274422 
L 296.536867 138.952192 
L 299.888218 131.058579 
L 303.239569 121.47485 
L 306.590921 111.270961 
L 309.942272 101.586104 
L 313.293623 93.501526 
L 316.644975 87.919814 
L 319.996326 85.464126 
L 323.347677 86.408623 
L 326.699029 90.647859 
L 330.05038 97.708552 
L 333.401731 106.802425 
L 340.104434 126.915002 
L 343.455785 135.688276 
L 346.807137 142.254562 
L 350.158488 145.880777 
L 353.50984 146.162082 
L 356.861191 143.06707 
L 360.212542 136.941278 
L 363.563894 128.468608 
L 373.617948 99.08744 
L 376.969299 91.631422 
L 380.32065 86.887053 
L 383.672002 85.38401 
L 387.023353 87.290095 
L 387.845313 88.541524 
L 387.845313 88.541524 
" style="fill:none;stroke:#1f77b4;stroke-linecap:square;stroke-width:1.5;"/>
   </g>
   <g id="line2d_15">
    <path clip-path="url(#p6f30b86fa8)" d="M 38.482813 35.959701 
L 41.834164 40.265903 
L 45.185515 52.720696 
L 48.536867 71.982593 
L 51.888218 95.976922 
L 58.590921 147.593942 
L 61.942272 169.657041 
L 65.293623 185.932202 
L 68.644975 194.666453 
L 71.996326 194.91904 
L 75.347677 186.662758 
L 78.699029 170.786878 
L 82.05038 149.001368 
L 92.104434 73.276739 
L 95.455785 53.675342 
L 98.807137 40.778225 
L 102.158488 35.974517 
L 105.50984 39.781618 
L 108.861191 51.789471 
L 112.212542 70.704729 
L 115.563894 94.490056 
L 122.266596 146.174779 
L 125.617948 168.507289 
L 128.969299 185.175701 
L 132.32065 194.384684 
L 135.672002 195.142352 
L 139.023353 187.367098 
L 142.374704 171.896383 
L 145.726056 150.396534 
L 149.077407 125.18327 
L 152.428758 98.972272 
L 155.78011 74.586688 
L 159.131461 54.653054 
L 162.482813 41.318392 
L 165.834164 36.018959 
L 169.185515 39.325548 
L 172.536867 50.882012 
L 175.888218 69.443621 
L 179.239569 93.011131 
L 185.942272 144.744403 
L 189.293623 167.33805 
L 192.644975 184.393535 
L 195.996326 194.073837 
L 199.347677 195.336305 
L 202.699029 188.044961 
L 206.05038 172.985144 
L 209.401731 151.778925 
L 212.753083 126.710394 
L 216.104434 100.479645 
L 219.455785 75.911955 
L 222.807137 55.653471 
L 226.158488 41.886206 
L 229.50984 36.093011 
L 232.861191 38.897862 
L 236.212542 49.998654 
L 239.563894 68.199736 
L 242.915245 91.540696 
L 249.617948 143.303346 
L 252.969299 166.149756 
L 256.32065 183.585994 
L 259.672002 193.734028 
L 263.023353 195.500828 
L 266.374704 188.696096 
L 269.726056 174.052757 
L 273.077407 153.148026 
L 276.428758 128.233519 
L 279.78011 101.992741 
L 283.131461 77.252048 
L 286.482813 56.676222 
L 289.834164 42.481455 
L 293.185515 36.196646 
L 296.536867 38.49872 
L 299.888218 49.139725 
L 303.239569 66.973535 
L 306.590921 90.079296 
L 313.293623 141.852141 
L 316.644975 164.942848 
L 319.996326 182.753377 
L 323.347677 193.365383 
L 326.699029 195.63586 
L 330.05038 189.320261 
L 333.401731 175.098828 
L 336.753083 154.503331 
L 340.104434 129.752081 
L 343.455785 103.510998 
L 346.807137 78.60647 
L 350.158488 57.720927 
L 353.50984 43.103919 
L 356.861191 36.329824 
L 360.212542 38.128268 
L 363.563894 48.305545 
L 366.915245 65.765473 
L 370.266596 88.627472 
L 376.969299 140.391326 
L 380.32065 163.717773 
L 383.672002 181.895993 
L 387.023353 192.968037 
L 387.845313 193.648226 
L 387.845313 193.648226 
" style="fill:none;stroke:#ff7f0e;stroke-linecap:square;stroke-width:1.5;"/>
   </g>
   <g id="line2d_16">
    <path clip-path="url(#p6f30b86fa8)" d="M 38.482813 214.756364 
L 41.834164 209.67412 
L 45.185515 194.950055 
L 48.536867 172.098414 
L 51.888218 143.469296 
L 58.590921 80.947058 
L 61.942272 53.483822 
L 65.293623 32.441621 
L 68.644975 19.984469 
L 71.996326 17.393477 
L 75.347677 24.935108 
L 78.699029 41.833769 
L 82.05038 66.351574 
L 85.401731 95.967075 
L 88.753083 127.634565 
L 92.104434 158.097311 
L 95.455785 184.222476 
L 98.807137 203.323307 
L 102.158488 213.435444 
L 105.50984 213.518938 
L 108.861191 203.565204 
L 112.212542 184.597899 
L 115.563894 158.567651 
L 118.915245 128.15145 
L 122.266596 96.477349 
L 125.617948 66.802759 
L 128.969299 42.179465 
L 132.32065 25.139763 
L 135.672002 17.436043 
L 139.023353 19.860569 
L 142.374704 32.163998 
L 145.726056 53.081027 
L 149.077407 80.460514 
L 155.78011 142.968833 
L 159.131461 171.669211 
L 162.482813 194.636253 
L 165.834164 209.507991 
L 169.185515 214.754992 
L 172.536867 209.837647 
L 175.888218 195.261663 
L 179.239569 172.526057 
L 182.590921 143.968995 
L 189.293623 81.434573 
L 192.644975 53.888351 
L 195.996326 32.721562 
L 199.347677 20.111031 
L 202.699029 17.353645 
L 206.05038 24.732979 
L 209.401731 41.490129 
L 212.753083 65.901765 
L 216.104434 95.457355 
L 219.455785 127.117355 
L 222.807137 157.625802 
L 226.158488 183.845158 
L 229.50984 203.078984 
L 232.861191 213.349242 
L 236.212542 213.599724 
L 239.563894 203.804669 
L 242.915245 184.971416 
L 246.266596 159.036806 
L 249.617948 128.667996 
L 252.969299 96.988162 
L 256.32065 67.255308 
L 259.672002 42.527208 
L 263.023353 25.346937 
L 266.374704 17.481344 
L 269.726056 19.739337 
L 273.077407 31.8887 
L 276.428758 52.679975 
L 279.78011 79.974954 
L 286.482813 142.467619 
L 289.834164 171.238462 
L 293.185515 194.320266 
L 296.536867 209.339264 
L 299.888218 214.750877 
L 303.239569 209.998567 
L 306.590921 195.571069 
L 309.942272 172.952129 
L 313.293623 144.467915 
L 319.996326 81.923045 
L 323.347677 54.294601 
L 326.699029 33.003811 
L 330.05038 20.240252 
L 333.401731 17.316549 
L 336.753083 24.53338 
L 340.104434 41.148556 
L 343.455785 65.453344 
L 346.807137 94.948202 
L 350.158488 126.599834 
L 353.50984 157.153134 
L 356.861191 183.465954 
L 360.212542 202.832241 
L 363.563894 213.260336 
L 366.915245 213.677798 
L 370.266596 204.041694 
L 373.617948 185.343015 
L 376.969299 159.504765 
L 380.32065 129.184188 
L 383.672002 97.499501 
L 387.023353 67.709207 
L 387.845313 61.618805 
L 387.845313 61.618805 
" style="fill:none;stroke:#2ca02c;stroke-linecap:square;stroke-width:1.5;"/>
   </g>
   <g id="line2d_17">
    <path clip-path="url(#p6f30b86fa8)" d="M 38.482813 35.959701 
L 41.834164 39.853583 
L 45.185515 51.155982 
L 48.536867 68.766097 
L 51.888218 90.968784 
L 58.590921 140.265434 
L 61.942272 162.558132 
L 65.293623 180.308491 
L 68.644975 191.787709 
L 71.996326 195.877762 
L 75.347677 192.180299 
L 78.699029 181.055435 
L 82.05038 163.586681 
L 85.401731 141.475413 
L 92.104434 92.181889 
L 95.455785 69.800594 
L 98.807137 51.911117 
L 102.158488 40.255809 
L 105.50984 35.969843 
L 108.861191 39.470653 
L 112.212542 50.417276 
L 115.563894 67.743561 
L 118.915245 89.762009 
L 125.617948 139.04928 
L 128.969299 161.517751 
L 132.32065 179.545212 
L 135.672002 191.375872 
L 139.023353 195.857478 
L 142.374704 192.553543 
L 145.726056 181.785856 
L 149.077407 164.603138 
L 152.428758 142.678908 
L 159.131461 93.401016 
L 162.482813 70.846792 
L 165.834164 52.682491 
L 169.185515 40.67723 
L 172.536867 36.000268 
L 175.888218 39.107118 
L 179.239569 49.695187 
L 182.590921 66.733247 
L 185.942272 88.561869 
L 192.644975 137.827258 
L 195.996326 160.465803 
L 199.347677 178.765792 
L 202.699029 190.944892 
L 206.05038 195.816915 
L 209.401731 192.907346 
L 212.753083 182.499567 
L 216.104434 165.607245 
L 219.455785 143.875615 
L 226.158488 94.625855 
L 229.50984 71.904424 
L 232.861191 53.469907 
L 236.212542 41.11774 
L 239.563894 36.050967 
L 242.915245 38.763069 
L 246.266596 48.989899 
L 249.617948 65.735411 
L 252.969299 87.368671 
L 259.672002 136.599678 
L 263.023353 159.402554 
L 266.374704 177.97043 
L 269.726056 190.49488 
L 273.077407 195.756082 
L 276.428758 193.241619 
L 279.78011 183.196387 
L 283.131461 166.598746 
L 286.482813 145.06523 
L 293.185515 95.856097 
L 296.536867 72.973223 
L 299.888218 54.273166 
L 303.239569 41.577226 
L 306.590921 36.121928 
L 309.942272 38.438594 
L 313.293623 48.30159 
L 316.644975 64.750307 
L 319.996326 86.182715 
L 326.699029 135.366852 
L 330.05038 158.328274 
L 333.401731 177.159325 
L 336.753083 190.02595 
L 340.104434 195.674997 
L 343.455785 193.556276 
L 346.807137 183.876141 
L 350.158488 167.577392 
L 353.50984 146.247451 
L 363.563894 74.052916 
L 366.915245 55.092064 
L 370.266596 42.055572 
L 373.617948 36.213133 
L 376.969299 38.133775 
L 380.32065 47.630435 
L 383.672002 63.778183 
L 387.023353 85.004303 
L 387.845313 90.948762 
L 387.845313 90.948762 
" style="fill:none;stroke:#d62728;stroke-linecap:square;stroke-width:1.5;"/>
   </g>
   <g id="line2d_18">
    <path clip-path="url(#p6f30b86fa8)" d="M 38.482813 146.462116 
L 41.834164 144.95179 
L 45.185515 140.570186 
L 48.536867 133.75065 
L 51.888218 125.167641 
L 58.590921 106.197141 
L 61.942272 97.685854 
L 65.293623 90.977946 
L 68.644975 86.736836 
L 71.996326 85.381975 
L 75.347677 87.04736 
L 78.699029 91.568284 
L 82.05038 98.497621 
L 85.401731 107.150052 
L 92.104434 126.115469 
L 95.455785 134.552753 
L 98.807137 141.147237 
L 102.158488 145.246717 
L 105.50984 146.44575 
L 108.861191 144.62575 
L 112.212542 139.966718 
L 115.563894 132.929437 
L 118.915245 124.209903 
L 125.617948 105.25465 
L 128.969299 96.893628 
L 132.32065 90.414337 
L 135.672002 86.457586 
L 139.023353 85.414702 
L 142.374704 87.388828 
L 145.726056 92.18472 
L 149.077407 99.328059 
L 152.428758 108.112361 
L 159.131461 127.05237 
L 162.482813 135.334889 
L 165.834164 141.697252 
L 169.185515 145.510215 
L 172.536867 146.39667 
L 175.888218 144.268947 
L 179.239569 139.33748 
L 182.590921 132.089996 
L 185.942272 123.243281 
L 192.644975 104.323589 
L 195.996326 96.121793 
L 199.347677 89.878063 
L 202.699029 86.20991 
L 206.05038 85.480121 
L 209.401731 87.760871 
L 212.753083 92.826592 
L 216.104434 100.176278 
L 219.455785 109.083037 
L 226.158488 127.977341 
L 229.50984 136.096218 
L 232.861191 142.219642 
L 236.212542 145.742001 
L 239.563894 146.314929 
L 242.915245 143.881763 
L 246.266596 138.683145 
L 249.617948 131.233226 
L 252.969299 122.26881 
L 259.672002 103.404956 
L 263.023353 95.371175 
L 266.374704 89.369697 
L 269.726056 85.994075 
L 273.077407 85.578162 
L 276.428758 88.163092 
L 279.78011 93.493213 
L 283.131461 101.04137 
L 286.482813 110.061041 
L 289.834164 119.660169 
L 293.185515 128.889391 
L 296.536867 136.835924 
L 299.888218 142.713847 
L 303.239569 145.941828 
L 306.590921 146.200615 
L 309.942272 143.464613 
L 313.293623 138.004416 
L 316.644975 130.360044 
L 319.996326 121.287536 
L 323.347677 111.684171 
L 326.699029 102.499735 
L 330.05038 94.642579 
L 333.401731 88.889784 
L 336.753083 85.81031 
L 340.104434 85.708719 
L 343.455785 88.59506 
L 346.807137 94.183869 
L 350.158488 101.922407 
L 353.50984 111.045323 
L 356.861191 120.650351 
L 360.212542 129.787541 
L 363.563894 137.553215 
L 366.915245 143.179338 
L 370.266596 146.109481 
L 373.617948 146.053849 
L 376.969299 143.017943 
L 380.32065 137.302019 
L 383.672002 129.471388 
L 387.845313 117.944983 
L 387.845313 117.944983 
" style="fill:none;stroke:#9467bd;stroke-linecap:square;stroke-width:1.5;"/>
   </g>
   <g id="patch_3">
    <path d="M 38.482813 224.64 
L 38.482813 7.2 
" style="fill:none;stroke:#000000;stroke-linecap:square;stroke-linejoin:miter;stroke-width:0.8;"/>
   </g>
   <g id="patch_4">
    <path d="M 373.282813 224.64 
L 373.282813 7.2 
" style="fill:none;stroke:#000000;stroke-linecap:square;stroke-linejoin:miter;stroke-width:0.8;"/>
   </g>
   <g id="patch_5">
    <path d="M 38.482813 224.64 
L 373.282813 224.64 
" style="fill:none;stroke:#000000;stroke-linecap:square;stroke-linejoin:miter;stroke-width:0.8;"/>
   </g>
   <g id="patch_6">
    <path d="M 38.482813 7.2 
L 373.282813 7.2 
" style="fill:none;stroke:#000000;stroke-linecap:square;stroke-linejoin:miter;stroke-width:0.8;"/>
   </g>
  </g>
 </g>
 <defs>
  <clipPath id="p6f30b86fa8">
   <rect height="217.44" width="334.8" x="38.482813" y="7.2"/>
  </clipPath>
 </defs>
</svg>
