<?xml version="1.0" encoding="utf-8" standalone="no"?>
<!DOCTYPE svg PUBLIC "-//W3C//DTD SVG 1.1//EN"
  "http://www.w3.org/Graphics/SVG/1.1/DTD/svg11.dtd">
<!-- Created with matplotlib (https://matplotlib.org/) -->
<svg height="248.518125pt" version="1.1" viewBox="0 0 386.845313 248.518125" width="386.845313pt" xmlns="http://www.w3.org/2000/svg" xmlns:xlink="http://www.w3.org/1999/xlink">
 <metadata>
  <rdf:RDF xmlns:cc="http://creativecommons.org/ns#" xmlns:dc="http://purl.org/dc/elements/1.1/" xmlns:rdf="http://www.w3.org/1999/02/22-rdf-syntax-ns#">
   <cc:Work>
    <dc:type rdf:resource="http://purl.org/dc/dcmitype/StillImage"/>
    <dc:date>2021-10-24T19:26:00.000925</dc:date>
    <dc:format>image/svg+xml</dc:format>
    <dc:creator>
     <cc:Agent>
      <dc:title>Matplotlib v3.3.4, https://matplotlib.org/</dc:title>
     </cc:Agent>
    </dc:creator>
   </cc:Work>
  </rdf:RDF>
 </metadata>
 <defs>
  <style type="text/css">*{stroke-linecap:butt;stroke-linejoin:round;}</style>
 </defs>
 <g id="figure_1">
  <g id="patch_1">
   <path d="M -0 248.518125 
L 386.845313 248.518125 
L 386.845313 0 
L -0 0 
z
" style="fill:none;"/>
  </g>
  <g id="axes_1">
   <g id="patch_2">
    <path d="M 38.482813 224.64 
L 373.282813 224.64 
L 373.282813 7.2 
L 38.482813 7.2 
z
" style="fill:#ffffff;"/>
   </g>
   <g id="matplotlib.axis_1">
    <g id="xtick_1">
     <g id="line2d_1">
      <path clip-path="url(#pee1e836aa1)" d="M 38.482813 224.64 
L 38.482813 7.2 
" style="fill:none;stroke:#b0b0b0;stroke-linecap:square;stroke-width:0.8;"/>
     </g>
     <g id="line2d_2">
      <defs>
       <path d="M 0 0 
L 0 3.5 
" id="mda30e864b4" style="stroke:#000000;stroke-width:0.8;"/>
      </defs>
      <g>
       <use style="stroke:#000000;stroke-width:0.8;" x="38.482813" xlink:href="#mda30e864b4" y="224.64"/>
      </g>
     </g>
     <g id="text_1">
      <!-- 0 -->
      <g transform="translate(35.301563 239.238437)scale(0.1 -0.1)">
       <defs>
        <path d="M 31.78125 66.40625 
Q 24.171875 66.40625 20.328125 58.90625 
Q 16.5 51.421875 16.5 36.375 
Q 16.5 21.390625 20.328125 13.890625 
Q 24.171875 6.390625 31.78125 6.390625 
Q 39.453125 6.390625 43.28125 13.890625 
Q 47.125 21.390625 47.125 36.375 
Q 47.125 51.421875 43.28125 58.90625 
Q 39.453125 66.40625 31.78125 66.40625 
z
M 31.78125 74.21875 
Q 44.046875 74.21875 50.515625 64.515625 
Q 56.984375 54.828125 56.984375 36.375 
Q 56.984375 17.96875 50.515625 8.265625 
Q 44.046875 -1.421875 31.78125 -1.421875 
Q 19.53125 -1.421875 13.0625 8.265625 
Q 6.59375 17.96875 6.59375 36.375 
Q 6.59375 54.828125 13.0625 64.515625 
Q 19.53125 74.21875 31.78125 74.21875 
z
" id="DejaVuSans-48"/>
       </defs>
       <use xlink:href="#DejaVuSans-48"/>
      </g>
     </g>
    </g>
    <g id="xtick_2">
     <g id="line2d_3">
      <path clip-path="url(#pee1e836aa1)" d="M 105.442813 224.64 
L 105.442813 7.2 
" style="fill:none;stroke:#b0b0b0;stroke-linecap:square;stroke-width:0.8;"/>
     </g>
     <g id="line2d_4">
      <g>
       <use style="stroke:#000000;stroke-width:0.8;" x="105.442813" xlink:href="#mda30e864b4" y="224.64"/>
      </g>
     </g>
     <g id="text_2">
      <!-- 2 -->
      <g transform="translate(102.261562 239.238437)scale(0.1 -0.1)">
       <defs>
        <path d="M 19.1875 8.296875 
L 53.609375 8.296875 
L 53.609375 0 
L 7.328125 0 
L 7.328125 8.296875 
Q 12.9375 14.109375 22.625 23.890625 
Q 32.328125 33.6875 34.8125 36.53125 
Q 39.546875 41.84375 41.421875 45.53125 
Q 43.3125 49.21875 43.3125 52.78125 
Q 43.3125 58.59375 39.234375 62.25 
Q 35.15625 65.921875 28.609375 65.921875 
Q 23.96875 65.921875 18.8125 64.3125 
Q 13.671875 62.703125 7.8125 59.421875 
L 7.8125 69.390625 
Q 13.765625 71.78125 18.9375 73 
Q 24.125 74.21875 28.421875 74.21875 
Q 39.75 74.21875 46.484375 68.546875 
Q 53.21875 62.890625 53.21875 53.421875 
Q 53.21875 48.921875 51.53125 44.890625 
Q 49.859375 40.875 45.40625 35.40625 
Q 44.1875 33.984375 37.640625 27.21875 
Q 31.109375 20.453125 19.1875 8.296875 
z
" id="DejaVuSans-50"/>
       </defs>
       <use xlink:href="#DejaVuSans-50"/>
      </g>
     </g>
    </g>
    <g id="xtick_3">
     <g id="line2d_5">
      <path clip-path="url(#pee1e836aa1)" d="M 172.402813 224.64 
L 172.402813 7.2 
" style="fill:none;stroke:#b0b0b0;stroke-linecap:square;stroke-width:0.8;"/>
     </g>
     <g id="line2d_6">
      <g>
       <use style="stroke:#000000;stroke-width:0.8;" x="172.402813" xlink:href="#mda30e864b4" y="224.64"/>
      </g>
     </g>
     <g id="text_3">
      <!-- 4 -->
      <g transform="translate(169.221563 239.238437)scale(0.1 -0.1)">
       <defs>
        <path d="M 37.796875 64.3125 
L 12.890625 25.390625 
L 37.796875 25.390625 
z
M 35.203125 72.90625 
L 47.609375 72.90625 
L 47.609375 25.390625 
L 58.015625 25.390625 
L 58.015625 17.1875 
L 47.609375 17.1875 
L 47.609375 0 
L 37.796875 0 
L 37.796875 17.1875 
L 4.890625 17.1875 
L 4.890625 26.703125 
z
" id="DejaVuSans-52"/>
       </defs>
       <use xlink:href="#DejaVuSans-52"/>
      </g>
     </g>
    </g>
    <g id="xtick_4">
     <g id="line2d_7">
      <path clip-path="url(#pee1e836aa1)" d="M 239.362813 224.64 
L 239.362813 7.2 
" style="fill:none;stroke:#b0b0b0;stroke-linecap:square;stroke-width:0.8;"/>
     </g>
     <g id="line2d_8">
      <g>
       <use style="stroke:#000000;stroke-width:0.8;" x="239.362813" xlink:href="#mda30e864b4" y="224.64"/>
      </g>
     </g>
     <g id="text_4">
      <!-- 6 -->
      <g transform="translate(236.181563 239.238437)scale(0.1 -0.1)">
       <defs>
        <path d="M 33.015625 40.375 
Q 26.375 40.375 22.484375 35.828125 
Q 18.609375 31.296875 18.609375 23.390625 
Q 18.609375 15.53125 22.484375 10.953125 
Q 26.375 6.390625 33.015625 6.390625 
Q 39.65625 6.390625 43.53125 10.953125 
Q 47.40625 15.53125 47.40625 23.390625 
Q 47.40625 31.296875 43.53125 35.828125 
Q 39.65625 40.375 33.015625 40.375 
z
M 52.59375 71.296875 
L 52.59375 62.3125 
Q 48.875 64.0625 45.09375 64.984375 
Q 41.3125 65.921875 37.59375 65.921875 
Q 27.828125 65.921875 22.671875 59.328125 
Q 17.53125 52.734375 16.796875 39.40625 
Q 19.671875 43.65625 24.015625 45.921875 
Q 28.375 48.1875 33.59375 48.1875 
Q 44.578125 48.1875 50.953125 41.515625 
Q 57.328125 34.859375 57.328125 23.390625 
Q 57.328125 12.15625 50.6875 5.359375 
Q 44.046875 -1.421875 33.015625 -1.421875 
Q 20.359375 -1.421875 13.671875 8.265625 
Q 6.984375 17.96875 6.984375 36.375 
Q 6.984375 53.65625 15.1875 63.9375 
Q 23.390625 74.21875 37.203125 74.21875 
Q 40.921875 74.21875 44.703125 73.484375 
Q 48.484375 72.75 52.59375 71.296875 
z
" id="DejaVuSans-54"/>
       </defs>
       <use xlink:href="#DejaVuSans-54"/>
      </g>
     </g>
    </g>
    <g id="xtick_5">
     <g id="line2d_9">
      <path clip-path="url(#pee1e836aa1)" d="M 306.322813 224.64 
L 306.322813 7.2 
" style="fill:none;stroke:#b0b0b0;stroke-linecap:square;stroke-width:0.8;"/>
     </g>
     <g id="line2d_10">
      <g>
       <use style="stroke:#000000;stroke-width:0.8;" x="306.322813" xlink:href="#mda30e864b4" y="224.64"/>
      </g>
     </g>
     <g id="text_5">
      <!-- 8 -->
      <g transform="translate(303.141563 239.238437)scale(0.1 -0.1)">
       <defs>
        <path d="M 31.78125 34.625 
Q 24.75 34.625 20.71875 30.859375 
Q 16.703125 27.09375 16.703125 20.515625 
Q 16.703125 13.921875 20.71875 10.15625 
Q 24.75 6.390625 31.78125 6.390625 
Q 38.8125 6.390625 42.859375 10.171875 
Q 46.921875 13.96875 46.921875 20.515625 
Q 46.921875 27.09375 42.890625 30.859375 
Q 38.875 34.625 31.78125 34.625 
z
M 21.921875 38.8125 
Q 15.578125 40.375 12.03125 44.71875 
Q 8.5 49.078125 8.5 55.328125 
Q 8.5 64.0625 14.71875 69.140625 
Q 20.953125 74.21875 31.78125 74.21875 
Q 42.671875 74.21875 48.875 69.140625 
Q 55.078125 64.0625 55.078125 55.328125 
Q 55.078125 49.078125 51.53125 44.71875 
Q 48 40.375 41.703125 38.8125 
Q 48.828125 37.15625 52.796875 32.3125 
Q 56.78125 27.484375 56.78125 20.515625 
Q 56.78125 9.90625 50.3125 4.234375 
Q 43.84375 -1.421875 31.78125 -1.421875 
Q 19.734375 -1.421875 13.25 4.234375 
Q 6.78125 9.90625 6.78125 20.515625 
Q 6.78125 27.484375 10.78125 32.3125 
Q 14.796875 37.15625 21.921875 38.8125 
z
M 18.3125 54.390625 
Q 18.3125 48.734375 21.84375 45.5625 
Q 25.390625 42.390625 31.78125 42.390625 
Q 38.140625 42.390625 41.71875 45.5625 
Q 45.3125 48.734375 45.3125 54.390625 
Q 45.3125 60.0625 41.71875 63.234375 
Q 38.140625 66.40625 31.78125 66.40625 
Q 25.390625 66.40625 21.84375 63.234375 
Q 18.3125 60.0625 18.3125 54.390625 
z
" id="DejaVuSans-56"/>
       </defs>
       <use xlink:href="#DejaVuSans-56"/>
      </g>
     </g>
    </g>
    <g id="xtick_6">
     <g id="line2d_11">
      <path clip-path="url(#pee1e836aa1)" d="M 373.282813 224.64 
L 373.282813 7.2 
" style="fill:none;stroke:#b0b0b0;stroke-linecap:square;stroke-width:0.8;"/>
     </g>
     <g id="line2d_12">
      <g>
       <use style="stroke:#000000;stroke-width:0.8;" x="373.282813" xlink:href="#mda30e864b4" y="224.64"/>
      </g>
     </g>
     <g id="text_6">
      <!-- 10 -->
      <g transform="translate(366.920313 239.238437)scale(0.1 -0.1)">
       <defs>
        <path d="M 12.40625 8.296875 
L 28.515625 8.296875 
L 28.515625 63.921875 
L 10.984375 60.40625 
L 10.984375 69.390625 
L 28.421875 72.90625 
L 38.28125 72.90625 
L 38.28125 8.296875 
L 54.390625 8.296875 
L 54.390625 0 
L 12.40625 0 
z
" id="DejaVuSans-49"/>
       </defs>
       <use xlink:href="#DejaVuSans-49"/>
       <use x="63.623047" xlink:href="#DejaVuSans-48"/>
      </g>
     </g>
    </g>
   </g>
   <g id="matplotlib.axis_2">
    <g id="ytick_1">
     <g id="line2d_13">
      <path clip-path="url(#pee1e836aa1)" d="M 38.482813 209.684397 
L 373.282813 209.684397 
" style="fill:none;stroke:#b0b0b0;stroke-linecap:square;stroke-width:0.8;"/>
     </g>
     <g id="line2d_14">
      <defs>
       <path d="M 0 0 
L -3.5 0 
" id="m4bbc3a429f" style="stroke:#000000;stroke-width:0.8;"/>
      </defs>
      <g>
       <use style="stroke:#000000;stroke-width:0.8;" x="38.482813" xlink:href="#m4bbc3a429f" y="209.684397"/>
      </g>
     </g>
     <g id="text_7">
      <!-- −0.6 -->
      <g transform="translate(7.2 213.483616)scale(0.1 -0.1)">
       <defs>
        <path d="M 10.59375 35.5 
L 73.1875 35.5 
L 73.1875 27.203125 
L 10.59375 27.203125 
z
" id="DejaVuSans-8722"/>
        <path d="M 10.6875 12.40625 
L 21 12.40625 
L 21 0 
L 10.6875 0 
z
" id="DejaVuSans-46"/>
       </defs>
       <use xlink:href="#DejaVuSans-8722"/>
       <use x="83.789062" xlink:href="#DejaVuSans-48"/>
       <use x="147.412109" xlink:href="#DejaVuSans-46"/>
       <use x="179.199219" xlink:href="#DejaVuSans-54"/>
      </g>
     </g>
    </g>
    <g id="ytick_2">
     <g id="line2d_15">
      <path clip-path="url(#pee1e836aa1)" d="M 38.482813 178.429532 
L 373.282813 178.429532 
" style="fill:none;stroke:#b0b0b0;stroke-linecap:square;stroke-width:0.8;"/>
     </g>
     <g id="line2d_16">
      <g>
       <use style="stroke:#000000;stroke-width:0.8;" x="38.482813" xlink:href="#m4bbc3a429f" y="178.429532"/>
      </g>
     </g>
     <g id="text_8">
      <!-- −0.4 -->
      <g transform="translate(7.2 182.228751)scale(0.1 -0.1)">
       <use xlink:href="#DejaVuSans-8722"/>
       <use x="83.789062" xlink:href="#DejaVuSans-48"/>
       <use x="147.412109" xlink:href="#DejaVuSans-46"/>
       <use x="179.199219" xlink:href="#DejaVuSans-52"/>
      </g>
     </g>
    </g>
    <g id="ytick_3">
     <g id="line2d_17">
      <path clip-path="url(#pee1e836aa1)" d="M 38.482813 147.174667 
L 373.282813 147.174667 
" style="fill:none;stroke:#b0b0b0;stroke-linecap:square;stroke-width:0.8;"/>
     </g>
     <g id="line2d_18">
      <g>
       <use style="stroke:#000000;stroke-width:0.8;" x="38.482813" xlink:href="#m4bbc3a429f" y="147.174667"/>
      </g>
     </g>
     <g id="text_9">
      <!-- −0.2 -->
      <g transform="translate(7.2 150.973886)scale(0.1 -0.1)">
       <use xlink:href="#DejaVuSans-8722"/>
       <use x="83.789062" xlink:href="#DejaVuSans-48"/>
       <use x="147.412109" xlink:href="#DejaVuSans-46"/>
       <use x="179.199219" xlink:href="#DejaVuSans-50"/>
      </g>
     </g>
    </g>
    <g id="ytick_4">
     <g id="line2d_19">
      <path clip-path="url(#pee1e836aa1)" d="M 38.482813 115.919802 
L 373.282813 115.919802 
" style="fill:none;stroke:#b0b0b0;stroke-linecap:square;stroke-width:0.8;"/>
     </g>
     <g id="line2d_20">
      <g>
       <use style="stroke:#000000;stroke-width:0.8;" x="38.482813" xlink:href="#m4bbc3a429f" y="115.919802"/>
      </g>
     </g>
     <g id="text_10">
      <!-- 0.0 -->
      <g transform="translate(15.579688 119.71902)scale(0.1 -0.1)">
       <use xlink:href="#DejaVuSans-48"/>
       <use x="63.623047" xlink:href="#DejaVuSans-46"/>
       <use x="95.410156" xlink:href="#DejaVuSans-48"/>
      </g>
     </g>
    </g>
    <g id="ytick_5">
     <g id="line2d_21">
      <path clip-path="url(#pee1e836aa1)" d="M 38.482813 84.664936 
L 373.282813 84.664936 
" style="fill:none;stroke:#b0b0b0;stroke-linecap:square;stroke-width:0.8;"/>
     </g>
     <g id="line2d_22">
      <g>
       <use style="stroke:#000000;stroke-width:0.8;" x="38.482813" xlink:href="#m4bbc3a429f" y="84.664936"/>
      </g>
     </g>
     <g id="text_11">
      <!-- 0.2 -->
      <g transform="translate(15.579688 88.464155)scale(0.1 -0.1)">
       <use xlink:href="#DejaVuSans-48"/>
       <use x="63.623047" xlink:href="#DejaVuSans-46"/>
       <use x="95.410156" xlink:href="#DejaVuSans-50"/>
      </g>
     </g>
    </g>
    <g id="ytick_6">
     <g id="line2d_23">
      <path clip-path="url(#pee1e836aa1)" d="M 38.482813 53.410071 
L 373.282813 53.410071 
" style="fill:none;stroke:#b0b0b0;stroke-linecap:square;stroke-width:0.8;"/>
     </g>
     <g id="line2d_24">
      <g>
       <use style="stroke:#000000;stroke-width:0.8;" x="38.482813" xlink:href="#m4bbc3a429f" y="53.410071"/>
      </g>
     </g>
     <g id="text_12">
      <!-- 0.4 -->
      <g transform="translate(15.579688 57.20929)scale(0.1 -0.1)">
       <use xlink:href="#DejaVuSans-48"/>
       <use x="63.623047" xlink:href="#DejaVuSans-46"/>
       <use x="95.410156" xlink:href="#DejaVuSans-52"/>
      </g>
     </g>
    </g>
    <g id="ytick_7">
     <g id="line2d_25">
      <path clip-path="url(#pee1e836aa1)" d="M 38.482813 22.155206 
L 373.282813 22.155206 
" style="fill:none;stroke:#b0b0b0;stroke-linecap:square;stroke-width:0.8;"/>
     </g>
     <g id="line2d_26">
      <g>
       <use style="stroke:#000000;stroke-width:0.8;" x="38.482813" xlink:href="#m4bbc3a429f" y="22.155206"/>
      </g>
     </g>
     <g id="text_13">
      <!-- 0.6 -->
      <g transform="translate(15.579688 25.954425)scale(0.1 -0.1)">
       <use xlink:href="#DejaVuSans-48"/>
       <use x="63.623047" xlink:href="#DejaVuSans-46"/>
       <use x="95.410156" xlink:href="#DejaVuSans-54"/>
      </g>
     </g>
    </g>
   </g>
   <g id="line2d_27">
    <path clip-path="url(#pee1e836aa1)" d="M 38.482813 35.959343 
L 41.834164 39.962128 
L 45.185515 51.569728 
L 48.536867 69.619999 
L 51.888218 92.305766 
L 58.590921 142.261966 
L 61.942272 164.530829 
L 65.293623 181.932799 
L 68.644975 192.725607 
L 71.996326 195.828686 
L 75.347677 190.931358 
L 78.699029 178.523941 
L 82.05038 159.848653 
L 85.401731 136.775247 
L 92.104434 86.88349 
L 95.455785 65.060257 
L 98.807137 48.329037 
L 102.158488 38.364943 
L 105.50984 36.165573 
L 108.861191 41.951125 
L 112.212542 55.142356 
L 115.563894 74.41857 
L 118.915245 97.84985 
L 125.617948 147.612804 
L 128.969299 168.962255 
L 132.32065 185.001143 
L 135.672002 194.123668 
L 139.023353 195.416492 
L 142.374704 188.750178 
L 145.726056 174.792152 
L 149.077407 154.939878 
L 152.428758 131.180949 
L 155.78011 105.894088 
L 159.131461 81.610992 
L 162.482813 60.762863 
L 165.834164 45.436998 
L 169.185515 37.167809 
L 172.536867 36.783199 
L 175.888218 44.321675 
L 179.239569 59.028492 
L 182.590921 79.431216 
L 185.942272 103.487145 
L 189.293623 128.78782 
L 192.644975 152.800161 
L 195.996326 173.120073 
L 199.347677 187.713145 
L 202.699029 195.118331 
L 206.05038 194.594231 
L 209.401731 186.193317 
L 212.753083 170.756682 
L 216.104434 149.829827 
L 219.455785 125.50793 
L 222.807137 100.226079 
L 226.158488 76.515469 
L 229.50984 56.749985 
L 232.861191 42.908532 
L 236.212542 36.376901 
L 239.563894 37.809035 
L 242.915245 47.061549 
L 246.266596 63.20809 
L 249.617948 84.632081 
L 259.672002 157.797277 
L 263.023353 176.982834 
L 266.374704 190.054815 
L 269.726056 195.704464 
L 273.077407 193.366144 
L 276.428758 183.273965 
L 279.78011 166.438347 
L 283.131461 144.544857 
L 289.834164 94.639022 
L 293.185515 71.623205 
L 296.536867 53.042323 
L 299.888218 40.756678 
L 303.239569 35.996299 
L 306.590921 39.237789 
L 309.942272 50.156614 
L 313.293623 67.659591 
L 316.644975 89.994337 
L 323.347677 139.954725 
L 326.699029 162.578378 
L 330.05038 180.530615 
L 333.401731 192.014075 
L 336.753083 195.879044 
L 340.104434 191.738565 
L 343.455785 180.007179 
L 346.807137 161.859422 
L 350.158488 139.112231 
L 356.861191 89.161738 
L 360.212542 66.959436 
L 363.563894 49.659001 
L 366.915245 38.992539 
L 370.266596 36.027966 
L 373.617948 41.062092 
L 376.969299 53.590905 
L 380.32065 72.360033 
L 383.672002 95.490325 
L 387.845313 126.724092 
L 387.845313 126.724092 
" style="fill:none;stroke:#1f77b4;stroke-linecap:square;stroke-width:1.5;"/>
   </g>
   <g id="line2d_28">
    <path clip-path="url(#pee1e836aa1)" d="M 38.482813 146.461979 
L 41.834164 144.933051 
L 45.185515 140.499343 
L 48.536867 133.604752 
L 51.888218 124.939561 
L 58.590921 105.85799 
L 61.942272 97.352041 
L 65.293623 90.70508 
L 68.644975 86.582595 
L 71.996326 85.397324 
L 75.347677 87.267936 
L 78.699029 92.007148 
L 82.05038 99.140474 
L 85.401731 107.95373 
L 92.104434 127.010686 
L 95.455785 135.346419 
L 98.807137 141.737177 
L 102.158488 145.543122 
L 105.50984 146.383206 
L 108.861191 144.173322 
L 112.212542 139.13472 
L 115.563894 131.771862 
L 118.915245 122.821909 
L 125.617948 103.814152 
L 128.969299 95.659387 
L 132.32065 89.533077 
L 135.672002 86.048583 
L 139.023353 85.554768 
L 142.374704 88.101073 
L 145.726056 93.432565 
L 149.077407 101.015459 
L 152.428758 110.090562 
L 155.78011 119.749284 
L 159.131461 129.024601 
L 162.482813 136.987877 
L 165.834164 142.841837 
L 169.185515 146.000386 
L 172.536867 146.147294 
L 175.888218 143.267852 
L 179.239569 137.650348 
L 182.590921 129.857201 
L 185.942272 120.668654 
L 189.293623 111.004656 
L 192.644975 101.832758 
L 195.996326 94.071242 
L 199.347677 88.497185 
L 202.699029 85.668655 
L 206.05038 85.868844 
L 209.401731 89.077707 
L 212.753083 94.973977 
L 216.104434 102.967325 
L 219.455785 112.257462 
L 222.807137 121.91427 
L 226.158488 130.970918 
L 229.50984 138.52066 
L 232.861191 143.807625 
L 236.212542 146.302486 
L 239.563894 145.75546 
L 242.915245 142.221314 
L 246.266596 136.053884 
L 249.617948 127.870648 
L 259.672002 99.924029 
L 263.023353 92.595799 
L 266.374704 87.602746 
L 269.726056 85.444772 
L 273.077407 86.337931 
L 276.428758 90.192801 
L 279.78011 96.623434 
L 283.131461 104.986003 
L 289.834164 124.048336 
L 293.185515 132.839596 
L 296.536867 139.936861 
L 299.888218 144.62956 
L 303.239569 146.447863 
L 306.590921 145.209724 
L 309.942272 141.039104 
L 313.293623 134.353562 
L 316.644975 125.822448 
L 323.347677 106.739278 
L 326.699029 98.097811 
L 330.05038 91.240667 
L 333.401731 86.854376 
L 336.753083 85.378089 
L 340.104434 86.959611 
L 343.455785 91.440602 
L 346.807137 98.372428 
L 350.158488 107.061082 
L 356.861191 126.140472 
L 360.212542 134.620997 
L 363.563894 141.229175 
L 366.915245 145.303401 
L 370.266596 146.435768 
L 373.617948 144.512902 
L 376.969299 139.727321 
L 380.32065 132.558153 
L 383.672002 123.723167 
L 387.845313 111.79293 
L 387.845313 111.79293 
" style="fill:none;stroke:#ff7f0e;stroke-linecap:square;stroke-width:1.5;"/>
   </g>
   <g id="line2d_29">
    <path clip-path="url(#pee1e836aa1)" d="M 38.482813 214.756364 
L 41.834164 209.808649 
L 45.185515 195.460867 
L 48.536867 173.149505 
L 51.888218 145.108355 
L 58.590921 83.359096 
L 61.942272 55.833267 
L 65.293623 34.323249 
L 68.644975 20.982605 
L 71.996326 17.146989 
L 75.347677 23.200418 
L 78.699029 38.53683 
L 82.05038 61.620756 
L 85.401731 90.141054 
L 92.104434 151.810657 
L 95.455785 178.785656 
L 98.807137 199.466582 
L 102.158488 211.782879 
L 105.50984 214.50145 
L 108.861191 207.350114 
L 112.212542 191.044856 
L 115.563894 167.218145 
L 118.915245 138.25549 
L 125.617948 76.745096 
L 128.969299 50.355723 
L 132.32065 30.530568 
L 135.672002 19.254506 
L 139.023353 17.656488 
L 142.374704 25.896505 
L 145.726056 43.149575 
L 149.077407 67.688335 
L 152.428758 97.055986 
L 155.78011 128.312266 
L 159.131461 158.327823 
L 162.482813 184.097527 
L 165.834164 203.041338 
L 169.185515 213.262618 
L 172.536867 213.738022 
L 175.888218 204.419953 
L 179.239569 186.241328 
L 182.590921 161.022174 
L 185.942272 131.287411 
L 189.293623 100.014056 
L 192.644975 70.333171 
L 195.996326 45.216378 
L 199.347677 27.178349 
L 202.699029 18.025036 
L 206.05038 18.672859 
L 209.401731 29.056959 
L 212.753083 48.13769 
L 216.104434 74.004706 
L 219.455785 104.068223 
L 222.807137 135.31831 
L 226.158488 164.626236 
L 229.50984 189.057717 
L 232.861191 206.166695 
L 236.212542 214.240234 
L 239.563894 212.470019 
L 242.915245 201.033283 
L 246.266596 181.07506 
L 249.617948 154.593551 
L 259.672002 64.156395 
L 263.023353 40.441742 
L 266.374704 24.283886 
L 269.726056 17.300535 
L 273.077407 20.190858 
L 276.428758 32.665477 
L 279.78011 53.475446 
L 283.131461 80.537287 
L 289.834164 142.224292 
L 293.185515 170.673407 
L 296.536867 193.64064 
L 299.888218 208.826531 
L 303.239569 214.710684 
L 306.590921 210.703982 
L 309.942272 197.207572 
L 313.293623 175.572702 
L 316.644975 147.965438 
L 323.347677 86.211002 
L 326.699029 58.24663 
L 330.05038 36.056444 
L 333.401731 21.862107 
L 336.753083 17.084742 
L 340.104434 22.202656 
L 343.455785 36.703446 
L 346.807137 59.135308 
L 350.158488 87.252382 
L 356.861191 148.994587 
L 360.212542 176.438142 
L 363.563894 197.822655 
L 366.915245 211.007128 
L 370.266596 214.671542 
L 373.617948 208.449019 
L 376.969299 192.962554 
L 380.32065 169.762637 
L 383.672002 141.172024 
L 387.845313 102.564965 
L 387.845313 102.564965 
" style="fill:none;stroke:#2ca02c;stroke-linecap:square;stroke-width:1.5;"/>
   </g>
   <g id="line2d_30">
    <path clip-path="url(#pee1e836aa1)" d="M 38.482813 146.461979 
L 41.834164 144.933051 
L 45.185515 140.499343 
L 48.536867 133.604752 
L 51.888218 124.939561 
L 58.590921 105.85799 
L 61.942272 97.352041 
L 65.293623 90.70508 
L 68.644975 86.582595 
L 71.996326 85.397324 
L 75.347677 87.267936 
L 78.699029 92.007148 
L 82.05038 99.140474 
L 85.401731 107.95373 
L 92.104434 127.010686 
L 95.455785 135.346419 
L 98.807137 141.737177 
L 102.158488 145.543122 
L 105.50984 146.383206 
L 108.861191 144.173322 
L 112.212542 139.13472 
L 115.563894 131.771862 
L 118.915245 122.821909 
L 125.617948 103.814152 
L 128.969299 95.659387 
L 132.32065 89.533077 
L 135.672002 86.048583 
L 139.023353 85.554768 
L 142.374704 88.101073 
L 145.726056 93.432565 
L 149.077407 101.015459 
L 152.428758 110.090562 
L 155.78011 119.749284 
L 159.131461 129.024601 
L 162.482813 136.987877 
L 165.834164 142.841837 
L 169.185515 146.000386 
L 172.536867 146.147294 
L 175.888218 143.267852 
L 179.239569 137.650348 
L 182.590921 129.857201 
L 185.942272 120.668654 
L 189.293623 111.004656 
L 192.644975 101.832758 
L 195.996326 94.071242 
L 199.347677 88.497185 
L 202.699029 85.668655 
L 206.05038 85.868844 
L 209.401731 89.077707 
L 212.753083 94.973977 
L 216.104434 102.967325 
L 219.455785 112.257462 
L 222.807137 121.91427 
L 226.158488 130.970918 
L 229.50984 138.52066 
L 232.861191 143.807625 
L 236.212542 146.302486 
L 239.563894 145.75546 
L 242.915245 142.221314 
L 246.266596 136.053884 
L 249.617948 127.870648 
L 259.672002 99.924029 
L 263.023353 92.595799 
L 266.374704 87.602746 
L 269.726056 85.444772 
L 273.077407 86.337931 
L 276.428758 90.192801 
L 279.78011 96.623434 
L 283.131461 104.986003 
L 289.834164 124.048336 
L 293.185515 132.839596 
L 296.536867 139.936861 
L 299.888218 144.62956 
L 303.239569 146.447863 
L 306.590921 145.209724 
L 309.942272 141.039104 
L 313.293623 134.353562 
L 316.644975 125.822448 
L 323.347677 106.739278 
L 326.699029 98.097811 
L 330.05038 91.240667 
L 333.401731 86.854376 
L 336.753083 85.378089 
L 340.104434 86.959611 
L 343.455785 91.440602 
L 346.807137 98.372428 
L 350.158488 107.061082 
L 356.861191 126.140472 
L 360.212542 134.620997 
L 363.563894 141.229175 
L 366.915245 145.303401 
L 370.266596 146.435768 
L 373.617948 144.512902 
L 376.969299 139.727321 
L 380.32065 132.558153 
L 383.672002 123.723167 
L 387.845313 111.79293 
L 387.845313 111.79293 
" style="fill:none;stroke:#d62728;stroke-linecap:square;stroke-width:1.5;"/>
   </g>
   <g id="line2d_31">
    <path clip-path="url(#pee1e836aa1)" d="M 38.482813 35.959343 
L 41.834164 39.962128 
L 45.185515 51.569728 
L 48.536867 69.619999 
L 51.888218 92.305766 
L 58.590921 142.261966 
L 61.942272 164.530829 
L 65.293623 181.932799 
L 68.644975 192.725607 
L 71.996326 195.828686 
L 75.347677 190.931358 
L 78.699029 178.523941 
L 82.05038 159.848653 
L 85.401731 136.775247 
L 92.104434 86.88349 
L 95.455785 65.060257 
L 98.807137 48.329037 
L 102.158488 38.364943 
L 105.50984 36.165573 
L 108.861191 41.951125 
L 112.212542 55.142356 
L 115.563894 74.41857 
L 118.915245 97.84985 
L 125.617948 147.612804 
L 128.969299 168.962255 
L 132.32065 185.001143 
L 135.672002 194.123668 
L 139.023353 195.416492 
L 142.374704 188.750178 
L 145.726056 174.792152 
L 149.077407 154.939878 
L 152.428758 131.180949 
L 155.78011 105.894088 
L 159.131461 81.610992 
L 162.482813 60.762863 
L 165.834164 45.436998 
L 169.185515 37.167809 
L 172.536867 36.783199 
L 175.888218 44.321675 
L 179.239569 59.028492 
L 182.590921 79.431216 
L 185.942272 103.487145 
L 189.293623 128.78782 
L 192.644975 152.800161 
L 195.996326 173.120073 
L 199.347677 187.713145 
L 202.699029 195.118331 
L 206.05038 194.594231 
L 209.401731 186.193317 
L 212.753083 170.756682 
L 216.104434 149.829827 
L 219.455785 125.50793 
L 222.807137 100.226079 
L 226.158488 76.515469 
L 229.50984 56.749985 
L 232.861191 42.908532 
L 236.212542 36.376901 
L 239.563894 37.809035 
L 242.915245 47.061549 
L 246.266596 63.20809 
L 249.617948 84.632081 
L 259.672002 157.797277 
L 263.023353 176.982834 
L 266.374704 190.054815 
L 269.726056 195.704464 
L 273.077407 193.366144 
L 276.428758 183.273965 
L 279.78011 166.438347 
L 283.131461 144.544857 
L 289.834164 94.639022 
L 293.185515 71.623205 
L 296.536867 53.042323 
L 299.888218 40.756678 
L 303.239569 35.996299 
L 306.590921 39.237789 
L 309.942272 50.156614 
L 313.293623 67.659591 
L 316.644975 89.994337 
L 323.347677 139.954725 
L 326.699029 162.578378 
L 330.05038 180.530615 
L 333.401731 192.014075 
L 336.753083 195.879044 
L 340.104434 191.738565 
L 343.455785 180.007179 
L 346.807137 161.859422 
L 350.158488 139.112231 
L 356.861191 89.161738 
L 360.212542 66.959436 
L 363.563894 49.659001 
L 366.915245 38.992539 
L 370.266596 36.027966 
L 373.617948 41.062092 
L 376.969299 53.590905 
L 380.32065 72.360033 
L 383.672002 95.490325 
L 387.845313 126.724092 
L 387.845313 126.724092 
" style="fill:none;stroke:#9467bd;stroke-linecap:square;stroke-width:1.5;"/>
   </g>
   <g id="patch_3">
    <path d="M 38.482813 224.64 
L 38.482813 7.2 
" style="fill:none;stroke:#000000;stroke-linecap:square;stroke-linejoin:miter;stroke-width:0.8;"/>
   </g>
   <g id="patch_4">
    <path d="M 373.282813 224.64 
L 373.282813 7.2 
" style="fill:none;stroke:#000000;stroke-linecap:square;stroke-linejoin:miter;stroke-width:0.8;"/>
   </g>
   <g id="patch_5">
    <path d="M 38.482813 224.64 
L 373.282813 224.64 
" style="fill:none;stroke:#000000;stroke-linecap:square;stroke-linejoin:miter;stroke-width:0.8;"/>
   </g>
   <g id="patch_6">
    <path d="M 38.482813 7.2 
L 373.282813 7.2 
" style="fill:none;stroke:#000000;stroke-linecap:square;stroke-linejoin:miter;stroke-width:0.8;"/>
   </g>
  </g>
 </g>
 <defs>
  <clipPath id="pee1e836aa1">
   <rect height="217.44" width="334.8" x="38.482813" y="7.2"/>
  </clipPath>
 </defs>
</svg>
