<?xml version="1.0" encoding="utf-8" standalone="no"?>
<!DOCTYPE svg PUBLIC "-//W3C//DTD SVG 1.1//EN"
  "http://www.w3.org/Graphics/SVG/1.1/DTD/svg11.dtd">
<!-- Created with matplotlib (https://matplotlib.org/) -->
<svg height="248.518125pt" version="1.1" viewBox="0 0 391.615625 248.518125" width="391.615625pt" xmlns="http://www.w3.org/2000/svg" xmlns:xlink="http://www.w3.org/1999/xlink">
 <metadata>
  <rdf:RDF xmlns:cc="http://creativecommons.org/ns#" xmlns:dc="http://purl.org/dc/elements/1.1/" xmlns:rdf="http://www.w3.org/1999/02/22-rdf-syntax-ns#">
   <cc:Work>
    <dc:type rdf:resource="http://purl.org/dc/dcmitype/StillImage"/>
    <dc:date>2021-10-24T17:04:53.271229</dc:date>
    <dc:format>image/svg+xml</dc:format>
    <dc:creator>
     <cc:Agent>
      <dc:title>Matplotlib v3.3.4, https://matplotlib.org/</dc:title>
     </cc:Agent>
    </dc:creator>
   </cc:Work>
  </rdf:RDF>
 </metadata>
 <defs>
  <style type="text/css">*{stroke-linecap:butt;stroke-linejoin:round;}</style>
 </defs>
 <g id="figure_1">
  <g id="patch_1">
   <path d="M -0 248.518125 
L 391.615625 248.518125 
L 391.615625 0 
L -0 0 
z
" style="fill:none;"/>
  </g>
  <g id="axes_1">
   <g id="patch_2">
    <path d="M 38.482813 224.64 
L 373.282813 224.64 
L 373.282813 7.2 
L 38.482813 7.2 
z
" style="fill:#ffffff;"/>
   </g>
   <g id="matplotlib.axis_1">
    <g id="xtick_1">
     <g id="line2d_1">
      <defs>
       <path d="M 0 0 
L 0 3.5 
" id="m497d93262e" style="stroke:#000000;stroke-width:0.8;"/>
      </defs>
      <g>
       <use style="stroke:#000000;stroke-width:0.8;" x="38.482813" xlink:href="#m497d93262e" y="224.64"/>
      </g>
     </g>
     <g id="text_1">
      <!-- 0.0 -->
      <g transform="translate(30.53125 239.238437)scale(0.1 -0.1)">
       <defs>
        <path d="M 31.78125 66.40625 
Q 24.171875 66.40625 20.328125 58.90625 
Q 16.5 51.421875 16.5 36.375 
Q 16.5 21.390625 20.328125 13.890625 
Q 24.171875 6.390625 31.78125 6.390625 
Q 39.453125 6.390625 43.28125 13.890625 
Q 47.125 21.390625 47.125 36.375 
Q 47.125 51.421875 43.28125 58.90625 
Q 39.453125 66.40625 31.78125 66.40625 
z
M 31.78125 74.21875 
Q 44.046875 74.21875 50.515625 64.515625 
Q 56.984375 54.828125 56.984375 36.375 
Q 56.984375 17.96875 50.515625 8.265625 
Q 44.046875 -1.421875 31.78125 -1.421875 
Q 19.53125 -1.421875 13.0625 8.265625 
Q 6.59375 17.96875 6.59375 36.375 
Q 6.59375 54.828125 13.0625 64.515625 
Q 19.53125 74.21875 31.78125 74.21875 
z
" id="DejaVuSans-48"/>
        <path d="M 10.6875 12.40625 
L 21 12.40625 
L 21 0 
L 10.6875 0 
z
" id="DejaVuSans-46"/>
       </defs>
       <use xlink:href="#DejaVuSans-48"/>
       <use x="63.623047" xlink:href="#DejaVuSans-46"/>
       <use x="95.410156" xlink:href="#DejaVuSans-48"/>
      </g>
     </g>
    </g>
    <g id="xtick_2">
     <g id="line2d_2">
      <g>
       <use style="stroke:#000000;stroke-width:0.8;" x="80.332813" xlink:href="#m497d93262e" y="224.64"/>
      </g>
     </g>
     <g id="text_2">
      <!-- 2.5 -->
      <g transform="translate(72.38125 239.238437)scale(0.1 -0.1)">
       <defs>
        <path d="M 19.1875 8.296875 
L 53.609375 8.296875 
L 53.609375 0 
L 7.328125 0 
L 7.328125 8.296875 
Q 12.9375 14.109375 22.625 23.890625 
Q 32.328125 33.6875 34.8125 36.53125 
Q 39.546875 41.84375 41.421875 45.53125 
Q 43.3125 49.21875 43.3125 52.78125 
Q 43.3125 58.59375 39.234375 62.25 
Q 35.15625 65.921875 28.609375 65.921875 
Q 23.96875 65.921875 18.8125 64.3125 
Q 13.671875 62.703125 7.8125 59.421875 
L 7.8125 69.390625 
Q 13.765625 71.78125 18.9375 73 
Q 24.125 74.21875 28.421875 74.21875 
Q 39.75 74.21875 46.484375 68.546875 
Q 53.21875 62.890625 53.21875 53.421875 
Q 53.21875 48.921875 51.53125 44.890625 
Q 49.859375 40.875 45.40625 35.40625 
Q 44.1875 33.984375 37.640625 27.21875 
Q 31.109375 20.453125 19.1875 8.296875 
z
" id="DejaVuSans-50"/>
        <path d="M 10.796875 72.90625 
L 49.515625 72.90625 
L 49.515625 64.59375 
L 19.828125 64.59375 
L 19.828125 46.734375 
Q 21.96875 47.46875 24.109375 47.828125 
Q 26.265625 48.1875 28.421875 48.1875 
Q 40.625 48.1875 47.75 41.5 
Q 54.890625 34.8125 54.890625 23.390625 
Q 54.890625 11.625 47.5625 5.09375 
Q 40.234375 -1.421875 26.90625 -1.421875 
Q 22.3125 -1.421875 17.546875 -0.640625 
Q 12.796875 0.140625 7.71875 1.703125 
L 7.71875 11.625 
Q 12.109375 9.234375 16.796875 8.0625 
Q 21.484375 6.890625 26.703125 6.890625 
Q 35.15625 6.890625 40.078125 11.328125 
Q 45.015625 15.765625 45.015625 23.390625 
Q 45.015625 31 40.078125 35.4375 
Q 35.15625 39.890625 26.703125 39.890625 
Q 22.75 39.890625 18.8125 39.015625 
Q 14.890625 38.140625 10.796875 36.28125 
z
" id="DejaVuSans-53"/>
       </defs>
       <use xlink:href="#DejaVuSans-50"/>
       <use x="63.623047" xlink:href="#DejaVuSans-46"/>
       <use x="95.410156" xlink:href="#DejaVuSans-53"/>
      </g>
     </g>
    </g>
    <g id="xtick_3">
     <g id="line2d_3">
      <g>
       <use style="stroke:#000000;stroke-width:0.8;" x="122.182813" xlink:href="#m497d93262e" y="224.64"/>
      </g>
     </g>
     <g id="text_3">
      <!-- 5.0 -->
      <g transform="translate(114.23125 239.238437)scale(0.1 -0.1)">
       <use xlink:href="#DejaVuSans-53"/>
       <use x="63.623047" xlink:href="#DejaVuSans-46"/>
       <use x="95.410156" xlink:href="#DejaVuSans-48"/>
      </g>
     </g>
    </g>
    <g id="xtick_4">
     <g id="line2d_4">
      <g>
       <use style="stroke:#000000;stroke-width:0.8;" x="164.032813" xlink:href="#m497d93262e" y="224.64"/>
      </g>
     </g>
     <g id="text_4">
      <!-- 7.5 -->
      <g transform="translate(156.08125 239.238437)scale(0.1 -0.1)">
       <defs>
        <path d="M 8.203125 72.90625 
L 55.078125 72.90625 
L 55.078125 68.703125 
L 28.609375 0 
L 18.3125 0 
L 43.21875 64.59375 
L 8.203125 64.59375 
z
" id="DejaVuSans-55"/>
       </defs>
       <use xlink:href="#DejaVuSans-55"/>
       <use x="63.623047" xlink:href="#DejaVuSans-46"/>
       <use x="95.410156" xlink:href="#DejaVuSans-53"/>
      </g>
     </g>
    </g>
    <g id="xtick_5">
     <g id="line2d_5">
      <g>
       <use style="stroke:#000000;stroke-width:0.8;" x="205.882813" xlink:href="#m497d93262e" y="224.64"/>
      </g>
     </g>
     <g id="text_5">
      <!-- 10.0 -->
      <g transform="translate(194.75 239.238437)scale(0.1 -0.1)">
       <defs>
        <path d="M 12.40625 8.296875 
L 28.515625 8.296875 
L 28.515625 63.921875 
L 10.984375 60.40625 
L 10.984375 69.390625 
L 28.421875 72.90625 
L 38.28125 72.90625 
L 38.28125 8.296875 
L 54.390625 8.296875 
L 54.390625 0 
L 12.40625 0 
z
" id="DejaVuSans-49"/>
       </defs>
       <use xlink:href="#DejaVuSans-49"/>
       <use x="63.623047" xlink:href="#DejaVuSans-48"/>
       <use x="127.246094" xlink:href="#DejaVuSans-46"/>
       <use x="159.033203" xlink:href="#DejaVuSans-48"/>
      </g>
     </g>
    </g>
    <g id="xtick_6">
     <g id="line2d_6">
      <g>
       <use style="stroke:#000000;stroke-width:0.8;" x="247.732813" xlink:href="#m497d93262e" y="224.64"/>
      </g>
     </g>
     <g id="text_6">
      <!-- 12.5 -->
      <g transform="translate(236.6 239.238437)scale(0.1 -0.1)">
       <use xlink:href="#DejaVuSans-49"/>
       <use x="63.623047" xlink:href="#DejaVuSans-50"/>
       <use x="127.246094" xlink:href="#DejaVuSans-46"/>
       <use x="159.033203" xlink:href="#DejaVuSans-53"/>
      </g>
     </g>
    </g>
    <g id="xtick_7">
     <g id="line2d_7">
      <g>
       <use style="stroke:#000000;stroke-width:0.8;" x="289.582813" xlink:href="#m497d93262e" y="224.64"/>
      </g>
     </g>
     <g id="text_7">
      <!-- 15.0 -->
      <g transform="translate(278.45 239.238437)scale(0.1 -0.1)">
       <use xlink:href="#DejaVuSans-49"/>
       <use x="63.623047" xlink:href="#DejaVuSans-53"/>
       <use x="127.246094" xlink:href="#DejaVuSans-46"/>
       <use x="159.033203" xlink:href="#DejaVuSans-48"/>
      </g>
     </g>
    </g>
    <g id="xtick_8">
     <g id="line2d_8">
      <g>
       <use style="stroke:#000000;stroke-width:0.8;" x="331.432813" xlink:href="#m497d93262e" y="224.64"/>
      </g>
     </g>
     <g id="text_8">
      <!-- 17.5 -->
      <g transform="translate(320.3 239.238437)scale(0.1 -0.1)">
       <use xlink:href="#DejaVuSans-49"/>
       <use x="63.623047" xlink:href="#DejaVuSans-55"/>
       <use x="127.246094" xlink:href="#DejaVuSans-46"/>
       <use x="159.033203" xlink:href="#DejaVuSans-53"/>
      </g>
     </g>
    </g>
    <g id="xtick_9">
     <g id="line2d_9">
      <g>
       <use style="stroke:#000000;stroke-width:0.8;" x="373.282813" xlink:href="#m497d93262e" y="224.64"/>
      </g>
     </g>
     <g id="text_9">
      <!-- 20.0 -->
      <g transform="translate(362.15 239.238437)scale(0.1 -0.1)">
       <use xlink:href="#DejaVuSans-50"/>
       <use x="63.623047" xlink:href="#DejaVuSans-48"/>
       <use x="127.246094" xlink:href="#DejaVuSans-46"/>
       <use x="159.033203" xlink:href="#DejaVuSans-48"/>
      </g>
     </g>
    </g>
   </g>
   <g id="matplotlib.axis_2">
    <g id="ytick_1">
     <g id="line2d_10">
      <defs>
       <path d="M 0 0 
L -3.5 0 
" id="m243f39d75b" style="stroke:#000000;stroke-width:0.8;"/>
      </defs>
      <g>
       <use style="stroke:#000000;stroke-width:0.8;" x="38.482813" xlink:href="#m243f39d75b" y="209.684407"/>
      </g>
     </g>
     <g id="text_10">
      <!-- −0.6 -->
      <g transform="translate(7.2 213.483626)scale(0.1 -0.1)">
       <defs>
        <path d="M 10.59375 35.5 
L 73.1875 35.5 
L 73.1875 27.203125 
L 10.59375 27.203125 
z
" id="DejaVuSans-8722"/>
        <path d="M 33.015625 40.375 
Q 26.375 40.375 22.484375 35.828125 
Q 18.609375 31.296875 18.609375 23.390625 
Q 18.609375 15.53125 22.484375 10.953125 
Q 26.375 6.390625 33.015625 6.390625 
Q 39.65625 6.390625 43.53125 10.953125 
Q 47.40625 15.53125 47.40625 23.390625 
Q 47.40625 31.296875 43.53125 35.828125 
Q 39.65625 40.375 33.015625 40.375 
z
M 52.59375 71.296875 
L 52.59375 62.3125 
Q 48.875 64.0625 45.09375 64.984375 
Q 41.3125 65.921875 37.59375 65.921875 
Q 27.828125 65.921875 22.671875 59.328125 
Q 17.53125 52.734375 16.796875 39.40625 
Q 19.671875 43.65625 24.015625 45.921875 
Q 28.375 48.1875 33.59375 48.1875 
Q 44.578125 48.1875 50.953125 41.515625 
Q 57.328125 34.859375 57.328125 23.390625 
Q 57.328125 12.15625 50.6875 5.359375 
Q 44.046875 -1.421875 33.015625 -1.421875 
Q 20.359375 -1.421875 13.671875 8.265625 
Q 6.984375 17.96875 6.984375 36.375 
Q 6.984375 53.65625 15.1875 63.9375 
Q 23.390625 74.21875 37.203125 74.21875 
Q 40.921875 74.21875 44.703125 73.484375 
Q 48.484375 72.75 52.59375 71.296875 
z
" id="DejaVuSans-54"/>
       </defs>
       <use xlink:href="#DejaVuSans-8722"/>
       <use x="83.789062" xlink:href="#DejaVuSans-48"/>
       <use x="147.412109" xlink:href="#DejaVuSans-46"/>
       <use x="179.199219" xlink:href="#DejaVuSans-54"/>
      </g>
     </g>
    </g>
    <g id="ytick_2">
     <g id="line2d_11">
      <g>
       <use style="stroke:#000000;stroke-width:0.8;" x="38.482813" xlink:href="#m243f39d75b" y="178.429605"/>
      </g>
     </g>
     <g id="text_11">
      <!-- −0.4 -->
      <g transform="translate(7.2 182.228823)scale(0.1 -0.1)">
       <defs>
        <path d="M 37.796875 64.3125 
L 12.890625 25.390625 
L 37.796875 25.390625 
z
M 35.203125 72.90625 
L 47.609375 72.90625 
L 47.609375 25.390625 
L 58.015625 25.390625 
L 58.015625 17.1875 
L 47.609375 17.1875 
L 47.609375 0 
L 37.796875 0 
L 37.796875 17.1875 
L 4.890625 17.1875 
L 4.890625 26.703125 
z
" id="DejaVuSans-52"/>
       </defs>
       <use xlink:href="#DejaVuSans-8722"/>
       <use x="83.789062" xlink:href="#DejaVuSans-48"/>
       <use x="147.412109" xlink:href="#DejaVuSans-46"/>
       <use x="179.199219" xlink:href="#DejaVuSans-52"/>
      </g>
     </g>
    </g>
    <g id="ytick_3">
     <g id="line2d_12">
      <g>
       <use style="stroke:#000000;stroke-width:0.8;" x="38.482813" xlink:href="#m243f39d75b" y="147.174802"/>
      </g>
     </g>
     <g id="text_12">
      <!-- −0.2 -->
      <g transform="translate(7.2 150.974021)scale(0.1 -0.1)">
       <use xlink:href="#DejaVuSans-8722"/>
       <use x="83.789062" xlink:href="#DejaVuSans-48"/>
       <use x="147.412109" xlink:href="#DejaVuSans-46"/>
       <use x="179.199219" xlink:href="#DejaVuSans-50"/>
      </g>
     </g>
    </g>
    <g id="ytick_4">
     <g id="line2d_13">
      <g>
       <use style="stroke:#000000;stroke-width:0.8;" x="38.482813" xlink:href="#m243f39d75b" y="115.919999"/>
      </g>
     </g>
     <g id="text_13">
      <!-- 0.0 -->
      <g transform="translate(15.579688 119.719218)scale(0.1 -0.1)">
       <use xlink:href="#DejaVuSans-48"/>
       <use x="63.623047" xlink:href="#DejaVuSans-46"/>
       <use x="95.410156" xlink:href="#DejaVuSans-48"/>
      </g>
     </g>
    </g>
    <g id="ytick_5">
     <g id="line2d_14">
      <g>
       <use style="stroke:#000000;stroke-width:0.8;" x="38.482813" xlink:href="#m243f39d75b" y="84.665197"/>
      </g>
     </g>
     <g id="text_14">
      <!-- 0.2 -->
      <g transform="translate(15.579688 88.464415)scale(0.1 -0.1)">
       <use xlink:href="#DejaVuSans-48"/>
       <use x="63.623047" xlink:href="#DejaVuSans-46"/>
       <use x="95.410156" xlink:href="#DejaVuSans-50"/>
      </g>
     </g>
    </g>
    <g id="ytick_6">
     <g id="line2d_15">
      <g>
       <use style="stroke:#000000;stroke-width:0.8;" x="38.482813" xlink:href="#m243f39d75b" y="53.410394"/>
      </g>
     </g>
     <g id="text_15">
      <!-- 0.4 -->
      <g transform="translate(15.579688 57.209613)scale(0.1 -0.1)">
       <use xlink:href="#DejaVuSans-48"/>
       <use x="63.623047" xlink:href="#DejaVuSans-46"/>
       <use x="95.410156" xlink:href="#DejaVuSans-52"/>
      </g>
     </g>
    </g>
    <g id="ytick_7">
     <g id="line2d_16">
      <g>
       <use style="stroke:#000000;stroke-width:0.8;" x="38.482813" xlink:href="#m243f39d75b" y="22.155591"/>
      </g>
     </g>
     <g id="text_16">
      <!-- 0.6 -->
      <g transform="translate(15.579688 25.95481)scale(0.1 -0.1)">
       <use xlink:href="#DejaVuSans-48"/>
       <use x="63.623047" xlink:href="#DejaVuSans-46"/>
       <use x="95.410156" xlink:href="#DejaVuSans-54"/>
      </g>
     </g>
    </g>
   </g>
   <g id="line2d_17">
    <path clip-path="url(#p9b22c7dc3c)" d="M 38.482813 146.462116 
L 40.158488 144.757209 
L 41.834164 139.83283 
L 43.50984 132.238751 
L 45.185515 122.822797 
L 48.536867 102.816206 
L 50.212542 94.459164 
L 51.888218 88.498074 
L 53.563894 85.59845 
L 55.239569 86.084014 
L 56.915245 89.900557 
L 58.590921 96.621988 
L 60.266596 105.497907 
L 63.617948 125.619569 
L 65.293623 134.61887 
L 66.969299 141.530572 
L 68.644975 145.583033 
L 70.32065 146.323825 
L 71.996326 143.670242 
L 73.672002 137.918539 
L 75.347677 129.710854 
L 80.374704 100.25317 
L 82.05038 92.490684 
L 83.726056 87.343917 
L 85.401731 85.38747 
L 87.077407 86.839765 
L 88.753083 91.538665 
L 90.428758 98.95957 
L 92.104434 108.273988 
L 95.455785 128.328504 
L 97.131461 136.829656 
L 98.807137 142.996392 
L 100.482813 146.140237 
L 102.158488 145.910205 
L 103.834164 142.331977 
L 105.50984 135.805036 
L 107.185515 127.05807 
L 110.536867 106.94904 
L 112.212542 97.832008 
L 113.888218 90.734373 
L 115.563894 86.448537 
L 117.239569 85.452984 
L 118.915245 87.858859 
L 120.590921 93.397564 
L 122.266596 101.450741 
L 127.293623 130.925071 
L 128.969299 138.851091 
L 130.644975 144.217015 
L 132.32065 146.423775 
L 133.996326 145.225003 
L 135.672002 140.754532 
L 137.347677 133.511459 
L 139.023353 124.304424 
L 142.374704 104.214571 
L 144.05038 95.574646 
L 145.726056 89.206137 
L 147.401731 85.820043 
L 149.077407 85.794399 
L 150.753083 89.132067 
L 152.428758 95.460419 
L 154.104434 104.072941 
L 159.131461 133.385756 
L 160.807137 140.664868 
L 162.482813 145.181388 
L 164.158488 146.431079 
L 165.834164 144.274422 
L 167.50984 138.952192 
L 169.185515 131.058579 
L 172.536867 111.270961 
L 174.212542 101.586104 
L 175.888218 93.501526 
L 177.563894 87.919814 
L 179.239569 85.464126 
L 180.915245 86.408623 
L 182.590921 90.647859 
L 184.266596 97.708552 
L 185.942272 106.802425 
L 189.293623 126.915002 
L 190.969299 135.688276 
L 192.644975 142.254562 
L 194.32065 145.880777 
L 195.996326 146.162082 
L 197.672002 143.06707 
L 199.347677 136.941278 
L 201.023353 128.468608 
L 206.05038 99.08744 
L 207.726056 91.631422 
L 209.401731 86.887053 
L 211.077407 85.38401 
L 212.753083 87.290095 
L 214.428758 92.392509 
L 216.104434 100.121602 
L 217.78011 109.614476 
L 221.131461 129.573719 
L 222.807137 137.81178 
L 224.482813 143.605777 
L 226.158488 146.30885 
L 227.834164 145.619221 
L 229.50984 141.613883 
L 231.185515 134.740002 
L 232.861191 125.764999 
L 236.212542 105.642325 
L 237.888218 96.741208 
L 239.563894 89.981269 
L 241.239569 86.117207 
L 242.915245 85.580419 
L 244.590921 88.430831 
L 246.266596 94.350217 
L 247.942272 102.677718 
L 252.969299 132.108793 
L 254.644975 139.737038 
L 256.32065 144.706277 
L 257.996326 146.46173 
L 259.672002 144.807413 
L 261.347677 139.928018 
L 263.023353 132.368296 
L 264.699029 122.972238 
L 268.05038 102.955025 
L 269.726056 94.568654 
L 271.401731 88.56601 
L 273.077407 85.617247 
L 274.753083 86.051575 
L 276.428758 89.820502 
L 278.104434 96.503256 
L 279.78011 105.353753 
L 283.131461 125.473894 
L 284.807137 134.497265 
L 286.482813 141.446614 
L 288.158488 145.546096 
L 289.834164 146.338032 
L 291.50984 143.734007 
L 293.185515 138.024743 
L 294.861191 129.84764 
L 299.888218 100.385133 
L 301.563894 92.589451 
L 303.239569 87.398461 
L 304.915245 85.391701 
L 306.590921 86.793211 
L 308.266596 91.446523 
L 309.942272 98.832128 
L 311.617948 108.125473 
L 314.969299 128.188088 
L 316.644975 136.717506 
L 318.32065 142.925029 
L 319.996326 146.117629 
L 321.672002 145.938876 
L 323.347677 142.408725 
L 325.023353 135.921294 
L 326.699029 127.200858 
L 330.05038 107.095882 
L 331.726056 97.955921 
L 333.401731 90.821524 
L 335.077407 86.489196 
L 336.753083 85.442611 
L 338.428758 87.798612 
L 340.104434 93.29417 
L 341.78011 101.315743 
L 346.807137 130.791185 
L 348.482813 138.749411 
L 350.158488 144.158893 
L 351.834164 146.415701 
L 353.50984 145.267877 
L 355.185515 140.843568 
L 356.861191 133.636718 
L 358.536867 124.45192 
L 361.888218 104.356498 
L 363.563894 95.689387 
L 365.239569 89.280882 
L 366.915245 85.846448 
L 368.590921 85.769515 
L 370.266596 89.058673 
L 371.942272 95.346709 
L 373.617948 103.93161 
L 378.644975 133.259613 
L 380.32065 140.574579 
L 381.996326 145.137034 
L 383.672002 146.437612 
L 385.347677 144.331112 
L 387.023353 139.052711 
L 388.699029 131.191704 
L 392.05038 111.42273 
L 392.615625 108.150387 
L 392.615625 108.150387 
" style="fill:none;stroke:#1f77b4;stroke-linecap:square;stroke-width:1.5;"/>
   </g>
   <g id="line2d_18">
    <path clip-path="url(#p9b22c7dc3c)" d="M 38.482813 35.959701 
L 40.158488 40.265903 
L 41.834164 52.720696 
L 43.50984 71.982593 
L 45.185515 95.976922 
L 48.536867 147.593942 
L 50.212542 169.657041 
L 51.888218 185.932202 
L 53.563894 194.666453 
L 55.239569 194.91904 
L 56.915245 186.662758 
L 58.590921 170.786878 
L 60.266596 149.001368 
L 65.293623 73.276739 
L 66.969299 53.675342 
L 68.644975 40.778225 
L 70.32065 35.974517 
L 71.996326 39.781618 
L 73.672002 51.789471 
L 75.347677 70.704729 
L 77.023353 94.490056 
L 80.374704 146.174779 
L 82.05038 168.507289 
L 83.726056 185.175701 
L 85.401731 194.384684 
L 87.077407 195.142352 
L 88.753083 187.367098 
L 90.428758 171.896383 
L 92.104434 150.396534 
L 97.131461 74.586688 
L 98.807137 54.653054 
L 100.482813 41.318392 
L 102.158488 36.018959 
L 103.834164 39.325548 
L 105.50984 50.882012 
L 107.185515 69.443621 
L 108.861191 93.011131 
L 112.212542 144.744403 
L 113.888218 167.33805 
L 115.563894 184.393535 
L 117.239569 194.073837 
L 118.915245 195.336305 
L 120.590921 188.044961 
L 122.266596 172.985144 
L 123.942272 151.778925 
L 128.969299 75.911955 
L 130.644975 55.653471 
L 132.32065 41.886206 
L 133.996326 36.093011 
L 135.672002 38.897862 
L 137.347677 49.998654 
L 139.023353 68.199736 
L 140.699029 91.540696 
L 144.05038 143.303346 
L 145.726056 166.149756 
L 147.401731 183.585994 
L 149.077407 193.734028 
L 150.753083 195.500828 
L 152.428758 188.696096 
L 154.104434 174.052757 
L 155.78011 153.148026 
L 160.807137 77.252048 
L 162.482813 56.676222 
L 164.158488 42.481455 
L 165.834164 36.196646 
L 167.50984 38.49872 
L 169.185515 49.139725 
L 170.861191 66.973535 
L 172.536867 90.079296 
L 175.888218 141.852141 
L 177.563894 164.942848 
L 179.239569 182.753377 
L 180.915245 193.365383 
L 182.590921 195.63586 
L 184.266596 189.320261 
L 185.942272 175.098828 
L 187.617948 154.503331 
L 192.644975 78.60647 
L 194.32065 57.720927 
L 195.996326 43.103919 
L 197.672002 36.329824 
L 199.347677 38.128268 
L 201.023353 48.305545 
L 202.699029 65.765473 
L 204.374704 88.627472 
L 207.726056 140.391326 
L 209.401731 163.717773 
L 211.077407 181.895993 
L 212.753083 192.968037 
L 214.428758 195.741351 
L 216.104434 189.917225 
L 217.78011 176.122968 
L 219.455785 155.844339 
L 221.131461 131.265518 
L 224.482813 79.97472 
L 226.158488 58.7872 
L 227.834164 43.753368 
L 229.50984 36.492497 
L 231.185515 37.786645 
L 232.861191 47.49642 
L 234.536867 64.575998 
L 236.212542 87.185762 
L 239.563894 138.921442 
L 241.239569 162.474985 
L 242.915245 181.01416 
L 244.590921 192.542139 
L 246.266596 195.817261 
L 247.942272 190.486768 
L 249.617948 177.124798 
L 251.293623 157.17055 
L 252.969299 132.773267 
L 256.32065 81.356291 
L 257.996326 59.874644 
L 259.672002 44.42956 
L 261.347677 36.684605 
L 263.023353 37.473976 
L 264.699029 46.712653 
L 266.374704 63.40555 
L 268.05038 85.7547 
L 273.077407 161.214945 
L 274.753083 180.108204 
L 276.428758 192.087846 
L 278.104434 195.863563 
L 279.78011 191.028677 
L 281.455785 178.103947 
L 283.131461 158.481476 
L 284.807137 134.274771 
L 288.158488 82.750671 
L 289.834164 60.982859 
L 291.50984 45.132245 
L 293.185515 36.906075 
L 294.861191 37.190378 
L 296.536867 45.954532 
L 298.212542 62.254562 
L 299.888218 84.334817 
L 304.915245 159.938119 
L 306.590921 179.178461 
L 308.266596 191.605327 
L 309.942272 195.880239 
L 311.617948 191.542753 
L 313.293623 179.060051 
L 314.969299 159.776628 
L 316.644975 135.769473 
L 319.996326 84.157342 
L 321.672002 62.111432 
L 323.347677 45.861163 
L 325.023353 37.156827 
L 326.699029 36.935956 
L 328.374704 45.222339 
L 330.05038 61.123462 
L 331.726056 82.926639 
L 336.753083 158.644981 
L 338.428758 178.225275 
L 340.104434 191.09476 
L 341.78011 195.867284 
L 343.455785 192.028804 
L 345.131461 179.992757 
L 346.807137 161.055529 
L 348.482813 137.256819 
L 351.834164 85.575784 
L 353.50984 63.259945 
L 355.185515 46.616043 
L 356.861191 37.436767 
L 358.536867 36.710804 
L 360.212542 44.516345 
L 361.888218 60.012669 
L 363.563894 81.530687 
L 368.590921 157.33601 
L 370.266596 177.249 
L 371.942272 190.556335 
L 373.617948 195.824701 
L 375.293623 192.48665 
L 376.969299 180.901719 
L 378.644975 162.317703 
L 380.32065 138.736259 
L 383.672002 87.005471 
L 385.347677 64.427974 
L 387.023353 47.396606 
L 388.699029 37.745792 
L 390.374704 36.515005 
L 392.05038 43.836813 
L 392.615625 48.925602 
L 392.615625 48.925602 
" style="fill:none;stroke:#ff7f0e;stroke-linecap:square;stroke-width:1.5;"/>
   </g>
   <g id="line2d_19">
    <path clip-path="url(#p9b22c7dc3c)" d="M 38.482813 214.756364 
L 40.158488 209.67412 
L 41.834164 194.950055 
L 43.50984 172.098414 
L 45.185515 143.469296 
L 48.536867 80.947058 
L 50.212542 53.483822 
L 51.888218 32.441621 
L 53.563894 19.984469 
L 55.239569 17.393477 
L 56.915245 24.935108 
L 58.590921 41.833769 
L 60.266596 66.351574 
L 61.942272 95.967075 
L 65.293623 158.097311 
L 66.969299 184.222476 
L 68.644975 203.323307 
L 70.32065 213.435444 
L 71.996326 213.518938 
L 73.672002 203.565204 
L 75.347677 184.597899 
L 77.023353 158.567651 
L 82.05038 66.802759 
L 83.726056 42.179465 
L 85.401731 25.139763 
L 87.077407 17.436043 
L 88.753083 19.860569 
L 90.428758 32.163998 
L 92.104434 53.081027 
L 93.78011 80.460514 
L 98.807137 171.669211 
L 100.482813 194.636253 
L 102.158488 209.507991 
L 103.834164 214.754992 
L 105.50984 209.837647 
L 107.185515 195.261663 
L 108.861191 172.526057 
L 110.536867 143.968995 
L 113.888218 81.434573 
L 115.563894 53.888351 
L 117.239569 32.721562 
L 118.915245 20.111031 
L 120.590921 17.353645 
L 122.266596 24.732979 
L 123.942272 41.490129 
L 125.617948 65.901765 
L 127.293623 95.457355 
L 130.644975 157.625802 
L 132.32065 183.845158 
L 133.996326 203.078984 
L 135.672002 213.349242 
L 137.347677 213.599724 
L 139.023353 203.804669 
L 140.699029 184.971416 
L 142.374704 159.036806 
L 147.401731 67.255308 
L 149.077407 42.527208 
L 150.753083 25.346937 
L 152.428758 17.481344 
L 154.104434 19.739337 
L 155.78011 31.8887 
L 157.455785 52.679975 
L 159.131461 79.974954 
L 164.158488 171.238462 
L 165.834164 194.320266 
L 167.50984 209.339264 
L 169.185515 214.750877 
L 170.861191 209.998567 
L 172.536867 195.571069 
L 174.212542 172.952129 
L 175.888218 144.467915 
L 179.239569 81.923045 
L 180.915245 54.294601 
L 182.590921 33.003811 
L 184.266596 20.240252 
L 185.942272 17.316549 
L 187.617948 24.53338 
L 189.293623 41.148556 
L 190.969299 65.453344 
L 192.644975 94.948202 
L 195.996326 157.153134 
L 197.672002 183.465954 
L 199.347677 202.832241 
L 201.023353 213.260336 
L 202.699029 213.677798 
L 204.374704 204.041694 
L 206.05038 185.343015 
L 207.726056 159.504765 
L 212.753083 67.709207 
L 214.428758 42.876988 
L 216.104434 25.556626 
L 217.78011 17.529376 
L 219.455785 19.620773 
L 221.131461 31.615735 
L 222.807137 52.280679 
L 224.482813 79.490392 
L 229.50984 170.806176 
L 231.185515 194.002103 
L 232.861191 209.167944 
L 234.536867 214.744018 
L 236.212542 210.156875 
L 237.888218 195.878264 
L 239.563894 173.376618 
L 241.239569 144.966043 
L 244.590921 82.412461 
L 246.266596 54.702563 
L 247.942272 33.288362 
L 249.617948 20.372129 
L 251.293623 17.28219 
L 252.969299 24.336319 
L 254.644975 40.809057 
L 256.32065 65.006324 
L 257.996326 94.439633 
L 261.347677 156.679322 
L 263.023353 183.084875 
L 264.699029 202.583086 
L 266.374704 213.168729 
L 268.05038 213.753159 
L 269.726056 204.276273 
L 271.401731 185.712688 
L 273.077407 159.971513 
L 278.104434 68.164445 
L 279.78011 43.228795 
L 281.455785 25.768823 
L 283.131461 17.58014 
L 284.807137 19.504883 
L 286.482813 31.345109 
L 288.158488 51.883149 
L 289.834164 79.006841 
L 294.861191 170.372367 
L 296.536867 193.681773 
L 298.212542 208.994035 
L 299.888218 214.734417 
L 301.563894 210.312568 
L 303.239569 196.183239 
L 304.915245 173.799512 
L 306.590921 145.463364 
L 309.942272 82.902807 
L 311.617948 55.112223 
L 313.293623 33.575207 
L 314.969299 20.506659 
L 316.644975 17.250569 
L 318.32065 24.141799 
L 319.996326 40.471644 
L 321.672002 64.560717 
L 323.347677 93.931659 
L 326.699029 156.204379 
L 328.374704 182.701932 
L 330.05038 202.331525 
L 331.726056 213.074422 
L 333.401731 213.825804 
L 335.077407 204.508399 
L 336.753083 186.080424 
L 338.428758 160.437039 
L 343.455785 68.621008 
L 345.131461 43.58262 
L 346.807137 25.983522 
L 348.482813 17.633633 
L 350.158488 19.391669 
L 351.834164 31.076831 
L 353.50984 51.487397 
L 355.185515 78.524314 
L 360.212542 169.937047 
L 361.888218 193.359284 
L 363.563894 208.817543 
L 365.239569 214.722073 
L 366.915245 210.465641 
L 368.590921 196.485987 
L 370.266596 174.220799 
L 371.942272 145.959866 
L 375.293623 83.394069 
L 376.969299 55.523571 
L 378.644975 33.864337 
L 380.32065 20.643837 
L 381.996326 17.221687 
L 383.672002 23.949827 
L 385.347677 40.136325 
L 387.023353 64.116535 
L 388.699029 93.424295 
L 392.05038 155.728317 
L 392.615625 164.697352 
L 392.615625 164.697352 
" style="fill:none;stroke:#2ca02c;stroke-linecap:square;stroke-width:1.5;"/>
   </g>
   <g id="line2d_20">
    <path clip-path="url(#p9b22c7dc3c)" d="M 38.482813 35.959701 
L 40.158488 39.853583 
L 41.834164 51.155982 
L 43.50984 68.766097 
L 45.185515 90.968784 
L 48.536867 140.265434 
L 50.212542 162.558132 
L 51.888218 180.308491 
L 53.563894 191.787709 
L 55.239569 195.877762 
L 56.915245 192.180299 
L 58.590921 181.055435 
L 60.266596 163.586681 
L 61.942272 141.475413 
L 65.293623 92.181889 
L 66.969299 69.800594 
L 68.644975 51.911117 
L 70.32065 40.255809 
L 71.996326 35.969843 
L 73.672002 39.470653 
L 75.347677 50.417276 
L 77.023353 67.743561 
L 78.699029 89.762009 
L 82.05038 139.04928 
L 83.726056 161.517751 
L 85.401731 179.545212 
L 87.077407 191.375872 
L 88.753083 195.857478 
L 90.428758 192.553543 
L 92.104434 181.785856 
L 93.78011 164.603138 
L 95.455785 142.678908 
L 98.807137 93.401016 
L 100.482813 70.846792 
L 102.158488 52.682491 
L 103.834164 40.67723 
L 105.50984 36.000268 
L 107.185515 39.107118 
L 108.861191 49.695187 
L 110.536867 66.733247 
L 112.212542 88.561869 
L 117.239569 160.465803 
L 118.915245 178.765792 
L 120.590921 190.944892 
L 122.266596 195.816915 
L 123.942272 192.907346 
L 125.617948 182.499567 
L 127.293623 165.607245 
L 128.969299 143.875615 
L 133.996326 71.904424 
L 135.672002 53.469907 
L 137.347677 41.11774 
L 139.023353 36.050967 
L 140.699029 38.763069 
L 142.374704 48.989899 
L 144.05038 65.735411 
L 145.726056 87.368671 
L 150.753083 159.402554 
L 152.428758 177.97043 
L 154.104434 190.49488 
L 155.78011 195.756082 
L 157.455785 193.241619 
L 159.131461 183.196387 
L 160.807137 166.598746 
L 162.482813 145.06523 
L 167.50984 72.973223 
L 169.185515 54.273166 
L 170.861191 41.577226 
L 172.536867 36.121928 
L 174.212542 38.438594 
L 175.888218 48.30159 
L 177.563894 64.750307 
L 179.239569 86.182715 
L 184.266596 158.328274 
L 185.942272 177.159325 
L 187.617948 190.02595 
L 189.293623 195.674997 
L 190.969299 193.556276 
L 192.644975 183.876141 
L 194.32065 167.577392 
L 195.996326 146.247451 
L 201.023353 74.052916 
L 202.699029 55.092064 
L 204.374704 42.055572 
L 206.05038 36.213133 
L 207.726056 38.133775 
L 209.401731 47.630435 
L 211.077407 63.778183 
L 212.753083 85.004303 
L 217.78011 157.243236 
L 219.455785 176.332686 
L 221.131461 189.538219 
L 222.807137 195.573679 
L 224.482813 193.851238 
L 226.158488 184.538655 
L 227.834164 168.542932 
L 229.50984 147.421979 
L 234.536867 75.143231 
L 236.212542 55.926393 
L 237.888218 42.552656 
L 239.563894 36.324558 
L 241.239569 37.848689 
L 242.915245 46.976604 
L 244.590921 62.819287 
L 246.266596 83.833735 
L 251.293623 156.147714 
L 252.969299 175.49072 
L 254.644975 189.031813 
L 256.32065 195.452154 
L 257.996326 194.12643 
L 259.672002 185.183761 
L 261.347677 169.495123 
L 263.023353 148.588514 
L 268.05038 76.24389 
L 269.726056 56.775942 
L 271.401731 43.068352 
L 273.077407 36.456176 
L 274.753083 37.583409 
L 276.428758 46.340263 
L 278.104434 61.873862 
L 279.78011 82.671306 
L 284.807137 155.041987 
L 286.482813 174.633642 
L 288.158488 188.506859 
L 289.834164 195.310452 
L 291.50984 194.381782 
L 293.185515 185.811296 
L 294.861191 170.433722 
L 296.536867 149.746763 
L 301.563894 77.354614 
L 303.239569 57.640495 
L 304.915245 43.60253 
L 306.590921 36.607952 
L 308.266596 37.338001 
L 309.942272 45.721574 
L 311.617948 60.942148 
L 313.293623 81.517311 
L 318.32065 153.926336 
L 319.996326 173.761669 
L 321.672002 187.963491 
L 323.347677 195.14861 
L 325.023353 194.617229 
L 326.699029 186.421101 
L 328.374704 171.358492 
L 330.05038 150.89643 
L 335.077407 78.475122 
L 336.753083 58.519832 
L 338.428758 44.155054 
L 340.104434 36.779849 
L 341.78011 37.112529 
L 343.455785 45.120693 
L 345.131461 60.024381 
L 346.807137 80.372045 
L 351.834164 152.801043 
L 353.50984 172.875023 
L 355.185515 187.401847 
L 356.861191 194.966669 
L 358.536867 194.832711 
L 360.212542 187.01302 
L 361.888218 172.269198 
L 363.563894 152.037223 
L 368.590921 79.605129 
L 370.266596 59.413732 
L 371.942272 44.725783 
L 373.617948 36.971823 
L 375.293623 36.90705 
L 376.969299 44.537773 
L 378.644975 59.120794 
L 380.32065 79.235796 
L 385.347677 151.666393 
L 387.023353 171.973927 
L 388.699029 186.822068 
L 390.374704 194.764675 
L 392.05038 195.028175 
L 392.615625 192.518059 
L 392.615625 192.518059 
" style="fill:none;stroke:#d62728;stroke-linecap:square;stroke-width:1.5;"/>
   </g>
   <g id="line2d_21">
    <path clip-path="url(#p9b22c7dc3c)" d="M 38.482813 146.462116 
L 40.158488 144.95179 
L 41.834164 140.570186 
L 43.50984 133.75065 
L 45.185515 125.167641 
L 48.536867 106.197141 
L 50.212542 97.685854 
L 51.888218 90.977946 
L 53.563894 86.736836 
L 55.239569 85.381975 
L 56.915245 87.04736 
L 58.590921 91.568284 
L 60.266596 98.497621 
L 61.942272 107.150052 
L 65.293623 126.115469 
L 66.969299 134.552753 
L 68.644975 141.147237 
L 70.32065 145.246717 
L 71.996326 146.44575 
L 73.672002 144.62575 
L 75.347677 139.966718 
L 77.023353 132.929437 
L 78.699029 124.209903 
L 82.05038 105.25465 
L 83.726056 96.893628 
L 85.401731 90.414337 
L 87.077407 86.457586 
L 88.753083 85.414702 
L 90.428758 87.388828 
L 92.104434 92.18472 
L 93.78011 99.328059 
L 95.455785 108.112361 
L 98.807137 127.05237 
L 100.482813 135.334889 
L 102.158488 141.697252 
L 103.834164 145.510215 
L 105.50984 146.39667 
L 107.185515 144.268947 
L 108.861191 139.33748 
L 110.536867 132.089996 
L 112.212542 123.243281 
L 115.563894 104.323589 
L 117.239569 96.121793 
L 118.915245 89.878063 
L 120.590921 86.20991 
L 122.266596 85.480121 
L 123.942272 87.760871 
L 125.617948 92.826592 
L 127.293623 100.176278 
L 128.969299 109.083037 
L 132.32065 127.977341 
L 133.996326 136.096218 
L 135.672002 142.219642 
L 137.347677 145.742001 
L 139.023353 146.314929 
L 140.699029 143.881763 
L 142.374704 138.683145 
L 144.05038 131.233226 
L 145.726056 122.26881 
L 149.077407 103.404956 
L 150.753083 95.371175 
L 152.428758 89.369697 
L 154.104434 85.994075 
L 155.78011 85.578162 
L 157.455785 88.163092 
L 159.131461 93.493213 
L 160.807137 101.04137 
L 164.158488 119.660169 
L 165.834164 128.889391 
L 167.50984 136.835924 
L 169.185515 142.713847 
L 170.861191 145.941828 
L 172.536867 146.200615 
L 174.212542 143.464613 
L 175.888218 138.004416 
L 177.563894 130.360044 
L 180.915245 111.684171 
L 182.590921 102.499735 
L 184.266596 94.642579 
L 185.942272 88.889784 
L 187.617948 85.81031 
L 189.293623 85.708719 
L 190.969299 88.59506 
L 192.644975 94.183869 
L 194.32065 101.922407 
L 199.347677 129.787541 
L 201.023353 137.553215 
L 202.699029 143.179338 
L 204.374704 146.109481 
L 206.05038 146.053849 
L 207.726056 143.017943 
L 209.401731 137.302019 
L 211.077407 129.471388 
L 216.104434 101.608896 
L 217.78011 93.936785 
L 219.455785 88.43884 
L 221.131461 85.658814 
L 222.807137 85.871654 
L 224.482813 89.056311 
L 226.158488 94.897819 
L 227.834164 102.818445 
L 232.861191 130.67083 
L 234.536867 138.247322 
L 236.212542 143.615616 
L 237.888218 146.244781 
L 239.563894 145.874789 
L 241.239569 142.542233 
L 242.915245 136.576707 
L 244.590921 128.568209 
L 249.617948 100.733394 
L 251.293623 93.254551 
L 252.969299 88.017346 
L 254.644975 85.539747 
L 256.32065 86.066791 
L 257.996326 89.546352 
L 259.672002 95.634298 
L 261.347677 103.728523 
L 266.374704 131.53831 
L 268.05038 138.917501 
L 269.726056 144.022212 
L 271.401731 146.347582 
L 273.077407 145.663627 
L 274.753083 142.037993 
L 276.428758 135.829258 
L 278.104434 127.651475 
L 283.131461 99.874168 
L 284.807137 92.596606 
L 286.482813 87.625756 
L 288.158488 85.453239 
L 289.834164 86.293921 
L 291.50984 90.064657 
L 293.185515 96.392517 
L 294.861191 104.651667 
L 299.888218 132.389053 
L 301.563894 139.563034 
L 303.239569 144.398692 
L 304.915245 146.417774 
L 306.590921 145.42059 
L 308.266596 141.505762 
L 309.942272 135.060473 
L 311.617948 126.722168 
L 316.644975 99.032137 
L 318.32065 91.963657 
L 319.996326 87.264487 
L 321.672002 85.399382 
L 323.347677 86.552801 
L 325.023353 90.610671 
L 326.699029 97.171663 
L 328.374704 105.586887 
L 331.726056 124.549859 
L 333.401731 133.222146 
L 335.077407 140.18323 
L 336.753083 144.744652 
L 338.428758 146.455282 
L 340.104434 145.145937 
L 341.78011 140.946112 
L 343.455785 134.271175 
L 345.131461 125.781285 
L 348.482813 106.811745 
L 350.158488 98.208205 
L 351.834164 91.356381 
L 353.50984 86.933929 
L 355.185515 85.378233 
L 356.861191 86.843153 
L 358.536867 91.183808 
L 360.212542 97.970901 
L 361.888218 106.533181 
L 365.239569 125.504207 
L 366.915245 134.036696 
L 368.590921 140.777423 
L 370.266596 145.059721 
L 371.942272 146.460066 
L 373.617948 144.839963 
L 375.293623 140.359642 
L 376.969299 133.462211 
L 378.644975 124.829834 
L 381.996326 105.862405 
L 383.672002 97.403254 
L 385.347677 90.77543 
L 387.023353 86.634434 
L 388.699029 85.389815 
L 390.374704 87.164666 
L 392.05038 91.783454 
L 392.615625 94.146717 
L 392.615625 94.146717 
" style="fill:none;stroke:#9467bd;stroke-linecap:square;stroke-width:1.5;"/>
   </g>
   <g id="patch_3">
    <path d="M 38.482813 224.64 
L 38.482813 7.2 
" style="fill:none;stroke:#000000;stroke-linecap:square;stroke-linejoin:miter;stroke-width:0.8;"/>
   </g>
   <g id="patch_4">
    <path d="M 373.282813 224.64 
L 373.282813 7.2 
" style="fill:none;stroke:#000000;stroke-linecap:square;stroke-linejoin:miter;stroke-width:0.8;"/>
   </g>
   <g id="patch_5">
    <path d="M 38.482813 224.64 
L 373.282813 224.64 
" style="fill:none;stroke:#000000;stroke-linecap:square;stroke-linejoin:miter;stroke-width:0.8;"/>
   </g>
   <g id="patch_6">
    <path d="M 38.482813 7.2 
L 373.282813 7.2 
" style="fill:none;stroke:#000000;stroke-linecap:square;stroke-linejoin:miter;stroke-width:0.8;"/>
   </g>
  </g>
 </g>
 <defs>
  <clipPath id="p9b22c7dc3c">
   <rect height="217.44" width="334.8" x="38.482813" y="7.2"/>
  </clipPath>
 </defs>
</svg>
