<?xml version="1.0" encoding="utf-8" standalone="no"?>
<!DOCTYPE svg PUBLIC "-//W3C//DTD SVG 1.1//EN"
  "http://www.w3.org/Graphics/SVG/1.1/DTD/svg11.dtd">
<!-- Created with matplotlib (https://matplotlib.org/) -->
<svg height="248.518125pt" version="1.1" viewBox="0 0 386.845313 248.518125" width="386.845313pt" xmlns="http://www.w3.org/2000/svg" xmlns:xlink="http://www.w3.org/1999/xlink">
 <metadata>
  <rdf:RDF xmlns:cc="http://creativecommons.org/ns#" xmlns:dc="http://purl.org/dc/elements/1.1/" xmlns:rdf="http://www.w3.org/1999/02/22-rdf-syntax-ns#">
   <cc:Work>
    <dc:type rdf:resource="http://purl.org/dc/dcmitype/StillImage"/>
    <dc:date>2021-10-24T17:01:41.806053</dc:date>
    <dc:format>image/svg+xml</dc:format>
    <dc:creator>
     <cc:Agent>
      <dc:title>Matplotlib v3.3.4, https://matplotlib.org/</dc:title>
     </cc:Agent>
    </dc:creator>
   </cc:Work>
  </rdf:RDF>
 </metadata>
 <defs>
  <style type="text/css">*{stroke-linecap:butt;stroke-linejoin:round;}</style>
 </defs>
 <g id="figure_1">
  <g id="patch_1">
   <path d="M 0 248.518125 
L 386.845313 248.518125 
L 386.845313 0 
L 0 0 
z
" style="fill:none;"/>
  </g>
  <g id="axes_1">
   <g id="patch_2">
    <path d="M 44.845313 224.64 
L 379.645313 224.64 
L 379.645313 7.2 
L 44.845313 7.2 
z
" style="fill:#ffffff;"/>
   </g>
   <g id="matplotlib.axis_1">
    <g id="xtick_1">
     <g id="line2d_1">
      <defs>
       <path d="M 0 0 
L 0 3.5 
" id="m0465c954c5" style="stroke:#000000;stroke-width:0.8;"/>
      </defs>
      <g>
       <use style="stroke:#000000;stroke-width:0.8;" x="67.874219" xlink:href="#m0465c954c5" y="224.64"/>
      </g>
     </g>
     <g id="text_1">
      <!-- −0.6 -->
      <g transform="translate(55.732813 239.238437)scale(0.1 -0.1)">
       <defs>
        <path d="M 10.59375 35.5 
L 73.1875 35.5 
L 73.1875 27.203125 
L 10.59375 27.203125 
z
" id="DejaVuSans-8722"/>
        <path d="M 31.78125 66.40625 
Q 24.171875 66.40625 20.328125 58.90625 
Q 16.5 51.421875 16.5 36.375 
Q 16.5 21.390625 20.328125 13.890625 
Q 24.171875 6.390625 31.78125 6.390625 
Q 39.453125 6.390625 43.28125 13.890625 
Q 47.125 21.390625 47.125 36.375 
Q 47.125 51.421875 43.28125 58.90625 
Q 39.453125 66.40625 31.78125 66.40625 
z
M 31.78125 74.21875 
Q 44.046875 74.21875 50.515625 64.515625 
Q 56.984375 54.828125 56.984375 36.375 
Q 56.984375 17.96875 50.515625 8.265625 
Q 44.046875 -1.421875 31.78125 -1.421875 
Q 19.53125 -1.421875 13.0625 8.265625 
Q 6.59375 17.96875 6.59375 36.375 
Q 6.59375 54.828125 13.0625 64.515625 
Q 19.53125 74.21875 31.78125 74.21875 
z
" id="DejaVuSans-48"/>
        <path d="M 10.6875 12.40625 
L 21 12.40625 
L 21 0 
L 10.6875 0 
z
" id="DejaVuSans-46"/>
        <path d="M 33.015625 40.375 
Q 26.375 40.375 22.484375 35.828125 
Q 18.609375 31.296875 18.609375 23.390625 
Q 18.609375 15.53125 22.484375 10.953125 
Q 26.375 6.390625 33.015625 6.390625 
Q 39.65625 6.390625 43.53125 10.953125 
Q 47.40625 15.53125 47.40625 23.390625 
Q 47.40625 31.296875 43.53125 35.828125 
Q 39.65625 40.375 33.015625 40.375 
z
M 52.59375 71.296875 
L 52.59375 62.3125 
Q 48.875 64.0625 45.09375 64.984375 
Q 41.3125 65.921875 37.59375 65.921875 
Q 27.828125 65.921875 22.671875 59.328125 
Q 17.53125 52.734375 16.796875 39.40625 
Q 19.671875 43.65625 24.015625 45.921875 
Q 28.375 48.1875 33.59375 48.1875 
Q 44.578125 48.1875 50.953125 41.515625 
Q 57.328125 34.859375 57.328125 23.390625 
Q 57.328125 12.15625 50.6875 5.359375 
Q 44.046875 -1.421875 33.015625 -1.421875 
Q 20.359375 -1.421875 13.671875 8.265625 
Q 6.984375 17.96875 6.984375 36.375 
Q 6.984375 53.65625 15.1875 63.9375 
Q 23.390625 74.21875 37.203125 74.21875 
Q 40.921875 74.21875 44.703125 73.484375 
Q 48.484375 72.75 52.59375 71.296875 
z
" id="DejaVuSans-54"/>
       </defs>
       <use xlink:href="#DejaVuSans-8722"/>
       <use x="83.789062" xlink:href="#DejaVuSans-48"/>
       <use x="147.412109" xlink:href="#DejaVuSans-46"/>
       <use x="179.199219" xlink:href="#DejaVuSans-54"/>
      </g>
     </g>
    </g>
    <g id="xtick_2">
     <g id="line2d_2">
      <g>
       <use style="stroke:#000000;stroke-width:0.8;" x="116.006077" xlink:href="#m0465c954c5" y="224.64"/>
      </g>
     </g>
     <g id="text_2">
      <!-- −0.4 -->
      <g transform="translate(103.864671 239.238437)scale(0.1 -0.1)">
       <defs>
        <path d="M 37.796875 64.3125 
L 12.890625 25.390625 
L 37.796875 25.390625 
z
M 35.203125 72.90625 
L 47.609375 72.90625 
L 47.609375 25.390625 
L 58.015625 25.390625 
L 58.015625 17.1875 
L 47.609375 17.1875 
L 47.609375 0 
L 37.796875 0 
L 37.796875 17.1875 
L 4.890625 17.1875 
L 4.890625 26.703125 
z
" id="DejaVuSans-52"/>
       </defs>
       <use xlink:href="#DejaVuSans-8722"/>
       <use x="83.789062" xlink:href="#DejaVuSans-48"/>
       <use x="147.412109" xlink:href="#DejaVuSans-46"/>
       <use x="179.199219" xlink:href="#DejaVuSans-52"/>
      </g>
     </g>
    </g>
    <g id="xtick_3">
     <g id="line2d_3">
      <g>
       <use style="stroke:#000000;stroke-width:0.8;" x="164.137934" xlink:href="#m0465c954c5" y="224.64"/>
      </g>
     </g>
     <g id="text_3">
      <!-- −0.2 -->
      <g transform="translate(151.996528 239.238437)scale(0.1 -0.1)">
       <defs>
        <path d="M 19.1875 8.296875 
L 53.609375 8.296875 
L 53.609375 0 
L 7.328125 0 
L 7.328125 8.296875 
Q 12.9375 14.109375 22.625 23.890625 
Q 32.328125 33.6875 34.8125 36.53125 
Q 39.546875 41.84375 41.421875 45.53125 
Q 43.3125 49.21875 43.3125 52.78125 
Q 43.3125 58.59375 39.234375 62.25 
Q 35.15625 65.921875 28.609375 65.921875 
Q 23.96875 65.921875 18.8125 64.3125 
Q 13.671875 62.703125 7.8125 59.421875 
L 7.8125 69.390625 
Q 13.765625 71.78125 18.9375 73 
Q 24.125 74.21875 28.421875 74.21875 
Q 39.75 74.21875 46.484375 68.546875 
Q 53.21875 62.890625 53.21875 53.421875 
Q 53.21875 48.921875 51.53125 44.890625 
Q 49.859375 40.875 45.40625 35.40625 
Q 44.1875 33.984375 37.640625 27.21875 
Q 31.109375 20.453125 19.1875 8.296875 
z
" id="DejaVuSans-50"/>
       </defs>
       <use xlink:href="#DejaVuSans-8722"/>
       <use x="83.789062" xlink:href="#DejaVuSans-48"/>
       <use x="147.412109" xlink:href="#DejaVuSans-46"/>
       <use x="179.199219" xlink:href="#DejaVuSans-50"/>
      </g>
     </g>
    </g>
    <g id="xtick_4">
     <g id="line2d_4">
      <g>
       <use style="stroke:#000000;stroke-width:0.8;" x="212.269791" xlink:href="#m0465c954c5" y="224.64"/>
      </g>
     </g>
     <g id="text_4">
      <!-- 0.0 -->
      <g transform="translate(204.318229 239.238437)scale(0.1 -0.1)">
       <use xlink:href="#DejaVuSans-48"/>
       <use x="63.623047" xlink:href="#DejaVuSans-46"/>
       <use x="95.410156" xlink:href="#DejaVuSans-48"/>
      </g>
     </g>
    </g>
    <g id="xtick_5">
     <g id="line2d_5">
      <g>
       <use style="stroke:#000000;stroke-width:0.8;" x="260.401649" xlink:href="#m0465c954c5" y="224.64"/>
      </g>
     </g>
     <g id="text_5">
      <!-- 0.2 -->
      <g transform="translate(252.450086 239.238437)scale(0.1 -0.1)">
       <use xlink:href="#DejaVuSans-48"/>
       <use x="63.623047" xlink:href="#DejaVuSans-46"/>
       <use x="95.410156" xlink:href="#DejaVuSans-50"/>
      </g>
     </g>
    </g>
    <g id="xtick_6">
     <g id="line2d_6">
      <g>
       <use style="stroke:#000000;stroke-width:0.8;" x="308.533506" xlink:href="#m0465c954c5" y="224.64"/>
      </g>
     </g>
     <g id="text_6">
      <!-- 0.4 -->
      <g transform="translate(300.581943 239.238437)scale(0.1 -0.1)">
       <use xlink:href="#DejaVuSans-48"/>
       <use x="63.623047" xlink:href="#DejaVuSans-46"/>
       <use x="95.410156" xlink:href="#DejaVuSans-52"/>
      </g>
     </g>
    </g>
    <g id="xtick_7">
     <g id="line2d_7">
      <g>
       <use style="stroke:#000000;stroke-width:0.8;" x="356.665363" xlink:href="#m0465c954c5" y="224.64"/>
      </g>
     </g>
     <g id="text_7">
      <!-- 0.6 -->
      <g transform="translate(348.713801 239.238437)scale(0.1 -0.1)">
       <use xlink:href="#DejaVuSans-48"/>
       <use x="63.623047" xlink:href="#DejaVuSans-46"/>
       <use x="95.410156" xlink:href="#DejaVuSans-54"/>
      </g>
     </g>
    </g>
   </g>
   <g id="matplotlib.axis_2">
    <g id="ytick_1">
     <g id="line2d_8">
      <defs>
       <path d="M 0 0 
L -3.5 0 
" id="mc4056310dd" style="stroke:#000000;stroke-width:0.8;"/>
      </defs>
      <g>
       <use style="stroke:#000000;stroke-width:0.8;" x="44.845313" xlink:href="#mc4056310dd" y="194.989091"/>
      </g>
     </g>
     <g id="text_8">
      <!-- −0.04 -->
      <g transform="translate(7.2 198.78831)scale(0.1 -0.1)">
       <use xlink:href="#DejaVuSans-8722"/>
       <use x="83.789062" xlink:href="#DejaVuSans-48"/>
       <use x="147.412109" xlink:href="#DejaVuSans-46"/>
       <use x="179.199219" xlink:href="#DejaVuSans-48"/>
       <use x="242.822266" xlink:href="#DejaVuSans-52"/>
      </g>
     </g>
    </g>
    <g id="ytick_2">
     <g id="line2d_9">
      <g>
       <use style="stroke:#000000;stroke-width:0.8;" x="44.845313" xlink:href="#mc4056310dd" y="155.454545"/>
      </g>
     </g>
     <g id="text_9">
      <!-- −0.02 -->
      <g transform="translate(7.2 159.253764)scale(0.1 -0.1)">
       <use xlink:href="#DejaVuSans-8722"/>
       <use x="83.789062" xlink:href="#DejaVuSans-48"/>
       <use x="147.412109" xlink:href="#DejaVuSans-46"/>
       <use x="179.199219" xlink:href="#DejaVuSans-48"/>
       <use x="242.822266" xlink:href="#DejaVuSans-50"/>
      </g>
     </g>
    </g>
    <g id="ytick_3">
     <g id="line2d_10">
      <g>
       <use style="stroke:#000000;stroke-width:0.8;" x="44.845313" xlink:href="#mc4056310dd" y="115.92"/>
      </g>
     </g>
     <g id="text_10">
      <!-- 0.00 -->
      <g transform="translate(15.579688 119.719219)scale(0.1 -0.1)">
       <use xlink:href="#DejaVuSans-48"/>
       <use x="63.623047" xlink:href="#DejaVuSans-46"/>
       <use x="95.410156" xlink:href="#DejaVuSans-48"/>
       <use x="159.033203" xlink:href="#DejaVuSans-48"/>
      </g>
     </g>
    </g>
    <g id="ytick_4">
     <g id="line2d_11">
      <g>
       <use style="stroke:#000000;stroke-width:0.8;" x="44.845313" xlink:href="#mc4056310dd" y="76.385455"/>
      </g>
     </g>
     <g id="text_11">
      <!-- 0.02 -->
      <g transform="translate(15.579688 80.184673)scale(0.1 -0.1)">
       <use xlink:href="#DejaVuSans-48"/>
       <use x="63.623047" xlink:href="#DejaVuSans-46"/>
       <use x="95.410156" xlink:href="#DejaVuSans-48"/>
       <use x="159.033203" xlink:href="#DejaVuSans-50"/>
      </g>
     </g>
    </g>
    <g id="ytick_5">
     <g id="line2d_12">
      <g>
       <use style="stroke:#000000;stroke-width:0.8;" x="44.845313" xlink:href="#mc4056310dd" y="36.850909"/>
      </g>
     </g>
     <g id="text_12">
      <!-- 0.04 -->
      <g transform="translate(15.579688 40.650128)scale(0.1 -0.1)">
       <use xlink:href="#DejaVuSans-48"/>
       <use x="63.623047" xlink:href="#DejaVuSans-46"/>
       <use x="95.410156" xlink:href="#DejaVuSans-48"/>
       <use x="159.033203" xlink:href="#DejaVuSans-52"/>
      </g>
     </g>
    </g>
   </g>
   <g id="line2d_13">
    <path clip-path="url(#p69d967690f)" d="M 165.235459 115.92 
L 172.446543 115.92 
L 191.868657 115.92 
L 217.546385 115.92 
L 241.606146 115.92 
L 256.670482 115.92 
L 258.120204 115.92 
L 245.510783 115.92 
L 222.708654 115.92 
L 196.70565 115.92 
L 175.475089 115.92 
L 165.526912 115.92 
L 169.911536 115.92 
L 187.2845 115.92 
L 212.318721 115.92 
L 237.337938 115.92 
L 254.670493 115.92 
L 259.001692 115.92 
L 249.003457 115.92 
L 227.741553 115.92 
L 201.735533 115.92 
L 178.959639 115.92 
L 166.39766 115.92 
L 167.901483 115.92 
L 183.00999 115.92 
L 207.09045 115.92 
L 232.759055 115.92 
L 252.145023 115.92 
L 259.304022 115.92 
L 252.040883 115.92 
L 232.582707 115.92 
L 206.895969 115.92 
L 182.857009 115.92 
L 167.83691 115.92 
L 166.441296 115.92 
L 179.098104 115.92 
L 201.926369 115.92 
L 227.926244 115.92 
L 249.125371 115.92 
L 259.023447 115.92 
L 254.585417 115.92 
L 237.172119 115.92 
L 212.123003 115.92 
L 187.118897 115.92 
L 169.826827 115.92 
L 165.549071 115.92 
L 175.597321 115.92 
L 196.890476 115.92 
L 222.8994 115.92 
L 245.64896 115.92 
" style="fill:none;stroke:#1f77b4;stroke-linecap:square;stroke-width:1.5;"/>
   </g>
   <g id="line2d_14">
    <path clip-path="url(#p69d967690f)" d="M 335.407272 115.92 
L 323.769444 115.92 
L 291.055762 115.92 
L 243.449822 115.92 
L 189.950179 115.92 
L 140.669428 115.92 
L 104.922698 115.92 
L 89.466899 115.92 
L 97.223512 115.92 
L 126.726368 115.92 
L 172.398787 115.92 
L 225.607692 115.92 
L 276.295443 115.92 
L 314.880957 115.92 
L 334.070734 115.92 
L 330.23749 115.92 
L 304.10579 115.92 
L 260.615094 115.92 
L 207.986087 115.92 
L 156.166792 115.92 
L 114.952182 115.92 
L 92.132712 115.92 
L 92.021757 115.92 
L 114.64029 115.92 
L 155.712917 115.92 
L 207.476021 115.92 
L 260.145252 115.92 
L 303.764981 115.92 
L 330.090134 115.92 
L 334.144686 115.92 
L 315.162237 115.92 
L 276.730884 115.92 
L 226.114985 115.92 
L 172.882044 115.92 
L 127.094242 115.92 
L 97.406467 115.92 
L 89.430353 115.92 
L 104.673559 115.92 
L 140.254787 115.92 
L 189.448414 115.92 
L 242.955777 115.92 
L 290.662822 115.92 
L 323.551883 115.92 
L 335.406214 115.92 
L 323.985089 115.92 
L 291.447348 115.92 
L 243.943331 115.92 
L 190.452327 115.92 
L 141.085298 115.92 
L 105.173682 115.92 
" style="fill:none;stroke:#ff7f0e;stroke-linecap:square;stroke-width:1.5;"/>
   </g>
   <g id="line2d_15">
    <path clip-path="url(#p69d967690f)" d="M 60.063494 115.92 
L 66.13043 115.92 
L 83.84758 115.92 
L 111.802536 115.92 
L 147.766732 115.92 
L 188.873105 115.92 
L 231.844659 115.92 
L 273.255707 115.92 
L 309.804964 115.92 
L 338.578727 115.92 
L 357.283154 115.92 
L 364.427131 115.92 
L 359.441139 115.92 
L 342.722663 115.92 
L 315.604497 115.92 
L 280.248499 115.92 
L 239.473245 115.92 
L 196.529334 115.92 
L 154.840251 115.92 
L 117.729445 115.92 
L 88.155386 115.92 
L 68.475715 115.92 
L 60.259293 115.92 
L 64.161133 115.92 
L 79.87018 115.92 
L 106.134111 115.92 
L 140.859167 115.92 
L 181.277071 115.92 
L 224.165712 115.92 
L 266.106011 115.92 
L 303.754492 115.92 
L 334.109822 115.92 
L 354.752077 115.92 
L 364.035659 115.92 
L 361.220481 115.92 
L 346.530969 115.92 
L 321.138169 115.92 
L 287.066394 115.92 
L 247.03184 115.92 
L 204.22606 115.92 
L 162.061525 115.92 
L 123.899589 115.92 
L 92.782515 115.92 
L 71.190956 115.92 
L 60.846187 115.92 
L 62.572892 115.92 
L 76.233419 115.92 
L 100.738752 115.92 
L 134.135328 115.92 
L 173.760776 115.92 
" style="fill:none;stroke:#2ca02c;stroke-linecap:square;stroke-width:1.5;"/>
   </g>
   <g id="line2d_16">
    <path clip-path="url(#p69d967690f)" d="M 335.407272 115.92 
L 334.72159 115.92 
L 332.672179 115.92 
L 329.281865 115.92 
L 324.588403 115.92 
L 318.644065 115.92 
L 311.515052 115.92 
L 303.280758 115.92 
L 294.032889 115.92 
L 283.874435 115.92 
L 272.918531 115.92 
L 261.28719 115.92 
L 249.10995 115.92 
L 236.522426 115.92 
L 223.664803 115.92 
L 210.680276 115.92 
L 197.713452 115.92 
L 184.908739 115.92 
L 172.408742 115.92 
L 160.352673 115.92 
L 148.874796 115.92 
L 138.102941 115.92 
L 128.157072 115.92 
L 119.147953 115.92 
L 111.17592 115.92 
L 104.329754 115.92 
L 98.685702 115.92 
L 94.306619 115.92 
L 91.241275 115.92 
L 89.523809 115.92 
L 89.173347 115.92 
L 90.193792 115.92 
L 92.573781 115.92 
L 96.286807 115.92 
L 101.291519 115.92 
L 107.532181 115.92 
L 114.93929 115.92 
L 123.430355 115.92 
L 132.910812 115.92 
L 143.275079 115.92 
L 154.40773 115.92 
L 166.184783 115.92 
L 178.475078 115.92 
L 191.14174 115.92 
L 204.043702 115.92 
L 217.037277 115.92 
L 229.977756 115.92 
L 242.721025 115.92 
L 255.125163 115.92 
L 267.052027 115.92 
" style="fill:none;stroke:#d62728;stroke-linecap:square;stroke-width:1.5;"/>
   </g>
   <g id="line2d_17">
    <path clip-path="url(#p69d967690f)" d="M 165.235459 115.92 
L 165.800706 115.92 
L 167.482862 115.92 
L 170.241494 115.92 
L 174.010298 115.92 
L 178.698689 115.92 
L 184.193978 115.92 
L 190.364084 115.92 
L 197.060705 115.92 
L 204.122884 115.92 
L 211.380879 115.92 
L 218.660238 115.92 
L 225.786 115.92 
L 232.586893 115.92 
L 238.899454 115.92 
L 244.571958 115.92 
L 249.468062 115.92 
L 253.470087 115.92 
L 256.481841 115.92 
L 258.430936 115.92 
L 259.270524 115.92 
L 258.980426 115.92 
L 257.567613 115.92 
L 255.066044 115.92 
L 251.535845 115.92 
L 247.061866 115.92 
L 241.751642 115.92 
L 235.732806 115.92 
L 229.150025 115.92 
L 222.161519 115.92 
L 214.93526 115.92 
L 207.644935 115.92 
L 200.46577 115.92 
L 193.570322 115.92 
L 187.124325 115.92 
L 181.282712 115.92 
L 176.185889 115.92 
L 171.956362 115.92 
L 168.695789 115.92 
L 166.482539 115.92 
L 165.369809 115.92 
L 165.384345 115.92 
L 166.525796 115.92 
L 168.766727 115.92 
L 172.053278 115.92 
L 176.306452 115.92 
L 181.424025 115.92 
L 187.282991 115.92 
L 193.742527 115.92 
L 200.647376 115.92 
" style="fill:none;stroke:#9467bd;stroke-linecap:square;stroke-width:1.5;"/>
   </g>
   <g id="patch_3">
    <path d="M 44.845313 224.64 
L 44.845313 7.2 
" style="fill:none;stroke:#000000;stroke-linecap:square;stroke-linejoin:miter;stroke-width:0.8;"/>
   </g>
   <g id="patch_4">
    <path d="M 379.645313 224.64 
L 379.645313 7.2 
" style="fill:none;stroke:#000000;stroke-linecap:square;stroke-linejoin:miter;stroke-width:0.8;"/>
   </g>
   <g id="patch_5">
    <path d="M 44.845313 224.64 
L 379.645313 224.64 
" style="fill:none;stroke:#000000;stroke-linecap:square;stroke-linejoin:miter;stroke-width:0.8;"/>
   </g>
   <g id="patch_6">
    <path d="M 44.845313 7.2 
L 379.645313 7.2 
" style="fill:none;stroke:#000000;stroke-linecap:square;stroke-linejoin:miter;stroke-width:0.8;"/>
   </g>
  </g>
 </g>
 <defs>
  <clipPath id="p69d967690f">
   <rect height="217.44" width="334.8" x="44.845313" y="7.2"/>
  </clipPath>
 </defs>
</svg>
