<?xml version="1.0" encoding="utf-8" standalone="no"?>
<!DOCTYPE svg PUBLIC "-//W3C//DTD SVG 1.1//EN"
  "http://www.w3.org/Graphics/SVG/1.1/DTD/svg11.dtd">
<!-- Created with matplotlib (https://matplotlib.org/) -->
<svg height="248.518125pt" version="1.1" viewBox="0 0 386.845313 248.518125" width="386.845313pt" xmlns="http://www.w3.org/2000/svg" xmlns:xlink="http://www.w3.org/1999/xlink">
 <metadata>
  <rdf:RDF xmlns:cc="http://creativecommons.org/ns#" xmlns:dc="http://purl.org/dc/elements/1.1/" xmlns:rdf="http://www.w3.org/1999/02/22-rdf-syntax-ns#">
   <cc:Work>
    <dc:type rdf:resource="http://purl.org/dc/dcmitype/StillImage"/>
    <dc:date>2021-10-25T18:11:21.878873</dc:date>
    <dc:format>image/svg+xml</dc:format>
    <dc:creator>
     <cc:Agent>
      <dc:title>Matplotlib v3.3.4, https://matplotlib.org/</dc:title>
     </cc:Agent>
    </dc:creator>
   </cc:Work>
  </rdf:RDF>
 </metadata>
 <defs>
  <style type="text/css">*{stroke-linecap:butt;stroke-linejoin:round;}</style>
 </defs>
 <g id="figure_1">
  <g id="patch_1">
   <path d="M -0 248.518125 
L 386.845313 248.518125 
L 386.845313 0 
L -0 0 
z
" style="fill:none;"/>
  </g>
  <g id="axes_1">
   <g id="patch_2">
    <path d="M 38.482813 224.64 
L 373.282813 224.64 
L 373.282813 7.2 
L 38.482813 7.2 
z
" style="fill:#ffffff;"/>
   </g>
   <g id="matplotlib.axis_1">
    <g id="xtick_1">
     <g id="line2d_1">
      <path clip-path="url(#p6b7b92189f)" d="M 38.482813 224.64 
L 38.482813 7.2 
" style="fill:none;stroke:#b0b0b0;stroke-linecap:square;stroke-width:0.8;"/>
     </g>
     <g id="line2d_2">
      <defs>
       <path d="M 0 0 
L 0 3.5 
" id="m649acfe97d" style="stroke:#000000;stroke-width:0.8;"/>
      </defs>
      <g>
       <use style="stroke:#000000;stroke-width:0.8;" x="38.482813" xlink:href="#m649acfe97d" y="224.64"/>
      </g>
     </g>
     <g id="text_1">
      <!-- 0 -->
      <g transform="translate(35.301563 239.238437)scale(0.1 -0.1)">
       <defs>
        <path d="M 31.78125 66.40625 
Q 24.171875 66.40625 20.328125 58.90625 
Q 16.5 51.421875 16.5 36.375 
Q 16.5 21.390625 20.328125 13.890625 
Q 24.171875 6.390625 31.78125 6.390625 
Q 39.453125 6.390625 43.28125 13.890625 
Q 47.125 21.390625 47.125 36.375 
Q 47.125 51.421875 43.28125 58.90625 
Q 39.453125 66.40625 31.78125 66.40625 
z
M 31.78125 74.21875 
Q 44.046875 74.21875 50.515625 64.515625 
Q 56.984375 54.828125 56.984375 36.375 
Q 56.984375 17.96875 50.515625 8.265625 
Q 44.046875 -1.421875 31.78125 -1.421875 
Q 19.53125 -1.421875 13.0625 8.265625 
Q 6.59375 17.96875 6.59375 36.375 
Q 6.59375 54.828125 13.0625 64.515625 
Q 19.53125 74.21875 31.78125 74.21875 
z
" id="DejaVuSans-48"/>
       </defs>
       <use xlink:href="#DejaVuSans-48"/>
      </g>
     </g>
    </g>
    <g id="xtick_2">
     <g id="line2d_3">
      <path clip-path="url(#p6b7b92189f)" d="M 105.442813 224.64 
L 105.442813 7.2 
" style="fill:none;stroke:#b0b0b0;stroke-linecap:square;stroke-width:0.8;"/>
     </g>
     <g id="line2d_4">
      <g>
       <use style="stroke:#000000;stroke-width:0.8;" x="105.442813" xlink:href="#m649acfe97d" y="224.64"/>
      </g>
     </g>
     <g id="text_2">
      <!-- 2 -->
      <g transform="translate(102.261562 239.238437)scale(0.1 -0.1)">
       <defs>
        <path d="M 19.1875 8.296875 
L 53.609375 8.296875 
L 53.609375 0 
L 7.328125 0 
L 7.328125 8.296875 
Q 12.9375 14.109375 22.625 23.890625 
Q 32.328125 33.6875 34.8125 36.53125 
Q 39.546875 41.84375 41.421875 45.53125 
Q 43.3125 49.21875 43.3125 52.78125 
Q 43.3125 58.59375 39.234375 62.25 
Q 35.15625 65.921875 28.609375 65.921875 
Q 23.96875 65.921875 18.8125 64.3125 
Q 13.671875 62.703125 7.8125 59.421875 
L 7.8125 69.390625 
Q 13.765625 71.78125 18.9375 73 
Q 24.125 74.21875 28.421875 74.21875 
Q 39.75 74.21875 46.484375 68.546875 
Q 53.21875 62.890625 53.21875 53.421875 
Q 53.21875 48.921875 51.53125 44.890625 
Q 49.859375 40.875 45.40625 35.40625 
Q 44.1875 33.984375 37.640625 27.21875 
Q 31.109375 20.453125 19.1875 8.296875 
z
" id="DejaVuSans-50"/>
       </defs>
       <use xlink:href="#DejaVuSans-50"/>
      </g>
     </g>
    </g>
    <g id="xtick_3">
     <g id="line2d_5">
      <path clip-path="url(#p6b7b92189f)" d="M 172.402813 224.64 
L 172.402813 7.2 
" style="fill:none;stroke:#b0b0b0;stroke-linecap:square;stroke-width:0.8;"/>
     </g>
     <g id="line2d_6">
      <g>
       <use style="stroke:#000000;stroke-width:0.8;" x="172.402813" xlink:href="#m649acfe97d" y="224.64"/>
      </g>
     </g>
     <g id="text_3">
      <!-- 4 -->
      <g transform="translate(169.221563 239.238437)scale(0.1 -0.1)">
       <defs>
        <path d="M 37.796875 64.3125 
L 12.890625 25.390625 
L 37.796875 25.390625 
z
M 35.203125 72.90625 
L 47.609375 72.90625 
L 47.609375 25.390625 
L 58.015625 25.390625 
L 58.015625 17.1875 
L 47.609375 17.1875 
L 47.609375 0 
L 37.796875 0 
L 37.796875 17.1875 
L 4.890625 17.1875 
L 4.890625 26.703125 
z
" id="DejaVuSans-52"/>
       </defs>
       <use xlink:href="#DejaVuSans-52"/>
      </g>
     </g>
    </g>
    <g id="xtick_4">
     <g id="line2d_7">
      <path clip-path="url(#p6b7b92189f)" d="M 239.362813 224.64 
L 239.362813 7.2 
" style="fill:none;stroke:#b0b0b0;stroke-linecap:square;stroke-width:0.8;"/>
     </g>
     <g id="line2d_8">
      <g>
       <use style="stroke:#000000;stroke-width:0.8;" x="239.362813" xlink:href="#m649acfe97d" y="224.64"/>
      </g>
     </g>
     <g id="text_4">
      <!-- 6 -->
      <g transform="translate(236.181563 239.238437)scale(0.1 -0.1)">
       <defs>
        <path d="M 33.015625 40.375 
Q 26.375 40.375 22.484375 35.828125 
Q 18.609375 31.296875 18.609375 23.390625 
Q 18.609375 15.53125 22.484375 10.953125 
Q 26.375 6.390625 33.015625 6.390625 
Q 39.65625 6.390625 43.53125 10.953125 
Q 47.40625 15.53125 47.40625 23.390625 
Q 47.40625 31.296875 43.53125 35.828125 
Q 39.65625 40.375 33.015625 40.375 
z
M 52.59375 71.296875 
L 52.59375 62.3125 
Q 48.875 64.0625 45.09375 64.984375 
Q 41.3125 65.921875 37.59375 65.921875 
Q 27.828125 65.921875 22.671875 59.328125 
Q 17.53125 52.734375 16.796875 39.40625 
Q 19.671875 43.65625 24.015625 45.921875 
Q 28.375 48.1875 33.59375 48.1875 
Q 44.578125 48.1875 50.953125 41.515625 
Q 57.328125 34.859375 57.328125 23.390625 
Q 57.328125 12.15625 50.6875 5.359375 
Q 44.046875 -1.421875 33.015625 -1.421875 
Q 20.359375 -1.421875 13.671875 8.265625 
Q 6.984375 17.96875 6.984375 36.375 
Q 6.984375 53.65625 15.1875 63.9375 
Q 23.390625 74.21875 37.203125 74.21875 
Q 40.921875 74.21875 44.703125 73.484375 
Q 48.484375 72.75 52.59375 71.296875 
z
" id="DejaVuSans-54"/>
       </defs>
       <use xlink:href="#DejaVuSans-54"/>
      </g>
     </g>
    </g>
    <g id="xtick_5">
     <g id="line2d_9">
      <path clip-path="url(#p6b7b92189f)" d="M 306.322813 224.64 
L 306.322813 7.2 
" style="fill:none;stroke:#b0b0b0;stroke-linecap:square;stroke-width:0.8;"/>
     </g>
     <g id="line2d_10">
      <g>
       <use style="stroke:#000000;stroke-width:0.8;" x="306.322813" xlink:href="#m649acfe97d" y="224.64"/>
      </g>
     </g>
     <g id="text_5">
      <!-- 8 -->
      <g transform="translate(303.141563 239.238437)scale(0.1 -0.1)">
       <defs>
        <path d="M 31.78125 34.625 
Q 24.75 34.625 20.71875 30.859375 
Q 16.703125 27.09375 16.703125 20.515625 
Q 16.703125 13.921875 20.71875 10.15625 
Q 24.75 6.390625 31.78125 6.390625 
Q 38.8125 6.390625 42.859375 10.171875 
Q 46.921875 13.96875 46.921875 20.515625 
Q 46.921875 27.09375 42.890625 30.859375 
Q 38.875 34.625 31.78125 34.625 
z
M 21.921875 38.8125 
Q 15.578125 40.375 12.03125 44.71875 
Q 8.5 49.078125 8.5 55.328125 
Q 8.5 64.0625 14.71875 69.140625 
Q 20.953125 74.21875 31.78125 74.21875 
Q 42.671875 74.21875 48.875 69.140625 
Q 55.078125 64.0625 55.078125 55.328125 
Q 55.078125 49.078125 51.53125 44.71875 
Q 48 40.375 41.703125 38.8125 
Q 48.828125 37.15625 52.796875 32.3125 
Q 56.78125 27.484375 56.78125 20.515625 
Q 56.78125 9.90625 50.3125 4.234375 
Q 43.84375 -1.421875 31.78125 -1.421875 
Q 19.734375 -1.421875 13.25 4.234375 
Q 6.78125 9.90625 6.78125 20.515625 
Q 6.78125 27.484375 10.78125 32.3125 
Q 14.796875 37.15625 21.921875 38.8125 
z
M 18.3125 54.390625 
Q 18.3125 48.734375 21.84375 45.5625 
Q 25.390625 42.390625 31.78125 42.390625 
Q 38.140625 42.390625 41.71875 45.5625 
Q 45.3125 48.734375 45.3125 54.390625 
Q 45.3125 60.0625 41.71875 63.234375 
Q 38.140625 66.40625 31.78125 66.40625 
Q 25.390625 66.40625 21.84375 63.234375 
Q 18.3125 60.0625 18.3125 54.390625 
z
" id="DejaVuSans-56"/>
       </defs>
       <use xlink:href="#DejaVuSans-56"/>
      </g>
     </g>
    </g>
    <g id="xtick_6">
     <g id="line2d_11">
      <path clip-path="url(#p6b7b92189f)" d="M 373.282813 224.64 
L 373.282813 7.2 
" style="fill:none;stroke:#b0b0b0;stroke-linecap:square;stroke-width:0.8;"/>
     </g>
     <g id="line2d_12">
      <g>
       <use style="stroke:#000000;stroke-width:0.8;" x="373.282813" xlink:href="#m649acfe97d" y="224.64"/>
      </g>
     </g>
     <g id="text_6">
      <!-- 10 -->
      <g transform="translate(366.920313 239.238437)scale(0.1 -0.1)">
       <defs>
        <path d="M 12.40625 8.296875 
L 28.515625 8.296875 
L 28.515625 63.921875 
L 10.984375 60.40625 
L 10.984375 69.390625 
L 28.421875 72.90625 
L 38.28125 72.90625 
L 38.28125 8.296875 
L 54.390625 8.296875 
L 54.390625 0 
L 12.40625 0 
z
" id="DejaVuSans-49"/>
       </defs>
       <use xlink:href="#DejaVuSans-49"/>
       <use x="63.623047" xlink:href="#DejaVuSans-48"/>
      </g>
     </g>
    </g>
   </g>
   <g id="matplotlib.axis_2">
    <g id="ytick_1">
     <g id="line2d_13">
      <path clip-path="url(#p6b7b92189f)" d="M 38.482813 209.684374 
L 373.282813 209.684374 
" style="fill:none;stroke:#b0b0b0;stroke-linecap:square;stroke-width:0.8;"/>
     </g>
     <g id="line2d_14">
      <defs>
       <path d="M 0 0 
L -3.5 0 
" id="me0d0840375" style="stroke:#000000;stroke-width:0.8;"/>
      </defs>
      <g>
       <use style="stroke:#000000;stroke-width:0.8;" x="38.482813" xlink:href="#me0d0840375" y="209.684374"/>
      </g>
     </g>
     <g id="text_7">
      <!-- −0.6 -->
      <g transform="translate(7.2 213.483593)scale(0.1 -0.1)">
       <defs>
        <path d="M 10.59375 35.5 
L 73.1875 35.5 
L 73.1875 27.203125 
L 10.59375 27.203125 
z
" id="DejaVuSans-8722"/>
        <path d="M 10.6875 12.40625 
L 21 12.40625 
L 21 0 
L 10.6875 0 
z
" id="DejaVuSans-46"/>
       </defs>
       <use xlink:href="#DejaVuSans-8722"/>
       <use x="83.789062" xlink:href="#DejaVuSans-48"/>
       <use x="147.412109" xlink:href="#DejaVuSans-46"/>
       <use x="179.199219" xlink:href="#DejaVuSans-54"/>
      </g>
     </g>
    </g>
    <g id="ytick_2">
     <g id="line2d_15">
      <path clip-path="url(#p6b7b92189f)" d="M 38.482813 178.429367 
L 373.282813 178.429367 
" style="fill:none;stroke:#b0b0b0;stroke-linecap:square;stroke-width:0.8;"/>
     </g>
     <g id="line2d_16">
      <g>
       <use style="stroke:#000000;stroke-width:0.8;" x="38.482813" xlink:href="#me0d0840375" y="178.429367"/>
      </g>
     </g>
     <g id="text_8">
      <!-- −0.4 -->
      <g transform="translate(7.2 182.228586)scale(0.1 -0.1)">
       <use xlink:href="#DejaVuSans-8722"/>
       <use x="83.789062" xlink:href="#DejaVuSans-48"/>
       <use x="147.412109" xlink:href="#DejaVuSans-46"/>
       <use x="179.199219" xlink:href="#DejaVuSans-52"/>
      </g>
     </g>
    </g>
    <g id="ytick_3">
     <g id="line2d_17">
      <path clip-path="url(#p6b7b92189f)" d="M 38.482813 147.17436 
L 373.282813 147.17436 
" style="fill:none;stroke:#b0b0b0;stroke-linecap:square;stroke-width:0.8;"/>
     </g>
     <g id="line2d_18">
      <g>
       <use style="stroke:#000000;stroke-width:0.8;" x="38.482813" xlink:href="#me0d0840375" y="147.17436"/>
      </g>
     </g>
     <g id="text_9">
      <!-- −0.2 -->
      <g transform="translate(7.2 150.973578)scale(0.1 -0.1)">
       <use xlink:href="#DejaVuSans-8722"/>
       <use x="83.789062" xlink:href="#DejaVuSans-48"/>
       <use x="147.412109" xlink:href="#DejaVuSans-46"/>
       <use x="179.199219" xlink:href="#DejaVuSans-50"/>
      </g>
     </g>
    </g>
    <g id="ytick_4">
     <g id="line2d_19">
      <path clip-path="url(#p6b7b92189f)" d="M 38.482813 115.919352 
L 373.282813 115.919352 
" style="fill:none;stroke:#b0b0b0;stroke-linecap:square;stroke-width:0.8;"/>
     </g>
     <g id="line2d_20">
      <g>
       <use style="stroke:#000000;stroke-width:0.8;" x="38.482813" xlink:href="#me0d0840375" y="115.919352"/>
      </g>
     </g>
     <g id="text_10">
      <!-- 0.0 -->
      <g transform="translate(15.579688 119.718571)scale(0.1 -0.1)">
       <use xlink:href="#DejaVuSans-48"/>
       <use x="63.623047" xlink:href="#DejaVuSans-46"/>
       <use x="95.410156" xlink:href="#DejaVuSans-48"/>
      </g>
     </g>
    </g>
    <g id="ytick_5">
     <g id="line2d_21">
      <path clip-path="url(#p6b7b92189f)" d="M 38.482813 84.664345 
L 373.282813 84.664345 
" style="fill:none;stroke:#b0b0b0;stroke-linecap:square;stroke-width:0.8;"/>
     </g>
     <g id="line2d_22">
      <g>
       <use style="stroke:#000000;stroke-width:0.8;" x="38.482813" xlink:href="#me0d0840375" y="84.664345"/>
      </g>
     </g>
     <g id="text_11">
      <!-- 0.2 -->
      <g transform="translate(15.579688 88.463564)scale(0.1 -0.1)">
       <use xlink:href="#DejaVuSans-48"/>
       <use x="63.623047" xlink:href="#DejaVuSans-46"/>
       <use x="95.410156" xlink:href="#DejaVuSans-50"/>
      </g>
     </g>
    </g>
    <g id="ytick_6">
     <g id="line2d_23">
      <path clip-path="url(#p6b7b92189f)" d="M 38.482813 53.409338 
L 373.282813 53.409338 
" style="fill:none;stroke:#b0b0b0;stroke-linecap:square;stroke-width:0.8;"/>
     </g>
     <g id="line2d_24">
      <g>
       <use style="stroke:#000000;stroke-width:0.8;" x="38.482813" xlink:href="#me0d0840375" y="53.409338"/>
      </g>
     </g>
     <g id="text_12">
      <!-- 0.4 -->
      <g transform="translate(15.579688 57.208556)scale(0.1 -0.1)">
       <use xlink:href="#DejaVuSans-48"/>
       <use x="63.623047" xlink:href="#DejaVuSans-46"/>
       <use x="95.410156" xlink:href="#DejaVuSans-52"/>
      </g>
     </g>
    </g>
    <g id="ytick_7">
     <g id="line2d_25">
      <path clip-path="url(#p6b7b92189f)" d="M 38.482813 22.15433 
L 373.282813 22.15433 
" style="fill:none;stroke:#b0b0b0;stroke-linecap:square;stroke-width:0.8;"/>
     </g>
     <g id="line2d_26">
      <g>
       <use style="stroke:#000000;stroke-width:0.8;" x="38.482813" xlink:href="#me0d0840375" y="22.15433"/>
      </g>
     </g>
     <g id="text_13">
      <!-- 0.6 -->
      <g transform="translate(15.579688 25.953549)scale(0.1 -0.1)">
       <use xlink:href="#DejaVuSans-48"/>
       <use x="63.623047" xlink:href="#DejaVuSans-46"/>
       <use x="95.410156" xlink:href="#DejaVuSans-54"/>
      </g>
     </g>
    </g>
   </g>
   <g id="line2d_27">
    <path clip-path="url(#p6b7b92189f)" d="M 38.482813 146.461668 
L 40.495638 145.882639 
L 42.508464 144.167504 
L 44.521289 141.381296 
L 46.534115 137.629659 
L 48.546941 133.054842 
L 50.559766 127.830305 
L 54.585418 116.241586 
L 58.611069 104.604458 
L 60.623895 99.32113 
L 62.63672 94.66715 
L 64.649546 90.818981 
L 66.662372 87.922531 
L 68.675197 86.087625 
L 70.688023 85.383835 
L 72.700849 85.837848 
L 74.713674 87.432447 
L 76.7265 90.107173 
L 78.739326 93.760607 
L 80.752151 98.254225 
L 82.764977 103.417644 
L 86.790628 114.952795 
L 90.816279 126.63315 
L 92.829105 131.972916 
L 94.841931 136.703987 
L 96.854756 140.646975 
L 98.867582 143.652377 
L 100.880408 145.606238 
L 102.893233 146.434474 
L 104.906059 146.105681 
L 106.918885 144.632327 
L 108.93171 142.070275 
L 110.944536 138.51667 
L 112.957362 134.106252 
L 114.970187 129.00625 
L 118.995839 117.529804 
L 123.02149 105.811421 
L 125.034316 100.417594 
L 127.047141 95.611539 
L 129.059967 91.575488 
L 131.072792 88.462472 
L 133.085618 86.390526 
L 135.098444 85.438212 
L 137.111269 85.641639 
L 139.124095 86.993092 
L 141.136921 89.44133 
L 143.149746 92.893523 
L 145.162572 97.218777 
L 147.175398 102.253092 
L 151.201049 113.665724 
L 155.2267 125.416916 
L 157.239526 130.862403 
L 159.252352 135.741302 
L 161.265177 139.86862 
L 163.278003 143.087864 
L 165.290829 145.276971 
L 167.303654 146.352939 
L 169.31648 146.274969 
L 171.329305 145.046019 
L 173.342131 142.712685 
L 175.354957 139.36344 
L 177.367782 135.125276 
L 179.380608 130.15889 
L 181.393434 124.652589 
L 189.444736 101.541662 
L 191.457562 96.592092 
L 193.470388 92.375345 
L 195.483213 89.051306 
L 197.496039 86.746011 
L 199.508865 85.54687 
L 201.52169 85.499348 
L 203.534516 86.605248 
L 205.547342 88.822639 
L 207.560167 92.067443 
L 209.572993 96.216631 
L 211.585819 101.112878 
L 213.598644 106.570535 
L 221.649947 129.72528 
L 223.662772 134.743318 
L 225.675598 139.047616 
L 227.688424 142.47497 
L 229.701249 144.895426 
L 231.714075 146.217208 
L 233.726901 146.3902 
L 235.739726 145.407842 
L 237.752552 143.307382 
L 239.765378 140.168462 
L 241.778203 136.110099 
L 243.791029 131.286172 
L 245.803855 125.879588 
L 253.855157 102.691334 
L 255.867983 97.607062 
L 257.880808 93.217129 
L 259.893634 89.687987 
L 261.90646 87.153448 
L 263.919285 85.709613 
L 265.932111 85.411228 
L 267.944937 86.269606 
L 269.957762 88.252201 
L 271.970588 91.283839 
L 273.983414 95.249571 
L 275.996239 99.99903 
L 278.009065 105.352133 
L 286.060368 128.563572 
L 288.073193 133.711813 
L 290.086019 138.185426 
L 292.098845 141.814786 
L 294.11167 144.46228 
L 296.124496 146.027524 
L 298.137322 146.451169 
L 300.150147 145.717153 
L 302.162973 143.853307 
L 304.175798 140.930301 
L 306.188624 137.058966 
L 308.20145 132.386089 
L 310.214275 127.08885 
L 314.239927 115.440757 
L 318.265578 103.864562 
L 320.278404 98.654642 
L 322.291229 94.099341 
L 324.304055 90.37138 
L 326.316881 87.61211 
L 328.329706 85.926154 
L 330.342532 85.377436 
L 332.355358 85.986764 
L 334.368183 87.731032 
L 336.381009 90.544104 
L 338.393835 94.319319 
L 340.40666 98.913533 
L 342.419486 104.152549 
L 346.445137 115.753489 
L 350.470788 127.379346 
L 352.483614 132.648624 
L 354.49644 137.283585 
L 356.509265 141.108488 
L 358.522091 143.978305 
L 360.534917 145.784223 
L 362.547742 146.457768 
L 364.560568 145.973401 
L 366.573394 144.349488 
L 368.586219 141.647601 
L 370.599045 137.970188 
L 372.611871 133.456683 
L 374.624696 128.278222 
L 378.650348 116.729601 
L 382.675999 105.059257 
L 384.688825 99.732967 
L 386.70165 95.02041 
L 387.845313 92.793034 
L 387.845313 92.793034 
" style="fill:none;stroke:#1f77b4;stroke-linecap:square;stroke-width:1.5;"/>
   </g>
   <g id="line2d_28">
    <path clip-path="url(#p6b7b92189f)" d="M 38.482813 35.95853 
L 40.495638 37.47445 
L 42.508464 41.964731 
L 44.521289 49.259118 
L 46.534115 59.081031 
L 48.546941 71.058059 
L 50.559766 84.736072 
L 54.585418 115.075733 
L 58.611069 145.54213 
L 60.623895 159.374061 
L 62.63672 171.558339 
L 64.649546 181.632977 
L 66.662372 189.215981 
L 68.675197 194.019828 
L 70.688023 195.862373 
L 72.700849 194.673754 
L 74.713674 190.499038 
L 76.7265 183.496516 
L 78.739326 173.931701 
L 80.752151 162.167256 
L 82.764977 148.64925 
L 86.790628 118.449833 
L 90.816279 87.870265 
L 92.829105 73.890576 
L 94.841931 61.504473 
L 96.854756 51.181595 
L 98.867582 43.313351 
L 100.880408 38.198077 
L 102.893233 36.029727 
L 104.906059 36.890517 
L 106.918885 40.747809 
L 108.93171 47.455347 
L 110.944536 56.758806 
L 112.957362 68.30543 
L 114.970187 81.657409 
L 118.995839 111.703136 
L 123.02149 142.382259 
L 125.034316 156.503483 
L 127.047141 169.085897 
L 129.059967 179.652418 
L 131.072792 187.802399 
L 133.085618 193.226823 
L 135.098444 195.720012 
L 137.111269 195.187435 
L 139.124095 191.649284 
L 141.136921 185.239715 
L 143.149746 176.201755 
L 145.162572 164.878094 
L 147.175398 151.698085 
L 151.201049 121.819426 
L 155.2267 91.054408 
L 157.239526 76.797936 
L 159.252352 64.024815 
L 161.265177 53.219356 
L 163.278003 44.791265 
L 165.290829 39.060108 
L 167.303654 36.243188 
L 169.31648 36.447316 
L 171.329305 39.66475 
L 173.342131 45.773496 
L 175.354957 54.541933 
L 177.367782 65.63759 
L 179.380608 78.63976 
L 181.393434 93.055443 
L 189.444736 153.560634 
L 191.457562 166.518777 
L 193.470388 177.558363 
L 195.483213 186.26081 
L 197.496039 192.29615 
L 199.508865 195.435544 
L 201.52169 195.559958 
L 203.534516 192.664673 
L 205.547342 186.859469 
L 207.560167 178.36446 
L 209.572993 167.501747 
L 211.585819 154.683206 
L 213.598644 140.394874 
L 221.649947 79.774964 
L 223.662772 66.63757 
L 225.675598 55.368771 
L 227.688424 46.395843 
L 229.701249 40.059008 
L 231.714075 36.598536 
L 233.726901 36.145637 
L 235.739726 38.717483 
L 237.752552 44.216559 
L 239.765378 52.434359 
L 241.778203 63.059292 
L 243.791029 75.688496 
L 245.803855 89.843117 
L 253.855157 150.550754 
L 255.867983 163.861551 
L 257.880808 175.354543 
L 259.893634 184.593958 
L 261.90646 191.229467 
L 263.919285 195.009476 
L 265.932111 195.790659 
L 267.944937 193.543396 
L 269.957762 188.352896 
L 271.970588 180.415964 
L 273.983414 170.033543 
L 275.996239 157.599298 
L 278.009065 143.584692 
L 282.034716 112.979715 
L 286.060368 82.816356 
L 288.073193 69.338084 
L 290.086019 57.626014 
L 292.098845 48.124227 
L 294.11167 41.192998 
L 296.124496 37.095136 
L 298.137322 35.986017 
L 300.150147 37.907696 
L 302.162973 42.787309 
L 304.175798 50.439838 
L 306.188624 60.575125 
L 308.20145 72.808875 
L 310.214275 86.677227 
L 314.239927 117.172332 
L 318.265578 147.479203 
L 320.278404 161.11895 
L 322.291229 173.044883 
L 324.304055 182.804812 
L 326.316881 190.028674 
L 328.329706 194.442565 
L 330.342532 195.879126 
L 332.355358 194.283887 
L 334.368183 189.717334 
L 336.381009 182.352614 
L 338.393835 172.468974 
L 340.40666 160.441166 
L 342.419486 146.725244 
L 346.445137 116.353588 
L 350.470788 85.916698 
L 352.483614 72.12155 
L 354.49644 59.987064 
L 356.509265 49.973339 
L 358.522091 42.460059 
L 360.534917 37.732104 
L 362.547742 35.968741 
L 364.560568 37.236831 
L 366.573394 41.488291 
L 368.586219 48.561921 
L 370.599045 58.189514 
L 372.611871 70.006025 
L 374.624696 83.56341 
L 378.650348 113.798094 
L 382.675999 144.351451 
L 384.688825 158.295859 
L 386.70165 170.633494 
L 387.845313 176.464838 
L 387.845313 176.464838 
" style="fill:none;stroke:#ff7f0e;stroke-linecap:square;stroke-width:1.5;"/>
   </g>
   <g id="line2d_29">
    <path clip-path="url(#p6b7b92189f)" d="M 38.482813 214.756364 
L 40.495638 212.882584 
L 42.508464 207.332291 
L 44.521289 198.315934 
L 46.534115 186.175381 
L 48.546941 171.370961 
L 50.559766 154.464006 
L 54.585418 116.962122 
L 58.611069 79.303585 
L 60.623895 62.206378 
L 62.63672 47.145782 
L 64.649546 34.692844 
L 66.662372 25.319737 
L 68.675197 19.381855 
L 70.688023 17.104344 
L 72.700849 18.573559 
L 74.713674 23.733791 
L 76.7265 32.389384 
L 78.739326 44.212146 
L 80.752151 58.753799 
L 82.764977 75.462974 
L 86.790628 112.791506 
L 90.816279 150.58993 
L 92.829105 167.869777 
L 94.841931 183.179843 
L 96.854756 195.939621 
L 98.867582 205.665306 
L 100.880408 211.988132 
L 102.893233 214.66836 
L 104.906059 213.604365 
L 106.918885 208.83649 
L 108.93171 200.545516 
L 110.944536 189.045809 
L 112.957362 174.773397 
L 114.970187 158.269443 
L 118.995839 121.130882 
L 123.02149 83.2094 
L 125.034316 65.754607 
L 127.047141 50.201889 
L 129.059967 37.140951 
L 131.072792 27.06702 
L 133.085618 20.362064 
L 135.098444 17.280312 
L 137.111269 17.938613 
L 139.124095 22.312008 
L 141.136921 30.234672 
L 143.149746 41.406204 
L 145.162572 55.40302 
L 147.175398 71.694406 
L 151.201049 108.62646 
L 155.2267 146.654114 
L 157.239526 164.276082 
L 159.252352 180.064528 
L 161.265177 193.42081 
L 163.278003 203.838503 
L 165.290829 210.922603 
L 167.303654 214.404507 
L 169.31648 214.152192 
L 171.329305 210.175225 
L 173.342131 202.624398 
L 175.354957 191.786015 
L 177.367782 178.071028 
L 179.380608 161.999463 
L 181.393434 144.180699 
L 189.444736 69.392169 
L 191.457562 53.375024 
L 193.470388 39.729345 
L 195.483213 28.972529 
L 197.496039 21.512438 
L 199.508865 17.631933 
L 201.52169 17.47815 
L 203.534516 21.056919 
L 205.547342 28.232545 
L 207.560167 38.732954 
L 209.572993 52.160006 
L 211.585819 68.004594 
L 213.598644 85.665944 
L 221.649947 160.596273 
L 223.662772 176.834986 
L 225.675598 190.763986 
L 227.688424 201.855136 
L 229.701249 209.687895 
L 231.714075 213.965273 
L 233.726901 214.525087 
L 235.739726 211.34611 
L 237.752552 204.548878 
L 239.765378 194.391119 
L 241.778203 181.25798 
L 243.791029 165.647425 
L 245.803855 148.151352 
L 253.855157 73.112585 
L 255.867983 56.659536 
L 257.880808 42.453416 
L 259.893634 31.032871 
L 261.90646 22.830931 
L 263.919285 18.158583 
L 265.932111 17.192988 
L 267.944937 19.970758 
L 269.957762 26.386569 
L 271.970588 36.197156 
L 273.983414 49.030534 
L 275.996239 64.400107 
L 278.009065 81.723112 
L 282.034716 119.552943 
L 286.060368 156.836905 
L 288.073193 173.496966 
L 290.086019 187.973881 
L 292.098845 199.718736 
L 294.11167 208.286206 
L 296.124496 213.351442 
L 298.137322 214.722388 
L 300.150147 212.347062 
L 302.162973 206.315529 
L 304.175798 196.856483 
L 306.188624 184.328579 
L 308.20145 169.206832 
L 310.214275 152.064607 
L 314.239927 114.370585 
L 318.265578 76.909231 
L 320.278404 60.049577 
L 322.291229 45.308313 
L 324.304055 33.244377 
L 326.316881 24.315193 
L 328.329706 18.859323 
L 330.342532 17.083636 
L 332.355358 19.055461 
L 334.368183 24.700031 
L 336.381009 33.803324 
L 338.393835 46.020176 
L 340.40666 60.887364 
L 342.419486 77.841176 
L 346.445137 115.382607 
L 350.470788 153.004673 
L 352.483614 170.056413 
L 354.49644 185.055463 
L 356.509265 197.433108 
L 358.522091 206.720032 
L 360.534917 212.564106 
L 362.547742 214.743742 
L 364.560568 213.176298 
L 366.573394 207.921204 
L 368.586219 199.177716 
L 370.599045 187.277356 
L 372.611871 172.671346 
L 374.624696 155.913496 
L 378.650348 118.541372 
L 382.675999 80.775345 
L 384.688825 63.53911 
L 386.70165 48.288953 
L 387.845313 41.081016 
L 387.845313 41.081016 
" style="fill:none;stroke:#2ca02c;stroke-linecap:square;stroke-width:1.5;"/>
   </g>
   <g id="line2d_30">
    <path clip-path="url(#p6b7b92189f)" d="M 38.482813 35.95853 
L 40.495638 37.47445 
L 42.508464 41.964731 
L 44.521289 49.259118 
L 46.534115 59.081031 
L 48.546941 71.058059 
L 50.559766 84.736072 
L 54.585418 115.075733 
L 58.611069 145.54213 
L 60.623895 159.374061 
L 62.63672 171.558339 
L 64.649546 181.632977 
L 66.662372 189.215981 
L 68.675197 194.019828 
L 70.688023 195.862373 
L 72.700849 194.673754 
L 74.713674 190.499038 
L 76.7265 183.496516 
L 78.739326 173.931701 
L 80.752151 162.167256 
L 82.764977 148.64925 
L 86.790628 118.449833 
L 90.816279 87.870265 
L 92.829105 73.890576 
L 94.841931 61.504473 
L 96.854756 51.181595 
L 98.867582 43.313351 
L 100.880408 38.198077 
L 102.893233 36.029727 
L 104.906059 36.890517 
L 106.918885 40.747809 
L 108.93171 47.455347 
L 110.944536 56.758806 
L 112.957362 68.30543 
L 114.970187 81.657409 
L 118.995839 111.703136 
L 123.02149 142.382259 
L 125.034316 156.503483 
L 127.047141 169.085897 
L 129.059967 179.652418 
L 131.072792 187.802399 
L 133.085618 193.226823 
L 135.098444 195.720012 
L 137.111269 195.187435 
L 139.124095 191.649284 
L 141.136921 185.239715 
L 143.149746 176.201755 
L 145.162572 164.878094 
L 147.175398 151.698085 
L 151.201049 121.819426 
L 155.2267 91.054408 
L 157.239526 76.797936 
L 159.252352 64.024815 
L 161.265177 53.219356 
L 163.278003 44.791265 
L 165.290829 39.060108 
L 167.303654 36.243188 
L 169.31648 36.447316 
L 171.329305 39.66475 
L 173.342131 45.773496 
L 175.354957 54.541933 
L 177.367782 65.63759 
L 179.380608 78.63976 
L 181.393434 93.055443 
L 189.444736 153.560634 
L 191.457562 166.518777 
L 193.470388 177.558363 
L 195.483213 186.26081 
L 197.496039 192.29615 
L 199.508865 195.435544 
L 201.52169 195.559958 
L 203.534516 192.664673 
L 205.547342 186.859469 
L 207.560167 178.36446 
L 209.572993 167.501747 
L 211.585819 154.683206 
L 213.598644 140.394874 
L 221.649947 79.774964 
L 223.662772 66.63757 
L 225.675598 55.368771 
L 227.688424 46.395843 
L 229.701249 40.059008 
L 231.714075 36.598536 
L 233.726901 36.145637 
L 235.739726 38.717483 
L 237.752552 44.216559 
L 239.765378 52.434359 
L 241.778203 63.059292 
L 243.791029 75.688496 
L 245.803855 89.843117 
L 253.855157 150.550754 
L 255.867983 163.861551 
L 257.880808 175.354543 
L 259.893634 184.593958 
L 261.90646 191.229467 
L 263.919285 195.009476 
L 265.932111 195.790659 
L 267.944937 193.543396 
L 269.957762 188.352896 
L 271.970588 180.415964 
L 273.983414 170.033543 
L 275.996239 157.599298 
L 278.009065 143.584692 
L 282.034716 112.979715 
L 286.060368 82.816356 
L 288.073193 69.338084 
L 290.086019 57.626014 
L 292.098845 48.124227 
L 294.11167 41.192998 
L 296.124496 37.095136 
L 298.137322 35.986017 
L 300.150147 37.907696 
L 302.162973 42.787309 
L 304.175798 50.439838 
L 306.188624 60.575125 
L 308.20145 72.808875 
L 310.214275 86.677227 
L 314.239927 117.172332 
L 318.265578 147.479203 
L 320.278404 161.11895 
L 322.291229 173.044883 
L 324.304055 182.804812 
L 326.316881 190.028674 
L 328.329706 194.442565 
L 330.342532 195.879126 
L 332.355358 194.283887 
L 334.368183 189.717334 
L 336.381009 182.352614 
L 338.393835 172.468974 
L 340.40666 160.441166 
L 342.419486 146.725244 
L 346.445137 116.353588 
L 350.470788 85.916698 
L 352.483614 72.12155 
L 354.49644 59.987064 
L 356.509265 49.973339 
L 358.522091 42.460059 
L 360.534917 37.732104 
L 362.547742 35.968741 
L 364.560568 37.236831 
L 366.573394 41.488291 
L 368.586219 48.561921 
L 370.599045 58.189514 
L 372.611871 70.006025 
L 374.624696 83.56341 
L 378.650348 113.798094 
L 382.675999 144.351451 
L 384.688825 158.295859 
L 386.70165 170.633494 
L 387.845313 176.464838 
L 387.845313 176.464838 
" style="fill:none;stroke:#d62728;stroke-linecap:square;stroke-width:1.5;"/>
   </g>
   <g id="line2d_31">
    <path clip-path="url(#p6b7b92189f)" d="M 38.482813 146.461668 
L 40.495638 145.882639 
L 42.508464 144.167504 
L 44.521289 141.381296 
L 46.534115 137.629659 
L 48.546941 133.054842 
L 50.559766 127.830305 
L 54.585418 116.241586 
L 58.611069 104.604458 
L 60.623895 99.32113 
L 62.63672 94.66715 
L 64.649546 90.818981 
L 66.662372 87.922531 
L 68.675197 86.087625 
L 70.688023 85.383835 
L 72.700849 85.837848 
L 74.713674 87.432447 
L 76.7265 90.107173 
L 78.739326 93.760607 
L 80.752151 98.254225 
L 82.764977 103.417644 
L 86.790628 114.952795 
L 90.816279 126.63315 
L 92.829105 131.972916 
L 94.841931 136.703987 
L 96.854756 140.646975 
L 98.867582 143.652377 
L 100.880408 145.606238 
L 102.893233 146.434474 
L 104.906059 146.105681 
L 106.918885 144.632327 
L 108.93171 142.070275 
L 110.944536 138.51667 
L 112.957362 134.106252 
L 114.970187 129.00625 
L 118.995839 117.529804 
L 123.02149 105.811421 
L 125.034316 100.417594 
L 127.047141 95.611539 
L 129.059967 91.575488 
L 131.072792 88.462472 
L 133.085618 86.390526 
L 135.098444 85.438212 
L 137.111269 85.641639 
L 139.124095 86.993092 
L 141.136921 89.44133 
L 143.149746 92.893523 
L 145.162572 97.218777 
L 147.175398 102.253092 
L 151.201049 113.665724 
L 155.2267 125.416916 
L 157.239526 130.862403 
L 159.252352 135.741302 
L 161.265177 139.86862 
L 163.278003 143.087864 
L 165.290829 145.276971 
L 167.303654 146.352939 
L 169.31648 146.274969 
L 171.329305 145.046019 
L 173.342131 142.712685 
L 175.354957 139.36344 
L 177.367782 135.125276 
L 179.380608 130.15889 
L 181.393434 124.652589 
L 189.444736 101.541662 
L 191.457562 96.592092 
L 193.470388 92.375345 
L 195.483213 89.051306 
L 197.496039 86.746011 
L 199.508865 85.54687 
L 201.52169 85.499348 
L 203.534516 86.605248 
L 205.547342 88.822639 
L 207.560167 92.067443 
L 209.572993 96.216631 
L 211.585819 101.112878 
L 213.598644 106.570535 
L 221.649947 129.72528 
L 223.662772 134.743318 
L 225.675598 139.047616 
L 227.688424 142.47497 
L 229.701249 144.895426 
L 231.714075 146.217208 
L 233.726901 146.3902 
L 235.739726 145.407842 
L 237.752552 143.307382 
L 239.765378 140.168462 
L 241.778203 136.110099 
L 243.791029 131.286172 
L 245.803855 125.879588 
L 253.855157 102.691334 
L 255.867983 97.607062 
L 257.880808 93.217129 
L 259.893634 89.687987 
L 261.90646 87.153448 
L 263.919285 85.709613 
L 265.932111 85.411228 
L 267.944937 86.269606 
L 269.957762 88.252201 
L 271.970588 91.283839 
L 273.983414 95.249571 
L 275.996239 99.99903 
L 278.009065 105.352133 
L 286.060368 128.563572 
L 288.073193 133.711813 
L 290.086019 138.185426 
L 292.098845 141.814786 
L 294.11167 144.46228 
L 296.124496 146.027524 
L 298.137322 146.451169 
L 300.150147 145.717153 
L 302.162973 143.853307 
L 304.175798 140.930301 
L 306.188624 137.058966 
L 308.20145 132.386089 
L 310.214275 127.08885 
L 314.239927 115.440757 
L 318.265578 103.864562 
L 320.278404 98.654642 
L 322.291229 94.099341 
L 324.304055 90.37138 
L 326.316881 87.61211 
L 328.329706 85.926154 
L 330.342532 85.377436 
L 332.355358 85.986764 
L 334.368183 87.731032 
L 336.381009 90.544104 
L 338.393835 94.319319 
L 340.40666 98.913533 
L 342.419486 104.152549 
L 346.445137 115.753489 
L 350.470788 127.379346 
L 352.483614 132.648624 
L 354.49644 137.283585 
L 356.509265 141.108488 
L 358.522091 143.978305 
L 360.534917 145.784223 
L 362.547742 146.457768 
L 364.560568 145.973401 
L 366.573394 144.349488 
L 368.586219 141.647601 
L 370.599045 137.970188 
L 372.611871 133.456683 
L 374.624696 128.278222 
L 378.650348 116.729601 
L 382.675999 105.059257 
L 384.688825 99.732967 
L 386.70165 95.02041 
L 387.845313 92.793034 
L 387.845313 92.793034 
" style="fill:none;stroke:#9467bd;stroke-linecap:square;stroke-width:1.5;"/>
   </g>
   <g id="patch_3">
    <path d="M 38.482813 224.64 
L 38.482813 7.2 
" style="fill:none;stroke:#000000;stroke-linecap:square;stroke-linejoin:miter;stroke-width:0.8;"/>
   </g>
   <g id="patch_4">
    <path d="M 373.282813 224.64 
L 373.282813 7.2 
" style="fill:none;stroke:#000000;stroke-linecap:square;stroke-linejoin:miter;stroke-width:0.8;"/>
   </g>
   <g id="patch_5">
    <path d="M 38.482813 224.64 
L 373.282813 224.64 
" style="fill:none;stroke:#000000;stroke-linecap:square;stroke-linejoin:miter;stroke-width:0.8;"/>
   </g>
   <g id="patch_6">
    <path d="M 38.482813 7.2 
L 373.282813 7.2 
" style="fill:none;stroke:#000000;stroke-linecap:square;stroke-linejoin:miter;stroke-width:0.8;"/>
   </g>
  </g>
 </g>
 <defs>
  <clipPath id="p6b7b92189f">
   <rect height="217.44" width="334.8" x="38.482813" y="7.2"/>
  </clipPath>
 </defs>
</svg>
