<?xml version="1.0" encoding="utf-8" standalone="no"?>
<!DOCTYPE svg PUBLIC "-//W3C//DTD SVG 1.1//EN"
  "http://www.w3.org/Graphics/SVG/1.1/DTD/svg11.dtd">
<!-- Created with matplotlib (https://matplotlib.org/) -->
<svg height="248.518125pt" version="1.1" viewBox="0 0 380.482812 248.518125" width="380.482812pt" xmlns="http://www.w3.org/2000/svg" xmlns:xlink="http://www.w3.org/1999/xlink">
 <metadata>
  <rdf:RDF xmlns:cc="http://creativecommons.org/ns#" xmlns:dc="http://purl.org/dc/elements/1.1/" xmlns:rdf="http://www.w3.org/1999/02/22-rdf-syntax-ns#">
   <cc:Work>
    <dc:type rdf:resource="http://purl.org/dc/dcmitype/StillImage"/>
    <dc:date>2021-10-24T17:03:27.088632</dc:date>
    <dc:format>image/svg+xml</dc:format>
    <dc:creator>
     <cc:Agent>
      <dc:title>Matplotlib v3.3.4, https://matplotlib.org/</dc:title>
     </cc:Agent>
    </dc:creator>
   </cc:Work>
  </rdf:RDF>
 </metadata>
 <defs>
  <style type="text/css">*{stroke-linecap:butt;stroke-linejoin:round;}</style>
 </defs>
 <g id="figure_1">
  <g id="patch_1">
   <path d="M -0 248.518125 
L 380.482812 248.518125 
L 380.482812 0 
L -0 0 
z
" style="fill:none;"/>
  </g>
  <g id="axes_1">
   <g id="patch_2">
    <path d="M 38.482813 224.64 
L 373.282813 224.64 
L 373.282813 7.2 
L 38.482813 7.2 
z
" style="fill:#ffffff;"/>
   </g>
   <g id="matplotlib.axis_1">
    <g id="xtick_1">
     <g id="line2d_1">
      <defs>
       <path d="M 0 0 
L 0 3.5 
" id="m5549ae36fe" style="stroke:#000000;stroke-width:0.8;"/>
      </defs>
      <g>
       <use style="stroke:#000000;stroke-width:0.8;" x="53.700994" xlink:href="#m5549ae36fe" y="224.64"/>
      </g>
     </g>
     <g id="text_1">
      <!-- 0 -->
      <g transform="translate(50.519744 239.238437)scale(0.1 -0.1)">
       <defs>
        <path d="M 31.78125 66.40625 
Q 24.171875 66.40625 20.328125 58.90625 
Q 16.5 51.421875 16.5 36.375 
Q 16.5 21.390625 20.328125 13.890625 
Q 24.171875 6.390625 31.78125 6.390625 
Q 39.453125 6.390625 43.28125 13.890625 
Q 47.125 21.390625 47.125 36.375 
Q 47.125 51.421875 43.28125 58.90625 
Q 39.453125 66.40625 31.78125 66.40625 
z
M 31.78125 74.21875 
Q 44.046875 74.21875 50.515625 64.515625 
Q 56.984375 54.828125 56.984375 36.375 
Q 56.984375 17.96875 50.515625 8.265625 
Q 44.046875 -1.421875 31.78125 -1.421875 
Q 19.53125 -1.421875 13.0625 8.265625 
Q 6.59375 17.96875 6.59375 36.375 
Q 6.59375 54.828125 13.0625 64.515625 
Q 19.53125 74.21875 31.78125 74.21875 
z
" id="DejaVuSans-48"/>
       </defs>
       <use xlink:href="#DejaVuSans-48"/>
      </g>
     </g>
    </g>
    <g id="xtick_2">
     <g id="line2d_2">
      <g>
       <use style="stroke:#000000;stroke-width:0.8;" x="114.573722" xlink:href="#m5549ae36fe" y="224.64"/>
      </g>
     </g>
     <g id="text_2">
      <!-- 20 -->
      <g transform="translate(108.211222 239.238437)scale(0.1 -0.1)">
       <defs>
        <path d="M 19.1875 8.296875 
L 53.609375 8.296875 
L 53.609375 0 
L 7.328125 0 
L 7.328125 8.296875 
Q 12.9375 14.109375 22.625 23.890625 
Q 32.328125 33.6875 34.8125 36.53125 
Q 39.546875 41.84375 41.421875 45.53125 
Q 43.3125 49.21875 43.3125 52.78125 
Q 43.3125 58.59375 39.234375 62.25 
Q 35.15625 65.921875 28.609375 65.921875 
Q 23.96875 65.921875 18.8125 64.3125 
Q 13.671875 62.703125 7.8125 59.421875 
L 7.8125 69.390625 
Q 13.765625 71.78125 18.9375 73 
Q 24.125 74.21875 28.421875 74.21875 
Q 39.75 74.21875 46.484375 68.546875 
Q 53.21875 62.890625 53.21875 53.421875 
Q 53.21875 48.921875 51.53125 44.890625 
Q 49.859375 40.875 45.40625 35.40625 
Q 44.1875 33.984375 37.640625 27.21875 
Q 31.109375 20.453125 19.1875 8.296875 
z
" id="DejaVuSans-50"/>
       </defs>
       <use xlink:href="#DejaVuSans-50"/>
       <use x="63.623047" xlink:href="#DejaVuSans-48"/>
      </g>
     </g>
    </g>
    <g id="xtick_3">
     <g id="line2d_3">
      <g>
       <use style="stroke:#000000;stroke-width:0.8;" x="175.446449" xlink:href="#m5549ae36fe" y="224.64"/>
      </g>
     </g>
     <g id="text_3">
      <!-- 40 -->
      <g transform="translate(169.083949 239.238437)scale(0.1 -0.1)">
       <defs>
        <path d="M 37.796875 64.3125 
L 12.890625 25.390625 
L 37.796875 25.390625 
z
M 35.203125 72.90625 
L 47.609375 72.90625 
L 47.609375 25.390625 
L 58.015625 25.390625 
L 58.015625 17.1875 
L 47.609375 17.1875 
L 47.609375 0 
L 37.796875 0 
L 37.796875 17.1875 
L 4.890625 17.1875 
L 4.890625 26.703125 
z
" id="DejaVuSans-52"/>
       </defs>
       <use xlink:href="#DejaVuSans-52"/>
       <use x="63.623047" xlink:href="#DejaVuSans-48"/>
      </g>
     </g>
    </g>
    <g id="xtick_4">
     <g id="line2d_4">
      <g>
       <use style="stroke:#000000;stroke-width:0.8;" x="236.319176" xlink:href="#m5549ae36fe" y="224.64"/>
      </g>
     </g>
     <g id="text_4">
      <!-- 60 -->
      <g transform="translate(229.956676 239.238437)scale(0.1 -0.1)">
       <defs>
        <path d="M 33.015625 40.375 
Q 26.375 40.375 22.484375 35.828125 
Q 18.609375 31.296875 18.609375 23.390625 
Q 18.609375 15.53125 22.484375 10.953125 
Q 26.375 6.390625 33.015625 6.390625 
Q 39.65625 6.390625 43.53125 10.953125 
Q 47.40625 15.53125 47.40625 23.390625 
Q 47.40625 31.296875 43.53125 35.828125 
Q 39.65625 40.375 33.015625 40.375 
z
M 52.59375 71.296875 
L 52.59375 62.3125 
Q 48.875 64.0625 45.09375 64.984375 
Q 41.3125 65.921875 37.59375 65.921875 
Q 27.828125 65.921875 22.671875 59.328125 
Q 17.53125 52.734375 16.796875 39.40625 
Q 19.671875 43.65625 24.015625 45.921875 
Q 28.375 48.1875 33.59375 48.1875 
Q 44.578125 48.1875 50.953125 41.515625 
Q 57.328125 34.859375 57.328125 23.390625 
Q 57.328125 12.15625 50.6875 5.359375 
Q 44.046875 -1.421875 33.015625 -1.421875 
Q 20.359375 -1.421875 13.671875 8.265625 
Q 6.984375 17.96875 6.984375 36.375 
Q 6.984375 53.65625 15.1875 63.9375 
Q 23.390625 74.21875 37.203125 74.21875 
Q 40.921875 74.21875 44.703125 73.484375 
Q 48.484375 72.75 52.59375 71.296875 
z
" id="DejaVuSans-54"/>
       </defs>
       <use xlink:href="#DejaVuSans-54"/>
       <use x="63.623047" xlink:href="#DejaVuSans-48"/>
      </g>
     </g>
    </g>
    <g id="xtick_5">
     <g id="line2d_5">
      <g>
       <use style="stroke:#000000;stroke-width:0.8;" x="297.191903" xlink:href="#m5549ae36fe" y="224.64"/>
      </g>
     </g>
     <g id="text_5">
      <!-- 80 -->
      <g transform="translate(290.829403 239.238437)scale(0.1 -0.1)">
       <defs>
        <path d="M 31.78125 34.625 
Q 24.75 34.625 20.71875 30.859375 
Q 16.703125 27.09375 16.703125 20.515625 
Q 16.703125 13.921875 20.71875 10.15625 
Q 24.75 6.390625 31.78125 6.390625 
Q 38.8125 6.390625 42.859375 10.171875 
Q 46.921875 13.96875 46.921875 20.515625 
Q 46.921875 27.09375 42.890625 30.859375 
Q 38.875 34.625 31.78125 34.625 
z
M 21.921875 38.8125 
Q 15.578125 40.375 12.03125 44.71875 
Q 8.5 49.078125 8.5 55.328125 
Q 8.5 64.0625 14.71875 69.140625 
Q 20.953125 74.21875 31.78125 74.21875 
Q 42.671875 74.21875 48.875 69.140625 
Q 55.078125 64.0625 55.078125 55.328125 
Q 55.078125 49.078125 51.53125 44.71875 
Q 48 40.375 41.703125 38.8125 
Q 48.828125 37.15625 52.796875 32.3125 
Q 56.78125 27.484375 56.78125 20.515625 
Q 56.78125 9.90625 50.3125 4.234375 
Q 43.84375 -1.421875 31.78125 -1.421875 
Q 19.734375 -1.421875 13.25 4.234375 
Q 6.78125 9.90625 6.78125 20.515625 
Q 6.78125 27.484375 10.78125 32.3125 
Q 14.796875 37.15625 21.921875 38.8125 
z
M 18.3125 54.390625 
Q 18.3125 48.734375 21.84375 45.5625 
Q 25.390625 42.390625 31.78125 42.390625 
Q 38.140625 42.390625 41.71875 45.5625 
Q 45.3125 48.734375 45.3125 54.390625 
Q 45.3125 60.0625 41.71875 63.234375 
Q 38.140625 66.40625 31.78125 66.40625 
Q 25.390625 66.40625 21.84375 63.234375 
Q 18.3125 60.0625 18.3125 54.390625 
z
" id="DejaVuSans-56"/>
       </defs>
       <use xlink:href="#DejaVuSans-56"/>
       <use x="63.623047" xlink:href="#DejaVuSans-48"/>
      </g>
     </g>
    </g>
    <g id="xtick_6">
     <g id="line2d_6">
      <g>
       <use style="stroke:#000000;stroke-width:0.8;" x="358.064631" xlink:href="#m5549ae36fe" y="224.64"/>
      </g>
     </g>
     <g id="text_6">
      <!-- 100 -->
      <g transform="translate(348.520881 239.238437)scale(0.1 -0.1)">
       <defs>
        <path d="M 12.40625 8.296875 
L 28.515625 8.296875 
L 28.515625 63.921875 
L 10.984375 60.40625 
L 10.984375 69.390625 
L 28.421875 72.90625 
L 38.28125 72.90625 
L 38.28125 8.296875 
L 54.390625 8.296875 
L 54.390625 0 
L 12.40625 0 
z
" id="DejaVuSans-49"/>
       </defs>
       <use xlink:href="#DejaVuSans-49"/>
       <use x="63.623047" xlink:href="#DejaVuSans-48"/>
       <use x="127.246094" xlink:href="#DejaVuSans-48"/>
      </g>
     </g>
    </g>
   </g>
   <g id="matplotlib.axis_2">
    <g id="ytick_1">
     <g id="line2d_7">
      <defs>
       <path d="M 0 0 
L -3.5 0 
" id="m9515c84c4c" style="stroke:#000000;stroke-width:0.8;"/>
      </defs>
      <g>
       <use style="stroke:#000000;stroke-width:0.8;" x="38.482813" xlink:href="#m9515c84c4c" y="209.684407"/>
      </g>
     </g>
     <g id="text_7">
      <!-- −0.6 -->
      <g transform="translate(7.2 213.483626)scale(0.1 -0.1)">
       <defs>
        <path d="M 10.59375 35.5 
L 73.1875 35.5 
L 73.1875 27.203125 
L 10.59375 27.203125 
z
" id="DejaVuSans-8722"/>
        <path d="M 10.6875 12.40625 
L 21 12.40625 
L 21 0 
L 10.6875 0 
z
" id="DejaVuSans-46"/>
       </defs>
       <use xlink:href="#DejaVuSans-8722"/>
       <use x="83.789062" xlink:href="#DejaVuSans-48"/>
       <use x="147.412109" xlink:href="#DejaVuSans-46"/>
       <use x="179.199219" xlink:href="#DejaVuSans-54"/>
      </g>
     </g>
    </g>
    <g id="ytick_2">
     <g id="line2d_8">
      <g>
       <use style="stroke:#000000;stroke-width:0.8;" x="38.482813" xlink:href="#m9515c84c4c" y="178.429605"/>
      </g>
     </g>
     <g id="text_8">
      <!-- −0.4 -->
      <g transform="translate(7.2 182.228823)scale(0.1 -0.1)">
       <use xlink:href="#DejaVuSans-8722"/>
       <use x="83.789062" xlink:href="#DejaVuSans-48"/>
       <use x="147.412109" xlink:href="#DejaVuSans-46"/>
       <use x="179.199219" xlink:href="#DejaVuSans-52"/>
      </g>
     </g>
    </g>
    <g id="ytick_3">
     <g id="line2d_9">
      <g>
       <use style="stroke:#000000;stroke-width:0.8;" x="38.482813" xlink:href="#m9515c84c4c" y="147.174802"/>
      </g>
     </g>
     <g id="text_9">
      <!-- −0.2 -->
      <g transform="translate(7.2 150.974021)scale(0.1 -0.1)">
       <use xlink:href="#DejaVuSans-8722"/>
       <use x="83.789062" xlink:href="#DejaVuSans-48"/>
       <use x="147.412109" xlink:href="#DejaVuSans-46"/>
       <use x="179.199219" xlink:href="#DejaVuSans-50"/>
      </g>
     </g>
    </g>
    <g id="ytick_4">
     <g id="line2d_10">
      <g>
       <use style="stroke:#000000;stroke-width:0.8;" x="38.482813" xlink:href="#m9515c84c4c" y="115.919999"/>
      </g>
     </g>
     <g id="text_10">
      <!-- 0.0 -->
      <g transform="translate(15.579688 119.719218)scale(0.1 -0.1)">
       <use xlink:href="#DejaVuSans-48"/>
       <use x="63.623047" xlink:href="#DejaVuSans-46"/>
       <use x="95.410156" xlink:href="#DejaVuSans-48"/>
      </g>
     </g>
    </g>
    <g id="ytick_5">
     <g id="line2d_11">
      <g>
       <use style="stroke:#000000;stroke-width:0.8;" x="38.482813" xlink:href="#m9515c84c4c" y="84.665197"/>
      </g>
     </g>
     <g id="text_11">
      <!-- 0.2 -->
      <g transform="translate(15.579688 88.464415)scale(0.1 -0.1)">
       <use xlink:href="#DejaVuSans-48"/>
       <use x="63.623047" xlink:href="#DejaVuSans-46"/>
       <use x="95.410156" xlink:href="#DejaVuSans-50"/>
      </g>
     </g>
    </g>
    <g id="ytick_6">
     <g id="line2d_12">
      <g>
       <use style="stroke:#000000;stroke-width:0.8;" x="38.482813" xlink:href="#m9515c84c4c" y="53.410394"/>
      </g>
     </g>
     <g id="text_12">
      <!-- 0.4 -->
      <g transform="translate(15.579688 57.209613)scale(0.1 -0.1)">
       <use xlink:href="#DejaVuSans-48"/>
       <use x="63.623047" xlink:href="#DejaVuSans-46"/>
       <use x="95.410156" xlink:href="#DejaVuSans-52"/>
      </g>
     </g>
    </g>
    <g id="ytick_7">
     <g id="line2d_13">
      <g>
       <use style="stroke:#000000;stroke-width:0.8;" x="38.482813" xlink:href="#m9515c84c4c" y="22.155591"/>
      </g>
     </g>
     <g id="text_13">
      <!-- 0.6 -->
      <g transform="translate(15.579688 25.95481)scale(0.1 -0.1)">
       <use xlink:href="#DejaVuSans-48"/>
       <use x="63.623047" xlink:href="#DejaVuSans-46"/>
       <use x="95.410156" xlink:href="#DejaVuSans-54"/>
      </g>
     </g>
    </g>
   </g>
   <g id="line2d_14">
    <path clip-path="url(#p34d7d1a83f)" d="M 53.700994 146.462116 
L 54.005663 144.757209 
L 54.310331 139.83283 
L 54.919668 122.822797 
L 55.833672 94.459164 
L 56.138341 88.498074 
L 56.443009 85.59845 
L 56.747677 86.084014 
L 57.052346 89.900557 
L 57.661682 105.497907 
L 58.575687 134.61887 
L 58.880355 141.530572 
L 59.185024 145.583033 
L 59.489692 146.323825 
L 59.79436 143.670242 
L 60.099029 137.918539 
L 60.708365 119.963516 
L 61.62237 92.490684 
L 61.927039 87.343917 
L 62.231707 85.38747 
L 62.536375 86.839765 
L 62.841043 91.538665 
L 63.45038 108.273988 
L 64.364385 136.829656 
L 64.669053 142.996392 
L 64.973722 146.140237 
L 65.27839 145.910205 
L 65.583058 142.331977 
L 66.192395 127.05807 
L 67.411068 90.734373 
L 67.715736 86.448537 
L 68.020405 85.452984 
L 68.325073 87.858859 
L 68.629741 93.397564 
L 69.239078 111.119309 
L 70.153083 138.851091 
L 70.457751 144.217015 
L 70.762419 146.423775 
L 71.067088 145.225003 
L 71.371756 140.754532 
L 71.981093 124.304424 
L 72.895098 95.574646 
L 73.199766 89.206137 
L 73.504434 85.820043 
L 73.809102 85.794399 
L 74.113771 89.132067 
L 74.723107 104.072941 
L 75.941781 140.664868 
L 76.246449 145.181388 
L 76.551117 146.431079 
L 76.855785 144.274422 
L 77.160454 138.952192 
L 77.76979 121.47485 
L 78.683795 93.501526 
L 78.988464 87.919814 
L 79.293132 85.464126 
L 79.5978 86.408623 
L 79.902469 90.647859 
L 80.511805 106.802425 
L 81.42581 135.688276 
L 81.730478 142.254562 
L 82.035147 145.880777 
L 82.339815 146.162082 
L 82.644483 143.06707 
L 82.949152 136.941278 
L 83.558488 118.594973 
L 84.472493 91.631422 
L 84.777161 86.887053 
L 85.08183 85.38401 
L 85.386498 87.290095 
L 85.691166 92.392509 
L 86.300503 109.614476 
L 87.214508 137.81178 
L 87.519176 143.605777 
L 87.823844 146.30885 
L 88.128513 145.619221 
L 88.433181 141.613883 
L 89.042518 125.764999 
L 89.956523 96.741208 
L 90.261191 89.981269 
L 90.565859 86.117207 
L 90.870527 85.580419 
L 91.175196 88.430831 
L 91.479864 94.350217 
L 92.089201 112.483627 
L 93.003206 139.737038 
L 93.307874 144.706277 
L 93.612542 146.46173 
L 93.917211 144.807413 
L 94.221879 139.928018 
L 94.831215 122.972238 
L 95.74522 94.568654 
L 96.049889 88.56601 
L 96.354557 85.617247 
L 96.659225 86.051575 
L 96.963894 89.820502 
L 97.57323 105.353753 
L 98.487235 134.497265 
L 98.791903 141.446614 
L 99.096572 145.546096 
L 99.40124 146.338032 
L 99.705908 143.734007 
L 100.010577 138.024743 
L 100.619913 120.115613 
L 101.533918 92.589451 
L 101.838586 87.398461 
L 102.143255 85.391701 
L 102.447923 86.793211 
L 102.752591 91.446523 
L 103.361928 108.125473 
L 104.275933 136.717506 
L 104.580601 142.925029 
L 104.88527 146.117629 
L 105.189938 145.938876 
L 105.494606 142.408725 
L 106.103943 127.200858 
L 107.322616 90.821524 
L 107.627284 86.489196 
L 107.931953 85.442611 
L 108.236621 87.798612 
L 108.541289 93.29417 
L 109.150626 110.967778 
L 110.064631 138.749411 
L 110.369299 144.158893 
L 110.673967 146.415701 
L 110.978636 145.267877 
L 111.283304 140.843568 
L 111.892641 124.45192 
L 112.806645 95.689387 
L 113.111314 89.280882 
L 113.415982 85.846448 
L 113.72065 85.769515 
L 114.025319 89.058673 
L 114.329987 95.346709 
L 115.243992 124.0088 
L 115.853328 140.574579 
L 116.157997 145.137034 
L 116.462665 146.437612 
L 116.767333 144.331112 
L 117.072002 139.052711 
L 117.681338 121.625719 
L 118.595343 93.606055 
L 118.900012 87.981477 
L 119.20468 85.476038 
L 119.509348 86.369455 
L 119.814016 90.561983 
L 120.423353 106.65604 
L 121.337358 135.571017 
L 121.642026 142.176481 
L 121.946695 145.850593 
L 122.251363 146.183163 
L 122.556031 143.137063 
L 122.860699 137.052369 
L 123.470036 118.747848 
L 124.384041 91.724793 
L 124.688709 86.935075 
L 124.993378 85.381321 
L 125.298046 87.236996 
L 125.602714 92.294928 
L 126.212051 109.464363 
L 127.126056 137.704468 
L 127.430724 143.540612 
L 127.735392 146.293108 
L 128.040061 145.654659 
L 128.344729 141.696544 
L 128.954066 125.910181 
L 129.86807 96.860912 
L 130.172739 90.062636 
L 130.477407 86.151153 
L 130.782075 85.563154 
L 131.086744 88.364283 
L 131.391412 94.241815 
L 132.000749 112.331146 
L 132.914754 139.640644 
L 133.219422 144.654618 
L 133.52409 146.460573 
L 133.828758 144.856887 
L 134.133427 140.0226 
L 134.742763 123.1215 
L 135.656768 94.678682 
L 135.961437 88.634636 
L 136.266105 85.63681 
L 136.570773 86.01989 
L 136.875441 89.741107 
L 137.484778 105.209866 
L 138.398783 134.375191 
L 138.703451 141.362012 
L 139.00812 145.50841 
L 139.312788 146.35147 
L 139.617456 143.797069 
L 139.922125 138.130389 
L 140.531461 120.267604 
L 141.445466 92.688808 
L 141.750134 87.453725 
L 142.054803 85.396703 
L 142.359471 86.747393 
L 142.664139 91.355 
L 143.273476 107.977155 
L 144.187481 136.604831 
L 144.492149 142.852984 
L 144.796817 146.094258 
L 145.101486 145.966788 
L 145.406154 142.484804 
L 146.015491 127.34336 
L 147.234164 90.909309 
L 147.538832 86.530598 
L 147.8435 85.433007 
L 148.148169 87.739076 
L 148.452837 93.191347 
L 149.062174 110.816373 
L 149.976179 138.647154 
L 150.280847 144.100059 
L 150.585515 146.406857 
L 150.890184 145.310011 
L 151.194852 140.931976 
L 151.804188 124.5992 
L 152.718193 95.804638 
L 153.022862 89.3563 
L 153.32753 85.873612 
L 153.632198 85.745393 
L 153.936867 88.985958 
L 154.241535 95.233519 
L 155.15554 123.86068 
L 155.764876 140.483667 
L 156.069545 145.091942 
L 156.374213 146.443374 
L 156.678881 144.387085 
L 156.98355 139.152645 
L 157.592886 121.776443 
L 158.506891 93.711148 
L 158.811559 88.043845 
L 159.116228 85.488719 
L 159.420896 86.331033 
L 159.725564 90.476747 
L 160.334901 106.50989 
L 161.248906 135.453262 
L 161.553574 142.097737 
L 161.858242 145.819652 
L 162.162911 146.20348 
L 162.467579 143.206369 
L 162.772247 137.162926 
L 163.381584 118.900652 
L 164.295589 91.818775 
L 164.600257 86.983829 
L 164.904926 85.379403 
L 165.209594 87.184622 
L 165.514262 92.197944 
L 166.123599 109.314413 
L 167.037604 137.596605 
L 167.342272 143.474749 
L 167.64694 146.276599 
L 167.951609 145.689346 
L 168.256277 141.778555 
L 168.865613 126.05511 
L 169.779618 96.981097 
L 170.084287 90.144656 
L 170.388955 86.185851 
L 170.693623 85.546655 
L 170.998292 88.298431 
L 171.30296 94.133961 
L 171.912297 112.178756 
L 172.826301 139.543651 
L 173.13097 144.602233 
L 173.435638 146.458644 
L 173.740306 144.90563 
L 174.044975 140.116573 
L 174.654311 123.27058 
L 175.568316 94.789247 
L 175.872984 88.703952 
L 176.177653 85.657138 
L 176.482321 85.98896 
L 176.786989 89.662373 
L 177.396326 105.066249 
L 178.310331 134.252651 
L 178.614999 141.276767 
L 178.919668 145.469977 
L 179.224336 146.36414 
L 179.529004 143.859427 
L 179.833672 138.235473 
L 180.443009 120.419485 
L 181.357014 92.788751 
L 181.661682 87.509709 
L 181.966351 85.402477 
L 182.271019 86.702312 
L 182.575687 91.264098 
L 183.185024 107.829038 
L 184.099029 136.491633 
L 184.403697 142.780259 
L 184.708365 146.070125 
L 185.013034 145.993941 
L 185.317702 142.560212 
L 185.927039 127.485574 
L 187.145712 90.997725 
L 187.45038 86.572742 
L 187.755048 85.424174 
L 188.059717 87.680252 
L 188.364385 93.089099 
L 188.973722 110.665097 
L 189.887727 138.544324 
L 190.192395 144.040512 
L 190.497063 146.397242 
L 190.801731 145.351401 
L 191.1064 141.019751 
L 191.715736 124.746261 
L 192.629741 95.920398 
L 192.93441 89.432389 
L 193.239078 85.901536 
L 193.543746 85.722034 
L 193.848414 88.913923 
L 194.153083 95.120852 
L 195.067088 123.712359 
L 195.676424 140.392135 
L 195.981093 145.046113 
L 196.285761 146.448365 
L 196.590429 144.442339 
L 196.895098 139.251993 
L 197.504434 121.92702 
L 198.418439 93.816801 
L 198.723107 88.106917 
L 199.027776 85.502169 
L 199.332444 86.293358 
L 199.637112 90.392154 
L 200.246449 106.363977 
L 201.160454 135.335013 
L 201.465122 142.018332 
L 201.76979 145.787956 
L 202.074459 146.223031 
L 202.379127 143.274985 
L 202.683795 137.272947 
L 203.293132 119.053381 
L 204.207137 91.913365 
L 204.511805 87.033313 
L 204.816473 85.378258 
L 205.121142 87.132973 
L 205.42581 92.101559 
L 206.035147 109.164631 
L 206.949152 137.488195 
L 207.25382 143.408191 
L 207.558488 146.259322 
L 207.863156 145.723281 
L 208.167825 141.859912 
L 208.777161 126.199783 
L 209.691166 97.101761 
L 209.995835 90.227327 
L 210.300503 86.2213 
L 210.605171 85.530924 
L 210.90984 88.233276 
L 211.214508 94.026656 
L 211.823844 112.02646 
L 212.737849 139.446061 
L 213.042518 144.549123 
L 213.347186 146.455944 
L 213.651854 144.953641 
L 213.956523 140.209935 
L 214.565859 123.419474 
L 215.479864 94.900346 
L 215.784532 88.773955 
L 216.089201 85.67823 
L 216.393869 85.958786 
L 216.698537 89.584302 
L 217.307874 104.922907 
L 218.221879 134.129648 
L 218.526547 141.190882 
L 218.831215 145.430798 
L 219.135884 146.37604 
L 219.440552 143.921079 
L 219.74522 138.339994 
L 220.354557 120.571252 
L 221.268562 92.889278 
L 221.57323 87.56641 
L 221.877898 85.409021 
L 222.182567 86.657969 
L 222.487235 91.173818 
L 223.096572 107.681125 
L 224.010577 136.377916 
L 224.315245 142.706856 
L 224.619913 146.045231 
L 224.924582 146.020335 
L 225.22925 142.634947 
L 225.838586 127.627496 
L 227.05726 91.086771 
L 227.361928 86.615627 
L 227.666596 85.416111 
L 227.971265 87.622141 
L 228.275933 92.987428 
L 228.88527 110.513953 
L 229.799274 138.440922 
L 230.103943 143.980255 
L 230.408611 146.386858 
L 230.713279 145.392049 
L 231.017948 141.106892 
L 231.627284 124.8931 
L 232.541289 96.036663 
L 232.845957 89.509147 
L 233.150626 85.930217 
L 233.455294 85.699437 
L 233.759962 88.84257 
L 234.064631 95.008709 
L 234.978636 123.563842 
L 235.587972 140.299984 
L 235.892641 144.999549 
L 236.197309 146.452585 
L 236.501977 144.496872 
L 236.806645 139.350752 
L 237.415982 122.077445 
L 238.329987 93.923013 
L 238.634655 88.170692 
L 238.939324 85.516387 
L 239.243992 86.256432 
L 239.54866 90.308206 
L 240.157997 106.218305 
L 241.072002 135.216274 
L 241.37667 141.938268 
L 241.681338 145.755505 
L 241.986007 146.241817 
L 242.290675 143.342911 
L 242.595343 137.382428 
L 243.20468 119.206031 
L 244.118685 92.008562 
L 244.423353 87.083528 
L 244.728021 85.377883 
L 245.03269 87.082052 
L 245.337358 92.005775 
L 245.946695 109.015019 
L 246.860699 137.37924 
L 247.165368 143.340938 
L 247.470036 146.24128 
L 247.774704 145.756463 
L 248.079373 141.940615 
L 248.688709 126.344197 
L 249.602714 97.2229 
L 249.907383 90.310647 
L 250.212051 86.257499 
L 250.516719 85.515961 
L 250.821387 88.168821 
L 251.126056 93.919905 
L 251.735392 111.874262 
L 252.649397 139.347877 
L 252.954066 144.49529 
L 253.258734 146.452473 
L 253.563402 145.000918 
L 253.86807 140.302683 
L 254.477407 123.568179 
L 255.391412 95.011975 
L 255.69608 88.844643 
L 256.000749 85.700086 
L 256.305417 85.929369 
L 256.610085 89.506897 
L 257.219422 104.779842 
L 258.438095 141.104358 
L 258.742763 145.390873 
L 259.047432 146.387172 
L 259.3521 143.982024 
L 259.656768 138.443948 
L 260.266105 120.722902 
L 261.18011 92.990387 
L 261.484778 87.623827 
L 261.789446 85.416336 
L 262.094115 86.614365 
L 262.398783 91.084163 
L 263.00812 107.533421 
L 263.922125 136.263681 
L 264.226793 142.632776 
L 264.531461 146.019575 
L 264.836129 146.045968 
L 265.140798 142.709008 
L 265.750134 127.769122 
L 266.968808 91.176444 
L 267.273476 86.659253 
L 267.578144 85.408819 
L 267.882813 87.564744 
L 268.187481 92.886336 
L 268.796817 110.362946 
L 269.710822 138.336951 
L 270.015491 143.91929 
L 270.320159 146.375704 
L 270.624827 145.431952 
L 270.929496 141.193398 
L 271.538832 125.039712 
L 272.452837 96.15343 
L 272.757505 89.586572 
L 273.062174 85.959656 
L 273.366842 85.677603 
L 273.67151 88.771902 
L 273.976179 94.897095 
L 274.585515 113.242794 
L 275.49952 140.207218 
L 275.804188 144.95225 
L 276.108857 146.456034 
L 276.413525 144.550684 
L 276.718193 139.448918 
L 277.32753 122.227715 
L 278.241535 94.029781 
L 278.546203 88.235168 
L 278.850871 85.531372 
L 279.15554 86.220254 
L 279.460208 90.224905 
L 280.069545 106.072878 
L 280.98355 135.097047 
L 281.288218 141.857547 
L 281.592886 145.722301 
L 281.897555 146.259837 
L 282.202223 143.410143 
L 282.506891 137.491367 
L 283.116228 119.358597 
L 284.030233 92.104363 
L 284.334901 87.13447 
L 284.639569 85.37828 
L 284.944238 87.031859 
L 285.248906 91.910596 
L 285.858242 108.865581 
L 286.772247 137.269743 
L 287.076916 143.272992 
L 287.381584 146.222471 
L 287.686252 145.788892 
L 287.990921 142.02066 
L 288.600257 126.488347 
L 289.514262 97.344512 
L 289.81893 90.394614 
L 290.123599 86.294447 
L 290.428267 85.501765 
L 290.732935 88.105066 
L 291.037604 93.813709 
L 291.64694 111.722167 
L 292.560945 139.249101 
L 292.865613 144.440736 
L 293.170282 146.44823 
L 293.47495 145.047461 
L 293.779618 140.394815 
L 294.388955 123.716691 
L 295.30296 95.124133 
L 295.607628 88.916016 
L 295.912297 85.722705 
L 296.216965 85.90071 
L 296.521633 89.430158 
L 297.13097 104.637059 
L 298.349643 141.017198 
L 298.654311 145.350204 
L 298.95898 146.397534 
L 299.263648 144.04226 
L 299.568316 138.547333 
L 300.177653 120.874431 
L 301.091658 93.092076 
L 301.396326 87.681959 
L 301.700994 85.424421 
L 302.005663 86.571501 
L 302.310331 90.995135 
L 302.919668 107.385928 
L 303.833672 136.148933 
L 304.138341 142.558021 
L 304.443009 145.99316 
L 304.747677 146.070841 
L 305.052346 142.782392 
L 305.357014 136.494945 
L 306.271019 107.833359 
L 306.880355 91.266742 
L 307.185024 86.703617 
L 307.489692 85.402297 
L 307.79436 87.508064 
L 308.099029 92.785825 
L 308.708365 110.212079 
L 309.62237 138.232414 
L 309.927039 143.857617 
L 310.231707 146.363781 
L 310.536375 145.47111 
L 310.841043 141.279264 
L 311.45038 125.186093 
L 312.364385 96.270696 
L 312.669053 89.664662 
L 312.973722 85.989852 
L 313.27839 85.656533 
L 313.583058 88.701919 
L 313.887727 94.786012 
L 314.497063 113.08992 
L 315.411068 140.113838 
L 315.715736 144.904217 
L 316.020405 146.458711 
L 316.325073 144.603772 
L 316.629741 139.54649 
L 317.239078 122.377825 
L 318.153083 94.137101 
L 318.457751 88.300343 
L 318.762419 85.547126 
L 319.067088 86.184827 
L 319.371756 90.142253 
L 319.981093 105.9277 
L 320.895098 134.977336 
L 321.199766 141.77617 
L 321.504434 145.688344 
L 321.809102 146.277091 
L 322.113771 143.476682 
L 322.418439 137.599761 
L 323.027776 119.511077 
L 323.941781 92.200766 
L 324.246449 87.18614 
L 324.551117 85.379449 
L 324.855785 86.982395 
L 325.160454 91.816023 
L 325.76979 108.716322 
L 326.683795 137.159707 
L 326.988464 143.204356 
L 327.293132 146.202897 
L 327.5978 145.820566 
L 327.902469 142.100045 
L 328.511805 126.63223 
L 329.42581 97.466592 
L 329.730478 90.479226 
L 330.035147 86.332144 
L 330.339815 85.488338 
L 330.644483 88.042014 
L 330.949152 93.708072 
L 331.558488 111.570178 
L 332.472493 139.149737 
L 332.777161 144.385461 
L 333.08183 146.443217 
L 333.386498 145.093269 
L 333.691166 140.486329 
L 334.300503 123.865006 
L 335.214508 95.236816 
L 335.519176 88.988071 
L 335.823844 85.746087 
L 336.128513 85.872809 
L 336.433181 89.354089 
L 337.042518 104.49456 
L 338.261191 140.929404 
L 338.565859 145.308791 
L 338.870527 146.407126 
L 339.175196 144.101786 
L 339.479864 138.650147 
L 340.089201 121.025834 
L 341.003206 93.194341 
L 341.307874 87.740804 
L 341.612542 85.433277 
L 341.917211 86.529379 
L 342.221879 90.906737 
L 342.831215 107.23865 
L 343.74522 136.033674 
L 344.049889 142.482593 
L 344.354557 145.965984 
L 344.659225 146.094951 
L 344.963894 142.855097 
L 345.268562 136.608127 
L 346.182567 107.981482 
L 346.791903 91.357663 
L 347.096572 86.74872 
L 347.40124 85.396546 
L 347.705908 87.452102 
L 348.010577 92.685899 
L 348.619913 110.061356 
L 349.533918 138.127313 
L 349.838586 143.795238 
L 350.143255 146.351089 
L 350.447923 145.509521 
L 350.752591 141.364491 
L 351.361928 125.33224 
L 352.275933 96.388459 
L 352.580601 89.743415 
L 352.88527 86.020804 
L 353.189938 85.636228 
L 353.494606 88.632623 
L 353.799274 94.675463 
L 354.408611 112.937117 
L 355.322616 140.019848 
L 355.627284 144.855453 
L 355.931953 146.460617 
L 356.236621 144.656136 
L 356.541289 139.643466 
L 357.150626 122.527772 
L 358.064631 94.244972 
L 358.064631 94.244972 
" style="fill:none;stroke:#1f77b4;stroke-linecap:square;stroke-width:1.5;"/>
   </g>
   <g id="line2d_15">
    <path clip-path="url(#p34d7d1a83f)" d="M 53.700994 35.959701 
L 54.005663 40.265903 
L 54.310331 52.720696 
L 54.919668 95.976922 
L 55.833672 169.657041 
L 56.138341 185.932202 
L 56.443009 194.666453 
L 56.747677 194.91904 
L 57.052346 186.662758 
L 57.357014 170.786878 
L 57.966351 123.652713 
L 58.880355 53.675342 
L 59.185024 40.778225 
L 59.489692 35.974517 
L 59.79436 39.781618 
L 60.099029 51.789471 
L 60.708365 94.490056 
L 61.62237 168.507289 
L 61.927039 185.175701 
L 62.231707 194.384684 
L 62.536375 195.142352 
L 62.841043 187.367098 
L 63.145712 171.896383 
L 63.755048 125.18327 
L 64.669053 54.653054 
L 64.973722 41.318392 
L 65.27839 36.018959 
L 65.583058 39.325548 
L 65.887727 50.882012 
L 66.497063 93.011131 
L 67.411068 167.33805 
L 67.715736 184.393535 
L 68.020405 194.073837 
L 68.325073 195.336305 
L 68.629741 188.044961 
L 68.93441 172.985144 
L 69.543746 126.710394 
L 70.457751 55.653471 
L 70.762419 41.886206 
L 71.067088 36.093011 
L 71.371756 38.897862 
L 71.676424 49.998654 
L 72.285761 91.540696 
L 73.199766 166.149756 
L 73.504434 183.585994 
L 73.809102 193.734028 
L 74.113771 195.500828 
L 74.418439 188.696096 
L 74.723107 174.052757 
L 75.332444 128.233519 
L 76.246449 56.676222 
L 76.551117 42.481455 
L 76.855785 36.196646 
L 77.160454 38.49872 
L 77.465122 49.139725 
L 78.074459 90.079296 
L 78.988464 164.942848 
L 79.293132 182.753377 
L 79.5978 193.365383 
L 79.902469 195.63586 
L 80.207137 189.320261 
L 80.511805 175.098828 
L 81.121142 129.752081 
L 82.035147 57.720927 
L 82.339815 43.103919 
L 82.644483 36.329824 
L 82.949152 38.128268 
L 83.25382 48.305545 
L 83.863156 88.627472 
L 84.777161 163.717773 
L 85.08183 181.895993 
L 85.386498 192.968037 
L 85.691166 195.741351 
L 85.995835 189.917225 
L 86.300503 176.122968 
L 86.90984 131.265518 
L 87.823844 58.7872 
L 88.128513 43.753368 
L 88.433181 36.492497 
L 88.737849 37.786645 
L 89.042518 47.49642 
L 89.651854 87.185762 
L 90.870527 181.01416 
L 91.175196 192.542139 
L 91.479864 195.817261 
L 91.784532 190.486768 
L 92.089201 177.124798 
L 92.698537 132.773267 
L 93.612542 59.874644 
L 93.917211 44.42956 
L 94.221879 36.684605 
L 94.526547 37.473976 
L 94.831215 46.712653 
L 95.440552 85.7547 
L 96.659225 180.108204 
L 96.963894 192.087846 
L 97.268562 195.863563 
L 97.57323 191.028677 
L 97.877898 178.103947 
L 98.487235 134.274771 
L 99.40124 60.982859 
L 99.705908 45.132245 
L 100.010577 36.906075 
L 100.315245 37.190378 
L 100.619913 45.954532 
L 101.22925 84.334817 
L 102.447923 179.178461 
L 102.752591 191.605327 
L 103.05726 195.880239 
L 103.361928 191.542753 
L 103.666596 179.060051 
L 104.275933 135.769473 
L 105.189938 62.111432 
L 105.494606 45.861163 
L 105.799274 37.156827 
L 106.103943 36.935956 
L 106.408611 45.222339 
L 106.713279 61.123462 
L 107.627284 134.462842 
L 108.236621 178.225275 
L 108.541289 191.09476 
L 108.845957 195.867284 
L 109.150626 192.028804 
L 109.455294 179.992757 
L 110.064631 137.256819 
L 110.978636 63.259945 
L 111.283304 46.616043 
L 111.587972 37.436767 
L 111.892641 36.710804 
L 112.197309 44.516345 
L 112.501977 60.012669 
L 113.111314 106.752728 
L 114.025319 177.249 
L 114.329987 190.556335 
L 114.634655 195.824701 
L 114.939324 192.48665 
L 115.243992 180.901719 
L 115.853328 138.736259 
L 116.767333 64.427974 
L 117.072002 47.396606 
L 117.37667 37.745792 
L 117.681338 36.515005 
L 117.986007 43.836813 
L 118.290675 58.922593 
L 118.900012 105.225372 
L 119.814016 176.249998 
L 120.118685 189.990251 
L 120.423353 195.752507 
L 120.728021 192.916122 
L 121.03269 181.786599 
L 121.642026 140.207243 
L 122.556031 65.615084 
L 122.860699 48.202563 
L 123.165368 38.083786 
L 123.470036 36.348632 
L 123.774704 43.183993 
L 124.079373 57.85364 
L 124.688709 103.701979 
L 125.602714 175.228639 
L 125.907383 189.396718 
L 126.212051 195.650729 
L 126.516719 193.317062 
L 126.821387 182.647071 
L 127.430724 141.669226 
L 128.344729 66.820837 
L 128.649397 49.033614 
L 128.954066 38.450625 
L 129.258734 36.211747 
L 129.563402 42.558127 
L 129.86807 56.806206 
L 130.477407 102.183113 
L 131.391412 174.185301 
L 131.69608 188.775956 
L 132.000749 195.519404 
L 132.305417 193.689319 
L 132.610085 183.482815 
L 133.219422 143.121667 
L 134.133427 68.044784 
L 134.438095 49.889452 
L 134.742763 38.846173 
L 135.047432 36.104401 
L 135.3521 41.959448 
L 135.656768 55.780677 
L 136.266105 100.669339 
L 137.18011 173.120371 
L 137.484778 188.128195 
L 137.789446 195.358581 
L 138.094115 194.032756 
L 138.398783 184.293521 
L 139.00812 144.564028 
L 140.226793 50.76976 
L 140.531461 39.270283 
L 140.836129 36.026632 
L 141.140798 41.388178 
L 141.445466 54.777436 
L 142.054803 99.161216 
L 142.968808 172.034243 
L 143.273476 187.453675 
L 143.578144 195.16832 
L 143.882812 194.347246 
L 144.187481 185.07889 
L 144.796817 145.995774 
L 146.015491 51.674212 
L 146.320159 39.722798 
L 146.624827 35.978471 
L 146.929496 40.844528 
L 147.234164 53.796852 
L 147.8435 97.659303 
L 148.757505 170.927321 
L 149.062174 186.752645 
L 149.366842 194.94869 
L 149.67151 194.632672 
L 149.976179 185.838629 
L 150.585515 147.416375 
L 151.804188 52.602472 
L 152.108857 40.20355 
L 152.413525 35.959934 
L 152.718193 40.328699 
L 153.022862 52.83929 
L 153.632198 96.164158 
L 154.546203 169.800014 
L 154.850871 186.025367 
L 155.15554 194.699774 
L 155.460208 194.888929 
L 155.764876 186.572458 
L 156.069545 170.646115 
L 156.98355 97.283161 
L 157.592886 53.554196 
L 157.897555 40.712361 
L 158.202223 35.97103 
L 158.506891 39.840883 
L 158.811559 51.905105 
L 159.420896 94.676333 
L 160.334901 168.65274 
L 160.639569 185.272108 
L 160.944238 194.421664 
L 161.248906 195.115922 
L 161.553574 187.280104 
L 161.858242 171.758195 
L 162.467579 124.991258 
L 163.381584 54.529031 
L 163.686252 41.249043 
L 163.990921 36.011752 
L 164.295589 39.381261 
L 164.600257 50.994643 
L 165.209594 93.196382 
L 166.123599 167.485924 
L 166.428267 184.493149 
L 166.732935 194.114462 
L 167.037604 195.313565 
L 167.342272 187.961306 
L 167.64694 172.849583 
L 168.256277 126.518844 
L 169.170282 55.526617 
L 169.47495 41.813396 
L 169.779618 36.082088 
L 170.084287 38.950002 
L 170.388955 50.108241 
L 170.998292 91.724851 
L 171.912297 166.299999 
L 172.216965 183.688778 
L 172.521633 193.778283 
L 172.826301 195.481788 
L 173.13097 188.61581 
L 173.435638 173.919874 
L 174.044975 128.042503 
L 174.95898 56.546584 
L 175.263648 42.405212 
L 175.568316 36.182009 
L 175.872984 38.547267 
L 176.177653 49.246227 
L 176.786989 90.262286 
L 177.700994 165.095404 
L 178.005663 182.859293 
L 178.310331 193.413251 
L 178.614999 195.620526 
L 178.919668 189.243374 
L 179.224336 174.968671 
L 179.833672 129.561669 
L 180.747677 57.588554 
L 181.052346 43.024272 
L 181.357014 36.311481 
L 181.661682 38.173205 
L 181.966351 48.408921 
L 182.575687 88.80923 
L 183.489692 163.872585 
L 183.79436 182.005002 
L 184.099029 193.019502 
L 184.403697 195.729728 
L 184.708365 189.843767 
L 185.013034 175.995586 
L 185.62237 131.07578 
L 186.536375 58.65214 
L 186.841043 43.670345 
L 187.145712 36.470453 
L 187.45038 37.827955 
L 187.755048 47.596634 
L 188.364385 87.36622 
L 189.583058 181.126221 
L 189.887727 192.59718 
L 190.192395 195.809354 
L 190.497063 190.416764 
L 190.801731 177.000238 
L 191.411068 132.584274 
L 192.325073 59.736948 
L 192.629741 44.343192 
L 192.93441 36.658869 
L 193.239078 37.511644 
L 193.543746 46.809666 
L 194.153083 85.933792 
L 195.371756 180.223276 
L 195.676424 192.146444 
L 195.981093 195.859375 
L 196.285761 190.962155 
L 196.590429 177.982255 
L 197.199766 134.086593 
L 198.113771 60.842577 
L 198.418439 45.042565 
L 198.723107 36.876657 
L 199.027776 37.224389 
L 199.332444 46.04831 
L 199.941781 84.512477 
L 201.160454 179.296501 
L 201.465122 191.66746 
L 201.76979 195.879772 
L 202.074459 191.479736 
L 202.379127 178.941273 
L 202.988464 135.582179 
L 203.902469 61.968616 
L 204.207137 45.768203 
L 204.511805 37.123736 
L 204.816473 36.966298 
L 205.121142 45.312846 
L 205.42581 61.264385 
L 206.339815 134.650805 
L 206.949152 178.346239 
L 207.25382 191.160405 
L 207.558488 195.870537 
L 207.863156 191.969316 
L 208.167825 179.876936 
L 208.777161 137.07048 
L 209.691166 63.114649 
L 209.995835 46.519839 
L 210.300503 37.400017 
L 210.605171 36.737466 
L 210.90984 44.603548 
L 211.214508 60.151019 
L 211.823844 106.944766 
L 212.737849 177.372844 
L 213.042518 190.625467 
L 213.347186 195.831674 
L 213.651854 192.430714 
L 213.956523 180.788898 
L 214.565859 138.550942 
L 215.479864 64.280251 
L 215.784532 47.297193 
L 216.089201 37.705395 
L 216.393869 36.537977 
L 216.698537 43.920679 
L 217.003206 59.05832 
L 217.612542 105.416952 
L 218.526547 176.376676 
L 218.831215 190.062845 
L 219.135884 195.763197 
L 219.440552 192.863758 
L 219.74522 181.67682 
L 220.354557 140.023017 
L 221.268562 65.464989 
L 221.57323 48.099977 
L 221.877898 38.039759 
L 222.182567 36.367906 
L 222.487235 43.264491 
L 222.791903 57.986693 
L 223.40124 103.893031 
L 224.315245 175.358103 
L 224.619913 189.472746 
L 224.924582 195.665132 
L 225.22925 193.268288 
L 225.533918 182.540375 
L 226.143255 141.486161 
L 227.05726 66.668425 
L 227.361928 48.927894 
L 227.666596 38.402983 
L 227.971265 36.227315 
L 228.275933 42.635228 
L 228.580601 56.936535 
L 229.189938 102.373566 
L 230.103943 174.317504 
L 230.408611 188.855391 
L 230.713279 195.537515 
L 231.017948 193.644155 
L 231.322616 183.379241 
L 231.931953 142.93983 
L 232.845957 67.890113 
L 233.150626 49.780637 
L 233.455294 38.794934 
L 233.759962 36.116257 
L 234.064631 42.033123 
L 234.369299 55.908235 
L 234.978636 100.859121 
L 235.892641 173.255264 
L 236.197309 188.211007 
L 236.501977 195.380393 
L 236.806645 193.991218 
L 237.111314 184.193108 
L 237.72065 144.383486 
L 238.939324 50.65789 
L 239.243992 39.215465 
L 239.54866 36.034773 
L 239.853328 41.458399 
L 240.157997 54.902174 
L 240.767333 99.350258 
L 241.681338 172.171776 
L 241.986007 187.539833 
L 242.290675 195.193824 
L 242.595343 194.309349 
L 242.900012 184.981674 
L 243.509348 145.816594 
L 244.728021 51.559328 
L 245.03269 39.664423 
L 245.337358 35.982892 
L 245.642026 40.911269 
L 245.946695 53.918725 
L 246.556031 97.847535 
L 247.470036 171.067442 
L 247.774704 186.842118 
L 248.079373 194.977878 
L 248.384041 194.598431 
L 248.688709 185.744647 
L 249.298046 147.238623 
L 250.516719 52.484617 
L 250.821387 40.141639 
L 251.126056 35.960635 
L 251.430724 40.391936 
L 251.735392 52.958253 
L 252.344729 96.351509 
L 253.258734 169.942672 
L 253.563402 186.118121 
L 253.86807 194.732635 
L 254.172739 194.858356 
L 254.477407 186.481744 
L 254.782075 170.505032 
L 255.69608 97.095253 
L 256.305417 53.433414 
L 256.610085 40.646937 
L 256.914754 35.96801 
L 257.219422 39.900593 
L 257.52409 52.021113 
L 258.133427 94.862735 
L 259.047432 168.797882 
L 259.3521 185.36811 
L 259.656768 194.458185 
L 259.961437 195.089028 
L 260.266105 187.192693 
L 260.570773 171.619682 
L 261.18011 124.799193 
L 262.094115 54.405367 
L 262.398783 41.18013 
L 262.703451 36.005013 
L 263.00812 39.437421 
L 263.312788 51.107654 
L 263.922125 93.381765 
L 264.836129 167.633496 
L 265.140798 184.592362 
L 265.445466 194.15463 
L 265.750134 195.290362 
L 266.054803 187.877229 
L 266.359471 172.71369 
L 266.968808 126.327233 
L 267.882813 55.400116 
L 268.187481 41.74102 
L 268.492149 36.071631 
L 268.796817 39.002591 
L 269.101486 50.218212 
L 269.710822 91.909146 
L 270.624827 166.449947 
L 270.929496 183.791166 
L 271.234164 193.822083 
L 271.538832 195.462282 
L 271.8435 188.535099 
L 272.148169 173.786652 
L 272.757505 127.851415 
L 273.67151 56.417293 
L 273.976179 42.329399 
L 274.280847 36.167839 
L 274.585515 38.596266 
L 274.890184 49.353118 
L 275.49952 90.445426 
L 276.413525 165.247672 
L 276.718193 182.964818 
L 277.022862 193.460667 
L 277.32753 195.604725 
L 277.632198 189.16606 
L 277.936867 174.83817 
L 278.546203 129.371177 
L 279.460208 57.456521 
L 279.764876 42.94505 
L 280.069545 36.293603 
L 280.374213 38.218596 
L 280.678881 48.512693 
L 281.288218 88.991146 
L 282.202223 164.027117 
L 282.506891 182.113625 
L 282.811559 193.070515 
L 283.116228 195.717639 
L 283.420896 189.769876 
L 283.725564 175.867853 
L 284.334901 130.885953 
L 285.248906 58.517414 
L 285.553574 43.587744 
L 285.858242 36.448874 
L 286.162911 37.869721 
L 286.467579 47.697247 
L 287.076916 87.546846 
L 288.295589 181.237901 
L 288.600257 192.651774 
L 288.904926 195.800981 
L 289.209594 190.346326 
L 289.514262 176.875322 
L 290.123599 132.395183 
L 291.037604 59.59958 
L 291.342272 44.257243 
L 291.64694 36.633596 
L 291.951609 37.549769 
L 292.256277 46.907084 
L 292.865613 86.11306 
L 294.084287 180.337972 
L 294.388955 192.204596 
L 294.693623 195.85472 
L 294.998292 190.895194 
L 295.30296 177.860201 
L 295.912297 133.898308 
L 296.826301 60.702616 
L 297.13097 44.953299 
L 297.435638 36.847699 
L 297.740306 37.25886 
L 298.044975 46.142496 
L 298.654311 84.69032 
L 299.872984 179.41417 
L 300.177653 191.729149 
L 300.482321 195.878838 
L 300.786989 191.416278 
L 301.091658 178.822126 
L 301.700994 135.394771 
L 302.614999 61.826116 
L 302.919668 45.675654 
L 303.224336 37.091106 
L 303.529004 36.997102 
L 303.833672 45.403765 
L 304.138341 61.405628 
L 305.052346 134.838658 
L 305.661682 178.466839 
L 305.966351 191.225609 
L 306.271019 195.873324 
L 306.575687 191.909384 
L 306.880355 179.760741 
L 307.489692 136.884016 
L 308.403697 62.969661 
L 308.708365 46.42404 
L 309.013034 37.363725 
L 309.317702 36.76459 
L 309.62237 44.691167 
L 309.927039 60.289696 
L 310.536375 107.136857 
L 311.45038 177.496329 
L 311.755048 190.694162 
L 312.059717 195.83818 
L 312.364385 192.37433 
L 312.669053 180.675698 
L 313.27839 138.365493 
L 314.192395 64.132829 
L 314.497063 47.19818 
L 314.801731 37.665456 
L 315.1064 36.561413 
L 315.411068 44.004965 
L 315.715736 59.194379 
L 316.325073 105.608594 
L 317.239078 176.503 
L 317.543746 190.135005 
L 317.848414 195.773421 
L 318.153083 192.810944 
L 318.457751 181.566657 
L 319.067088 139.838652 
L 319.981093 65.315188 
L 320.285761 47.997787 
L 320.590429 37.996186 
L 320.895098 36.387644 
L 321.199766 43.345414 
L 321.504434 58.120084 
L 322.113771 104.084153 
L 323.027776 175.48722 
L 323.332444 189.548345 
L 323.637112 195.679069 
L 323.941781 193.219063 
L 324.246449 182.433289 
L 324.855785 141.302946 
L 325.76979 66.516301 
L 326.074459 48.822565 
L 326.379127 38.355794 
L 326.683795 36.243348 
L 326.988464 42.712757 
L 327.293132 57.067209 
L 327.902469 102.564098 
L 328.816473 174.449366 
L 329.121142 188.934399 
L 329.42581 195.55516 
L 329.730478 193.598536 
L 330.035147 183.275272 
L 330.644483 142.757835 
L 331.558488 67.735722 
L 331.863156 49.672208 
L 332.167825 38.744145 
L 332.472493 36.128579 
L 332.777161 42.107229 
L 333.08183 56.036143 
L 333.691166 101.048992 
L 334.605171 173.389821 
L 334.90984 188.293396 
L 335.214508 195.40174 
L 335.519176 193.949224 
L 335.823844 184.092295 
L 336.433181 144.202778 
L 337.651854 50.546401 
L 337.956523 39.161096 
L 338.261191 36.04338 
L 338.565859 41.529055 
L 338.870527 55.027269 
L 339.479864 99.539397 
L 340.393869 172.30898 
L 340.698537 187.625573 
L 341.003206 195.218866 
L 341.307874 194.270995 
L 341.612542 184.884054 
L 342.221879 145.63724 
L 343.440552 51.44482 
L 343.74522 39.606493 
L 344.049889 35.987781 
L 344.354557 40.978449 
L 344.659225 54.040961 
L 345.268562 98.035872 
L 346.182567 171.207241 
L 346.487235 186.931177 
L 346.791903 195.006604 
L 347.096572 194.56373 
L 347.40124 185.650257 
L 348.010577 147.060689 
L 349.22925 52.367133 
L 349.533918 40.08017 
L 349.838586 35.961803 
L 350.143255 40.455615 
L 350.447923 53.077584 
L 351.05726 96.538975 
L 351.971265 170.085015 
L 352.275933 186.210466 
L 352.580601 194.765035 
L 352.88527 194.827322 
L 353.189938 186.390619 
L 353.494606 170.36363 
L 354.408611 96.907455 
L 355.017948 53.312997 
L 355.322616 40.581952 
L 355.627284 35.965457 
L 355.931953 39.960747 
L 356.236621 52.137495 
L 356.845957 95.04926 
L 357.759962 168.942715 
L 358.064631 185.463706 
L 358.064631 185.463706 
" style="fill:none;stroke:#ff7f0e;stroke-linecap:square;stroke-width:1.5;"/>
   </g>
   <g id="line2d_16">
    <path clip-path="url(#p34d7d1a83f)" d="M 53.700994 214.756364 
L 54.005663 209.67412 
L 54.310331 194.950055 
L 54.919668 143.469296 
L 55.833672 53.483822 
L 56.138341 32.441621 
L 56.443009 19.984469 
L 56.747677 17.393477 
L 57.052346 24.935108 
L 57.357014 41.833769 
L 57.966351 95.967075 
L 58.880355 184.222476 
L 59.185024 203.323307 
L 59.489692 213.435444 
L 59.79436 213.518938 
L 60.099029 203.565204 
L 60.403697 184.597899 
L 61.013034 128.15145 
L 61.927039 42.179465 
L 62.231707 25.139763 
L 62.536375 17.436043 
L 62.841043 19.860569 
L 63.145712 32.163998 
L 63.755048 80.460514 
L 64.973722 194.636253 
L 65.27839 209.507991 
L 65.583058 214.754992 
L 65.887727 209.837647 
L 66.192395 195.261663 
L 66.801731 143.968995 
L 67.715736 53.888351 
L 68.020405 32.721562 
L 68.325073 20.111031 
L 68.629741 17.353645 
L 68.93441 24.732979 
L 69.239078 41.490129 
L 69.848414 95.457355 
L 70.762419 183.845158 
L 71.067088 203.078984 
L 71.371756 213.349242 
L 71.676424 213.599724 
L 71.981093 203.804669 
L 72.285761 184.971416 
L 72.895098 128.667996 
L 73.809102 42.527208 
L 74.113771 25.346937 
L 74.418439 17.481344 
L 74.723107 19.739337 
L 75.027776 31.8887 
L 75.637112 79.974954 
L 76.855785 194.320266 
L 77.160454 209.339264 
L 77.465122 214.750877 
L 77.76979 209.998567 
L 78.074459 195.571069 
L 78.683795 144.467915 
L 79.5978 54.294601 
L 79.902469 33.003811 
L 80.207137 20.240252 
L 80.511805 17.316549 
L 80.816473 24.53338 
L 81.121142 41.148556 
L 81.730478 94.948202 
L 82.644483 183.465954 
L 82.949152 202.832241 
L 83.25382 213.260336 
L 83.558488 213.677798 
L 83.863156 204.041694 
L 84.167825 185.343015 
L 84.777161 129.184188 
L 85.691166 42.876988 
L 85.995835 25.556626 
L 86.300503 17.529376 
L 86.605171 19.620773 
L 86.90984 31.615735 
L 87.519176 79.490392 
L 88.737849 194.002103 
L 89.042518 209.167944 
L 89.347186 214.744018 
L 89.651854 210.156875 
L 89.956523 195.878264 
L 90.565859 144.966043 
L 91.479864 54.702563 
L 91.784532 33.288362 
L 92.089201 20.372129 
L 92.393869 17.28219 
L 92.698537 24.336319 
L 93.003206 40.809057 
L 93.612542 94.439633 
L 94.526547 183.084875 
L 94.831215 202.583086 
L 95.135884 213.168729 
L 95.440552 213.753159 
L 95.74522 204.276273 
L 96.049889 185.712688 
L 96.659225 129.700012 
L 97.57323 43.228795 
L 97.877898 25.768823 
L 98.182567 17.58014 
L 98.487235 19.504883 
L 98.791903 31.345109 
L 99.40124 79.006841 
L 100.619913 193.681773 
L 100.924582 208.994035 
L 101.22925 214.734417 
L 101.533918 210.312568 
L 101.838586 196.183239 
L 102.447923 145.463364 
L 103.361928 55.112223 
L 103.666596 33.575207 
L 103.971265 20.506659 
L 104.275933 17.250569 
L 104.580601 24.141799 
L 104.88527 40.471644 
L 105.494606 93.931659 
L 106.408611 182.701932 
L 106.713279 202.331525 
L 107.017948 213.074422 
L 107.322616 213.825804 
L 107.627284 204.508399 
L 107.931953 186.080424 
L 108.541289 130.215453 
L 109.455294 43.58262 
L 109.759962 25.983522 
L 110.064631 17.633633 
L 110.369299 19.391669 
L 110.673967 31.076831 
L 111.283304 78.524314 
L 112.501977 193.359284 
L 112.806645 208.817543 
L 113.111314 214.722073 
L 113.415982 210.465641 
L 113.72065 196.485987 
L 114.329987 145.959866 
L 115.243992 55.523571 
L 115.54866 33.864337 
L 115.853328 20.643837 
L 116.157997 17.221687 
L 116.462665 23.949827 
L 116.767333 40.136325 
L 117.37667 93.424295 
L 118.290675 182.317135 
L 118.595343 202.077566 
L 118.900012 212.977418 
L 119.20468 213.895732 
L 119.509348 204.738067 
L 119.814016 186.446212 
L 120.423353 130.730497 
L 121.337358 43.938453 
L 121.642026 26.200718 
L 121.946695 17.689855 
L 122.251363 19.281135 
L 122.556031 30.810908 
L 123.165368 78.042826 
L 124.384041 193.034646 
L 124.688709 208.638473 
L 124.993378 214.706986 
L 125.298046 210.61609 
L 125.602714 196.786498 
L 126.212051 146.455533 
L 127.126056 55.936596 
L 127.430724 34.155745 
L 127.735392 20.783659 
L 128.040061 17.195544 
L 128.344729 23.760408 
L 128.649397 39.80311 
L 129.258734 92.917556 
L 130.172739 181.930495 
L 130.477407 201.821216 
L 130.782075 212.87772 
L 131.086744 213.96294 
L 131.391412 204.965269 
L 131.69608 186.810042 
L 132.305417 131.24513 
L 133.219422 44.296284 
L 133.52409 26.420404 
L 133.828758 17.748803 
L 134.133427 19.173282 
L 134.438095 30.547347 
L 135.047432 77.562389 
L 136.266105 192.707867 
L 136.570773 208.456829 
L 136.875441 214.689157 
L 137.18011 210.76391 
L 137.484778 197.084765 
L 138.094115 146.950353 
L 139.00812 56.351285 
L 139.312788 34.449422 
L 139.617456 20.926122 
L 139.922125 17.172142 
L 140.226793 23.573547 
L 140.531461 39.472007 
L 141.140798 92.411456 
L 142.054803 181.542023 
L 142.359471 201.562481 
L 142.664139 212.775331 
L 142.968808 214.027427 
L 143.273476 205.189999 
L 143.578144 187.171905 
L 144.187481 131.759338 
L 145.101486 44.656103 
L 145.406154 26.642574 
L 145.710822 17.810476 
L 146.015491 19.068116 
L 146.320159 30.286156 
L 146.929496 77.083017 
L 148.148169 192.378957 
L 148.452837 208.272617 
L 148.757505 214.668587 
L 149.062174 210.909097 
L 149.366842 197.380779 
L 149.976179 147.444312 
L 150.890184 56.767628 
L 151.194852 34.745361 
L 151.49952 21.071222 
L 151.804188 17.151481 
L 152.108857 23.389249 
L 152.413525 39.143026 
L 153.022862 91.906008 
L 153.936867 181.151729 
L 154.241535 201.301369 
L 154.546203 212.670254 
L 154.850871 214.08919 
L 155.15554 205.412252 
L 155.460208 187.53179 
L 156.069545 132.273106 
L 156.98355 45.017901 
L 157.288218 26.867222 
L 157.592886 17.874872 
L 157.897555 18.965637 
L 158.202223 30.027342 
L 158.811559 76.604722 
L 160.030233 192.047925 
L 160.334901 208.085841 
L 160.639569 214.645276 
L 160.944238 211.051648 
L 161.248906 197.674532 
L 161.858242 147.937395 
L 162.772247 57.185613 
L 163.076916 35.043553 
L 163.381584 21.218955 
L 163.686252 17.133561 
L 163.990921 23.20752 
L 164.295589 38.816176 
L 164.904926 91.401227 
L 165.81893 180.759625 
L 166.123599 201.037887 
L 166.428267 212.562491 
L 166.732935 214.148229 
L 167.037604 205.632021 
L 167.342272 187.889687 
L 167.951609 132.786421 
L 168.865613 45.381666 
L 169.170282 27.094343 
L 169.47495 17.94199 
L 169.779618 18.86585 
L 170.084287 29.770912 
L 170.693623 76.127519 
L 171.912297 191.714779 
L 172.216965 207.896506 
L 172.521633 214.619224 
L 172.826301 211.191558 
L 173.13097 197.966015 
L 173.740306 148.42959 
L 174.654311 57.605228 
L 174.95898 35.34399 
L 175.263648 21.369316 
L 175.568316 17.118383 
L 175.872984 23.028364 
L 176.177653 38.491467 
L 176.786989 90.897126 
L 177.700994 180.365721 
L 178.005663 200.772042 
L 178.310331 212.452045 
L 178.614999 214.204541 
L 178.919668 205.849299 
L 179.224336 188.245587 
L 179.833672 133.299267 
L 180.747677 45.747389 
L 181.052346 27.323928 
L 181.357014 18.011827 
L 181.661682 18.768757 
L 181.966351 29.516873 
L 182.575687 75.651421 
L 183.79436 191.37953 
L 184.099029 207.704619 
L 184.403697 214.590433 
L 184.708365 211.328824 
L 185.013034 198.255221 
L 185.62237 148.920883 
L 186.536375 58.026462 
L 186.841043 35.646664 
L 187.145712 21.522302 
L 187.45038 17.105948 
L 187.755048 22.851786 
L 188.059717 38.168907 
L 188.669053 90.39372 
L 189.583058 179.970028 
L 189.887727 200.503842 
L 190.192395 212.33892 
L 190.497063 214.258125 
L 190.801731 206.064082 
L 191.1064 188.599479 
L 191.715736 133.81163 
L 192.629741 46.11506 
L 192.93441 27.555973 
L 193.239078 18.084382 
L 193.543746 18.67436 
L 193.848414 29.265233 
L 194.457751 75.17644 
L 195.676424 191.042186 
L 195.981093 207.510184 
L 196.285761 214.558903 
L 196.590429 211.463441 
L 196.895098 198.542142 
L 197.504434 149.411259 
L 198.723107 35.951565 
L 199.027776 21.677908 
L 199.332444 17.096255 
L 199.637112 22.677792 
L 199.941781 37.848505 
L 200.551117 89.891022 
L 201.465122 179.572557 
L 201.76979 200.233294 
L 202.074459 212.223119 
L 202.379127 214.308979 
L 202.683795 206.276362 
L 202.988464 188.951353 
L 203.5978 134.323498 
L 204.511805 46.484669 
L 204.816473 27.790471 
L 205.121142 18.159653 
L 205.42581 18.582663 
L 205.730478 29.015998 
L 206.339815 74.70259 
L 207.558488 190.702757 
L 207.863156 207.313207 
L 208.167825 214.524635 
L 208.472493 211.595407 
L 208.777161 198.826769 
L 209.386498 149.900706 
L 210.605171 36.258687 
L 210.90984 21.836129 
L 211.214508 17.089305 
L 211.519176 22.506386 
L 211.823844 37.530269 
L 212.433181 89.389047 
L 213.347186 179.173319 
L 213.651854 199.960406 
L 213.956523 212.104645 
L 214.261191 214.357103 
L 214.565859 206.486134 
L 214.870527 189.301201 
L 215.479864 134.834854 
L 216.393869 46.856205 
L 216.698537 28.027415 
L 217.003206 18.237637 
L 217.307874 18.493667 
L 217.612542 28.769175 
L 218.221879 74.229884 
L 219.440552 190.361252 
L 219.74522 207.113693 
L 220.049889 214.48763 
L 220.354557 211.724717 
L 220.659225 199.109095 
L 221.268562 150.38921 
L 222.487235 36.568019 
L 222.791903 21.996963 
L 223.096572 17.085099 
L 223.40124 22.337573 
L 223.705908 37.21421 
L 224.315245 88.887808 
L 225.22925 178.772326 
L 225.533918 199.685185 
L 225.838586 211.9835 
L 226.143255 214.402494 
L 226.447923 206.693392 
L 226.752591 189.649012 
L 227.361928 135.345685 
L 228.275933 47.229657 
L 228.580601 28.266798 
L 228.88527 18.318332 
L 229.189938 18.407376 
L 229.494606 28.524771 
L 229.799274 47.630029 
L 230.408611 104.222614 
L 231.322616 190.017681 
L 231.627284 206.911647 
L 231.931953 214.447889 
L 232.236621 211.851367 
L 232.541289 199.389112 
L 233.150626 150.876757 
L 234.369299 36.879554 
L 234.673967 22.160403 
L 234.978636 17.083636 
L 235.283304 22.171357 
L 235.587972 36.900336 
L 236.197309 88.387319 
L 237.111314 178.369588 
L 237.415982 199.407639 
L 237.72065 211.85969 
L 238.025319 214.445151 
L 238.329987 206.898131 
L 238.634655 189.994776 
L 239.243992 135.855977 
L 240.157997 47.605017 
L 240.462665 28.508615 
L 240.767333 18.401737 
L 241.072002 18.323791 
L 241.37667 28.282793 
L 241.681338 47.254543 
L 242.290675 103.705718 
L 243.20468 189.672054 
L 243.509348 206.707076 
L 243.814016 214.405413 
L 244.118685 211.975355 
L 244.423353 199.666812 
L 245.03269 151.363333 
L 246.251363 37.193283 
L 246.556031 22.326446 
L 246.860699 17.084917 
L 247.165368 22.007744 
L 247.470036 36.588655 
L 248.079373 87.887595 
L 248.993378 177.965117 
L 249.298046 199.127776 
L 249.602714 211.733216 
L 249.907383 214.485074 
L 250.212051 207.100344 
L 250.516719 190.338484 
L 251.126056 136.365716 
L 252.040061 47.982273 
L 252.344729 28.752858 
L 252.649397 18.487849 
L 252.954066 18.242916 
L 253.258734 28.043248 
L 253.563402 46.880964 
L 254.172739 103.189161 
L 255.086744 189.324379 
L 255.391412 206.499985 
L 255.69608 214.360204 
L 256.000749 212.096676 
L 256.305417 199.942188 
L 256.914754 151.848926 
L 258.133427 37.509198 
L 258.438095 22.495087 
L 258.742763 17.088941 
L 259.047432 21.846737 
L 259.3521 36.279175 
L 259.961437 87.388649 
L 260.875441 177.558924 
L 261.18011 198.845603 
L 261.484778 211.604083 
L 261.789446 214.522261 
L 262.094115 207.300026 
L 262.398783 190.680126 
L 263.00812 136.874887 
L 263.922125 48.361414 
L 264.226793 28.99952 
L 264.531461 18.576665 
L 264.836129 18.164751 
L 265.140798 27.806142 
L 265.445466 46.5093 
L 266.054803 102.672957 
L 266.968808 188.974666 
L 267.273476 206.29038 
L 267.578144 214.312262 
L 267.882813 212.215328 
L 268.187481 200.215231 
L 268.796817 152.333522 
L 270.015491 37.827288 
L 270.320159 22.666321 
L 270.624827 17.095708 
L 270.929496 21.688341 
L 271.234164 35.971907 
L 271.8435 86.890495 
L 272.757505 177.151019 
L 273.062174 198.561128 
L 273.366842 211.472294 
L 273.67151 214.556711 
L 273.976179 207.497172 
L 274.280847 191.019694 
L 274.890184 137.383477 
L 275.804188 48.742431 
L 276.108857 29.248595 
L 276.413525 18.668182 
L 276.718193 18.0893 
L 277.022862 27.571481 
L 277.32753 46.139563 
L 277.936867 102.157121 
L 278.850871 188.622926 
L 279.15554 206.078267 
L 279.460208 214.261589 
L 279.764876 212.331307 
L 280.069545 200.485935 
L 280.678881 152.817107 
L 281.897555 38.147547 
L 282.202223 22.840143 
L 282.506891 17.105218 
L 282.811559 21.532561 
L 283.116228 35.666857 
L 283.725564 86.393146 
L 284.639569 176.741415 
L 284.944238 198.27436 
L 285.248906 211.337852 
L 285.553574 214.588423 
L 285.858242 207.691777 
L 286.162911 191.357176 
L 286.772247 137.89147 
L 287.686252 49.125313 
L 287.990921 29.500076 
L 288.295589 18.7624 
L 288.600257 18.016565 
L 288.904926 27.339273 
L 289.209594 45.771763 
L 289.81893 101.641667 
L 290.732935 188.269168 
L 291.037604 205.86365 
L 291.342272 214.208186 
L 291.64694 212.44461 
L 291.951609 200.754291 
L 292.560945 153.299667 
L 293.779618 38.469964 
L 294.084287 23.016549 
L 294.388955 17.117471 
L 294.693623 21.379401 
L 294.998292 35.364036 
L 295.607628 85.896617 
L 296.521633 176.330123 
L 296.826301 197.985305 
L 297.13097 211.200763 
L 297.435638 214.617396 
L 297.740306 207.883833 
L 298.044975 191.692565 
L 298.654311 138.398854 
L 299.568316 49.510048 
L 299.872984 29.753955 
L 300.177653 18.859314 
L 300.482321 17.946547 
L 300.786989 27.109524 
L 301.091658 45.40591 
L 301.700994 101.126609 
L 302.614999 187.913401 
L 302.919668 205.646538 
L 303.224336 214.152056 
L 303.529004 212.555234 
L 303.833672 201.020293 
L 304.443009 153.78119 
L 305.661682 38.794531 
L 305.966351 23.195534 
L 306.271019 17.132467 
L 306.575687 21.228866 
L 306.880355 35.06345 
L 307.489692 85.400922 
L 308.403697 175.917154 
L 308.708365 197.693973 
L 309.013034 211.061028 
L 309.317702 214.643629 
L 309.62237 208.073337 
L 309.927039 192.025851 
L 310.536375 138.905614 
L 311.45038 49.896627 
L 311.755048 30.010226 
L 312.059717 18.958922 
L 312.364385 17.879248 
L 312.669053 26.882239 
L 312.973722 45.042014 
L 313.583058 100.611962 
L 314.497063 187.555636 
L 314.801731 205.426934 
L 315.1064 214.093198 
L 315.411068 212.663175 
L 315.715736 201.283932 
L 316.325073 154.261663 
L 317.543746 39.121239 
L 317.848414 23.377092 
L 318.153083 17.150205 
L 318.457751 21.080958 
L 318.762419 34.765108 
L 319.371756 84.906074 
L 320.285761 175.502519 
L 320.590429 197.400371 
L 320.895098 210.918652 
L 321.199766 214.667123 
L 321.504434 208.260284 
L 321.809102 192.357024 
L 322.418439 139.411736 
L 323.332444 50.285038 
L 323.637112 30.268882 
L 323.941781 19.061222 
L 324.246449 17.814671 
L 324.551117 26.657427 
L 324.855785 44.680086 
L 325.465122 100.09774 
L 326.379127 187.195883 
L 326.683795 205.204847 
L 326.988464 214.031616 
L 327.293132 212.768431 
L 327.5978 201.545202 
L 328.207137 154.74107 
L 329.42581 39.450078 
L 329.730478 23.56122 
L 330.035147 17.170684 
L 330.339815 20.935683 
L 330.644483 34.469019 
L 331.25382 84.412086 
L 332.167825 175.086231 
L 332.472493 197.104507 
L 332.777161 210.77364 
L 333.08183 214.687875 
L 333.386498 208.444667 
L 333.691166 192.686075 
L 334.300503 139.917206 
L 335.214508 50.675272 
L 335.519176 30.529915 
L 335.823844 19.16621 
L 336.128513 17.752817 
L 336.433181 26.435092 
L 336.737849 44.320135 
L 337.347186 99.583957 
L 338.261191 186.834151 
L 338.565859 204.98028 
L 338.870527 213.96731 
L 339.175196 212.870999 
L 339.479864 201.804095 
L 340.089201 155.219401 
L 341.307874 39.78104 
L 341.612542 23.747911 
L 341.917211 17.193904 
L 342.221879 20.793045 
L 342.526547 34.175191 
L 343.135884 83.918973 
L 344.049889 174.668301 
L 344.354557 196.80639 
L 344.659225 210.625995 
L 344.963894 214.705886 
L 345.268562 208.626481 
L 345.57323 193.012996 
L 346.182567 140.42201 
L 347.096572 51.067316 
L 347.40124 30.793319 
L 347.705908 19.273884 
L 348.010577 17.693688 
L 348.315245 26.21524 
L 348.619913 43.962172 
L 349.22925 99.070627 
L 350.143255 186.470451 
L 350.447923 204.753242 
L 350.752591 213.900282 
L 351.05726 212.970876 
L 351.361928 202.060604 
L 351.971265 155.69664 
L 353.189938 40.114115 
L 353.494606 23.93716 
L 353.799274 17.219865 
L 354.103943 20.653047 
L 354.408611 33.883632 
L 355.017948 83.426749 
L 355.931953 174.248739 
L 356.236621 196.506027 
L 356.541289 210.475721 
L 356.845957 214.721155 
L 357.150626 208.805723 
L 357.455294 193.337776 
L 358.064631 140.926133 
L 358.064631 140.926133 
" style="fill:none;stroke:#2ca02c;stroke-linecap:square;stroke-width:1.5;"/>
   </g>
   <g id="line2d_17">
    <path clip-path="url(#p34d7d1a83f)" d="M 53.700994 35.959701 
L 54.005663 39.853583 
L 54.310331 51.155982 
L 54.919668 90.968784 
L 55.833672 162.558132 
L 56.443009 191.787709 
L 56.747677 195.877762 
L 57.052346 192.180299 
L 57.357014 181.055435 
L 57.966351 141.475413 
L 59.185024 51.911117 
L 59.489692 40.255809 
L 59.79436 35.969843 
L 60.099029 39.470653 
L 60.403697 50.417276 
L 61.013034 89.762009 
L 62.231707 179.545212 
L 62.536375 191.375872 
L 62.841043 195.857478 
L 63.145712 192.553543 
L 63.45038 181.785856 
L 64.059717 142.678908 
L 65.27839 52.682491 
L 65.583058 40.67723 
L 65.887727 36.000268 
L 66.192395 39.107118 
L 66.497063 49.695187 
L 67.1064 88.561869 
L 68.325073 178.765792 
L 68.629741 190.944892 
L 68.93441 195.816915 
L 69.239078 192.907346 
L 69.543746 182.499567 
L 70.153083 143.875615 
L 71.371756 53.469907 
L 71.676424 41.11774 
L 71.981093 36.050967 
L 72.285761 38.763069 
L 72.590429 48.989899 
L 73.199766 87.368671 
L 74.418439 177.97043 
L 74.723107 190.49488 
L 75.027776 195.756082 
L 75.332444 193.241619 
L 75.637112 183.196387 
L 76.246449 145.06523 
L 77.465122 54.273166 
L 77.76979 41.577226 
L 78.074459 36.121928 
L 78.379127 38.438594 
L 78.683795 48.30159 
L 79.293132 86.182715 
L 80.511805 177.159325 
L 80.816473 190.02595 
L 81.121142 195.674997 
L 81.42581 193.556276 
L 81.730478 183.876141 
L 82.339815 146.247451 
L 83.558488 55.092064 
L 83.863156 42.055572 
L 84.167825 36.213133 
L 84.472493 38.133775 
L 84.777161 47.630435 
L 85.386498 85.004303 
L 86.605171 176.332686 
L 86.90984 189.538219 
L 87.214508 195.573679 
L 87.519176 193.851238 
L 87.823844 184.538655 
L 88.433181 147.421979 
L 89.651854 55.926393 
L 89.956523 42.552656 
L 90.261191 36.324558 
L 90.565859 37.848689 
L 90.870527 46.976604 
L 91.479864 83.833735 
L 92.698537 175.49072 
L 93.003206 189.031813 
L 93.307874 195.452154 
L 93.612542 194.12643 
L 93.917211 185.183761 
L 94.526547 148.588514 
L 95.74522 56.775942 
L 96.049889 43.068352 
L 96.354557 36.456176 
L 96.659225 37.583409 
L 96.963894 46.340263 
L 97.57323 82.671306 
L 98.791903 174.633642 
L 99.096572 188.506859 
L 99.40124 195.310452 
L 99.705908 194.381782 
L 100.010577 185.811296 
L 100.619913 149.746763 
L 101.838586 57.640495 
L 102.143255 43.60253 
L 102.447923 36.607952 
L 102.752591 37.338001 
L 103.05726 45.721574 
L 103.666596 81.517311 
L 104.88527 173.761669 
L 105.189938 187.963491 
L 105.494606 195.14861 
L 105.799274 194.617229 
L 106.103943 186.421101 
L 106.713279 150.89643 
L 107.931953 58.519832 
L 108.236621 44.155054 
L 108.541289 36.779849 
L 108.845957 37.112529 
L 109.150626 45.120693 
L 109.455294 60.024381 
L 110.064631 104.181915 
L 110.978636 172.875023 
L 111.283304 187.401847 
L 111.587972 194.966669 
L 111.892641 194.832711 
L 112.197309 187.01302 
L 112.501977 172.269198 
L 113.111314 128.287599 
L 114.025319 59.413732 
L 114.329987 44.725783 
L 114.634655 36.971823 
L 114.939324 36.90705 
L 115.243992 44.537773 
L 115.54866 59.120794 
L 116.157997 102.92367 
L 117.072002 171.973927 
L 117.37667 186.822068 
L 117.681338 194.764675 
L 117.986007 195.028175 
L 118.290675 187.586904 
L 118.595343 173.165608 
L 119.20468 129.544235 
L 120.118685 60.321966 
L 120.423353 45.314574 
L 120.728021 37.183825 
L 121.03269 36.721615 
L 121.337358 43.972961 
L 121.642026 58.231616 
L 122.251363 101.668722 
L 123.165368 171.058612 
L 123.470036 186.224303 
L 123.774704 194.542679 
L 124.079373 195.20357 
L 124.384041 188.142607 
L 124.688709 174.047497 
L 125.298046 130.797415 
L 126.212051 61.244304 
L 126.516719 45.921277 
L 126.821387 37.415801 
L 127.126056 36.556271 
L 127.430724 43.426402 
L 127.735392 57.357073 
L 128.344729 100.417389 
L 129.258734 170.129309 
L 129.563402 185.608702 
L 129.86807 194.300737 
L 130.172739 195.358852 
L 130.477407 188.679989 
L 130.782075 174.914639 
L 131.391412 132.046821 
L 132.305417 62.180513 
L 132.610085 46.545737 
L 132.914754 37.667692 
L 133.219422 36.411061 
L 133.52409 42.898233 
L 133.828758 56.497387 
L 134.438095 99.169989 
L 135.3521 169.186253 
L 135.656768 184.975422 
L 135.961437 194.038912 
L 136.266105 195.493981 
L 136.570773 189.198912 
L 136.875441 175.766815 
L 137.484778 133.292135 
L 138.398783 63.130355 
L 138.703451 47.187796 
L 139.00812 37.939435 
L 139.312788 36.286021 
L 139.617456 42.388589 
L 139.922125 55.652775 
L 140.531461 97.926839 
L 141.445466 168.229685 
L 141.750134 184.324624 
L 142.054803 193.757268 
L 142.359471 195.608923 
L 142.664139 189.699245 
L 142.968808 176.603809 
L 143.578144 134.533043 
L 144.492149 64.09359 
L 144.796817 47.847292 
L 145.101486 38.230961 
L 145.406154 36.181184 
L 145.710822 41.897598 
L 146.015491 54.823453 
L 146.624827 96.688253 
L 147.538832 167.259846 
L 147.8435 183.656472 
L 148.148169 193.455879 
L 148.452837 195.703649 
L 148.757505 190.180861 
L 149.062174 177.425408 
L 149.67151 135.769229 
L 150.585515 65.069971 
L 150.890184 48.524057 
L 151.194852 38.542196 
L 151.49952 36.096575 
L 151.804188 41.425387 
L 152.108857 54.009629 
L 152.718193 95.454546 
L 153.632198 166.276983 
L 153.936867 182.971137 
L 154.241535 193.134819 
L 154.546203 195.778135 
L 154.850871 190.643638 
L 155.15554 178.231404 
L 155.764876 137.000379 
L 156.678881 66.059253 
L 156.98355 49.217919 
L 157.288218 38.87306 
L 157.592886 36.032216 
L 157.897555 40.972073 
L 158.202223 53.211512 
L 158.811559 94.226031 
L 159.725564 165.281345 
L 160.030233 182.268791 
L 160.334901 192.794171 
L 160.639569 195.832363 
L 160.944238 191.087459 
L 161.248906 179.021592 
L 161.858242 138.226181 
L 162.772247 67.061184 
L 163.076916 49.928703 
L 163.381584 39.22347 
L 163.686252 35.988124 
L 163.990921 40.537773 
L 164.295589 52.429303 
L 164.904926 93.003019 
L 165.81893 164.273185 
L 166.123599 181.549614 
L 166.428267 192.434022 
L 166.732935 195.866317 
L 167.037604 191.512211 
L 167.342272 179.795773 
L 167.951609 139.446325 
L 168.865613 68.075509 
L 169.170282 50.656228 
L 169.47495 39.593337 
L 169.779618 35.964309 
L 170.084287 40.122596 
L 170.388955 51.6632 
L 170.998292 91.785821 
L 171.912297 163.252759 
L 172.521633 192.054461 
L 172.826301 195.87999 
L 173.13097 191.917786 
L 173.435638 180.553749 
L 174.044975 140.6605 
L 174.95898 69.101972 
L 175.568316 39.982567 
L 175.872984 35.960778 
L 176.177653 39.726648 
L 176.482321 50.913399 
L 177.091658 90.574745 
L 178.310331 180.061498 
L 178.614999 191.655586 
L 178.919668 195.873379 
L 179.224336 192.304082 
L 179.529004 181.295328 
L 180.138341 141.868399 
L 181.357014 52.160759 
L 181.661682 40.391061 
L 181.966351 35.977532 
L 182.271019 39.35003 
L 182.575687 50.180089 
L 183.185024 89.3701 
L 184.403697 179.292937 
L 184.708365 191.237499 
L 185.013034 195.846484 
L 185.317702 192.671 
L 185.62237 182.020322 
L 186.231707 143.069715 
L 187.45038 52.937383 
L 187.755048 40.818716 
L 188.059717 36.014566 
L 188.364385 38.992836 
L 188.669053 49.463456 
L 189.27839 88.172189 
L 190.497063 178.508299 
L 190.801731 190.800304 
L 191.1064 195.799313 
L 191.411068 193.018447 
L 191.715736 182.728548 
L 192.325073 144.264144 
L 193.543746 53.729985 
L 193.848414 41.265423 
L 194.153083 36.071871 
L 194.457751 38.655157 
L 194.762419 48.763682 
L 195.371756 86.981318 
L 196.590429 177.707783 
L 196.895098 190.344113 
L 197.199766 195.731878 
L 197.504434 193.346335 
L 197.809102 183.419825 
L 198.418439 145.451382 
L 199.637112 54.538364 
L 199.941781 41.731069 
L 200.246449 36.149432 
L 200.551117 38.33708 
L 200.855785 48.080946 
L 201.465122 85.797788 
L 202.683795 176.891593 
L 202.988464 189.869041 
L 203.293132 195.644196 
L 203.5978 193.654581 
L 203.902469 184.093978 
L 204.511805 146.631128 
L 205.730478 55.362315 
L 206.035147 42.215535 
L 206.339815 36.24723 
L 206.644483 38.038684 
L 206.949152 47.415419 
L 207.558488 84.6219 
L 208.777161 176.059934 
L 209.08183 189.37521 
L 209.386498 195.536288 
L 209.691166 193.943107 
L 209.995835 184.750837 
L 210.605171 147.803084 
L 211.823844 56.201628 
L 212.128513 42.7187 
L 212.433181 36.36524 
L 212.737849 37.760046 
L 213.042518 46.76727 
L 213.651854 83.453952 
L 214.870527 175.213019 
L 215.175196 188.862744 
L 215.479864 195.408183 
L 215.784532 194.21184 
L 216.089201 185.390234 
L 216.698537 148.966951 
L 217.917211 57.056091 
L 218.221879 43.240435 
L 218.526547 36.503432 
L 218.831215 37.501236 
L 219.135884 46.136665 
L 219.74522 82.29424 
L 220.963894 174.351063 
L 221.268562 188.331774 
L 221.57323 195.259913 
L 221.877898 194.460711 
L 222.182567 186.012007 
L 222.791903 150.122434 
L 224.010577 57.925487 
L 224.315245 43.780607 
L 224.619913 36.661771 
L 224.924582 37.26232 
L 225.22925 45.523763 
L 225.838586 81.143058 
L 227.05726 173.474283 
L 227.361928 187.782433 
L 227.666596 195.091515 
L 227.971265 194.689658 
L 228.275933 186.615999 
L 228.88527 151.269241 
L 230.103943 58.809595 
L 230.408611 44.339081 
L 230.713279 36.840217 
L 231.017948 37.043358 
L 231.322616 44.928719 
L 231.627284 59.728303 
L 232.236621 103.771468 
L 233.150626 172.582902 
L 233.455294 187.214862 
L 233.759962 194.903033 
L 234.064631 194.898621 
L 234.369299 187.202057 
L 234.673967 172.562949 
L 235.283304 128.697538 
L 236.197309 59.708192 
L 236.501977 44.915713 
L 236.806645 37.038724 
L 237.111314 36.844406 
L 237.415982 44.351685 
L 237.72065 58.829388 
L 238.329987 102.514263 
L 239.243992 171.677147 
L 239.54866 186.629205 
L 239.853328 194.694514 
L 240.157997 195.087549 
L 240.462665 187.770031 
L 240.767333 173.454651 
L 241.37667 129.953083 
L 242.290675 60.621048 
L 242.595343 45.510358 
L 242.900012 37.257242 
L 243.20468 36.665514 
L 243.509348 43.792807 
L 243.814016 57.944955 
L 244.423353 101.260458 
L 245.337358 170.757246 
L 245.642026 186.02561 
L 245.946695 194.46601 
L 246.251363 195.256393 
L 246.556031 188.319777 
L 246.860699 174.331758 
L 247.470036 131.205068 
L 248.384041 61.547934 
L 248.688709 46.122866 
L 248.993378 37.495716 
L 249.298046 36.506729 
L 249.602714 43.252227 
L 249.907383 57.07523 
L 250.516719 100.010373 
L 251.430724 169.823435 
L 251.735392 185.404229 
L 252.040061 194.217581 
L 252.344729 195.40511 
L 252.649397 188.851157 
L 252.954066 175.194046 
L 253.563402 132.453175 
L 254.477407 62.488613 
L 254.782075 46.75308 
L 255.086744 37.754085 
L 255.391412 36.368089 
L 255.69608 42.730081 
L 256.000749 56.220433 
L 256.610085 98.764323 
L 257.52409 168.875948 
L 257.828758 184.765222 
L 258.133427 193.949288 
L 258.438095 195.533663 
L 258.742763 189.364035 
L 259.047432 176.041297 
L 259.656768 133.697088 
L 260.570773 63.442846 
L 260.875441 47.40084 
L 261.18011 38.032284 
L 261.484778 36.249631 
L 261.789446 42.226503 
L 262.094115 55.380782 
L 262.703451 97.522626 
L 263.617456 167.915028 
L 263.922125 184.108749 
L 264.226793 193.661201 
L 264.531461 195.642019 
L 264.836129 189.858282 
L 265.140798 176.873297 
L 265.750134 134.936491 
L 266.664139 64.410393 
L 266.968808 48.065983 
L 267.273476 38.330242 
L 267.578144 36.151384 
L 267.882813 41.74162 
L 268.187481 54.556488 
L 268.796817 96.285596 
L 269.710822 166.940917 
L 270.015491 183.434978 
L 270.320159 193.353392 
L 270.624827 195.730151 
L 270.929496 190.333771 
L 271.234164 177.689833 
L 271.8435 136.17107 
L 272.757505 65.391006 
L 273.062174 48.74834 
L 273.366842 38.647883 
L 273.67151 36.073373 
L 273.976179 41.275555 
L 274.280847 53.747761 
L 274.890184 95.053546 
L 275.804188 165.953863 
L 276.108857 182.744079 
L 276.413525 193.025938 
L 276.718193 195.798036 
L 277.022862 190.790382 
L 277.32753 178.490699 
L 277.936867 137.400511 
L 278.850871 66.384438 
L 279.15554 49.447737 
L 279.460208 38.985127 
L 279.764876 36.015618 
L 280.069545 40.828426 
L 280.374213 52.954806 
L 280.98355 93.826791 
L 281.897555 164.954116 
L 282.202223 182.036228 
L 282.506891 192.678925 
L 282.811559 195.845657 
L 283.116228 191.228 
L 283.420896 179.275692 
L 284.030233 138.624503 
L 284.944238 67.390437 
L 285.248906 50.163998 
L 285.553574 39.341889 
L 285.858242 35.978134 
L 286.162911 40.400347 
L 286.467579 52.177825 
L 287.076916 92.60564 
L 287.990921 163.941929 
L 288.295589 181.311604 
L 288.600257 192.312438 
L 288.904926 195.873002 
L 289.209594 191.646513 
L 289.514262 180.044612 
L 290.123599 139.842735 
L 291.037604 68.408747 
L 291.64694 39.718077 
L 291.951609 35.96093 
L 292.256277 39.991426 
L 292.560945 51.417015 
L 293.170282 91.390403 
L 294.084287 162.91756 
L 294.693623 191.926572 
L 294.998292 195.880064 
L 295.30296 192.045815 
L 295.607628 180.797264 
L 296.216965 141.054899 
L 297.13097 69.43911 
L 297.740306 40.113597 
L 298.044975 35.964011 
L 298.349643 39.601768 
L 298.654311 50.672568 
L 299.263648 90.18139 
L 300.482321 179.812776 
L 300.786989 191.521423 
L 301.091658 195.866841 
L 301.396326 192.425806 
L 301.700994 181.533459 
L 302.310331 142.260686 
L 303.529004 52.412119 
L 303.833672 40.528348 
L 304.138341 35.987375 
L 304.443009 39.23147 
L 304.747677 49.944673 
L 305.357014 88.978906 
L 306.575687 179.038954 
L 306.880355 191.097096 
L 307.185024 195.833336 
L 307.489692 192.786387 
L 307.79436 182.253007 
L 308.403697 143.459791 
L 309.62237 53.193973 
L 309.927039 40.962225 
L 310.231707 36.031017 
L 310.536375 38.880627 
L 310.841043 49.233516 
L 311.45038 87.783257 
L 312.669053 178.249119 
L 312.973722 190.653697 
L 313.27839 195.779559 
L 313.583058 193.127469 
L 313.887727 182.955728 
L 314.497063 144.651909 
L 315.715736 53.99174 
L 316.020405 41.415117 
L 316.325073 36.094926 
L 316.629741 38.549328 
L 316.93441 48.539276 
L 317.543746 86.594745 
L 318.762419 177.443471 
L 319.067088 190.19134 
L 319.371756 195.705523 
L 319.676424 193.448964 
L 319.981093 183.641443 
L 320.590429 145.836738 
L 321.809102 54.805217 
L 322.113771 41.886911 
L 322.418439 36.179086 
L 322.723107 38.237657 
L 323.027776 47.862129 
L 323.637112 85.413673 
L 324.855785 176.622216 
L 325.160454 189.71014 
L 325.465122 195.611245 
L 325.76979 193.750792 
L 326.074459 184.309978 
L 326.683795 147.013978 
L 327.902469 55.634198 
L 328.207137 42.377486 
L 328.511805 36.283475 
L 328.816473 37.945693 
L 329.121142 47.202248 
L 329.730478 84.24034 
L 330.949152 175.785562 
L 331.25382 189.210221 
L 331.558488 195.496752 
L 331.863156 194.032874 
L 332.167825 184.961164 
L 332.777161 148.18333 
L 333.995835 56.478472 
L 334.300503 42.886717 
L 334.605171 36.408066 
L 334.90984 37.67351 
L 335.214508 46.5598 
L 335.823844 83.075044 
L 337.042518 174.933721 
L 337.347186 188.69171 
L 337.651854 195.36207 
L 337.956523 194.295141 
L 338.261191 185.594834 
L 338.870527 149.344497 
L 340.089201 57.337826 
L 340.393869 43.414476 
L 340.698537 36.552829 
L 341.003206 37.421177 
L 341.307874 45.934947 
L 341.917211 81.91808 
L 343.135884 174.066908 
L 343.440552 188.154737 
L 343.74522 195.207236 
L 344.049889 194.537524 
L 344.354557 186.210829 
L 344.963894 150.497184 
L 346.182567 58.212042 
L 346.487235 43.960629 
L 346.791903 36.717726 
L 347.096572 37.188758 
L 347.40124 45.327849 
L 348.010577 80.769742 
L 349.22925 173.185345 
L 349.533918 187.599439 
L 349.838586 195.032287 
L 350.143255 194.759964 
L 350.447923 186.808992 
L 350.752591 171.953761 
L 351.361928 127.849369 
L 352.275933 59.100897 
L 352.580601 44.525037 
L 352.88527 36.902715 
L 353.189938 36.976312 
L 353.494606 44.738659 
L 353.799274 59.43374 
L 354.408611 103.361349 
L 355.322616 172.289254 
L 355.627284 187.025957 
L 355.931953 194.837268 
L 356.236621 194.962402 
L 356.541289 187.389172 
L 356.845957 172.855174 
L 357.455294 129.107134 
L 358.064631 80.346721 
L 358.064631 80.346721 
" style="fill:none;stroke:#d62728;stroke-linecap:square;stroke-width:1.5;"/>
   </g>
   <g id="line2d_18">
    <path clip-path="url(#p34d7d1a83f)" d="M 53.700994 146.462116 
L 54.005663 144.95179 
L 54.310331 140.570186 
L 54.919668 125.167641 
L 55.833672 97.685854 
L 56.138341 90.977946 
L 56.443009 86.736836 
L 56.747677 85.381975 
L 57.052346 87.04736 
L 57.357014 91.568284 
L 57.966351 107.150052 
L 58.880355 134.552753 
L 59.185024 141.147237 
L 59.489692 145.246717 
L 59.79436 146.44575 
L 60.099029 144.62575 
L 60.403697 139.966718 
L 61.013034 124.209903 
L 61.927039 96.893628 
L 62.231707 90.414337 
L 62.536375 86.457586 
L 62.841043 85.414702 
L 63.145712 87.388828 
L 63.45038 92.18472 
L 64.059717 108.112361 
L 64.973722 135.334889 
L 65.27839 141.697252 
L 65.583058 145.510215 
L 65.887727 146.39667 
L 66.192395 144.268947 
L 66.497063 139.33748 
L 67.1064 123.243281 
L 68.020405 96.121793 
L 68.325073 89.878063 
L 68.629741 86.20991 
L 68.93441 85.480121 
L 69.239078 87.760871 
L 69.543746 92.826592 
L 70.153083 109.083037 
L 71.067088 136.096218 
L 71.371756 142.219642 
L 71.676424 145.742001 
L 71.981093 146.314929 
L 72.285761 143.881763 
L 72.590429 138.683145 
L 73.199766 122.26881 
L 74.113771 95.371175 
L 74.418439 89.369697 
L 74.723107 85.994075 
L 75.027776 85.578162 
L 75.332444 88.163092 
L 75.637112 93.493213 
L 76.246449 110.061041 
L 77.160454 136.835924 
L 77.465122 142.713847 
L 77.76979 145.941828 
L 78.074459 146.200615 
L 78.379127 143.464613 
L 78.683795 138.004416 
L 79.293132 121.287536 
L 80.207137 94.642579 
L 80.511805 88.889784 
L 80.816473 85.81031 
L 81.121142 85.708719 
L 81.42581 88.59506 
L 81.730478 94.183869 
L 82.339815 111.045323 
L 83.25382 137.553215 
L 83.558488 143.179338 
L 83.863156 146.109481 
L 84.167825 146.053849 
L 84.472493 143.017943 
L 84.777161 137.302019 
L 85.386498 120.300509 
L 86.300503 93.936785 
L 86.605171 88.43884 
L 86.90984 85.658814 
L 87.214508 85.871654 
L 87.519176 89.056311 
L 88.128513 102.818445 
L 89.347186 138.247322 
L 89.651854 143.615616 
L 89.956523 146.244781 
L 90.261191 145.874789 
L 90.565859 142.542233 
L 91.175196 128.568209 
L 92.393869 93.254551 
L 92.698537 88.017346 
L 93.003206 85.539747 
L 93.307874 86.066791 
L 93.612542 89.546352 
L 94.221879 103.728523 
L 95.440552 138.917501 
L 95.74522 144.022212 
L 96.049889 146.347582 
L 96.354557 145.663627 
L 96.659225 142.037993 
L 97.268562 127.651475 
L 98.487235 92.596606 
L 98.791903 87.625756 
L 99.096572 85.453239 
L 99.40124 86.293921 
L 99.705908 90.064657 
L 100.315245 104.651667 
L 101.533918 139.563034 
L 101.838586 144.398692 
L 102.143255 146.417774 
L 102.447923 145.42059 
L 102.752591 141.505762 
L 103.361928 126.722168 
L 104.580601 91.963657 
L 104.88527 87.264487 
L 105.189938 85.399382 
L 105.494606 86.552801 
L 105.799274 90.610671 
L 106.408611 105.586887 
L 107.627284 140.18323 
L 107.931953 144.744652 
L 108.236621 146.455282 
L 108.541289 145.145937 
L 108.845957 140.946112 
L 109.455294 125.781285 
L 110.673967 91.356381 
L 110.978636 86.933929 
L 111.283304 85.378233 
L 111.587972 86.843153 
L 111.892641 91.183808 
L 112.501977 106.533181 
L 113.415982 134.036696 
L 114.025319 145.059721 
L 114.329987 146.460066 
L 114.634655 144.839963 
L 114.939324 140.359642 
L 115.54866 124.829834 
L 116.462665 97.403254 
L 116.767333 90.77543 
L 117.072002 86.634434 
L 117.37667 85.389815 
L 117.681338 87.164666 
L 117.986007 91.783454 
L 118.595343 107.489535 
L 119.509348 134.831832 
L 119.814016 141.344976 
L 120.118685 145.343561 
L 120.423353 146.432121 
L 120.728021 144.502996 
L 121.03269 139.74698 
L 121.642026 123.868835 
L 122.556031 96.618147 
L 122.860699 90.221426 
L 123.165368 86.366324 
L 123.470036 85.434115 
L 123.774704 87.516996 
L 124.079373 92.408968 
L 124.688709 108.454923 
L 125.602714 135.606699 
L 125.907383 141.885283 
L 126.212051 145.595869 
L 126.516719 146.371477 
L 126.821387 144.135398 
L 127.126056 139.108783 
L 127.735392 122.899316 
L 128.649397 95.853726 
L 128.954066 89.694963 
L 129.258734 86.129886 
L 129.563402 85.511087 
L 129.86807 87.899765 
L 130.172739 93.059677 
L 130.782075 109.428311 
L 131.69608 136.360469 
L 132.000749 142.397762 
L 132.305417 145.816374 
L 132.610085 146.278198 
L 132.914754 143.737561 
L 133.219422 138.445735 
L 133.828758 121.922319 
L 134.742763 95.110809 
L 135.047432 89.196604 
L 135.3521 85.925374 
L 135.656768 85.620648 
L 135.961437 88.312563 
L 136.266105 93.734886 
L 136.875441 110.408657 
L 137.789446 137.092333 
L 138.094115 142.881866 
L 138.398783 146.004839 
L 138.703451 146.152385 
L 139.00812 143.309913 
L 139.312788 137.758546 
L 139.922125 120.938888 
L 140.836129 94.390194 
L 141.140798 88.726885 
L 141.445466 85.753006 
L 141.750134 85.762679 
L 142.054803 88.754947 
L 142.359471 94.43387 
L 142.968808 111.394909 
L 143.882812 137.801508 
L 144.187481 143.337076 
L 144.492149 146.161062 
L 144.796817 145.994173 
L 145.101486 142.852912 
L 145.710822 129.153417 
L 146.929496 93.692651 
L 147.234164 88.286307 
L 147.538832 85.612968 
L 147.8435 85.93703 
L 148.148169 89.226443 
L 148.757505 103.138913 
L 149.976179 138.487232 
L 150.280847 143.762903 
L 150.585515 146.284877 
L 150.890184 145.80373 
L 151.194852 142.367047 
L 151.804188 128.24533 
L 153.022862 93.018929 
L 153.32753 87.875345 
L 153.632198 85.50541 
L 153.936867 86.143513 
L 154.241535 89.726547 
L 154.850871 104.053727 
L 156.069545 139.148771 
L 156.374213 144.158891 
L 156.678881 146.376151 
L 156.98355 145.581262 
L 157.288218 141.852839 
L 157.897555 127.324034 
L 159.116228 92.36975 
L 159.420896 87.494437 
L 159.725564 85.430446 
L 160.030233 86.381907 
L 160.334901 90.254721 
L 160.944238 104.981257 
L 162.162911 139.785416 
L 162.467579 144.524616 
L 162.772247 146.434785 
L 163.076916 145.327006 
L 163.381584 141.310839 
L 163.990921 126.390517 
L 165.209594 91.745809 
L 165.514262 87.143993 
L 165.81893 85.388157 
L 166.123599 86.651957 
L 166.428267 90.8104 
L 167.037604 105.920511 
L 168.256277 140.396486 
L 168.560945 144.859686 
L 168.865613 146.460717 
L 169.170282 145.041235 
L 169.47495 140.741629 
L 170.084287 125.445779 
L 170.998292 97.921165 
L 171.607628 86.824387 
L 171.912297 85.378589 
L 172.216965 86.953372 
L 172.521633 91.392989 
L 173.13097 106.870481 
L 174.044975 134.320312 
L 174.349643 140.981324 
L 174.654311 145.163742 
L 174.95898 146.453919 
L 175.263648 144.724256 
L 175.568316 140.145818 
L 176.177653 124.490832 
L 177.091658 97.123139 
L 177.396326 90.576289 
L 177.700994 86.535962 
L 178.005663 85.401751 
L 178.310331 87.285831 
L 178.614999 92.001864 
L 179.224336 107.830149 
L 180.138341 135.108372 
L 180.443009 141.539304 
L 180.747677 145.436458 
L 181.052346 146.414398 
L 181.357014 144.376407 
L 181.661682 139.524044 
L 182.271019 123.5267 
L 183.185024 96.345256 
L 183.489692 90.031964 
L 183.79436 86.279028 
L 184.099029 85.45762 
L 184.403697 87.648976 
L 184.708365 92.63637 
L 185.317702 108.798487 
L 186.231707 135.875868 
L 186.536375 142.069829 
L 186.841043 145.677541 
L 187.145712 146.342197 
L 187.45038 143.998062 
L 187.755048 138.876974 
L 188.364385 122.554416 
L 189.27839 95.588352 
L 189.583058 89.515382 
L 189.887727 86.05386 
L 190.192395 85.546134 
L 190.497063 88.042419 
L 190.801731 93.29583 
L 191.411068 109.774456 
L 192.325073 136.621978 
L 192.629741 142.572329 
L 192.93441 145.886734 
L 193.239078 146.237393 
L 193.543746 143.589627 
L 193.848414 138.205302 
L 194.457751 121.575022 
L 195.371756 94.853236 
L 195.676424 89.027097 
L 195.981093 85.860698 
L 196.285761 85.667199 
L 196.590429 88.465738 
L 196.895098 93.979535 
L 197.504434 110.757012 
L 198.418439 137.345902 
L 198.723107 143.046267 
L 199.027776 146.063812 
L 199.332444 146.100099 
L 199.637112 143.151538 
L 199.941781 137.509746 
L 200.551117 120.589567 
L 201.465122 94.140698 
L 201.76979 88.567634 
L 202.074459 85.699751 
L 202.379127 85.820686 
L 202.683795 88.918479 
L 203.293132 102.555021 
L 204.511805 138.046864 
L 204.816473 143.491134 
L 205.121142 146.208586 
L 205.42581 145.930461 
L 205.730478 142.684266 
L 206.339815 128.83367 
L 207.558488 93.4515 
L 207.863156 88.137483 
L 208.167825 85.57119 
L 208.472493 86.00643 
L 208.777161 89.400157 
L 209.386498 103.461096 
L 210.605171 138.724113 
L 210.90984 143.906453 
L 211.214508 146.3209 
L 211.519176 145.728661 
L 211.823844 142.188311 
L 212.433181 127.920797 
L 213.651854 92.786381 
L 213.956523 87.737106 
L 214.261191 85.475153 
L 214.565859 86.224231 
L 214.870527 89.910256 
L 215.479864 104.380522 
L 216.698537 139.376924 
L 217.003206 144.29178 
L 217.307874 146.400633 
L 217.612542 145.494916 
L 217.917211 141.664205 
L 218.526547 126.995063 
L 219.74522 92.146054 
L 220.049889 87.366933 
L 220.354557 85.411744 
L 220.659225 86.473857 
L 220.963894 90.448229 
L 221.57323 105.312315 
L 222.791903 140.004596 
L 223.096572 144.646701 
L 223.40124 146.447701 
L 223.705908 145.229476 
L 224.010577 141.112509 
L 224.619913 126.057461 
L 225.838586 91.531205 
L 226.143255 87.027359 
L 226.447923 85.38103 
L 226.752591 86.75504 
L 227.05726 91.0135 
L 227.666596 106.255476 
L 228.580601 133.800558 
L 229.189938 144.970836 
L 229.494606 146.462054 
L 229.799274 144.932626 
L 230.103943 140.533815 
L 230.713279 125.108994 
L 231.627284 97.636541 
L 231.931953 90.942493 
L 232.236621 86.718749 
L 232.541289 85.383044 
L 232.845957 87.067479 
L 233.150626 91.605462 
L 233.759962 107.208995 
L 234.673967 134.601458 
L 234.978636 141.181862 
L 235.283304 145.263838 
L 235.587972 146.443674 
L 235.892641 144.604683 
L 236.197309 139.928743 
L 236.806645 124.150679 
L 237.72065 96.845546 
L 238.025319 90.380549 
L 238.329987 86.441434 
L 238.634655 85.417783 
L 238.939324 87.410838 
L 239.243992 92.223482 
L 239.853328 108.171849 
L 240.767333 135.382337 
L 241.072002 141.730194 
L 241.37667 145.525393 
L 241.681338 146.392583 
L 241.986007 144.245999 
L 242.290675 139.297941 
L 242.900012 123.183544 
L 243.814016 96.074992 
L 244.118685 89.845975 
L 244.423353 86.19571 
L 244.728021 85.485212 
L 245.03269 87.78475 
L 245.337358 92.866897 
L 245.946695 109.143006 
L 246.860699 136.142359 
L 247.165368 142.250866 
L 247.470036 145.75522 
L 247.774704 146.308836 
L 248.079373 143.856959 
L 248.384041 138.642085 
L 248.993378 122.208625 
L 249.907383 95.325706 
L 250.212051 89.339344 
L 250.516719 85.981841 
L 250.821387 85.585257 
L 251.126056 88.188814 
L 251.430724 93.535018 
L 252.040061 110.121426 
L 252.954066 136.880709 
L 253.258734 142.74332 
L 253.563402 145.953073 
L 253.86807 146.19252 
L 254.172739 143.43798 
L 254.477407 137.961878 
L 255.086744 121.226966 
L 256.000749 94.59849 
L 256.305417 88.8612 
L 256.610085 85.800056 
L 256.914754 85.717811 
L 257.219422 88.622597 
L 257.52409 94.227129 
L 258.133427 111.106061 
L 259.047432 137.596595 
L 259.3521 143.207028 
L 259.656768 146.118741 
L 259.961437 146.043763 
L 260.266105 142.989509 
L 260.570773 137.258049 
L 261.18011 120.23962 
L 262.094115 93.894124 
L 262.398783 88.412053 
L 262.703451 85.650551 
L 263.00812 85.882732 
L 263.312788 89.085634 
L 263.922125 102.87404 
L 265.140798 138.289252 
L 265.445466 143.641492 
L 265.750134 146.252045 
L 266.054803 145.862722 
L 266.359471 142.512029 
L 266.968808 128.51219 
L 268.187481 93.213363 
L 268.492149 87.992387 
L 268.796817 85.533484 
L 269.101486 86.079843 
L 269.406154 89.577429 
L 270.015491 103.784951 
L 271.234164 138.957935 
L 271.538832 144.046248 
L 271.8435 146.352842 
L 272.148169 145.649592 
L 272.452837 142.006051 
L 273.062174 127.594654 
L 274.280847 92.556936 
L 274.585515 87.60265 
L 274.890184 85.448982 
L 275.194852 86.308934 
L 275.49952 90.097455 
L 276.108857 104.708866 
L 277.32753 139.601929 
L 277.632198 144.420862 
L 277.936867 146.421026 
L 278.241535 145.404602 
L 278.546203 141.472117 
L 279.15554 126.664606 
L 280.374213 91.925548 
L 280.678881 87.24326 
L 280.98355 85.397136 
L 281.288218 86.569759 
L 281.592886 90.645155 
L 282.202223 105.644797 
L 283.420896 140.220544 
L 283.725564 144.764931 
L 284.030233 146.456521 
L 284.334901 145.128013 
L 284.639569 140.910799 
L 285.248906 125.723044 
L 286.162911 98.158125 
L 286.772247 86.914603 
L 287.076916 85.378 
L 287.381584 86.862037 
L 287.686252 91.219941 
L 288.295589 106.591739 
L 289.209594 134.086185 
L 289.514262 140.813116 
L 289.81893 145.078088 
L 290.123599 146.459292 
L 290.428267 144.820123 
L 290.732935 140.322698 
L 291.342272 124.770976 
L 292.256277 97.35437 
L 292.560945 90.740562 
L 292.865613 86.61703 
L 293.170282 85.391596 
L 293.47495 87.185457 
L 293.779618 91.821198 
L 294.388955 107.548678 
L 295.30296 134.880097 
L 295.607628 141.37901 
L 295.912297 145.359997 
L 296.216965 146.429334 
L 296.521633 144.481261 
L 296.826301 139.708446 
L 297.435638 123.809422 
L 298.349643 96.570512 
L 298.654311 90.188235 
L 298.95898 86.350861 
L 299.263648 85.437908 
L 299.568316 87.539671 
L 299.872984 92.448281 
L 300.482321 108.514588 
L 301.396326 135.653691 
L 301.700994 141.917621 
L 302.005663 145.610356 
L 302.310331 146.366679 
L 302.614999 144.11179 
L 302.919668 139.0687 
L 303.529004 122.839414 
L 304.443009 95.80739 
L 304.747677 89.663485 
L 305.052346 86.11638 
L 305.357014 85.516888 
L 305.661682 87.924299 
L 305.966351 93.100518 
L 306.575687 109.488435 
L 307.489692 136.406136 
L 307.79436 142.428371 
L 308.099029 145.828896 
L 308.403697 146.271396 
L 308.708365 143.712107 
L 309.013034 138.404146 
L 309.62237 121.86199 
L 310.536375 95.065823 
L 310.841043 89.166873 
L 311.145712 85.913839 
L 311.45038 85.62845 
L 311.755048 88.33893 
L 312.059717 93.777211 
L 312.669053 110.469174 
L 313.583058 137.136627 
L 313.887727 142.910711 
L 314.192395 146.015383 
L 314.497063 146.143585 
L 314.801731 143.28264 
L 315.1064 137.715497 
L 315.715736 120.878198 
L 316.629741 94.346605 
L 316.93441 88.698933 
L 317.239078 85.743456 
L 317.543746 85.772475 
L 317.848414 88.783119 
L 318.153083 94.477633 
L 318.762419 111.455755 
L 319.676424 137.84438 
L 319.981093 143.364127 
L 320.285761 146.169617 
L 320.590429 145.983385 
L 320.895098 142.823848 
L 321.504434 129.097948 
L 322.723107 93.650506 
L 323.027776 88.260164 
L 323.332444 85.605412 
L 323.637112 85.948808 
L 323.941781 89.256391 
L 324.551117 103.194809 
L 325.76979 138.528637 
L 326.074459 143.788131 
L 326.379127 146.291433 
L 326.683795 145.790965 
L 326.988464 142.336224 
L 327.5978 128.18902 
L 328.816473 92.978274 
L 329.121142 87.851038 
L 329.42581 85.499856 
L 329.730478 86.157261 
L 330.035147 89.758237 
L 330.644483 104.110434 
L 331.863156 139.188665 
L 332.167825 144.182269 
L 332.472493 146.380701 
L 332.777161 145.566534 
L 333.08183 141.82029 
L 333.691166 127.266944 
L 334.90984 92.330627 
L 335.214508 87.471993 
L 335.519176 85.4269 
L 335.823844 86.397611 
L 336.128513 90.28812 
L 336.737849 105.038715 
L 337.956523 139.823756 
L 338.261191 144.546119 
L 338.565859 146.437325 
L 338.870527 145.310331 
L 339.175196 141.276599 
L 339.784532 126.332708 
L 341.003206 91.708261 
L 341.307874 87.123435 
L 341.612542 85.386624 
L 341.917211 86.669599 
L 342.221879 90.845472 
L 342.831215 105.978657 
L 344.049889 140.433231 
L 344.354557 144.879291 
L 344.659225 146.461244 
L 344.963894 145.022631 
L 345.268562 140.705734 
L 345.877898 125.387312 
L 346.791903 97.871502 
L 347.40124 86.805739 
L 347.705908 85.379069 
L 348.010577 86.972934 
L 348.315245 91.429697 
L 348.924582 106.929253 
L 349.838586 134.369374 
L 350.143255 141.016434 
L 350.447923 145.181428 
L 350.752591 146.452432 
L 351.05726 144.703742 
L 351.361928 140.108307 
L 351.971265 124.43177 
L 352.88527 97.074691 
L 353.189938 90.54201 
L 353.494606 86.519243 
L 353.799274 85.404245 
L 354.103943 87.307291 
L 354.408611 92.040167 
L 355.017948 107.889484 
L 355.931953 135.156193 
L 356.236621 141.572742 
L 356.541289 145.452206 
L 356.845957 146.410899 
L 357.150626 144.354007 
L 357.455294 139.484957 
L 358.064631 123.467107 
L 358.064631 123.467107 
" style="fill:none;stroke:#9467bd;stroke-linecap:square;stroke-width:1.5;"/>
   </g>
   <g id="patch_3">
    <path d="M 38.482813 224.64 
L 38.482813 7.2 
" style="fill:none;stroke:#000000;stroke-linecap:square;stroke-linejoin:miter;stroke-width:0.8;"/>
   </g>
   <g id="patch_4">
    <path d="M 373.282813 224.64 
L 373.282813 7.2 
" style="fill:none;stroke:#000000;stroke-linecap:square;stroke-linejoin:miter;stroke-width:0.8;"/>
   </g>
   <g id="patch_5">
    <path d="M 38.482813 224.64 
L 373.282812 224.64 
" style="fill:none;stroke:#000000;stroke-linecap:square;stroke-linejoin:miter;stroke-width:0.8;"/>
   </g>
   <g id="patch_6">
    <path d="M 38.482813 7.2 
L 373.282812 7.2 
" style="fill:none;stroke:#000000;stroke-linecap:square;stroke-linejoin:miter;stroke-width:0.8;"/>
   </g>
  </g>
 </g>
 <defs>
  <clipPath id="p34d7d1a83f">
   <rect height="217.44" width="334.8" x="38.482813" y="7.2"/>
  </clipPath>
 </defs>
</svg>
