<?xml version="1.0" encoding="utf-8" standalone="no"?>
<!DOCTYPE svg PUBLIC "-//W3C//DTD SVG 1.1//EN"
  "http://www.w3.org/Graphics/SVG/1.1/DTD/svg11.dtd">
<!-- Created with matplotlib (https://matplotlib.org/) -->
<svg height="248.518125pt" version="1.1" viewBox="0 0 386.845312 248.518125" width="386.845312pt" xmlns="http://www.w3.org/2000/svg" xmlns:xlink="http://www.w3.org/1999/xlink">
 <metadata>
  <rdf:RDF xmlns:cc="http://creativecommons.org/ns#" xmlns:dc="http://purl.org/dc/elements/1.1/" xmlns:rdf="http://www.w3.org/1999/02/22-rdf-syntax-ns#">
   <cc:Work>
    <dc:type rdf:resource="http://purl.org/dc/dcmitype/StillImage"/>
    <dc:date>2021-10-24T19:04:24.011199</dc:date>
    <dc:format>image/svg+xml</dc:format>
    <dc:creator>
     <cc:Agent>
      <dc:title>Matplotlib v3.3.4, https://matplotlib.org/</dc:title>
     </cc:Agent>
    </dc:creator>
   </cc:Work>
  </rdf:RDF>
 </metadata>
 <defs>
  <style type="text/css">*{stroke-linecap:butt;stroke-linejoin:round;}</style>
 </defs>
 <g id="figure_1">
  <g id="patch_1">
   <path d="M 0 248.518125 
L 386.845312 248.518125 
L 386.845312 0 
L 0 0 
z
" style="fill:none;"/>
  </g>
  <g id="axes_1">
   <g id="patch_2">
    <path d="M 44.845313 224.64 
L 379.645313 224.64 
L 379.645313 7.2 
L 44.845313 7.2 
z
" style="fill:#ffffff;"/>
   </g>
   <g id="matplotlib.axis_1">
    <g id="xtick_1">
     <g id="line2d_1">
      <defs>
       <path d="M 0 0 
L 0 3.5 
" id="mcddde2540d" style="stroke:#000000;stroke-width:0.8;"/>
      </defs>
      <g>
       <use style="stroke:#000000;stroke-width:0.8;" x="60.063494" xlink:href="#mcddde2540d" y="224.64"/>
      </g>
     </g>
     <g id="text_1">
      <!-- 0 -->
      <g transform="translate(56.882244 239.238437)scale(0.1 -0.1)">
       <defs>
        <path d="M 31.78125 66.40625 
Q 24.171875 66.40625 20.328125 58.90625 
Q 16.5 51.421875 16.5 36.375 
Q 16.5 21.390625 20.328125 13.890625 
Q 24.171875 6.390625 31.78125 6.390625 
Q 39.453125 6.390625 43.28125 13.890625 
Q 47.125 21.390625 47.125 36.375 
Q 47.125 51.421875 43.28125 58.90625 
Q 39.453125 66.40625 31.78125 66.40625 
z
M 31.78125 74.21875 
Q 44.046875 74.21875 50.515625 64.515625 
Q 56.984375 54.828125 56.984375 36.375 
Q 56.984375 17.96875 50.515625 8.265625 
Q 44.046875 -1.421875 31.78125 -1.421875 
Q 19.53125 -1.421875 13.0625 8.265625 
Q 6.59375 17.96875 6.59375 36.375 
Q 6.59375 54.828125 13.0625 64.515625 
Q 19.53125 74.21875 31.78125 74.21875 
z
" id="DejaVuSans-48"/>
       </defs>
       <use xlink:href="#DejaVuSans-48"/>
      </g>
     </g>
    </g>
    <g id="xtick_2">
     <g id="line2d_2">
      <g>
       <use style="stroke:#000000;stroke-width:0.8;" x="120.936222" xlink:href="#mcddde2540d" y="224.64"/>
      </g>
     </g>
     <g id="text_2">
      <!-- 20 -->
      <g transform="translate(114.573722 239.238437)scale(0.1 -0.1)">
       <defs>
        <path d="M 19.1875 8.296875 
L 53.609375 8.296875 
L 53.609375 0 
L 7.328125 0 
L 7.328125 8.296875 
Q 12.9375 14.109375 22.625 23.890625 
Q 32.328125 33.6875 34.8125 36.53125 
Q 39.546875 41.84375 41.421875 45.53125 
Q 43.3125 49.21875 43.3125 52.78125 
Q 43.3125 58.59375 39.234375 62.25 
Q 35.15625 65.921875 28.609375 65.921875 
Q 23.96875 65.921875 18.8125 64.3125 
Q 13.671875 62.703125 7.8125 59.421875 
L 7.8125 69.390625 
Q 13.765625 71.78125 18.9375 73 
Q 24.125 74.21875 28.421875 74.21875 
Q 39.75 74.21875 46.484375 68.546875 
Q 53.21875 62.890625 53.21875 53.421875 
Q 53.21875 48.921875 51.53125 44.890625 
Q 49.859375 40.875 45.40625 35.40625 
Q 44.1875 33.984375 37.640625 27.21875 
Q 31.109375 20.453125 19.1875 8.296875 
z
" id="DejaVuSans-50"/>
       </defs>
       <use xlink:href="#DejaVuSans-50"/>
       <use x="63.623047" xlink:href="#DejaVuSans-48"/>
      </g>
     </g>
    </g>
    <g id="xtick_3">
     <g id="line2d_3">
      <g>
       <use style="stroke:#000000;stroke-width:0.8;" x="181.808949" xlink:href="#mcddde2540d" y="224.64"/>
      </g>
     </g>
     <g id="text_3">
      <!-- 40 -->
      <g transform="translate(175.446449 239.238437)scale(0.1 -0.1)">
       <defs>
        <path d="M 37.796875 64.3125 
L 12.890625 25.390625 
L 37.796875 25.390625 
z
M 35.203125 72.90625 
L 47.609375 72.90625 
L 47.609375 25.390625 
L 58.015625 25.390625 
L 58.015625 17.1875 
L 47.609375 17.1875 
L 47.609375 0 
L 37.796875 0 
L 37.796875 17.1875 
L 4.890625 17.1875 
L 4.890625 26.703125 
z
" id="DejaVuSans-52"/>
       </defs>
       <use xlink:href="#DejaVuSans-52"/>
       <use x="63.623047" xlink:href="#DejaVuSans-48"/>
      </g>
     </g>
    </g>
    <g id="xtick_4">
     <g id="line2d_4">
      <g>
       <use style="stroke:#000000;stroke-width:0.8;" x="242.681676" xlink:href="#mcddde2540d" y="224.64"/>
      </g>
     </g>
     <g id="text_4">
      <!-- 60 -->
      <g transform="translate(236.319176 239.238437)scale(0.1 -0.1)">
       <defs>
        <path d="M 33.015625 40.375 
Q 26.375 40.375 22.484375 35.828125 
Q 18.609375 31.296875 18.609375 23.390625 
Q 18.609375 15.53125 22.484375 10.953125 
Q 26.375 6.390625 33.015625 6.390625 
Q 39.65625 6.390625 43.53125 10.953125 
Q 47.40625 15.53125 47.40625 23.390625 
Q 47.40625 31.296875 43.53125 35.828125 
Q 39.65625 40.375 33.015625 40.375 
z
M 52.59375 71.296875 
L 52.59375 62.3125 
Q 48.875 64.0625 45.09375 64.984375 
Q 41.3125 65.921875 37.59375 65.921875 
Q 27.828125 65.921875 22.671875 59.328125 
Q 17.53125 52.734375 16.796875 39.40625 
Q 19.671875 43.65625 24.015625 45.921875 
Q 28.375 48.1875 33.59375 48.1875 
Q 44.578125 48.1875 50.953125 41.515625 
Q 57.328125 34.859375 57.328125 23.390625 
Q 57.328125 12.15625 50.6875 5.359375 
Q 44.046875 -1.421875 33.015625 -1.421875 
Q 20.359375 -1.421875 13.671875 8.265625 
Q 6.984375 17.96875 6.984375 36.375 
Q 6.984375 53.65625 15.1875 63.9375 
Q 23.390625 74.21875 37.203125 74.21875 
Q 40.921875 74.21875 44.703125 73.484375 
Q 48.484375 72.75 52.59375 71.296875 
z
" id="DejaVuSans-54"/>
       </defs>
       <use xlink:href="#DejaVuSans-54"/>
       <use x="63.623047" xlink:href="#DejaVuSans-48"/>
      </g>
     </g>
    </g>
    <g id="xtick_5">
     <g id="line2d_5">
      <g>
       <use style="stroke:#000000;stroke-width:0.8;" x="303.554403" xlink:href="#mcddde2540d" y="224.64"/>
      </g>
     </g>
     <g id="text_5">
      <!-- 80 -->
      <g transform="translate(297.191903 239.238437)scale(0.1 -0.1)">
       <defs>
        <path d="M 31.78125 34.625 
Q 24.75 34.625 20.71875 30.859375 
Q 16.703125 27.09375 16.703125 20.515625 
Q 16.703125 13.921875 20.71875 10.15625 
Q 24.75 6.390625 31.78125 6.390625 
Q 38.8125 6.390625 42.859375 10.171875 
Q 46.921875 13.96875 46.921875 20.515625 
Q 46.921875 27.09375 42.890625 30.859375 
Q 38.875 34.625 31.78125 34.625 
z
M 21.921875 38.8125 
Q 15.578125 40.375 12.03125 44.71875 
Q 8.5 49.078125 8.5 55.328125 
Q 8.5 64.0625 14.71875 69.140625 
Q 20.953125 74.21875 31.78125 74.21875 
Q 42.671875 74.21875 48.875 69.140625 
Q 55.078125 64.0625 55.078125 55.328125 
Q 55.078125 49.078125 51.53125 44.71875 
Q 48 40.375 41.703125 38.8125 
Q 48.828125 37.15625 52.796875 32.3125 
Q 56.78125 27.484375 56.78125 20.515625 
Q 56.78125 9.90625 50.3125 4.234375 
Q 43.84375 -1.421875 31.78125 -1.421875 
Q 19.734375 -1.421875 13.25 4.234375 
Q 6.78125 9.90625 6.78125 20.515625 
Q 6.78125 27.484375 10.78125 32.3125 
Q 14.796875 37.15625 21.921875 38.8125 
z
M 18.3125 54.390625 
Q 18.3125 48.734375 21.84375 45.5625 
Q 25.390625 42.390625 31.78125 42.390625 
Q 38.140625 42.390625 41.71875 45.5625 
Q 45.3125 48.734375 45.3125 54.390625 
Q 45.3125 60.0625 41.71875 63.234375 
Q 38.140625 66.40625 31.78125 66.40625 
Q 25.390625 66.40625 21.84375 63.234375 
Q 18.3125 60.0625 18.3125 54.390625 
z
" id="DejaVuSans-56"/>
       </defs>
       <use xlink:href="#DejaVuSans-56"/>
       <use x="63.623047" xlink:href="#DejaVuSans-48"/>
      </g>
     </g>
    </g>
    <g id="xtick_6">
     <g id="line2d_6">
      <g>
       <use style="stroke:#000000;stroke-width:0.8;" x="364.427131" xlink:href="#mcddde2540d" y="224.64"/>
      </g>
     </g>
     <g id="text_6">
      <!-- 100 -->
      <g transform="translate(354.883381 239.238437)scale(0.1 -0.1)">
       <defs>
        <path d="M 12.40625 8.296875 
L 28.515625 8.296875 
L 28.515625 63.921875 
L 10.984375 60.40625 
L 10.984375 69.390625 
L 28.421875 72.90625 
L 38.28125 72.90625 
L 38.28125 8.296875 
L 54.390625 8.296875 
L 54.390625 0 
L 12.40625 0 
z
" id="DejaVuSans-49"/>
       </defs>
       <use xlink:href="#DejaVuSans-49"/>
       <use x="63.623047" xlink:href="#DejaVuSans-48"/>
       <use x="127.246094" xlink:href="#DejaVuSans-48"/>
      </g>
     </g>
    </g>
   </g>
   <g id="matplotlib.axis_2">
    <g id="ytick_1">
     <g id="line2d_7">
      <defs>
       <path d="M 0 0 
L -3.5 0 
" id="m4e1713a03f" style="stroke:#000000;stroke-width:0.8;"/>
      </defs>
      <g>
       <use style="stroke:#000000;stroke-width:0.8;" x="44.845313" xlink:href="#m4e1713a03f" y="217.062669"/>
      </g>
     </g>
     <g id="text_7">
      <!-- −0.20 -->
      <g transform="translate(7.2 220.861888)scale(0.1 -0.1)">
       <defs>
        <path d="M 10.59375 35.5 
L 73.1875 35.5 
L 73.1875 27.203125 
L 10.59375 27.203125 
z
" id="DejaVuSans-8722"/>
        <path d="M 10.6875 12.40625 
L 21 12.40625 
L 21 0 
L 10.6875 0 
z
" id="DejaVuSans-46"/>
       </defs>
       <use xlink:href="#DejaVuSans-8722"/>
       <use x="83.789062" xlink:href="#DejaVuSans-48"/>
       <use x="147.412109" xlink:href="#DejaVuSans-46"/>
       <use x="179.199219" xlink:href="#DejaVuSans-50"/>
       <use x="242.822266" xlink:href="#DejaVuSans-48"/>
      </g>
     </g>
    </g>
    <g id="ytick_2">
     <g id="line2d_8">
      <g>
       <use style="stroke:#000000;stroke-width:0.8;" x="44.845313" xlink:href="#m4e1713a03f" y="191.776962"/>
      </g>
     </g>
     <g id="text_8">
      <!-- −0.15 -->
      <g transform="translate(7.2 195.576181)scale(0.1 -0.1)">
       <defs>
        <path d="M 10.796875 72.90625 
L 49.515625 72.90625 
L 49.515625 64.59375 
L 19.828125 64.59375 
L 19.828125 46.734375 
Q 21.96875 47.46875 24.109375 47.828125 
Q 26.265625 48.1875 28.421875 48.1875 
Q 40.625 48.1875 47.75 41.5 
Q 54.890625 34.8125 54.890625 23.390625 
Q 54.890625 11.625 47.5625 5.09375 
Q 40.234375 -1.421875 26.90625 -1.421875 
Q 22.3125 -1.421875 17.546875 -0.640625 
Q 12.796875 0.140625 7.71875 1.703125 
L 7.71875 11.625 
Q 12.109375 9.234375 16.796875 8.0625 
Q 21.484375 6.890625 26.703125 6.890625 
Q 35.15625 6.890625 40.078125 11.328125 
Q 45.015625 15.765625 45.015625 23.390625 
Q 45.015625 31 40.078125 35.4375 
Q 35.15625 39.890625 26.703125 39.890625 
Q 22.75 39.890625 18.8125 39.015625 
Q 14.890625 38.140625 10.796875 36.28125 
z
" id="DejaVuSans-53"/>
       </defs>
       <use xlink:href="#DejaVuSans-8722"/>
       <use x="83.789062" xlink:href="#DejaVuSans-48"/>
       <use x="147.412109" xlink:href="#DejaVuSans-46"/>
       <use x="179.199219" xlink:href="#DejaVuSans-49"/>
       <use x="242.822266" xlink:href="#DejaVuSans-53"/>
      </g>
     </g>
    </g>
    <g id="ytick_3">
     <g id="line2d_9">
      <g>
       <use style="stroke:#000000;stroke-width:0.8;" x="44.845313" xlink:href="#m4e1713a03f" y="166.491255"/>
      </g>
     </g>
     <g id="text_9">
      <!-- −0.10 -->
      <g transform="translate(7.2 170.290473)scale(0.1 -0.1)">
       <use xlink:href="#DejaVuSans-8722"/>
       <use x="83.789062" xlink:href="#DejaVuSans-48"/>
       <use x="147.412109" xlink:href="#DejaVuSans-46"/>
       <use x="179.199219" xlink:href="#DejaVuSans-49"/>
       <use x="242.822266" xlink:href="#DejaVuSans-48"/>
      </g>
     </g>
    </g>
    <g id="ytick_4">
     <g id="line2d_10">
      <g>
       <use style="stroke:#000000;stroke-width:0.8;" x="44.845313" xlink:href="#m4e1713a03f" y="141.205547"/>
      </g>
     </g>
     <g id="text_10">
      <!-- −0.05 -->
      <g transform="translate(7.2 145.004766)scale(0.1 -0.1)">
       <use xlink:href="#DejaVuSans-8722"/>
       <use x="83.789062" xlink:href="#DejaVuSans-48"/>
       <use x="147.412109" xlink:href="#DejaVuSans-46"/>
       <use x="179.199219" xlink:href="#DejaVuSans-48"/>
       <use x="242.822266" xlink:href="#DejaVuSans-53"/>
      </g>
     </g>
    </g>
    <g id="ytick_5">
     <g id="line2d_11">
      <g>
       <use style="stroke:#000000;stroke-width:0.8;" x="44.845313" xlink:href="#m4e1713a03f" y="115.91984"/>
      </g>
     </g>
     <g id="text_11">
      <!-- 0.00 -->
      <g transform="translate(15.579688 119.719059)scale(0.1 -0.1)">
       <use xlink:href="#DejaVuSans-48"/>
       <use x="63.623047" xlink:href="#DejaVuSans-46"/>
       <use x="95.410156" xlink:href="#DejaVuSans-48"/>
       <use x="159.033203" xlink:href="#DejaVuSans-48"/>
      </g>
     </g>
    </g>
    <g id="ytick_6">
     <g id="line2d_12">
      <g>
       <use style="stroke:#000000;stroke-width:0.8;" x="44.845313" xlink:href="#m4e1713a03f" y="90.634133"/>
      </g>
     </g>
     <g id="text_12">
      <!-- 0.05 -->
      <g transform="translate(15.579688 94.433352)scale(0.1 -0.1)">
       <use xlink:href="#DejaVuSans-48"/>
       <use x="63.623047" xlink:href="#DejaVuSans-46"/>
       <use x="95.410156" xlink:href="#DejaVuSans-48"/>
       <use x="159.033203" xlink:href="#DejaVuSans-53"/>
      </g>
     </g>
    </g>
    <g id="ytick_7">
     <g id="line2d_13">
      <g>
       <use style="stroke:#000000;stroke-width:0.8;" x="44.845313" xlink:href="#m4e1713a03f" y="65.348426"/>
      </g>
     </g>
     <g id="text_13">
      <!-- 0.10 -->
      <g transform="translate(15.579688 69.147644)scale(0.1 -0.1)">
       <use xlink:href="#DejaVuSans-48"/>
       <use x="63.623047" xlink:href="#DejaVuSans-46"/>
       <use x="95.410156" xlink:href="#DejaVuSans-49"/>
       <use x="159.033203" xlink:href="#DejaVuSans-48"/>
      </g>
     </g>
    </g>
    <g id="ytick_8">
     <g id="line2d_14">
      <g>
       <use style="stroke:#000000;stroke-width:0.8;" x="44.845313" xlink:href="#m4e1713a03f" y="40.062718"/>
      </g>
     </g>
     <g id="text_14">
      <!-- 0.15 -->
      <g transform="translate(15.579688 43.861937)scale(0.1 -0.1)">
       <use xlink:href="#DejaVuSans-48"/>
       <use x="63.623047" xlink:href="#DejaVuSans-46"/>
       <use x="95.410156" xlink:href="#DejaVuSans-49"/>
       <use x="159.033203" xlink:href="#DejaVuSans-53"/>
      </g>
     </g>
    </g>
    <g id="ytick_9">
     <g id="line2d_15">
      <g>
       <use style="stroke:#000000;stroke-width:0.8;" x="44.845313" xlink:href="#m4e1713a03f" y="14.777011"/>
      </g>
     </g>
     <g id="text_15">
      <!-- 0.20 -->
      <g transform="translate(15.579688 18.57623)scale(0.1 -0.1)">
       <use xlink:href="#DejaVuSans-48"/>
       <use x="63.623047" xlink:href="#DejaVuSans-46"/>
       <use x="95.410156" xlink:href="#DejaVuSans-50"/>
       <use x="159.033203" xlink:href="#DejaVuSans-48"/>
      </g>
     </g>
    </g>
   </g>
   <g id="line2d_16">
    <path clip-path="url(#pa76709a59d)" d="M 60.063494 214.756364 
L 60.368163 209.590993 
L 60.672831 194.634784 
L 61.282168 142.462925 
L 62.196172 52.075083 
L 62.500841 31.339896 
L 62.805509 19.445303 
L 63.110177 17.634568 
L 63.414846 26.096956 
L 63.719514 43.947948 
L 64.328851 99.566045 
L 65.242855 187.366007 
L 65.547524 205.421311 
L 65.852192 214.121606 
L 66.15686 212.557506 
L 66.461529 200.892498 
L 67.070865 153.065165 
L 68.289539 37.669232 
L 68.594207 22.495215 
L 68.898875 17.086269 
L 69.203543 22.007755 
L 69.508212 36.745264 
L 70.117548 88.641685 
L 71.031553 179.179533 
L 71.336222 200.102018 
L 71.64089 212.225485 
L 71.945558 214.282747 
L 72.250227 206.058771 
L 72.554895 188.413158 
L 73.164231 133.026543 
L 74.078236 45.003666 
L 74.382905 26.74513 
L 74.687573 17.807448 
L 74.992241 19.124818 
L 75.29691 30.559545 
L 75.906246 78.067702 
L 77.124919 193.701438 
L 77.429588 209.092356 
L 77.734256 214.744555 
L 78.038924 210.067246 
L 78.343593 195.54932 
L 78.952929 143.931436 
L 79.866934 53.248991 
L 80.171602 32.140458 
L 80.476271 19.788841 
L 80.780939 17.485175 
L 81.085607 25.470247 
L 81.390276 42.909428 
L 81.999612 98.061251 
L 82.913617 186.301784 
L 83.218285 204.762463 
L 83.522954 213.936998 
L 83.827622 212.866435 
L 84.13229 201.662672 
L 84.741627 154.47653 
L 85.9603 38.611899 
L 86.264969 23.005 
L 86.569637 17.109886 
L 86.874305 21.542737 
L 87.178973 35.840215 
L 87.78831 87.176477 
L 88.702315 177.998102 
L 89.006983 199.291422 
L 89.311652 211.87045 
L 89.61632 214.420383 
L 89.920988 206.674692 
L 90.225656 189.442985 
L 90.834993 134.529248 
L 91.748998 46.076331 
L 92.053666 27.414612 
L 92.358335 18.003772 
L 92.663003 18.827464 
L 92.967671 29.799593 
L 93.577008 76.660901 
L 94.795681 192.749505 
L 95.100349 208.571454 
L 95.405018 214.70913 
L 95.709686 210.521002 
L 96.014354 196.444827 
L 96.623691 145.393252 
L 97.537696 54.437874 
L 97.842364 32.96104 
L 98.147032 20.155351 
L 98.451701 17.359304 
L 98.756369 24.865151 
L 99.061037 41.888355 
L 99.670374 96.560725 
L 100.584379 185.220742 
L 100.889047 204.082385 
L 101.193715 213.728968 
L 101.498384 213.152197 
L 101.803052 202.412358 
L 102.412389 155.878683 
L 103.631062 39.57304 
L 103.93573 23.536987 
L 104.240398 17.157115 
L 104.545067 21.100271 
L 104.849735 34.954302 
L 105.459072 85.718139 
L 106.373077 176.801836 
L 106.677745 198.460903 
L 106.982413 211.492487 
L 107.287082 214.534481 
L 107.59175 207.268926 
L 107.896418 190.455243 
L 108.505755 136.027506 
L 109.41976 47.165685 
L 109.724428 28.105245 
L 110.029096 18.223495 
L 110.333765 18.553311 
L 110.638433 29.060219 
L 111.24777 75.263481 
L 112.466443 191.779213 
L 112.771111 208.028412 
L 113.075779 214.650099 
L 113.380448 210.952152 
L 113.685116 197.321092 
L 114.294453 146.848026 
L 115.208457 55.64145 
L 115.513126 33.801446 
L 115.817794 20.544745 
L 116.122462 17.256985 
L 116.427131 24.281814 
L 116.731799 40.884972 
L 117.341136 95.064825 
L 118.255141 184.12314 
L 118.559809 203.38124 
L 118.864477 213.497566 
L 119.169145 213.414725 
L 119.473814 203.141375 
L 119.778482 183.751323 
L 120.387819 126.46905 
L 121.301824 40.552425 
L 121.606492 24.091051 
L 121.91116 17.227945 
L 122.215828 20.680463 
L 122.520497 34.087737 
L 123.129833 84.267017 
L 124.043838 175.591022 
L 124.348507 197.61066 
L 124.653175 211.091685 
L 124.957843 214.625014 
L 125.262512 207.841331 
L 125.56718 191.44969 
L 126.176516 137.520959 
L 127.090521 48.271469 
L 127.39519 28.816861 
L 127.699858 18.466563 
L 128.004526 18.302425 
L 128.309195 28.341602 
L 128.613863 47.534765 
L 129.223199 104.611382 
L 130.137204 190.790794 
L 130.441873 207.46336 
L 130.746541 214.567475 
L 131.051209 211.360592 
L 131.355878 198.177906 
L 131.965214 148.295409 
L 132.879219 56.85943 
L 133.183887 34.661475 
L 133.488556 20.95693 
L 133.793224 17.178243 
L 134.097892 23.720375 
L 134.402561 39.89952 
L 135.011897 93.573908 
L 135.925902 183.00924 
L 136.23057 202.659194 
L 136.535239 213.242846 
L 136.839907 213.653954 
L 137.144575 203.849549 
L 137.449244 184.854421 
L 138.05858 127.986869 
L 138.972585 41.54982 
L 139.277254 24.667058 
L 139.581922 17.322358 
L 139.88659 20.283414 
L 140.191258 33.240726 
L 140.800595 82.823459 
L 141.7146 174.365949 
L 142.019268 196.740896 
L 142.323937 210.668141 
L 142.628605 214.691961 
L 142.933273 208.39177 
L 143.237941 192.426088 
L 143.847278 139.00925 
L 144.761283 49.393419 
L 145.065951 29.549292 
L 145.37062 18.732919 
L 145.675288 18.074865 
L 145.979956 27.643913 
L 146.284625 46.439871 
L 146.893961 103.09496 
L 147.807966 189.784483 
L 148.112634 206.876432 
L 148.417303 214.461278 
L 148.721971 211.746226 
L 149.026639 199.015063 
L 149.635976 149.735056 
L 150.854649 35.540922 
L 151.159317 21.391808 
L 151.463986 17.123096 
L 151.768654 23.180969 
L 152.073322 38.932234 
L 152.682659 92.088332 
L 153.596664 181.879308 
L 153.901332 201.916422 
L 154.206 212.96487 
L 154.510669 213.86983 
L 154.815337 204.536712 
L 155.120005 185.941047 
L 155.729342 129.501805 
L 156.643347 42.564987 
L 156.948015 25.264871 
L 157.252684 17.440333 
L 157.557352 19.909219 
L 157.86202 32.413473 
L 158.471357 81.38781 
L 159.69003 195.851819 
L 159.994698 210.221956 
L 160.299367 214.735304 
L 160.604035 208.920112 
L 160.908703 193.384204 
L 161.51804 140.492023 
L 162.432045 50.531266 
L 162.736713 30.302362 
L 163.041381 19.022499 
L 163.34605 17.870687 
L 163.650718 26.967318 
L 163.955386 45.361579 
L 164.564723 101.581602 
L 165.478728 188.760522 
L 165.783396 206.267769 
L 166.088064 214.331534 
L 166.392733 212.108961 
L 166.697401 199.832363 
L 167.306738 151.166622 
L 168.525411 36.439576 
L 168.830079 21.849274 
L 169.134747 17.091558 
L 169.439416 22.663723 
L 169.744084 37.983345 
L 170.353421 90.60845 
L 171.267426 180.733615 
L 171.572094 201.153099 
L 171.876762 212.663703 
L 172.18143 214.062299 
L 172.486099 205.202698 
L 172.790767 187.01094 
L 173.400104 131.013495 
L 174.314109 43.597682 
L 174.618777 25.884347 
L 174.923445 17.58184 
L 175.228113 19.557966 
L 175.532782 31.606174 
L 176.142118 79.960413 
L 177.360792 194.943641 
L 177.66546 209.753237 
L 177.970128 214.755035 
L 178.274797 209.426231 
L 178.579465 194.32381 
L 179.188801 141.968925 
L 180.102806 51.684738 
L 180.407475 31.075892 
L 180.712143 19.335234 
L 181.016811 17.689939 
L 181.32148 26.311979 
L 181.626148 44.300149 
L 182.235484 100.07167 
L 183.149489 187.719154 
L 183.454158 205.637517 
L 183.758826 214.178272 
L 184.063494 212.448711 
L 184.368163 200.629612 
L 184.977499 152.589765 
L 186.196172 37.357223 
L 186.500841 22.329219 
L 186.805509 17.083636 
L 187.110177 22.168762 
L 187.414846 37.05308 
L 188.024182 89.134617 
L 188.938187 179.572433 
L 189.242855 200.369409 
L 189.547524 212.339419 
L 189.852192 214.231315 
L 190.15686 205.84735 
L 190.461529 188.063845 
L 191.070865 132.521578 
L 191.98487 44.64766 
L 192.289539 26.525339 
L 192.594207 17.746846 
L 192.898875 19.22974 
L 193.203543 30.819023 
L 193.81288 78.541608 
L 195.031553 194.01658 
L 195.336222 209.262094 
L 195.64089 214.751148 
L 195.945558 209.910005 
L 196.250227 195.244679 
L 196.859563 143.439602 
L 197.773568 52.853559 
L 198.078236 31.869695 
L 198.382905 19.671048 
L 198.687573 17.532664 
L 198.992241 25.678053 
L 199.29691 43.255832 
L 199.906246 98.565526 
L 200.820251 186.660629 
L 201.124919 204.985825 
L 201.429588 214.001531 
L 201.734256 212.765394 
L 202.038924 201.406618 
L 202.648261 154.004146 
L 203.866934 38.293643 
L 204.171602 22.831529 
L 204.476271 17.099332 
L 204.780939 21.696204 
L 205.085607 36.141661 
L 205.694944 87.667184 
L 206.608949 178.396041 
L 206.913617 199.565539 
L 207.218285 211.992094 
L 207.522954 214.376839 
L 207.827622 206.470512 
L 208.13229 189.09951 
L 208.741627 134.025694 
L 209.655632 45.714668 
L 209.9603 27.187692 
L 210.264969 17.935311 
L 210.569637 18.924619 
L 210.874305 30.052208 
L 211.483642 77.131736 
L 212.702315 193.070857 
L 213.006983 208.748647 
L 213.311652 214.723644 
L 213.61632 210.371319 
L 213.920988 196.146593 
L 214.530325 144.903703 
L 215.44433 54.037452 
L 215.748998 32.683584 
L 216.053666 20.029863 
L 216.358335 17.3989 
L 216.663003 25.065692 
L 216.967671 42.22888 
L 217.577008 97.063528 
L 218.491013 185.5852 
L 218.795681 204.312851 
L 219.100349 213.801352 
L 219.405018 213.058934 
L 219.709686 202.163196 
L 220.319023 155.409425 
L 221.537696 39.248613 
L 221.842364 23.356083 
L 222.147032 17.138643 
L 222.451701 21.246161 
L 222.756369 35.249306 
L 223.365706 86.206502 
L 224.279711 177.204719 
L 224.584379 198.741681 
L 224.889047 211.621812 
L 225.193715 214.498836 
L 225.498384 207.072036 
L 225.803052 190.117688 
L 226.412389 135.525483 
L 227.326394 46.798454 
L 227.631062 27.871248 
L 227.93573 18.147192 
L 228.240398 18.642676 
L 228.545067 29.305913 
L 229.154403 75.731132 
L 230.373077 192.106697 
L 230.677745 208.213017 
L 230.982413 214.672529 
L 231.287082 210.810063 
L 231.59175 197.029336 
L 232.201086 146.360878 
L 233.115091 55.236131 
L 233.41976 33.517363 
L 233.724428 20.411591 
L 234.029096 17.288678 
L 234.333765 24.475041 
L 234.638433 41.219537 
L 235.24777 95.566037 
L 236.161774 184.493123 
L 236.466443 203.618753 
L 236.771111 213.577784 
L 237.075779 213.329262 
L 237.380448 202.899165 
L 237.989784 156.805269 
L 239.208457 40.221905 
L 239.513126 23.902757 
L 239.817794 17.201558 
L 240.122462 20.818742 
L 240.427131 34.376228 
L 241.036467 84.752921 
L 241.950472 175.998753 
L 242.255141 197.898031 
L 242.559809 211.22866 
L 242.864477 214.597276 
L 243.169145 207.651779 
L 243.473814 191.118136 
L 244.08315 137.020588 
L 244.997155 47.898756 
L 245.301824 28.575845 
L 245.606492 18.382436 
L 245.91116 18.383979 
L 246.215828 28.580314 
L 246.520497 47.905684 
L 247.129833 105.120639 
L 248.043838 191.124332 
L 248.348507 207.655333 
L 248.653175 214.597817 
L 248.957843 211.226132 
L 249.262512 197.892697 
L 249.871848 147.810778 
L 250.785853 56.449312 
L 251.090521 34.370833 
L 251.39519 20.816142 
L 251.699858 17.202026 
L 252.004526 23.906242 
L 252.309195 40.228044 
L 252.918531 94.073409 
L 253.832536 183.38466 
L 254.137204 202.903699 
L 254.441873 213.330878 
L 254.746541 213.576313 
L 255.051209 203.61435 
L 255.355878 184.486247 
L 255.965214 127.478071 
L 256.879219 41.213285 
L 257.183887 24.471419 
L 257.488556 17.288063 
L 257.793224 20.414049 
L 258.097892 33.522635 
L 258.707229 83.306788 
L 259.621234 174.77843 
L 259.925902 197.034792 
L 260.23057 210.812734 
L 260.535239 214.672136 
L 260.839907 208.2096 
L 261.144575 192.100614 
L 261.753912 138.51065 
L 262.667917 49.015313 
L 262.972585 29.301314 
L 263.277254 18.640987 
L 263.581922 18.148589 
L 263.88659 27.875586 
L 264.191258 46.805279 
L 264.800595 103.603269 
L 265.7146 190.123996 
L 266.019268 207.075727 
L 266.323937 214.499524 
L 266.628605 211.619426 
L 266.933273 198.73647 
L 267.54261 149.253058 
L 268.456615 57.676704 
L 268.761283 35.24379 
L 269.065951 21.24342 
L 269.37062 17.138963 
L 269.675288 23.359431 
L 269.979956 39.254639 
L 270.589293 92.586001 
L 271.503298 182.260076 
L 271.807966 202.167859 
L 272.112634 213.060696 
L 272.417303 213.800028 
L 272.721971 204.308578 
L 273.026639 185.578427 
L 273.635976 128.994015 
L 274.549981 42.222517 
L 274.854649 25.061933 
L 275.159317 17.398138 
L 275.463986 20.032177 
L 275.768654 32.688733 
L 276.377991 81.868448 
L 277.596664 196.15217 
L 277.901332 210.374131 
L 278.206 214.723398 
L 278.510669 208.745369 
L 278.815337 193.064888 
L 279.424674 139.995314 
L 280.338679 50.147858 
L 280.643347 30.047481 
L 280.948015 18.922785 
L 281.252684 17.936563 
L 281.557352 27.191898 
L 281.86202 45.721389 
L 282.471357 102.088843 
L 283.385362 189.105927 
L 283.69003 206.474339 
L 283.994698 214.377675 
L 284.299367 211.989852 
L 284.604035 199.560452 
L 285.213371 150.687373 
L 286.432045 36.136025 
L 286.736713 21.693321 
L 287.041381 17.099505 
L 287.34605 22.834738 
L 287.650718 38.299553 
L 288.260055 91.10417 
L 289.174059 181.119639 
L 289.478728 201.411409 
L 289.783396 212.7673 
L 290.088064 214.000353 
L 290.392733 204.981686 
L 290.697401 186.653961 
L 291.306738 130.506833 
L 292.220742 43.24936 
L 292.525411 25.67416 
L 292.830079 17.531755 
L 293.134747 19.673219 
L 293.439416 31.874719 
L 294.048752 80.438244 
L 295.267426 195.250375 
L 295.572094 209.912958 
L 295.876762 214.751049 
L 296.18143 209.258955 
L 296.486099 194.010728 
L 297.095435 141.474224 
L 298.00944 51.29612 
L 298.314109 30.814168 
L 298.618777 19.227761 
L 298.923445 17.747951 
L 299.228113 26.529412 
L 299.532782 44.654275 
L 300.142118 100.577722 
L 301.056123 188.07037 
L 301.360792 205.851311 
L 301.66546 214.232298 
L 301.970128 212.33732 
L 302.274797 200.364448 
L 302.884133 152.113379 
L 304.102806 37.047326 
L 304.407475 22.165739 
L 304.712143 17.083661 
L 305.016811 22.332289 
L 305.32148 37.363016 
L 305.930816 89.628268 
L 306.844821 179.963621 
L 307.149489 200.63453 
L 307.454158 212.450761 
L 307.758826 214.177241 
L 308.063494 205.633511 
L 308.368163 187.712592 
L 308.977499 132.016167 
L 309.891504 44.293569 
L 310.196172 26.307951 
L 310.500841 17.688883 
L 310.805509 19.337261 
L 311.110177 31.080789 
L 311.719514 79.01652 
L 312.938187 194.329623 
L 313.242855 209.429324 
L 313.547524 214.755084 
L 313.852192 209.750237 
L 314.15686 194.937906 
L 314.766197 142.947028 
L 315.680202 52.459824 
L 315.98487 31.601193 
L 316.289539 19.555843 
L 316.594207 17.582798 
L 316.898875 25.888286 
L 317.203543 43.60419 
L 317.81288 99.070267 
L 318.726885 187.017572 
L 319.031553 205.206793 
L 319.336222 214.063428 
L 319.64089 212.661749 
L 319.945558 201.148265 
L 320.554895 153.530737 
L 321.773568 37.977474 
L 322.078236 22.66056 
L 322.382905 17.091435 
L 322.687573 21.852203 
L 322.992241 36.445252 
L 323.601578 88.15865 
L 324.515583 178.7923 
L 324.820251 199.837408 
L 325.124919 212.111156 
L 325.429588 214.330649 
L 325.734256 206.263898 
L 326.038924 188.754068 
L 326.648261 133.521653 
L 327.562266 45.354894 
L 327.866934 26.963156 
L 328.171602 17.869485 
L 328.476271 19.024382 
L 328.780939 30.307133 
L 329.390276 77.603614 
L 330.608949 193.390134 
L 330.913617 208.923344 
L 331.218285 214.735501 
L 331.522954 210.219097 
L 331.827622 195.846203 
L 332.436959 144.413374 
L 333.350964 53.638693 
L 333.655632 32.408366 
L 333.9603 19.906952 
L 334.264969 17.441144 
L 334.569637 25.268675 
L 334.874305 42.571386 
L 335.483642 97.566838 
L 336.397647 185.947785 
L 336.702315 204.54094 
L 337.006983 213.871105 
L 337.311652 212.96306 
L 337.61632 201.911715 
L 338.225656 154.939107 
L 339.44433 38.926247 
L 339.748998 23.177667 
L 340.053666 17.122826 
L 340.358335 21.394596 
L 340.663003 35.546478 
L 341.27234 86.695665 
L 342.186344 177.605954 
L 342.491013 199.020232 
L 342.795681 211.748564 
L 343.100349 214.46054 
L 343.405018 206.872696 
L 343.709686 189.778139 
L 344.319023 135.022934 
L 345.233027 46.433081 
L 345.537696 27.639619 
L 345.842364 18.073517 
L 346.147032 18.734657 
L 346.451701 29.553934 
L 347.061037 76.199864 
L 348.279711 192.432133 
L 348.584379 208.395141 
L 348.889047 214.692305 
L 349.193715 210.665423 
L 349.498384 196.7354 
L 350.10772 145.872911 
L 351.021725 54.832444 
L 351.326394 33.235495 
L 351.631062 20.281005 
L 351.93573 17.323022 
L 352.240398 24.670726 
L 352.545067 41.556109 
L 353.154403 96.067795 
L 354.068408 184.861263 
L 354.373077 203.853909 
L 354.677745 213.655376 
L 354.982413 213.241181 
L 355.287082 202.654617 
L 355.896418 156.338153 
L 357.115091 39.893419 
L 357.41976 23.716936 
L 357.724428 17.177825 
L 358.029096 20.959577 
L 358.333765 34.666911 
L 358.943101 85.239663 
L 359.857106 176.404868 
L 360.161774 198.183199 
L 360.466443 211.363073 
L 360.771111 214.566885 
L 361.075779 207.45976 
L 361.380448 190.784561 
L 361.989784 136.51965 
L 362.903789 47.527872 
L 363.208457 28.337177 
L 363.513126 18.30093 
L 363.817794 18.468155 
L 364.122462 28.821374 
L 364.427131 48.278431 
L 364.427131 48.278431 
" style="fill:none;stroke:#1f77b4;stroke-linecap:square;stroke-width:1.5;"/>
   </g>
   <g id="patch_3">
    <path d="M 44.845313 224.64 
L 44.845313 7.2 
" style="fill:none;stroke:#000000;stroke-linecap:square;stroke-linejoin:miter;stroke-width:0.8;"/>
   </g>
   <g id="patch_4">
    <path d="M 379.645313 224.64 
L 379.645313 7.2 
" style="fill:none;stroke:#000000;stroke-linecap:square;stroke-linejoin:miter;stroke-width:0.8;"/>
   </g>
   <g id="patch_5">
    <path d="M 44.845313 224.64 
L 379.645313 224.64 
" style="fill:none;stroke:#000000;stroke-linecap:square;stroke-linejoin:miter;stroke-width:0.8;"/>
   </g>
   <g id="patch_6">
    <path d="M 44.845313 7.2 
L 379.645313 7.2 
" style="fill:none;stroke:#000000;stroke-linecap:square;stroke-linejoin:miter;stroke-width:0.8;"/>
   </g>
  </g>
 </g>
 <defs>
  <clipPath id="pa76709a59d">
   <rect height="217.44" width="334.8" x="44.845313" y="7.2"/>
  </clipPath>
 </defs>
</svg>
