<?xml version="1.0" encoding="utf-8" standalone="no"?>
<!DOCTYPE svg PUBLIC "-//W3C//DTD SVG 1.1//EN"
  "http://www.w3.org/Graphics/SVG/1.1/DTD/svg11.dtd">
<svg xmlns:xlink="http://www.w3.org/1999/xlink" width="439.629577pt" height="296.39952pt" viewBox="0 0 439.629577 296.39952" xmlns="http://www.w3.org/2000/svg" version="1.1">
 <metadata>
  <rdf:RDF xmlns:dc="http://purl.org/dc/elements/1.1/" xmlns:cc="http://creativecommons.org/ns#" xmlns:rdf="http://www.w3.org/1999/02/22-rdf-syntax-ns#">
   <cc:Work>
    <dc:type rdf:resource="http://purl.org/dc/dcmitype/StillImage"/>
    <dc:date>2021-12-12T09:50:25.697175</dc:date>
    <dc:format>image/svg+xml</dc:format>
    <dc:creator>
     <cc:Agent>
      <dc:title>Matplotlib v3.5.0, https://matplotlib.org/</dc:title>
     </cc:Agent>
    </dc:creator>
   </cc:Work>
  </rdf:RDF>
 </metadata>
 <defs>
  <style type="text/css">*{stroke-linejoin: round; stroke-linecap: butt}</style>
 </defs>
 <g id="figure_1">
  <g id="patch_1">
   <path d="M 0 296.39952 
L 439.629577 296.39952 
L 439.629577 0 
L 0 0 
L 0 296.39952 
z
" style="fill: none"/>
  </g>
  <g id="axes_1">
   <g id="patch_2">
    <path d="M 36.465625 80.521395 
L 432.429577 80.521395 
L 432.429577 7.2 
L 36.465625 7.2 
z
" style="fill: #ffffff"/>
   </g>
   <g id="matplotlib.axis_1">
    <g id="xtick_1">
     <g id="line2d_1">
      <path d="M 72.101852 80.521395 
L 72.101852 7.2 
" clip-path="url(#p99144d5f73)" style="fill: none; stroke: #b0b0b0; stroke-width: 0.8; stroke-linecap: square"/>
     </g>
     <g id="line2d_2">
      <defs>
       <path id="m4fb643ad3a" d="M 0 0 
L 0 3.5 
" style="stroke: #000000; stroke-width: 0.8"/>
      </defs>
      <g>
       <use xlink:href="#m4fb643ad3a" x="72.101852" y="80.521395" style="stroke: #000000; stroke-width: 0.8"/>
      </g>
     </g>
     <g id="text_1">
      <!-- −2 -->
      <g transform="translate(64.730758 95.119833)scale(0.1 -0.1)">
       <defs>
        <path id="DejaVuSans-2212" d="M 678 2272 
L 4684 2272 
L 4684 1741 
L 678 1741 
L 678 2272 
z
" transform="scale(0.015625)"/>
        <path id="DejaVuSans-32" d="M 1228 531 
L 3431 531 
L 3431 0 
L 469 0 
L 469 531 
Q 828 903 1448 1529 
Q 2069 2156 2228 2338 
Q 2531 2678 2651 2914 
Q 2772 3150 2772 3378 
Q 2772 3750 2511 3984 
Q 2250 4219 1831 4219 
Q 1534 4219 1204 4116 
Q 875 4013 500 3803 
L 500 4441 
Q 881 4594 1212 4672 
Q 1544 4750 1819 4750 
Q 2544 4750 2975 4387 
Q 3406 4025 3406 3419 
Q 3406 3131 3298 2873 
Q 3191 2616 2906 2266 
Q 2828 2175 2409 1742 
Q 1991 1309 1228 531 
z
" transform="scale(0.015625)"/>
       </defs>
       <use xlink:href="#DejaVuSans-2212"/>
       <use xlink:href="#DejaVuSans-32" x="83.789062"/>
      </g>
     </g>
    </g>
    <g id="xtick_2">
     <g id="line2d_3">
      <path d="M 144.255518 80.521395 
L 144.255518 7.2 
" clip-path="url(#p99144d5f73)" style="fill: none; stroke: #b0b0b0; stroke-width: 0.8; stroke-linecap: square"/>
     </g>
     <g id="line2d_4">
      <g>
       <use xlink:href="#m4fb643ad3a" x="144.255518" y="80.521395" style="stroke: #000000; stroke-width: 0.8"/>
      </g>
     </g>
     <g id="text_2">
      <!-- 0 -->
      <g transform="translate(141.074268 95.119833)scale(0.1 -0.1)">
       <defs>
        <path id="DejaVuSans-30" d="M 2034 4250 
Q 1547 4250 1301 3770 
Q 1056 3291 1056 2328 
Q 1056 1369 1301 889 
Q 1547 409 2034 409 
Q 2525 409 2770 889 
Q 3016 1369 3016 2328 
Q 3016 3291 2770 3770 
Q 2525 4250 2034 4250 
z
M 2034 4750 
Q 2819 4750 3233 4129 
Q 3647 3509 3647 2328 
Q 3647 1150 3233 529 
Q 2819 -91 2034 -91 
Q 1250 -91 836 529 
Q 422 1150 422 2328 
Q 422 3509 836 4129 
Q 1250 4750 2034 4750 
z
" transform="scale(0.015625)"/>
       </defs>
       <use xlink:href="#DejaVuSans-30"/>
      </g>
     </g>
    </g>
    <g id="xtick_3">
     <g id="line2d_5">
      <path d="M 216.409184 80.521395 
L 216.409184 7.2 
" clip-path="url(#p99144d5f73)" style="fill: none; stroke: #b0b0b0; stroke-width: 0.8; stroke-linecap: square"/>
     </g>
     <g id="line2d_6">
      <g>
       <use xlink:href="#m4fb643ad3a" x="216.409184" y="80.521395" style="stroke: #000000; stroke-width: 0.8"/>
      </g>
     </g>
     <g id="text_3">
      <!-- 2 -->
      <g transform="translate(213.227934 95.119833)scale(0.1 -0.1)">
       <use xlink:href="#DejaVuSans-32"/>
      </g>
     </g>
    </g>
    <g id="xtick_4">
     <g id="line2d_7">
      <path d="M 288.562851 80.521395 
L 288.562851 7.2 
" clip-path="url(#p99144d5f73)" style="fill: none; stroke: #b0b0b0; stroke-width: 0.8; stroke-linecap: square"/>
     </g>
     <g id="line2d_8">
      <g>
       <use xlink:href="#m4fb643ad3a" x="288.562851" y="80.521395" style="stroke: #000000; stroke-width: 0.8"/>
      </g>
     </g>
     <g id="text_4">
      <!-- 4 -->
      <g transform="translate(285.381601 95.119833)scale(0.1 -0.1)">
       <defs>
        <path id="DejaVuSans-34" d="M 2419 4116 
L 825 1625 
L 2419 1625 
L 2419 4116 
z
M 2253 4666 
L 3047 4666 
L 3047 1625 
L 3713 1625 
L 3713 1100 
L 3047 1100 
L 3047 0 
L 2419 0 
L 2419 1100 
L 313 1100 
L 313 1709 
L 2253 4666 
z
" transform="scale(0.015625)"/>
       </defs>
       <use xlink:href="#DejaVuSans-34"/>
      </g>
     </g>
    </g>
    <g id="xtick_5">
     <g id="line2d_9">
      <path d="M 360.716517 80.521395 
L 360.716517 7.2 
" clip-path="url(#p99144d5f73)" style="fill: none; stroke: #b0b0b0; stroke-width: 0.8; stroke-linecap: square"/>
     </g>
     <g id="line2d_10">
      <g>
       <use xlink:href="#m4fb643ad3a" x="360.716517" y="80.521395" style="stroke: #000000; stroke-width: 0.8"/>
      </g>
     </g>
     <g id="text_5">
      <!-- 6 -->
      <g transform="translate(357.535267 95.119833)scale(0.1 -0.1)">
       <defs>
        <path id="DejaVuSans-36" d="M 2113 2584 
Q 1688 2584 1439 2293 
Q 1191 2003 1191 1497 
Q 1191 994 1439 701 
Q 1688 409 2113 409 
Q 2538 409 2786 701 
Q 3034 994 3034 1497 
Q 3034 2003 2786 2293 
Q 2538 2584 2113 2584 
z
M 3366 4563 
L 3366 3988 
Q 3128 4100 2886 4159 
Q 2644 4219 2406 4219 
Q 1781 4219 1451 3797 
Q 1122 3375 1075 2522 
Q 1259 2794 1537 2939 
Q 1816 3084 2150 3084 
Q 2853 3084 3261 2657 
Q 3669 2231 3669 1497 
Q 3669 778 3244 343 
Q 2819 -91 2113 -91 
Q 1303 -91 875 529 
Q 447 1150 447 2328 
Q 447 3434 972 4092 
Q 1497 4750 2381 4750 
Q 2619 4750 2861 4703 
Q 3103 4656 3366 4563 
z
" transform="scale(0.015625)"/>
       </defs>
       <use xlink:href="#DejaVuSans-36"/>
      </g>
     </g>
    </g>
   </g>
   <g id="matplotlib.axis_2">
    <g id="ytick_1">
     <g id="line2d_11">
      <path d="M 36.465625 65.553671 
L 432.429577 65.553671 
" clip-path="url(#p99144d5f73)" style="fill: none; stroke: #b0b0b0; stroke-width: 0.8; stroke-linecap: square"/>
     </g>
     <g id="line2d_12">
      <defs>
       <path id="m6aca08c7eb" d="M 0 0 
L -3.5 0 
" style="stroke: #000000; stroke-width: 0.8"/>
      </defs>
      <g>
       <use xlink:href="#m6aca08c7eb" x="36.465625" y="65.553671" style="stroke: #000000; stroke-width: 0.8"/>
      </g>
     </g>
     <g id="text_6">
      <!-- 9 -->
      <g transform="translate(23.103125 69.35289)scale(0.1 -0.1)">
       <defs>
        <path id="DejaVuSans-39" d="M 703 97 
L 703 672 
Q 941 559 1184 500 
Q 1428 441 1663 441 
Q 2288 441 2617 861 
Q 2947 1281 2994 2138 
Q 2813 1869 2534 1725 
Q 2256 1581 1919 1581 
Q 1219 1581 811 2004 
Q 403 2428 403 3163 
Q 403 3881 828 4315 
Q 1253 4750 1959 4750 
Q 2769 4750 3195 4129 
Q 3622 3509 3622 2328 
Q 3622 1225 3098 567 
Q 2575 -91 1691 -91 
Q 1453 -91 1209 -44 
Q 966 3 703 97 
z
M 1959 2075 
Q 2384 2075 2632 2365 
Q 2881 2656 2881 3163 
Q 2881 3666 2632 3958 
Q 2384 4250 1959 4250 
Q 1534 4250 1286 3958 
Q 1038 3666 1038 3163 
Q 1038 2656 1286 2365 
Q 1534 2075 1959 2075 
z
" transform="scale(0.015625)"/>
       </defs>
       <use xlink:href="#DejaVuSans-39"/>
      </g>
     </g>
    </g>
    <g id="ytick_2">
     <g id="line2d_13">
      <path d="M 36.465625 29.476838 
L 432.429577 29.476838 
" clip-path="url(#p99144d5f73)" style="fill: none; stroke: #b0b0b0; stroke-width: 0.8; stroke-linecap: square"/>
     </g>
     <g id="line2d_14">
      <g>
       <use xlink:href="#m6aca08c7eb" x="36.465625" y="29.476838" style="stroke: #000000; stroke-width: 0.8"/>
      </g>
     </g>
     <g id="text_7">
      <!-- 10 -->
      <g transform="translate(16.740625 33.276056)scale(0.1 -0.1)">
       <defs>
        <path id="DejaVuSans-31" d="M 794 531 
L 1825 531 
L 1825 4091 
L 703 3866 
L 703 4441 
L 1819 4666 
L 2450 4666 
L 2450 531 
L 3481 531 
L 3481 0 
L 794 0 
L 794 531 
z
" transform="scale(0.015625)"/>
       </defs>
       <use xlink:href="#DejaVuSans-31"/>
       <use xlink:href="#DejaVuSans-30" x="63.623047"/>
      </g>
     </g>
    </g>
   </g>
   <g id="LineCollection_1">
    <path d="M 150.568964 59.272295 
L 150.568964 27.000155 
" clip-path="url(#p99144d5f73)" style="fill: none; stroke: #000000; stroke-width: 1.5"/>
    <path d="M 186.645797 50.879597 
L 186.645797 29.361255 
" clip-path="url(#p99144d5f73)" style="fill: none; stroke: #000000; stroke-width: 1.5"/>
    <path d="M 222.72263 35.333252 
L 222.72263 8.978773 
" clip-path="url(#p99144d5f73)" style="fill: none; stroke: #000000; stroke-width: 1.5"/>
    <path d="M 258.799463 49.102633 
L 258.799463 49.102633 
" clip-path="url(#p99144d5f73)" style="fill: none; stroke: #000000; stroke-width: 1.5"/>
    <path d="M 294.876296 78.742622 
L 294.876296 46.434674 
" clip-path="url(#p99144d5f73)" style="fill: none; stroke: #000000; stroke-width: 1.5"/>
    <path d="M 330.95313 49.102633 
L 330.95313 49.102633 
" clip-path="url(#p99144d5f73)" style="fill: none; stroke: #000000; stroke-width: 1.5"/>
   </g>
   <g id="line2d_15">
    <defs>
     <path id="mb0b2c19e8e" d="M 1.5 0 
L -1.5 -0 
" style="stroke: #000000"/>
    </defs>
    <g clip-path="url(#p99144d5f73)">
     <use xlink:href="#mb0b2c19e8e" x="150.568964" y="59.272295" style="stroke: #000000"/>
     <use xlink:href="#mb0b2c19e8e" x="186.645797" y="50.879597" style="stroke: #000000"/>
     <use xlink:href="#mb0b2c19e8e" x="222.72263" y="35.333252" style="stroke: #000000"/>
     <use xlink:href="#mb0b2c19e8e" x="258.799463" y="49.102633" style="stroke: #000000"/>
     <use xlink:href="#mb0b2c19e8e" x="294.876296" y="78.742622" style="stroke: #000000"/>
     <use xlink:href="#mb0b2c19e8e" x="330.95313" y="49.102633" style="stroke: #000000"/>
    </g>
   </g>
   <g id="line2d_16">
    <g clip-path="url(#p99144d5f73)">
     <use xlink:href="#mb0b2c19e8e" x="150.568964" y="27.000155" style="stroke: #000000"/>
     <use xlink:href="#mb0b2c19e8e" x="186.645797" y="29.361255" style="stroke: #000000"/>
     <use xlink:href="#mb0b2c19e8e" x="222.72263" y="8.978773" style="stroke: #000000"/>
     <use xlink:href="#mb0b2c19e8e" x="258.799463" y="49.102633" style="stroke: #000000"/>
     <use xlink:href="#mb0b2c19e8e" x="294.876296" y="46.434674" style="stroke: #000000"/>
     <use xlink:href="#mb0b2c19e8e" x="330.95313" y="49.102633" style="stroke: #000000"/>
    </g>
   </g>
   <g id="LineCollection_2">
    <path d="M 137.942072 48.055163 
L 137.942072 38.217286 
" clip-path="url(#p99144d5f73)" style="fill: none; stroke: #ff0000; stroke-width: 1.5"/>
    <path d="M 174.018905 43.400264 
L 174.018905 36.840588 
" clip-path="url(#p99144d5f73)" style="fill: none; stroke: #ff0000; stroke-width: 1.5"/>
    <path d="M 210.095739 26.172977 
L 210.095739 18.139047 
" clip-path="url(#p99144d5f73)" style="fill: none; stroke: #ff0000; stroke-width: 1.5"/>
    <path d="M 246.172572 49.102633 
L 246.172572 49.102633 
" clip-path="url(#p99144d5f73)" style="fill: none; stroke: #ff0000; stroke-width: 1.5"/>
    <path d="M 282.249405 67.513044 
L 282.249405 57.664252 
" clip-path="url(#p99144d5f73)" style="fill: none; stroke: #ff0000; stroke-width: 1.5"/>
    <path d="M 318.326238 49.102633 
L 318.326238 49.102633 
" clip-path="url(#p99144d5f73)" style="fill: none; stroke: #ff0000; stroke-width: 1.5"/>
   </g>
   <g id="line2d_17">
    <defs>
     <path id="m3856ccf100" d="M 1.5 0 
L -1.5 -0 
" style="stroke: #ff0000"/>
    </defs>
    <g clip-path="url(#p99144d5f73)">
     <use xlink:href="#m3856ccf100" x="137.942072" y="48.055163" style="fill: #ff0000; stroke: #ff0000"/>
     <use xlink:href="#m3856ccf100" x="174.018905" y="43.400264" style="fill: #ff0000; stroke: #ff0000"/>
     <use xlink:href="#m3856ccf100" x="210.095739" y="26.172977" style="fill: #ff0000; stroke: #ff0000"/>
     <use xlink:href="#m3856ccf100" x="246.172572" y="49.102633" style="fill: #ff0000; stroke: #ff0000"/>
     <use xlink:href="#m3856ccf100" x="282.249405" y="67.513044" style="fill: #ff0000; stroke: #ff0000"/>
     <use xlink:href="#m3856ccf100" x="318.326238" y="49.102633" style="fill: #ff0000; stroke: #ff0000"/>
    </g>
   </g>
   <g id="line2d_18">
    <g clip-path="url(#p99144d5f73)">
     <use xlink:href="#m3856ccf100" x="137.942072" y="38.217286" style="fill: #ff0000; stroke: #ff0000"/>
     <use xlink:href="#m3856ccf100" x="174.018905" y="36.840588" style="fill: #ff0000; stroke: #ff0000"/>
     <use xlink:href="#m3856ccf100" x="210.095739" y="18.139047" style="fill: #ff0000; stroke: #ff0000"/>
     <use xlink:href="#m3856ccf100" x="246.172572" y="49.102633" style="fill: #ff0000; stroke: #ff0000"/>
     <use xlink:href="#m3856ccf100" x="282.249405" y="57.664252" style="fill: #ff0000; stroke: #ff0000"/>
     <use xlink:href="#m3856ccf100" x="318.326238" y="49.102633" style="fill: #ff0000; stroke: #ff0000"/>
    </g>
   </g>
   <g id="LineCollection_3">
    <path d="M 144.255518 57.89304 
L 144.255518 28.37941 
" clip-path="url(#p99144d5f73)" style="fill: none; stroke: #0000ff; stroke-width: 1.5"/>
    <path d="M 180.332351 49.959941 
L 180.332351 30.280912 
" clip-path="url(#p99144d5f73)" style="fill: none; stroke: #0000ff; stroke-width: 1.5"/>
    <path d="M 216.409184 34.206908 
L 216.409184 10.105117 
" clip-path="url(#p99144d5f73)" style="fill: none; stroke: #0000ff; stroke-width: 1.5"/>
    <path d="M 252.486018 49.102633 
L 252.486018 49.102633 
" clip-path="url(#p99144d5f73)" style="fill: none; stroke: #0000ff; stroke-width: 1.5"/>
    <path d="M 288.562851 77.361837 
L 288.562851 47.815459 
" clip-path="url(#p99144d5f73)" style="fill: none; stroke: #0000ff; stroke-width: 1.5"/>
    <path d="M 324.639684 49.102633 
L 324.639684 49.102633 
" clip-path="url(#p99144d5f73)" style="fill: none; stroke: #0000ff; stroke-width: 1.5"/>
   </g>
   <g id="line2d_19">
    <defs>
     <path id="m438e7e9046" d="M 1.5 0 
L -1.5 -0 
" style="stroke: #0000ff"/>
    </defs>
    <g clip-path="url(#p99144d5f73)">
     <use xlink:href="#m438e7e9046" x="144.255518" y="57.89304" style="fill: #0000ff; stroke: #0000ff"/>
     <use xlink:href="#m438e7e9046" x="180.332351" y="49.959941" style="fill: #0000ff; stroke: #0000ff"/>
     <use xlink:href="#m438e7e9046" x="216.409184" y="34.206908" style="fill: #0000ff; stroke: #0000ff"/>
     <use xlink:href="#m438e7e9046" x="252.486018" y="49.102633" style="fill: #0000ff; stroke: #0000ff"/>
     <use xlink:href="#m438e7e9046" x="288.562851" y="77.361837" style="fill: #0000ff; stroke: #0000ff"/>
     <use xlink:href="#m438e7e9046" x="324.639684" y="49.102633" style="fill: #0000ff; stroke: #0000ff"/>
    </g>
   </g>
   <g id="line2d_20">
    <g clip-path="url(#p99144d5f73)">
     <use xlink:href="#m438e7e9046" x="144.255518" y="28.37941" style="fill: #0000ff; stroke: #0000ff"/>
     <use xlink:href="#m438e7e9046" x="180.332351" y="30.280912" style="fill: #0000ff; stroke: #0000ff"/>
     <use xlink:href="#m438e7e9046" x="216.409184" y="10.105117" style="fill: #0000ff; stroke: #0000ff"/>
     <use xlink:href="#m438e7e9046" x="252.486018" y="49.102633" style="fill: #0000ff; stroke: #0000ff"/>
     <use xlink:href="#m438e7e9046" x="288.562851" y="47.815459" style="fill: #0000ff; stroke: #0000ff"/>
     <use xlink:href="#m438e7e9046" x="324.639684" y="49.102633" style="fill: #0000ff; stroke: #0000ff"/>
    </g>
   </g>
   <g id="line2d_21">
    <path d="M 36.465625 37.774509 
L 432.429577 37.774509 
" clip-path="url(#p99144d5f73)" style="fill: none; stroke-dasharray: 5.55,2.4; stroke-dashoffset: 0; stroke: #000000; stroke-width: 1.5"/>
   </g>
   <g id="line2d_22">
    <defs>
     <path id="m6a1410cc0a" d="M 0 3 
C 0.795609 3 1.55874 2.683901 2.12132 2.12132 
C 2.683901 1.55874 3 0.795609 3 0 
C 3 -0.795609 2.683901 -1.55874 2.12132 -2.12132 
C 1.55874 -2.683901 0.795609 -3 0 -3 
C -0.795609 -3 -1.55874 -2.683901 -2.12132 -2.12132 
C -2.683901 -1.55874 -3 -0.795609 -3 0 
C -3 0.795609 -2.683901 1.55874 -2.12132 2.12132 
C -1.55874 2.683901 -0.795609 3 0 3 
z
" style="stroke: #000000"/>
    </defs>
    <g clip-path="url(#p99144d5f73)">
     <use xlink:href="#m6a1410cc0a" x="150.568964" y="43.136225" style="stroke: #000000"/>
     <use xlink:href="#m6a1410cc0a" x="186.645797" y="40.120426" style="stroke: #000000"/>
     <use xlink:href="#m6a1410cc0a" x="222.72263" y="22.156012" style="stroke: #000000"/>
     <use xlink:href="#m6a1410cc0a" x="258.799463" y="49.102633" style="stroke: #000000"/>
     <use xlink:href="#m6a1410cc0a" x="294.876296" y="62.588648" style="stroke: #000000"/>
     <use xlink:href="#m6a1410cc0a" x="330.95313" y="49.102633" style="stroke: #000000"/>
    </g>
   </g>
   <g id="line2d_23">
    <defs>
     <path id="m855e16e016" d="M 0 3 
C 0.795609 3 1.55874 2.683901 2.12132 2.12132 
C 2.683901 1.55874 3 0.795609 3 0 
C 3 -0.795609 2.683901 -1.55874 2.12132 -2.12132 
C 1.55874 -2.683901 0.795609 -3 0 -3 
C -0.795609 -3 -1.55874 -2.683901 -2.12132 -2.12132 
C -2.683901 -1.55874 -3 -0.795609 -3 0 
C -3 0.795609 -2.683901 1.55874 -2.12132 2.12132 
C -1.55874 2.683901 -0.795609 3 0 3 
z
" style="stroke: #ff0000"/>
    </defs>
    <g clip-path="url(#p99144d5f73)">
     <use xlink:href="#m855e16e016" x="137.942072" y="43.136225" style="fill: #ff0000; stroke: #ff0000"/>
     <use xlink:href="#m855e16e016" x="174.018905" y="40.120426" style="fill: #ff0000; stroke: #ff0000"/>
     <use xlink:href="#m855e16e016" x="210.095739" y="22.156012" style="fill: #ff0000; stroke: #ff0000"/>
     <use xlink:href="#m855e16e016" x="246.172572" y="49.102633" style="fill: #ff0000; stroke: #ff0000"/>
     <use xlink:href="#m855e16e016" x="282.249405" y="62.588648" style="fill: #ff0000; stroke: #ff0000"/>
     <use xlink:href="#m855e16e016" x="318.326238" y="49.102633" style="fill: #ff0000; stroke: #ff0000"/>
    </g>
   </g>
   <g id="line2d_24">
    <defs>
     <path id="mabe18eb5d3" d="M 0 3 
C 0.795609 3 1.55874 2.683901 2.12132 2.12132 
C 2.683901 1.55874 3 0.795609 3 0 
C 3 -0.795609 2.683901 -1.55874 2.12132 -2.12132 
C 1.55874 -2.683901 0.795609 -3 0 -3 
C -0.795609 -3 -1.55874 -2.683901 -2.12132 -2.12132 
C -2.683901 -1.55874 -3 -0.795609 -3 0 
C -3 0.795609 -2.683901 1.55874 -2.12132 2.12132 
C -1.55874 2.683901 -0.795609 3 0 3 
z
" style="stroke: #0000ff"/>
    </defs>
    <g clip-path="url(#p99144d5f73)">
     <use xlink:href="#mabe18eb5d3" x="144.255518" y="43.136225" style="fill: #0000ff; stroke: #0000ff"/>
     <use xlink:href="#mabe18eb5d3" x="180.332351" y="40.120426" style="fill: #0000ff; stroke: #0000ff"/>
     <use xlink:href="#mabe18eb5d3" x="216.409184" y="22.156012" style="fill: #0000ff; stroke: #0000ff"/>
     <use xlink:href="#mabe18eb5d3" x="252.486018" y="49.102633" style="fill: #0000ff; stroke: #0000ff"/>
     <use xlink:href="#mabe18eb5d3" x="288.562851" y="62.588648" style="fill: #0000ff; stroke: #0000ff"/>
     <use xlink:href="#mabe18eb5d3" x="324.639684" y="49.102633" style="fill: #0000ff; stroke: #0000ff"/>
    </g>
   </g>
   <g id="patch_3">
    <path d="M 36.465625 80.521395 
L 36.465625 7.2 
" style="fill: none; stroke: #000000; stroke-width: 0.8; stroke-linejoin: miter; stroke-linecap: square"/>
   </g>
   <g id="patch_4">
    <path d="M 432.429577 80.521395 
L 432.429577 7.2 
" style="fill: none; stroke: #000000; stroke-width: 0.8; stroke-linejoin: miter; stroke-linecap: square"/>
   </g>
   <g id="patch_5">
    <path d="M 36.465625 80.521395 
L 432.429577 80.521395 
" style="fill: none; stroke: #000000; stroke-width: 0.8; stroke-linejoin: miter; stroke-linecap: square"/>
   </g>
   <g id="patch_6">
    <path d="M 36.465625 7.2 
L 432.429577 7.2 
" style="fill: none; stroke: #000000; stroke-width: 0.8; stroke-linejoin: miter; stroke-linecap: square"/>
   </g>
  </g>
  <g id="axes_2">
   <g id="patch_7">
    <path d="M 36.465625 176.521395 
L 432.429577 176.521395 
L 432.429577 103.2 
L 36.465625 103.2 
z
" style="fill: #ffffff"/>
   </g>
   <g id="matplotlib.axis_3">
    <g id="xtick_6">
     <g id="line2d_25">
      <path d="M 88.673873 176.521395 
L 88.673873 103.2 
" clip-path="url(#pb4471ed64b)" style="fill: none; stroke: #b0b0b0; stroke-width: 0.8; stroke-linecap: square"/>
     </g>
     <g id="line2d_26">
      <g>
       <use xlink:href="#m4fb643ad3a" x="88.673873" y="176.521395" style="stroke: #000000; stroke-width: 0.8"/>
      </g>
     </g>
     <g id="text_8">
      <!-- −2 -->
      <g transform="translate(81.302779 191.119832)scale(0.1 -0.1)">
       <use xlink:href="#DejaVuSans-2212"/>
       <use xlink:href="#DejaVuSans-32" x="83.789062"/>
      </g>
     </g>
    </g>
    <g id="xtick_7">
     <g id="line2d_27">
      <path d="M 146.983364 176.521395 
L 146.983364 103.2 
" clip-path="url(#pb4471ed64b)" style="fill: none; stroke: #b0b0b0; stroke-width: 0.8; stroke-linecap: square"/>
     </g>
     <g id="line2d_28">
      <g>
       <use xlink:href="#m4fb643ad3a" x="146.983364" y="176.521395" style="stroke: #000000; stroke-width: 0.8"/>
      </g>
     </g>
     <g id="text_9">
      <!-- −1 -->
      <g transform="translate(139.612271 191.119832)scale(0.1 -0.1)">
       <use xlink:href="#DejaVuSans-2212"/>
       <use xlink:href="#DejaVuSans-31" x="83.789062"/>
      </g>
     </g>
    </g>
    <g id="xtick_8">
     <g id="line2d_29">
      <path d="M 205.292855 176.521395 
L 205.292855 103.2 
" clip-path="url(#pb4471ed64b)" style="fill: none; stroke: #b0b0b0; stroke-width: 0.8; stroke-linecap: square"/>
     </g>
     <g id="line2d_30">
      <g>
       <use xlink:href="#m4fb643ad3a" x="205.292855" y="176.521395" style="stroke: #000000; stroke-width: 0.8"/>
      </g>
     </g>
     <g id="text_10">
      <!-- 0 -->
      <g transform="translate(202.111605 191.119832)scale(0.1 -0.1)">
       <use xlink:href="#DejaVuSans-30"/>
      </g>
     </g>
    </g>
    <g id="xtick_9">
     <g id="line2d_31">
      <path d="M 263.602346 176.521395 
L 263.602346 103.2 
" clip-path="url(#pb4471ed64b)" style="fill: none; stroke: #b0b0b0; stroke-width: 0.8; stroke-linecap: square"/>
     </g>
     <g id="line2d_32">
      <g>
       <use xlink:href="#m4fb643ad3a" x="263.602346" y="176.521395" style="stroke: #000000; stroke-width: 0.8"/>
      </g>
     </g>
     <g id="text_11">
      <!-- 1 -->
      <g transform="translate(260.421096 191.119832)scale(0.1 -0.1)">
       <use xlink:href="#DejaVuSans-31"/>
      </g>
     </g>
    </g>
    <g id="xtick_10">
     <g id="line2d_33">
      <path d="M 321.911838 176.521395 
L 321.911838 103.2 
" clip-path="url(#pb4471ed64b)" style="fill: none; stroke: #b0b0b0; stroke-width: 0.8; stroke-linecap: square"/>
     </g>
     <g id="line2d_34">
      <g>
       <use xlink:href="#m4fb643ad3a" x="321.911838" y="176.521395" style="stroke: #000000; stroke-width: 0.8"/>
      </g>
     </g>
     <g id="text_12">
      <!-- 2 -->
      <g transform="translate(318.730588 191.119832)scale(0.1 -0.1)">
       <use xlink:href="#DejaVuSans-32"/>
      </g>
     </g>
    </g>
    <g id="xtick_11">
     <g id="line2d_35">
      <path d="M 380.221329 176.521395 
L 380.221329 103.2 
" clip-path="url(#pb4471ed64b)" style="fill: none; stroke: #b0b0b0; stroke-width: 0.8; stroke-linecap: square"/>
     </g>
     <g id="line2d_36">
      <g>
       <use xlink:href="#m4fb643ad3a" x="380.221329" y="176.521395" style="stroke: #000000; stroke-width: 0.8"/>
      </g>
     </g>
     <g id="text_13">
      <!-- 3 -->
      <g transform="translate(377.040079 191.119832)scale(0.1 -0.1)">
       <defs>
        <path id="DejaVuSans-33" d="M 2597 2516 
Q 3050 2419 3304 2112 
Q 3559 1806 3559 1356 
Q 3559 666 3084 287 
Q 2609 -91 1734 -91 
Q 1441 -91 1130 -33 
Q 819 25 488 141 
L 488 750 
Q 750 597 1062 519 
Q 1375 441 1716 441 
Q 2309 441 2620 675 
Q 2931 909 2931 1356 
Q 2931 1769 2642 2001 
Q 2353 2234 1838 2234 
L 1294 2234 
L 1294 2753 
L 1863 2753 
Q 2328 2753 2575 2939 
Q 2822 3125 2822 3475 
Q 2822 3834 2567 4026 
Q 2313 4219 1838 4219 
Q 1578 4219 1281 4162 
Q 984 4106 628 3988 
L 628 4550 
Q 988 4650 1302 4700 
Q 1616 4750 1894 4750 
Q 2613 4750 3031 4423 
Q 3450 4097 3450 3541 
Q 3450 3153 3228 2886 
Q 3006 2619 2597 2516 
z
" transform="scale(0.015625)"/>
       </defs>
       <use xlink:href="#DejaVuSans-33"/>
      </g>
     </g>
    </g>
   </g>
   <g id="matplotlib.axis_4">
    <g id="ytick_3">
     <g id="line2d_37">
      <path d="M 36.465625 148.629557 
L 432.429577 148.629557 
" clip-path="url(#pb4471ed64b)" style="fill: none; stroke: #b0b0b0; stroke-width: 0.8; stroke-linecap: square"/>
     </g>
     <g id="line2d_38">
      <g>
       <use xlink:href="#m6aca08c7eb" x="36.465625" y="148.629557" style="stroke: #000000; stroke-width: 0.8"/>
      </g>
     </g>
     <g id="text_14">
      <!-- 9.5 -->
      <g transform="translate(13.5625 152.428775)scale(0.1 -0.1)">
       <defs>
        <path id="DejaVuSans-2e" d="M 684 794 
L 1344 794 
L 1344 0 
L 684 0 
L 684 794 
z
" transform="scale(0.015625)"/>
        <path id="DejaVuSans-35" d="M 691 4666 
L 3169 4666 
L 3169 4134 
L 1269 4134 
L 1269 2991 
Q 1406 3038 1543 3061 
Q 1681 3084 1819 3084 
Q 2600 3084 3056 2656 
Q 3513 2228 3513 1497 
Q 3513 744 3044 326 
Q 2575 -91 1722 -91 
Q 1428 -91 1123 -41 
Q 819 9 494 109 
L 494 744 
Q 775 591 1075 516 
Q 1375 441 1709 441 
Q 2250 441 2565 725 
Q 2881 1009 2881 1497 
Q 2881 1984 2565 2268 
Q 2250 2553 1709 2553 
Q 1456 2553 1204 2497 
Q 953 2441 691 2322 
L 691 4666 
z
" transform="scale(0.015625)"/>
       </defs>
       <use xlink:href="#DejaVuSans-39"/>
       <use xlink:href="#DejaVuSans-2e" x="63.623047"/>
       <use xlink:href="#DejaVuSans-35" x="95.410156"/>
      </g>
     </g>
    </g>
    <g id="ytick_4">
     <g id="line2d_39">
      <path d="M 36.465625 119.474811 
L 432.429577 119.474811 
" clip-path="url(#pb4471ed64b)" style="fill: none; stroke: #b0b0b0; stroke-width: 0.8; stroke-linecap: square"/>
     </g>
     <g id="line2d_40">
      <g>
       <use xlink:href="#m6aca08c7eb" x="36.465625" y="119.474811" style="stroke: #000000; stroke-width: 0.8"/>
      </g>
     </g>
     <g id="text_15">
      <!-- 10.0 -->
      <g transform="translate(7.2 123.27403)scale(0.1 -0.1)">
       <use xlink:href="#DejaVuSans-31"/>
       <use xlink:href="#DejaVuSans-30" x="63.623047"/>
       <use xlink:href="#DejaVuSans-2e" x="127.246094"/>
       <use xlink:href="#DejaVuSans-30" x="159.033203"/>
      </g>
     </g>
    </g>
   </g>
   <g id="LineCollection_4">
    <path d="M 215.497016 152.269213 
L 215.497016 104.978773 
" clip-path="url(#pb4471ed64b)" style="fill: none; stroke: #000000; stroke-width: 1.5"/>
    <path d="M 273.806507 174.742622 
L 273.806507 142.178979 
" clip-path="url(#pb4471ed64b)" style="fill: none; stroke: #000000; stroke-width: 1.5"/>
   </g>
   <g id="line2d_41">
    <g clip-path="url(#pb4471ed64b)">
     <use xlink:href="#mb0b2c19e8e" x="215.497016" y="152.269213" style="stroke: #000000"/>
     <use xlink:href="#mb0b2c19e8e" x="273.806507" y="174.742622" style="stroke: #000000"/>
    </g>
   </g>
   <g id="line2d_42">
    <g clip-path="url(#pb4471ed64b)">
     <use xlink:href="#mb0b2c19e8e" x="215.497016" y="104.978773" style="stroke: #000000"/>
     <use xlink:href="#mb0b2c19e8e" x="273.806507" y="142.178979" style="stroke: #000000"/>
    </g>
   </g>
   <g id="LineCollection_5">
    <path d="M 195.088694 135.83203 
L 195.088694 121.415957 
" clip-path="url(#pb4471ed64b)" style="fill: none; stroke: #ff0000; stroke-width: 1.5"/>
    <path d="M 253.398186 163.42417 
L 253.398186 153.497431 
" clip-path="url(#pb4471ed64b)" style="fill: none; stroke: #ff0000; stroke-width: 1.5"/>
   </g>
   <g id="line2d_43">
    <g clip-path="url(#pb4471ed64b)">
     <use xlink:href="#m3856ccf100" x="195.088694" y="135.83203" style="fill: #ff0000; stroke: #ff0000"/>
     <use xlink:href="#m3856ccf100" x="253.398186" y="163.42417" style="fill: #ff0000; stroke: #ff0000"/>
    </g>
   </g>
   <g id="line2d_44">
    <g clip-path="url(#pb4471ed64b)">
     <use xlink:href="#m3856ccf100" x="195.088694" y="121.415957" style="fill: #ff0000; stroke: #ff0000"/>
     <use xlink:href="#m3856ccf100" x="253.398186" y="153.497431" style="fill: #ff0000; stroke: #ff0000"/>
    </g>
   </g>
   <g id="LineCollection_6">
    <path d="M 205.292855 150.248103 
L 205.292855 106.999884 
" clip-path="url(#pb4471ed64b)" style="fill: none; stroke: #0000ff; stroke-width: 1.5"/>
    <path d="M 263.602346 173.350909 
L 263.602346 143.570692 
" clip-path="url(#pb4471ed64b)" style="fill: none; stroke: #0000ff; stroke-width: 1.5"/>
   </g>
   <g id="line2d_45">
    <g clip-path="url(#pb4471ed64b)">
     <use xlink:href="#m438e7e9046" x="205.292855" y="150.248103" style="fill: #0000ff; stroke: #0000ff"/>
     <use xlink:href="#m438e7e9046" x="263.602346" y="173.350909" style="fill: #0000ff; stroke: #0000ff"/>
    </g>
   </g>
   <g id="line2d_46">
    <g clip-path="url(#pb4471ed64b)">
     <use xlink:href="#m438e7e9046" x="205.292855" y="106.999884" style="fill: #0000ff; stroke: #0000ff"/>
     <use xlink:href="#m438e7e9046" x="263.602346" y="143.570692" style="fill: #0000ff; stroke: #0000ff"/>
    </g>
   </g>
   <g id="line2d_47">
    <path d="M 36.465625 132.885994 
L 432.429577 132.885994 
" clip-path="url(#pb4471ed64b)" style="fill: none; stroke-dasharray: 5.55,2.4; stroke-dashoffset: 0; stroke: #000000; stroke-width: 1.5"/>
   </g>
   <g id="line2d_48">
    <g clip-path="url(#pb4471ed64b)">
     <use xlink:href="#m6a1410cc0a" x="215.497016" y="128.623993" style="stroke: #000000"/>
     <use xlink:href="#m6a1410cc0a" x="273.806507" y="158.4608" style="stroke: #000000"/>
    </g>
   </g>
   <g id="line2d_49">
    <g clip-path="url(#pb4471ed64b)">
     <use xlink:href="#m855e16e016" x="195.088694" y="128.623993" style="fill: #ff0000; stroke: #ff0000"/>
     <use xlink:href="#m855e16e016" x="253.398186" y="158.4608" style="fill: #ff0000; stroke: #ff0000"/>
    </g>
   </g>
   <g id="line2d_50">
    <g clip-path="url(#pb4471ed64b)">
     <use xlink:href="#mabe18eb5d3" x="205.292855" y="128.623993" style="fill: #0000ff; stroke: #0000ff"/>
     <use xlink:href="#mabe18eb5d3" x="263.602346" y="158.4608" style="fill: #0000ff; stroke: #0000ff"/>
    </g>
   </g>
   <g id="patch_8">
    <path d="M 36.465625 176.521395 
L 36.465625 103.2 
" style="fill: none; stroke: #000000; stroke-width: 0.8; stroke-linejoin: miter; stroke-linecap: square"/>
   </g>
   <g id="patch_9">
    <path d="M 432.429577 176.521395 
L 432.429577 103.2 
" style="fill: none; stroke: #000000; stroke-width: 0.8; stroke-linejoin: miter; stroke-linecap: square"/>
   </g>
   <g id="patch_10">
    <path d="M 36.465625 176.521395 
L 432.429577 176.521395 
" style="fill: none; stroke: #000000; stroke-width: 0.8; stroke-linejoin: miter; stroke-linecap: square"/>
   </g>
   <g id="patch_11">
    <path d="M 36.465625 103.2 
L 432.429577 103.2 
" style="fill: none; stroke: #000000; stroke-width: 0.8; stroke-linejoin: miter; stroke-linecap: square"/>
   </g>
  </g>
  <g id="axes_3">
   <g id="patch_12">
    <path d="M 36.465625 272.521395 
L 432.429577 272.521395 
L 432.429577 199.2 
L 36.465625 199.2 
z
" style="fill: #ffffff"/>
   </g>
   <g id="matplotlib.axis_5">
    <g id="xtick_12">
     <g id="line2d_51">
      <path d="M 51.039504 272.521395 
L 51.039504 199.2 
" clip-path="url(#p9b7be3df66)" style="fill: none; stroke: #b0b0b0; stroke-width: 0.8; stroke-linecap: square"/>
     </g>
     <g id="line2d_52">
      <g>
       <use xlink:href="#m4fb643ad3a" x="51.039504" y="272.521395" style="stroke: #000000; stroke-width: 0.8"/>
      </g>
     </g>
     <g id="text_16">
      <!-- −2 -->
      <g transform="translate(43.66841 287.119832)scale(0.1 -0.1)">
       <use xlink:href="#DejaVuSans-2212"/>
       <use xlink:href="#DejaVuSans-32" x="83.789062"/>
      </g>
     </g>
    </g>
    <g id="xtick_13">
     <g id="line2d_53">
      <path d="M 142.743553 272.521395 
L 142.743553 199.2 
" clip-path="url(#p9b7be3df66)" style="fill: none; stroke: #b0b0b0; stroke-width: 0.8; stroke-linecap: square"/>
     </g>
     <g id="line2d_54">
      <g>
       <use xlink:href="#m4fb643ad3a" x="142.743553" y="272.521395" style="stroke: #000000; stroke-width: 0.8"/>
      </g>
     </g>
     <g id="text_17">
      <!-- −1 -->
      <g transform="translate(135.372459 287.119832)scale(0.1 -0.1)">
       <use xlink:href="#DejaVuSans-2212"/>
       <use xlink:href="#DejaVuSans-31" x="83.789062"/>
      </g>
     </g>
    </g>
    <g id="xtick_14">
     <g id="line2d_55">
      <path d="M 234.447601 272.521395 
L 234.447601 199.2 
" clip-path="url(#p9b7be3df66)" style="fill: none; stroke: #b0b0b0; stroke-width: 0.8; stroke-linecap: square"/>
     </g>
     <g id="line2d_56">
      <g>
       <use xlink:href="#m4fb643ad3a" x="234.447601" y="272.521395" style="stroke: #000000; stroke-width: 0.8"/>
      </g>
     </g>
     <g id="text_18">
      <!-- 0 -->
      <g transform="translate(231.266351 287.119832)scale(0.1 -0.1)">
       <use xlink:href="#DejaVuSans-30"/>
      </g>
     </g>
    </g>
    <g id="xtick_15">
     <g id="line2d_57">
      <path d="M 326.151649 272.521395 
L 326.151649 199.2 
" clip-path="url(#p9b7be3df66)" style="fill: none; stroke: #b0b0b0; stroke-width: 0.8; stroke-linecap: square"/>
     </g>
     <g id="line2d_58">
      <g>
       <use xlink:href="#m4fb643ad3a" x="326.151649" y="272.521395" style="stroke: #000000; stroke-width: 0.8"/>
      </g>
     </g>
     <g id="text_19">
      <!-- 1 -->
      <g transform="translate(322.970399 287.119832)scale(0.1 -0.1)">
       <use xlink:href="#DejaVuSans-31"/>
      </g>
     </g>
    </g>
    <g id="xtick_16">
     <g id="line2d_59">
      <path d="M 417.855698 272.521395 
L 417.855698 199.2 
" clip-path="url(#p9b7be3df66)" style="fill: none; stroke: #b0b0b0; stroke-width: 0.8; stroke-linecap: square"/>
     </g>
     <g id="line2d_60">
      <g>
       <use xlink:href="#m4fb643ad3a" x="417.855698" y="272.521395" style="stroke: #000000; stroke-width: 0.8"/>
      </g>
     </g>
     <g id="text_20">
      <!-- 2 -->
      <g transform="translate(414.674448 287.119832)scale(0.1 -0.1)">
       <use xlink:href="#DejaVuSans-32"/>
      </g>
     </g>
    </g>
   </g>
   <g id="matplotlib.axis_6">
    <g id="ytick_5">
     <g id="line2d_61">
      <path d="M 36.465625 266.787348 
L 432.429577 266.787348 
" clip-path="url(#p9b7be3df66)" style="fill: none; stroke: #b0b0b0; stroke-width: 0.8; stroke-linecap: square"/>
     </g>
     <g id="line2d_62">
      <g>
       <use xlink:href="#m6aca08c7eb" x="36.465625" y="266.787348" style="stroke: #000000; stroke-width: 0.8"/>
      </g>
     </g>
     <g id="text_21">
      <!-- 9.25 -->
      <g transform="translate(7.2 270.586567)scale(0.1 -0.1)">
       <use xlink:href="#DejaVuSans-39"/>
       <use xlink:href="#DejaVuSans-2e" x="63.623047"/>
       <use xlink:href="#DejaVuSans-32" x="95.410156"/>
       <use xlink:href="#DejaVuSans-35" x="159.033203"/>
      </g>
     </g>
    </g>
    <g id="ytick_6">
     <g id="line2d_63">
      <path d="M 36.465625 243.861336 
L 432.429577 243.861336 
" clip-path="url(#p9b7be3df66)" style="fill: none; stroke: #b0b0b0; stroke-width: 0.8; stroke-linecap: square"/>
     </g>
     <g id="line2d_64">
      <g>
       <use xlink:href="#m6aca08c7eb" x="36.465625" y="243.861336" style="stroke: #000000; stroke-width: 0.8"/>
      </g>
     </g>
     <g id="text_22">
      <!-- 9.50 -->
      <g transform="translate(7.2 247.660555)scale(0.1 -0.1)">
       <use xlink:href="#DejaVuSans-39"/>
       <use xlink:href="#DejaVuSans-2e" x="63.623047"/>
       <use xlink:href="#DejaVuSans-35" x="95.410156"/>
       <use xlink:href="#DejaVuSans-30" x="159.033203"/>
      </g>
     </g>
    </g>
    <g id="ytick_7">
     <g id="line2d_65">
      <path d="M 36.465625 220.935324 
L 432.429577 220.935324 
" clip-path="url(#p9b7be3df66)" style="fill: none; stroke: #b0b0b0; stroke-width: 0.8; stroke-linecap: square"/>
     </g>
     <g id="line2d_66">
      <g>
       <use xlink:href="#m6aca08c7eb" x="36.465625" y="220.935324" style="stroke: #000000; stroke-width: 0.8"/>
      </g>
     </g>
     <g id="text_23">
      <!-- 9.75 -->
      <g transform="translate(7.2 224.734542)scale(0.1 -0.1)">
       <defs>
        <path id="DejaVuSans-37" d="M 525 4666 
L 3525 4666 
L 3525 4397 
L 1831 0 
L 1172 0 
L 2766 4134 
L 525 4134 
L 525 4666 
z
" transform="scale(0.015625)"/>
       </defs>
       <use xlink:href="#DejaVuSans-39"/>
       <use xlink:href="#DejaVuSans-2e" x="63.623047"/>
       <use xlink:href="#DejaVuSans-37" x="95.410156"/>
       <use xlink:href="#DejaVuSans-35" x="159.033203"/>
      </g>
     </g>
    </g>
   </g>
   <g id="LineCollection_7">
    <path d="M 250.495809 270.742622 
L 250.495809 200.978773 
" clip-path="url(#p9b7be3df66)" style="fill: none; stroke: #000000; stroke-width: 1.5"/>
   </g>
   <g id="line2d_67">
    <g clip-path="url(#p9b7be3df66)">
     <use xlink:href="#mb0b2c19e8e" x="250.495809" y="270.742622" style="stroke: #000000"/>
    </g>
   </g>
   <g id="line2d_68">
    <g clip-path="url(#p9b7be3df66)">
     <use xlink:href="#mb0b2c19e8e" x="250.495809" y="200.978773" style="stroke: #000000"/>
    </g>
   </g>
   <g id="LineCollection_8">
    <path d="M 218.399392 246.494144 
L 218.399392 225.227251 
" clip-path="url(#p9b7be3df66)" style="fill: none; stroke: #ff0000; stroke-width: 1.5"/>
   </g>
   <g id="line2d_69">
    <g clip-path="url(#p9b7be3df66)">
     <use xlink:href="#m3856ccf100" x="218.399392" y="246.494144" style="fill: #ff0000; stroke: #ff0000"/>
    </g>
   </g>
   <g id="line2d_70">
    <g clip-path="url(#p9b7be3df66)">
     <use xlink:href="#m3856ccf100" x="218.399392" y="225.227251" style="fill: #ff0000; stroke: #ff0000"/>
    </g>
   </g>
   <g id="LineCollection_9">
    <path d="M 234.447601 267.761038 
L 234.447601 203.960357 
" clip-path="url(#p9b7be3df66)" style="fill: none; stroke: #0000ff; stroke-width: 1.5"/>
   </g>
   <g id="line2d_71">
    <g clip-path="url(#p9b7be3df66)">
     <use xlink:href="#m438e7e9046" x="234.447601" y="267.761038" style="fill: #0000ff; stroke: #0000ff"/>
    </g>
   </g>
   <g id="line2d_72">
    <g clip-path="url(#p9b7be3df66)">
     <use xlink:href="#m438e7e9046" x="234.447601" y="203.960357" style="fill: #0000ff; stroke: #0000ff"/>
    </g>
   </g>
   <g id="line2d_73">
    <path d="M 36.465625 219.101243 
L 432.429577 219.101243 
" clip-path="url(#p9b7be3df66)" style="fill: none; stroke-dasharray: 5.55,2.4; stroke-dashoffset: 0; stroke: #000000; stroke-width: 1.5"/>
   </g>
   <g id="line2d_74">
    <g clip-path="url(#p9b7be3df66)">
     <use xlink:href="#m6a1410cc0a" x="250.495809" y="235.860698" style="stroke: #000000"/>
    </g>
   </g>
   <g id="line2d_75">
    <g clip-path="url(#p9b7be3df66)">
     <use xlink:href="#m855e16e016" x="218.399392" y="235.860698" style="fill: #ff0000; stroke: #ff0000"/>
    </g>
   </g>
   <g id="line2d_76">
    <g clip-path="url(#p9b7be3df66)">
     <use xlink:href="#mabe18eb5d3" x="234.447601" y="235.860698" style="fill: #0000ff; stroke: #0000ff"/>
    </g>
   </g>
   <g id="patch_13">
    <path d="M 36.465625 272.521395 
L 36.465625 199.2 
" style="fill: none; stroke: #000000; stroke-width: 0.8; stroke-linejoin: miter; stroke-linecap: square"/>
   </g>
   <g id="patch_14">
    <path d="M 432.429577 272.521395 
L 432.429577 199.2 
" style="fill: none; stroke: #000000; stroke-width: 0.8; stroke-linejoin: miter; stroke-linecap: square"/>
   </g>
   <g id="patch_15">
    <path d="M 36.465625 272.521395 
L 432.429577 272.521395 
" style="fill: none; stroke: #000000; stroke-width: 0.8; stroke-linejoin: miter; stroke-linecap: square"/>
   </g>
   <g id="patch_16">
    <path d="M 36.465625 199.2 
L 432.429577 199.2 
" style="fill: none; stroke: #000000; stroke-width: 0.8; stroke-linejoin: miter; stroke-linecap: square"/>
   </g>
  </g>
 </g>
 <defs>
  <clipPath id="p99144d5f73">
   <rect x="36.465625" y="7.2" width="395.963952" height="73.321395"/>
  </clipPath>
  <clipPath id="pb4471ed64b">
   <rect x="36.465625" y="103.2" width="395.963952" height="73.321395"/>
  </clipPath>
  <clipPath id="p9b7be3df66">
   <rect x="36.465625" y="199.2" width="395.963952" height="73.321395"/>
  </clipPath>
 </defs>
</svg>
