<?xml version="1.0" encoding="utf-8" standalone="no"?>
<!DOCTYPE svg PUBLIC "-//W3C//DTD SVG 1.1//EN"
  "http://www.w3.org/Graphics/SVG/1.1/DTD/svg11.dtd">
<svg xmlns:xlink="http://www.w3.org/1999/xlink" width="872.39952pt" height="368.39952pt" viewBox="0 0 872.39952 368.39952" xmlns="http://www.w3.org/2000/svg" version="1.1">
 <metadata>
  <rdf:RDF xmlns:dc="http://purl.org/dc/elements/1.1/" xmlns:cc="http://creativecommons.org/ns#" xmlns:rdf="http://www.w3.org/1999/02/22-rdf-syntax-ns#">
   <cc:Work>
    <dc:type rdf:resource="http://purl.org/dc/dcmitype/StillImage"/>
    <dc:date>2021-12-12T11:00:08.136486</dc:date>
    <dc:format>image/svg+xml</dc:format>
    <dc:creator>
     <cc:Agent>
      <dc:title>Matplotlib v3.5.0, https://matplotlib.org/</dc:title>
     </cc:Agent>
    </dc:creator>
   </cc:Work>
  </rdf:RDF>
 </metadata>
 <defs>
  <style type="text/css">*{stroke-linejoin: round; stroke-linecap: butt}</style>
 </defs>
 <g id="figure_1">
  <g id="patch_1">
   <path d="M 0 368.39952 
L 872.39952 368.39952 
L 872.39952 0 
L 0 0 
L 0 368.39952 
z
" style="fill: none"/>
  </g>
  <g id="axes_1">
   <g id="patch_2">
    <path d="M 42.828125 344.521395 
L 293.559942 344.521395 
L 293.559942 7.2 
L 42.828125 7.2 
z
" style="fill: #ffffff"/>
   </g>
   <g id="matplotlib.axis_1">
    <g id="xtick_1">
     <g id="line2d_1">
      <defs>
       <path id="m2eac4ba574" d="M 0 0 
L 0 3.5 
" style="stroke: #000000; stroke-width: 0.8"/>
      </defs>
      <g>
       <use xlink:href="#m2eac4ba574" x="61.680942" y="344.521395" style="stroke: #000000; stroke-width: 0.8"/>
      </g>
     </g>
     <g id="text_1">
      <!-- Group 0.0 -->
      <g transform="translate(36.920786 359.119833)scale(0.1 -0.1)">
       <defs>
        <path id="DejaVuSans-47" d="M 3809 666 
L 3809 1919 
L 2778 1919 
L 2778 2438 
L 4434 2438 
L 4434 434 
Q 4069 175 3628 42 
Q 3188 -91 2688 -91 
Q 1594 -91 976 548 
Q 359 1188 359 2328 
Q 359 3472 976 4111 
Q 1594 4750 2688 4750 
Q 3144 4750 3555 4637 
Q 3966 4525 4313 4306 
L 4313 3634 
Q 3963 3931 3569 4081 
Q 3175 4231 2741 4231 
Q 1884 4231 1454 3753 
Q 1025 3275 1025 2328 
Q 1025 1384 1454 906 
Q 1884 428 2741 428 
Q 3075 428 3337 486 
Q 3600 544 3809 666 
z
" transform="scale(0.015625)"/>
        <path id="DejaVuSans-72" d="M 2631 2963 
Q 2534 3019 2420 3045 
Q 2306 3072 2169 3072 
Q 1681 3072 1420 2755 
Q 1159 2438 1159 1844 
L 1159 0 
L 581 0 
L 581 3500 
L 1159 3500 
L 1159 2956 
Q 1341 3275 1631 3429 
Q 1922 3584 2338 3584 
Q 2397 3584 2469 3576 
Q 2541 3569 2628 3553 
L 2631 2963 
z
" transform="scale(0.015625)"/>
        <path id="DejaVuSans-6f" d="M 1959 3097 
Q 1497 3097 1228 2736 
Q 959 2375 959 1747 
Q 959 1119 1226 758 
Q 1494 397 1959 397 
Q 2419 397 2687 759 
Q 2956 1122 2956 1747 
Q 2956 2369 2687 2733 
Q 2419 3097 1959 3097 
z
M 1959 3584 
Q 2709 3584 3137 3096 
Q 3566 2609 3566 1747 
Q 3566 888 3137 398 
Q 2709 -91 1959 -91 
Q 1206 -91 779 398 
Q 353 888 353 1747 
Q 353 2609 779 3096 
Q 1206 3584 1959 3584 
z
" transform="scale(0.015625)"/>
        <path id="DejaVuSans-75" d="M 544 1381 
L 544 3500 
L 1119 3500 
L 1119 1403 
Q 1119 906 1312 657 
Q 1506 409 1894 409 
Q 2359 409 2629 706 
Q 2900 1003 2900 1516 
L 2900 3500 
L 3475 3500 
L 3475 0 
L 2900 0 
L 2900 538 
Q 2691 219 2414 64 
Q 2138 -91 1772 -91 
Q 1169 -91 856 284 
Q 544 659 544 1381 
z
M 1991 3584 
L 1991 3584 
z
" transform="scale(0.015625)"/>
        <path id="DejaVuSans-70" d="M 1159 525 
L 1159 -1331 
L 581 -1331 
L 581 3500 
L 1159 3500 
L 1159 2969 
Q 1341 3281 1617 3432 
Q 1894 3584 2278 3584 
Q 2916 3584 3314 3078 
Q 3713 2572 3713 1747 
Q 3713 922 3314 415 
Q 2916 -91 2278 -91 
Q 1894 -91 1617 61 
Q 1341 213 1159 525 
z
M 3116 1747 
Q 3116 2381 2855 2742 
Q 2594 3103 2138 3103 
Q 1681 3103 1420 2742 
Q 1159 2381 1159 1747 
Q 1159 1113 1420 752 
Q 1681 391 2138 391 
Q 2594 391 2855 752 
Q 3116 1113 3116 1747 
z
" transform="scale(0.015625)"/>
        <path id="DejaVuSans-20" transform="scale(0.015625)"/>
        <path id="DejaVuSans-30" d="M 2034 4250 
Q 1547 4250 1301 3770 
Q 1056 3291 1056 2328 
Q 1056 1369 1301 889 
Q 1547 409 2034 409 
Q 2525 409 2770 889 
Q 3016 1369 3016 2328 
Q 3016 3291 2770 3770 
Q 2525 4250 2034 4250 
z
M 2034 4750 
Q 2819 4750 3233 4129 
Q 3647 3509 3647 2328 
Q 3647 1150 3233 529 
Q 2819 -91 2034 -91 
Q 1250 -91 836 529 
Q 422 1150 422 2328 
Q 422 3509 836 4129 
Q 1250 4750 2034 4750 
z
" transform="scale(0.015625)"/>
        <path id="DejaVuSans-2e" d="M 684 794 
L 1344 794 
L 1344 0 
L 684 0 
L 684 794 
z
" transform="scale(0.015625)"/>
       </defs>
       <use xlink:href="#DejaVuSans-47"/>
       <use xlink:href="#DejaVuSans-72" x="77.490234"/>
       <use xlink:href="#DejaVuSans-6f" x="116.353516"/>
       <use xlink:href="#DejaVuSans-75" x="177.535156"/>
       <use xlink:href="#DejaVuSans-70" x="240.914062"/>
       <use xlink:href="#DejaVuSans-20" x="304.390625"/>
       <use xlink:href="#DejaVuSans-30" x="336.177734"/>
       <use xlink:href="#DejaVuSans-2e" x="399.800781"/>
       <use xlink:href="#DejaVuSans-30" x="431.587891"/>
      </g>
     </g>
    </g>
    <g id="xtick_2">
     <g id="line2d_2">
      <g>
       <use xlink:href="#m2eac4ba574" x="104.286179" y="344.521395" style="stroke: #000000; stroke-width: 0.8"/>
      </g>
     </g>
     <g id="text_2">
      <!-- Group 1.0 -->
      <g transform="translate(79.526023 359.119833)scale(0.1 -0.1)">
       <defs>
        <path id="DejaVuSans-31" d="M 794 531 
L 1825 531 
L 1825 4091 
L 703 3866 
L 703 4441 
L 1819 4666 
L 2450 4666 
L 2450 531 
L 3481 531 
L 3481 0 
L 794 0 
L 794 531 
z
" transform="scale(0.015625)"/>
       </defs>
       <use xlink:href="#DejaVuSans-47"/>
       <use xlink:href="#DejaVuSans-72" x="77.490234"/>
       <use xlink:href="#DejaVuSans-6f" x="116.353516"/>
       <use xlink:href="#DejaVuSans-75" x="177.535156"/>
       <use xlink:href="#DejaVuSans-70" x="240.914062"/>
       <use xlink:href="#DejaVuSans-20" x="304.390625"/>
       <use xlink:href="#DejaVuSans-31" x="336.177734"/>
       <use xlink:href="#DejaVuSans-2e" x="399.800781"/>
       <use xlink:href="#DejaVuSans-30" x="431.587891"/>
      </g>
     </g>
    </g>
    <g id="xtick_3">
     <g id="line2d_3">
      <g>
       <use xlink:href="#m2eac4ba574" x="146.891415" y="344.521395" style="stroke: #000000; stroke-width: 0.8"/>
      </g>
     </g>
     <g id="text_3">
      <!-- Group 2.0 -->
      <g transform="translate(122.131259 359.119833)scale(0.1 -0.1)">
       <defs>
        <path id="DejaVuSans-32" d="M 1228 531 
L 3431 531 
L 3431 0 
L 469 0 
L 469 531 
Q 828 903 1448 1529 
Q 2069 2156 2228 2338 
Q 2531 2678 2651 2914 
Q 2772 3150 2772 3378 
Q 2772 3750 2511 3984 
Q 2250 4219 1831 4219 
Q 1534 4219 1204 4116 
Q 875 4013 500 3803 
L 500 4441 
Q 881 4594 1212 4672 
Q 1544 4750 1819 4750 
Q 2544 4750 2975 4387 
Q 3406 4025 3406 3419 
Q 3406 3131 3298 2873 
Q 3191 2616 2906 2266 
Q 2828 2175 2409 1742 
Q 1991 1309 1228 531 
z
" transform="scale(0.015625)"/>
       </defs>
       <use xlink:href="#DejaVuSans-47"/>
       <use xlink:href="#DejaVuSans-72" x="77.490234"/>
       <use xlink:href="#DejaVuSans-6f" x="116.353516"/>
       <use xlink:href="#DejaVuSans-75" x="177.535156"/>
       <use xlink:href="#DejaVuSans-70" x="240.914062"/>
       <use xlink:href="#DejaVuSans-20" x="304.390625"/>
       <use xlink:href="#DejaVuSans-32" x="336.177734"/>
       <use xlink:href="#DejaVuSans-2e" x="399.800781"/>
       <use xlink:href="#DejaVuSans-30" x="431.587891"/>
      </g>
     </g>
    </g>
    <g id="xtick_4">
     <g id="line2d_4">
      <g>
       <use xlink:href="#m2eac4ba574" x="189.496652" y="344.521395" style="stroke: #000000; stroke-width: 0.8"/>
      </g>
     </g>
     <g id="text_4">
      <!-- Group 3.0 -->
      <g transform="translate(164.736496 359.119833)scale(0.1 -0.1)">
       <defs>
        <path id="DejaVuSans-33" d="M 2597 2516 
Q 3050 2419 3304 2112 
Q 3559 1806 3559 1356 
Q 3559 666 3084 287 
Q 2609 -91 1734 -91 
Q 1441 -91 1130 -33 
Q 819 25 488 141 
L 488 750 
Q 750 597 1062 519 
Q 1375 441 1716 441 
Q 2309 441 2620 675 
Q 2931 909 2931 1356 
Q 2931 1769 2642 2001 
Q 2353 2234 1838 2234 
L 1294 2234 
L 1294 2753 
L 1863 2753 
Q 2328 2753 2575 2939 
Q 2822 3125 2822 3475 
Q 2822 3834 2567 4026 
Q 2313 4219 1838 4219 
Q 1578 4219 1281 4162 
Q 984 4106 628 3988 
L 628 4550 
Q 988 4650 1302 4700 
Q 1616 4750 1894 4750 
Q 2613 4750 3031 4423 
Q 3450 4097 3450 3541 
Q 3450 3153 3228 2886 
Q 3006 2619 2597 2516 
z
" transform="scale(0.015625)"/>
       </defs>
       <use xlink:href="#DejaVuSans-47"/>
       <use xlink:href="#DejaVuSans-72" x="77.490234"/>
       <use xlink:href="#DejaVuSans-6f" x="116.353516"/>
       <use xlink:href="#DejaVuSans-75" x="177.535156"/>
       <use xlink:href="#DejaVuSans-70" x="240.914062"/>
       <use xlink:href="#DejaVuSans-20" x="304.390625"/>
       <use xlink:href="#DejaVuSans-33" x="336.177734"/>
       <use xlink:href="#DejaVuSans-2e" x="399.800781"/>
       <use xlink:href="#DejaVuSans-30" x="431.587891"/>
      </g>
     </g>
    </g>
    <g id="xtick_5">
     <g id="line2d_5">
      <g>
       <use xlink:href="#m2eac4ba574" x="232.101889" y="344.521395" style="stroke: #000000; stroke-width: 0.8"/>
      </g>
     </g>
     <g id="text_5">
      <!-- Group 4.0 -->
      <g transform="translate(207.341732 359.119833)scale(0.1 -0.1)">
       <defs>
        <path id="DejaVuSans-34" d="M 2419 4116 
L 825 1625 
L 2419 1625 
L 2419 4116 
z
M 2253 4666 
L 3047 4666 
L 3047 1625 
L 3713 1625 
L 3713 1100 
L 3047 1100 
L 3047 0 
L 2419 0 
L 2419 1100 
L 313 1100 
L 313 1709 
L 2253 4666 
z
" transform="scale(0.015625)"/>
       </defs>
       <use xlink:href="#DejaVuSans-47"/>
       <use xlink:href="#DejaVuSans-72" x="77.490234"/>
       <use xlink:href="#DejaVuSans-6f" x="116.353516"/>
       <use xlink:href="#DejaVuSans-75" x="177.535156"/>
       <use xlink:href="#DejaVuSans-70" x="240.914062"/>
       <use xlink:href="#DejaVuSans-20" x="304.390625"/>
       <use xlink:href="#DejaVuSans-34" x="336.177734"/>
       <use xlink:href="#DejaVuSans-2e" x="399.800781"/>
       <use xlink:href="#DejaVuSans-30" x="431.587891"/>
      </g>
     </g>
    </g>
    <g id="xtick_6">
     <g id="line2d_6">
      <g>
       <use xlink:href="#m2eac4ba574" x="274.707125" y="344.521395" style="stroke: #000000; stroke-width: 0.8"/>
      </g>
     </g>
     <g id="text_6">
      <!-- Group 5.0 -->
      <g transform="translate(249.946969 359.119833)scale(0.1 -0.1)">
       <defs>
        <path id="DejaVuSans-35" d="M 691 4666 
L 3169 4666 
L 3169 4134 
L 1269 4134 
L 1269 2991 
Q 1406 3038 1543 3061 
Q 1681 3084 1819 3084 
Q 2600 3084 3056 2656 
Q 3513 2228 3513 1497 
Q 3513 744 3044 326 
Q 2575 -91 1722 -91 
Q 1428 -91 1123 -41 
Q 819 9 494 109 
L 494 744 
Q 775 591 1075 516 
Q 1375 441 1709 441 
Q 2250 441 2565 725 
Q 2881 1009 2881 1497 
Q 2881 1984 2565 2268 
Q 2250 2553 1709 2553 
Q 1456 2553 1204 2497 
Q 953 2441 691 2322 
L 691 4666 
z
" transform="scale(0.015625)"/>
       </defs>
       <use xlink:href="#DejaVuSans-47"/>
       <use xlink:href="#DejaVuSans-72" x="77.490234"/>
       <use xlink:href="#DejaVuSans-6f" x="116.353516"/>
       <use xlink:href="#DejaVuSans-75" x="177.535156"/>
       <use xlink:href="#DejaVuSans-70" x="240.914062"/>
       <use xlink:href="#DejaVuSans-20" x="304.390625"/>
       <use xlink:href="#DejaVuSans-35" x="336.177734"/>
       <use xlink:href="#DejaVuSans-2e" x="399.800781"/>
       <use xlink:href="#DejaVuSans-30" x="431.587891"/>
      </g>
     </g>
    </g>
   </g>
   <g id="matplotlib.axis_2">
    <g id="ytick_1">
     <g id="line2d_7">
      <defs>
       <path id="mc2dea8553e" d="M 0 0 
L -3.5 0 
" style="stroke: #000000; stroke-width: 0.8"/>
      </defs>
      <g>
       <use xlink:href="#mc2dea8553e" x="42.828125" y="332.532612" style="stroke: #000000; stroke-width: 0.8"/>
      </g>
     </g>
     <g id="text_7">
      <!-- 8.50 -->
      <g transform="translate(13.5625 336.331831)scale(0.1 -0.1)">
       <defs>
        <path id="DejaVuSans-38" d="M 2034 2216 
Q 1584 2216 1326 1975 
Q 1069 1734 1069 1313 
Q 1069 891 1326 650 
Q 1584 409 2034 409 
Q 2484 409 2743 651 
Q 3003 894 3003 1313 
Q 3003 1734 2745 1975 
Q 2488 2216 2034 2216 
z
M 1403 2484 
Q 997 2584 770 2862 
Q 544 3141 544 3541 
Q 544 4100 942 4425 
Q 1341 4750 2034 4750 
Q 2731 4750 3128 4425 
Q 3525 4100 3525 3541 
Q 3525 3141 3298 2862 
Q 3072 2584 2669 2484 
Q 3125 2378 3379 2068 
Q 3634 1759 3634 1313 
Q 3634 634 3220 271 
Q 2806 -91 2034 -91 
Q 1263 -91 848 271 
Q 434 634 434 1313 
Q 434 1759 690 2068 
Q 947 2378 1403 2484 
z
M 1172 3481 
Q 1172 3119 1398 2916 
Q 1625 2713 2034 2713 
Q 2441 2713 2670 2916 
Q 2900 3119 2900 3481 
Q 2900 3844 2670 4047 
Q 2441 4250 2034 4250 
Q 1625 4250 1398 4047 
Q 1172 3844 1172 3481 
z
" transform="scale(0.015625)"/>
       </defs>
       <use xlink:href="#DejaVuSans-38"/>
       <use xlink:href="#DejaVuSans-2e" x="63.623047"/>
       <use xlink:href="#DejaVuSans-35" x="95.410156"/>
       <use xlink:href="#DejaVuSans-30" x="159.033203"/>
      </g>
     </g>
    </g>
    <g id="ytick_2">
     <g id="line2d_8">
      <g>
       <use xlink:href="#mc2dea8553e" x="42.828125" y="292.358941" style="stroke: #000000; stroke-width: 0.8"/>
      </g>
     </g>
     <g id="text_8">
      <!-- 8.75 -->
      <g transform="translate(13.5625 296.15816)scale(0.1 -0.1)">
       <defs>
        <path id="DejaVuSans-37" d="M 525 4666 
L 3525 4666 
L 3525 4397 
L 1831 0 
L 1172 0 
L 2766 4134 
L 525 4134 
L 525 4666 
z
" transform="scale(0.015625)"/>
       </defs>
       <use xlink:href="#DejaVuSans-38"/>
       <use xlink:href="#DejaVuSans-2e" x="63.623047"/>
       <use xlink:href="#DejaVuSans-37" x="95.410156"/>
       <use xlink:href="#DejaVuSans-35" x="159.033203"/>
      </g>
     </g>
    </g>
    <g id="ytick_3">
     <g id="line2d_9">
      <g>
       <use xlink:href="#mc2dea8553e" x="42.828125" y="252.18527" style="stroke: #000000; stroke-width: 0.8"/>
      </g>
     </g>
     <g id="text_9">
      <!-- 9.00 -->
      <g transform="translate(13.5625 255.984489)scale(0.1 -0.1)">
       <defs>
        <path id="DejaVuSans-39" d="M 703 97 
L 703 672 
Q 941 559 1184 500 
Q 1428 441 1663 441 
Q 2288 441 2617 861 
Q 2947 1281 2994 2138 
Q 2813 1869 2534 1725 
Q 2256 1581 1919 1581 
Q 1219 1581 811 2004 
Q 403 2428 403 3163 
Q 403 3881 828 4315 
Q 1253 4750 1959 4750 
Q 2769 4750 3195 4129 
Q 3622 3509 3622 2328 
Q 3622 1225 3098 567 
Q 2575 -91 1691 -91 
Q 1453 -91 1209 -44 
Q 966 3 703 97 
z
M 1959 2075 
Q 2384 2075 2632 2365 
Q 2881 2656 2881 3163 
Q 2881 3666 2632 3958 
Q 2384 4250 1959 4250 
Q 1534 4250 1286 3958 
Q 1038 3666 1038 3163 
Q 1038 2656 1286 2365 
Q 1534 2075 1959 2075 
z
" transform="scale(0.015625)"/>
       </defs>
       <use xlink:href="#DejaVuSans-39"/>
       <use xlink:href="#DejaVuSans-2e" x="63.623047"/>
       <use xlink:href="#DejaVuSans-30" x="95.410156"/>
       <use xlink:href="#DejaVuSans-30" x="159.033203"/>
      </g>
     </g>
    </g>
    <g id="ytick_4">
     <g id="line2d_10">
      <g>
       <use xlink:href="#mc2dea8553e" x="42.828125" y="212.011599" style="stroke: #000000; stroke-width: 0.8"/>
      </g>
     </g>
     <g id="text_10">
      <!-- 9.25 -->
      <g transform="translate(13.5625 215.810818)scale(0.1 -0.1)">
       <use xlink:href="#DejaVuSans-39"/>
       <use xlink:href="#DejaVuSans-2e" x="63.623047"/>
       <use xlink:href="#DejaVuSans-32" x="95.410156"/>
       <use xlink:href="#DejaVuSans-35" x="159.033203"/>
      </g>
     </g>
    </g>
    <g id="ytick_5">
     <g id="line2d_11">
      <g>
       <use xlink:href="#mc2dea8553e" x="42.828125" y="171.837928" style="stroke: #000000; stroke-width: 0.8"/>
      </g>
     </g>
     <g id="text_11">
      <!-- 9.50 -->
      <g transform="translate(13.5625 175.637147)scale(0.1 -0.1)">
       <use xlink:href="#DejaVuSans-39"/>
       <use xlink:href="#DejaVuSans-2e" x="63.623047"/>
       <use xlink:href="#DejaVuSans-35" x="95.410156"/>
       <use xlink:href="#DejaVuSans-30" x="159.033203"/>
      </g>
     </g>
    </g>
    <g id="ytick_6">
     <g id="line2d_12">
      <g>
       <use xlink:href="#mc2dea8553e" x="42.828125" y="131.664257" style="stroke: #000000; stroke-width: 0.8"/>
      </g>
     </g>
     <g id="text_12">
      <!-- 9.75 -->
      <g transform="translate(13.5625 135.463476)scale(0.1 -0.1)">
       <use xlink:href="#DejaVuSans-39"/>
       <use xlink:href="#DejaVuSans-2e" x="63.623047"/>
       <use xlink:href="#DejaVuSans-37" x="95.410156"/>
       <use xlink:href="#DejaVuSans-35" x="159.033203"/>
      </g>
     </g>
    </g>
    <g id="ytick_7">
     <g id="line2d_13">
      <g>
       <use xlink:href="#mc2dea8553e" x="42.828125" y="91.490586" style="stroke: #000000; stroke-width: 0.8"/>
      </g>
     </g>
     <g id="text_13">
      <!-- 10.00 -->
      <g transform="translate(7.2 95.289805)scale(0.1 -0.1)">
       <use xlink:href="#DejaVuSans-31"/>
       <use xlink:href="#DejaVuSans-30" x="63.623047"/>
       <use xlink:href="#DejaVuSans-2e" x="127.246094"/>
       <use xlink:href="#DejaVuSans-30" x="159.033203"/>
       <use xlink:href="#DejaVuSans-30" x="222.65625"/>
      </g>
     </g>
    </g>
    <g id="ytick_8">
     <g id="line2d_14">
      <g>
       <use xlink:href="#mc2dea8553e" x="42.828125" y="51.316915" style="stroke: #000000; stroke-width: 0.8"/>
      </g>
     </g>
     <g id="text_14">
      <!-- 10.25 -->
      <g transform="translate(7.2 55.116134)scale(0.1 -0.1)">
       <use xlink:href="#DejaVuSans-31"/>
       <use xlink:href="#DejaVuSans-30" x="63.623047"/>
       <use xlink:href="#DejaVuSans-2e" x="127.246094"/>
       <use xlink:href="#DejaVuSans-32" x="159.033203"/>
       <use xlink:href="#DejaVuSans-35" x="222.65625"/>
      </g>
     </g>
    </g>
    <g id="ytick_9">
     <g id="line2d_15">
      <g>
       <use xlink:href="#mc2dea8553e" x="42.828125" y="11.143244" style="stroke: #000000; stroke-width: 0.8"/>
      </g>
     </g>
     <g id="text_15">
      <!-- 10.50 -->
      <g transform="translate(7.2 14.942463)scale(0.1 -0.1)">
       <use xlink:href="#DejaVuSans-31"/>
       <use xlink:href="#DejaVuSans-30" x="63.623047"/>
       <use xlink:href="#DejaVuSans-2e" x="127.246094"/>
       <use xlink:href="#DejaVuSans-35" x="159.033203"/>
       <use xlink:href="#DejaVuSans-30" x="222.65625"/>
      </g>
     </g>
    </g>
   </g>
   <g id="line2d_16">
    <path d="M 42.828125 128.450363 
L 293.559942 128.450363 
" clip-path="url(#pb5502be8fa)" style="fill: none; stroke-dasharray: 5.55,2.4; stroke-dashoffset: 0; stroke: #000000; stroke-width: 1.5"/>
   </g>
   <g id="LineCollection_1">
    <path d="M 69.136859 243.604321 
L 69.136859 101.748052 
" clip-path="url(#pb5502be8fa)" style="fill: none; stroke: #000000; stroke-width: 1.5"/>
    <path d="M 111.742095 206.713157 
L 111.742095 112.126567 
" clip-path="url(#pb5502be8fa)" style="fill: none; stroke: #000000; stroke-width: 1.5"/>
    <path d="M 154.347332 138.377231 
L 154.347332 22.532791 
" clip-path="url(#pb5502be8fa)" style="fill: none; stroke: #000000; stroke-width: 1.5"/>
    <path d="M 196.952568 198.902288 
L 196.952568 198.902288 
" clip-path="url(#pb5502be8fa)" style="fill: none; stroke: #000000; stroke-width: 1.5"/>
    <path d="M 239.557805 329.188604 
L 239.557805 187.174937 
" clip-path="url(#pb5502be8fa)" style="fill: none; stroke: #000000; stroke-width: 1.5"/>
    <path d="M 282.163042 198.902288 
L 282.163042 198.902288 
" clip-path="url(#pb5502be8fa)" style="fill: none; stroke: #000000; stroke-width: 1.5"/>
   </g>
   <g id="line2d_17">
    <defs>
     <path id="m92a244ba6a" d="M 1.5 0 
L -1.5 -0 
" style="stroke: #000000"/>
    </defs>
    <g clip-path="url(#pb5502be8fa)">
     <use xlink:href="#m92a244ba6a" x="69.136859" y="243.604321" style="stroke: #000000"/>
     <use xlink:href="#m92a244ba6a" x="111.742095" y="206.713157" style="stroke: #000000"/>
     <use xlink:href="#m92a244ba6a" x="154.347332" y="138.377231" style="stroke: #000000"/>
     <use xlink:href="#m92a244ba6a" x="196.952568" y="198.902288" style="stroke: #000000"/>
     <use xlink:href="#m92a244ba6a" x="239.557805" y="329.188604" style="stroke: #000000"/>
     <use xlink:href="#m92a244ba6a" x="282.163042" y="198.902288" style="stroke: #000000"/>
    </g>
   </g>
   <g id="line2d_18">
    <g clip-path="url(#pb5502be8fa)">
     <use xlink:href="#m92a244ba6a" x="69.136859" y="101.748052" style="stroke: #000000"/>
     <use xlink:href="#m92a244ba6a" x="111.742095" y="112.126567" style="stroke: #000000"/>
     <use xlink:href="#m92a244ba6a" x="154.347332" y="22.532791" style="stroke: #000000"/>
     <use xlink:href="#m92a244ba6a" x="196.952568" y="198.902288" style="stroke: #000000"/>
     <use xlink:href="#m92a244ba6a" x="239.557805" y="187.174937" style="stroke: #000000"/>
     <use xlink:href="#m92a244ba6a" x="282.163042" y="198.902288" style="stroke: #000000"/>
    </g>
   </g>
   <g id="LineCollection_2">
    <path d="M 54.225026 194.298002 
L 54.225026 151.054371 
" clip-path="url(#pb5502be8fa)" style="fill: none; stroke: #696969; stroke-width: 1.5"/>
    <path d="M 96.830262 173.836806 
L 96.830262 145.002919 
" clip-path="url(#pb5502be8fa)" style="fill: none; stroke: #696969; stroke-width: 1.5"/>
    <path d="M 139.435499 98.112088 
L 139.435499 62.797933 
" clip-path="url(#pb5502be8fa)" style="fill: none; stroke: #696969; stroke-width: 1.5"/>
    <path d="M 182.040736 198.902288 
L 182.040736 198.902288 
" clip-path="url(#pb5502be8fa)" style="fill: none; stroke: #696969; stroke-width: 1.5"/>
    <path d="M 224.645972 279.827577 
L 224.645972 236.535964 
" clip-path="url(#pb5502be8fa)" style="fill: none; stroke: #696969; stroke-width: 1.5"/>
    <path d="M 267.251209 198.902288 
L 267.251209 198.902288 
" clip-path="url(#pb5502be8fa)" style="fill: none; stroke: #696969; stroke-width: 1.5"/>
   </g>
   <g id="line2d_19">
    <defs>
     <path id="m9ab515e4ab" d="M 1.5 0 
L -1.5 -0 
" style="stroke: #696969"/>
    </defs>
    <g clip-path="url(#pb5502be8fa)">
     <use xlink:href="#m9ab515e4ab" x="54.225026" y="194.298002" style="fill: #696969; stroke: #696969"/>
     <use xlink:href="#m9ab515e4ab" x="96.830262" y="173.836806" style="fill: #696969; stroke: #696969"/>
     <use xlink:href="#m9ab515e4ab" x="139.435499" y="98.112088" style="fill: #696969; stroke: #696969"/>
     <use xlink:href="#m9ab515e4ab" x="182.040736" y="198.902288" style="fill: #696969; stroke: #696969"/>
     <use xlink:href="#m9ab515e4ab" x="224.645972" y="279.827577" style="fill: #696969; stroke: #696969"/>
     <use xlink:href="#m9ab515e4ab" x="267.251209" y="198.902288" style="fill: #696969; stroke: #696969"/>
    </g>
   </g>
   <g id="line2d_20">
    <g clip-path="url(#pb5502be8fa)">
     <use xlink:href="#m9ab515e4ab" x="54.225026" y="151.054371" style="fill: #696969; stroke: #696969"/>
     <use xlink:href="#m9ab515e4ab" x="96.830262" y="145.002919" style="fill: #696969; stroke: #696969"/>
     <use xlink:href="#m9ab515e4ab" x="139.435499" y="62.797933" style="fill: #696969; stroke: #696969"/>
     <use xlink:href="#m9ab515e4ab" x="182.040736" y="198.902288" style="fill: #696969; stroke: #696969"/>
     <use xlink:href="#m9ab515e4ab" x="224.645972" y="236.535964" style="fill: #696969; stroke: #696969"/>
     <use xlink:href="#m9ab515e4ab" x="267.251209" y="198.902288" style="fill: #696969; stroke: #696969"/>
    </g>
   </g>
   <g id="LineCollection_3">
    <path d="M 61.680942 237.541634 
L 61.680942 107.81074 
" clip-path="url(#pb5502be8fa)" style="fill: none; stroke: #708090; stroke-width: 1.5"/>
    <path d="M 104.286179 202.670693 
L 104.286179 116.169032 
" clip-path="url(#pb5502be8fa)" style="fill: none; stroke: #708090; stroke-width: 1.5"/>
    <path d="M 146.891415 133.426244 
L 146.891415 27.483778 
" clip-path="url(#pb5502be8fa)" style="fill: none; stroke: #708090; stroke-width: 1.5"/>
    <path d="M 189.496652 198.902288 
L 189.496652 198.902288 
" clip-path="url(#pb5502be8fa)" style="fill: none; stroke: #708090; stroke-width: 1.5"/>
    <path d="M 232.101889 323.11919 
L 232.101889 193.244351 
" clip-path="url(#pb5502be8fa)" style="fill: none; stroke: #708090; stroke-width: 1.5"/>
    <path d="M 274.707125 198.902288 
L 274.707125 198.902288 
" clip-path="url(#pb5502be8fa)" style="fill: none; stroke: #708090; stroke-width: 1.5"/>
   </g>
   <g id="line2d_21">
    <defs>
     <path id="m60078a3a4b" d="M 1.5 0 
L -1.5 -0 
" style="stroke: #708090"/>
    </defs>
    <g clip-path="url(#pb5502be8fa)">
     <use xlink:href="#m60078a3a4b" x="61.680942" y="237.541634" style="fill: #708090; stroke: #708090"/>
     <use xlink:href="#m60078a3a4b" x="104.286179" y="202.670693" style="fill: #708090; stroke: #708090"/>
     <use xlink:href="#m60078a3a4b" x="146.891415" y="133.426244" style="fill: #708090; stroke: #708090"/>
     <use xlink:href="#m60078a3a4b" x="189.496652" y="198.902288" style="fill: #708090; stroke: #708090"/>
     <use xlink:href="#m60078a3a4b" x="232.101889" y="323.11919" style="fill: #708090; stroke: #708090"/>
     <use xlink:href="#m60078a3a4b" x="274.707125" y="198.902288" style="fill: #708090; stroke: #708090"/>
    </g>
   </g>
   <g id="line2d_22">
    <g clip-path="url(#pb5502be8fa)">
     <use xlink:href="#m60078a3a4b" x="61.680942" y="107.81074" style="fill: #708090; stroke: #708090"/>
     <use xlink:href="#m60078a3a4b" x="104.286179" y="116.169032" style="fill: #708090; stroke: #708090"/>
     <use xlink:href="#m60078a3a4b" x="146.891415" y="27.483778" style="fill: #708090; stroke: #708090"/>
     <use xlink:href="#m60078a3a4b" x="189.496652" y="198.902288" style="fill: #708090; stroke: #708090"/>
     <use xlink:href="#m60078a3a4b" x="232.101889" y="193.244351" style="fill: #708090; stroke: #708090"/>
     <use xlink:href="#m60078a3a4b" x="274.707125" y="198.902288" style="fill: #708090; stroke: #708090"/>
    </g>
   </g>
   <g id="line2d_23">
    <defs>
     <path id="mb675904526" d="M 0 1.5 
C 0.397805 1.5 0.77937 1.341951 1.06066 1.06066 
C 1.341951 0.77937 1.5 0.397805 1.5 0 
C 1.5 -0.397805 1.341951 -0.77937 1.06066 -1.06066 
C 0.77937 -1.341951 0.397805 -1.5 0 -1.5 
C -0.397805 -1.5 -0.77937 -1.341951 -1.06066 -1.06066 
C -1.341951 -0.77937 -1.5 -0.397805 -1.5 0 
C -1.5 0.397805 -1.341951 0.77937 -1.06066 1.06066 
C -0.77937 1.341951 -0.397805 1.5 0 1.5 
z
" style="stroke: #000000"/>
    </defs>
    <g clip-path="url(#pb5502be8fa)">
     <use xlink:href="#mb675904526" x="69.136859" y="172.676187" style="stroke: #000000"/>
     <use xlink:href="#mb675904526" x="111.742095" y="159.419862" style="stroke: #000000"/>
     <use xlink:href="#mb675904526" x="154.347332" y="80.455011" style="stroke: #000000"/>
     <use xlink:href="#mb675904526" x="196.952568" y="198.902288" style="stroke: #000000"/>
     <use xlink:href="#mb675904526" x="239.557805" y="258.18177" style="stroke: #000000"/>
     <use xlink:href="#mb675904526" x="282.163042" y="198.902288" style="stroke: #000000"/>
    </g>
   </g>
   <g id="line2d_24">
    <defs>
     <path id="m15a338fcdb" d="M 0 1.5 
C 0.397805 1.5 0.77937 1.341951 1.06066 1.06066 
C 1.341951 0.77937 1.5 0.397805 1.5 0 
C 1.5 -0.397805 1.341951 -0.77937 1.06066 -1.06066 
C 0.77937 -1.341951 0.397805 -1.5 0 -1.5 
C -0.397805 -1.5 -0.77937 -1.341951 -1.06066 -1.06066 
C -1.341951 -0.77937 -1.5 -0.397805 -1.5 0 
C -1.5 0.397805 -1.341951 0.77937 -1.06066 1.06066 
C -0.77937 1.341951 -0.397805 1.5 0 1.5 
z
" style="stroke: #696969"/>
    </defs>
    <g clip-path="url(#pb5502be8fa)">
     <use xlink:href="#m15a338fcdb" x="54.225026" y="172.676187" style="fill: #696969; stroke: #696969"/>
     <use xlink:href="#m15a338fcdb" x="96.830262" y="159.419862" style="fill: #696969; stroke: #696969"/>
     <use xlink:href="#m15a338fcdb" x="139.435499" y="80.455011" style="fill: #696969; stroke: #696969"/>
     <use xlink:href="#m15a338fcdb" x="182.040736" y="198.902288" style="fill: #696969; stroke: #696969"/>
     <use xlink:href="#m15a338fcdb" x="224.645972" y="258.18177" style="fill: #696969; stroke: #696969"/>
     <use xlink:href="#m15a338fcdb" x="267.251209" y="198.902288" style="fill: #696969; stroke: #696969"/>
    </g>
   </g>
   <g id="line2d_25">
    <defs>
     <path id="mdd74a7bb1e" d="M 0 1.5 
C 0.397805 1.5 0.77937 1.341951 1.06066 1.06066 
C 1.341951 0.77937 1.5 0.397805 1.5 0 
C 1.5 -0.397805 1.341951 -0.77937 1.06066 -1.06066 
C 0.77937 -1.341951 0.397805 -1.5 0 -1.5 
C -0.397805 -1.5 -0.77937 -1.341951 -1.06066 -1.06066 
C -1.341951 -0.77937 -1.5 -0.397805 -1.5 0 
C -1.5 0.397805 -1.341951 0.77937 -1.06066 1.06066 
C -0.77937 1.341951 -0.397805 1.5 0 1.5 
z
" style="stroke: #708090"/>
    </defs>
    <g clip-path="url(#pb5502be8fa)">
     <use xlink:href="#mdd74a7bb1e" x="61.680942" y="172.676187" style="fill: #708090; stroke: #708090"/>
     <use xlink:href="#mdd74a7bb1e" x="104.286179" y="159.419862" style="fill: #708090; stroke: #708090"/>
     <use xlink:href="#mdd74a7bb1e" x="146.891415" y="80.455011" style="fill: #708090; stroke: #708090"/>
     <use xlink:href="#mdd74a7bb1e" x="189.496652" y="198.902288" style="fill: #708090; stroke: #708090"/>
     <use xlink:href="#mdd74a7bb1e" x="232.101889" y="258.18177" style="fill: #708090; stroke: #708090"/>
     <use xlink:href="#mdd74a7bb1e" x="274.707125" y="198.902288" style="fill: #708090; stroke: #708090"/>
    </g>
   </g>
   <g id="patch_3">
    <path d="M 42.828125 344.521395 
L 42.828125 7.2 
" style="fill: none; stroke: #000000; stroke-width: 0.8; stroke-linejoin: miter; stroke-linecap: square"/>
   </g>
   <g id="patch_4">
    <path d="M 293.559942 344.521395 
L 293.559942 7.2 
" style="fill: none; stroke: #000000; stroke-width: 0.8; stroke-linejoin: miter; stroke-linecap: square"/>
   </g>
   <g id="patch_5">
    <path d="M 42.828125 344.521395 
L 293.559942 344.521395 
" style="fill: none; stroke: #000000; stroke-width: 0.8; stroke-linejoin: miter; stroke-linecap: square"/>
   </g>
   <g id="patch_6">
    <path d="M 42.828125 7.2 
L 293.559942 7.2 
" style="fill: none; stroke: #000000; stroke-width: 0.8; stroke-linejoin: miter; stroke-linecap: square"/>
   </g>
  </g>
  <g id="axes_2">
   <g id="patch_7">
    <path d="M 334.83228 344.521395 
L 585.564098 344.521395 
L 585.564098 7.2 
L 334.83228 7.2 
z
" style="fill: #ffffff"/>
   </g>
   <g id="matplotlib.axis_3">
    <g id="xtick_7">
     <g id="line2d_26">
      <g>
       <use xlink:href="#m2eac4ba574" x="375.776701" y="344.521395" style="stroke: #000000; stroke-width: 0.8"/>
      </g>
     </g>
     <g id="text_16">
      <!-- Group 0.0 -->
      <g transform="translate(351.016545 359.119833)scale(0.1 -0.1)">
       <use xlink:href="#DejaVuSans-47"/>
       <use xlink:href="#DejaVuSans-72" x="77.490234"/>
       <use xlink:href="#DejaVuSans-6f" x="116.353516"/>
       <use xlink:href="#DejaVuSans-75" x="177.535156"/>
       <use xlink:href="#DejaVuSans-70" x="240.914062"/>
       <use xlink:href="#DejaVuSans-20" x="304.390625"/>
       <use xlink:href="#DejaVuSans-30" x="336.177734"/>
       <use xlink:href="#DejaVuSans-2e" x="399.800781"/>
       <use xlink:href="#DejaVuSans-30" x="431.587891"/>
      </g>
     </g>
    </g>
    <g id="xtick_8">
     <g id="line2d_27">
      <g>
       <use xlink:href="#m2eac4ba574" x="544.619676" y="344.521395" style="stroke: #000000; stroke-width: 0.8"/>
      </g>
     </g>
     <g id="text_17">
      <!-- Group 1.0 -->
      <g transform="translate(519.85952 359.119833)scale(0.1 -0.1)">
       <use xlink:href="#DejaVuSans-47"/>
       <use xlink:href="#DejaVuSans-72" x="77.490234"/>
       <use xlink:href="#DejaVuSans-6f" x="116.353516"/>
       <use xlink:href="#DejaVuSans-75" x="177.535156"/>
       <use xlink:href="#DejaVuSans-70" x="240.914062"/>
       <use xlink:href="#DejaVuSans-20" x="304.390625"/>
       <use xlink:href="#DejaVuSans-31" x="336.177734"/>
       <use xlink:href="#DejaVuSans-2e" x="399.800781"/>
       <use xlink:href="#DejaVuSans-30" x="431.587891"/>
      </g>
     </g>
    </g>
   </g>
   <g id="matplotlib.axis_4">
    <g id="ytick_10">
     <g id="line2d_28">
      <g>
       <use xlink:href="#mc2dea8553e" x="334.83228" y="311.801887" style="stroke: #000000; stroke-width: 0.8"/>
      </g>
     </g>
     <g id="text_18">
      <!-- 9.0 -->
      <g transform="translate(311.929155 315.601105)scale(0.1 -0.1)">
       <use xlink:href="#DejaVuSans-39"/>
       <use xlink:href="#DejaVuSans-2e" x="63.623047"/>
       <use xlink:href="#DejaVuSans-30" x="95.410156"/>
      </g>
     </g>
    </g>
    <g id="ytick_11">
     <g id="line2d_29">
      <g>
       <use xlink:href="#mc2dea8553e" x="334.83228" y="259.857054" style="stroke: #000000; stroke-width: 0.8"/>
      </g>
     </g>
     <g id="text_19">
      <!-- 9.2 -->
      <g transform="translate(311.929155 263.656273)scale(0.1 -0.1)">
       <use xlink:href="#DejaVuSans-39"/>
       <use xlink:href="#DejaVuSans-2e" x="63.623047"/>
       <use xlink:href="#DejaVuSans-32" x="95.410156"/>
      </g>
     </g>
    </g>
    <g id="ytick_12">
     <g id="line2d_30">
      <g>
       <use xlink:href="#mc2dea8553e" x="334.83228" y="207.912222" style="stroke: #000000; stroke-width: 0.8"/>
      </g>
     </g>
     <g id="text_20">
      <!-- 9.4 -->
      <g transform="translate(311.929155 211.711441)scale(0.1 -0.1)">
       <use xlink:href="#DejaVuSans-39"/>
       <use xlink:href="#DejaVuSans-2e" x="63.623047"/>
       <use xlink:href="#DejaVuSans-34" x="95.410156"/>
      </g>
     </g>
    </g>
    <g id="ytick_13">
     <g id="line2d_31">
      <g>
       <use xlink:href="#mc2dea8553e" x="334.83228" y="155.96739" style="stroke: #000000; stroke-width: 0.8"/>
      </g>
     </g>
     <g id="text_21">
      <!-- 9.6 -->
      <g transform="translate(311.929155 159.766608)scale(0.1 -0.1)">
       <defs>
        <path id="DejaVuSans-36" d="M 2113 2584 
Q 1688 2584 1439 2293 
Q 1191 2003 1191 1497 
Q 1191 994 1439 701 
Q 1688 409 2113 409 
Q 2538 409 2786 701 
Q 3034 994 3034 1497 
Q 3034 2003 2786 2293 
Q 2538 2584 2113 2584 
z
M 3366 4563 
L 3366 3988 
Q 3128 4100 2886 4159 
Q 2644 4219 2406 4219 
Q 1781 4219 1451 3797 
Q 1122 3375 1075 2522 
Q 1259 2794 1537 2939 
Q 1816 3084 2150 3084 
Q 2853 3084 3261 2657 
Q 3669 2231 3669 1497 
Q 3669 778 3244 343 
Q 2819 -91 2113 -91 
Q 1303 -91 875 529 
Q 447 1150 447 2328 
Q 447 3434 972 4092 
Q 1497 4750 2381 4750 
Q 2619 4750 2861 4703 
Q 3103 4656 3366 4563 
z
" transform="scale(0.015625)"/>
       </defs>
       <use xlink:href="#DejaVuSans-39"/>
       <use xlink:href="#DejaVuSans-2e" x="63.623047"/>
       <use xlink:href="#DejaVuSans-36" x="95.410156"/>
      </g>
     </g>
    </g>
    <g id="ytick_14">
     <g id="line2d_32">
      <g>
       <use xlink:href="#mc2dea8553e" x="334.83228" y="104.022557" style="stroke: #000000; stroke-width: 0.8"/>
      </g>
     </g>
     <g id="text_22">
      <!-- 9.8 -->
      <g transform="translate(311.929155 107.821776)scale(0.1 -0.1)">
       <use xlink:href="#DejaVuSans-39"/>
       <use xlink:href="#DejaVuSans-2e" x="63.623047"/>
       <use xlink:href="#DejaVuSans-38" x="95.410156"/>
      </g>
     </g>
    </g>
    <g id="ytick_15">
     <g id="line2d_33">
      <g>
       <use xlink:href="#mc2dea8553e" x="334.83228" y="52.077725" style="stroke: #000000; stroke-width: 0.8"/>
      </g>
     </g>
     <g id="text_23">
      <!-- 10.0 -->
      <g transform="translate(305.566655 55.876944)scale(0.1 -0.1)">
       <use xlink:href="#DejaVuSans-31"/>
       <use xlink:href="#DejaVuSans-30" x="63.623047"/>
       <use xlink:href="#DejaVuSans-2e" x="127.246094"/>
       <use xlink:href="#DejaVuSans-30" x="159.033203"/>
      </g>
     </g>
    </g>
   </g>
   <g id="line2d_34">
    <path d="M 334.83228 111.814282 
L 585.564098 111.814282 
" clip-path="url(#p83ab992c11)" style="fill: none; stroke-dasharray: 5.55,2.4; stroke-dashoffset: 0; stroke: #000000; stroke-width: 1.5"/>
   </g>
   <g id="LineCollection_4">
    <path d="M 405.324222 230.403897 
L 405.324222 22.532791 
" clip-path="url(#p83ab992c11)" style="fill: none; stroke: #000000; stroke-width: 1.5"/>
    <path d="M 574.167197 329.188604 
L 574.167197 186.050997 
" clip-path="url(#p83ab992c11)" style="fill: none; stroke: #000000; stroke-width: 1.5"/>
   </g>
   <g id="line2d_35">
    <g clip-path="url(#p83ab992c11)">
     <use xlink:href="#m92a244ba6a" x="405.324222" y="230.403897" style="stroke: #000000"/>
     <use xlink:href="#m92a244ba6a" x="574.167197" y="329.188604" style="stroke: #000000"/>
    </g>
   </g>
   <g id="line2d_36">
    <g clip-path="url(#p83ab992c11)">
     <use xlink:href="#m92a244ba6a" x="405.324222" y="22.532791" style="stroke: #000000"/>
     <use xlink:href="#m92a244ba6a" x="574.167197" y="186.050997" style="stroke: #000000"/>
    </g>
   </g>
   <g id="LineCollection_5">
    <path d="M 346.229181 158.15218 
L 346.229181 94.784508 
" clip-path="url(#p83ab992c11)" style="fill: none; stroke: #696969; stroke-width: 1.5"/>
    <path d="M 515.072156 279.436919 
L 515.072156 235.802682 
" clip-path="url(#p83ab992c11)" style="fill: none; stroke: #696969; stroke-width: 1.5"/>
   </g>
   <g id="line2d_37">
    <g clip-path="url(#p83ab992c11)">
     <use xlink:href="#m9ab515e4ab" x="346.229181" y="158.15218" style="fill: #696969; stroke: #696969"/>
     <use xlink:href="#m9ab515e4ab" x="515.072156" y="279.436919" style="fill: #696969; stroke: #696969"/>
    </g>
   </g>
   <g id="line2d_38">
    <g clip-path="url(#p83ab992c11)">
     <use xlink:href="#m9ab515e4ab" x="346.229181" y="94.784508" style="fill: #696969; stroke: #696969"/>
     <use xlink:href="#m9ab515e4ab" x="515.072156" y="235.802682" style="fill: #696969; stroke: #696969"/>
    </g>
   </g>
   <g id="LineCollection_6">
    <path d="M 375.776701 221.519851 
L 375.776701 31.416836 
" clip-path="url(#p83ab992c11)" style="fill: none; stroke: #708090; stroke-width: 1.5"/>
    <path d="M 544.619676 323.071155 
L 544.619676 192.168446 
" clip-path="url(#p83ab992c11)" style="fill: none; stroke: #708090; stroke-width: 1.5"/>
   </g>
   <g id="line2d_39">
    <g clip-path="url(#p83ab992c11)">
     <use xlink:href="#m60078a3a4b" x="375.776701" y="221.519851" style="fill: #708090; stroke: #708090"/>
     <use xlink:href="#m60078a3a4b" x="544.619676" y="323.071155" style="fill: #708090; stroke: #708090"/>
    </g>
   </g>
   <g id="line2d_40">
    <g clip-path="url(#p83ab992c11)">
     <use xlink:href="#m60078a3a4b" x="375.776701" y="31.416836" style="fill: #708090; stroke: #708090"/>
     <use xlink:href="#m60078a3a4b" x="544.619676" y="192.168446" style="fill: #708090; stroke: #708090"/>
    </g>
   </g>
   <g id="line2d_41">
    <g clip-path="url(#p83ab992c11)">
     <use xlink:href="#mb675904526" x="405.324222" y="126.468344" style="stroke: #000000"/>
     <use xlink:href="#mb675904526" x="574.167197" y="257.6198" style="stroke: #000000"/>
    </g>
   </g>
   <g id="line2d_42">
    <g clip-path="url(#p83ab992c11)">
     <use xlink:href="#m15a338fcdb" x="346.229181" y="126.468344" style="fill: #696969; stroke: #696969"/>
     <use xlink:href="#m15a338fcdb" x="515.072156" y="257.6198" style="fill: #696969; stroke: #696969"/>
    </g>
   </g>
   <g id="line2d_43">
    <g clip-path="url(#p83ab992c11)">
     <use xlink:href="#mdd74a7bb1e" x="375.776701" y="126.468344" style="fill: #708090; stroke: #708090"/>
     <use xlink:href="#mdd74a7bb1e" x="544.619676" y="257.6198" style="fill: #708090; stroke: #708090"/>
    </g>
   </g>
   <g id="patch_8">
    <path d="M 334.83228 344.521395 
L 334.83228 7.2 
" style="fill: none; stroke: #000000; stroke-width: 0.8; stroke-linejoin: miter; stroke-linecap: square"/>
   </g>
   <g id="patch_9">
    <path d="M 585.564098 344.521395 
L 585.564098 7.2 
" style="fill: none; stroke: #000000; stroke-width: 0.8; stroke-linejoin: miter; stroke-linecap: square"/>
   </g>
   <g id="patch_10">
    <path d="M 334.83228 344.521395 
L 585.564098 344.521395 
" style="fill: none; stroke: #000000; stroke-width: 0.8; stroke-linejoin: miter; stroke-linecap: square"/>
   </g>
   <g id="patch_11">
    <path d="M 334.83228 7.2 
L 585.564098 7.2 
" style="fill: none; stroke: #000000; stroke-width: 0.8; stroke-linejoin: miter; stroke-linecap: square"/>
   </g>
  </g>
  <g id="axes_3">
   <g id="patch_12">
    <path d="M 614.467703 344.521395 
L 865.19952 344.521395 
L 865.19952 7.2 
L 614.467703 7.2 
z
" style="fill: #ffffff"/>
   </g>
   <g id="matplotlib.axis_5">
    <g id="xtick_9">
     <g id="line2d_44">
      <g>
       <use xlink:href="#m2eac4ba574" x="739.833611" y="344.521395" style="stroke: #000000; stroke-width: 0.8"/>
      </g>
     </g>
     <g id="text_24">
      <!-- Group 0.0 -->
      <g transform="translate(715.073455 359.119833)scale(0.1 -0.1)">
       <use xlink:href="#DejaVuSans-47"/>
       <use xlink:href="#DejaVuSans-72" x="77.490234"/>
       <use xlink:href="#DejaVuSans-6f" x="116.353516"/>
       <use xlink:href="#DejaVuSans-75" x="177.535156"/>
       <use xlink:href="#DejaVuSans-70" x="240.914062"/>
       <use xlink:href="#DejaVuSans-20" x="304.390625"/>
       <use xlink:href="#DejaVuSans-30" x="336.177734"/>
       <use xlink:href="#DejaVuSans-2e" x="399.800781"/>
       <use xlink:href="#DejaVuSans-30" x="431.587891"/>
      </g>
     </g>
    </g>
   </g>
   <g id="matplotlib.axis_6">
    <g id="ytick_16">
     <g id="line2d_45">
      <g>
       <use xlink:href="#mc2dea8553e" x="614.467703" y="323.358138" style="stroke: #000000; stroke-width: 0.8"/>
      </g>
     </g>
     <g id="text_25">
      <!-- 9.1 -->
      <g transform="translate(591.564578 327.157357)scale(0.1 -0.1)">
       <use xlink:href="#DejaVuSans-39"/>
       <use xlink:href="#DejaVuSans-2e" x="63.623047"/>
       <use xlink:href="#DejaVuSans-31" x="95.410156"/>
      </g>
     </g>
    </g>
    <g id="ytick_17">
     <g id="line2d_46">
      <g>
       <use xlink:href="#mc2dea8553e" x="614.467703" y="282.511002" style="stroke: #000000; stroke-width: 0.8"/>
      </g>
     </g>
     <g id="text_26">
      <!-- 9.2 -->
      <g transform="translate(591.564578 286.310221)scale(0.1 -0.1)">
       <use xlink:href="#DejaVuSans-39"/>
       <use xlink:href="#DejaVuSans-2e" x="63.623047"/>
       <use xlink:href="#DejaVuSans-32" x="95.410156"/>
      </g>
     </g>
    </g>
    <g id="ytick_18">
     <g id="line2d_47">
      <g>
       <use xlink:href="#mc2dea8553e" x="614.467703" y="241.663866" style="stroke: #000000; stroke-width: 0.8"/>
      </g>
     </g>
     <g id="text_27">
      <!-- 9.3 -->
      <g transform="translate(591.564578 245.463085)scale(0.1 -0.1)">
       <use xlink:href="#DejaVuSans-39"/>
       <use xlink:href="#DejaVuSans-2e" x="63.623047"/>
       <use xlink:href="#DejaVuSans-33" x="95.410156"/>
      </g>
     </g>
    </g>
    <g id="ytick_19">
     <g id="line2d_48">
      <g>
       <use xlink:href="#mc2dea8553e" x="614.467703" y="200.816731" style="stroke: #000000; stroke-width: 0.8"/>
      </g>
     </g>
     <g id="text_28">
      <!-- 9.4 -->
      <g transform="translate(591.564578 204.615949)scale(0.1 -0.1)">
       <use xlink:href="#DejaVuSans-39"/>
       <use xlink:href="#DejaVuSans-2e" x="63.623047"/>
       <use xlink:href="#DejaVuSans-34" x="95.410156"/>
      </g>
     </g>
    </g>
    <g id="ytick_20">
     <g id="line2d_49">
      <g>
       <use xlink:href="#mc2dea8553e" x="614.467703" y="159.969595" style="stroke: #000000; stroke-width: 0.8"/>
      </g>
     </g>
     <g id="text_29">
      <!-- 9.5 -->
      <g transform="translate(591.564578 163.768813)scale(0.1 -0.1)">
       <use xlink:href="#DejaVuSans-39"/>
       <use xlink:href="#DejaVuSans-2e" x="63.623047"/>
       <use xlink:href="#DejaVuSans-35" x="95.410156"/>
      </g>
     </g>
    </g>
    <g id="ytick_21">
     <g id="line2d_50">
      <g>
       <use xlink:href="#mc2dea8553e" x="614.467703" y="119.122459" style="stroke: #000000; stroke-width: 0.8"/>
      </g>
     </g>
     <g id="text_30">
      <!-- 9.6 -->
      <g transform="translate(591.564578 122.921677)scale(0.1 -0.1)">
       <use xlink:href="#DejaVuSans-39"/>
       <use xlink:href="#DejaVuSans-2e" x="63.623047"/>
       <use xlink:href="#DejaVuSans-36" x="95.410156"/>
      </g>
     </g>
    </g>
    <g id="ytick_22">
     <g id="line2d_51">
      <g>
       <use xlink:href="#mc2dea8553e" x="614.467703" y="78.275323" style="stroke: #000000; stroke-width: 0.8"/>
      </g>
     </g>
     <g id="text_31">
      <!-- 9.7 -->
      <g transform="translate(591.564578 82.074542)scale(0.1 -0.1)">
       <use xlink:href="#DejaVuSans-39"/>
       <use xlink:href="#DejaVuSans-2e" x="63.623047"/>
       <use xlink:href="#DejaVuSans-37" x="95.410156"/>
      </g>
     </g>
    </g>
    <g id="ytick_23">
     <g id="line2d_52">
      <g>
       <use xlink:href="#mc2dea8553e" x="614.467703" y="37.428187" style="stroke: #000000; stroke-width: 0.8"/>
      </g>
     </g>
     <g id="text_32">
      <!-- 9.8 -->
      <g transform="translate(591.564578 41.227406)scale(0.1 -0.1)">
       <use xlink:href="#DejaVuSans-39"/>
       <use xlink:href="#DejaVuSans-2e" x="63.623047"/>
       <use xlink:href="#DejaVuSans-38" x="95.410156"/>
      </g>
     </g>
    </g>
   </g>
   <g id="line2d_53">
    <path d="M 614.467703 49.682328 
L 865.19952 49.682328 
" clip-path="url(#p9853e39ee1)" style="fill: none; stroke-dasharray: 5.55,2.4; stroke-dashoffset: 0; stroke: #000000; stroke-width: 1.5"/>
   </g>
   <g id="LineCollection_7">
    <path d="M 853.802619 329.188604 
L 853.802619 22.532791 
" clip-path="url(#p9853e39ee1)" style="fill: none; stroke: #000000; stroke-width: 1.5"/>
   </g>
   <g id="line2d_54">
    <g clip-path="url(#p9853e39ee1)">
     <use xlink:href="#m92a244ba6a" x="853.802619" y="329.188604" style="stroke: #000000"/>
    </g>
   </g>
   <g id="line2d_55">
    <g clip-path="url(#p9853e39ee1)">
     <use xlink:href="#m92a244ba6a" x="853.802619" y="22.532791" style="stroke: #000000"/>
    </g>
   </g>
   <g id="LineCollection_8">
    <path d="M 625.864603 222.601356 
L 625.864603 129.120039 
" clip-path="url(#p9853e39ee1)" style="fill: none; stroke: #696969; stroke-width: 1.5"/>
   </g>
   <g id="line2d_56">
    <g clip-path="url(#p9853e39ee1)">
     <use xlink:href="#m9ab515e4ab" x="625.864603" y="222.601356" style="fill: #696969; stroke: #696969"/>
    </g>
   </g>
   <g id="line2d_57">
    <g clip-path="url(#p9853e39ee1)">
     <use xlink:href="#m9ab515e4ab" x="625.864603" y="129.120039" style="fill: #696969; stroke: #696969"/>
    </g>
   </g>
   <g id="LineCollection_9">
    <path d="M 739.833611 316.082674 
L 739.833611 35.638721 
" clip-path="url(#p9853e39ee1)" style="fill: none; stroke: #708090; stroke-width: 1.5"/>
   </g>
   <g id="line2d_58">
    <g clip-path="url(#p9853e39ee1)">
     <use xlink:href="#m60078a3a4b" x="739.833611" y="316.082674" style="fill: #708090; stroke: #708090"/>
    </g>
   </g>
   <g id="line2d_59">
    <g clip-path="url(#p9853e39ee1)">
     <use xlink:href="#m60078a3a4b" x="739.833611" y="35.638721" style="fill: #708090; stroke: #708090"/>
    </g>
   </g>
   <g id="line2d_60">
    <g clip-path="url(#p9853e39ee1)">
     <use xlink:href="#mb675904526" x="853.802619" y="175.860697" style="stroke: #000000"/>
    </g>
   </g>
   <g id="line2d_61">
    <g clip-path="url(#p9853e39ee1)">
     <use xlink:href="#m15a338fcdb" x="625.864603" y="175.860697" style="fill: #696969; stroke: #696969"/>
    </g>
   </g>
   <g id="line2d_62">
    <g clip-path="url(#p9853e39ee1)">
     <use xlink:href="#mdd74a7bb1e" x="739.833611" y="175.860697" style="fill: #708090; stroke: #708090"/>
    </g>
   </g>
   <g id="patch_13">
    <path d="M 614.467703 344.521395 
L 614.467703 7.2 
" style="fill: none; stroke: #000000; stroke-width: 0.8; stroke-linejoin: miter; stroke-linecap: square"/>
   </g>
   <g id="patch_14">
    <path d="M 865.19952 344.521395 
L 865.19952 7.2 
" style="fill: none; stroke: #000000; stroke-width: 0.8; stroke-linejoin: miter; stroke-linecap: square"/>
   </g>
   <g id="patch_15">
    <path d="M 614.467703 344.521395 
L 865.19952 344.521395 
" style="fill: none; stroke: #000000; stroke-width: 0.8; stroke-linejoin: miter; stroke-linecap: square"/>
   </g>
   <g id="patch_16">
    <path d="M 614.467703 7.2 
L 865.19952 7.2 
" style="fill: none; stroke: #000000; stroke-width: 0.8; stroke-linejoin: miter; stroke-linecap: square"/>
   </g>
  </g>
 </g>
 <defs>
  <clipPath id="pb5502be8fa">
   <rect x="42.828125" y="7.2" width="250.731817" height="337.321395"/>
  </clipPath>
  <clipPath id="p83ab992c11">
   <rect x="334.83228" y="7.2" width="250.731817" height="337.321395"/>
  </clipPath>
  <clipPath id="p9853e39ee1">
   <rect x="614.467703" y="7.2" width="250.731817" height="337.321395"/>
  </clipPath>
 </defs>
</svg>
