<?xml version="1.0" encoding="utf-8" standalone="no"?>
<!DOCTYPE svg PUBLIC "-//W3C//DTD SVG 1.1//EN"
  "http://www.w3.org/Graphics/SVG/1.1/DTD/svg11.dtd">
<svg xmlns:xlink="http://www.w3.org/1999/xlink" width="380.482813pt" height="248.518125pt" viewBox="0 0 380.482813 248.518125" xmlns="http://www.w3.org/2000/svg" version="1.1">
 <metadata>
  <rdf:RDF xmlns:dc="http://purl.org/dc/elements/1.1/" xmlns:cc="http://creativecommons.org/ns#" xmlns:rdf="http://www.w3.org/1999/02/22-rdf-syntax-ns#">
   <cc:Work>
    <dc:type rdf:resource="http://purl.org/dc/dcmitype/StillImage"/>
    <dc:date>2021-11-28T20:46:31.626258</dc:date>
    <dc:format>image/svg+xml</dc:format>
    <dc:creator>
     <cc:Agent>
      <dc:title>Matplotlib v3.5.0, https://matplotlib.org/</dc:title>
     </cc:Agent>
    </dc:creator>
   </cc:Work>
  </rdf:RDF>
 </metadata>
 <defs>
  <style type="text/css">*{stroke-linejoin: round; stroke-linecap: butt}</style>
 </defs>
 <g id="figure_1">
  <g id="patch_1">
   <path d="M -0 248.518125 
L 380.482813 248.518125 
L 380.482813 0 
L -0 0 
L -0 248.518125 
z
" style="fill: none"/>
  </g>
  <g id="axes_1">
   <g id="patch_2">
    <path d="M 38.482813 224.64 
L 373.282813 224.64 
L 373.282813 7.2 
L 38.482813 7.2 
z
" style="fill: #ffffff"/>
   </g>
   <g id="matplotlib.axis_1">
    <g id="xtick_1">
     <g id="line2d_1">
      <path d="M 53.700994 224.64 
L 53.700994 7.2 
" clip-path="url(#pb65db87654)" style="fill: none; stroke: #b0b0b0; stroke-width: 0.8; stroke-linecap: square"/>
     </g>
     <g id="line2d_2">
      <defs>
       <path id="m96f6a04f5a" d="M 0 0 
L 0 3.5 
" style="stroke: #000000; stroke-width: 0.8"/>
      </defs>
      <g>
       <use xlink:href="#m96f6a04f5a" x="53.700994" y="224.64" style="stroke: #000000; stroke-width: 0.8"/>
      </g>
     </g>
     <g id="text_1">
      <!-- 0.0 -->
      <g transform="translate(45.749432 239.238437)scale(0.1 -0.1)">
       <defs>
        <path id="DejaVuSans-30" d="M 2034 4250 
Q 1547 4250 1301 3770 
Q 1056 3291 1056 2328 
Q 1056 1369 1301 889 
Q 1547 409 2034 409 
Q 2525 409 2770 889 
Q 3016 1369 3016 2328 
Q 3016 3291 2770 3770 
Q 2525 4250 2034 4250 
z
M 2034 4750 
Q 2819 4750 3233 4129 
Q 3647 3509 3647 2328 
Q 3647 1150 3233 529 
Q 2819 -91 2034 -91 
Q 1250 -91 836 529 
Q 422 1150 422 2328 
Q 422 3509 836 4129 
Q 1250 4750 2034 4750 
z
" transform="scale(0.015625)"/>
        <path id="DejaVuSans-2e" d="M 684 794 
L 1344 794 
L 1344 0 
L 684 0 
L 684 794 
z
" transform="scale(0.015625)"/>
       </defs>
       <use xlink:href="#DejaVuSans-30"/>
       <use xlink:href="#DejaVuSans-2e" x="63.623047"/>
       <use xlink:href="#DejaVuSans-30" x="95.410156"/>
      </g>
     </g>
    </g>
    <g id="xtick_2">
     <g id="line2d_3">
      <path d="M 91.746449 224.64 
L 91.746449 7.2 
" clip-path="url(#pb65db87654)" style="fill: none; stroke: #b0b0b0; stroke-width: 0.8; stroke-linecap: square"/>
     </g>
     <g id="line2d_4">
      <g>
       <use xlink:href="#m96f6a04f5a" x="91.746449" y="224.64" style="stroke: #000000; stroke-width: 0.8"/>
      </g>
     </g>
     <g id="text_2">
      <!-- 2.5 -->
      <g transform="translate(83.794886 239.238437)scale(0.1 -0.1)">
       <defs>
        <path id="DejaVuSans-32" d="M 1228 531 
L 3431 531 
L 3431 0 
L 469 0 
L 469 531 
Q 828 903 1448 1529 
Q 2069 2156 2228 2338 
Q 2531 2678 2651 2914 
Q 2772 3150 2772 3378 
Q 2772 3750 2511 3984 
Q 2250 4219 1831 4219 
Q 1534 4219 1204 4116 
Q 875 4013 500 3803 
L 500 4441 
Q 881 4594 1212 4672 
Q 1544 4750 1819 4750 
Q 2544 4750 2975 4387 
Q 3406 4025 3406 3419 
Q 3406 3131 3298 2873 
Q 3191 2616 2906 2266 
Q 2828 2175 2409 1742 
Q 1991 1309 1228 531 
z
" transform="scale(0.015625)"/>
        <path id="DejaVuSans-35" d="M 691 4666 
L 3169 4666 
L 3169 4134 
L 1269 4134 
L 1269 2991 
Q 1406 3038 1543 3061 
Q 1681 3084 1819 3084 
Q 2600 3084 3056 2656 
Q 3513 2228 3513 1497 
Q 3513 744 3044 326 
Q 2575 -91 1722 -91 
Q 1428 -91 1123 -41 
Q 819 9 494 109 
L 494 744 
Q 775 591 1075 516 
Q 1375 441 1709 441 
Q 2250 441 2565 725 
Q 2881 1009 2881 1497 
Q 2881 1984 2565 2268 
Q 2250 2553 1709 2553 
Q 1456 2553 1204 2497 
Q 953 2441 691 2322 
L 691 4666 
z
" transform="scale(0.015625)"/>
       </defs>
       <use xlink:href="#DejaVuSans-32"/>
       <use xlink:href="#DejaVuSans-2e" x="63.623047"/>
       <use xlink:href="#DejaVuSans-35" x="95.410156"/>
      </g>
     </g>
    </g>
    <g id="xtick_3">
     <g id="line2d_5">
      <path d="M 129.791903 224.64 
L 129.791903 7.2 
" clip-path="url(#pb65db87654)" style="fill: none; stroke: #b0b0b0; stroke-width: 0.8; stroke-linecap: square"/>
     </g>
     <g id="line2d_6">
      <g>
       <use xlink:href="#m96f6a04f5a" x="129.791903" y="224.64" style="stroke: #000000; stroke-width: 0.8"/>
      </g>
     </g>
     <g id="text_3">
      <!-- 5.0 -->
      <g transform="translate(121.840341 239.238437)scale(0.1 -0.1)">
       <use xlink:href="#DejaVuSans-35"/>
       <use xlink:href="#DejaVuSans-2e" x="63.623047"/>
       <use xlink:href="#DejaVuSans-30" x="95.410156"/>
      </g>
     </g>
    </g>
    <g id="xtick_4">
     <g id="line2d_7">
      <path d="M 167.837358 224.64 
L 167.837358 7.2 
" clip-path="url(#pb65db87654)" style="fill: none; stroke: #b0b0b0; stroke-width: 0.8; stroke-linecap: square"/>
     </g>
     <g id="line2d_8">
      <g>
       <use xlink:href="#m96f6a04f5a" x="167.837358" y="224.64" style="stroke: #000000; stroke-width: 0.8"/>
      </g>
     </g>
     <g id="text_4">
      <!-- 7.5 -->
      <g transform="translate(159.885795 239.238437)scale(0.1 -0.1)">
       <defs>
        <path id="DejaVuSans-37" d="M 525 4666 
L 3525 4666 
L 3525 4397 
L 1831 0 
L 1172 0 
L 2766 4134 
L 525 4134 
L 525 4666 
z
" transform="scale(0.015625)"/>
       </defs>
       <use xlink:href="#DejaVuSans-37"/>
       <use xlink:href="#DejaVuSans-2e" x="63.623047"/>
       <use xlink:href="#DejaVuSans-35" x="95.410156"/>
      </g>
     </g>
    </g>
    <g id="xtick_5">
     <g id="line2d_9">
      <path d="M 205.882812 224.64 
L 205.882812 7.2 
" clip-path="url(#pb65db87654)" style="fill: none; stroke: #b0b0b0; stroke-width: 0.8; stroke-linecap: square"/>
     </g>
     <g id="line2d_10">
      <g>
       <use xlink:href="#m96f6a04f5a" x="205.882812" y="224.64" style="stroke: #000000; stroke-width: 0.8"/>
      </g>
     </g>
     <g id="text_5">
      <!-- 10.0 -->
      <g transform="translate(194.75 239.238437)scale(0.1 -0.1)">
       <defs>
        <path id="DejaVuSans-31" d="M 794 531 
L 1825 531 
L 1825 4091 
L 703 3866 
L 703 4441 
L 1819 4666 
L 2450 4666 
L 2450 531 
L 3481 531 
L 3481 0 
L 794 0 
L 794 531 
z
" transform="scale(0.015625)"/>
       </defs>
       <use xlink:href="#DejaVuSans-31"/>
       <use xlink:href="#DejaVuSans-30" x="63.623047"/>
       <use xlink:href="#DejaVuSans-2e" x="127.246094"/>
       <use xlink:href="#DejaVuSans-30" x="159.033203"/>
      </g>
     </g>
    </g>
    <g id="xtick_6">
     <g id="line2d_11">
      <path d="M 243.928267 224.64 
L 243.928267 7.2 
" clip-path="url(#pb65db87654)" style="fill: none; stroke: #b0b0b0; stroke-width: 0.8; stroke-linecap: square"/>
     </g>
     <g id="line2d_12">
      <g>
       <use xlink:href="#m96f6a04f5a" x="243.928267" y="224.64" style="stroke: #000000; stroke-width: 0.8"/>
      </g>
     </g>
     <g id="text_6">
      <!-- 12.5 -->
      <g transform="translate(232.795455 239.238437)scale(0.1 -0.1)">
       <use xlink:href="#DejaVuSans-31"/>
       <use xlink:href="#DejaVuSans-32" x="63.623047"/>
       <use xlink:href="#DejaVuSans-2e" x="127.246094"/>
       <use xlink:href="#DejaVuSans-35" x="159.033203"/>
      </g>
     </g>
    </g>
    <g id="xtick_7">
     <g id="line2d_13">
      <path d="M 281.973722 224.64 
L 281.973722 7.2 
" clip-path="url(#pb65db87654)" style="fill: none; stroke: #b0b0b0; stroke-width: 0.8; stroke-linecap: square"/>
     </g>
     <g id="line2d_14">
      <g>
       <use xlink:href="#m96f6a04f5a" x="281.973722" y="224.64" style="stroke: #000000; stroke-width: 0.8"/>
      </g>
     </g>
     <g id="text_7">
      <!-- 15.0 -->
      <g transform="translate(270.840909 239.238437)scale(0.1 -0.1)">
       <use xlink:href="#DejaVuSans-31"/>
       <use xlink:href="#DejaVuSans-35" x="63.623047"/>
       <use xlink:href="#DejaVuSans-2e" x="127.246094"/>
       <use xlink:href="#DejaVuSans-30" x="159.033203"/>
      </g>
     </g>
    </g>
    <g id="xtick_8">
     <g id="line2d_15">
      <path d="M 320.019176 224.64 
L 320.019176 7.2 
" clip-path="url(#pb65db87654)" style="fill: none; stroke: #b0b0b0; stroke-width: 0.8; stroke-linecap: square"/>
     </g>
     <g id="line2d_16">
      <g>
       <use xlink:href="#m96f6a04f5a" x="320.019176" y="224.64" style="stroke: #000000; stroke-width: 0.8"/>
      </g>
     </g>
     <g id="text_8">
      <!-- 17.5 -->
      <g transform="translate(308.886364 239.238437)scale(0.1 -0.1)">
       <use xlink:href="#DejaVuSans-31"/>
       <use xlink:href="#DejaVuSans-37" x="63.623047"/>
       <use xlink:href="#DejaVuSans-2e" x="127.246094"/>
       <use xlink:href="#DejaVuSans-35" x="159.033203"/>
      </g>
     </g>
    </g>
    <g id="xtick_9">
     <g id="line2d_17">
      <path d="M 358.064631 224.64 
L 358.064631 7.2 
" clip-path="url(#pb65db87654)" style="fill: none; stroke: #b0b0b0; stroke-width: 0.8; stroke-linecap: square"/>
     </g>
     <g id="line2d_18">
      <g>
       <use xlink:href="#m96f6a04f5a" x="358.064631" y="224.64" style="stroke: #000000; stroke-width: 0.8"/>
      </g>
     </g>
     <g id="text_9">
      <!-- 20.0 -->
      <g transform="translate(346.931818 239.238437)scale(0.1 -0.1)">
       <use xlink:href="#DejaVuSans-32"/>
       <use xlink:href="#DejaVuSans-30" x="63.623047"/>
       <use xlink:href="#DejaVuSans-2e" x="127.246094"/>
       <use xlink:href="#DejaVuSans-30" x="159.033203"/>
      </g>
     </g>
    </g>
   </g>
   <g id="matplotlib.axis_2">
    <g id="ytick_1">
     <g id="line2d_19">
      <path d="M 38.482813 208.579791 
L 373.282813 208.579791 
" clip-path="url(#pb65db87654)" style="fill: none; stroke: #b0b0b0; stroke-width: 0.8; stroke-linecap: square"/>
     </g>
     <g id="line2d_20">
      <defs>
       <path id="mcc2b44ed04" d="M 0 0 
L -3.5 0 
" style="stroke: #000000; stroke-width: 0.8"/>
      </defs>
      <g>
       <use xlink:href="#mcc2b44ed04" x="38.482813" y="208.579791" style="stroke: #000000; stroke-width: 0.8"/>
      </g>
     </g>
     <g id="text_10">
      <!-- −0.6 -->
      <g transform="translate(7.2 212.37901)scale(0.1 -0.1)">
       <defs>
        <path id="DejaVuSans-2212" d="M 678 2272 
L 4684 2272 
L 4684 1741 
L 678 1741 
L 678 2272 
z
" transform="scale(0.015625)"/>
        <path id="DejaVuSans-36" d="M 2113 2584 
Q 1688 2584 1439 2293 
Q 1191 2003 1191 1497 
Q 1191 994 1439 701 
Q 1688 409 2113 409 
Q 2538 409 2786 701 
Q 3034 994 3034 1497 
Q 3034 2003 2786 2293 
Q 2538 2584 2113 2584 
z
M 3366 4563 
L 3366 3988 
Q 3128 4100 2886 4159 
Q 2644 4219 2406 4219 
Q 1781 4219 1451 3797 
Q 1122 3375 1075 2522 
Q 1259 2794 1537 2939 
Q 1816 3084 2150 3084 
Q 2853 3084 3261 2657 
Q 3669 2231 3669 1497 
Q 3669 778 3244 343 
Q 2819 -91 2113 -91 
Q 1303 -91 875 529 
Q 447 1150 447 2328 
Q 447 3434 972 4092 
Q 1497 4750 2381 4750 
Q 2619 4750 2861 4703 
Q 3103 4656 3366 4563 
z
" transform="scale(0.015625)"/>
       </defs>
       <use xlink:href="#DejaVuSans-2212"/>
       <use xlink:href="#DejaVuSans-30" x="83.789062"/>
       <use xlink:href="#DejaVuSans-2e" x="147.412109"/>
       <use xlink:href="#DejaVuSans-36" x="179.199219"/>
      </g>
     </g>
    </g>
    <g id="ytick_2">
     <g id="line2d_21">
      <path d="M 38.482813 177.693315 
L 373.282813 177.693315 
" clip-path="url(#pb65db87654)" style="fill: none; stroke: #b0b0b0; stroke-width: 0.8; stroke-linecap: square"/>
     </g>
     <g id="line2d_22">
      <g>
       <use xlink:href="#mcc2b44ed04" x="38.482813" y="177.693315" style="stroke: #000000; stroke-width: 0.8"/>
      </g>
     </g>
     <g id="text_11">
      <!-- −0.4 -->
      <g transform="translate(7.2 181.492533)scale(0.1 -0.1)">
       <defs>
        <path id="DejaVuSans-34" d="M 2419 4116 
L 825 1625 
L 2419 1625 
L 2419 4116 
z
M 2253 4666 
L 3047 4666 
L 3047 1625 
L 3713 1625 
L 3713 1100 
L 3047 1100 
L 3047 0 
L 2419 0 
L 2419 1100 
L 313 1100 
L 313 1709 
L 2253 4666 
z
" transform="scale(0.015625)"/>
       </defs>
       <use xlink:href="#DejaVuSans-2212"/>
       <use xlink:href="#DejaVuSans-30" x="83.789062"/>
       <use xlink:href="#DejaVuSans-2e" x="147.412109"/>
       <use xlink:href="#DejaVuSans-34" x="179.199219"/>
      </g>
     </g>
    </g>
    <g id="ytick_3">
     <g id="line2d_23">
      <path d="M 38.482813 146.806838 
L 373.282813 146.806838 
" clip-path="url(#pb65db87654)" style="fill: none; stroke: #b0b0b0; stroke-width: 0.8; stroke-linecap: square"/>
     </g>
     <g id="line2d_24">
      <g>
       <use xlink:href="#mcc2b44ed04" x="38.482813" y="146.806838" style="stroke: #000000; stroke-width: 0.8"/>
      </g>
     </g>
     <g id="text_12">
      <!-- −0.2 -->
      <g transform="translate(7.2 150.606057)scale(0.1 -0.1)">
       <use xlink:href="#DejaVuSans-2212"/>
       <use xlink:href="#DejaVuSans-30" x="83.789062"/>
       <use xlink:href="#DejaVuSans-2e" x="147.412109"/>
       <use xlink:href="#DejaVuSans-32" x="179.199219"/>
      </g>
     </g>
    </g>
    <g id="ytick_4">
     <g id="line2d_25">
      <path d="M 38.482813 115.920361 
L 373.282813 115.920361 
" clip-path="url(#pb65db87654)" style="fill: none; stroke: #b0b0b0; stroke-width: 0.8; stroke-linecap: square"/>
     </g>
     <g id="line2d_26">
      <g>
       <use xlink:href="#mcc2b44ed04" x="38.482813" y="115.920361" style="stroke: #000000; stroke-width: 0.8"/>
      </g>
     </g>
     <g id="text_13">
      <!-- 0.0 -->
      <g transform="translate(15.579688 119.71958)scale(0.1 -0.1)">
       <use xlink:href="#DejaVuSans-30"/>
       <use xlink:href="#DejaVuSans-2e" x="63.623047"/>
       <use xlink:href="#DejaVuSans-30" x="95.410156"/>
      </g>
     </g>
    </g>
    <g id="ytick_5">
     <g id="line2d_27">
      <path d="M 38.482813 85.033885 
L 373.282813 85.033885 
" clip-path="url(#pb65db87654)" style="fill: none; stroke: #b0b0b0; stroke-width: 0.8; stroke-linecap: square"/>
     </g>
     <g id="line2d_28">
      <g>
       <use xlink:href="#mcc2b44ed04" x="38.482813" y="85.033885" style="stroke: #000000; stroke-width: 0.8"/>
      </g>
     </g>
     <g id="text_14">
      <!-- 0.2 -->
      <g transform="translate(15.579688 88.833103)scale(0.1 -0.1)">
       <use xlink:href="#DejaVuSans-30"/>
       <use xlink:href="#DejaVuSans-2e" x="63.623047"/>
       <use xlink:href="#DejaVuSans-32" x="95.410156"/>
      </g>
     </g>
    </g>
    <g id="ytick_6">
     <g id="line2d_29">
      <path d="M 38.482813 54.147408 
L 373.282813 54.147408 
" clip-path="url(#pb65db87654)" style="fill: none; stroke: #b0b0b0; stroke-width: 0.8; stroke-linecap: square"/>
     </g>
     <g id="line2d_30">
      <g>
       <use xlink:href="#mcc2b44ed04" x="38.482813" y="54.147408" style="stroke: #000000; stroke-width: 0.8"/>
      </g>
     </g>
     <g id="text_15">
      <!-- 0.4 -->
      <g transform="translate(15.579688 57.946627)scale(0.1 -0.1)">
       <use xlink:href="#DejaVuSans-30"/>
       <use xlink:href="#DejaVuSans-2e" x="63.623047"/>
       <use xlink:href="#DejaVuSans-34" x="95.410156"/>
      </g>
     </g>
    </g>
    <g id="ytick_7">
     <g id="line2d_31">
      <path d="M 38.482813 23.260931 
L 373.282813 23.260931 
" clip-path="url(#pb65db87654)" style="fill: none; stroke: #b0b0b0; stroke-width: 0.8; stroke-linecap: square"/>
     </g>
     <g id="line2d_32">
      <g>
       <use xlink:href="#mcc2b44ed04" x="38.482813" y="23.260931" style="stroke: #000000; stroke-width: 0.8"/>
      </g>
     </g>
     <g id="text_16">
      <!-- 0.6 -->
      <g transform="translate(15.579688 27.06015)scale(0.1 -0.1)">
       <use xlink:href="#DejaVuSans-30"/>
       <use xlink:href="#DejaVuSans-2e" x="63.623047"/>
       <use xlink:href="#DejaVuSans-36" x="95.410156"/>
      </g>
     </g>
    </g>
   </g>
   <g id="line2d_33">
    <path d="M 53.700994 115.920361 
L 54.005663 111.554128 
L 55.224336 77.195513 
L 55.529004 76.388836 
L 55.833672 81.749622 
L 56.138341 93.231811 
L 56.747677 129.612272 
L 57.357014 168.952215 
L 57.661682 183.260412 
L 57.966351 191.046763 
L 58.271019 190.952702 
L 58.575687 182.543814 
L 58.880355 166.382281 
L 59.489692 117.624353 
L 60.403697 43.75262 
L 60.708365 30.138574 
L 61.013034 25.368775 
L 61.317702 30.145185 
L 61.62237 44.127254 
L 62.231707 93.402387 
L 63.145712 179.375021 
L 63.45038 198.968365 
L 63.755048 209.937246 
L 64.059717 211.04247 
L 64.364385 202.094545 
L 64.669053 183.979832 
L 65.27839 128.52835 
L 66.192395 42.785381 
L 66.497063 25.83546 
L 66.801731 18.362755 
L 67.1064 21.187003 
L 67.411068 34.035657 
L 68.020405 83.52779 
L 68.93441 174.917542 
L 69.239078 197.091681 
L 69.543746 210.701624 
L 69.848414 214.296047 
L 70.153083 207.483946 
L 70.457751 190.977158 
L 71.067088 136.684559 
L 71.981093 47.352465 
L 72.285761 28.181105 
L 72.590429 18.29133 
L 72.895098 18.73423 
L 73.199766 29.466611 
L 73.809102 76.296161 
L 75.027776 192.974435 
L 75.332444 208.752471 
L 75.637112 214.70135 
L 75.941781 210.189658 
L 76.246449 195.693979 
L 76.855785 143.782908 
L 77.76979 52.646633 
L 78.074459 31.61985 
L 78.379127 19.521128 
L 78.683795 17.632447 
L 78.988464 26.154322 
L 79.293132 44.184497 
L 79.902469 100.326734 
L 80.816473 188.337456 
L 81.121142 206.101439 
L 81.42581 214.313081 
L 81.730478 212.102385 
L 82.035147 199.70338 
L 82.644483 150.533723 
L 83.863156 35.531444 
L 84.167825 21.324013 
L 84.472493 17.137137 
L 84.777161 23.414382 
L 85.08183 39.490838 
L 85.691166 93.371903 
L 86.605171 183.335513 
L 86.90984 202.975278 
L 87.214508 213.393195 
L 87.519176 213.485664 
L 87.823844 203.242875 
L 88.128513 183.749853 
L 88.737849 126.033965 
L 89.651854 39.851783 
L 89.956523 23.615533 
L 90.261191 17.157337 
L 90.565859 21.16133 
L 90.870527 35.203363 
L 91.479864 86.545759 
L 92.393869 177.992781 
L 92.698537 199.404678 
L 93.003206 211.972875 
L 93.307874 214.36599 
L 93.612542 206.330515 
L 93.917211 188.717666 
L 94.526547 133.039851 
L 95.440552 44.559917 
L 95.74522 26.37912 
L 96.049889 17.683658 
L 96.354557 19.394663 
L 96.659225 31.330885 
L 97.268562 79.871999 
L 98.487235 195.407257 
L 98.791903 210.06096 
L 99.096572 214.742103 
L 99.40124 208.954801 
L 99.705908 193.312117 
L 100.315245 139.957356 
L 101.22925 49.633045 
L 101.533918 29.600953 
L 101.838586 18.712903 
L 102.143255 18.122295 
L 102.447923 27.891693 
L 102.752591 46.986199 
L 103.361928 104.28605 
L 104.275933 191.002971 
L 104.580601 207.667088 
L 104.88527 214.612233 
L 105.189938 211.102688 
L 105.494606 197.510229 
L 106.103943 146.751686 
L 107.017948 55.045527 
L 107.322616 33.264735 
L 107.627284 20.239872 
L 107.931953 17.350694 
L 108.236621 24.903261 
L 108.541289 42.09751 
L 109.150626 97.296901 
L 110.064631 186.214245 
L 110.369299 204.80344 
L 110.673967 213.977015 
L 110.978636 212.763191 
L 111.283304 201.290551 
L 111.892641 153.388132 
L 113.111314 37.351754 
L 113.415982 22.256774 
L 113.72065 17.083825 
L 114.025319 22.38089 
L 114.329987 37.586838 
L 114.939324 90.40312 
L 115.853328 181.065576 
L 116.157997 201.484659 
L 116.462665 212.839691 
L 116.767333 213.927803 
L 117.072002 204.633728 
L 117.37667 185.942012 
L 117.986007 129.071674 
L 118.900012 41.84109 
L 119.20468 24.753289 
L 119.509348 17.323057 
L 119.814016 20.337497 
L 120.118685 33.477281 
L 120.728021 83.640002 
L 121.642026 175.583325 
L 121.946695 197.727739 
L 122.251363 211.206081 
L 122.556031 214.590557 
L 122.860699 207.522638 
L 123.165368 190.751049 
L 123.774704 136.043224 
L 124.688709 46.709757 
L 124.993378 27.716635 
L 125.298046 18.067167 
L 125.602714 18.783545 
L 125.907383 29.789883 
L 126.516719 77.04218 
L 127.735392 193.551915 
L 128.040061 209.084551 
L 128.344729 214.74806 
L 128.649397 209.942489 
L 128.954066 195.176908 
L 129.563402 142.911732 
L 130.477407 51.932824 
L 130.782075 31.131638 
L 131.086744 19.312345 
L 131.391412 17.726994 
L 131.69608 26.543525 
L 132.000749 44.827979 
L 132.610085 101.255199 
L 133.52409 188.97857 
L 133.828758 206.485964 
L 134.133427 214.399504 
L 134.438095 211.88089 
L 134.742763 199.196924 
L 135.3521 149.642028 
L 136.266105 57.483546 
L 136.570773 34.98081 
L 136.875441 21.052215 
L 137.18011 17.173252 
L 137.484778 23.75483 
L 137.789446 40.099746 
L 138.398783 94.302913 
L 139.312788 184.031123 
L 139.617456 203.423625 
L 139.922125 213.546676 
L 140.226793 213.327915 
L 140.531461 202.790515 
L 141.140798 156.199649 
L 142.359471 39.244442 
L 142.664139 23.277867 
L 142.968808 17.125155 
L 143.273476 21.438079 
L 143.578144 35.759761 
L 144.187481 87.461322 
L 145.101486 178.734907 
L 145.406154 199.913217 
L 145.710822 212.193942 
L 146.015491 214.276154 
L 146.320159 205.939277 
L 146.624827 188.066459 
L 147.234164 132.095863 
L 148.148169 43.900701 
L 148.452837 25.977905 
L 148.757505 17.582949 
L 149.062174 19.605135 
L 149.366842 31.830247 
L 149.976179 80.765458 
L 151.194852 195.972714 
L 151.49952 210.348229 
L 151.804188 214.720751 
L 152.108857 208.627088 
L 152.413525 192.712756 
L 153.022862 139.027222 
L 153.936867 48.925745 
L 154.241535 29.138503 
L 154.546203 18.544291 
L 154.850871 18.265384 
L 155.15554 28.331325 
L 155.460208 47.675804 
L 156.069545 105.237705 
L 156.98355 191.622295 
L 157.288218 208.018988 
L 157.592886 214.659431 
L 157.897555 210.840184 
L 158.202223 196.96583 
L 158.811559 145.840259 
L 159.725564 54.293842 
L 160.030233 32.743476 
L 160.334901 20.004258 
L 160.639569 17.425685 
L 160.944238 25.280912 
L 161.248906 42.737815 
L 161.858242 98.238391 
L 162.772247 186.884236 
L 163.076916 205.218146 
L 163.381584 214.092506 
L 163.686252 212.567232 
L 163.990921 200.803901 
L 164.600257 152.500088 
L 165.81893 36.774366 
L 166.123599 21.955373 
L 166.428267 17.090338 
L 166.732935 22.694628 
L 167.037604 38.174566 
L 167.64694 91.329619 
L 168.560945 181.782798 
L 168.865613 201.960044 
L 169.170282 213.02288 
L 169.47495 213.799391 
L 169.779618 204.207317 
L 170.084287 185.262774 
L 170.693623 128.121801 
L 171.607628 41.210532 
L 171.912297 24.387646 
L 172.216965 17.261062 
L 172.521633 20.585717 
L 172.826301 34.009422 
L 173.435638 84.546767 
L 174.349643 176.344105 
L 174.654311 198.261368 
L 174.95898 211.456031 
L 175.263648 214.530349 
L 175.568316 207.158651 
L 175.872984 190.12184 
L 176.482321 135.104568 
L 177.396326 46.029257 
L 177.700994 27.288622 
L 178.005663 17.936981 
L 178.310331 18.964977 
L 178.614999 30.263712 
L 179.224336 77.924567 
L 180.443009 194.141055 
L 180.747677 209.399981 
L 181.052346 214.756364 
L 181.357014 209.642788 
L 181.661682 194.60095 
L 182.271019 141.989099 
L 183.185024 51.205867 
L 183.489692 30.643447 
L 183.79436 19.114634 
L 184.099029 17.840707 
L 184.403697 26.956616 
L 184.708365 45.49669 
L 185.317702 102.203057 
L 186.231707 189.620205 
L 186.536375 206.865258 
L 186.841043 214.476278 
L 187.145712 211.647011 
L 187.45038 198.677167 
L 188.059717 148.740143 
L 188.973722 56.713855 
L 189.27839 34.434941 
L 189.583058 20.787991 
L 189.887727 17.218665 
L 190.192395 24.105069 
L 190.497063 40.717709 
L 191.1064 95.23851 
L 192.020405 184.721968 
L 192.325073 203.864842 
L 192.629741 213.691527 
L 192.93441 213.161054 
L 193.239078 202.329619 
L 193.848414 155.32313 
L 195.067088 38.643689 
L 195.371756 22.948484 
L 195.676424 17.102035 
L 195.981093 21.723672 
L 196.285761 36.323812 
L 196.895098 88.379866 
L 197.809102 179.471424 
L 198.113771 200.414098 
L 198.418439 212.406128 
L 198.723107 214.177166 
L 199.027776 205.539603 
L 199.332444 187.408437 
L 199.941781 131.150246 
L 200.855785 43.248142 
L 201.160454 25.58505 
L 201.465122 17.491415 
L 201.76979 19.824618 
L 202.074459 32.337497 
L 202.683795 81.662247 
L 203.902469 196.530694 
L 204.207137 210.626663 
L 204.511805 214.690144 
L 204.816473 208.290682 
L 205.121142 192.106188 
L 205.730478 138.094907 
L 206.644483 48.22472 
L 206.949152 28.684187 
L 207.25382 18.384812 
L 207.558488 18.417634 
L 207.863156 28.779177 
L 208.167825 48.371815 
L 209.08183 138.29141 
L 209.691166 192.234516 
L 209.995835 208.362244 
L 210.300503 214.69736 
L 210.605171 210.568769 
L 210.90984 196.413822 
L 211.519176 144.926022 
L 212.433181 53.547941 
L 212.737849 32.230026 
L 213.042518 19.777649 
L 213.347186 17.509923 
L 213.651854 25.667073 
L 213.956523 43.384992 
L 214.565859 99.181541 
L 215.479864 187.547563 
L 215.784532 205.624467 
L 216.089201 214.198778 
L 216.393869 212.362198 
L 216.698537 200.30928 
L 217.307874 151.608609 
L 218.526547 36.204411 
L 218.831215 21.662796 
L 219.135884 17.106132 
L 219.440552 23.017121 
L 219.74522 38.769594 
L 220.354557 92.258428 
L 221.268562 182.493835 
L 221.57323 202.42735 
L 221.877898 213.196951 
L 222.182567 213.661787 
L 222.487235 203.772616 
L 222.791903 184.577024 
L 223.40124 127.170783 
L 224.315245 40.58699 
L 224.619913 24.030598 
L 224.924582 17.208331 
L 225.22925 20.84289 
L 225.533918 34.549255 
L 226.143255 85.456478 
L 227.05726 177.099211 
L 227.361928 198.787265 
L 227.666596 211.697009 
L 227.971265 214.46088 
L 228.275933 206.786095 
L 228.580601 189.485663 
L 229.189938 134.164111 
L 230.103943 45.355321 
L 230.408611 26.868932 
L 230.713279 17.815995 
L 231.017948 19.155513 
L 231.322616 30.745586 
L 231.931953 78.810522 
L 233.150626 194.722851 
L 233.455294 209.706632 
L 233.759962 214.755386 
L 234.064631 209.334286 
L 234.369299 194.017603 
L 234.978636 141.064019 
L 235.892641 50.484988 
L 236.197309 30.163263 
L 236.501977 18.926014 
L 236.806645 17.963631 
L 237.111314 27.378063 
L 237.415982 46.172013 
L 238.025319 103.152204 
L 238.939324 190.25492 
L 239.243992 207.236012 
L 239.54866 214.543797 
L 239.853328 211.404141 
L 240.157997 198.149637 
L 240.767333 147.835177 
L 241.681338 55.949724 
L 241.986007 33.896723 
L 242.290675 20.532702 
L 242.595343 17.273347 
L 242.900012 24.46393 
L 243.20468 41.342734 
L 243.814016 96.176049 
L 244.728021 185.406351 
L 245.03269 204.297801 
L 245.337358 213.827196 
L 245.642026 212.985062 
L 245.946695 201.860608 
L 246.556031 154.442911 
L 247.774704 38.050194 
L 248.079373 22.627833 
L 248.384041 17.088195 
L 248.688709 22.018109 
L 248.993378 36.895337 
L 249.602714 89.300997 
L 250.516719 180.201972 
L 250.821387 200.907044 
L 251.126056 212.609252 
L 251.430724 214.068952 
L 251.735392 205.131512 
L 252.040061 186.743701 
L 252.649397 130.203198 
L 253.563402 42.602407 
L 253.86807 25.200678 
L 254.172739 17.409125 
L 254.477407 20.053126 
L 254.782075 32.852596 
L 255.391412 82.562253 
L 256.305417 174.668432 
L 256.610085 197.081103 
L 256.914754 210.896203 
L 257.219422 214.650261 
L 257.52409 207.945602 
L 257.828758 191.492466 
L 258.438095 137.160511 
L 259.3521 47.530052 
L 259.656768 28.238063 
L 259.961437 18.234491 
L 260.266105 18.579041 
L 260.570773 29.235212 
L 261.18011 75.994322 
L 262.398783 192.83957 
L 262.703451 208.696819 
L 263.00812 214.726014 
L 263.312788 210.288465 
L 263.617456 195.854255 
L 264.226793 144.009061 
L 265.140798 52.807898 
L 265.445466 31.724435 
L 265.750134 19.560069 
L 266.054803 17.603402 
L 266.359471 26.06171 
L 266.664139 44.038981 
L 267.273476 100.126263 
L 268.187481 188.204164 
L 268.492149 206.022364 
L 268.796817 214.295822 
L 269.101486 212.148107 
L 269.406154 199.806735 
L 270.015491 150.713779 
L 271.234164 35.641941 
L 271.538832 21.37907 
L 271.8435 17.131206 
L 272.148169 23.348338 
L 272.452837 39.371868 
L 273.062174 93.189458 
L 273.976179 183.198621 
L 274.280847 202.886532 
L 274.585515 213.361887 
L 274.890184 213.515005 
L 275.194852 203.329665 
L 275.49952 183.884827 
L 276.108857 126.218708 
L 277.022862 39.970522 
L 277.32753 23.682179 
L 277.632198 17.16487 
L 277.936867 21.108991 
L 278.241535 35.09673 
L 278.850871 86.36905 
L 279.764876 177.848572 
L 280.069545 199.30538 
L 280.374213 211.928993 
L 280.678881 214.382158 
L 280.98355 206.405007 
L 281.288218 188.842578 
L 281.897555 133.22194 
L 282.811559 44.688011 
L 283.116228 26.457604 
L 283.420896 17.704223 
L 283.725564 19.355136 
L 284.030233 31.235457 
L 284.639569 79.699961 
L 285.858242 195.297246 
L 286.162911 210.004476 
L 286.467579 214.745128 
L 286.772247 209.017012 
L 287.076916 193.426922 
L 287.686252 140.136577 
L 288.600257 49.770254 
L 288.904926 29.691133 
L 289.209594 18.746502 
L 289.514262 18.095753 
L 289.81893 27.807823 
L 290.123599 46.853887 
L 290.732935 104.102549 
L 291.64694 190.882654 
L 291.951609 207.598191 
L 292.256277 214.602054 
L 292.560945 211.152306 
L 292.865613 197.614386 
L 293.47495 146.927213 
L 294.388955 55.191225 
L 294.693623 33.366208 
L 294.998292 20.28637 
L 295.30296 17.337292 
L 295.607628 24.831379 
L 295.912297 41.974761 
L 296.521633 97.115442 
L 297.435638 186.08421 
L 297.740306 204.722461 
L 298.044975 213.953671 
L 298.349643 212.799954 
L 298.654311 201.383527 
L 299.263648 153.559074 
L 300.482321 37.46401 
L 300.786989 22.315942 
L 301.091658 17.083636 
L 301.396326 22.321365 
L 301.700994 37.474283 
L 302.310331 90.224628 
L 303.224336 180.926484 
L 303.529004 201.392009 
L 303.833672 212.803297 
L 304.138341 213.95152 
L 304.443009 204.715045 
L 304.747677 186.072314 
L 305.357014 129.254809 
L 306.271019 41.963557 
L 306.575687 24.824826 
L 306.880355 17.336085 
L 307.185024 20.290636 
L 307.489692 33.375496 
L 308.099029 83.465391 
L 309.013034 175.435888 
L 309.317702 197.623891 
L 309.62237 211.156824 
L 309.927039 214.601107 
L 310.231707 207.59188 
L 310.536375 190.871646 
L 311.145712 136.224119 
L 312.059717 46.841807 
L 312.364385 27.800174 
L 312.669053 18.093344 
L 312.973722 18.749588 
L 313.27839 29.699388 
L 313.887727 76.872344 
L 315.1064 193.437401 
L 315.411068 209.022682 
L 315.715736 214.745389 
L 316.020405 209.999301 
L 316.325073 195.287182 
L 316.93441 143.089462 
L 317.848414 52.073781 
L 318.153083 31.226751 
L 318.457751 19.351537 
L 318.762419 17.706114 
L 319.067088 26.464785 
L 319.371756 44.69972 
L 319.981093 101.072469 
L 320.895098 188.853977 
L 321.199766 206.4118 
L 321.504434 214.383627 
L 321.809102 211.92498 
L 322.113771 199.296312 
L 322.723107 149.815682 
L 323.637112 57.632689 
L 323.941781 35.08701 
L 324.246449 21.104222 
L 324.551117 17.165556 
L 324.855785 23.688248 
L 325.160454 39.98133 
L 325.76979 94.122624 
L 326.683795 183.897088 
L 326.988464 203.337547 
L 327.293132 213.517672 
L 327.5978 213.359058 
L 327.902469 202.878506 
L 328.511805 156.368338 
L 329.730478 39.361186 
L 330.035147 23.342422 
L 330.339815 17.130683 
L 330.644483 21.383996 
L 330.949152 35.651794 
L 331.558488 87.284396 
L 332.472493 178.592117 
L 332.777161 199.815664 
L 333.08183 212.151961 
L 333.386498 214.29419 
L 333.691166 206.015421 
L 333.995835 188.192645 
L 334.605171 132.278145 
L 335.519176 44.027391 
L 335.823844 26.054678 
L 336.128513 17.601674 
L 336.433181 19.563827 
L 336.737849 31.733282 
L 337.347186 80.592802 
L 338.565859 195.864187 
L 338.870527 210.293485 
L 339.175196 214.725589 
L 339.479864 208.690995 
L 339.784532 192.828964 
L 340.393869 139.206862 
L 341.307874 49.061732 
L 341.612542 29.227101 
L 341.917211 18.576115 
L 342.221879 18.237062 
L 342.526547 28.245859 
L 342.831215 47.542246 
L 343.440552 105.054005 
L 344.354557 191.503349 
L 344.659225 207.951761 
L 344.963894 214.651045 
L 345.268562 210.891527 
L 345.57323 197.071464 
L 346.182567 146.016337 
L 347.096572 54.438429 
L 347.40124 32.843445 
L 347.705908 20.049019 
L 348.010577 17.410495 
L 348.315245 25.207382 
L 348.619913 42.613733 
L 349.22925 98.056602 
L 350.143255 186.75548 
L 350.447923 205.138781 
L 350.752591 214.07094 
L 351.05726 212.605749 
L 351.361928 200.898421 
L 351.971265 152.671703 
L 353.189938 36.885195 
L 353.494606 22.012841 
L 353.799274 17.088359 
L 354.103943 22.633411 
L 354.408611 38.060595 
L 355.017948 91.150672 
L 355.931953 181.644892 
L 356.236621 201.868948 
L 356.541289 212.988244 
L 356.845957 213.824883 
L 357.150626 204.290239 
L 357.455294 185.39434 
L 358.064631 128.305168 
L 358.064631 128.305168 
" clip-path="url(#pb65db87654)" style="fill: none; stroke: #000000; stroke-width: 1.5; stroke-linecap: square"/>
   </g>
   <g id="patch_3">
    <path d="M 38.482813 224.64 
L 38.482813 7.2 
" style="fill: none; stroke: #000000; stroke-width: 0.8; stroke-linejoin: miter; stroke-linecap: square"/>
   </g>
   <g id="patch_4">
    <path d="M 373.282813 224.64 
L 373.282813 7.2 
" style="fill: none; stroke: #000000; stroke-width: 0.8; stroke-linejoin: miter; stroke-linecap: square"/>
   </g>
   <g id="patch_5">
    <path d="M 38.482813 224.64 
L 373.282813 224.64 
" style="fill: none; stroke: #000000; stroke-width: 0.8; stroke-linejoin: miter; stroke-linecap: square"/>
   </g>
   <g id="patch_6">
    <path d="M 38.482813 7.2 
L 373.282813 7.2 
" style="fill: none; stroke: #000000; stroke-width: 0.8; stroke-linejoin: miter; stroke-linecap: square"/>
   </g>
  </g>
 </g>
 <defs>
  <clipPath id="pb65db87654">
   <rect x="38.482813" y="7.2" width="334.8" height="217.44"/>
  </clipPath>
 </defs>
</svg>
