<?xml version="1.0" encoding="utf-8" standalone="no"?>
<!DOCTYPE svg PUBLIC "-//W3C//DTD SVG 1.1//EN"
  "http://www.w3.org/Graphics/SVG/1.1/DTD/svg11.dtd">
<svg xmlns:xlink="http://www.w3.org/1999/xlink" width="378.465625pt" height="248.518125pt" viewBox="0 0 378.465625 248.518125" xmlns="http://www.w3.org/2000/svg" version="1.1">
 <metadata>
  <rdf:RDF xmlns:dc="http://purl.org/dc/elements/1.1/" xmlns:cc="http://creativecommons.org/ns#" xmlns:rdf="http://www.w3.org/1999/02/22-rdf-syntax-ns#">
   <cc:Work>
    <dc:type rdf:resource="http://purl.org/dc/dcmitype/StillImage"/>
    <dc:date>2021-12-03T14:37:09.299743</dc:date>
    <dc:format>image/svg+xml</dc:format>
    <dc:creator>
     <cc:Agent>
      <dc:title>Matplotlib v3.5.0, https://matplotlib.org/</dc:title>
     </cc:Agent>
    </dc:creator>
   </cc:Work>
  </rdf:RDF>
 </metadata>
 <defs>
  <style type="text/css">*{stroke-linejoin: round; stroke-linecap: butt}</style>
 </defs>
 <g id="figure_1">
  <g id="patch_1">
   <path d="M 0 248.518125 
L 378.465625 248.518125 
L 378.465625 0 
L 0 0 
L 0 248.518125 
z
" style="fill: none"/>
  </g>
  <g id="axes_1">
   <g id="patch_2">
    <path d="M 36.465625 224.64 
L 371.265625 224.64 
L 371.265625 7.2 
L 36.465625 7.2 
z
" style="fill: #ffffff"/>
   </g>
   <g id="patch_3">
    <path d="M 51.683807 224.64 
L 56.756534 224.64 
L 56.756534 208.71033 
L 51.683807 208.71033 
z
" clip-path="url(#p189eb5471e)" style="fill: #808080; stroke: #000000; stroke-linejoin: miter"/>
   </g>
   <g id="patch_4">
    <path d="M 56.756534 224.64 
L 61.829261 224.64 
L 61.829261 224.64 
L 56.756534 224.64 
z
" clip-path="url(#p189eb5471e)" style="fill: #808080; stroke: #000000; stroke-linejoin: miter"/>
   </g>
   <g id="patch_5">
    <path d="M 61.829261 224.64 
L 66.901989 224.64 
L 66.901989 224.64 
L 61.829261 224.64 
z
" clip-path="url(#p189eb5471e)" style="fill: #808080; stroke: #000000; stroke-linejoin: miter"/>
   </g>
   <g id="patch_6">
    <path d="M 66.901989 224.64 
L 71.974716 224.64 
L 71.974716 224.64 
L 66.901989 224.64 
z
" clip-path="url(#p189eb5471e)" style="fill: #808080; stroke: #000000; stroke-linejoin: miter"/>
   </g>
   <g id="patch_7">
    <path d="M 71.974716 224.64 
L 77.047443 224.64 
L 77.047443 224.64 
L 71.974716 224.64 
z
" clip-path="url(#p189eb5471e)" style="fill: #808080; stroke: #000000; stroke-linejoin: miter"/>
   </g>
   <g id="patch_8">
    <path d="M 77.047443 224.64 
L 82.12017 224.64 
L 82.12017 224.64 
L 77.047443 224.64 
z
" clip-path="url(#p189eb5471e)" style="fill: #808080; stroke: #000000; stroke-linejoin: miter"/>
   </g>
   <g id="patch_9">
    <path d="M 82.12017 224.64 
L 87.192898 224.64 
L 87.192898 176.850989 
L 82.12017 176.850989 
z
" clip-path="url(#p189eb5471e)" style="fill: #808080; stroke: #000000; stroke-linejoin: miter"/>
   </g>
   <g id="patch_10">
    <path d="M 87.192898 224.64 
L 92.265625 224.64 
L 92.265625 224.64 
L 87.192898 224.64 
z
" clip-path="url(#p189eb5471e)" style="fill: #808080; stroke: #000000; stroke-linejoin: miter"/>
   </g>
   <g id="patch_11">
    <path d="M 92.265625 224.64 
L 97.338352 224.64 
L 97.338352 224.64 
L 92.265625 224.64 
z
" clip-path="url(#p189eb5471e)" style="fill: #808080; stroke: #000000; stroke-linejoin: miter"/>
   </g>
   <g id="patch_12">
    <path d="M 97.338352 224.64 
L 102.41108 224.64 
L 102.41108 224.64 
L 97.338352 224.64 
z
" clip-path="url(#p189eb5471e)" style="fill: #808080; stroke: #000000; stroke-linejoin: miter"/>
   </g>
   <g id="patch_13">
    <path d="M 102.41108 224.64 
L 107.483807 224.64 
L 107.483807 224.64 
L 102.41108 224.64 
z
" clip-path="url(#p189eb5471e)" style="fill: #808080; stroke: #000000; stroke-linejoin: miter"/>
   </g>
   <g id="patch_14">
    <path d="M 107.483807 224.64 
L 112.556534 224.64 
L 112.556534 224.64 
L 107.483807 224.64 
z
" clip-path="url(#p189eb5471e)" style="fill: #808080; stroke: #000000; stroke-linejoin: miter"/>
   </g>
   <g id="patch_15">
    <path d="M 112.556534 224.64 
L 117.629261 224.64 
L 117.629261 224.64 
L 112.556534 224.64 
z
" clip-path="url(#p189eb5471e)" style="fill: #808080; stroke: #000000; stroke-linejoin: miter"/>
   </g>
   <g id="patch_16">
    <path d="M 117.629261 224.64 
L 122.701989 224.64 
L 122.701989 144.991648 
L 117.629261 144.991648 
z
" clip-path="url(#p189eb5471e)" style="fill: #808080; stroke: #000000; stroke-linejoin: miter"/>
   </g>
   <g id="patch_17">
    <path d="M 122.701989 224.64 
L 127.774716 224.64 
L 127.774716 224.64 
L 122.701989 224.64 
z
" clip-path="url(#p189eb5471e)" style="fill: #808080; stroke: #000000; stroke-linejoin: miter"/>
   </g>
   <g id="patch_18">
    <path d="M 127.774716 224.64 
L 132.847443 224.64 
L 132.847443 224.64 
L 127.774716 224.64 
z
" clip-path="url(#p189eb5471e)" style="fill: #808080; stroke: #000000; stroke-linejoin: miter"/>
   </g>
   <g id="patch_19">
    <path d="M 132.847443 224.64 
L 137.92017 224.64 
L 137.92017 224.64 
L 132.847443 224.64 
z
" clip-path="url(#p189eb5471e)" style="fill: #808080; stroke: #000000; stroke-linejoin: miter"/>
   </g>
   <g id="patch_20">
    <path d="M 137.92017 224.64 
L 142.992898 224.64 
L 142.992898 224.64 
L 137.92017 224.64 
z
" clip-path="url(#p189eb5471e)" style="fill: #808080; stroke: #000000; stroke-linejoin: miter"/>
   </g>
   <g id="patch_21">
    <path d="M 142.992898 224.64 
L 148.065625 224.64 
L 148.065625 224.64 
L 142.992898 224.64 
z
" clip-path="url(#p189eb5471e)" style="fill: #808080; stroke: #000000; stroke-linejoin: miter"/>
   </g>
   <g id="patch_22">
    <path d="M 148.065625 224.64 
L 153.138352 224.64 
L 153.138352 224.64 
L 148.065625 224.64 
z
" clip-path="url(#p189eb5471e)" style="fill: #808080; stroke: #000000; stroke-linejoin: miter"/>
   </g>
   <g id="patch_23">
    <path d="M 153.138352 224.64 
L 158.21108 224.64 
L 158.21108 81.272967 
L 153.138352 81.272967 
z
" clip-path="url(#p189eb5471e)" style="fill: #808080; stroke: #000000; stroke-linejoin: miter"/>
   </g>
   <g id="patch_24">
    <path d="M 158.21108 224.64 
L 163.283807 224.64 
L 163.283807 224.64 
L 158.21108 224.64 
z
" clip-path="url(#p189eb5471e)" style="fill: #808080; stroke: #000000; stroke-linejoin: miter"/>
   </g>
   <g id="patch_25">
    <path d="M 163.283807 224.64 
L 168.356534 224.64 
L 168.356534 224.64 
L 163.283807 224.64 
z
" clip-path="url(#p189eb5471e)" style="fill: #808080; stroke: #000000; stroke-linejoin: miter"/>
   </g>
   <g id="patch_26">
    <path d="M 168.356534 224.64 
L 173.429261 224.64 
L 173.429261 224.64 
L 168.356534 224.64 
z
" clip-path="url(#p189eb5471e)" style="fill: #808080; stroke: #000000; stroke-linejoin: miter"/>
   </g>
   <g id="patch_27">
    <path d="M 173.429261 224.64 
L 178.501989 224.64 
L 178.501989 224.64 
L 173.429261 224.64 
z
" clip-path="url(#p189eb5471e)" style="fill: #808080; stroke: #000000; stroke-linejoin: miter"/>
   </g>
   <g id="patch_28">
    <path d="M 178.501989 224.64 
L 183.574716 224.64 
L 183.574716 224.64 
L 178.501989 224.64 
z
" clip-path="url(#p189eb5471e)" style="fill: #808080; stroke: #000000; stroke-linejoin: miter"/>
   </g>
   <g id="patch_29">
    <path d="M 183.574716 224.64 
L 188.647443 224.64 
L 188.647443 97.202637 
L 183.574716 97.202637 
z
" clip-path="url(#p189eb5471e)" style="fill: #808080; stroke: #000000; stroke-linejoin: miter"/>
   </g>
   <g id="patch_30">
    <path d="M 188.647443 224.64 
L 193.72017 224.64 
L 193.72017 224.64 
L 188.647443 224.64 
z
" clip-path="url(#p189eb5471e)" style="fill: #808080; stroke: #000000; stroke-linejoin: miter"/>
   </g>
   <g id="patch_31">
    <path d="M 193.72017 224.64 
L 198.792898 224.64 
L 198.792898 224.64 
L 193.72017 224.64 
z
" clip-path="url(#p189eb5471e)" style="fill: #808080; stroke: #000000; stroke-linejoin: miter"/>
   </g>
   <g id="patch_32">
    <path d="M 198.792898 224.64 
L 203.865625 224.64 
L 203.865625 224.64 
L 198.792898 224.64 
z
" clip-path="url(#p189eb5471e)" style="fill: #808080; stroke: #000000; stroke-linejoin: miter"/>
   </g>
   <g id="patch_33">
    <path d="M 203.865625 224.64 
L 208.938352 224.64 
L 208.938352 224.64 
L 203.865625 224.64 
z
" clip-path="url(#p189eb5471e)" style="fill: #808080; stroke: #000000; stroke-linejoin: miter"/>
   </g>
   <g id="patch_34">
    <path d="M 208.938352 224.64 
L 214.01108 224.64 
L 214.01108 224.64 
L 208.938352 224.64 
z
" clip-path="url(#p189eb5471e)" style="fill: #808080; stroke: #000000; stroke-linejoin: miter"/>
   </g>
   <g id="patch_35">
    <path d="M 214.01108 224.64 
L 219.083807 224.64 
L 219.083807 224.64 
L 214.01108 224.64 
z
" clip-path="url(#p189eb5471e)" style="fill: #808080; stroke: #000000; stroke-linejoin: miter"/>
   </g>
   <g id="patch_36">
    <path d="M 219.083807 224.64 
L 224.156534 224.64 
L 224.156534 17.554286 
L 219.083807 17.554286 
z
" clip-path="url(#p189eb5471e)" style="fill: #808080; stroke: #000000; stroke-linejoin: miter"/>
   </g>
   <g id="patch_37">
    <path d="M 224.156534 224.64 
L 229.229261 224.64 
L 229.229261 224.64 
L 224.156534 224.64 
z
" clip-path="url(#p189eb5471e)" style="fill: #808080; stroke: #000000; stroke-linejoin: miter"/>
   </g>
   <g id="patch_38">
    <path d="M 229.229261 224.64 
L 234.301989 224.64 
L 234.301989 224.64 
L 229.229261 224.64 
z
" clip-path="url(#p189eb5471e)" style="fill: #808080; stroke: #000000; stroke-linejoin: miter"/>
   </g>
   <g id="patch_39">
    <path d="M 234.301989 224.64 
L 239.374716 224.64 
L 239.374716 224.64 
L 234.301989 224.64 
z
" clip-path="url(#p189eb5471e)" style="fill: #808080; stroke: #000000; stroke-linejoin: miter"/>
   </g>
   <g id="patch_40">
    <path d="M 239.374716 224.64 
L 244.447443 224.64 
L 244.447443 224.64 
L 239.374716 224.64 
z
" clip-path="url(#p189eb5471e)" style="fill: #808080; stroke: #000000; stroke-linejoin: miter"/>
   </g>
   <g id="patch_41">
    <path d="M 244.447443 224.64 
L 249.52017 224.64 
L 249.52017 224.64 
L 244.447443 224.64 
z
" clip-path="url(#p189eb5471e)" style="fill: #808080; stroke: #000000; stroke-linejoin: miter"/>
   </g>
   <g id="patch_42">
    <path d="M 249.52017 224.64 
L 254.592898 224.64 
L 254.592898 224.64 
L 249.52017 224.64 
z
" clip-path="url(#p189eb5471e)" style="fill: #808080; stroke: #000000; stroke-linejoin: miter"/>
   </g>
   <g id="patch_43">
    <path d="M 254.592898 224.64 
L 259.665625 224.64 
L 259.665625 97.202637 
L 254.592898 97.202637 
z
" clip-path="url(#p189eb5471e)" style="fill: #808080; stroke: #000000; stroke-linejoin: miter"/>
   </g>
   <g id="patch_44">
    <path d="M 259.665625 224.64 
L 264.738352 224.64 
L 264.738352 224.64 
L 259.665625 224.64 
z
" clip-path="url(#p189eb5471e)" style="fill: #808080; stroke: #000000; stroke-linejoin: miter"/>
   </g>
   <g id="patch_45">
    <path d="M 264.738352 224.64 
L 269.81108 224.64 
L 269.81108 224.64 
L 264.738352 224.64 
z
" clip-path="url(#p189eb5471e)" style="fill: #808080; stroke: #000000; stroke-linejoin: miter"/>
   </g>
   <g id="patch_46">
    <path d="M 269.81108 224.64 
L 274.883807 224.64 
L 274.883807 224.64 
L 269.81108 224.64 
z
" clip-path="url(#p189eb5471e)" style="fill: #808080; stroke: #000000; stroke-linejoin: miter"/>
   </g>
   <g id="patch_47">
    <path d="M 274.883807 224.64 
L 279.956534 224.64 
L 279.956534 224.64 
L 274.883807 224.64 
z
" clip-path="url(#p189eb5471e)" style="fill: #808080; stroke: #000000; stroke-linejoin: miter"/>
   </g>
   <g id="patch_48">
    <path d="M 279.956534 224.64 
L 285.029261 224.64 
L 285.029261 224.64 
L 279.956534 224.64 
z
" clip-path="url(#p189eb5471e)" style="fill: #808080; stroke: #000000; stroke-linejoin: miter"/>
   </g>
   <g id="patch_49">
    <path d="M 285.029261 224.64 
L 290.101989 224.64 
L 290.101989 144.991648 
L 285.029261 144.991648 
z
" clip-path="url(#p189eb5471e)" style="fill: #808080; stroke: #000000; stroke-linejoin: miter"/>
   </g>
   <g id="patch_50">
    <path d="M 290.101989 224.64 
L 295.174716 224.64 
L 295.174716 224.64 
L 290.101989 224.64 
z
" clip-path="url(#p189eb5471e)" style="fill: #808080; stroke: #000000; stroke-linejoin: miter"/>
   </g>
   <g id="patch_51">
    <path d="M 295.174716 224.64 
L 300.247443 224.64 
L 300.247443 224.64 
L 295.174716 224.64 
z
" clip-path="url(#p189eb5471e)" style="fill: #808080; stroke: #000000; stroke-linejoin: miter"/>
   </g>
   <g id="patch_52">
    <path d="M 300.247443 224.64 
L 305.32017 224.64 
L 305.32017 224.64 
L 300.247443 224.64 
z
" clip-path="url(#p189eb5471e)" style="fill: #808080; stroke: #000000; stroke-linejoin: miter"/>
   </g>
   <g id="patch_53">
    <path d="M 305.32017 224.64 
L 310.392898 224.64 
L 310.392898 224.64 
L 305.32017 224.64 
z
" clip-path="url(#p189eb5471e)" style="fill: #808080; stroke: #000000; stroke-linejoin: miter"/>
   </g>
   <g id="patch_54">
    <path d="M 310.392898 224.64 
L 315.465625 224.64 
L 315.465625 224.64 
L 310.392898 224.64 
z
" clip-path="url(#p189eb5471e)" style="fill: #808080; stroke: #000000; stroke-linejoin: miter"/>
   </g>
   <g id="patch_55">
    <path d="M 315.465625 224.64 
L 320.538352 224.64 
L 320.538352 224.64 
L 315.465625 224.64 
z
" clip-path="url(#p189eb5471e)" style="fill: #808080; stroke: #000000; stroke-linejoin: miter"/>
   </g>
   <g id="patch_56">
    <path d="M 320.538352 224.64 
L 325.61108 224.64 
L 325.61108 192.780659 
L 320.538352 192.780659 
z
" clip-path="url(#p189eb5471e)" style="fill: #808080; stroke: #000000; stroke-linejoin: miter"/>
   </g>
   <g id="patch_57">
    <path d="M 325.61108 224.64 
L 330.683807 224.64 
L 330.683807 224.64 
L 325.61108 224.64 
z
" clip-path="url(#p189eb5471e)" style="fill: #808080; stroke: #000000; stroke-linejoin: miter"/>
   </g>
   <g id="patch_58">
    <path d="M 330.683807 224.64 
L 335.756534 224.64 
L 335.756534 224.64 
L 330.683807 224.64 
z
" clip-path="url(#p189eb5471e)" style="fill: #808080; stroke: #000000; stroke-linejoin: miter"/>
   </g>
   <g id="patch_59">
    <path d="M 335.756534 224.64 
L 340.829261 224.64 
L 340.829261 224.64 
L 335.756534 224.64 
z
" clip-path="url(#p189eb5471e)" style="fill: #808080; stroke: #000000; stroke-linejoin: miter"/>
   </g>
   <g id="patch_60">
    <path d="M 340.829261 224.64 
L 345.901989 224.64 
L 345.901989 224.64 
L 340.829261 224.64 
z
" clip-path="url(#p189eb5471e)" style="fill: #808080; stroke: #000000; stroke-linejoin: miter"/>
   </g>
   <g id="patch_61">
    <path d="M 345.901989 224.64 
L 350.974716 224.64 
L 350.974716 224.64 
L 345.901989 224.64 
z
" clip-path="url(#p189eb5471e)" style="fill: #808080; stroke: #000000; stroke-linejoin: miter"/>
   </g>
   <g id="patch_62">
    <path d="M 350.974716 224.64 
L 356.047443 224.64 
L 356.047443 129.061978 
L 350.974716 129.061978 
z
" clip-path="url(#p189eb5471e)" style="fill: #808080; stroke: #000000; stroke-linejoin: miter"/>
   </g>
   <g id="matplotlib.axis_1">
    <g id="xtick_1">
     <g id="line2d_1">
      <defs>
       <path id="m8bf33f0d93" d="M 0 0 
L 0 3.5 
" style="stroke: #000000; stroke-width: 0.8"/>
      </defs>
      <g>
       <use xlink:href="#m8bf33f0d93" x="51.683807" y="224.64" style="stroke: #000000; stroke-width: 0.8"/>
      </g>
     </g>
     <g id="text_1">
      <!-- 0 -->
      <g transform="translate(48.502557 239.238437)scale(0.1 -0.1)">
       <defs>
        <path id="DejaVuSans-30" d="M 2034 4250 
Q 1547 4250 1301 3770 
Q 1056 3291 1056 2328 
Q 1056 1369 1301 889 
Q 1547 409 2034 409 
Q 2525 409 2770 889 
Q 3016 1369 3016 2328 
Q 3016 3291 2770 3770 
Q 2525 4250 2034 4250 
z
M 2034 4750 
Q 2819 4750 3233 4129 
Q 3647 3509 3647 2328 
Q 3647 1150 3233 529 
Q 2819 -91 2034 -91 
Q 1250 -91 836 529 
Q 422 1150 422 2328 
Q 422 3509 836 4129 
Q 1250 4750 2034 4750 
z
" transform="scale(0.015625)"/>
       </defs>
       <use xlink:href="#DejaVuSans-30"/>
      </g>
     </g>
    </g>
    <g id="xtick_2">
     <g id="line2d_2">
      <g>
       <use xlink:href="#m8bf33f0d93" x="119.32017" y="224.64" style="stroke: #000000; stroke-width: 0.8"/>
      </g>
     </g>
     <g id="text_2">
      <!-- 2 -->
      <g transform="translate(116.13892 239.238437)scale(0.1 -0.1)">
       <defs>
        <path id="DejaVuSans-32" d="M 1228 531 
L 3431 531 
L 3431 0 
L 469 0 
L 469 531 
Q 828 903 1448 1529 
Q 2069 2156 2228 2338 
Q 2531 2678 2651 2914 
Q 2772 3150 2772 3378 
Q 2772 3750 2511 3984 
Q 2250 4219 1831 4219 
Q 1534 4219 1204 4116 
Q 875 4013 500 3803 
L 500 4441 
Q 881 4594 1212 4672 
Q 1544 4750 1819 4750 
Q 2544 4750 2975 4387 
Q 3406 4025 3406 3419 
Q 3406 3131 3298 2873 
Q 3191 2616 2906 2266 
Q 2828 2175 2409 1742 
Q 1991 1309 1228 531 
z
" transform="scale(0.015625)"/>
       </defs>
       <use xlink:href="#DejaVuSans-32"/>
      </g>
     </g>
    </g>
    <g id="xtick_3">
     <g id="line2d_3">
      <g>
       <use xlink:href="#m8bf33f0d93" x="186.956534" y="224.64" style="stroke: #000000; stroke-width: 0.8"/>
      </g>
     </g>
     <g id="text_3">
      <!-- 4 -->
      <g transform="translate(183.775284 239.238437)scale(0.1 -0.1)">
       <defs>
        <path id="DejaVuSans-34" d="M 2419 4116 
L 825 1625 
L 2419 1625 
L 2419 4116 
z
M 2253 4666 
L 3047 4666 
L 3047 1625 
L 3713 1625 
L 3713 1100 
L 3047 1100 
L 3047 0 
L 2419 0 
L 2419 1100 
L 313 1100 
L 313 1709 
L 2253 4666 
z
" transform="scale(0.015625)"/>
       </defs>
       <use xlink:href="#DejaVuSans-34"/>
      </g>
     </g>
    </g>
    <g id="xtick_4">
     <g id="line2d_4">
      <g>
       <use xlink:href="#m8bf33f0d93" x="254.592898" y="224.64" style="stroke: #000000; stroke-width: 0.8"/>
      </g>
     </g>
     <g id="text_4">
      <!-- 6 -->
      <g transform="translate(251.411648 239.238437)scale(0.1 -0.1)">
       <defs>
        <path id="DejaVuSans-36" d="M 2113 2584 
Q 1688 2584 1439 2293 
Q 1191 2003 1191 1497 
Q 1191 994 1439 701 
Q 1688 409 2113 409 
Q 2538 409 2786 701 
Q 3034 994 3034 1497 
Q 3034 2003 2786 2293 
Q 2538 2584 2113 2584 
z
M 3366 4563 
L 3366 3988 
Q 3128 4100 2886 4159 
Q 2644 4219 2406 4219 
Q 1781 4219 1451 3797 
Q 1122 3375 1075 2522 
Q 1259 2794 1537 2939 
Q 1816 3084 2150 3084 
Q 2853 3084 3261 2657 
Q 3669 2231 3669 1497 
Q 3669 778 3244 343 
Q 2819 -91 2113 -91 
Q 1303 -91 875 529 
Q 447 1150 447 2328 
Q 447 3434 972 4092 
Q 1497 4750 2381 4750 
Q 2619 4750 2861 4703 
Q 3103 4656 3366 4563 
z
" transform="scale(0.015625)"/>
       </defs>
       <use xlink:href="#DejaVuSans-36"/>
      </g>
     </g>
    </g>
    <g id="xtick_5">
     <g id="line2d_5">
      <g>
       <use xlink:href="#m8bf33f0d93" x="322.229261" y="224.64" style="stroke: #000000; stroke-width: 0.8"/>
      </g>
     </g>
     <g id="text_5">
      <!-- 8 -->
      <g transform="translate(319.048011 239.238437)scale(0.1 -0.1)">
       <defs>
        <path id="DejaVuSans-38" d="M 2034 2216 
Q 1584 2216 1326 1975 
Q 1069 1734 1069 1313 
Q 1069 891 1326 650 
Q 1584 409 2034 409 
Q 2484 409 2743 651 
Q 3003 894 3003 1313 
Q 3003 1734 2745 1975 
Q 2488 2216 2034 2216 
z
M 1403 2484 
Q 997 2584 770 2862 
Q 544 3141 544 3541 
Q 544 4100 942 4425 
Q 1341 4750 2034 4750 
Q 2731 4750 3128 4425 
Q 3525 4100 3525 3541 
Q 3525 3141 3298 2862 
Q 3072 2584 2669 2484 
Q 3125 2378 3379 2068 
Q 3634 1759 3634 1313 
Q 3634 634 3220 271 
Q 2806 -91 2034 -91 
Q 1263 -91 848 271 
Q 434 634 434 1313 
Q 434 1759 690 2068 
Q 947 2378 1403 2484 
z
M 1172 3481 
Q 1172 3119 1398 2916 
Q 1625 2713 2034 2713 
Q 2441 2713 2670 2916 
Q 2900 3119 2900 3481 
Q 2900 3844 2670 4047 
Q 2441 4250 2034 4250 
Q 1625 4250 1398 4047 
Q 1172 3844 1172 3481 
z
" transform="scale(0.015625)"/>
       </defs>
       <use xlink:href="#DejaVuSans-38"/>
      </g>
     </g>
    </g>
   </g>
   <g id="matplotlib.axis_2">
    <g id="ytick_1">
     <g id="line2d_6">
      <defs>
       <path id="mbb9749ebd0" d="M 0 0 
L -3.5 0 
" style="stroke: #000000; stroke-width: 0.8"/>
      </defs>
      <g>
       <use xlink:href="#mbb9749ebd0" x="36.465625" y="224.64" style="stroke: #000000; stroke-width: 0.8"/>
      </g>
     </g>
     <g id="text_6">
      <!-- 0.00 -->
      <g transform="translate(7.2 228.439219)scale(0.1 -0.1)">
       <defs>
        <path id="DejaVuSans-2e" d="M 684 794 
L 1344 794 
L 1344 0 
L 684 0 
L 684 794 
z
" transform="scale(0.015625)"/>
       </defs>
       <use xlink:href="#DejaVuSans-30"/>
       <use xlink:href="#DejaVuSans-2e" x="63.623047"/>
       <use xlink:href="#DejaVuSans-30" x="95.410156"/>
       <use xlink:href="#DejaVuSans-30" x="159.033203"/>
      </g>
     </g>
    </g>
    <g id="ytick_2">
     <g id="line2d_7">
      <g>
       <use xlink:href="#mbb9749ebd0" x="36.465625" y="176.850989" style="stroke: #000000; stroke-width: 0.8"/>
      </g>
     </g>
     <g id="text_7">
      <!-- 0.05 -->
      <g transform="translate(7.2 180.650208)scale(0.1 -0.1)">
       <defs>
        <path id="DejaVuSans-35" d="M 691 4666 
L 3169 4666 
L 3169 4134 
L 1269 4134 
L 1269 2991 
Q 1406 3038 1543 3061 
Q 1681 3084 1819 3084 
Q 2600 3084 3056 2656 
Q 3513 2228 3513 1497 
Q 3513 744 3044 326 
Q 2575 -91 1722 -91 
Q 1428 -91 1123 -41 
Q 819 9 494 109 
L 494 744 
Q 775 591 1075 516 
Q 1375 441 1709 441 
Q 2250 441 2565 725 
Q 2881 1009 2881 1497 
Q 2881 1984 2565 2268 
Q 2250 2553 1709 2553 
Q 1456 2553 1204 2497 
Q 953 2441 691 2322 
L 691 4666 
z
" transform="scale(0.015625)"/>
       </defs>
       <use xlink:href="#DejaVuSans-30"/>
       <use xlink:href="#DejaVuSans-2e" x="63.623047"/>
       <use xlink:href="#DejaVuSans-30" x="95.410156"/>
       <use xlink:href="#DejaVuSans-35" x="159.033203"/>
      </g>
     </g>
    </g>
    <g id="ytick_3">
     <g id="line2d_8">
      <g>
       <use xlink:href="#mbb9749ebd0" x="36.465625" y="129.061978" style="stroke: #000000; stroke-width: 0.8"/>
      </g>
     </g>
     <g id="text_8">
      <!-- 0.10 -->
      <g transform="translate(7.2 132.861197)scale(0.1 -0.1)">
       <defs>
        <path id="DejaVuSans-31" d="M 794 531 
L 1825 531 
L 1825 4091 
L 703 3866 
L 703 4441 
L 1819 4666 
L 2450 4666 
L 2450 531 
L 3481 531 
L 3481 0 
L 794 0 
L 794 531 
z
" transform="scale(0.015625)"/>
       </defs>
       <use xlink:href="#DejaVuSans-30"/>
       <use xlink:href="#DejaVuSans-2e" x="63.623047"/>
       <use xlink:href="#DejaVuSans-31" x="95.410156"/>
       <use xlink:href="#DejaVuSans-30" x="159.033203"/>
      </g>
     </g>
    </g>
    <g id="ytick_4">
     <g id="line2d_9">
      <g>
       <use xlink:href="#mbb9749ebd0" x="36.465625" y="81.272967" style="stroke: #000000; stroke-width: 0.8"/>
      </g>
     </g>
     <g id="text_9">
      <!-- 0.15 -->
      <g transform="translate(7.2 85.072186)scale(0.1 -0.1)">
       <use xlink:href="#DejaVuSans-30"/>
       <use xlink:href="#DejaVuSans-2e" x="63.623047"/>
       <use xlink:href="#DejaVuSans-31" x="95.410156"/>
       <use xlink:href="#DejaVuSans-35" x="159.033203"/>
      </g>
     </g>
    </g>
    <g id="ytick_5">
     <g id="line2d_10">
      <g>
       <use xlink:href="#mbb9749ebd0" x="36.465625" y="33.483956" style="stroke: #000000; stroke-width: 0.8"/>
      </g>
     </g>
     <g id="text_10">
      <!-- 0.20 -->
      <g transform="translate(7.2 37.283175)scale(0.1 -0.1)">
       <use xlink:href="#DejaVuSans-30"/>
       <use xlink:href="#DejaVuSans-2e" x="63.623047"/>
       <use xlink:href="#DejaVuSans-32" x="95.410156"/>
       <use xlink:href="#DejaVuSans-30" x="159.033203"/>
      </g>
     </g>
    </g>
   </g>
   <g id="patch_63">
    <path d="M 36.465625 224.64 
L 36.465625 7.2 
" style="fill: none; stroke: #000000; stroke-width: 0.8; stroke-linejoin: miter; stroke-linecap: square"/>
   </g>
   <g id="patch_64">
    <path d="M 371.265625 224.64 
L 371.265625 7.2 
" style="fill: none; stroke: #000000; stroke-width: 0.8; stroke-linejoin: miter; stroke-linecap: square"/>
   </g>
   <g id="patch_65">
    <path d="M 36.465625 224.64 
L 371.265625 224.64 
" style="fill: none; stroke: #000000; stroke-width: 0.8; stroke-linejoin: miter; stroke-linecap: square"/>
   </g>
   <g id="patch_66">
    <path d="M 36.465625 7.2 
L 371.265625 7.2 
" style="fill: none; stroke: #000000; stroke-width: 0.8; stroke-linejoin: miter; stroke-linecap: square"/>
   </g>
  </g>
 </g>
 <defs>
  <clipPath id="p189eb5471e">
   <rect x="36.465625" y="7.2" width="334.8" height="217.44"/>
  </clipPath>
 </defs>
</svg>
