<?xml version="1.0" encoding="utf-8" standalone="no"?>
<!DOCTYPE svg PUBLIC "-//W3C//DTD SVG 1.1//EN"
  "http://www.w3.org/Graphics/SVG/1.1/DTD/svg11.dtd">
<!-- Created with matplotlib (https://matplotlib.org/) -->
<svg height="248.518125pt" version="1.1" viewBox="0 0 384.828125 248.518125" width="384.828125pt" xmlns="http://www.w3.org/2000/svg" xmlns:xlink="http://www.w3.org/1999/xlink">
 <metadata>
  <rdf:RDF xmlns:cc="http://creativecommons.org/ns#" xmlns:dc="http://purl.org/dc/elements/1.1/" xmlns:rdf="http://www.w3.org/1999/02/22-rdf-syntax-ns#">
   <cc:Work>
    <dc:type rdf:resource="http://purl.org/dc/dcmitype/StillImage"/>
    <dc:date>2021-10-25T18:35:17.672111</dc:date>
    <dc:format>image/svg+xml</dc:format>
    <dc:creator>
     <cc:Agent>
      <dc:title>Matplotlib v3.3.4, https://matplotlib.org/</dc:title>
     </cc:Agent>
    </dc:creator>
   </cc:Work>
  </rdf:RDF>
 </metadata>
 <defs>
  <style type="text/css">*{stroke-linecap:butt;stroke-linejoin:round;}</style>
 </defs>
 <g id="figure_1">
  <g id="patch_1">
   <path d="M 0 248.518125 
L 384.828125 248.518125 
L 384.828125 0 
L 0 0 
z
" style="fill:none;"/>
  </g>
  <g id="axes_1">
   <g id="patch_2">
    <path d="M 36.465625 224.64 
L 371.265625 224.64 
L 371.265625 7.2 
L 36.465625 7.2 
z
" style="fill:#ffffff;"/>
   </g>
   <g id="matplotlib.axis_1">
    <g id="xtick_1">
     <g id="line2d_1">
      <path clip-path="url(#p2f66dbabb5)" d="M 36.465625 224.64 
L 36.465625 7.2 
" style="fill:none;stroke:#b0b0b0;stroke-linecap:square;stroke-width:0.8;"/>
     </g>
     <g id="line2d_2">
      <defs>
       <path d="M 0 0 
L 0 3.5 
" id="mbd30a63a38" style="stroke:#000000;stroke-width:0.8;"/>
      </defs>
      <g>
       <use style="stroke:#000000;stroke-width:0.8;" x="36.465625" xlink:href="#mbd30a63a38" y="224.64"/>
      </g>
     </g>
     <g id="text_1">
      <!-- 0 -->
      <g transform="translate(33.284375 239.238437)scale(0.1 -0.1)">
       <defs>
        <path d="M 31.78125 66.40625 
Q 24.171875 66.40625 20.328125 58.90625 
Q 16.5 51.421875 16.5 36.375 
Q 16.5 21.390625 20.328125 13.890625 
Q 24.171875 6.390625 31.78125 6.390625 
Q 39.453125 6.390625 43.28125 13.890625 
Q 47.125 21.390625 47.125 36.375 
Q 47.125 51.421875 43.28125 58.90625 
Q 39.453125 66.40625 31.78125 66.40625 
z
M 31.78125 74.21875 
Q 44.046875 74.21875 50.515625 64.515625 
Q 56.984375 54.828125 56.984375 36.375 
Q 56.984375 17.96875 50.515625 8.265625 
Q 44.046875 -1.421875 31.78125 -1.421875 
Q 19.53125 -1.421875 13.0625 8.265625 
Q 6.59375 17.96875 6.59375 36.375 
Q 6.59375 54.828125 13.0625 64.515625 
Q 19.53125 74.21875 31.78125 74.21875 
z
" id="DejaVuSans-48"/>
       </defs>
       <use xlink:href="#DejaVuSans-48"/>
      </g>
     </g>
    </g>
    <g id="xtick_2">
     <g id="line2d_3">
      <path clip-path="url(#p2f66dbabb5)" d="M 103.425625 224.64 
L 103.425625 7.2 
" style="fill:none;stroke:#b0b0b0;stroke-linecap:square;stroke-width:0.8;"/>
     </g>
     <g id="line2d_4">
      <g>
       <use style="stroke:#000000;stroke-width:0.8;" x="103.425625" xlink:href="#mbd30a63a38" y="224.64"/>
      </g>
     </g>
     <g id="text_2">
      <!-- 2 -->
      <g transform="translate(100.244375 239.238437)scale(0.1 -0.1)">
       <defs>
        <path d="M 19.1875 8.296875 
L 53.609375 8.296875 
L 53.609375 0 
L 7.328125 0 
L 7.328125 8.296875 
Q 12.9375 14.109375 22.625 23.890625 
Q 32.328125 33.6875 34.8125 36.53125 
Q 39.546875 41.84375 41.421875 45.53125 
Q 43.3125 49.21875 43.3125 52.78125 
Q 43.3125 58.59375 39.234375 62.25 
Q 35.15625 65.921875 28.609375 65.921875 
Q 23.96875 65.921875 18.8125 64.3125 
Q 13.671875 62.703125 7.8125 59.421875 
L 7.8125 69.390625 
Q 13.765625 71.78125 18.9375 73 
Q 24.125 74.21875 28.421875 74.21875 
Q 39.75 74.21875 46.484375 68.546875 
Q 53.21875 62.890625 53.21875 53.421875 
Q 53.21875 48.921875 51.53125 44.890625 
Q 49.859375 40.875 45.40625 35.40625 
Q 44.1875 33.984375 37.640625 27.21875 
Q 31.109375 20.453125 19.1875 8.296875 
z
" id="DejaVuSans-50"/>
       </defs>
       <use xlink:href="#DejaVuSans-50"/>
      </g>
     </g>
    </g>
    <g id="xtick_3">
     <g id="line2d_5">
      <path clip-path="url(#p2f66dbabb5)" d="M 170.385625 224.64 
L 170.385625 7.2 
" style="fill:none;stroke:#b0b0b0;stroke-linecap:square;stroke-width:0.8;"/>
     </g>
     <g id="line2d_6">
      <g>
       <use style="stroke:#000000;stroke-width:0.8;" x="170.385625" xlink:href="#mbd30a63a38" y="224.64"/>
      </g>
     </g>
     <g id="text_3">
      <!-- 4 -->
      <g transform="translate(167.204375 239.238437)scale(0.1 -0.1)">
       <defs>
        <path d="M 37.796875 64.3125 
L 12.890625 25.390625 
L 37.796875 25.390625 
z
M 35.203125 72.90625 
L 47.609375 72.90625 
L 47.609375 25.390625 
L 58.015625 25.390625 
L 58.015625 17.1875 
L 47.609375 17.1875 
L 47.609375 0 
L 37.796875 0 
L 37.796875 17.1875 
L 4.890625 17.1875 
L 4.890625 26.703125 
z
" id="DejaVuSans-52"/>
       </defs>
       <use xlink:href="#DejaVuSans-52"/>
      </g>
     </g>
    </g>
    <g id="xtick_4">
     <g id="line2d_7">
      <path clip-path="url(#p2f66dbabb5)" d="M 237.345625 224.64 
L 237.345625 7.2 
" style="fill:none;stroke:#b0b0b0;stroke-linecap:square;stroke-width:0.8;"/>
     </g>
     <g id="line2d_8">
      <g>
       <use style="stroke:#000000;stroke-width:0.8;" x="237.345625" xlink:href="#mbd30a63a38" y="224.64"/>
      </g>
     </g>
     <g id="text_4">
      <!-- 6 -->
      <g transform="translate(234.164375 239.238437)scale(0.1 -0.1)">
       <defs>
        <path d="M 33.015625 40.375 
Q 26.375 40.375 22.484375 35.828125 
Q 18.609375 31.296875 18.609375 23.390625 
Q 18.609375 15.53125 22.484375 10.953125 
Q 26.375 6.390625 33.015625 6.390625 
Q 39.65625 6.390625 43.53125 10.953125 
Q 47.40625 15.53125 47.40625 23.390625 
Q 47.40625 31.296875 43.53125 35.828125 
Q 39.65625 40.375 33.015625 40.375 
z
M 52.59375 71.296875 
L 52.59375 62.3125 
Q 48.875 64.0625 45.09375 64.984375 
Q 41.3125 65.921875 37.59375 65.921875 
Q 27.828125 65.921875 22.671875 59.328125 
Q 17.53125 52.734375 16.796875 39.40625 
Q 19.671875 43.65625 24.015625 45.921875 
Q 28.375 48.1875 33.59375 48.1875 
Q 44.578125 48.1875 50.953125 41.515625 
Q 57.328125 34.859375 57.328125 23.390625 
Q 57.328125 12.15625 50.6875 5.359375 
Q 44.046875 -1.421875 33.015625 -1.421875 
Q 20.359375 -1.421875 13.671875 8.265625 
Q 6.984375 17.96875 6.984375 36.375 
Q 6.984375 53.65625 15.1875 63.9375 
Q 23.390625 74.21875 37.203125 74.21875 
Q 40.921875 74.21875 44.703125 73.484375 
Q 48.484375 72.75 52.59375 71.296875 
z
" id="DejaVuSans-54"/>
       </defs>
       <use xlink:href="#DejaVuSans-54"/>
      </g>
     </g>
    </g>
    <g id="xtick_5">
     <g id="line2d_9">
      <path clip-path="url(#p2f66dbabb5)" d="M 304.305625 224.64 
L 304.305625 7.2 
" style="fill:none;stroke:#b0b0b0;stroke-linecap:square;stroke-width:0.8;"/>
     </g>
     <g id="line2d_10">
      <g>
       <use style="stroke:#000000;stroke-width:0.8;" x="304.305625" xlink:href="#mbd30a63a38" y="224.64"/>
      </g>
     </g>
     <g id="text_5">
      <!-- 8 -->
      <g transform="translate(301.124375 239.238437)scale(0.1 -0.1)">
       <defs>
        <path d="M 31.78125 34.625 
Q 24.75 34.625 20.71875 30.859375 
Q 16.703125 27.09375 16.703125 20.515625 
Q 16.703125 13.921875 20.71875 10.15625 
Q 24.75 6.390625 31.78125 6.390625 
Q 38.8125 6.390625 42.859375 10.171875 
Q 46.921875 13.96875 46.921875 20.515625 
Q 46.921875 27.09375 42.890625 30.859375 
Q 38.875 34.625 31.78125 34.625 
z
M 21.921875 38.8125 
Q 15.578125 40.375 12.03125 44.71875 
Q 8.5 49.078125 8.5 55.328125 
Q 8.5 64.0625 14.71875 69.140625 
Q 20.953125 74.21875 31.78125 74.21875 
Q 42.671875 74.21875 48.875 69.140625 
Q 55.078125 64.0625 55.078125 55.328125 
Q 55.078125 49.078125 51.53125 44.71875 
Q 48 40.375 41.703125 38.8125 
Q 48.828125 37.15625 52.796875 32.3125 
Q 56.78125 27.484375 56.78125 20.515625 
Q 56.78125 9.90625 50.3125 4.234375 
Q 43.84375 -1.421875 31.78125 -1.421875 
Q 19.734375 -1.421875 13.25 4.234375 
Q 6.78125 9.90625 6.78125 20.515625 
Q 6.78125 27.484375 10.78125 32.3125 
Q 14.796875 37.15625 21.921875 38.8125 
z
M 18.3125 54.390625 
Q 18.3125 48.734375 21.84375 45.5625 
Q 25.390625 42.390625 31.78125 42.390625 
Q 38.140625 42.390625 41.71875 45.5625 
Q 45.3125 48.734375 45.3125 54.390625 
Q 45.3125 60.0625 41.71875 63.234375 
Q 38.140625 66.40625 31.78125 66.40625 
Q 25.390625 66.40625 21.84375 63.234375 
Q 18.3125 60.0625 18.3125 54.390625 
z
" id="DejaVuSans-56"/>
       </defs>
       <use xlink:href="#DejaVuSans-56"/>
      </g>
     </g>
    </g>
    <g id="xtick_6">
     <g id="line2d_11">
      <path clip-path="url(#p2f66dbabb5)" d="M 371.265625 224.64 
L 371.265625 7.2 
" style="fill:none;stroke:#b0b0b0;stroke-linecap:square;stroke-width:0.8;"/>
     </g>
     <g id="line2d_12">
      <g>
       <use style="stroke:#000000;stroke-width:0.8;" x="371.265625" xlink:href="#mbd30a63a38" y="224.64"/>
      </g>
     </g>
     <g id="text_6">
      <!-- 10 -->
      <g transform="translate(364.903125 239.238437)scale(0.1 -0.1)">
       <defs>
        <path d="M 12.40625 8.296875 
L 28.515625 8.296875 
L 28.515625 63.921875 
L 10.984375 60.40625 
L 10.984375 69.390625 
L 28.421875 72.90625 
L 38.28125 72.90625 
L 38.28125 8.296875 
L 54.390625 8.296875 
L 54.390625 0 
L 12.40625 0 
z
" id="DejaVuSans-49"/>
       </defs>
       <use xlink:href="#DejaVuSans-49"/>
       <use x="63.623047" xlink:href="#DejaVuSans-48"/>
      </g>
     </g>
    </g>
   </g>
   <g id="matplotlib.axis_2">
    <g id="ytick_1">
     <g id="line2d_13">
      <path clip-path="url(#p2f66dbabb5)" d="M 36.465625 214.756365 
L 371.265625 214.756365 
" style="fill:none;stroke:#b0b0b0;stroke-linecap:square;stroke-width:0.8;"/>
     </g>
     <g id="line2d_14">
      <defs>
       <path d="M 0 0 
L -3.5 0 
" id="m442dd2a974" style="stroke:#000000;stroke-width:0.8;"/>
      </defs>
      <g>
       <use style="stroke:#000000;stroke-width:0.8;" x="36.465625" xlink:href="#m442dd2a974" y="214.756365"/>
      </g>
     </g>
     <g id="text_7">
      <!-- 0.00 -->
      <g transform="translate(7.2 218.555584)scale(0.1 -0.1)">
       <defs>
        <path d="M 10.6875 12.40625 
L 21 12.40625 
L 21 0 
L 10.6875 0 
z
" id="DejaVuSans-46"/>
       </defs>
       <use xlink:href="#DejaVuSans-48"/>
       <use x="63.623047" xlink:href="#DejaVuSans-46"/>
       <use x="95.410156" xlink:href="#DejaVuSans-48"/>
       <use x="159.033203" xlink:href="#DejaVuSans-48"/>
      </g>
     </g>
    </g>
    <g id="ytick_2">
     <g id="line2d_15">
      <path clip-path="url(#p2f66dbabb5)" d="M 36.465625 170.907694 
L 371.265625 170.907694 
" style="fill:none;stroke:#b0b0b0;stroke-linecap:square;stroke-width:0.8;"/>
     </g>
     <g id="line2d_16">
      <g>
       <use style="stroke:#000000;stroke-width:0.8;" x="36.465625" xlink:href="#m442dd2a974" y="170.907694"/>
      </g>
     </g>
     <g id="text_8">
      <!-- 0.05 -->
      <g transform="translate(7.2 174.706913)scale(0.1 -0.1)">
       <defs>
        <path d="M 10.796875 72.90625 
L 49.515625 72.90625 
L 49.515625 64.59375 
L 19.828125 64.59375 
L 19.828125 46.734375 
Q 21.96875 47.46875 24.109375 47.828125 
Q 26.265625 48.1875 28.421875 48.1875 
Q 40.625 48.1875 47.75 41.5 
Q 54.890625 34.8125 54.890625 23.390625 
Q 54.890625 11.625 47.5625 5.09375 
Q 40.234375 -1.421875 26.90625 -1.421875 
Q 22.3125 -1.421875 17.546875 -0.640625 
Q 12.796875 0.140625 7.71875 1.703125 
L 7.71875 11.625 
Q 12.109375 9.234375 16.796875 8.0625 
Q 21.484375 6.890625 26.703125 6.890625 
Q 35.15625 6.890625 40.078125 11.328125 
Q 45.015625 15.765625 45.015625 23.390625 
Q 45.015625 31 40.078125 35.4375 
Q 35.15625 39.890625 26.703125 39.890625 
Q 22.75 39.890625 18.8125 39.015625 
Q 14.890625 38.140625 10.796875 36.28125 
z
" id="DejaVuSans-53"/>
       </defs>
       <use xlink:href="#DejaVuSans-48"/>
       <use x="63.623047" xlink:href="#DejaVuSans-46"/>
       <use x="95.410156" xlink:href="#DejaVuSans-48"/>
       <use x="159.033203" xlink:href="#DejaVuSans-53"/>
      </g>
     </g>
    </g>
    <g id="ytick_3">
     <g id="line2d_17">
      <path clip-path="url(#p2f66dbabb5)" d="M 36.465625 127.059024 
L 371.265625 127.059024 
" style="fill:none;stroke:#b0b0b0;stroke-linecap:square;stroke-width:0.8;"/>
     </g>
     <g id="line2d_18">
      <g>
       <use style="stroke:#000000;stroke-width:0.8;" x="36.465625" xlink:href="#m442dd2a974" y="127.059024"/>
      </g>
     </g>
     <g id="text_9">
      <!-- 0.10 -->
      <g transform="translate(7.2 130.858242)scale(0.1 -0.1)">
       <use xlink:href="#DejaVuSans-48"/>
       <use x="63.623047" xlink:href="#DejaVuSans-46"/>
       <use x="95.410156" xlink:href="#DejaVuSans-49"/>
       <use x="159.033203" xlink:href="#DejaVuSans-48"/>
      </g>
     </g>
    </g>
    <g id="ytick_4">
     <g id="line2d_19">
      <path clip-path="url(#p2f66dbabb5)" d="M 36.465625 83.210353 
L 371.265625 83.210353 
" style="fill:none;stroke:#b0b0b0;stroke-linecap:square;stroke-width:0.8;"/>
     </g>
     <g id="line2d_20">
      <g>
       <use style="stroke:#000000;stroke-width:0.8;" x="36.465625" xlink:href="#m442dd2a974" y="83.210353"/>
      </g>
     </g>
     <g id="text_10">
      <!-- 0.15 -->
      <g transform="translate(7.2 87.009572)scale(0.1 -0.1)">
       <use xlink:href="#DejaVuSans-48"/>
       <use x="63.623047" xlink:href="#DejaVuSans-46"/>
       <use x="95.410156" xlink:href="#DejaVuSans-49"/>
       <use x="159.033203" xlink:href="#DejaVuSans-53"/>
      </g>
     </g>
    </g>
    <g id="ytick_5">
     <g id="line2d_21">
      <path clip-path="url(#p2f66dbabb5)" d="M 36.465625 39.361682 
L 371.265625 39.361682 
" style="fill:none;stroke:#b0b0b0;stroke-linecap:square;stroke-width:0.8;"/>
     </g>
     <g id="line2d_22">
      <g>
       <use style="stroke:#000000;stroke-width:0.8;" x="36.465625" xlink:href="#m442dd2a974" y="39.361682"/>
      </g>
     </g>
     <g id="text_11">
      <!-- 0.20 -->
      <g transform="translate(7.2 43.160901)scale(0.1 -0.1)">
       <use xlink:href="#DejaVuSans-48"/>
       <use x="63.623047" xlink:href="#DejaVuSans-46"/>
       <use x="95.410156" xlink:href="#DejaVuSans-50"/>
       <use x="159.033203" xlink:href="#DejaVuSans-48"/>
      </g>
     </g>
    </g>
   </g>
   <g id="line2d_23">
    <path clip-path="url(#p2f66dbabb5)" d="M 36.465625 197.844598 
L 38.478451 198.485762 
L 40.491276 200.310316 
L 42.504102 203.037875 
L 46.529753 209.468486 
L 48.542579 212.205413 
L 50.555405 214.058142 
L 52.56823 214.754501 
L 54.581056 214.192614 
L 56.593882 212.454666 
L 58.606707 209.795809 
L 62.632358 203.370502 
L 64.645184 200.568337 
L 66.65801 198.629661 
L 68.670835 197.852201 
L 70.683661 198.355893 
L 72.696487 200.062999 
L 74.709312 202.711016 
L 78.734964 209.135479 
L 80.747789 211.945678 
L 82.760615 213.909966 
L 84.773441 214.739591 
L 86.786266 214.313149 
L 88.799092 212.693004 
L 90.811918 210.116873 
L 96.850395 200.836593 
L 98.86322 198.78733 
L 100.876046 197.874996 
L 102.888871 198.240294 
L 104.901697 199.826836 
L 106.914523 202.390514 
L 112.953 211.675916 
L 114.965825 213.748343 
L 116.978651 214.709798 
L 118.991477 214.419539 
L 121.004302 212.92001 
L 123.017128 210.431113 
L 129.055605 201.114598 
L 131.068431 198.958478 
L 133.081256 197.912942 
L 135.094082 198.139176 
L 137.106908 199.602256 
L 139.119733 202.076949 
L 145.15821 211.396597 
L 147.171036 213.573555 
L 149.183861 214.665172 
L 151.196687 214.511599 
L 153.209513 213.13529 
L 155.222338 210.737977 
L 157.235164 207.6732 
L 159.24799 204.396971 
L 161.260815 201.401846 
L 163.273641 199.142794 
L 165.286467 197.965968 
L 167.299292 198.052724 
L 169.312118 199.38967 
L 171.324944 201.770886 
L 173.337769 204.831873 
L 175.350595 208.108275 
L 177.363421 211.108211 
L 179.376246 213.385903 
L 181.389072 214.605791 
L 183.401898 214.589169 
L 185.414723 213.338469 
L 187.427549 211.036926 
L 189.440374 208.023683 
L 191.4532 204.746607 
L 193.466026 201.697817 
L 195.478851 199.33994 
L 197.491677 198.033977 
L 199.504503 197.981097 
L 201.517328 199.189463 
L 203.530154 201.472878 
L 205.54298 204.481524 
L 207.555805 207.758495 
L 209.568631 210.811261 
L 211.581457 213.185714 
L 213.594282 214.531757 
L 215.607108 214.652116 
L 217.619934 213.529193 
L 219.632759 211.327438 
L 221.645585 208.371034 
L 225.671236 202.001976 
L 227.684062 199.549558 
L 229.696888 198.116846 
L 231.709713 197.924425 
L 233.722539 199.002002 
L 235.735364 201.183465 
L 237.74819 204.13435 
L 241.773841 210.506268 
L 243.786667 212.973337 
L 245.799493 214.443199 
L 247.812318 214.70033 
L 249.825144 213.707131 
L 251.83797 211.609002 
L 253.850795 208.714638 
L 257.876447 202.313772 
L 259.889272 199.771264 
L 261.902098 198.214421 
L 263.914924 197.882813 
L 265.927749 198.82763 
L 267.940575 200.903171 
L 269.953401 203.790974 
L 273.979052 210.193768 
L 275.991878 212.749141 
L 278.004703 214.340271 
L 280.017529 214.733728 
L 282.030354 213.871975 
L 284.04318 211.881127 
L 286.056006 209.053888 
L 290.081657 202.632643 
L 292.094483 200.004656 
L 294.107308 198.326525 
L 296.120134 197.856337 
L 298.13296 198.666663 
L 300.145785 200.632504 
L 302.158611 203.452013 
L 306.184262 209.874308 
L 308.197088 212.513515 
L 310.209914 214.223149 
L 312.222739 214.752253 
L 314.235565 214.023438 
L 316.248391 212.143337 
L 318.261216 209.388186 
L 322.286867 202.958013 
L 324.299693 200.249307 
L 326.312519 198.452952 
L 328.325344 197.845046 
L 330.33817 198.519397 
L 332.350996 200.371956 
L 334.363821 203.118075 
L 338.389473 209.548451 
L 340.402298 212.266871 
L 342.415124 214.092038 
L 344.42795 214.755871 
L 346.440775 214.161258 
L 348.453601 212.395175 
L 350.466427 209.716941 
L 354.492078 203.289296 
L 356.504904 200.504773 
L 358.517729 198.59347 
L 360.530555 197.848959 
L 362.543381 198.386102 
L 364.556206 200.122 
L 366.569032 202.789762 
L 370.594683 209.21677 
L 372.607509 212.009639 
L 374.620334 213.947165 
L 376.63316 214.744578 
L 378.645986 214.285195 
L 380.658811 212.6362 
L 382.671637 210.039576 
L 385.828125 205.030628 
L 385.828125 205.030628 
" style="fill:none;stroke:#1f77b4;stroke-linecap:square;stroke-width:1.5;"/>
   </g>
   <g id="line2d_24">
    <path clip-path="url(#p2f66dbabb5)" d="M 36.465625 91.264199 
L 38.478451 96.265688 
L 40.491276 110.341192 
L 42.504102 130.97086 
L 46.529753 177.845187 
L 48.542579 197.119969 
L 50.555405 209.959457 
L 52.56823 214.743587 
L 54.581056 210.885054 
L 56.593882 198.85686 
L 58.606707 180.170368 
L 64.645184 112.313425 
L 66.65801 97.384184 
L 68.670835 91.32368 
L 70.683661 95.254998 
L 72.696487 108.446595 
L 74.709312 128.523672 
L 78.734964 175.47391 
L 80.747789 195.306826 
L 82.760615 208.93856 
L 84.773441 214.641388 
L 86.786266 211.714008 
L 88.799092 200.514876 
L 90.811918 182.445711 
L 92.824743 159.875788 
L 94.837569 135.969722 
L 96.850395 114.359204 
L 98.86322 98.608024 
L 100.876046 91.501989 
L 102.888871 94.354351 
L 104.901697 106.633594 
L 106.914523 126.11761 
L 110.940174 173.060387 
L 112.953 193.420187 
L 114.965825 207.823851 
L 116.978651 214.437137 
L 118.991477 212.445121 
L 121.004302 202.091528 
L 123.017128 184.667581 
L 125.029954 162.444015 
L 127.042779 138.511898 
L 129.055605 116.474321 
L 131.068431 99.934528 
L 133.081256 91.798724 
L 135.094082 93.565746 
L 137.106908 104.906007 
L 139.119733 123.757355 
L 143.145385 170.608565 
L 145.15821 191.462935 
L 147.171036 206.616955 
L 149.183861 214.131125 
L 151.196687 213.077337 
L 153.209513 203.584458 
L 155.222338 186.832457 
L 157.235164 164.991721 
L 159.24799 141.076223 
L 161.260815 118.654462 
L 163.273641 101.360804 
L 165.286467 92.213217 
L 167.299292 92.890941 
L 169.312118 103.267499 
L 171.324944 121.447544 
L 177.363421 189.438081 
L 179.376246 205.319644 
L 181.389072 213.723792 
L 183.401898 213.609745 
L 185.414723 204.991448 
L 187.427549 188.936933 
L 189.440374 167.514578 
L 193.466026 120.895217 
L 195.478851 102.883762 
L 197.491677 92.744538 
L 199.504503 92.331443 
L 201.517328 101.72157 
L 203.530154 119.192755 
L 205.54298 141.70123 
L 207.555805 165.606309 
L 209.568631 187.34876 
L 211.581457 203.933826 
L 213.594282 213.215722 
L 215.607108 214.04158 
L 217.619934 206.310415 
L 219.632759 190.977722 
L 221.645585 170.00834 
L 225.671236 123.192096 
L 227.684062 104.500121 
L 229.696888 93.391495 
L 231.709713 91.888507 
L 233.722539 100.271544 
L 235.735364 116.997499 
L 237.74819 139.132248 
L 239.761016 163.064238 
L 241.773841 185.198231 
L 243.786667 202.461549 
L 245.799493 212.607645 
L 247.812318 214.372222 
L 249.825144 207.539417 
L 251.83797 192.951658 
L 253.850795 172.468847 
L 257.876447 125.540535 
L 259.889272 106.206425 
L 261.902098 94.15264 
L 263.914924 91.563128 
L 265.927749 98.920559 
L 267.940575 114.866204 
L 269.953401 136.58426 
L 271.966226 160.500588 
L 273.979052 182.989871 
L 275.991878 200.905 
L 278.004703 211.900437 
L 280.017529 214.601197 
L 282.030354 208.676649 
L 284.04318 194.8557 
L 286.056006 174.89203 
L 290.081657 127.935911 
L 292.094483 107.999046 
L 294.107308 95.026276 
L 296.120134 91.356037 
L 298.13296 97.671554 
L 300.145785 112.80321 
L 302.158611 134.062029 
L 306.184262 180.727173 
L 308.197088 199.266503 
L 310.209914 211.095118 
L 312.222739 214.728177 
L 314.235565 209.72045 
L 316.248391 196.686934 
L 318.261216 177.273914 
L 322.286867 130.373553 
L 324.299693 109.874203 
L 326.312519 96.010461 
L 328.325344 91.267701 
L 330.33817 96.527262 
L 332.350996 110.812751 
L 334.363821 131.570311 
L 338.389473 178.413745 
L 340.402298 197.548513 
L 342.415124 210.192852 
L 344.42795 214.75298 
L 346.440775 210.669299 
L 348.453601 198.442573 
L 350.466427 179.610628 
L 356.504904 111.82797 
L 358.517729 97.103017 
L 360.530555 91.29832 
L 362.543381 95.490201 
L 364.556206 108.898948 
L 366.569032 129.113854 
L 370.594683 176.053303 
L 372.607509 195.753624 
L 374.620334 209.194948 
L 376.63316 214.67557 
L 378.645986 211.521819 
L 380.658811 200.119961 
L 382.671637 181.898402 
L 385.828125 145.674182 
L 385.828125 145.674182 
" style="fill:none;stroke:#ff7f0e;stroke-linecap:square;stroke-width:1.5;"/>
   </g>
   <g id="line2d_25">
    <path clip-path="url(#p2f66dbabb5)" d="M 36.465625 17.083636 
L 38.478451 25.535259 
L 40.491276 49.069794 
L 42.504102 82.954234 
L 46.529753 157.691295 
L 48.542579 187.662778 
L 50.555405 207.416671 
L 52.56823 214.736842 
L 54.581056 208.834589 
L 56.593882 190.344522 
L 58.606707 161.328152 
L 60.619533 125.268601 
L 62.632358 86.988748 
L 64.645184 52.339332 
L 66.65801 27.418729 
L 68.670835 17.184436 
L 70.683661 23.831278 
L 72.696487 45.922647 
L 74.709312 78.969822 
L 78.734964 153.976073 
L 80.747789 184.86005 
L 82.760615 205.851827 
L 84.773441 214.58069 
L 86.786266 210.103779 
L 88.799092 192.901667 
L 90.811918 164.881242 
L 92.824743 129.373477 
L 94.837569 91.065431 
L 96.850395 55.723807 
L 98.86322 29.476882 
L 100.876046 17.486565 
L 102.888871 22.31117 
L 104.901697 42.905172 
L 106.914523 75.043476 
L 110.940174 150.188073 
L 112.953 181.94015 
L 114.965825 204.142056 
L 116.978651 214.26858 
L 118.991477 211.222633 
L 121.004302 195.330793 
L 123.017128 168.345354 
L 125.029954 133.444475 
L 127.042779 95.176403 
L 129.055605 59.215618 
L 131.068431 31.704515 
L 133.081256 17.989218 
L 135.094082 20.978879 
L 137.106908 40.024445 
L 139.119733 71.183176 
L 143.145385 146.333064 
L 145.15821 178.907085 
L 147.171036 202.289551 
L 149.183861 213.800903 
L 151.196687 212.189738 
L 153.209513 197.628677 
L 155.222338 171.715465 
L 157.235164 137.474919 
L 161.260815 62.807042 
L 163.273641 34.096055 
L 165.286467 18.691058 
L 167.299292 19.837883 
L 169.312118 37.287318 
L 171.324944 67.396899 
L 175.350595 142.416999 
L 177.363421 175.765057 
L 179.376246 200.296705 
L 181.389072 213.178242 
L 183.401898 213.00388 
L 185.414723 199.792293 
L 187.427549 174.986745 
L 189.440374 141.458294 
L 193.466026 66.490259 
L 195.478851 36.645583 
L 197.491677 19.590221 
L 199.504503 18.891181 
L 201.517328 34.700384 
L 203.530154 63.692597 
L 209.568631 172.518464 
L 211.581457 198.166102 
L 213.594282 212.401377 
L 215.607108 213.664036 
L 217.619934 201.81881 
L 219.632759 178.154556 
L 221.645585 145.388256 
L 225.671236 70.257375 
L 227.684062 39.346863 
L 229.696888 20.68433 
L 231.709713 18.141272 
L 233.722539 32.269954 
L 235.735364 60.078179 
L 237.74819 96.178169 
L 239.761016 134.426393 
L 241.773841 169.171896 
L 243.786667 195.900525 
L 245.799493 211.471282 
L 247.812318 214.169379 
L 249.825144 203.705594 
L 251.83797 181.214453 
L 253.850795 149.258633 
L 257.876447 74.100447 
L 259.889272 42.193367 
L 261.902098 21.970508 
L 263.914924 17.590146 
L 265.927749 30.002025 
L 267.940575 56.561484 
L 269.953401 92.060059 
L 271.966226 130.364627 
L 273.979052 165.730138 
L 275.991878 193.502955 
L 278.004703 210.389126 
L 280.017529 214.519278 
L 282.030354 205.450207 
L 284.04318 184.162187 
L 286.056006 153.063429 
L 290.081657 78.011501 
L 292.094483 45.178304 
L 294.107308 23.445389 
L 296.120134 17.239267 
L 298.13296 27.902257 
L 300.145785 53.150262 
L 302.158611 87.974334 
L 304.171437 126.267349 
L 306.184262 162.198166 
L 308.197088 190.976566 
L 310.209914 209.156274 
L 312.222739 214.713297 
L 314.235565 207.050407 
L 316.248391 186.993703 
L 318.261216 156.796831 
L 324.299693 48.29465 
L 326.312519 25.105142 
L 328.325344 17.089572 
L 330.33817 25.975946 
L 332.350996 49.852145 
L 334.363821 83.928861 
L 338.389473 158.581145 
L 340.402298 188.324729 
L 342.415124 207.774284 
L 344.42795 214.751193 
L 346.440775 208.504148 
L 348.453601 189.705142 
L 350.466427 160.453205 
L 352.479252 124.268261 
L 354.492078 86.005644 
L 356.504904 51.535169 
L 358.517729 26.945487 
L 360.530555 17.14146 
L 362.543381 24.227994 
L 364.556206 46.674626 
L 366.569032 79.931562 
L 370.594683 154.884432 
L 372.607509 185.551014 
L 374.620334 206.244914 
L 376.63316 214.632919 
L 378.645986 209.80958 
L 380.658811 192.292841 
L 382.671637 164.027106 
L 385.828125 106.614484 
L 385.828125 106.614484 
" style="fill:none;stroke:#2ca02c;stroke-linecap:square;stroke-width:1.5;"/>
   </g>
   <g id="line2d_26">
    <path clip-path="url(#p2f66dbabb5)" d="M 36.465625 91.264199 
L 38.478451 96.265688 
L 40.491276 110.341192 
L 42.504102 130.97086 
L 46.529753 177.845187 
L 48.542579 197.119969 
L 50.555405 209.959457 
L 52.56823 214.743587 
L 54.581056 210.885054 
L 56.593882 198.85686 
L 58.606707 180.170368 
L 64.645184 112.313425 
L 66.65801 97.384184 
L 68.670835 91.32368 
L 70.683661 95.254998 
L 72.696487 108.446595 
L 74.709312 128.523672 
L 78.734964 175.47391 
L 80.747789 195.306826 
L 82.760615 208.93856 
L 84.773441 214.641388 
L 86.786266 211.714008 
L 88.799092 200.514876 
L 90.811918 182.445711 
L 92.824743 159.875788 
L 94.837569 135.969722 
L 96.850395 114.359204 
L 98.86322 98.608024 
L 100.876046 91.501989 
L 102.888871 94.354351 
L 104.901697 106.633594 
L 106.914523 126.11761 
L 110.940174 173.060387 
L 112.953 193.420187 
L 114.965825 207.823851 
L 116.978651 214.437137 
L 118.991477 212.445121 
L 121.004302 202.091528 
L 123.017128 184.667581 
L 125.029954 162.444015 
L 127.042779 138.511898 
L 129.055605 116.474321 
L 131.068431 99.934528 
L 133.081256 91.798724 
L 135.094082 93.565746 
L 137.106908 104.906007 
L 139.119733 123.757355 
L 143.145385 170.608565 
L 145.15821 191.462935 
L 147.171036 206.616955 
L 149.183861 214.131125 
L 151.196687 213.077337 
L 153.209513 203.584458 
L 155.222338 186.832457 
L 157.235164 164.991721 
L 159.24799 141.076223 
L 161.260815 118.654462 
L 163.273641 101.360804 
L 165.286467 92.213217 
L 167.299292 92.890941 
L 169.312118 103.267499 
L 171.324944 121.447544 
L 177.363421 189.438081 
L 179.376246 205.319644 
L 181.389072 213.723792 
L 183.401898 213.609745 
L 185.414723 204.991448 
L 187.427549 188.936933 
L 189.440374 167.514578 
L 193.466026 120.895217 
L 195.478851 102.883762 
L 197.491677 92.744538 
L 199.504503 92.331443 
L 201.517328 101.72157 
L 203.530154 119.192755 
L 205.54298 141.70123 
L 207.555805 165.606309 
L 209.568631 187.34876 
L 211.581457 203.933826 
L 213.594282 213.215722 
L 215.607108 214.04158 
L 217.619934 206.310415 
L 219.632759 190.977722 
L 221.645585 170.00834 
L 225.671236 123.192096 
L 227.684062 104.500121 
L 229.696888 93.391495 
L 231.709713 91.888507 
L 233.722539 100.271544 
L 235.735364 116.997499 
L 237.74819 139.132248 
L 239.761016 163.064238 
L 241.773841 185.198231 
L 243.786667 202.461549 
L 245.799493 212.607645 
L 247.812318 214.372222 
L 249.825144 207.539417 
L 251.83797 192.951658 
L 253.850795 172.468847 
L 257.876447 125.540535 
L 259.889272 106.206425 
L 261.902098 94.15264 
L 263.914924 91.563128 
L 265.927749 98.920559 
L 267.940575 114.866204 
L 269.953401 136.58426 
L 271.966226 160.500588 
L 273.979052 182.989871 
L 275.991878 200.905 
L 278.004703 211.900437 
L 280.017529 214.601197 
L 282.030354 208.676649 
L 284.04318 194.8557 
L 286.056006 174.89203 
L 290.081657 127.935911 
L 292.094483 107.999046 
L 294.107308 95.026276 
L 296.120134 91.356037 
L 298.13296 97.671554 
L 300.145785 112.80321 
L 302.158611 134.062029 
L 306.184262 180.727173 
L 308.197088 199.266503 
L 310.209914 211.095118 
L 312.222739 214.728177 
L 314.235565 209.72045 
L 316.248391 196.686934 
L 318.261216 177.273914 
L 322.286867 130.373553 
L 324.299693 109.874203 
L 326.312519 96.010461 
L 328.325344 91.267701 
L 330.33817 96.527262 
L 332.350996 110.812751 
L 334.363821 131.570311 
L 338.389473 178.413745 
L 340.402298 197.548513 
L 342.415124 210.192852 
L 344.42795 214.75298 
L 346.440775 210.669299 
L 348.453601 198.442573 
L 350.466427 179.610628 
L 356.504904 111.82797 
L 358.517729 97.103017 
L 360.530555 91.29832 
L 362.543381 95.490201 
L 364.556206 108.898948 
L 366.569032 129.113854 
L 370.594683 176.053303 
L 372.607509 195.753624 
L 374.620334 209.194948 
L 376.63316 214.67557 
L 378.645986 211.521819 
L 380.658811 200.119961 
L 382.671637 181.898402 
L 385.828125 145.674182 
L 385.828125 145.674182 
" style="fill:none;stroke:#d62728;stroke-linecap:square;stroke-width:1.5;"/>
   </g>
   <g id="line2d_27">
    <path clip-path="url(#p2f66dbabb5)" d="M 36.465625 197.844598 
L 38.478451 198.485762 
L 40.491276 200.310316 
L 42.504102 203.037875 
L 46.529753 209.468486 
L 48.542579 212.205413 
L 50.555405 214.058142 
L 52.56823 214.754501 
L 54.581056 214.192614 
L 56.593882 212.454666 
L 58.606707 209.795809 
L 62.632358 203.370502 
L 64.645184 200.568337 
L 66.65801 198.629661 
L 68.670835 197.852201 
L 70.683661 198.355893 
L 72.696487 200.062999 
L 74.709312 202.711016 
L 78.734964 209.135479 
L 80.747789 211.945678 
L 82.760615 213.909966 
L 84.773441 214.739591 
L 86.786266 214.313149 
L 88.799092 212.693004 
L 90.811918 210.116873 
L 96.850395 200.836593 
L 98.86322 198.78733 
L 100.876046 197.874996 
L 102.888871 198.240294 
L 104.901697 199.826836 
L 106.914523 202.390514 
L 112.953 211.675916 
L 114.965825 213.748343 
L 116.978651 214.709798 
L 118.991477 214.419539 
L 121.004302 212.92001 
L 123.017128 210.431113 
L 129.055605 201.114598 
L 131.068431 198.958478 
L 133.081256 197.912942 
L 135.094082 198.139176 
L 137.106908 199.602256 
L 139.119733 202.076949 
L 145.15821 211.396597 
L 147.171036 213.573555 
L 149.183861 214.665172 
L 151.196687 214.511599 
L 153.209513 213.13529 
L 155.222338 210.737977 
L 157.235164 207.6732 
L 159.24799 204.396971 
L 161.260815 201.401846 
L 163.273641 199.142794 
L 165.286467 197.965968 
L 167.299292 198.052724 
L 169.312118 199.38967 
L 171.324944 201.770886 
L 173.337769 204.831873 
L 175.350595 208.108275 
L 177.363421 211.108211 
L 179.376246 213.385903 
L 181.389072 214.605791 
L 183.401898 214.589169 
L 185.414723 213.338469 
L 187.427549 211.036926 
L 189.440374 208.023683 
L 191.4532 204.746607 
L 193.466026 201.697817 
L 195.478851 199.33994 
L 197.491677 198.033977 
L 199.504503 197.981097 
L 201.517328 199.189463 
L 203.530154 201.472878 
L 205.54298 204.481524 
L 207.555805 207.758495 
L 209.568631 210.811261 
L 211.581457 213.185714 
L 213.594282 214.531757 
L 215.607108 214.652116 
L 217.619934 213.529193 
L 219.632759 211.327438 
L 221.645585 208.371034 
L 225.671236 202.001976 
L 227.684062 199.549558 
L 229.696888 198.116846 
L 231.709713 197.924425 
L 233.722539 199.002002 
L 235.735364 201.183465 
L 237.74819 204.13435 
L 241.773841 210.506268 
L 243.786667 212.973337 
L 245.799493 214.443199 
L 247.812318 214.70033 
L 249.825144 213.707131 
L 251.83797 211.609002 
L 253.850795 208.714638 
L 257.876447 202.313772 
L 259.889272 199.771264 
L 261.902098 198.214421 
L 263.914924 197.882813 
L 265.927749 198.82763 
L 267.940575 200.903171 
L 269.953401 203.790974 
L 273.979052 210.193768 
L 275.991878 212.749141 
L 278.004703 214.340271 
L 280.017529 214.733728 
L 282.030354 213.871975 
L 284.04318 211.881127 
L 286.056006 209.053888 
L 290.081657 202.632643 
L 292.094483 200.004656 
L 294.107308 198.326525 
L 296.120134 197.856337 
L 298.13296 198.666663 
L 300.145785 200.632504 
L 302.158611 203.452013 
L 306.184262 209.874308 
L 308.197088 212.513515 
L 310.209914 214.223149 
L 312.222739 214.752253 
L 314.235565 214.023438 
L 316.248391 212.143337 
L 318.261216 209.388186 
L 322.286867 202.958013 
L 324.299693 200.249307 
L 326.312519 198.452952 
L 328.325344 197.845046 
L 330.33817 198.519397 
L 332.350996 200.371956 
L 334.363821 203.118075 
L 338.389473 209.548451 
L 340.402298 212.266871 
L 342.415124 214.092038 
L 344.42795 214.755871 
L 346.440775 214.161258 
L 348.453601 212.395175 
L 350.466427 209.716941 
L 354.492078 203.289296 
L 356.504904 200.504773 
L 358.517729 198.59347 
L 360.530555 197.848959 
L 362.543381 198.386102 
L 364.556206 200.122 
L 366.569032 202.789762 
L 370.594683 209.21677 
L 372.607509 212.009639 
L 374.620334 213.947165 
L 376.63316 214.744578 
L 378.645986 214.285195 
L 380.658811 212.6362 
L 382.671637 210.039576 
L 385.828125 205.030628 
L 385.828125 205.030628 
" style="fill:none;stroke:#9467bd;stroke-linecap:square;stroke-width:1.5;"/>
   </g>
   <g id="patch_3">
    <path d="M 36.465625 224.64 
L 36.465625 7.2 
" style="fill:none;stroke:#000000;stroke-linecap:square;stroke-linejoin:miter;stroke-width:0.8;"/>
   </g>
   <g id="patch_4">
    <path d="M 371.265625 224.64 
L 371.265625 7.2 
" style="fill:none;stroke:#000000;stroke-linecap:square;stroke-linejoin:miter;stroke-width:0.8;"/>
   </g>
   <g id="patch_5">
    <path d="M 36.465625 224.64 
L 371.265625 224.64 
" style="fill:none;stroke:#000000;stroke-linecap:square;stroke-linejoin:miter;stroke-width:0.8;"/>
   </g>
   <g id="patch_6">
    <path d="M 36.465625 7.2 
L 371.265625 7.2 
" style="fill:none;stroke:#000000;stroke-linecap:square;stroke-linejoin:miter;stroke-width:0.8;"/>
   </g>
  </g>
 </g>
 <defs>
  <clipPath id="p2f66dbabb5">
   <rect height="217.44" width="334.8" x="36.465625" y="7.2"/>
  </clipPath>
 </defs>
</svg>
