<?xml version="1.0" encoding="utf-8" standalone="no"?>
<!DOCTYPE svg PUBLIC "-//W3C//DTD SVG 1.1//EN"
  "http://www.w3.org/Graphics/SVG/1.1/DTD/svg11.dtd">
<svg xmlns:xlink="http://www.w3.org/1999/xlink" width="380.482813pt" height="248.518125pt" viewBox="0 0 380.482813 248.518125" xmlns="http://www.w3.org/2000/svg" version="1.1">
 <metadata>
  <rdf:RDF xmlns:dc="http://purl.org/dc/elements/1.1/" xmlns:cc="http://creativecommons.org/ns#" xmlns:rdf="http://www.w3.org/1999/02/22-rdf-syntax-ns#">
   <cc:Work>
    <dc:type rdf:resource="http://purl.org/dc/dcmitype/StillImage"/>
    <dc:date>2021-11-28T20:55:35.064505</dc:date>
    <dc:format>image/svg+xml</dc:format>
    <dc:creator>
     <cc:Agent>
      <dc:title>Matplotlib v3.5.0, https://matplotlib.org/</dc:title>
     </cc:Agent>
    </dc:creator>
   </cc:Work>
  </rdf:RDF>
 </metadata>
 <defs>
  <style type="text/css">*{stroke-linejoin: round; stroke-linecap: butt}</style>
 </defs>
 <g id="figure_1">
  <g id="patch_1">
   <path d="M -0 248.518125 
L 380.482813 248.518125 
L 380.482813 0 
L -0 0 
L -0 248.518125 
z
" style="fill: none"/>
  </g>
  <g id="axes_1">
   <g id="patch_2">
    <path d="M 38.482813 224.64 
L 373.282813 224.64 
L 373.282813 7.2 
L 38.482813 7.2 
z
" style="fill: #ffffff"/>
   </g>
   <g id="matplotlib.axis_1">
    <g id="xtick_1">
     <g id="line2d_1">
      <path d="M 53.700994 224.64 
L 53.700994 7.2 
" clip-path="url(#paf315c7837)" style="fill: none; stroke: #b0b0b0; stroke-width: 0.8; stroke-linecap: square"/>
     </g>
     <g id="line2d_2">
      <defs>
       <path id="mcd0ef10aca" d="M 0 0 
L 0 3.5 
" style="stroke: #000000; stroke-width: 0.8"/>
      </defs>
      <g>
       <use xlink:href="#mcd0ef10aca" x="53.700994" y="224.64" style="stroke: #000000; stroke-width: 0.8"/>
      </g>
     </g>
     <g id="text_1">
      <!-- 0 -->
      <g transform="translate(50.519744 239.238437)scale(0.1 -0.1)">
       <defs>
        <path id="DejaVuSans-30" d="M 2034 4250 
Q 1547 4250 1301 3770 
Q 1056 3291 1056 2328 
Q 1056 1369 1301 889 
Q 1547 409 2034 409 
Q 2525 409 2770 889 
Q 3016 1369 3016 2328 
Q 3016 3291 2770 3770 
Q 2525 4250 2034 4250 
z
M 2034 4750 
Q 2819 4750 3233 4129 
Q 3647 3509 3647 2328 
Q 3647 1150 3233 529 
Q 2819 -91 2034 -91 
Q 1250 -91 836 529 
Q 422 1150 422 2328 
Q 422 3509 836 4129 
Q 1250 4750 2034 4750 
z
" transform="scale(0.015625)"/>
       </defs>
       <use xlink:href="#DejaVuSans-30"/>
      </g>
     </g>
    </g>
    <g id="xtick_2">
     <g id="line2d_3">
      <path d="M 114.573722 224.64 
L 114.573722 7.2 
" clip-path="url(#paf315c7837)" style="fill: none; stroke: #b0b0b0; stroke-width: 0.8; stroke-linecap: square"/>
     </g>
     <g id="line2d_4">
      <g>
       <use xlink:href="#mcd0ef10aca" x="114.573722" y="224.64" style="stroke: #000000; stroke-width: 0.8"/>
      </g>
     </g>
     <g id="text_2">
      <!-- 1 -->
      <g transform="translate(111.392472 239.238437)scale(0.1 -0.1)">
       <defs>
        <path id="DejaVuSans-31" d="M 794 531 
L 1825 531 
L 1825 4091 
L 703 3866 
L 703 4441 
L 1819 4666 
L 2450 4666 
L 2450 531 
L 3481 531 
L 3481 0 
L 794 0 
L 794 531 
z
" transform="scale(0.015625)"/>
       </defs>
       <use xlink:href="#DejaVuSans-31"/>
      </g>
     </g>
    </g>
    <g id="xtick_3">
     <g id="line2d_5">
      <path d="M 175.446449 224.64 
L 175.446449 7.2 
" clip-path="url(#paf315c7837)" style="fill: none; stroke: #b0b0b0; stroke-width: 0.8; stroke-linecap: square"/>
     </g>
     <g id="line2d_6">
      <g>
       <use xlink:href="#mcd0ef10aca" x="175.446449" y="224.64" style="stroke: #000000; stroke-width: 0.8"/>
      </g>
     </g>
     <g id="text_3">
      <!-- 2 -->
      <g transform="translate(172.265199 239.238437)scale(0.1 -0.1)">
       <defs>
        <path id="DejaVuSans-32" d="M 1228 531 
L 3431 531 
L 3431 0 
L 469 0 
L 469 531 
Q 828 903 1448 1529 
Q 2069 2156 2228 2338 
Q 2531 2678 2651 2914 
Q 2772 3150 2772 3378 
Q 2772 3750 2511 3984 
Q 2250 4219 1831 4219 
Q 1534 4219 1204 4116 
Q 875 4013 500 3803 
L 500 4441 
Q 881 4594 1212 4672 
Q 1544 4750 1819 4750 
Q 2544 4750 2975 4387 
Q 3406 4025 3406 3419 
Q 3406 3131 3298 2873 
Q 3191 2616 2906 2266 
Q 2828 2175 2409 1742 
Q 1991 1309 1228 531 
z
" transform="scale(0.015625)"/>
       </defs>
       <use xlink:href="#DejaVuSans-32"/>
      </g>
     </g>
    </g>
    <g id="xtick_4">
     <g id="line2d_7">
      <path d="M 236.319176 224.64 
L 236.319176 7.2 
" clip-path="url(#paf315c7837)" style="fill: none; stroke: #b0b0b0; stroke-width: 0.8; stroke-linecap: square"/>
     </g>
     <g id="line2d_8">
      <g>
       <use xlink:href="#mcd0ef10aca" x="236.319176" y="224.64" style="stroke: #000000; stroke-width: 0.8"/>
      </g>
     </g>
     <g id="text_4">
      <!-- 3 -->
      <g transform="translate(233.137926 239.238437)scale(0.1 -0.1)">
       <defs>
        <path id="DejaVuSans-33" d="M 2597 2516 
Q 3050 2419 3304 2112 
Q 3559 1806 3559 1356 
Q 3559 666 3084 287 
Q 2609 -91 1734 -91 
Q 1441 -91 1130 -33 
Q 819 25 488 141 
L 488 750 
Q 750 597 1062 519 
Q 1375 441 1716 441 
Q 2309 441 2620 675 
Q 2931 909 2931 1356 
Q 2931 1769 2642 2001 
Q 2353 2234 1838 2234 
L 1294 2234 
L 1294 2753 
L 1863 2753 
Q 2328 2753 2575 2939 
Q 2822 3125 2822 3475 
Q 2822 3834 2567 4026 
Q 2313 4219 1838 4219 
Q 1578 4219 1281 4162 
Q 984 4106 628 3988 
L 628 4550 
Q 988 4650 1302 4700 
Q 1616 4750 1894 4750 
Q 2613 4750 3031 4423 
Q 3450 4097 3450 3541 
Q 3450 3153 3228 2886 
Q 3006 2619 2597 2516 
z
" transform="scale(0.015625)"/>
       </defs>
       <use xlink:href="#DejaVuSans-33"/>
      </g>
     </g>
    </g>
    <g id="xtick_5">
     <g id="line2d_9">
      <path d="M 297.191903 224.64 
L 297.191903 7.2 
" clip-path="url(#paf315c7837)" style="fill: none; stroke: #b0b0b0; stroke-width: 0.8; stroke-linecap: square"/>
     </g>
     <g id="line2d_10">
      <g>
       <use xlink:href="#mcd0ef10aca" x="297.191903" y="224.64" style="stroke: #000000; stroke-width: 0.8"/>
      </g>
     </g>
     <g id="text_5">
      <!-- 4 -->
      <g transform="translate(294.010653 239.238437)scale(0.1 -0.1)">
       <defs>
        <path id="DejaVuSans-34" d="M 2419 4116 
L 825 1625 
L 2419 1625 
L 2419 4116 
z
M 2253 4666 
L 3047 4666 
L 3047 1625 
L 3713 1625 
L 3713 1100 
L 3047 1100 
L 3047 0 
L 2419 0 
L 2419 1100 
L 313 1100 
L 313 1709 
L 2253 4666 
z
" transform="scale(0.015625)"/>
       </defs>
       <use xlink:href="#DejaVuSans-34"/>
      </g>
     </g>
    </g>
    <g id="xtick_6">
     <g id="line2d_11">
      <path d="M 358.064631 224.64 
L 358.064631 7.2 
" clip-path="url(#paf315c7837)" style="fill: none; stroke: #b0b0b0; stroke-width: 0.8; stroke-linecap: square"/>
     </g>
     <g id="line2d_12">
      <g>
       <use xlink:href="#mcd0ef10aca" x="358.064631" y="224.64" style="stroke: #000000; stroke-width: 0.8"/>
      </g>
     </g>
     <g id="text_6">
      <!-- 5 -->
      <g transform="translate(354.883381 239.238437)scale(0.1 -0.1)">
       <defs>
        <path id="DejaVuSans-35" d="M 691 4666 
L 3169 4666 
L 3169 4134 
L 1269 4134 
L 1269 2991 
Q 1406 3038 1543 3061 
Q 1681 3084 1819 3084 
Q 2600 3084 3056 2656 
Q 3513 2228 3513 1497 
Q 3513 744 3044 326 
Q 2575 -91 1722 -91 
Q 1428 -91 1123 -41 
Q 819 9 494 109 
L 494 744 
Q 775 591 1075 516 
Q 1375 441 1709 441 
Q 2250 441 2565 725 
Q 2881 1009 2881 1497 
Q 2881 1984 2565 2268 
Q 2250 2553 1709 2553 
Q 1456 2553 1204 2497 
Q 953 2441 691 2322 
L 691 4666 
z
" transform="scale(0.015625)"/>
       </defs>
       <use xlink:href="#DejaVuSans-35"/>
      </g>
     </g>
    </g>
   </g>
   <g id="matplotlib.axis_2">
    <g id="ytick_1">
     <g id="line2d_13">
      <path d="M 38.482813 208.579216 
L 373.282813 208.579216 
" clip-path="url(#paf315c7837)" style="fill: none; stroke: #b0b0b0; stroke-width: 0.8; stroke-linecap: square"/>
     </g>
     <g id="line2d_14">
      <defs>
       <path id="mb5996abe3f" d="M 0 0 
L -3.5 0 
" style="stroke: #000000; stroke-width: 0.8"/>
      </defs>
      <g>
       <use xlink:href="#mb5996abe3f" x="38.482813" y="208.579216" style="stroke: #000000; stroke-width: 0.8"/>
      </g>
     </g>
     <g id="text_7">
      <!-- −0.6 -->
      <g transform="translate(7.2 212.378435)scale(0.1 -0.1)">
       <defs>
        <path id="DejaVuSans-2212" d="M 678 2272 
L 4684 2272 
L 4684 1741 
L 678 1741 
L 678 2272 
z
" transform="scale(0.015625)"/>
        <path id="DejaVuSans-2e" d="M 684 794 
L 1344 794 
L 1344 0 
L 684 0 
L 684 794 
z
" transform="scale(0.015625)"/>
        <path id="DejaVuSans-36" d="M 2113 2584 
Q 1688 2584 1439 2293 
Q 1191 2003 1191 1497 
Q 1191 994 1439 701 
Q 1688 409 2113 409 
Q 2538 409 2786 701 
Q 3034 994 3034 1497 
Q 3034 2003 2786 2293 
Q 2538 2584 2113 2584 
z
M 3366 4563 
L 3366 3988 
Q 3128 4100 2886 4159 
Q 2644 4219 2406 4219 
Q 1781 4219 1451 3797 
Q 1122 3375 1075 2522 
Q 1259 2794 1537 2939 
Q 1816 3084 2150 3084 
Q 2853 3084 3261 2657 
Q 3669 2231 3669 1497 
Q 3669 778 3244 343 
Q 2819 -91 2113 -91 
Q 1303 -91 875 529 
Q 447 1150 447 2328 
Q 447 3434 972 4092 
Q 1497 4750 2381 4750 
Q 2619 4750 2861 4703 
Q 3103 4656 3366 4563 
z
" transform="scale(0.015625)"/>
       </defs>
       <use xlink:href="#DejaVuSans-2212"/>
       <use xlink:href="#DejaVuSans-30" x="83.789062"/>
       <use xlink:href="#DejaVuSans-2e" x="147.412109"/>
       <use xlink:href="#DejaVuSans-36" x="179.199219"/>
      </g>
     </g>
    </g>
    <g id="ytick_2">
     <g id="line2d_15">
      <path d="M 38.482813 177.692802 
L 373.282813 177.692802 
" clip-path="url(#paf315c7837)" style="fill: none; stroke: #b0b0b0; stroke-width: 0.8; stroke-linecap: square"/>
     </g>
     <g id="line2d_16">
      <g>
       <use xlink:href="#mb5996abe3f" x="38.482813" y="177.692802" style="stroke: #000000; stroke-width: 0.8"/>
      </g>
     </g>
     <g id="text_8">
      <!-- −0.4 -->
      <g transform="translate(7.2 181.49202)scale(0.1 -0.1)">
       <use xlink:href="#DejaVuSans-2212"/>
       <use xlink:href="#DejaVuSans-30" x="83.789062"/>
       <use xlink:href="#DejaVuSans-2e" x="147.412109"/>
       <use xlink:href="#DejaVuSans-34" x="179.199219"/>
      </g>
     </g>
    </g>
    <g id="ytick_3">
     <g id="line2d_17">
      <path d="M 38.482813 146.806387 
L 373.282813 146.806387 
" clip-path="url(#paf315c7837)" style="fill: none; stroke: #b0b0b0; stroke-width: 0.8; stroke-linecap: square"/>
     </g>
     <g id="line2d_18">
      <g>
       <use xlink:href="#mb5996abe3f" x="38.482813" y="146.806387" style="stroke: #000000; stroke-width: 0.8"/>
      </g>
     </g>
     <g id="text_9">
      <!-- −0.2 -->
      <g transform="translate(7.2 150.605606)scale(0.1 -0.1)">
       <use xlink:href="#DejaVuSans-2212"/>
       <use xlink:href="#DejaVuSans-30" x="83.789062"/>
       <use xlink:href="#DejaVuSans-2e" x="147.412109"/>
       <use xlink:href="#DejaVuSans-32" x="179.199219"/>
      </g>
     </g>
    </g>
    <g id="ytick_4">
     <g id="line2d_19">
      <path d="M 38.482813 115.919973 
L 373.282813 115.919973 
" clip-path="url(#paf315c7837)" style="fill: none; stroke: #b0b0b0; stroke-width: 0.8; stroke-linecap: square"/>
     </g>
     <g id="line2d_20">
      <g>
       <use xlink:href="#mb5996abe3f" x="38.482813" y="115.919973" style="stroke: #000000; stroke-width: 0.8"/>
      </g>
     </g>
     <g id="text_10">
      <!-- 0.0 -->
      <g transform="translate(15.579688 119.719192)scale(0.1 -0.1)">
       <use xlink:href="#DejaVuSans-30"/>
       <use xlink:href="#DejaVuSans-2e" x="63.623047"/>
       <use xlink:href="#DejaVuSans-30" x="95.410156"/>
      </g>
     </g>
    </g>
    <g id="ytick_5">
     <g id="line2d_21">
      <path d="M 38.482813 85.033559 
L 373.282813 85.033559 
" clip-path="url(#paf315c7837)" style="fill: none; stroke: #b0b0b0; stroke-width: 0.8; stroke-linecap: square"/>
     </g>
     <g id="line2d_22">
      <g>
       <use xlink:href="#mb5996abe3f" x="38.482813" y="85.033559" style="stroke: #000000; stroke-width: 0.8"/>
      </g>
     </g>
     <g id="text_11">
      <!-- 0.2 -->
      <g transform="translate(15.579688 88.832778)scale(0.1 -0.1)">
       <use xlink:href="#DejaVuSans-30"/>
       <use xlink:href="#DejaVuSans-2e" x="63.623047"/>
       <use xlink:href="#DejaVuSans-32" x="95.410156"/>
      </g>
     </g>
    </g>
    <g id="ytick_6">
     <g id="line2d_23">
      <path d="M 38.482813 54.147145 
L 373.282813 54.147145 
" clip-path="url(#paf315c7837)" style="fill: none; stroke: #b0b0b0; stroke-width: 0.8; stroke-linecap: square"/>
     </g>
     <g id="line2d_24">
      <g>
       <use xlink:href="#mb5996abe3f" x="38.482813" y="54.147145" style="stroke: #000000; stroke-width: 0.8"/>
      </g>
     </g>
     <g id="text_12">
      <!-- 0.4 -->
      <g transform="translate(15.579688 57.946364)scale(0.1 -0.1)">
       <use xlink:href="#DejaVuSans-30"/>
       <use xlink:href="#DejaVuSans-2e" x="63.623047"/>
       <use xlink:href="#DejaVuSans-34" x="95.410156"/>
      </g>
     </g>
    </g>
    <g id="ytick_7">
     <g id="line2d_25">
      <path d="M 38.482813 23.260731 
L 373.282813 23.260731 
" clip-path="url(#paf315c7837)" style="fill: none; stroke: #b0b0b0; stroke-width: 0.8; stroke-linecap: square"/>
     </g>
     <g id="line2d_26">
      <g>
       <use xlink:href="#mb5996abe3f" x="38.482813" y="23.260731" style="stroke: #000000; stroke-width: 0.8"/>
      </g>
     </g>
     <g id="text_13">
      <!-- 0.6 -->
      <g transform="translate(15.579688 27.059949)scale(0.1 -0.1)">
       <use xlink:href="#DejaVuSans-30"/>
       <use xlink:href="#DejaVuSans-2e" x="63.623047"/>
       <use xlink:href="#DejaVuSans-36" x="95.410156"/>
      </g>
     </g>
    </g>
   </g>
   <g id="line2d_27">
    <path d="M 53.700994 115.919973 
L 54.005663 115.340625 
L 54.614999 113.128112 
L 55.224336 109.711785 
L 56.138341 102.957121 
L 58.575687 83.214356 
L 59.185024 79.649538 
L 59.79436 77.195203 
L 60.099029 76.451131 
L 60.403697 76.057932 
L 60.708365 76.032655 
L 61.013034 76.388528 
L 61.317702 77.134849 
L 61.927039 79.815989 
L 62.536375 84.070092 
L 63.145712 89.827522 
L 64.059717 100.981525 
L 65.27839 119.44712 
L 68.629741 173.035803 
L 69.543746 183.259887 
L 70.153083 188.073187 
L 70.762419 191.046224 
L 71.067088 191.795241 
L 71.371756 192.034493 
L 71.676424 191.755124 
L 71.981093 190.952162 
L 72.285761 189.62458 
L 72.895098 185.411275 
L 73.504434 179.186068 
L 74.418439 166.381791 
L 75.332444 150.04958 
L 76.855785 117.623962 
L 79.293132 64.556641 
L 80.207137 48.362472 
L 81.121142 35.92273 
L 81.730478 30.138359 
L 82.339815 26.580133 
L 82.644483 25.675959 
L 82.949152 25.36857 
L 83.25382 25.662985 
L 83.558488 26.560075 
L 83.863156 28.056551 
L 84.472493 32.813781 
L 85.08183 39.826249 
L 85.995835 54.182652 
L 86.90984 72.395843 
L 88.433181 108.348285 
L 90.870527 166.9858 
L 91.784532 184.977448 
L 92.698537 198.967809 
L 93.307874 205.631242 
L 93.917211 209.936668 
L 94.221879 211.163645 
L 94.526547 211.759558 
L 94.831215 211.719262 
L 95.135884 211.041889 
L 95.440552 209.730867 
L 96.049889 205.242908 
L 96.659225 198.36725 
L 97.57323 183.979306 
L 98.487235 165.471796 
L 100.010577 128.527936 
L 102.447923 67.390012 
L 103.666596 42.78514 
L 104.580601 29.239447 
L 105.189938 23.028349 
L 105.799274 19.27904 
L 106.103943 18.362564 
L 106.408611 18.095056 
L 106.713279 18.478739 
L 107.017948 19.511482 
L 107.322616 21.186806 
L 107.931953 26.417848 
L 108.541289 34.035435 
L 109.455294 49.48211 
L 110.369299 68.917699 
L 111.892641 106.952827 
L 114.329987 168.294878 
L 115.243992 186.946005 
L 116.157997 201.37023 
L 116.767333 208.198133 
L 117.37667 212.572736 
L 117.681338 213.800551 
L 117.986007 214.376128 
L 118.290675 214.29546 
L 118.595343 213.558925 
L 118.900012 212.17128 
L 119.509348 207.483373 
L 120.118685 200.355516 
L 121.03269 185.518673 
L 121.946695 166.515319 
L 123.470036 128.749152 
L 125.907383 66.6298 
L 127.126056 41.785357 
L 128.040061 28.180894 
L 128.649397 21.985241 
L 129.258734 18.291139 
L 129.563402 17.415778 
L 129.86807 17.197529 
L 130.172739 17.63791 
L 130.477407 18.734039 
L 131.086744 22.860175 
L 131.69608 29.466398 
L 132.305417 38.377023 
L 133.219422 55.529668 
L 134.438095 83.811255 
L 138.398783 181.885074 
L 139.312788 197.764902 
L 139.922125 205.680342 
L 140.531461 211.203973 
L 141.140798 214.188389 
L 141.445466 214.700762 
L 141.750134 214.553864 
L 142.054803 213.748655 
L 142.359471 212.290489 
L 142.968808 207.458434 
L 143.578144 200.186355 
L 144.492149 185.143489 
L 145.406154 165.959823 
L 146.929496 127.984315 
L 149.366842 65.842714 
L 150.585515 41.136386 
L 151.49952 27.690286 
L 152.108857 21.620671 
L 152.718193 18.064681 
L 153.022862 17.261637 
L 153.32753 17.117172 
L 153.632198 17.632258 
L 153.936867 18.803463 
L 154.546203 23.078655 
L 155.15554 29.828831 
L 155.764876 38.874087 
L 156.678881 56.202677 
L 157.897555 84.652943 
L 161.553574 176.426173 
L 162.467579 193.58629 
L 163.381584 206.100869 
L 163.990921 211.480451 
L 164.295589 213.22126 
L 164.600257 214.312494 
L 164.904926 214.746866 
L 165.209594 214.521474 
L 165.514262 213.637821 
L 165.81893 212.101803 
L 166.428267 207.117969 
L 167.037604 199.702823 
L 167.951609 184.470262 
L 168.865613 165.137126 
L 170.388955 127.025874 
L 172.826301 64.999816 
L 173.740306 45.960107 
L 174.654311 31.105235 
L 175.263648 23.977741 
L 175.872984 19.301432 
L 176.177653 17.924089 
L 176.482321 17.200985 
L 176.786989 17.136948 
L 177.091658 17.732407 
L 177.396326 18.983386 
L 178.005663 23.41418 
L 178.614999 30.311211 
L 179.224336 39.490605 
L 180.138341 56.988733 
L 181.357014 85.59058 
L 185.013034 177.209255 
L 185.927039 194.198321 
L 186.841043 206.504832 
L 187.45038 211.731227 
L 187.755048 213.39261 
L 188.059717 214.403239 
L 188.364385 214.756364 
L 188.669053 214.449628 
L 188.973722 213.485079 
L 189.27839 211.869156 
L 189.887727 206.730619 
L 190.497063 199.171011 
L 191.411068 183.749328 
L 192.325073 164.270114 
L 193.848414 126.033557 
L 196.285761 64.145858 
L 197.199766 45.25744 
L 198.113771 30.596041 
L 198.723107 23.615332 
L 199.332444 19.095534 
L 199.637112 17.798797 
L 199.941781 17.157149 
L 200.246449 17.174875 
L 200.551117 17.851856 
L 200.855785 19.183572 
L 201.465122 23.771337 
L 202.074459 30.815855 
L 202.988464 45.561494 
L 203.902469 64.515971 
L 205.42581 102.294538 
L 207.863156 164.648171 
L 209.08183 189.681465 
L 209.995835 203.444744 
L 210.605171 209.749878 
L 211.214508 213.553429 
L 211.519176 214.48273 
L 211.823844 214.753992 
L 212.128513 214.365403 
L 212.433181 213.319558 
L 212.737849 211.62344 
L 213.347186 206.329944 
L 213.956523 198.626043 
L 214.870527 183.016238 
L 215.784532 163.392733 
L 217.307874 125.035152 
L 219.74522 63.293987 
L 220.659225 44.559673 
L 221.57323 30.094136 
L 222.182567 23.261498 
L 222.791903 18.899214 
L 223.096572 17.683468 
L 223.40124 17.123585 
L 223.705908 17.223301 
L 224.010577 17.981951 
L 224.315245 19.39447 
L 224.924582 24.139091 
L 225.533918 31.330668 
L 226.447923 46.270044 
L 227.361928 65.375882 
L 228.88527 103.289332 
L 231.322616 165.518863 
L 232.541289 190.345695 
L 233.455294 203.906442 
L 234.064631 210.060382 
L 234.673967 213.704458 
L 234.978636 214.552239 
L 235.283304 214.741515 
L 235.587972 214.271024 
L 235.892641 213.143907 
L 236.501977 208.954225 
L 237.111314 202.28417 
L 237.72065 193.311573 
L 238.634655 176.073942 
L 239.853328 147.703507 
L 243.814016 49.632791 
L 244.728021 33.819237 
L 245.337358 25.95854 
L 245.946695 20.496292 
L 246.556031 17.578122 
L 246.860699 17.100097 
L 247.165368 17.281829 
L 247.470036 18.122105 
L 247.774704 19.615314 
L 248.384041 24.516363 
L 248.993378 31.854312 
L 249.907383 46.98595 
L 250.821387 66.241227 
L 252.344729 104.285685 
L 254.782075 166.384665 
L 256.000749 191.002431 
L 256.914754 204.359207 
L 257.52409 210.36129 
L 258.133427 213.845486 
L 258.438095 214.611646 
L 258.742763 214.718904 
L 259.047432 214.166546 
L 259.3521 212.958258 
L 259.961437 208.610488 
L 260.570773 201.791509 
L 261.18011 192.683121 
L 262.094115 175.274232 
L 263.312788 146.751236 
L 266.968808 55.045262 
L 267.882812 37.96468 
L 268.796817 25.54739 
L 269.406154 20.239677 
L 269.710822 18.536195 
L 270.015491 17.482883 
L 270.320159 17.086771 
L 270.624827 17.350506 
L 270.929496 18.272325 
L 271.234164 19.846075 
L 271.8435 24.903057 
L 272.452837 32.386629 
L 273.366842 47.70898 
L 274.280847 67.111717 
L 275.804188 105.28327 
L 278.241535 167.245294 
L 279.15554 186.213715 
L 280.069545 200.977159 
L 280.678881 208.035171 
L 281.288218 212.637312 
L 281.592886 213.976429 
L 281.897555 214.660886 
L 282.202223 214.686113 
L 282.506891 214.051943 
L 282.811559 212.762608 
L 283.420896 208.257194 
L 284.030233 201.289991 
L 284.944238 186.646424 
L 285.858242 167.771995 
L 287.381584 130.065621 
L 289.81893 67.649614 
L 291.037604 42.509291 
L 291.951609 28.640578 
L 292.560945 22.256575 
L 293.170282 18.369719 
L 293.47495 17.397793 
L 293.779618 17.083636 
L 294.084287 17.429346 
L 294.388955 18.432615 
L 294.693623 20.086745 
L 295.30296 25.299139 
L 295.912297 32.927563 
L 296.826301 48.439047 
L 297.740306 67.987245 
L 299.263648 106.281955 
L 301.700994 168.100631 
L 302.614999 186.915854 
L 303.529004 201.484098 
L 304.138341 208.394326 
L 304.747677 212.839107 
L 305.052346 214.097257 
L 305.357014 214.699941 
L 305.661682 214.643134 
L 305.966351 213.927216 
L 306.271019 212.556967 
L 306.880355 207.894374 
L 307.489692 200.779665 
L 308.403697 185.941483 
L 309.317702 166.914608 
L 310.841043 129.071259 
L 313.27839 66.776014 
L 314.497063 41.840852 
L 315.411068 28.173975 
L 316.020405 21.940859 
L 316.629741 18.213307 
L 316.93441 17.322868 
L 317.239078 17.090699 
L 317.543746 17.518349 
L 317.848414 18.602964 
L 318.457751 22.709784 
L 319.067088 29.301668 
L 319.676424 38.20287 
L 320.590429 55.350212 
L 321.809102 83.63968 
L 325.76979 181.816718 
L 326.683795 197.727185 
L 327.293132 205.662651 
L 327.902469 211.205501 
L 328.511805 214.207956 
L 328.816473 214.728804 
L 329.121142 214.589969 
L 329.42581 213.792378 
L 329.730478 212.341356 
L 330.339815 207.522065 
L 330.949152 200.260584 
L 331.863156 185.229317 
L 332.777161 166.051959 
L 334.300503 128.07554 
L 336.737849 65.907485 
L 337.956523 41.180056 
L 338.870527 27.716426 
L 339.479864 21.63484 
L 340.089201 18.066977 
L 340.393869 17.258117 
L 340.698537 17.107959 
L 341.003206 17.617505 
L 341.307874 18.783354 
L 341.917211 23.048494 
L 342.526547 29.789669 
L 343.135884 38.827151 
L 344.049889 56.146689 
L 345.268562 84.590257 
L 348.924582 176.38015 
L 349.838586 193.55137 
L 350.752591 206.078673 
L 351.361928 211.46728 
L 351.666596 213.212677 
L 351.971265 214.308513 
L 352.275933 214.747472 
L 352.580601 214.526623 
L 352.88527 213.647441 
L 353.189938 212.115795 
L 353.799274 207.140304 
L 354.408611 199.7328 
L 355.322616 184.509999 
L 356.236621 165.184137 
L 357.759962 127.078567 
L 358.064631 119.023819 
L 358.064631 119.023819 
" clip-path="url(#paf315c7837)" style="fill: none; stroke: #000000; stroke-width: 1.5; stroke-linecap: square"/>
   </g>
   <g id="line2d_28">
    <path d="M 53.700994 115.919973 
L 55.529004 69.370905 
L 56.747677 43.837209 
L 57.661682 29.57826 
L 58.271019 22.901342 
L 58.880355 18.70438 
L 59.185024 17.573527 
L 59.489692 17.09927 
L 59.79436 17.284775 
L 60.099029 18.128804 
L 60.403697 19.625722 
L 61.013034 24.533957 
L 61.62237 31.878621 
L 62.536375 47.019068 
L 63.45038 66.281172 
L 64.973722 104.331562 
L 67.411068 166.424378 
L 68.629741 191.032462 
L 69.543746 204.379818 
L 70.153083 210.374898 
L 70.762419 213.851729 
L 71.067088 214.614131 
L 71.371756 214.717615 
L 71.676424 214.161491 
L 71.981093 212.949471 
L 72.590429 208.594437 
L 73.199766 201.768622 
L 73.809102 192.654009 
L 74.723107 175.237283 
L 75.941781 146.707338 
L 79.5978 55.008874 
L 80.511805 37.93629 
L 81.42581 25.528696 
L 82.035147 20.228107 
L 82.339815 18.528316 
L 82.644483 17.478746 
L 82.949152 17.086405 
L 83.25382 17.353912 
L 83.558488 18.279482 
L 83.863156 19.856934 
L 84.472493 24.921079 
L 85.08183 32.411333 
L 85.995835 47.742422 
L 86.90984 67.151897 
L 88.433181 105.329203 
L 90.870527 167.28477 
L 91.784532 186.246184 
L 92.698537 201.000679 
L 93.307874 208.051906 
L 93.917211 212.646816 
L 94.221879 213.982211 
L 94.526547 214.662906 
L 94.831215 214.684359 
L 95.135884 214.046425 
L 95.440552 212.753363 
L 96.049889 208.240706 
L 96.659225 201.2667 
L 97.57323 186.614144 
L 98.487235 167.732657 
L 100.010577 130.019895 
L 102.447923 67.609304 
L 103.666596 42.478365 
L 104.580601 28.618909 
L 105.189938 22.241835 
L 105.799274 18.362301 
L 106.103943 17.394122 
L 106.408611 17.083738 
L 106.713279 17.433219 
L 107.017948 18.440234 
L 107.322616 20.098058 
L 107.931953 25.317591 
L 108.541289 32.952661 
L 109.455294 48.472811 
L 110.369299 68.027654 
L 111.892641 106.327937 
L 114.329987 168.139862 
L 115.243992 186.947989 
L 116.157997 201.507214 
L 116.767333 208.410623 
L 117.37667 212.848152 
L 117.681338 214.102574 
L 117.986007 214.701493 
L 118.290675 214.640911 
L 118.595343 213.921233 
L 118.900012 212.547264 
L 119.509348 207.87745 
L 120.118685 200.75597 
L 121.03269 185.908869 
L 121.946695 166.875026 
L 123.470036 129.025468 
L 125.907383 66.735935 
L 127.126056 41.810276 
L 128.040061 28.152721 
L 128.649397 21.926564 
L 129.258734 18.206352 
L 129.563402 17.319665 
L 129.86807 17.091269 
L 130.172739 17.522689 
L 130.477407 18.611045 
L 131.086744 22.72516 
L 131.69608 29.323928 
L 132.305417 38.231422 
L 133.219422 55.386727 
L 134.438095 83.68335 
L 138.398783 181.851144 
L 139.312788 197.753102 
L 139.922125 205.681999 
L 140.531461 211.217763 
L 141.140798 214.212806 
L 141.445466 214.729887 
L 141.750134 214.587278 
L 142.054803 213.78593 
L 142.359471 212.331194 
L 142.968808 207.504705 
L 143.578144 200.236488 
L 144.492149 185.196372 
L 145.406154 166.012137 
L 146.929496 128.029689 
L 149.366842 65.867642 
L 150.585515 41.149833 
L 151.49952 27.695589 
L 152.108857 21.620992 
L 152.718193 18.060486 
L 153.022862 17.255382 
L 153.32753 17.108998 
L 153.632198 17.622312 
L 153.936867 18.791896 
L 154.546203 23.064312 
L 155.15554 29.812339 
L 155.764876 38.85607 
L 156.678881 56.18349 
L 157.897555 84.634078 
L 161.553574 176.416691 
L 162.467579 193.579956 
L 163.381584 206.097594 
L 163.990921 211.479089 
L 164.295589 213.2208 
L 164.600257 214.312896 
L 164.904926 214.748085 
L 165.209594 214.523463 
L 165.514262 213.640528 
L 165.81893 212.105176 
L 166.428267 207.122509 
L 167.037604 199.708305 
L 167.951609 184.476727 
L 168.865613 165.14408 
L 170.388955 127.032661 
L 172.826301 65.004513 
L 173.740306 45.963707 
L 174.654311 31.107689 
L 175.263648 23.979441 
L 175.872984 19.302407 
L 176.177653 17.924718 
L 176.482321 17.20128 
L 176.786989 17.136923 
L 177.091658 17.732078 
L 177.396326 18.98277 
L 178.005663 23.413045 
L 178.614999 30.309635 
L 179.224336 39.48867 
L 180.138341 56.986416 
L 181.357014 85.588035 
L 185.013034 177.207497 
L 185.927039 194.196958 
L 186.841043 206.503884 
L 187.45038 211.730555 
L 187.755048 213.392073 
L 188.059717 214.402833 
L 188.364385 214.756086 
L 188.669053 214.449474 
L 188.973722 213.485043 
L 189.27839 211.869233 
L 189.887727 206.730903 
L 190.497063 199.171476 
L 191.411068 183.750008 
L 192.325073 164.270943 
L 193.848414 126.034486 
L 196.285761 64.146638 
L 197.199766 45.258098 
L 198.113771 30.596556 
L 198.723107 23.615747 
L 199.332444 19.095848 
L 199.637112 17.799061 
L 199.941781 17.157364 
L 200.246449 17.175041 
L 200.551117 17.851975 
L 200.855785 19.183646 
L 201.465122 23.771324 
L 202.074459 30.815765 
L 202.988464 45.561307 
L 203.902469 64.51571 
L 205.42581 102.29421 
L 207.863156 164.64786 
L 209.08183 189.681204 
L 209.995835 203.444532 
L 210.605171 209.749701 
L 211.214508 213.553289 
L 211.519176 214.482608 
L 211.823844 214.753888 
L 212.128513 214.365318 
L 212.433181 213.319491 
L 212.737849 211.62339 
L 213.347186 206.329927 
L 213.956523 198.626057 
L 214.870527 183.01629 
L 215.784532 163.392817 
L 217.307874 125.035267 
L 219.74522 63.294105 
L 220.659225 44.55978 
L 221.57323 30.094227 
L 222.182567 23.261578 
L 222.791903 18.89928 
L 223.096572 17.683528 
L 223.40124 17.123638 
L 223.705908 17.223348 
L 224.010577 17.981991 
L 224.315245 19.394504 
L 224.924582 24.139112 
L 225.533918 31.330676 
L 226.447923 46.270036 
L 227.361928 65.375861 
L 228.88527 103.289294 
L 231.322616 165.518818 
L 232.541289 190.345654 
L 233.455294 203.906406 
L 234.064631 210.06035 
L 234.673967 213.70443 
L 234.978636 214.552213 
L 235.283304 214.741493 
L 235.587972 214.271004 
L 235.892641 213.143889 
L 236.501977 208.954212 
L 237.111314 202.284162 
L 237.72065 193.311569 
L 238.634655 176.073944 
L 239.853328 147.703516 
L 243.814016 49.632807 
L 244.728021 33.819252 
L 245.337358 25.958554 
L 245.946695 20.496305 
L 246.556031 17.578133 
L 246.860699 17.100107 
L 247.165368 17.281838 
L 247.470036 18.122113 
L 247.774704 19.615322 
L 248.384041 24.516369 
L 248.993378 31.854316 
L 249.907383 46.985952 
L 250.821387 66.241226 
L 252.344729 104.285682 
L 254.782075 166.384659 
L 256.000749 191.002425 
L 256.914754 204.359201 
L 257.52409 210.361285 
L 258.133427 213.845481 
L 258.438095 214.611641 
L 258.742763 214.7189 
L 259.047432 214.166542 
L 259.3521 212.958254 
L 259.961437 208.610485 
L 260.570773 201.791506 
L 261.18011 192.683119 
L 262.094115 175.274231 
L 263.312788 146.751236 
L 266.968808 55.045264 
L 267.882812 37.964683 
L 268.796817 25.547392 
L 269.406154 20.239679 
L 269.710822 18.536197 
L 270.015491 17.482884 
L 270.320159 17.086773 
L 270.624827 17.350507 
L 270.929496 18.272327 
L 271.234164 19.846077 
L 271.8435 24.903059 
L 272.452837 32.38663 
L 273.366842 47.70898 
L 274.280847 67.111718 
L 275.804188 105.28327 
L 278.241535 167.245293 
L 279.15554 186.213714 
L 280.069545 200.977158 
L 280.678881 208.03517 
L 281.288218 212.637311 
L 281.592886 213.976428 
L 281.897555 214.660885 
L 282.202223 214.686113 
L 282.506891 214.051942 
L 282.811559 212.762607 
L 283.420896 208.257193 
L 284.030233 201.28999 
L 284.944238 186.646424 
L 285.858242 167.771995 
L 287.381584 130.065621 
L 289.81893 67.649614 
L 291.037604 42.509291 
L 291.951609 28.640578 
L 292.560945 22.256576 
L 293.170282 18.369719 
L 293.47495 17.397793 
L 293.779618 17.083637 
L 294.084287 17.429347 
L 294.388955 18.432616 
L 294.693623 20.086745 
L 295.30296 25.299139 
L 295.912297 32.927563 
L 296.826301 48.439047 
L 297.740306 67.987245 
L 299.263648 106.281955 
L 301.700994 168.100631 
L 302.614999 186.915854 
L 303.529004 201.484098 
L 304.138341 208.394325 
L 304.747677 212.839107 
L 305.052346 214.097257 
L 305.357014 214.699941 
L 305.661682 214.643134 
L 305.966351 213.927216 
L 306.271019 212.556967 
L 306.880355 207.894374 
L 307.489692 200.779665 
L 308.403697 185.941483 
L 309.317702 166.914608 
L 310.841043 129.071259 
L 313.27839 66.776014 
L 314.497063 41.840852 
L 315.411068 28.173975 
L 316.020405 21.940859 
L 316.629741 18.213307 
L 316.93441 17.322868 
L 317.239078 17.090699 
L 317.543746 17.518349 
L 317.848414 18.602964 
L 318.457751 22.709784 
L 319.067088 29.301668 
L 319.676424 38.20287 
L 320.590429 55.350212 
L 321.809102 83.63968 
L 325.76979 181.816718 
L 326.683795 197.727185 
L 327.293132 205.662651 
L 327.902469 211.205501 
L 328.511805 214.207956 
L 328.816473 214.728804 
L 329.121142 214.589969 
L 329.42581 213.792378 
L 329.730478 212.341356 
L 330.339815 207.522065 
L 330.949152 200.260584 
L 331.863156 185.229317 
L 332.777161 166.051959 
L 334.300503 128.07554 
L 336.737849 65.907485 
L 337.956523 41.180056 
L 338.870527 27.716426 
L 339.479864 21.63484 
L 340.089201 18.066977 
L 340.393869 17.258117 
L 340.698537 17.107959 
L 341.003206 17.617505 
L 341.307874 18.783354 
L 341.917211 23.048494 
L 342.526547 29.789669 
L 343.135884 38.827151 
L 344.049889 56.146689 
L 345.268562 84.590257 
L 348.924582 176.38015 
L 349.838586 193.55137 
L 350.752591 206.078673 
L 351.361928 211.46728 
L 351.666596 213.212677 
L 351.971265 214.308513 
L 352.275933 214.747472 
L 352.580601 214.526623 
L 352.88527 213.647441 
L 353.189938 212.115795 
L 353.799274 207.140304 
L 354.408611 199.7328 
L 355.322616 184.509999 
L 356.236621 165.184137 
L 357.759962 127.078567 
L 358.064631 119.023819 
L 358.064631 119.023819 
" clip-path="url(#paf315c7837)" style="fill: none; stroke-dasharray: 5.55,2.4; stroke-dashoffset: 0; stroke: #0000ff; stroke-width: 1.5"/>
   </g>
   <g id="patch_3">
    <path d="M 38.482813 224.64 
L 38.482813 7.2 
" style="fill: none; stroke: #000000; stroke-width: 0.8; stroke-linejoin: miter; stroke-linecap: square"/>
   </g>
   <g id="patch_4">
    <path d="M 373.282813 224.64 
L 373.282813 7.2 
" style="fill: none; stroke: #000000; stroke-width: 0.8; stroke-linejoin: miter; stroke-linecap: square"/>
   </g>
   <g id="patch_5">
    <path d="M 38.482813 224.64 
L 373.282813 224.64 
" style="fill: none; stroke: #000000; stroke-width: 0.8; stroke-linejoin: miter; stroke-linecap: square"/>
   </g>
   <g id="patch_6">
    <path d="M 38.482813 7.2 
L 373.282813 7.2 
" style="fill: none; stroke: #000000; stroke-width: 0.8; stroke-linejoin: miter; stroke-linecap: square"/>
   </g>
   <g id="legend_1">
    <g id="patch_7">
     <path d="M 270.95625 132.098125 
L 366.282812 132.098125 
Q 368.282812 132.098125 368.282812 130.098125 
L 368.282812 101.741875 
Q 368.282812 99.741875 366.282812 99.741875 
L 270.95625 99.741875 
Q 268.95625 99.741875 268.95625 101.741875 
L 268.95625 130.098125 
Q 268.95625 132.098125 270.95625 132.098125 
z
" style="fill: #ffffff; opacity: 0.8; stroke: #cccccc; stroke-linejoin: miter"/>
    </g>
    <g id="line2d_29">
     <path d="M 272.95625 107.840312 
L 282.95625 107.840312 
L 292.95625 107.840312 
" style="fill: none; stroke: #000000; stroke-width: 1.5; stroke-linecap: square"/>
    </g>
    <g id="text_14">
     <!-- General -->
     <g transform="translate(300.95625 111.340312)scale(0.1 -0.1)">
      <defs>
       <path id="DejaVuSans-47" d="M 3809 666 
L 3809 1919 
L 2778 1919 
L 2778 2438 
L 4434 2438 
L 4434 434 
Q 4069 175 3628 42 
Q 3188 -91 2688 -91 
Q 1594 -91 976 548 
Q 359 1188 359 2328 
Q 359 3472 976 4111 
Q 1594 4750 2688 4750 
Q 3144 4750 3555 4637 
Q 3966 4525 4313 4306 
L 4313 3634 
Q 3963 3931 3569 4081 
Q 3175 4231 2741 4231 
Q 1884 4231 1454 3753 
Q 1025 3275 1025 2328 
Q 1025 1384 1454 906 
Q 1884 428 2741 428 
Q 3075 428 3337 486 
Q 3600 544 3809 666 
z
" transform="scale(0.015625)"/>
       <path id="DejaVuSans-65" d="M 3597 1894 
L 3597 1613 
L 953 1613 
Q 991 1019 1311 708 
Q 1631 397 2203 397 
Q 2534 397 2845 478 
Q 3156 559 3463 722 
L 3463 178 
Q 3153 47 2828 -22 
Q 2503 -91 2169 -91 
Q 1331 -91 842 396 
Q 353 884 353 1716 
Q 353 2575 817 3079 
Q 1281 3584 2069 3584 
Q 2775 3584 3186 3129 
Q 3597 2675 3597 1894 
z
M 3022 2063 
Q 3016 2534 2758 2815 
Q 2500 3097 2075 3097 
Q 1594 3097 1305 2825 
Q 1016 2553 972 2059 
L 3022 2063 
z
" transform="scale(0.015625)"/>
       <path id="DejaVuSans-6e" d="M 3513 2113 
L 3513 0 
L 2938 0 
L 2938 2094 
Q 2938 2591 2744 2837 
Q 2550 3084 2163 3084 
Q 1697 3084 1428 2787 
Q 1159 2491 1159 1978 
L 1159 0 
L 581 0 
L 581 3500 
L 1159 3500 
L 1159 2956 
Q 1366 3272 1645 3428 
Q 1925 3584 2291 3584 
Q 2894 3584 3203 3211 
Q 3513 2838 3513 2113 
z
" transform="scale(0.015625)"/>
       <path id="DejaVuSans-72" d="M 2631 2963 
Q 2534 3019 2420 3045 
Q 2306 3072 2169 3072 
Q 1681 3072 1420 2755 
Q 1159 2438 1159 1844 
L 1159 0 
L 581 0 
L 581 3500 
L 1159 3500 
L 1159 2956 
Q 1341 3275 1631 3429 
Q 1922 3584 2338 3584 
Q 2397 3584 2469 3576 
Q 2541 3569 2628 3553 
L 2631 2963 
z
" transform="scale(0.015625)"/>
       <path id="DejaVuSans-61" d="M 2194 1759 
Q 1497 1759 1228 1600 
Q 959 1441 959 1056 
Q 959 750 1161 570 
Q 1363 391 1709 391 
Q 2188 391 2477 730 
Q 2766 1069 2766 1631 
L 2766 1759 
L 2194 1759 
z
M 3341 1997 
L 3341 0 
L 2766 0 
L 2766 531 
Q 2569 213 2275 61 
Q 1981 -91 1556 -91 
Q 1019 -91 701 211 
Q 384 513 384 1019 
Q 384 1609 779 1909 
Q 1175 2209 1959 2209 
L 2766 2209 
L 2766 2266 
Q 2766 2663 2505 2880 
Q 2244 3097 1772 3097 
Q 1472 3097 1187 3025 
Q 903 2953 641 2809 
L 641 3341 
Q 956 3463 1253 3523 
Q 1550 3584 1831 3584 
Q 2591 3584 2966 3190 
Q 3341 2797 3341 1997 
z
" transform="scale(0.015625)"/>
       <path id="DejaVuSans-6c" d="M 603 4863 
L 1178 4863 
L 1178 0 
L 603 0 
L 603 4863 
z
" transform="scale(0.015625)"/>
      </defs>
      <use xlink:href="#DejaVuSans-47"/>
      <use xlink:href="#DejaVuSans-65" x="77.490234"/>
      <use xlink:href="#DejaVuSans-6e" x="139.013672"/>
      <use xlink:href="#DejaVuSans-65" x="202.392578"/>
      <use xlink:href="#DejaVuSans-72" x="263.916016"/>
      <use xlink:href="#DejaVuSans-61" x="305.029297"/>
      <use xlink:href="#DejaVuSans-6c" x="366.308594"/>
     </g>
    </g>
    <g id="line2d_30">
     <path d="M 272.95625 122.518437 
L 282.95625 122.518437 
L 292.95625 122.518437 
" style="fill: none; stroke-dasharray: 5.55,2.4; stroke-dashoffset: 0; stroke: #0000ff; stroke-width: 1.5"/>
    </g>
    <g id="text_15">
     <!-- Steady state -->
     <g transform="translate(300.95625 126.018437)scale(0.1 -0.1)">
      <defs>
       <path id="DejaVuSans-53" d="M 3425 4513 
L 3425 3897 
Q 3066 4069 2747 4153 
Q 2428 4238 2131 4238 
Q 1616 4238 1336 4038 
Q 1056 3838 1056 3469 
Q 1056 3159 1242 3001 
Q 1428 2844 1947 2747 
L 2328 2669 
Q 3034 2534 3370 2195 
Q 3706 1856 3706 1288 
Q 3706 609 3251 259 
Q 2797 -91 1919 -91 
Q 1588 -91 1214 -16 
Q 841 59 441 206 
L 441 856 
Q 825 641 1194 531 
Q 1563 422 1919 422 
Q 2459 422 2753 634 
Q 3047 847 3047 1241 
Q 3047 1584 2836 1778 
Q 2625 1972 2144 2069 
L 1759 2144 
Q 1053 2284 737 2584 
Q 422 2884 422 3419 
Q 422 4038 858 4394 
Q 1294 4750 2059 4750 
Q 2388 4750 2728 4690 
Q 3069 4631 3425 4513 
z
" transform="scale(0.015625)"/>
       <path id="DejaVuSans-74" d="M 1172 4494 
L 1172 3500 
L 2356 3500 
L 2356 3053 
L 1172 3053 
L 1172 1153 
Q 1172 725 1289 603 
Q 1406 481 1766 481 
L 2356 481 
L 2356 0 
L 1766 0 
Q 1100 0 847 248 
Q 594 497 594 1153 
L 594 3053 
L 172 3053 
L 172 3500 
L 594 3500 
L 594 4494 
L 1172 4494 
z
" transform="scale(0.015625)"/>
       <path id="DejaVuSans-64" d="M 2906 2969 
L 2906 4863 
L 3481 4863 
L 3481 0 
L 2906 0 
L 2906 525 
Q 2725 213 2448 61 
Q 2172 -91 1784 -91 
Q 1150 -91 751 415 
Q 353 922 353 1747 
Q 353 2572 751 3078 
Q 1150 3584 1784 3584 
Q 2172 3584 2448 3432 
Q 2725 3281 2906 2969 
z
M 947 1747 
Q 947 1113 1208 752 
Q 1469 391 1925 391 
Q 2381 391 2643 752 
Q 2906 1113 2906 1747 
Q 2906 2381 2643 2742 
Q 2381 3103 1925 3103 
Q 1469 3103 1208 2742 
Q 947 2381 947 1747 
z
" transform="scale(0.015625)"/>
       <path id="DejaVuSans-79" d="M 2059 -325 
Q 1816 -950 1584 -1140 
Q 1353 -1331 966 -1331 
L 506 -1331 
L 506 -850 
L 844 -850 
Q 1081 -850 1212 -737 
Q 1344 -625 1503 -206 
L 1606 56 
L 191 3500 
L 800 3500 
L 1894 763 
L 2988 3500 
L 3597 3500 
L 2059 -325 
z
" transform="scale(0.015625)"/>
       <path id="DejaVuSans-20" transform="scale(0.015625)"/>
       <path id="DejaVuSans-73" d="M 2834 3397 
L 2834 2853 
Q 2591 2978 2328 3040 
Q 2066 3103 1784 3103 
Q 1356 3103 1142 2972 
Q 928 2841 928 2578 
Q 928 2378 1081 2264 
Q 1234 2150 1697 2047 
L 1894 2003 
Q 2506 1872 2764 1633 
Q 3022 1394 3022 966 
Q 3022 478 2636 193 
Q 2250 -91 1575 -91 
Q 1294 -91 989 -36 
Q 684 19 347 128 
L 347 722 
Q 666 556 975 473 
Q 1284 391 1588 391 
Q 1994 391 2212 530 
Q 2431 669 2431 922 
Q 2431 1156 2273 1281 
Q 2116 1406 1581 1522 
L 1381 1569 
Q 847 1681 609 1914 
Q 372 2147 372 2553 
Q 372 3047 722 3315 
Q 1072 3584 1716 3584 
Q 2034 3584 2315 3537 
Q 2597 3491 2834 3397 
z
" transform="scale(0.015625)"/>
      </defs>
      <use xlink:href="#DejaVuSans-53"/>
      <use xlink:href="#DejaVuSans-74" x="63.476562"/>
      <use xlink:href="#DejaVuSans-65" x="102.685547"/>
      <use xlink:href="#DejaVuSans-61" x="164.208984"/>
      <use xlink:href="#DejaVuSans-64" x="225.488281"/>
      <use xlink:href="#DejaVuSans-79" x="288.964844"/>
      <use xlink:href="#DejaVuSans-20" x="348.144531"/>
      <use xlink:href="#DejaVuSans-73" x="379.931641"/>
      <use xlink:href="#DejaVuSans-74" x="432.03125"/>
      <use xlink:href="#DejaVuSans-61" x="471.240234"/>
      <use xlink:href="#DejaVuSans-74" x="532.519531"/>
      <use xlink:href="#DejaVuSans-65" x="571.728516"/>
     </g>
    </g>
   </g>
  </g>
 </g>
 <defs>
  <clipPath id="paf315c7837">
   <rect x="38.482813" y="7.2" width="334.8" height="217.44"/>
  </clipPath>
 </defs>
</svg>
