<?xml version="1.0" encoding="utf-8" standalone="no"?>
<!DOCTYPE svg PUBLIC "-//W3C//DTD SVG 1.1//EN"
  "http://www.w3.org/Graphics/SVG/1.1/DTD/svg11.dtd">
<svg xmlns:xlink="http://www.w3.org/1999/xlink" width="372.103125pt" height="248.518125pt" viewBox="0 0 372.103125 248.518125" xmlns="http://www.w3.org/2000/svg" version="1.1">
 <metadata>
  <rdf:RDF xmlns:dc="http://purl.org/dc/elements/1.1/" xmlns:cc="http://creativecommons.org/ns#" xmlns:rdf="http://www.w3.org/1999/02/22-rdf-syntax-ns#">
   <cc:Work>
    <dc:type rdf:resource="http://purl.org/dc/dcmitype/StillImage"/>
    <dc:date>2021-12-03T14:36:16.127677</dc:date>
    <dc:format>image/svg+xml</dc:format>
    <dc:creator>
     <cc:Agent>
      <dc:title>Matplotlib v3.5.0, https://matplotlib.org/</dc:title>
     </cc:Agent>
    </dc:creator>
   </cc:Work>
  </rdf:RDF>
 </metadata>
 <defs>
  <style type="text/css">*{stroke-linejoin: round; stroke-linecap: butt}</style>
 </defs>
 <g id="figure_1">
  <g id="patch_1">
   <path d="M 0 248.518125 
L 372.103125 248.518125 
L 372.103125 0 
L 0 0 
L 0 248.518125 
z
" style="fill: none"/>
  </g>
  <g id="axes_1">
   <g id="patch_2">
    <path d="M 30.103125 224.64 
L 364.903125 224.64 
L 364.903125 7.2 
L 30.103125 7.2 
z
" style="fill: #ffffff"/>
   </g>
   <g id="patch_3">
    <path d="M 45.321307 224.64 
L 50.394034 224.64 
L 50.394034 208.71033 
L 45.321307 208.71033 
z
" clip-path="url(#p0a33fce92c)" style="fill: #808080; stroke: #000000; stroke-linejoin: miter"/>
   </g>
   <g id="patch_4">
    <path d="M 50.394034 224.64 
L 55.466761 224.64 
L 55.466761 224.64 
L 50.394034 224.64 
z
" clip-path="url(#p0a33fce92c)" style="fill: #808080; stroke: #000000; stroke-linejoin: miter"/>
   </g>
   <g id="patch_5">
    <path d="M 55.466761 224.64 
L 60.539489 224.64 
L 60.539489 224.64 
L 55.466761 224.64 
z
" clip-path="url(#p0a33fce92c)" style="fill: #808080; stroke: #000000; stroke-linejoin: miter"/>
   </g>
   <g id="patch_6">
    <path d="M 60.539489 224.64 
L 65.612216 224.64 
L 65.612216 224.64 
L 60.539489 224.64 
z
" clip-path="url(#p0a33fce92c)" style="fill: #808080; stroke: #000000; stroke-linejoin: miter"/>
   </g>
   <g id="patch_7">
    <path d="M 65.612216 224.64 
L 70.684943 224.64 
L 70.684943 224.64 
L 65.612216 224.64 
z
" clip-path="url(#p0a33fce92c)" style="fill: #808080; stroke: #000000; stroke-linejoin: miter"/>
   </g>
   <g id="patch_8">
    <path d="M 70.684943 224.64 
L 75.75767 224.64 
L 75.75767 224.64 
L 70.684943 224.64 
z
" clip-path="url(#p0a33fce92c)" style="fill: #808080; stroke: #000000; stroke-linejoin: miter"/>
   </g>
   <g id="patch_9">
    <path d="M 75.75767 224.64 
L 80.830398 224.64 
L 80.830398 176.850989 
L 75.75767 176.850989 
z
" clip-path="url(#p0a33fce92c)" style="fill: #808080; stroke: #000000; stroke-linejoin: miter"/>
   </g>
   <g id="patch_10">
    <path d="M 80.830398 224.64 
L 85.903125 224.64 
L 85.903125 224.64 
L 80.830398 224.64 
z
" clip-path="url(#p0a33fce92c)" style="fill: #808080; stroke: #000000; stroke-linejoin: miter"/>
   </g>
   <g id="patch_11">
    <path d="M 85.903125 224.64 
L 90.975852 224.64 
L 90.975852 224.64 
L 85.903125 224.64 
z
" clip-path="url(#p0a33fce92c)" style="fill: #808080; stroke: #000000; stroke-linejoin: miter"/>
   </g>
   <g id="patch_12">
    <path d="M 90.975852 224.64 
L 96.04858 224.64 
L 96.04858 224.64 
L 90.975852 224.64 
z
" clip-path="url(#p0a33fce92c)" style="fill: #808080; stroke: #000000; stroke-linejoin: miter"/>
   </g>
   <g id="patch_13">
    <path d="M 96.04858 224.64 
L 101.121307 224.64 
L 101.121307 224.64 
L 96.04858 224.64 
z
" clip-path="url(#p0a33fce92c)" style="fill: #808080; stroke: #000000; stroke-linejoin: miter"/>
   </g>
   <g id="patch_14">
    <path d="M 101.121307 224.64 
L 106.194034 224.64 
L 106.194034 224.64 
L 101.121307 224.64 
z
" clip-path="url(#p0a33fce92c)" style="fill: #808080; stroke: #000000; stroke-linejoin: miter"/>
   </g>
   <g id="patch_15">
    <path d="M 106.194034 224.64 
L 111.266761 224.64 
L 111.266761 224.64 
L 106.194034 224.64 
z
" clip-path="url(#p0a33fce92c)" style="fill: #808080; stroke: #000000; stroke-linejoin: miter"/>
   </g>
   <g id="patch_16">
    <path d="M 111.266761 224.64 
L 116.339489 224.64 
L 116.339489 144.991648 
L 111.266761 144.991648 
z
" clip-path="url(#p0a33fce92c)" style="fill: #808080; stroke: #000000; stroke-linejoin: miter"/>
   </g>
   <g id="patch_17">
    <path d="M 116.339489 224.64 
L 121.412216 224.64 
L 121.412216 224.64 
L 116.339489 224.64 
z
" clip-path="url(#p0a33fce92c)" style="fill: #808080; stroke: #000000; stroke-linejoin: miter"/>
   </g>
   <g id="patch_18">
    <path d="M 121.412216 224.64 
L 126.484943 224.64 
L 126.484943 224.64 
L 121.412216 224.64 
z
" clip-path="url(#p0a33fce92c)" style="fill: #808080; stroke: #000000; stroke-linejoin: miter"/>
   </g>
   <g id="patch_19">
    <path d="M 126.484943 224.64 
L 131.55767 224.64 
L 131.55767 224.64 
L 126.484943 224.64 
z
" clip-path="url(#p0a33fce92c)" style="fill: #808080; stroke: #000000; stroke-linejoin: miter"/>
   </g>
   <g id="patch_20">
    <path d="M 131.55767 224.64 
L 136.630398 224.64 
L 136.630398 224.64 
L 131.55767 224.64 
z
" clip-path="url(#p0a33fce92c)" style="fill: #808080; stroke: #000000; stroke-linejoin: miter"/>
   </g>
   <g id="patch_21">
    <path d="M 136.630398 224.64 
L 141.703125 224.64 
L 141.703125 224.64 
L 136.630398 224.64 
z
" clip-path="url(#p0a33fce92c)" style="fill: #808080; stroke: #000000; stroke-linejoin: miter"/>
   </g>
   <g id="patch_22">
    <path d="M 141.703125 224.64 
L 146.775852 224.64 
L 146.775852 224.64 
L 141.703125 224.64 
z
" clip-path="url(#p0a33fce92c)" style="fill: #808080; stroke: #000000; stroke-linejoin: miter"/>
   </g>
   <g id="patch_23">
    <path d="M 146.775852 224.64 
L 151.84858 224.64 
L 151.84858 81.272967 
L 146.775852 81.272967 
z
" clip-path="url(#p0a33fce92c)" style="fill: #808080; stroke: #000000; stroke-linejoin: miter"/>
   </g>
   <g id="patch_24">
    <path d="M 151.84858 224.64 
L 156.921307 224.64 
L 156.921307 224.64 
L 151.84858 224.64 
z
" clip-path="url(#p0a33fce92c)" style="fill: #808080; stroke: #000000; stroke-linejoin: miter"/>
   </g>
   <g id="patch_25">
    <path d="M 156.921307 224.64 
L 161.994034 224.64 
L 161.994034 224.64 
L 156.921307 224.64 
z
" clip-path="url(#p0a33fce92c)" style="fill: #808080; stroke: #000000; stroke-linejoin: miter"/>
   </g>
   <g id="patch_26">
    <path d="M 161.994034 224.64 
L 167.066761 224.64 
L 167.066761 224.64 
L 161.994034 224.64 
z
" clip-path="url(#p0a33fce92c)" style="fill: #808080; stroke: #000000; stroke-linejoin: miter"/>
   </g>
   <g id="patch_27">
    <path d="M 167.066761 224.64 
L 172.139489 224.64 
L 172.139489 224.64 
L 167.066761 224.64 
z
" clip-path="url(#p0a33fce92c)" style="fill: #808080; stroke: #000000; stroke-linejoin: miter"/>
   </g>
   <g id="patch_28">
    <path d="M 172.139489 224.64 
L 177.212216 224.64 
L 177.212216 224.64 
L 172.139489 224.64 
z
" clip-path="url(#p0a33fce92c)" style="fill: #808080; stroke: #000000; stroke-linejoin: miter"/>
   </g>
   <g id="patch_29">
    <path d="M 177.212216 224.64 
L 182.284943 224.64 
L 182.284943 97.202637 
L 177.212216 97.202637 
z
" clip-path="url(#p0a33fce92c)" style="fill: #808080; stroke: #000000; stroke-linejoin: miter"/>
   </g>
   <g id="patch_30">
    <path d="M 182.284943 224.64 
L 187.35767 224.64 
L 187.35767 224.64 
L 182.284943 224.64 
z
" clip-path="url(#p0a33fce92c)" style="fill: #808080; stroke: #000000; stroke-linejoin: miter"/>
   </g>
   <g id="patch_31">
    <path d="M 187.35767 224.64 
L 192.430398 224.64 
L 192.430398 224.64 
L 187.35767 224.64 
z
" clip-path="url(#p0a33fce92c)" style="fill: #808080; stroke: #000000; stroke-linejoin: miter"/>
   </g>
   <g id="patch_32">
    <path d="M 192.430398 224.64 
L 197.503125 224.64 
L 197.503125 224.64 
L 192.430398 224.64 
z
" clip-path="url(#p0a33fce92c)" style="fill: #808080; stroke: #000000; stroke-linejoin: miter"/>
   </g>
   <g id="patch_33">
    <path d="M 197.503125 224.64 
L 202.575852 224.64 
L 202.575852 224.64 
L 197.503125 224.64 
z
" clip-path="url(#p0a33fce92c)" style="fill: #808080; stroke: #000000; stroke-linejoin: miter"/>
   </g>
   <g id="patch_34">
    <path d="M 202.575852 224.64 
L 207.64858 224.64 
L 207.64858 224.64 
L 202.575852 224.64 
z
" clip-path="url(#p0a33fce92c)" style="fill: #808080; stroke: #000000; stroke-linejoin: miter"/>
   </g>
   <g id="patch_35">
    <path d="M 207.64858 224.64 
L 212.721307 224.64 
L 212.721307 224.64 
L 207.64858 224.64 
z
" clip-path="url(#p0a33fce92c)" style="fill: #808080; stroke: #000000; stroke-linejoin: miter"/>
   </g>
   <g id="patch_36">
    <path d="M 212.721307 224.64 
L 217.794034 224.64 
L 217.794034 17.554286 
L 212.721307 17.554286 
z
" clip-path="url(#p0a33fce92c)" style="fill: #808080; stroke: #000000; stroke-linejoin: miter"/>
   </g>
   <g id="patch_37">
    <path d="M 217.794034 224.64 
L 222.866761 224.64 
L 222.866761 224.64 
L 217.794034 224.64 
z
" clip-path="url(#p0a33fce92c)" style="fill: #808080; stroke: #000000; stroke-linejoin: miter"/>
   </g>
   <g id="patch_38">
    <path d="M 222.866761 224.64 
L 227.939489 224.64 
L 227.939489 224.64 
L 222.866761 224.64 
z
" clip-path="url(#p0a33fce92c)" style="fill: #808080; stroke: #000000; stroke-linejoin: miter"/>
   </g>
   <g id="patch_39">
    <path d="M 227.939489 224.64 
L 233.012216 224.64 
L 233.012216 224.64 
L 227.939489 224.64 
z
" clip-path="url(#p0a33fce92c)" style="fill: #808080; stroke: #000000; stroke-linejoin: miter"/>
   </g>
   <g id="patch_40">
    <path d="M 233.012216 224.64 
L 238.084943 224.64 
L 238.084943 224.64 
L 233.012216 224.64 
z
" clip-path="url(#p0a33fce92c)" style="fill: #808080; stroke: #000000; stroke-linejoin: miter"/>
   </g>
   <g id="patch_41">
    <path d="M 238.084943 224.64 
L 243.15767 224.64 
L 243.15767 224.64 
L 238.084943 224.64 
z
" clip-path="url(#p0a33fce92c)" style="fill: #808080; stroke: #000000; stroke-linejoin: miter"/>
   </g>
   <g id="patch_42">
    <path d="M 243.15767 224.64 
L 248.230398 224.64 
L 248.230398 224.64 
L 243.15767 224.64 
z
" clip-path="url(#p0a33fce92c)" style="fill: #808080; stroke: #000000; stroke-linejoin: miter"/>
   </g>
   <g id="patch_43">
    <path d="M 248.230398 224.64 
L 253.303125 224.64 
L 253.303125 97.202637 
L 248.230398 97.202637 
z
" clip-path="url(#p0a33fce92c)" style="fill: #808080; stroke: #000000; stroke-linejoin: miter"/>
   </g>
   <g id="patch_44">
    <path d="M 253.303125 224.64 
L 258.375852 224.64 
L 258.375852 224.64 
L 253.303125 224.64 
z
" clip-path="url(#p0a33fce92c)" style="fill: #808080; stroke: #000000; stroke-linejoin: miter"/>
   </g>
   <g id="patch_45">
    <path d="M 258.375852 224.64 
L 263.44858 224.64 
L 263.44858 224.64 
L 258.375852 224.64 
z
" clip-path="url(#p0a33fce92c)" style="fill: #808080; stroke: #000000; stroke-linejoin: miter"/>
   </g>
   <g id="patch_46">
    <path d="M 263.44858 224.64 
L 268.521307 224.64 
L 268.521307 224.64 
L 263.44858 224.64 
z
" clip-path="url(#p0a33fce92c)" style="fill: #808080; stroke: #000000; stroke-linejoin: miter"/>
   </g>
   <g id="patch_47">
    <path d="M 268.521307 224.64 
L 273.594034 224.64 
L 273.594034 224.64 
L 268.521307 224.64 
z
" clip-path="url(#p0a33fce92c)" style="fill: #808080; stroke: #000000; stroke-linejoin: miter"/>
   </g>
   <g id="patch_48">
    <path d="M 273.594034 224.64 
L 278.666761 224.64 
L 278.666761 224.64 
L 273.594034 224.64 
z
" clip-path="url(#p0a33fce92c)" style="fill: #808080; stroke: #000000; stroke-linejoin: miter"/>
   </g>
   <g id="patch_49">
    <path d="M 278.666761 224.64 
L 283.739489 224.64 
L 283.739489 144.991648 
L 278.666761 144.991648 
z
" clip-path="url(#p0a33fce92c)" style="fill: #808080; stroke: #000000; stroke-linejoin: miter"/>
   </g>
   <g id="patch_50">
    <path d="M 283.739489 224.64 
L 288.812216 224.64 
L 288.812216 224.64 
L 283.739489 224.64 
z
" clip-path="url(#p0a33fce92c)" style="fill: #808080; stroke: #000000; stroke-linejoin: miter"/>
   </g>
   <g id="patch_51">
    <path d="M 288.812216 224.64 
L 293.884943 224.64 
L 293.884943 224.64 
L 288.812216 224.64 
z
" clip-path="url(#p0a33fce92c)" style="fill: #808080; stroke: #000000; stroke-linejoin: miter"/>
   </g>
   <g id="patch_52">
    <path d="M 293.884943 224.64 
L 298.95767 224.64 
L 298.95767 224.64 
L 293.884943 224.64 
z
" clip-path="url(#p0a33fce92c)" style="fill: #808080; stroke: #000000; stroke-linejoin: miter"/>
   </g>
   <g id="patch_53">
    <path d="M 298.95767 224.64 
L 304.030398 224.64 
L 304.030398 224.64 
L 298.95767 224.64 
z
" clip-path="url(#p0a33fce92c)" style="fill: #808080; stroke: #000000; stroke-linejoin: miter"/>
   </g>
   <g id="patch_54">
    <path d="M 304.030398 224.64 
L 309.103125 224.64 
L 309.103125 224.64 
L 304.030398 224.64 
z
" clip-path="url(#p0a33fce92c)" style="fill: #808080; stroke: #000000; stroke-linejoin: miter"/>
   </g>
   <g id="patch_55">
    <path d="M 309.103125 224.64 
L 314.175852 224.64 
L 314.175852 224.64 
L 309.103125 224.64 
z
" clip-path="url(#p0a33fce92c)" style="fill: #808080; stroke: #000000; stroke-linejoin: miter"/>
   </g>
   <g id="patch_56">
    <path d="M 314.175852 224.64 
L 319.24858 224.64 
L 319.24858 192.780659 
L 314.175852 192.780659 
z
" clip-path="url(#p0a33fce92c)" style="fill: #808080; stroke: #000000; stroke-linejoin: miter"/>
   </g>
   <g id="patch_57">
    <path d="M 319.24858 224.64 
L 324.321307 224.64 
L 324.321307 224.64 
L 319.24858 224.64 
z
" clip-path="url(#p0a33fce92c)" style="fill: #808080; stroke: #000000; stroke-linejoin: miter"/>
   </g>
   <g id="patch_58">
    <path d="M 324.321307 224.64 
L 329.394034 224.64 
L 329.394034 224.64 
L 324.321307 224.64 
z
" clip-path="url(#p0a33fce92c)" style="fill: #808080; stroke: #000000; stroke-linejoin: miter"/>
   </g>
   <g id="patch_59">
    <path d="M 329.394034 224.64 
L 334.466761 224.64 
L 334.466761 224.64 
L 329.394034 224.64 
z
" clip-path="url(#p0a33fce92c)" style="fill: #808080; stroke: #000000; stroke-linejoin: miter"/>
   </g>
   <g id="patch_60">
    <path d="M 334.466761 224.64 
L 339.539489 224.64 
L 339.539489 224.64 
L 334.466761 224.64 
z
" clip-path="url(#p0a33fce92c)" style="fill: #808080; stroke: #000000; stroke-linejoin: miter"/>
   </g>
   <g id="patch_61">
    <path d="M 339.539489 224.64 
L 344.612216 224.64 
L 344.612216 224.64 
L 339.539489 224.64 
z
" clip-path="url(#p0a33fce92c)" style="fill: #808080; stroke: #000000; stroke-linejoin: miter"/>
   </g>
   <g id="patch_62">
    <path d="M 344.612216 224.64 
L 349.684943 224.64 
L 349.684943 129.061978 
L 344.612216 129.061978 
z
" clip-path="url(#p0a33fce92c)" style="fill: #808080; stroke: #000000; stroke-linejoin: miter"/>
   </g>
   <g id="matplotlib.axis_1">
    <g id="xtick_1">
     <g id="line2d_1">
      <defs>
       <path id="m416a7b7341" d="M 0 0 
L 0 3.5 
" style="stroke: #000000; stroke-width: 0.8"/>
      </defs>
      <g>
       <use xlink:href="#m416a7b7341" x="45.321307" y="224.64" style="stroke: #000000; stroke-width: 0.8"/>
      </g>
     </g>
     <g id="text_1">
      <!-- 0 -->
      <g transform="translate(42.140057 239.238437)scale(0.1 -0.1)">
       <defs>
        <path id="DejaVuSans-30" d="M 2034 4250 
Q 1547 4250 1301 3770 
Q 1056 3291 1056 2328 
Q 1056 1369 1301 889 
Q 1547 409 2034 409 
Q 2525 409 2770 889 
Q 3016 1369 3016 2328 
Q 3016 3291 2770 3770 
Q 2525 4250 2034 4250 
z
M 2034 4750 
Q 2819 4750 3233 4129 
Q 3647 3509 3647 2328 
Q 3647 1150 3233 529 
Q 2819 -91 2034 -91 
Q 1250 -91 836 529 
Q 422 1150 422 2328 
Q 422 3509 836 4129 
Q 1250 4750 2034 4750 
z
" transform="scale(0.015625)"/>
       </defs>
       <use xlink:href="#DejaVuSans-30"/>
      </g>
     </g>
    </g>
    <g id="xtick_2">
     <g id="line2d_2">
      <g>
       <use xlink:href="#m416a7b7341" x="112.95767" y="224.64" style="stroke: #000000; stroke-width: 0.8"/>
      </g>
     </g>
     <g id="text_2">
      <!-- 2 -->
      <g transform="translate(109.77642 239.238437)scale(0.1 -0.1)">
       <defs>
        <path id="DejaVuSans-32" d="M 1228 531 
L 3431 531 
L 3431 0 
L 469 0 
L 469 531 
Q 828 903 1448 1529 
Q 2069 2156 2228 2338 
Q 2531 2678 2651 2914 
Q 2772 3150 2772 3378 
Q 2772 3750 2511 3984 
Q 2250 4219 1831 4219 
Q 1534 4219 1204 4116 
Q 875 4013 500 3803 
L 500 4441 
Q 881 4594 1212 4672 
Q 1544 4750 1819 4750 
Q 2544 4750 2975 4387 
Q 3406 4025 3406 3419 
Q 3406 3131 3298 2873 
Q 3191 2616 2906 2266 
Q 2828 2175 2409 1742 
Q 1991 1309 1228 531 
z
" transform="scale(0.015625)"/>
       </defs>
       <use xlink:href="#DejaVuSans-32"/>
      </g>
     </g>
    </g>
    <g id="xtick_3">
     <g id="line2d_3">
      <g>
       <use xlink:href="#m416a7b7341" x="180.594034" y="224.64" style="stroke: #000000; stroke-width: 0.8"/>
      </g>
     </g>
     <g id="text_3">
      <!-- 4 -->
      <g transform="translate(177.412784 239.238437)scale(0.1 -0.1)">
       <defs>
        <path id="DejaVuSans-34" d="M 2419 4116 
L 825 1625 
L 2419 1625 
L 2419 4116 
z
M 2253 4666 
L 3047 4666 
L 3047 1625 
L 3713 1625 
L 3713 1100 
L 3047 1100 
L 3047 0 
L 2419 0 
L 2419 1100 
L 313 1100 
L 313 1709 
L 2253 4666 
z
" transform="scale(0.015625)"/>
       </defs>
       <use xlink:href="#DejaVuSans-34"/>
      </g>
     </g>
    </g>
    <g id="xtick_4">
     <g id="line2d_4">
      <g>
       <use xlink:href="#m416a7b7341" x="248.230398" y="224.64" style="stroke: #000000; stroke-width: 0.8"/>
      </g>
     </g>
     <g id="text_4">
      <!-- 6 -->
      <g transform="translate(245.049148 239.238437)scale(0.1 -0.1)">
       <defs>
        <path id="DejaVuSans-36" d="M 2113 2584 
Q 1688 2584 1439 2293 
Q 1191 2003 1191 1497 
Q 1191 994 1439 701 
Q 1688 409 2113 409 
Q 2538 409 2786 701 
Q 3034 994 3034 1497 
Q 3034 2003 2786 2293 
Q 2538 2584 2113 2584 
z
M 3366 4563 
L 3366 3988 
Q 3128 4100 2886 4159 
Q 2644 4219 2406 4219 
Q 1781 4219 1451 3797 
Q 1122 3375 1075 2522 
Q 1259 2794 1537 2939 
Q 1816 3084 2150 3084 
Q 2853 3084 3261 2657 
Q 3669 2231 3669 1497 
Q 3669 778 3244 343 
Q 2819 -91 2113 -91 
Q 1303 -91 875 529 
Q 447 1150 447 2328 
Q 447 3434 972 4092 
Q 1497 4750 2381 4750 
Q 2619 4750 2861 4703 
Q 3103 4656 3366 4563 
z
" transform="scale(0.015625)"/>
       </defs>
       <use xlink:href="#DejaVuSans-36"/>
      </g>
     </g>
    </g>
    <g id="xtick_5">
     <g id="line2d_5">
      <g>
       <use xlink:href="#m416a7b7341" x="315.866761" y="224.64" style="stroke: #000000; stroke-width: 0.8"/>
      </g>
     </g>
     <g id="text_5">
      <!-- 8 -->
      <g transform="translate(312.685511 239.238437)scale(0.1 -0.1)">
       <defs>
        <path id="DejaVuSans-38" d="M 2034 2216 
Q 1584 2216 1326 1975 
Q 1069 1734 1069 1313 
Q 1069 891 1326 650 
Q 1584 409 2034 409 
Q 2484 409 2743 651 
Q 3003 894 3003 1313 
Q 3003 1734 2745 1975 
Q 2488 2216 2034 2216 
z
M 1403 2484 
Q 997 2584 770 2862 
Q 544 3141 544 3541 
Q 544 4100 942 4425 
Q 1341 4750 2034 4750 
Q 2731 4750 3128 4425 
Q 3525 4100 3525 3541 
Q 3525 3141 3298 2862 
Q 3072 2584 2669 2484 
Q 3125 2378 3379 2068 
Q 3634 1759 3634 1313 
Q 3634 634 3220 271 
Q 2806 -91 2034 -91 
Q 1263 -91 848 271 
Q 434 634 434 1313 
Q 434 1759 690 2068 
Q 947 2378 1403 2484 
z
M 1172 3481 
Q 1172 3119 1398 2916 
Q 1625 2713 2034 2713 
Q 2441 2713 2670 2916 
Q 2900 3119 2900 3481 
Q 2900 3844 2670 4047 
Q 2441 4250 2034 4250 
Q 1625 4250 1398 4047 
Q 1172 3844 1172 3481 
z
" transform="scale(0.015625)"/>
       </defs>
       <use xlink:href="#DejaVuSans-38"/>
      </g>
     </g>
    </g>
   </g>
   <g id="matplotlib.axis_2">
    <g id="ytick_1">
     <g id="line2d_6">
      <defs>
       <path id="mcb5b8b64ab" d="M 0 0 
L -3.5 0 
" style="stroke: #000000; stroke-width: 0.8"/>
      </defs>
      <g>
       <use xlink:href="#mcb5b8b64ab" x="30.103125" y="224.64" style="stroke: #000000; stroke-width: 0.8"/>
      </g>
     </g>
     <g id="text_6">
      <!-- 0.0 -->
      <g transform="translate(7.2 228.439219)scale(0.1 -0.1)">
       <defs>
        <path id="DejaVuSans-2e" d="M 684 794 
L 1344 794 
L 1344 0 
L 684 0 
L 684 794 
z
" transform="scale(0.015625)"/>
       </defs>
       <use xlink:href="#DejaVuSans-30"/>
       <use xlink:href="#DejaVuSans-2e" x="63.623047"/>
       <use xlink:href="#DejaVuSans-30" x="95.410156"/>
      </g>
     </g>
    </g>
    <g id="ytick_2">
     <g id="line2d_7">
      <g>
       <use xlink:href="#mcb5b8b64ab" x="30.103125" y="195.966593" style="stroke: #000000; stroke-width: 0.8"/>
      </g>
     </g>
     <g id="text_7">
      <!-- 0.2 -->
      <g transform="translate(7.2 199.765812)scale(0.1 -0.1)">
       <use xlink:href="#DejaVuSans-30"/>
       <use xlink:href="#DejaVuSans-2e" x="63.623047"/>
       <use xlink:href="#DejaVuSans-32" x="95.410156"/>
      </g>
     </g>
    </g>
    <g id="ytick_3">
     <g id="line2d_8">
      <g>
       <use xlink:href="#mcb5b8b64ab" x="30.103125" y="167.293187" style="stroke: #000000; stroke-width: 0.8"/>
      </g>
     </g>
     <g id="text_8">
      <!-- 0.4 -->
      <g transform="translate(7.2 171.092406)scale(0.1 -0.1)">
       <use xlink:href="#DejaVuSans-30"/>
       <use xlink:href="#DejaVuSans-2e" x="63.623047"/>
       <use xlink:href="#DejaVuSans-34" x="95.410156"/>
      </g>
     </g>
    </g>
    <g id="ytick_4">
     <g id="line2d_9">
      <g>
       <use xlink:href="#mcb5b8b64ab" x="30.103125" y="138.61978" style="stroke: #000000; stroke-width: 0.8"/>
      </g>
     </g>
     <g id="text_9">
      <!-- 0.6 -->
      <g transform="translate(7.2 142.418999)scale(0.1 -0.1)">
       <use xlink:href="#DejaVuSans-30"/>
       <use xlink:href="#DejaVuSans-2e" x="63.623047"/>
       <use xlink:href="#DejaVuSans-36" x="95.410156"/>
      </g>
     </g>
    </g>
    <g id="ytick_5">
     <g id="line2d_10">
      <g>
       <use xlink:href="#mcb5b8b64ab" x="30.103125" y="109.946374" style="stroke: #000000; stroke-width: 0.8"/>
      </g>
     </g>
     <g id="text_10">
      <!-- 0.8 -->
      <g transform="translate(7.2 113.745592)scale(0.1 -0.1)">
       <use xlink:href="#DejaVuSans-30"/>
       <use xlink:href="#DejaVuSans-2e" x="63.623047"/>
       <use xlink:href="#DejaVuSans-38" x="95.410156"/>
      </g>
     </g>
    </g>
    <g id="ytick_6">
     <g id="line2d_11">
      <g>
       <use xlink:href="#mcb5b8b64ab" x="30.103125" y="81.272967" style="stroke: #000000; stroke-width: 0.8"/>
      </g>
     </g>
     <g id="text_11">
      <!-- 1.0 -->
      <g transform="translate(7.2 85.072186)scale(0.1 -0.1)">
       <defs>
        <path id="DejaVuSans-31" d="M 794 531 
L 1825 531 
L 1825 4091 
L 703 3866 
L 703 4441 
L 1819 4666 
L 2450 4666 
L 2450 531 
L 3481 531 
L 3481 0 
L 794 0 
L 794 531 
z
" transform="scale(0.015625)"/>
       </defs>
       <use xlink:href="#DejaVuSans-31"/>
       <use xlink:href="#DejaVuSans-2e" x="63.623047"/>
       <use xlink:href="#DejaVuSans-30" x="95.410156"/>
      </g>
     </g>
    </g>
    <g id="ytick_7">
     <g id="line2d_12">
      <g>
       <use xlink:href="#mcb5b8b64ab" x="30.103125" y="52.59956" style="stroke: #000000; stroke-width: 0.8"/>
      </g>
     </g>
     <g id="text_12">
      <!-- 1.2 -->
      <g transform="translate(7.2 56.398779)scale(0.1 -0.1)">
       <use xlink:href="#DejaVuSans-31"/>
       <use xlink:href="#DejaVuSans-2e" x="63.623047"/>
       <use xlink:href="#DejaVuSans-32" x="95.410156"/>
      </g>
     </g>
    </g>
    <g id="ytick_8">
     <g id="line2d_13">
      <g>
       <use xlink:href="#mcb5b8b64ab" x="30.103125" y="23.926154" style="stroke: #000000; stroke-width: 0.8"/>
      </g>
     </g>
     <g id="text_13">
      <!-- 1.4 -->
      <g transform="translate(7.2 27.725373)scale(0.1 -0.1)">
       <use xlink:href="#DejaVuSans-31"/>
       <use xlink:href="#DejaVuSans-2e" x="63.623047"/>
       <use xlink:href="#DejaVuSans-34" x="95.410156"/>
      </g>
     </g>
    </g>
   </g>
   <g id="patch_63">
    <path d="M 30.103125 224.64 
L 30.103125 7.2 
" style="fill: none; stroke: #000000; stroke-width: 0.8; stroke-linejoin: miter; stroke-linecap: square"/>
   </g>
   <g id="patch_64">
    <path d="M 364.903125 224.64 
L 364.903125 7.2 
" style="fill: none; stroke: #000000; stroke-width: 0.8; stroke-linejoin: miter; stroke-linecap: square"/>
   </g>
   <g id="patch_65">
    <path d="M 30.103125 224.64 
L 364.903125 224.64 
" style="fill: none; stroke: #000000; stroke-width: 0.8; stroke-linejoin: miter; stroke-linecap: square"/>
   </g>
   <g id="patch_66">
    <path d="M 30.103125 7.2 
L 364.903125 7.2 
" style="fill: none; stroke: #000000; stroke-width: 0.8; stroke-linejoin: miter; stroke-linecap: square"/>
   </g>
  </g>
 </g>
 <defs>
  <clipPath id="p0a33fce92c">
   <rect x="30.103125" y="7.2" width="334.8" height="217.44"/>
  </clipPath>
 </defs>
</svg>
