<?xml version="1.0" encoding="utf-8" standalone="no"?>
<!DOCTYPE svg PUBLIC "-//W3C//DTD SVG 1.1//EN"
  "http://www.w3.org/Graphics/SVG/1.1/DTD/svg11.dtd">
<svg xmlns:xlink="http://www.w3.org/1999/xlink" width="384.620312pt" height="262.19625pt" viewBox="0 0 384.620312 262.19625" xmlns="http://www.w3.org/2000/svg" version="1.1">
 <metadata>
  <rdf:RDF xmlns:dc="http://purl.org/dc/elements/1.1/" xmlns:cc="http://creativecommons.org/ns#" xmlns:rdf="http://www.w3.org/1999/02/22-rdf-syntax-ns#">
   <cc:Work>
    <dc:type rdf:resource="http://purl.org/dc/dcmitype/StillImage"/>
    <dc:date>2021-12-05T13:09:41.256726</dc:date>
    <dc:format>image/svg+xml</dc:format>
    <dc:creator>
     <cc:Agent>
      <dc:title>Matplotlib v3.5.0, https://matplotlib.org/</dc:title>
     </cc:Agent>
    </dc:creator>
   </cc:Work>
  </rdf:RDF>
 </metadata>
 <defs>
  <style type="text/css">*{stroke-linejoin: round; stroke-linecap: butt}</style>
 </defs>
 <g id="figure_1">
  <g id="patch_1">
   <path d="M 0 262.19625 
L 384.620312 262.19625 
L 384.620312 0 
L 0 0 
L 0 262.19625 
z
" style="fill: none"/>
  </g>
  <g id="axes_1">
   <g id="patch_2">
    <path d="M 42.620313 224.64 
L 377.420313 224.64 
L 377.420313 7.2 
L 42.620313 7.2 
z
" style="fill: #ffffff"/>
   </g>
   <g id="matplotlib.axis_1">
    <g id="xtick_1">
     <g id="line2d_1">
      <path d="M 57.838494 224.64 
L 57.838494 7.2 
" clip-path="url(#p6dc2f2da96)" style="fill: none; stroke: #b0b0b0; stroke-width: 0.8; stroke-linecap: square"/>
     </g>
     <g id="line2d_2">
      <defs>
       <path id="m8be69d0514" d="M 0 0 
L 0 3.5 
" style="stroke: #000000; stroke-width: 0.8"/>
      </defs>
      <g>
       <use xlink:href="#m8be69d0514" x="57.838494" y="224.64" style="stroke: #000000; stroke-width: 0.8"/>
      </g>
     </g>
     <g id="text_1">
      <!-- 0 -->
      <g transform="translate(54.657244 239.238437)scale(0.1 -0.1)">
       <defs>
        <path id="DejaVuSans-30" d="M 2034 4250 
Q 1547 4250 1301 3770 
Q 1056 3291 1056 2328 
Q 1056 1369 1301 889 
Q 1547 409 2034 409 
Q 2525 409 2770 889 
Q 3016 1369 3016 2328 
Q 3016 3291 2770 3770 
Q 2525 4250 2034 4250 
z
M 2034 4750 
Q 2819 4750 3233 4129 
Q 3647 3509 3647 2328 
Q 3647 1150 3233 529 
Q 2819 -91 2034 -91 
Q 1250 -91 836 529 
Q 422 1150 422 2328 
Q 422 3509 836 4129 
Q 1250 4750 2034 4750 
z
" transform="scale(0.015625)"/>
       </defs>
       <use xlink:href="#DejaVuSans-30"/>
      </g>
     </g>
    </g>
    <g id="xtick_2">
     <g id="line2d_3">
      <path d="M 109.425551 224.64 
L 109.425551 7.2 
" clip-path="url(#p6dc2f2da96)" style="fill: none; stroke: #b0b0b0; stroke-width: 0.8; stroke-linecap: square"/>
     </g>
     <g id="line2d_4">
      <g>
       <use xlink:href="#m8be69d0514" x="109.425551" y="224.64" style="stroke: #000000; stroke-width: 0.8"/>
      </g>
     </g>
     <g id="text_2">
      <!-- 10 -->
      <g transform="translate(103.063051 239.238437)scale(0.1 -0.1)">
       <defs>
        <path id="DejaVuSans-31" d="M 794 531 
L 1825 531 
L 1825 4091 
L 703 3866 
L 703 4441 
L 1819 4666 
L 2450 4666 
L 2450 531 
L 3481 531 
L 3481 0 
L 794 0 
L 794 531 
z
" transform="scale(0.015625)"/>
       </defs>
       <use xlink:href="#DejaVuSans-31"/>
       <use xlink:href="#DejaVuSans-30" x="63.623047"/>
      </g>
     </g>
    </g>
    <g id="xtick_3">
     <g id="line2d_5">
      <path d="M 161.012608 224.64 
L 161.012608 7.2 
" clip-path="url(#p6dc2f2da96)" style="fill: none; stroke: #b0b0b0; stroke-width: 0.8; stroke-linecap: square"/>
     </g>
     <g id="line2d_6">
      <g>
       <use xlink:href="#m8be69d0514" x="161.012608" y="224.64" style="stroke: #000000; stroke-width: 0.8"/>
      </g>
     </g>
     <g id="text_3">
      <!-- 20 -->
      <g transform="translate(154.650108 239.238437)scale(0.1 -0.1)">
       <defs>
        <path id="DejaVuSans-32" d="M 1228 531 
L 3431 531 
L 3431 0 
L 469 0 
L 469 531 
Q 828 903 1448 1529 
Q 2069 2156 2228 2338 
Q 2531 2678 2651 2914 
Q 2772 3150 2772 3378 
Q 2772 3750 2511 3984 
Q 2250 4219 1831 4219 
Q 1534 4219 1204 4116 
Q 875 4013 500 3803 
L 500 4441 
Q 881 4594 1212 4672 
Q 1544 4750 1819 4750 
Q 2544 4750 2975 4387 
Q 3406 4025 3406 3419 
Q 3406 3131 3298 2873 
Q 3191 2616 2906 2266 
Q 2828 2175 2409 1742 
Q 1991 1309 1228 531 
z
" transform="scale(0.015625)"/>
       </defs>
       <use xlink:href="#DejaVuSans-32"/>
       <use xlink:href="#DejaVuSans-30" x="63.623047"/>
      </g>
     </g>
    </g>
    <g id="xtick_4">
     <g id="line2d_7">
      <path d="M 212.599665 224.64 
L 212.599665 7.2 
" clip-path="url(#p6dc2f2da96)" style="fill: none; stroke: #b0b0b0; stroke-width: 0.8; stroke-linecap: square"/>
     </g>
     <g id="line2d_8">
      <g>
       <use xlink:href="#m8be69d0514" x="212.599665" y="224.64" style="stroke: #000000; stroke-width: 0.8"/>
      </g>
     </g>
     <g id="text_4">
      <!-- 30 -->
      <g transform="translate(206.237165 239.238437)scale(0.1 -0.1)">
       <defs>
        <path id="DejaVuSans-33" d="M 2597 2516 
Q 3050 2419 3304 2112 
Q 3559 1806 3559 1356 
Q 3559 666 3084 287 
Q 2609 -91 1734 -91 
Q 1441 -91 1130 -33 
Q 819 25 488 141 
L 488 750 
Q 750 597 1062 519 
Q 1375 441 1716 441 
Q 2309 441 2620 675 
Q 2931 909 2931 1356 
Q 2931 1769 2642 2001 
Q 2353 2234 1838 2234 
L 1294 2234 
L 1294 2753 
L 1863 2753 
Q 2328 2753 2575 2939 
Q 2822 3125 2822 3475 
Q 2822 3834 2567 4026 
Q 2313 4219 1838 4219 
Q 1578 4219 1281 4162 
Q 984 4106 628 3988 
L 628 4550 
Q 988 4650 1302 4700 
Q 1616 4750 1894 4750 
Q 2613 4750 3031 4423 
Q 3450 4097 3450 3541 
Q 3450 3153 3228 2886 
Q 3006 2619 2597 2516 
z
" transform="scale(0.015625)"/>
       </defs>
       <use xlink:href="#DejaVuSans-33"/>
       <use xlink:href="#DejaVuSans-30" x="63.623047"/>
      </g>
     </g>
    </g>
    <g id="xtick_5">
     <g id="line2d_9">
      <path d="M 264.186722 224.64 
L 264.186722 7.2 
" clip-path="url(#p6dc2f2da96)" style="fill: none; stroke: #b0b0b0; stroke-width: 0.8; stroke-linecap: square"/>
     </g>
     <g id="line2d_10">
      <g>
       <use xlink:href="#m8be69d0514" x="264.186722" y="224.64" style="stroke: #000000; stroke-width: 0.8"/>
      </g>
     </g>
     <g id="text_5">
      <!-- 40 -->
      <g transform="translate(257.824222 239.238437)scale(0.1 -0.1)">
       <defs>
        <path id="DejaVuSans-34" d="M 2419 4116 
L 825 1625 
L 2419 1625 
L 2419 4116 
z
M 2253 4666 
L 3047 4666 
L 3047 1625 
L 3713 1625 
L 3713 1100 
L 3047 1100 
L 3047 0 
L 2419 0 
L 2419 1100 
L 313 1100 
L 313 1709 
L 2253 4666 
z
" transform="scale(0.015625)"/>
       </defs>
       <use xlink:href="#DejaVuSans-34"/>
       <use xlink:href="#DejaVuSans-30" x="63.623047"/>
      </g>
     </g>
    </g>
    <g id="xtick_6">
     <g id="line2d_11">
      <path d="M 315.773779 224.64 
L 315.773779 7.2 
" clip-path="url(#p6dc2f2da96)" style="fill: none; stroke: #b0b0b0; stroke-width: 0.8; stroke-linecap: square"/>
     </g>
     <g id="line2d_12">
      <g>
       <use xlink:href="#m8be69d0514" x="315.773779" y="224.64" style="stroke: #000000; stroke-width: 0.8"/>
      </g>
     </g>
     <g id="text_6">
      <!-- 50 -->
      <g transform="translate(309.411279 239.238437)scale(0.1 -0.1)">
       <defs>
        <path id="DejaVuSans-35" d="M 691 4666 
L 3169 4666 
L 3169 4134 
L 1269 4134 
L 1269 2991 
Q 1406 3038 1543 3061 
Q 1681 3084 1819 3084 
Q 2600 3084 3056 2656 
Q 3513 2228 3513 1497 
Q 3513 744 3044 326 
Q 2575 -91 1722 -91 
Q 1428 -91 1123 -41 
Q 819 9 494 109 
L 494 744 
Q 775 591 1075 516 
Q 1375 441 1709 441 
Q 2250 441 2565 725 
Q 2881 1009 2881 1497 
Q 2881 1984 2565 2268 
Q 2250 2553 1709 2553 
Q 1456 2553 1204 2497 
Q 953 2441 691 2322 
L 691 4666 
z
" transform="scale(0.015625)"/>
       </defs>
       <use xlink:href="#DejaVuSans-35"/>
       <use xlink:href="#DejaVuSans-30" x="63.623047"/>
      </g>
     </g>
    </g>
    <g id="xtick_7">
     <g id="line2d_13">
      <path d="M 367.360836 224.64 
L 367.360836 7.2 
" clip-path="url(#p6dc2f2da96)" style="fill: none; stroke: #b0b0b0; stroke-width: 0.8; stroke-linecap: square"/>
     </g>
     <g id="line2d_14">
      <g>
       <use xlink:href="#m8be69d0514" x="367.360836" y="224.64" style="stroke: #000000; stroke-width: 0.8"/>
      </g>
     </g>
     <g id="text_7">
      <!-- 60 -->
      <g transform="translate(360.998336 239.238437)scale(0.1 -0.1)">
       <defs>
        <path id="DejaVuSans-36" d="M 2113 2584 
Q 1688 2584 1439 2293 
Q 1191 2003 1191 1497 
Q 1191 994 1439 701 
Q 1688 409 2113 409 
Q 2538 409 2786 701 
Q 3034 994 3034 1497 
Q 3034 2003 2786 2293 
Q 2538 2584 2113 2584 
z
M 3366 4563 
L 3366 3988 
Q 3128 4100 2886 4159 
Q 2644 4219 2406 4219 
Q 1781 4219 1451 3797 
Q 1122 3375 1075 2522 
Q 1259 2794 1537 2939 
Q 1816 3084 2150 3084 
Q 2853 3084 3261 2657 
Q 3669 2231 3669 1497 
Q 3669 778 3244 343 
Q 2819 -91 2113 -91 
Q 1303 -91 875 529 
Q 447 1150 447 2328 
Q 447 3434 972 4092 
Q 1497 4750 2381 4750 
Q 2619 4750 2861 4703 
Q 3103 4656 3366 4563 
z
" transform="scale(0.015625)"/>
       </defs>
       <use xlink:href="#DejaVuSans-36"/>
       <use xlink:href="#DejaVuSans-30" x="63.623047"/>
      </g>
     </g>
    </g>
    <g id="text_8">
     <!-- Minute -->
     <g transform="translate(192.942969 252.916562)scale(0.1 -0.1)">
      <defs>
       <path id="DejaVuSans-4d" d="M 628 4666 
L 1569 4666 
L 2759 1491 
L 3956 4666 
L 4897 4666 
L 4897 0 
L 4281 0 
L 4281 4097 
L 3078 897 
L 2444 897 
L 1241 4097 
L 1241 0 
L 628 0 
L 628 4666 
z
" transform="scale(0.015625)"/>
       <path id="DejaVuSans-69" d="M 603 3500 
L 1178 3500 
L 1178 0 
L 603 0 
L 603 3500 
z
M 603 4863 
L 1178 4863 
L 1178 4134 
L 603 4134 
L 603 4863 
z
" transform="scale(0.015625)"/>
       <path id="DejaVuSans-6e" d="M 3513 2113 
L 3513 0 
L 2938 0 
L 2938 2094 
Q 2938 2591 2744 2837 
Q 2550 3084 2163 3084 
Q 1697 3084 1428 2787 
Q 1159 2491 1159 1978 
L 1159 0 
L 581 0 
L 581 3500 
L 1159 3500 
L 1159 2956 
Q 1366 3272 1645 3428 
Q 1925 3584 2291 3584 
Q 2894 3584 3203 3211 
Q 3513 2838 3513 2113 
z
" transform="scale(0.015625)"/>
       <path id="DejaVuSans-75" d="M 544 1381 
L 544 3500 
L 1119 3500 
L 1119 1403 
Q 1119 906 1312 657 
Q 1506 409 1894 409 
Q 2359 409 2629 706 
Q 2900 1003 2900 1516 
L 2900 3500 
L 3475 3500 
L 3475 0 
L 2900 0 
L 2900 538 
Q 2691 219 2414 64 
Q 2138 -91 1772 -91 
Q 1169 -91 856 284 
Q 544 659 544 1381 
z
M 1991 3584 
L 1991 3584 
z
" transform="scale(0.015625)"/>
       <path id="DejaVuSans-74" d="M 1172 4494 
L 1172 3500 
L 2356 3500 
L 2356 3053 
L 1172 3053 
L 1172 1153 
Q 1172 725 1289 603 
Q 1406 481 1766 481 
L 2356 481 
L 2356 0 
L 1766 0 
Q 1100 0 847 248 
Q 594 497 594 1153 
L 594 3053 
L 172 3053 
L 172 3500 
L 594 3500 
L 594 4494 
L 1172 4494 
z
" transform="scale(0.015625)"/>
       <path id="DejaVuSans-65" d="M 3597 1894 
L 3597 1613 
L 953 1613 
Q 991 1019 1311 708 
Q 1631 397 2203 397 
Q 2534 397 2845 478 
Q 3156 559 3463 722 
L 3463 178 
Q 3153 47 2828 -22 
Q 2503 -91 2169 -91 
Q 1331 -91 842 396 
Q 353 884 353 1716 
Q 353 2575 817 3079 
Q 1281 3584 2069 3584 
Q 2775 3584 3186 3129 
Q 3597 2675 3597 1894 
z
M 3022 2063 
Q 3016 2534 2758 2815 
Q 2500 3097 2075 3097 
Q 1594 3097 1305 2825 
Q 1016 2553 972 2059 
L 3022 2063 
z
" transform="scale(0.015625)"/>
      </defs>
      <use xlink:href="#DejaVuSans-4d"/>
      <use xlink:href="#DejaVuSans-69" x="86.279297"/>
      <use xlink:href="#DejaVuSans-6e" x="114.0625"/>
      <use xlink:href="#DejaVuSans-75" x="177.441406"/>
      <use xlink:href="#DejaVuSans-74" x="240.820312"/>
      <use xlink:href="#DejaVuSans-65" x="280.029297"/>
     </g>
    </g>
   </g>
   <g id="matplotlib.axis_2">
    <g id="ytick_1">
     <g id="line2d_15">
      <path d="M 42.620313 221.908995 
L 377.420313 221.908995 
" clip-path="url(#p6dc2f2da96)" style="fill: none; stroke: #b0b0b0; stroke-width: 0.8; stroke-linecap: square"/>
     </g>
     <g id="line2d_16">
      <defs>
       <path id="m2ced049afe" d="M 0 0 
L -3.5 0 
" style="stroke: #000000; stroke-width: 0.8"/>
      </defs>
      <g>
       <use xlink:href="#m2ced049afe" x="42.620313" y="221.908995" style="stroke: #000000; stroke-width: 0.8"/>
      </g>
     </g>
     <g id="text_9">
      <!-- −2 -->
      <g transform="translate(20.878125 225.708214)scale(0.1 -0.1)">
       <defs>
        <path id="DejaVuSans-2212" d="M 678 2272 
L 4684 2272 
L 4684 1741 
L 678 1741 
L 678 2272 
z
" transform="scale(0.015625)"/>
       </defs>
       <use xlink:href="#DejaVuSans-2212"/>
       <use xlink:href="#DejaVuSans-32" x="83.789062"/>
      </g>
     </g>
    </g>
    <g id="ytick_2">
     <g id="line2d_17">
      <path d="M 42.620313 182.894641 
L 377.420313 182.894641 
" clip-path="url(#p6dc2f2da96)" style="fill: none; stroke: #b0b0b0; stroke-width: 0.8; stroke-linecap: square"/>
     </g>
     <g id="line2d_18">
      <g>
       <use xlink:href="#m2ced049afe" x="42.620313" y="182.894641" style="stroke: #000000; stroke-width: 0.8"/>
      </g>
     </g>
     <g id="text_10">
      <!-- −1 -->
      <g transform="translate(20.878125 186.69386)scale(0.1 -0.1)">
       <use xlink:href="#DejaVuSans-2212"/>
       <use xlink:href="#DejaVuSans-31" x="83.789062"/>
      </g>
     </g>
    </g>
    <g id="ytick_3">
     <g id="line2d_19">
      <path d="M 42.620313 143.880287 
L 377.420313 143.880287 
" clip-path="url(#p6dc2f2da96)" style="fill: none; stroke: #b0b0b0; stroke-width: 0.8; stroke-linecap: square"/>
     </g>
     <g id="line2d_20">
      <g>
       <use xlink:href="#m2ced049afe" x="42.620313" y="143.880287" style="stroke: #000000; stroke-width: 0.8"/>
      </g>
     </g>
     <g id="text_11">
      <!-- 0 -->
      <g transform="translate(29.257813 147.679506)scale(0.1 -0.1)">
       <use xlink:href="#DejaVuSans-30"/>
      </g>
     </g>
    </g>
    <g id="ytick_4">
     <g id="line2d_21">
      <path d="M 42.620313 104.865933 
L 377.420313 104.865933 
" clip-path="url(#p6dc2f2da96)" style="fill: none; stroke: #b0b0b0; stroke-width: 0.8; stroke-linecap: square"/>
     </g>
     <g id="line2d_22">
      <g>
       <use xlink:href="#m2ced049afe" x="42.620313" y="104.865933" style="stroke: #000000; stroke-width: 0.8"/>
      </g>
     </g>
     <g id="text_12">
      <!-- 1 -->
      <g transform="translate(29.257813 108.665152)scale(0.1 -0.1)">
       <use xlink:href="#DejaVuSans-31"/>
      </g>
     </g>
    </g>
    <g id="ytick_5">
     <g id="line2d_23">
      <path d="M 42.620313 65.851579 
L 377.420313 65.851579 
" clip-path="url(#p6dc2f2da96)" style="fill: none; stroke: #b0b0b0; stroke-width: 0.8; stroke-linecap: square"/>
     </g>
     <g id="line2d_24">
      <g>
       <use xlink:href="#m2ced049afe" x="42.620313" y="65.851579" style="stroke: #000000; stroke-width: 0.8"/>
      </g>
     </g>
     <g id="text_13">
      <!-- 2 -->
      <g transform="translate(29.257813 69.650798)scale(0.1 -0.1)">
       <use xlink:href="#DejaVuSans-32"/>
      </g>
     </g>
    </g>
    <g id="ytick_6">
     <g id="line2d_25">
      <path d="M 42.620313 26.837225 
L 377.420313 26.837225 
" clip-path="url(#p6dc2f2da96)" style="fill: none; stroke: #b0b0b0; stroke-width: 0.8; stroke-linecap: square"/>
     </g>
     <g id="line2d_26">
      <g>
       <use xlink:href="#m2ced049afe" x="42.620313" y="26.837225" style="stroke: #000000; stroke-width: 0.8"/>
      </g>
     </g>
     <g id="text_14">
      <!-- 3 -->
      <g transform="translate(29.257813 30.636444)scale(0.1 -0.1)">
       <use xlink:href="#DejaVuSans-33"/>
      </g>
     </g>
    </g>
    <g id="text_15">
     <!-- Standardised residual -->
     <g transform="translate(14.798438 170.310625)rotate(-90)scale(0.1 -0.1)">
      <defs>
       <path id="DejaVuSans-53" d="M 3425 4513 
L 3425 3897 
Q 3066 4069 2747 4153 
Q 2428 4238 2131 4238 
Q 1616 4238 1336 4038 
Q 1056 3838 1056 3469 
Q 1056 3159 1242 3001 
Q 1428 2844 1947 2747 
L 2328 2669 
Q 3034 2534 3370 2195 
Q 3706 1856 3706 1288 
Q 3706 609 3251 259 
Q 2797 -91 1919 -91 
Q 1588 -91 1214 -16 
Q 841 59 441 206 
L 441 856 
Q 825 641 1194 531 
Q 1563 422 1919 422 
Q 2459 422 2753 634 
Q 3047 847 3047 1241 
Q 3047 1584 2836 1778 
Q 2625 1972 2144 2069 
L 1759 2144 
Q 1053 2284 737 2584 
Q 422 2884 422 3419 
Q 422 4038 858 4394 
Q 1294 4750 2059 4750 
Q 2388 4750 2728 4690 
Q 3069 4631 3425 4513 
z
" transform="scale(0.015625)"/>
       <path id="DejaVuSans-61" d="M 2194 1759 
Q 1497 1759 1228 1600 
Q 959 1441 959 1056 
Q 959 750 1161 570 
Q 1363 391 1709 391 
Q 2188 391 2477 730 
Q 2766 1069 2766 1631 
L 2766 1759 
L 2194 1759 
z
M 3341 1997 
L 3341 0 
L 2766 0 
L 2766 531 
Q 2569 213 2275 61 
Q 1981 -91 1556 -91 
Q 1019 -91 701 211 
Q 384 513 384 1019 
Q 384 1609 779 1909 
Q 1175 2209 1959 2209 
L 2766 2209 
L 2766 2266 
Q 2766 2663 2505 2880 
Q 2244 3097 1772 3097 
Q 1472 3097 1187 3025 
Q 903 2953 641 2809 
L 641 3341 
Q 956 3463 1253 3523 
Q 1550 3584 1831 3584 
Q 2591 3584 2966 3190 
Q 3341 2797 3341 1997 
z
" transform="scale(0.015625)"/>
       <path id="DejaVuSans-64" d="M 2906 2969 
L 2906 4863 
L 3481 4863 
L 3481 0 
L 2906 0 
L 2906 525 
Q 2725 213 2448 61 
Q 2172 -91 1784 -91 
Q 1150 -91 751 415 
Q 353 922 353 1747 
Q 353 2572 751 3078 
Q 1150 3584 1784 3584 
Q 2172 3584 2448 3432 
Q 2725 3281 2906 2969 
z
M 947 1747 
Q 947 1113 1208 752 
Q 1469 391 1925 391 
Q 2381 391 2643 752 
Q 2906 1113 2906 1747 
Q 2906 2381 2643 2742 
Q 2381 3103 1925 3103 
Q 1469 3103 1208 2742 
Q 947 2381 947 1747 
z
" transform="scale(0.015625)"/>
       <path id="DejaVuSans-72" d="M 2631 2963 
Q 2534 3019 2420 3045 
Q 2306 3072 2169 3072 
Q 1681 3072 1420 2755 
Q 1159 2438 1159 1844 
L 1159 0 
L 581 0 
L 581 3500 
L 1159 3500 
L 1159 2956 
Q 1341 3275 1631 3429 
Q 1922 3584 2338 3584 
Q 2397 3584 2469 3576 
Q 2541 3569 2628 3553 
L 2631 2963 
z
" transform="scale(0.015625)"/>
       <path id="DejaVuSans-73" d="M 2834 3397 
L 2834 2853 
Q 2591 2978 2328 3040 
Q 2066 3103 1784 3103 
Q 1356 3103 1142 2972 
Q 928 2841 928 2578 
Q 928 2378 1081 2264 
Q 1234 2150 1697 2047 
L 1894 2003 
Q 2506 1872 2764 1633 
Q 3022 1394 3022 966 
Q 3022 478 2636 193 
Q 2250 -91 1575 -91 
Q 1294 -91 989 -36 
Q 684 19 347 128 
L 347 722 
Q 666 556 975 473 
Q 1284 391 1588 391 
Q 1994 391 2212 530 
Q 2431 669 2431 922 
Q 2431 1156 2273 1281 
Q 2116 1406 1581 1522 
L 1381 1569 
Q 847 1681 609 1914 
Q 372 2147 372 2553 
Q 372 3047 722 3315 
Q 1072 3584 1716 3584 
Q 2034 3584 2315 3537 
Q 2597 3491 2834 3397 
z
" transform="scale(0.015625)"/>
       <path id="DejaVuSans-20" transform="scale(0.015625)"/>
       <path id="DejaVuSans-6c" d="M 603 4863 
L 1178 4863 
L 1178 0 
L 603 0 
L 603 4863 
z
" transform="scale(0.015625)"/>
      </defs>
      <use xlink:href="#DejaVuSans-53"/>
      <use xlink:href="#DejaVuSans-74" x="63.476562"/>
      <use xlink:href="#DejaVuSans-61" x="102.685547"/>
      <use xlink:href="#DejaVuSans-6e" x="163.964844"/>
      <use xlink:href="#DejaVuSans-64" x="227.34375"/>
      <use xlink:href="#DejaVuSans-61" x="290.820312"/>
      <use xlink:href="#DejaVuSans-72" x="352.099609"/>
      <use xlink:href="#DejaVuSans-64" x="391.462891"/>
      <use xlink:href="#DejaVuSans-69" x="454.939453"/>
      <use xlink:href="#DejaVuSans-73" x="482.722656"/>
      <use xlink:href="#DejaVuSans-65" x="534.822266"/>
      <use xlink:href="#DejaVuSans-64" x="596.345703"/>
      <use xlink:href="#DejaVuSans-20" x="659.822266"/>
      <use xlink:href="#DejaVuSans-72" x="691.609375"/>
      <use xlink:href="#DejaVuSans-65" x="730.472656"/>
      <use xlink:href="#DejaVuSans-73" x="791.996094"/>
      <use xlink:href="#DejaVuSans-69" x="844.095703"/>
      <use xlink:href="#DejaVuSans-64" x="871.878906"/>
      <use xlink:href="#DejaVuSans-75" x="935.355469"/>
      <use xlink:href="#DejaVuSans-61" x="998.734375"/>
      <use xlink:href="#DejaVuSans-6c" x="1060.013672"/>
     </g>
    </g>
   </g>
   <g id="PathCollection_1">
    <defs>
     <path id="mdea456e1e0" d="M 0 3 
C 0.795609 3 1.55874 2.683901 2.12132 2.12132 
C 2.683901 1.55874 3 0.795609 3 0 
C 3 -0.795609 2.683901 -1.55874 2.12132 -2.12132 
C 1.55874 -2.683901 0.795609 -3 0 -3 
C -0.795609 -3 -1.55874 -2.683901 -2.12132 -2.12132 
C -2.683901 -1.55874 -3 -0.795609 -3 0 
C -3 0.795609 -2.683901 1.55874 -2.12132 2.12132 
C -1.55874 2.683901 -0.795609 3 0 3 
z
" style="stroke: #000000"/>
    </defs>
    <g clip-path="url(#p6dc2f2da96)">
     <use xlink:href="#mdea456e1e0" x="57.838494" y="134.126699" style="fill: #dcdcdc; stroke: #000000"/>
     <use xlink:href="#mdea456e1e0" x="62.9972" y="17.083636" style="fill: #dcdcdc; stroke: #000000"/>
     <use xlink:href="#mdea456e1e0" x="68.155906" y="212.155407" style="fill: #dcdcdc; stroke: #000000"/>
     <use xlink:href="#mdea456e1e0" x="73.314611" y="134.126699" style="fill: #dcdcdc; stroke: #000000"/>
     <use xlink:href="#mdea456e1e0" x="78.473317" y="95.112344" style="fill: #dcdcdc; stroke: #000000"/>
     <use xlink:href="#mdea456e1e0" x="83.632023" y="173.141053" style="fill: #dcdcdc; stroke: #000000"/>
     <use xlink:href="#mdea456e1e0" x="88.790729" y="173.141053" style="fill: #dcdcdc; stroke: #000000"/>
     <use xlink:href="#mdea456e1e0" x="93.949434" y="134.126699" style="fill: #dcdcdc; stroke: #000000"/>
     <use xlink:href="#mdea456e1e0" x="99.10814" y="173.141053" style="fill: #dcdcdc; stroke: #000000"/>
     <use xlink:href="#mdea456e1e0" x="104.266846" y="95.112344" style="fill: #dcdcdc; stroke: #000000"/>
     <use xlink:href="#mdea456e1e0" x="109.425551" y="212.155407" style="fill: #dcdcdc; stroke: #000000"/>
     <use xlink:href="#mdea456e1e0" x="114.584257" y="134.126699" style="fill: #dcdcdc; stroke: #000000"/>
     <use xlink:href="#mdea456e1e0" x="119.742963" y="212.155407" style="fill: #dcdcdc; stroke: #000000"/>
     <use xlink:href="#mdea456e1e0" x="124.901668" y="56.09799" style="fill: #dcdcdc; stroke: #000000"/>
     <use xlink:href="#mdea456e1e0" x="130.060374" y="173.141053" style="fill: #dcdcdc; stroke: #000000"/>
     <use xlink:href="#mdea456e1e0" x="135.21908" y="173.141053" style="fill: #dcdcdc; stroke: #000000"/>
     <use xlink:href="#mdea456e1e0" x="140.377786" y="212.155407" style="fill: #dcdcdc; stroke: #000000"/>
     <use xlink:href="#mdea456e1e0" x="145.536491" y="173.141053" style="fill: #dcdcdc; stroke: #000000"/>
     <use xlink:href="#mdea456e1e0" x="150.695197" y="95.112344" style="fill: #dcdcdc; stroke: #000000"/>
     <use xlink:href="#mdea456e1e0" x="155.853903" y="173.141053" style="fill: #dcdcdc; stroke: #000000"/>
     <use xlink:href="#mdea456e1e0" x="161.012608" y="173.141053" style="fill: #dcdcdc; stroke: #000000"/>
     <use xlink:href="#mdea456e1e0" x="166.171314" y="134.126699" style="fill: #dcdcdc; stroke: #000000"/>
     <use xlink:href="#mdea456e1e0" x="171.33002" y="212.155407" style="fill: #dcdcdc; stroke: #000000"/>
     <use xlink:href="#mdea456e1e0" x="176.488725" y="173.141053" style="fill: #dcdcdc; stroke: #000000"/>
     <use xlink:href="#mdea456e1e0" x="181.647431" y="173.141053" style="fill: #dcdcdc; stroke: #000000"/>
     <use xlink:href="#mdea456e1e0" x="186.806137" y="95.112344" style="fill: #dcdcdc; stroke: #000000"/>
     <use xlink:href="#mdea456e1e0" x="191.964843" y="173.141053" style="fill: #dcdcdc; stroke: #000000"/>
     <use xlink:href="#mdea456e1e0" x="197.123548" y="134.126699" style="fill: #dcdcdc; stroke: #000000"/>
     <use xlink:href="#mdea456e1e0" x="202.282254" y="173.141053" style="fill: #dcdcdc; stroke: #000000"/>
     <use xlink:href="#mdea456e1e0" x="207.44096" y="17.083636" style="fill: #dcdcdc; stroke: #000000"/>
     <use xlink:href="#mdea456e1e0" x="212.599665" y="134.126699" style="fill: #dcdcdc; stroke: #000000"/>
     <use xlink:href="#mdea456e1e0" x="217.758371" y="173.141053" style="fill: #dcdcdc; stroke: #000000"/>
     <use xlink:href="#mdea456e1e0" x="222.917077" y="173.141053" style="fill: #dcdcdc; stroke: #000000"/>
     <use xlink:href="#mdea456e1e0" x="228.075782" y="56.09799" style="fill: #dcdcdc; stroke: #000000"/>
     <use xlink:href="#mdea456e1e0" x="233.234488" y="173.141053" style="fill: #dcdcdc; stroke: #000000"/>
     <use xlink:href="#mdea456e1e0" x="238.393194" y="212.155407" style="fill: #dcdcdc; stroke: #000000"/>
     <use xlink:href="#mdea456e1e0" x="243.5519" y="212.155407" style="fill: #dcdcdc; stroke: #000000"/>
     <use xlink:href="#mdea456e1e0" x="248.710605" y="173.141053" style="fill: #dcdcdc; stroke: #000000"/>
     <use xlink:href="#mdea456e1e0" x="253.869311" y="134.126699" style="fill: #dcdcdc; stroke: #000000"/>
     <use xlink:href="#mdea456e1e0" x="259.028017" y="173.141053" style="fill: #dcdcdc; stroke: #000000"/>
     <use xlink:href="#mdea456e1e0" x="264.186722" y="134.126699" style="fill: #dcdcdc; stroke: #000000"/>
     <use xlink:href="#mdea456e1e0" x="269.345428" y="173.141053" style="fill: #dcdcdc; stroke: #000000"/>
     <use xlink:href="#mdea456e1e0" x="274.504134" y="95.112344" style="fill: #dcdcdc; stroke: #000000"/>
     <use xlink:href="#mdea456e1e0" x="279.662839" y="56.09799" style="fill: #dcdcdc; stroke: #000000"/>
     <use xlink:href="#mdea456e1e0" x="284.821545" y="173.141053" style="fill: #dcdcdc; stroke: #000000"/>
     <use xlink:href="#mdea456e1e0" x="289.980251" y="212.155407" style="fill: #dcdcdc; stroke: #000000"/>
     <use xlink:href="#mdea456e1e0" x="295.138957" y="95.112344" style="fill: #dcdcdc; stroke: #000000"/>
     <use xlink:href="#mdea456e1e0" x="300.297662" y="134.126699" style="fill: #dcdcdc; stroke: #000000"/>
     <use xlink:href="#mdea456e1e0" x="305.456368" y="212.155407" style="fill: #dcdcdc; stroke: #000000"/>
     <use xlink:href="#mdea456e1e0" x="310.615074" y="95.112344" style="fill: #dcdcdc; stroke: #000000"/>
     <use xlink:href="#mdea456e1e0" x="315.773779" y="134.126699" style="fill: #dcdcdc; stroke: #000000"/>
     <use xlink:href="#mdea456e1e0" x="320.932485" y="212.155407" style="fill: #dcdcdc; stroke: #000000"/>
     <use xlink:href="#mdea456e1e0" x="326.091191" y="134.126699" style="fill: #dcdcdc; stroke: #000000"/>
     <use xlink:href="#mdea456e1e0" x="331.249896" y="134.126699" style="fill: #dcdcdc; stroke: #000000"/>
     <use xlink:href="#mdea456e1e0" x="336.408602" y="134.126699" style="fill: #dcdcdc; stroke: #000000"/>
     <use xlink:href="#mdea456e1e0" x="341.567308" y="95.112344" style="fill: #dcdcdc; stroke: #000000"/>
     <use xlink:href="#mdea456e1e0" x="346.726014" y="95.112344" style="fill: #dcdcdc; stroke: #000000"/>
     <use xlink:href="#mdea456e1e0" x="351.884719" y="56.09799" style="fill: #dcdcdc; stroke: #000000"/>
     <use xlink:href="#mdea456e1e0" x="357.043425" y="56.09799" style="fill: #dcdcdc; stroke: #000000"/>
     <use xlink:href="#mdea456e1e0" x="362.202131" y="173.141053" style="fill: #dcdcdc; stroke: #000000"/>
    </g>
   </g>
   <g id="PathCollection_2">
    <defs>
     <path id="m266382afbe" d="M 0 3 
C 0.795609 3 1.55874 2.683901 2.12132 2.12132 
C 2.683901 1.55874 3 0.795609 3 0 
C 3 -0.795609 2.683901 -1.55874 2.12132 -2.12132 
C 1.55874 -2.683901 0.795609 -3 0 -3 
C -0.795609 -3 -1.55874 -2.683901 -2.12132 -2.12132 
C -2.683901 -1.55874 -3 -0.795609 -3 0 
C -3 0.795609 -2.683901 1.55874 -2.12132 2.12132 
C -1.55874 2.683901 -0.795609 3 0 3 
z
" style="stroke: #000000"/>
    </defs>
    <g clip-path="url(#p6dc2f2da96)">
     <use xlink:href="#m266382afbe" x="57.838494" y="136.727656" style="fill: #696969; stroke: #000000"/>
     <use xlink:href="#m266382afbe" x="62.9972" y="136.727656" style="fill: #696969; stroke: #000000"/>
     <use xlink:href="#m266382afbe" x="68.155906" y="175.74201" style="fill: #696969; stroke: #000000"/>
     <use xlink:href="#m266382afbe" x="73.314611" y="136.727656" style="fill: #696969; stroke: #000000"/>
     <use xlink:href="#m266382afbe" x="78.473317" y="175.74201" style="fill: #696969; stroke: #000000"/>
     <use xlink:href="#m266382afbe" x="83.632023" y="97.713301" style="fill: #696969; stroke: #000000"/>
     <use xlink:href="#m266382afbe" x="88.790729" y="175.74201" style="fill: #696969; stroke: #000000"/>
     <use xlink:href="#m266382afbe" x="93.949434" y="175.74201" style="fill: #696969; stroke: #000000"/>
     <use xlink:href="#m266382afbe" x="99.10814" y="97.713301" style="fill: #696969; stroke: #000000"/>
     <use xlink:href="#m266382afbe" x="104.266846" y="175.74201" style="fill: #696969; stroke: #000000"/>
     <use xlink:href="#m266382afbe" x="109.425551" y="136.727656" style="fill: #696969; stroke: #000000"/>
     <use xlink:href="#m266382afbe" x="114.584257" y="175.74201" style="fill: #696969; stroke: #000000"/>
     <use xlink:href="#m266382afbe" x="119.742963" y="136.727656" style="fill: #696969; stroke: #000000"/>
     <use xlink:href="#m266382afbe" x="124.901668" y="175.74201" style="fill: #696969; stroke: #000000"/>
     <use xlink:href="#m266382afbe" x="130.060374" y="136.727656" style="fill: #696969; stroke: #000000"/>
     <use xlink:href="#m266382afbe" x="135.21908" y="175.74201" style="fill: #696969; stroke: #000000"/>
     <use xlink:href="#m266382afbe" x="140.377786" y="136.727656" style="fill: #696969; stroke: #000000"/>
     <use xlink:href="#m266382afbe" x="145.536491" y="58.698947" style="fill: #696969; stroke: #000000"/>
     <use xlink:href="#m266382afbe" x="150.695197" y="136.727656" style="fill: #696969; stroke: #000000"/>
     <use xlink:href="#m266382afbe" x="155.853903" y="136.727656" style="fill: #696969; stroke: #000000"/>
     <use xlink:href="#m266382afbe" x="161.012608" y="58.698947" style="fill: #696969; stroke: #000000"/>
     <use xlink:href="#m266382afbe" x="166.171314" y="97.713301" style="fill: #696969; stroke: #000000"/>
     <use xlink:href="#m266382afbe" x="171.33002" y="136.727656" style="fill: #696969; stroke: #000000"/>
     <use xlink:href="#m266382afbe" x="176.488725" y="175.74201" style="fill: #696969; stroke: #000000"/>
     <use xlink:href="#m266382afbe" x="181.647431" y="214.756364" style="fill: #696969; stroke: #000000"/>
     <use xlink:href="#m266382afbe" x="186.806137" y="136.727656" style="fill: #696969; stroke: #000000"/>
     <use xlink:href="#m266382afbe" x="191.964843" y="175.74201" style="fill: #696969; stroke: #000000"/>
     <use xlink:href="#m266382afbe" x="197.123548" y="136.727656" style="fill: #696969; stroke: #000000"/>
     <use xlink:href="#m266382afbe" x="202.282254" y="58.698947" style="fill: #696969; stroke: #000000"/>
     <use xlink:href="#m266382afbe" x="207.44096" y="97.713301" style="fill: #696969; stroke: #000000"/>
     <use xlink:href="#m266382afbe" x="212.599665" y="175.74201" style="fill: #696969; stroke: #000000"/>
     <use xlink:href="#m266382afbe" x="217.758371" y="175.74201" style="fill: #696969; stroke: #000000"/>
     <use xlink:href="#m266382afbe" x="222.917077" y="97.713301" style="fill: #696969; stroke: #000000"/>
     <use xlink:href="#m266382afbe" x="228.075782" y="97.713301" style="fill: #696969; stroke: #000000"/>
     <use xlink:href="#m266382afbe" x="233.234488" y="97.713301" style="fill: #696969; stroke: #000000"/>
     <use xlink:href="#m266382afbe" x="238.393194" y="214.756364" style="fill: #696969; stroke: #000000"/>
     <use xlink:href="#m266382afbe" x="243.5519" y="58.698947" style="fill: #696969; stroke: #000000"/>
     <use xlink:href="#m266382afbe" x="248.710605" y="214.756364" style="fill: #696969; stroke: #000000"/>
     <use xlink:href="#m266382afbe" x="253.869311" y="175.74201" style="fill: #696969; stroke: #000000"/>
     <use xlink:href="#m266382afbe" x="259.028017" y="175.74201" style="fill: #696969; stroke: #000000"/>
     <use xlink:href="#m266382afbe" x="264.186722" y="214.756364" style="fill: #696969; stroke: #000000"/>
     <use xlink:href="#m266382afbe" x="269.345428" y="175.74201" style="fill: #696969; stroke: #000000"/>
     <use xlink:href="#m266382afbe" x="274.504134" y="97.713301" style="fill: #696969; stroke: #000000"/>
     <use xlink:href="#m266382afbe" x="279.662839" y="214.756364" style="fill: #696969; stroke: #000000"/>
     <use xlink:href="#m266382afbe" x="284.821545" y="175.74201" style="fill: #696969; stroke: #000000"/>
     <use xlink:href="#m266382afbe" x="289.980251" y="214.756364" style="fill: #696969; stroke: #000000"/>
     <use xlink:href="#m266382afbe" x="295.138957" y="136.727656" style="fill: #696969; stroke: #000000"/>
     <use xlink:href="#m266382afbe" x="300.297662" y="136.727656" style="fill: #696969; stroke: #000000"/>
     <use xlink:href="#m266382afbe" x="305.456368" y="97.713301" style="fill: #696969; stroke: #000000"/>
     <use xlink:href="#m266382afbe" x="310.615074" y="214.756364" style="fill: #696969; stroke: #000000"/>
     <use xlink:href="#m266382afbe" x="315.773779" y="58.698947" style="fill: #696969; stroke: #000000"/>
     <use xlink:href="#m266382afbe" x="320.932485" y="136.727656" style="fill: #696969; stroke: #000000"/>
     <use xlink:href="#m266382afbe" x="326.091191" y="214.756364" style="fill: #696969; stroke: #000000"/>
     <use xlink:href="#m266382afbe" x="331.249896" y="136.727656" style="fill: #696969; stroke: #000000"/>
     <use xlink:href="#m266382afbe" x="336.408602" y="175.74201" style="fill: #696969; stroke: #000000"/>
     <use xlink:href="#m266382afbe" x="341.567308" y="175.74201" style="fill: #696969; stroke: #000000"/>
     <use xlink:href="#m266382afbe" x="346.726014" y="97.713301" style="fill: #696969; stroke: #000000"/>
     <use xlink:href="#m266382afbe" x="351.884719" y="175.74201" style="fill: #696969; stroke: #000000"/>
     <use xlink:href="#m266382afbe" x="357.043425" y="19.684593" style="fill: #696969; stroke: #000000"/>
     <use xlink:href="#m266382afbe" x="362.202131" y="97.713301" style="fill: #696969; stroke: #000000"/>
    </g>
   </g>
   <g id="line2d_27">
    <path d="M 57.838494 143.880287 
L 62.9972 143.880287 
L 68.155906 143.880287 
L 73.314611 143.880287 
L 78.473317 143.880287 
L 83.632023 143.880287 
L 88.790729 143.880287 
L 93.949434 143.880287 
L 99.10814 143.880287 
L 104.266846 143.880287 
L 109.425551 143.880287 
L 114.584257 143.880287 
L 119.742963 143.880287 
L 124.901668 143.880287 
L 130.060374 143.880287 
L 135.21908 143.880287 
L 140.377786 143.880287 
L 145.536491 143.880287 
L 150.695197 143.880287 
L 155.853903 143.880287 
L 161.012608 143.880287 
L 166.171314 143.880287 
L 171.33002 143.880287 
L 176.488725 143.880287 
L 181.647431 143.880287 
L 186.806137 143.880287 
L 191.964843 143.880287 
L 197.123548 143.880287 
L 202.282254 143.880287 
L 207.44096 143.880287 
L 212.599665 143.880287 
L 217.758371 143.880287 
L 222.917077 143.880287 
L 228.075782 143.880287 
L 233.234488 143.880287 
L 238.393194 143.880287 
L 243.5519 143.880287 
L 248.710605 143.880287 
L 253.869311 143.880287 
L 259.028017 143.880287 
L 264.186722 143.880287 
L 269.345428 143.880287 
L 274.504134 143.880287 
L 279.662839 143.880287 
L 284.821545 143.880287 
L 289.980251 143.880287 
L 295.138957 143.880287 
L 300.297662 143.880287 
L 305.456368 143.880287 
L 310.615074 143.880287 
L 315.773779 143.880287 
L 320.932485 143.880287 
L 326.091191 143.880287 
L 331.249896 143.880287 
L 336.408602 143.880287 
L 341.567308 143.880287 
L 346.726014 143.880287 
L 351.884719 143.880287 
L 357.043425 143.880287 
L 362.202131 143.880287 
" clip-path="url(#p6dc2f2da96)" style="fill: none; stroke-dasharray: 5.55,2.4; stroke-dashoffset: 0; stroke: #000000; stroke-width: 1.5"/>
   </g>
   <g id="patch_3">
    <path d="M 42.620313 224.64 
L 42.620313 7.2 
" style="fill: none; stroke: #000000; stroke-width: 0.8; stroke-linejoin: miter; stroke-linecap: square"/>
   </g>
   <g id="patch_4">
    <path d="M 377.420313 224.64 
L 377.420313 7.2 
" style="fill: none; stroke: #000000; stroke-width: 0.8; stroke-linejoin: miter; stroke-linecap: square"/>
   </g>
   <g id="patch_5">
    <path d="M 42.620313 224.64 
L 377.420312 224.64 
" style="fill: none; stroke: #000000; stroke-width: 0.8; stroke-linejoin: miter; stroke-linecap: square"/>
   </g>
   <g id="patch_6">
    <path d="M 42.620313 7.2 
L 377.420312 7.2 
" style="fill: none; stroke: #000000; stroke-width: 0.8; stroke-linejoin: miter; stroke-linecap: square"/>
   </g>
   <g id="legend_1">
    <g id="patch_7">
     <path d="M 49.620313 59.234375 
L 179.223438 59.234375 
Q 181.223438 59.234375 181.223438 57.234375 
L 181.223438 14.2 
Q 181.223438 12.2 179.223438 12.2 
L 49.620313 12.2 
Q 47.620313 12.2 47.620313 14.2 
L 47.620313 57.234375 
Q 47.620313 59.234375 49.620313 59.234375 
z
" style="fill: #ffffff; opacity: 0.8; stroke: #cccccc; stroke-linejoin: miter"/>
    </g>
    <g id="PathCollection_3">
     <g>
      <use xlink:href="#mdea456e1e0" x="61.620313" y="21.173437" style="fill: #dcdcdc; stroke: #000000"/>
     </g>
    </g>
    <g id="text_16">
     <!-- Registered data -->
     <g transform="translate(79.620313 23.798437)scale(0.1 -0.1)">
      <defs>
       <path id="DejaVuSans-52" d="M 2841 2188 
Q 3044 2119 3236 1894 
Q 3428 1669 3622 1275 
L 4263 0 
L 3584 0 
L 2988 1197 
Q 2756 1666 2539 1819 
Q 2322 1972 1947 1972 
L 1259 1972 
L 1259 0 
L 628 0 
L 628 4666 
L 2053 4666 
Q 2853 4666 3247 4331 
Q 3641 3997 3641 3322 
Q 3641 2881 3436 2590 
Q 3231 2300 2841 2188 
z
M 1259 4147 
L 1259 2491 
L 2053 2491 
Q 2509 2491 2742 2702 
Q 2975 2913 2975 3322 
Q 2975 3731 2742 3939 
Q 2509 4147 2053 4147 
L 1259 4147 
z
" transform="scale(0.015625)"/>
       <path id="DejaVuSans-67" d="M 2906 1791 
Q 2906 2416 2648 2759 
Q 2391 3103 1925 3103 
Q 1463 3103 1205 2759 
Q 947 2416 947 1791 
Q 947 1169 1205 825 
Q 1463 481 1925 481 
Q 2391 481 2648 825 
Q 2906 1169 2906 1791 
z
M 3481 434 
Q 3481 -459 3084 -895 
Q 2688 -1331 1869 -1331 
Q 1566 -1331 1297 -1286 
Q 1028 -1241 775 -1147 
L 775 -588 
Q 1028 -725 1275 -790 
Q 1522 -856 1778 -856 
Q 2344 -856 2625 -561 
Q 2906 -266 2906 331 
L 2906 616 
Q 2728 306 2450 153 
Q 2172 0 1784 0 
Q 1141 0 747 490 
Q 353 981 353 1791 
Q 353 2603 747 3093 
Q 1141 3584 1784 3584 
Q 2172 3584 2450 3431 
Q 2728 3278 2906 2969 
L 2906 3500 
L 3481 3500 
L 3481 434 
z
" transform="scale(0.015625)"/>
      </defs>
      <use xlink:href="#DejaVuSans-52"/>
      <use xlink:href="#DejaVuSans-65" x="64.982422"/>
      <use xlink:href="#DejaVuSans-67" x="126.505859"/>
      <use xlink:href="#DejaVuSans-69" x="189.982422"/>
      <use xlink:href="#DejaVuSans-73" x="217.765625"/>
      <use xlink:href="#DejaVuSans-74" x="269.865234"/>
      <use xlink:href="#DejaVuSans-65" x="309.074219"/>
      <use xlink:href="#DejaVuSans-72" x="370.597656"/>
      <use xlink:href="#DejaVuSans-65" x="409.460938"/>
      <use xlink:href="#DejaVuSans-64" x="470.984375"/>
      <use xlink:href="#DejaVuSans-20" x="534.460938"/>
      <use xlink:href="#DejaVuSans-64" x="566.248047"/>
      <use xlink:href="#DejaVuSans-61" x="629.724609"/>
      <use xlink:href="#DejaVuSans-74" x="691.003906"/>
      <use xlink:href="#DejaVuSans-61" x="730.212891"/>
     </g>
    </g>
    <g id="PathCollection_4">
     <g>
      <use xlink:href="#m266382afbe" x="61.620313" y="35.851562" style="fill: #696969; stroke: #000000"/>
     </g>
    </g>
    <g id="text_17">
     <!-- Simulated data -->
     <g transform="translate(79.620313 38.476562)scale(0.1 -0.1)">
      <defs>
       <path id="DejaVuSans-6d" d="M 3328 2828 
Q 3544 3216 3844 3400 
Q 4144 3584 4550 3584 
Q 5097 3584 5394 3201 
Q 5691 2819 5691 2113 
L 5691 0 
L 5113 0 
L 5113 2094 
Q 5113 2597 4934 2840 
Q 4756 3084 4391 3084 
Q 3944 3084 3684 2787 
Q 3425 2491 3425 1978 
L 3425 0 
L 2847 0 
L 2847 2094 
Q 2847 2600 2669 2842 
Q 2491 3084 2119 3084 
Q 1678 3084 1418 2786 
Q 1159 2488 1159 1978 
L 1159 0 
L 581 0 
L 581 3500 
L 1159 3500 
L 1159 2956 
Q 1356 3278 1631 3431 
Q 1906 3584 2284 3584 
Q 2666 3584 2933 3390 
Q 3200 3197 3328 2828 
z
" transform="scale(0.015625)"/>
      </defs>
      <use xlink:href="#DejaVuSans-53"/>
      <use xlink:href="#DejaVuSans-69" x="63.476562"/>
      <use xlink:href="#DejaVuSans-6d" x="91.259766"/>
      <use xlink:href="#DejaVuSans-75" x="188.671875"/>
      <use xlink:href="#DejaVuSans-6c" x="252.050781"/>
      <use xlink:href="#DejaVuSans-61" x="279.833984"/>
      <use xlink:href="#DejaVuSans-74" x="341.113281"/>
      <use xlink:href="#DejaVuSans-65" x="380.322266"/>
      <use xlink:href="#DejaVuSans-64" x="441.845703"/>
      <use xlink:href="#DejaVuSans-20" x="505.322266"/>
      <use xlink:href="#DejaVuSans-64" x="537.109375"/>
      <use xlink:href="#DejaVuSans-61" x="600.585938"/>
      <use xlink:href="#DejaVuSans-74" x="661.865234"/>
      <use xlink:href="#DejaVuSans-61" x="701.074219"/>
     </g>
    </g>
    <g id="line2d_28">
     <path d="M 51.620313 49.654687 
L 61.620313 49.654687 
L 71.620313 49.654687 
" style="fill: none; stroke-dasharray: 5.55,2.4; stroke-dashoffset: 0; stroke: #000000; stroke-width: 1.5"/>
    </g>
    <g id="text_18">
     <!-- Poisson distribution -->
     <g transform="translate(79.620313 53.154687)scale(0.1 -0.1)">
      <defs>
       <path id="DejaVuSans-50" d="M 1259 4147 
L 1259 2394 
L 2053 2394 
Q 2494 2394 2734 2622 
Q 2975 2850 2975 3272 
Q 2975 3691 2734 3919 
Q 2494 4147 2053 4147 
L 1259 4147 
z
M 628 4666 
L 2053 4666 
Q 2838 4666 3239 4311 
Q 3641 3956 3641 3272 
Q 3641 2581 3239 2228 
Q 2838 1875 2053 1875 
L 1259 1875 
L 1259 0 
L 628 0 
L 628 4666 
z
" transform="scale(0.015625)"/>
       <path id="DejaVuSans-6f" d="M 1959 3097 
Q 1497 3097 1228 2736 
Q 959 2375 959 1747 
Q 959 1119 1226 758 
Q 1494 397 1959 397 
Q 2419 397 2687 759 
Q 2956 1122 2956 1747 
Q 2956 2369 2687 2733 
Q 2419 3097 1959 3097 
z
M 1959 3584 
Q 2709 3584 3137 3096 
Q 3566 2609 3566 1747 
Q 3566 888 3137 398 
Q 2709 -91 1959 -91 
Q 1206 -91 779 398 
Q 353 888 353 1747 
Q 353 2609 779 3096 
Q 1206 3584 1959 3584 
z
" transform="scale(0.015625)"/>
       <path id="DejaVuSans-62" d="M 3116 1747 
Q 3116 2381 2855 2742 
Q 2594 3103 2138 3103 
Q 1681 3103 1420 2742 
Q 1159 2381 1159 1747 
Q 1159 1113 1420 752 
Q 1681 391 2138 391 
Q 2594 391 2855 752 
Q 3116 1113 3116 1747 
z
M 1159 2969 
Q 1341 3281 1617 3432 
Q 1894 3584 2278 3584 
Q 2916 3584 3314 3078 
Q 3713 2572 3713 1747 
Q 3713 922 3314 415 
Q 2916 -91 2278 -91 
Q 1894 -91 1617 61 
Q 1341 213 1159 525 
L 1159 0 
L 581 0 
L 581 4863 
L 1159 4863 
L 1159 2969 
z
" transform="scale(0.015625)"/>
      </defs>
      <use xlink:href="#DejaVuSans-50"/>
      <use xlink:href="#DejaVuSans-6f" x="56.677734"/>
      <use xlink:href="#DejaVuSans-69" x="117.859375"/>
      <use xlink:href="#DejaVuSans-73" x="145.642578"/>
      <use xlink:href="#DejaVuSans-73" x="197.742188"/>
      <use xlink:href="#DejaVuSans-6f" x="249.841797"/>
      <use xlink:href="#DejaVuSans-6e" x="311.023438"/>
      <use xlink:href="#DejaVuSans-20" x="374.402344"/>
      <use xlink:href="#DejaVuSans-64" x="406.189453"/>
      <use xlink:href="#DejaVuSans-69" x="469.666016"/>
      <use xlink:href="#DejaVuSans-73" x="497.449219"/>
      <use xlink:href="#DejaVuSans-74" x="549.548828"/>
      <use xlink:href="#DejaVuSans-72" x="588.757812"/>
      <use xlink:href="#DejaVuSans-69" x="629.871094"/>
      <use xlink:href="#DejaVuSans-62" x="657.654297"/>
      <use xlink:href="#DejaVuSans-75" x="721.130859"/>
      <use xlink:href="#DejaVuSans-74" x="784.509766"/>
      <use xlink:href="#DejaVuSans-69" x="823.71875"/>
      <use xlink:href="#DejaVuSans-6f" x="851.501953"/>
      <use xlink:href="#DejaVuSans-6e" x="912.683594"/>
     </g>
    </g>
   </g>
  </g>
 </g>
 <defs>
  <clipPath id="p6dc2f2da96">
   <rect x="42.620313" y="7.2" width="334.8" height="217.44"/>
  </clipPath>
 </defs>
</svg>
