<?xml version="1.0" encoding="utf-8" standalone="no"?>
<!DOCTYPE svg PUBLIC "-//W3C//DTD SVG 1.1//EN"
  "http://www.w3.org/Graphics/SVG/1.1/DTD/svg11.dtd">
<svg xmlns:xlink="http://www.w3.org/1999/xlink" width="368.925pt" height="248.518125pt" viewBox="0 0 368.925 248.518125" xmlns="http://www.w3.org/2000/svg" version="1.1">
 <metadata>
  <rdf:RDF xmlns:dc="http://purl.org/dc/elements/1.1/" xmlns:cc="http://creativecommons.org/ns#" xmlns:rdf="http://www.w3.org/1999/02/22-rdf-syntax-ns#">
   <cc:Work>
    <dc:type rdf:resource="http://purl.org/dc/dcmitype/StillImage"/>
    <dc:date>2021-12-03T14:33:36.240489</dc:date>
    <dc:format>image/svg+xml</dc:format>
    <dc:creator>
     <cc:Agent>
      <dc:title>Matplotlib v3.5.0, https://matplotlib.org/</dc:title>
     </cc:Agent>
    </dc:creator>
   </cc:Work>
  </rdf:RDF>
 </metadata>
 <defs>
  <style type="text/css">*{stroke-linejoin: round; stroke-linecap: butt}</style>
 </defs>
 <g id="figure_1">
  <g id="patch_1">
   <path d="M -0 248.518125 
L 368.925 248.518125 
L 368.925 0 
L -0 0 
L -0 248.518125 
z
" style="fill: none"/>
  </g>
  <g id="axes_1">
   <g id="patch_2">
    <path d="M 26.925 224.64 
L 361.725 224.64 
L 361.725 7.2 
L 26.925 7.2 
z
" style="fill: #ffffff"/>
   </g>
   <g id="patch_3">
    <path d="M 42.143182 224.64 
L 47.215909 224.64 
L 47.215909 208.71033 
L 42.143182 208.71033 
z
" clip-path="url(#pf74ee83da5)" style="fill: #808080; stroke: #000000; stroke-linejoin: miter"/>
   </g>
   <g id="patch_4">
    <path d="M 47.215909 224.64 
L 52.288636 224.64 
L 52.288636 224.64 
L 47.215909 224.64 
z
" clip-path="url(#pf74ee83da5)" style="fill: #808080; stroke: #000000; stroke-linejoin: miter"/>
   </g>
   <g id="patch_5">
    <path d="M 52.288636 224.64 
L 57.361364 224.64 
L 57.361364 224.64 
L 52.288636 224.64 
z
" clip-path="url(#pf74ee83da5)" style="fill: #808080; stroke: #000000; stroke-linejoin: miter"/>
   </g>
   <g id="patch_6">
    <path d="M 57.361364 224.64 
L 62.434091 224.64 
L 62.434091 224.64 
L 57.361364 224.64 
z
" clip-path="url(#pf74ee83da5)" style="fill: #808080; stroke: #000000; stroke-linejoin: miter"/>
   </g>
   <g id="patch_7">
    <path d="M 62.434091 224.64 
L 67.506818 224.64 
L 67.506818 224.64 
L 62.434091 224.64 
z
" clip-path="url(#pf74ee83da5)" style="fill: #808080; stroke: #000000; stroke-linejoin: miter"/>
   </g>
   <g id="patch_8">
    <path d="M 67.506818 224.64 
L 72.579545 224.64 
L 72.579545 224.64 
L 67.506818 224.64 
z
" clip-path="url(#pf74ee83da5)" style="fill: #808080; stroke: #000000; stroke-linejoin: miter"/>
   </g>
   <g id="patch_9">
    <path d="M 72.579545 224.64 
L 77.652273 224.64 
L 77.652273 176.850989 
L 72.579545 176.850989 
z
" clip-path="url(#pf74ee83da5)" style="fill: #808080; stroke: #000000; stroke-linejoin: miter"/>
   </g>
   <g id="patch_10">
    <path d="M 77.652273 224.64 
L 82.725 224.64 
L 82.725 224.64 
L 77.652273 224.64 
z
" clip-path="url(#pf74ee83da5)" style="fill: #808080; stroke: #000000; stroke-linejoin: miter"/>
   </g>
   <g id="patch_11">
    <path d="M 82.725 224.64 
L 87.797727 224.64 
L 87.797727 224.64 
L 82.725 224.64 
z
" clip-path="url(#pf74ee83da5)" style="fill: #808080; stroke: #000000; stroke-linejoin: miter"/>
   </g>
   <g id="patch_12">
    <path d="M 87.797727 224.64 
L 92.870455 224.64 
L 92.870455 224.64 
L 87.797727 224.64 
z
" clip-path="url(#pf74ee83da5)" style="fill: #808080; stroke: #000000; stroke-linejoin: miter"/>
   </g>
   <g id="patch_13">
    <path d="M 92.870455 224.64 
L 97.943182 224.64 
L 97.943182 224.64 
L 92.870455 224.64 
z
" clip-path="url(#pf74ee83da5)" style="fill: #808080; stroke: #000000; stroke-linejoin: miter"/>
   </g>
   <g id="patch_14">
    <path d="M 97.943182 224.64 
L 103.015909 224.64 
L 103.015909 224.64 
L 97.943182 224.64 
z
" clip-path="url(#pf74ee83da5)" style="fill: #808080; stroke: #000000; stroke-linejoin: miter"/>
   </g>
   <g id="patch_15">
    <path d="M 103.015909 224.64 
L 108.088636 224.64 
L 108.088636 224.64 
L 103.015909 224.64 
z
" clip-path="url(#pf74ee83da5)" style="fill: #808080; stroke: #000000; stroke-linejoin: miter"/>
   </g>
   <g id="patch_16">
    <path d="M 108.088636 224.64 
L 113.161364 224.64 
L 113.161364 144.991648 
L 108.088636 144.991648 
z
" clip-path="url(#pf74ee83da5)" style="fill: #808080; stroke: #000000; stroke-linejoin: miter"/>
   </g>
   <g id="patch_17">
    <path d="M 113.161364 224.64 
L 118.234091 224.64 
L 118.234091 224.64 
L 113.161364 224.64 
z
" clip-path="url(#pf74ee83da5)" style="fill: #808080; stroke: #000000; stroke-linejoin: miter"/>
   </g>
   <g id="patch_18">
    <path d="M 118.234091 224.64 
L 123.306818 224.64 
L 123.306818 224.64 
L 118.234091 224.64 
z
" clip-path="url(#pf74ee83da5)" style="fill: #808080; stroke: #000000; stroke-linejoin: miter"/>
   </g>
   <g id="patch_19">
    <path d="M 123.306818 224.64 
L 128.379545 224.64 
L 128.379545 224.64 
L 123.306818 224.64 
z
" clip-path="url(#pf74ee83da5)" style="fill: #808080; stroke: #000000; stroke-linejoin: miter"/>
   </g>
   <g id="patch_20">
    <path d="M 128.379545 224.64 
L 133.452273 224.64 
L 133.452273 224.64 
L 128.379545 224.64 
z
" clip-path="url(#pf74ee83da5)" style="fill: #808080; stroke: #000000; stroke-linejoin: miter"/>
   </g>
   <g id="patch_21">
    <path d="M 133.452273 224.64 
L 138.525 224.64 
L 138.525 224.64 
L 133.452273 224.64 
z
" clip-path="url(#pf74ee83da5)" style="fill: #808080; stroke: #000000; stroke-linejoin: miter"/>
   </g>
   <g id="patch_22">
    <path d="M 138.525 224.64 
L 143.597727 224.64 
L 143.597727 224.64 
L 138.525 224.64 
z
" clip-path="url(#pf74ee83da5)" style="fill: #808080; stroke: #000000; stroke-linejoin: miter"/>
   </g>
   <g id="patch_23">
    <path d="M 143.597727 224.64 
L 148.670455 224.64 
L 148.670455 81.272967 
L 143.597727 81.272967 
z
" clip-path="url(#pf74ee83da5)" style="fill: #808080; stroke: #000000; stroke-linejoin: miter"/>
   </g>
   <g id="patch_24">
    <path d="M 148.670455 224.64 
L 153.743182 224.64 
L 153.743182 224.64 
L 148.670455 224.64 
z
" clip-path="url(#pf74ee83da5)" style="fill: #808080; stroke: #000000; stroke-linejoin: miter"/>
   </g>
   <g id="patch_25">
    <path d="M 153.743182 224.64 
L 158.815909 224.64 
L 158.815909 224.64 
L 153.743182 224.64 
z
" clip-path="url(#pf74ee83da5)" style="fill: #808080; stroke: #000000; stroke-linejoin: miter"/>
   </g>
   <g id="patch_26">
    <path d="M 158.815909 224.64 
L 163.888636 224.64 
L 163.888636 224.64 
L 158.815909 224.64 
z
" clip-path="url(#pf74ee83da5)" style="fill: #808080; stroke: #000000; stroke-linejoin: miter"/>
   </g>
   <g id="patch_27">
    <path d="M 163.888636 224.64 
L 168.961364 224.64 
L 168.961364 224.64 
L 163.888636 224.64 
z
" clip-path="url(#pf74ee83da5)" style="fill: #808080; stroke: #000000; stroke-linejoin: miter"/>
   </g>
   <g id="patch_28">
    <path d="M 168.961364 224.64 
L 174.034091 224.64 
L 174.034091 224.64 
L 168.961364 224.64 
z
" clip-path="url(#pf74ee83da5)" style="fill: #808080; stroke: #000000; stroke-linejoin: miter"/>
   </g>
   <g id="patch_29">
    <path d="M 174.034091 224.64 
L 179.106818 224.64 
L 179.106818 97.202637 
L 174.034091 97.202637 
z
" clip-path="url(#pf74ee83da5)" style="fill: #808080; stroke: #000000; stroke-linejoin: miter"/>
   </g>
   <g id="patch_30">
    <path d="M 179.106818 224.64 
L 184.179545 224.64 
L 184.179545 224.64 
L 179.106818 224.64 
z
" clip-path="url(#pf74ee83da5)" style="fill: #808080; stroke: #000000; stroke-linejoin: miter"/>
   </g>
   <g id="patch_31">
    <path d="M 184.179545 224.64 
L 189.252273 224.64 
L 189.252273 224.64 
L 184.179545 224.64 
z
" clip-path="url(#pf74ee83da5)" style="fill: #808080; stroke: #000000; stroke-linejoin: miter"/>
   </g>
   <g id="patch_32">
    <path d="M 189.252273 224.64 
L 194.325 224.64 
L 194.325 224.64 
L 189.252273 224.64 
z
" clip-path="url(#pf74ee83da5)" style="fill: #808080; stroke: #000000; stroke-linejoin: miter"/>
   </g>
   <g id="patch_33">
    <path d="M 194.325 224.64 
L 199.397727 224.64 
L 199.397727 224.64 
L 194.325 224.64 
z
" clip-path="url(#pf74ee83da5)" style="fill: #808080; stroke: #000000; stroke-linejoin: miter"/>
   </g>
   <g id="patch_34">
    <path d="M 199.397727 224.64 
L 204.470455 224.64 
L 204.470455 224.64 
L 199.397727 224.64 
z
" clip-path="url(#pf74ee83da5)" style="fill: #808080; stroke: #000000; stroke-linejoin: miter"/>
   </g>
   <g id="patch_35">
    <path d="M 204.470455 224.64 
L 209.543182 224.64 
L 209.543182 224.64 
L 204.470455 224.64 
z
" clip-path="url(#pf74ee83da5)" style="fill: #808080; stroke: #000000; stroke-linejoin: miter"/>
   </g>
   <g id="patch_36">
    <path d="M 209.543182 224.64 
L 214.615909 224.64 
L 214.615909 17.554286 
L 209.543182 17.554286 
z
" clip-path="url(#pf74ee83da5)" style="fill: #808080; stroke: #000000; stroke-linejoin: miter"/>
   </g>
   <g id="patch_37">
    <path d="M 214.615909 224.64 
L 219.688636 224.64 
L 219.688636 224.64 
L 214.615909 224.64 
z
" clip-path="url(#pf74ee83da5)" style="fill: #808080; stroke: #000000; stroke-linejoin: miter"/>
   </g>
   <g id="patch_38">
    <path d="M 219.688636 224.64 
L 224.761364 224.64 
L 224.761364 224.64 
L 219.688636 224.64 
z
" clip-path="url(#pf74ee83da5)" style="fill: #808080; stroke: #000000; stroke-linejoin: miter"/>
   </g>
   <g id="patch_39">
    <path d="M 224.761364 224.64 
L 229.834091 224.64 
L 229.834091 224.64 
L 224.761364 224.64 
z
" clip-path="url(#pf74ee83da5)" style="fill: #808080; stroke: #000000; stroke-linejoin: miter"/>
   </g>
   <g id="patch_40">
    <path d="M 229.834091 224.64 
L 234.906818 224.64 
L 234.906818 224.64 
L 229.834091 224.64 
z
" clip-path="url(#pf74ee83da5)" style="fill: #808080; stroke: #000000; stroke-linejoin: miter"/>
   </g>
   <g id="patch_41">
    <path d="M 234.906818 224.64 
L 239.979545 224.64 
L 239.979545 224.64 
L 234.906818 224.64 
z
" clip-path="url(#pf74ee83da5)" style="fill: #808080; stroke: #000000; stroke-linejoin: miter"/>
   </g>
   <g id="patch_42">
    <path d="M 239.979545 224.64 
L 245.052273 224.64 
L 245.052273 224.64 
L 239.979545 224.64 
z
" clip-path="url(#pf74ee83da5)" style="fill: #808080; stroke: #000000; stroke-linejoin: miter"/>
   </g>
   <g id="patch_43">
    <path d="M 245.052273 224.64 
L 250.125 224.64 
L 250.125 97.202637 
L 245.052273 97.202637 
z
" clip-path="url(#pf74ee83da5)" style="fill: #808080; stroke: #000000; stroke-linejoin: miter"/>
   </g>
   <g id="patch_44">
    <path d="M 250.125 224.64 
L 255.197727 224.64 
L 255.197727 224.64 
L 250.125 224.64 
z
" clip-path="url(#pf74ee83da5)" style="fill: #808080; stroke: #000000; stroke-linejoin: miter"/>
   </g>
   <g id="patch_45">
    <path d="M 255.197727 224.64 
L 260.270455 224.64 
L 260.270455 224.64 
L 255.197727 224.64 
z
" clip-path="url(#pf74ee83da5)" style="fill: #808080; stroke: #000000; stroke-linejoin: miter"/>
   </g>
   <g id="patch_46">
    <path d="M 260.270455 224.64 
L 265.343182 224.64 
L 265.343182 224.64 
L 260.270455 224.64 
z
" clip-path="url(#pf74ee83da5)" style="fill: #808080; stroke: #000000; stroke-linejoin: miter"/>
   </g>
   <g id="patch_47">
    <path d="M 265.343182 224.64 
L 270.415909 224.64 
L 270.415909 224.64 
L 265.343182 224.64 
z
" clip-path="url(#pf74ee83da5)" style="fill: #808080; stroke: #000000; stroke-linejoin: miter"/>
   </g>
   <g id="patch_48">
    <path d="M 270.415909 224.64 
L 275.488636 224.64 
L 275.488636 224.64 
L 270.415909 224.64 
z
" clip-path="url(#pf74ee83da5)" style="fill: #808080; stroke: #000000; stroke-linejoin: miter"/>
   </g>
   <g id="patch_49">
    <path d="M 275.488636 224.64 
L 280.561364 224.64 
L 280.561364 144.991648 
L 275.488636 144.991648 
z
" clip-path="url(#pf74ee83da5)" style="fill: #808080; stroke: #000000; stroke-linejoin: miter"/>
   </g>
   <g id="patch_50">
    <path d="M 280.561364 224.64 
L 285.634091 224.64 
L 285.634091 224.64 
L 280.561364 224.64 
z
" clip-path="url(#pf74ee83da5)" style="fill: #808080; stroke: #000000; stroke-linejoin: miter"/>
   </g>
   <g id="patch_51">
    <path d="M 285.634091 224.64 
L 290.706818 224.64 
L 290.706818 224.64 
L 285.634091 224.64 
z
" clip-path="url(#pf74ee83da5)" style="fill: #808080; stroke: #000000; stroke-linejoin: miter"/>
   </g>
   <g id="patch_52">
    <path d="M 290.706818 224.64 
L 295.779545 224.64 
L 295.779545 224.64 
L 290.706818 224.64 
z
" clip-path="url(#pf74ee83da5)" style="fill: #808080; stroke: #000000; stroke-linejoin: miter"/>
   </g>
   <g id="patch_53">
    <path d="M 295.779545 224.64 
L 300.852273 224.64 
L 300.852273 224.64 
L 295.779545 224.64 
z
" clip-path="url(#pf74ee83da5)" style="fill: #808080; stroke: #000000; stroke-linejoin: miter"/>
   </g>
   <g id="patch_54">
    <path d="M 300.852273 224.64 
L 305.925 224.64 
L 305.925 224.64 
L 300.852273 224.64 
z
" clip-path="url(#pf74ee83da5)" style="fill: #808080; stroke: #000000; stroke-linejoin: miter"/>
   </g>
   <g id="patch_55">
    <path d="M 305.925 224.64 
L 310.997727 224.64 
L 310.997727 224.64 
L 305.925 224.64 
z
" clip-path="url(#pf74ee83da5)" style="fill: #808080; stroke: #000000; stroke-linejoin: miter"/>
   </g>
   <g id="patch_56">
    <path d="M 310.997727 224.64 
L 316.070455 224.64 
L 316.070455 192.780659 
L 310.997727 192.780659 
z
" clip-path="url(#pf74ee83da5)" style="fill: #808080; stroke: #000000; stroke-linejoin: miter"/>
   </g>
   <g id="patch_57">
    <path d="M 316.070455 224.64 
L 321.143182 224.64 
L 321.143182 224.64 
L 316.070455 224.64 
z
" clip-path="url(#pf74ee83da5)" style="fill: #808080; stroke: #000000; stroke-linejoin: miter"/>
   </g>
   <g id="patch_58">
    <path d="M 321.143182 224.64 
L 326.215909 224.64 
L 326.215909 224.64 
L 321.143182 224.64 
z
" clip-path="url(#pf74ee83da5)" style="fill: #808080; stroke: #000000; stroke-linejoin: miter"/>
   </g>
   <g id="patch_59">
    <path d="M 326.215909 224.64 
L 331.288636 224.64 
L 331.288636 224.64 
L 326.215909 224.64 
z
" clip-path="url(#pf74ee83da5)" style="fill: #808080; stroke: #000000; stroke-linejoin: miter"/>
   </g>
   <g id="patch_60">
    <path d="M 331.288636 224.64 
L 336.361364 224.64 
L 336.361364 224.64 
L 331.288636 224.64 
z
" clip-path="url(#pf74ee83da5)" style="fill: #808080; stroke: #000000; stroke-linejoin: miter"/>
   </g>
   <g id="patch_61">
    <path d="M 336.361364 224.64 
L 341.434091 224.64 
L 341.434091 224.64 
L 336.361364 224.64 
z
" clip-path="url(#pf74ee83da5)" style="fill: #808080; stroke: #000000; stroke-linejoin: miter"/>
   </g>
   <g id="patch_62">
    <path d="M 341.434091 224.64 
L 346.506818 224.64 
L 346.506818 129.061978 
L 341.434091 129.061978 
z
" clip-path="url(#pf74ee83da5)" style="fill: #808080; stroke: #000000; stroke-linejoin: miter"/>
   </g>
   <g id="matplotlib.axis_1">
    <g id="xtick_1">
     <g id="line2d_1">
      <defs>
       <path id="m4d2fc37719" d="M 0 0 
L 0 3.5 
" style="stroke: #000000; stroke-width: 0.8"/>
      </defs>
      <g>
       <use xlink:href="#m4d2fc37719" x="42.143182" y="224.64" style="stroke: #000000; stroke-width: 0.8"/>
      </g>
     </g>
     <g id="text_1">
      <!-- 0 -->
      <g transform="translate(38.961932 239.238437)scale(0.1 -0.1)">
       <defs>
        <path id="DejaVuSans-30" d="M 2034 4250 
Q 1547 4250 1301 3770 
Q 1056 3291 1056 2328 
Q 1056 1369 1301 889 
Q 1547 409 2034 409 
Q 2525 409 2770 889 
Q 3016 1369 3016 2328 
Q 3016 3291 2770 3770 
Q 2525 4250 2034 4250 
z
M 2034 4750 
Q 2819 4750 3233 4129 
Q 3647 3509 3647 2328 
Q 3647 1150 3233 529 
Q 2819 -91 2034 -91 
Q 1250 -91 836 529 
Q 422 1150 422 2328 
Q 422 3509 836 4129 
Q 1250 4750 2034 4750 
z
" transform="scale(0.015625)"/>
       </defs>
       <use xlink:href="#DejaVuSans-30"/>
      </g>
     </g>
    </g>
    <g id="xtick_2">
     <g id="line2d_2">
      <g>
       <use xlink:href="#m4d2fc37719" x="109.779545" y="224.64" style="stroke: #000000; stroke-width: 0.8"/>
      </g>
     </g>
     <g id="text_2">
      <!-- 2 -->
      <g transform="translate(106.598295 239.238437)scale(0.1 -0.1)">
       <defs>
        <path id="DejaVuSans-32" d="M 1228 531 
L 3431 531 
L 3431 0 
L 469 0 
L 469 531 
Q 828 903 1448 1529 
Q 2069 2156 2228 2338 
Q 2531 2678 2651 2914 
Q 2772 3150 2772 3378 
Q 2772 3750 2511 3984 
Q 2250 4219 1831 4219 
Q 1534 4219 1204 4116 
Q 875 4013 500 3803 
L 500 4441 
Q 881 4594 1212 4672 
Q 1544 4750 1819 4750 
Q 2544 4750 2975 4387 
Q 3406 4025 3406 3419 
Q 3406 3131 3298 2873 
Q 3191 2616 2906 2266 
Q 2828 2175 2409 1742 
Q 1991 1309 1228 531 
z
" transform="scale(0.015625)"/>
       </defs>
       <use xlink:href="#DejaVuSans-32"/>
      </g>
     </g>
    </g>
    <g id="xtick_3">
     <g id="line2d_3">
      <g>
       <use xlink:href="#m4d2fc37719" x="177.415909" y="224.64" style="stroke: #000000; stroke-width: 0.8"/>
      </g>
     </g>
     <g id="text_3">
      <!-- 4 -->
      <g transform="translate(174.234659 239.238437)scale(0.1 -0.1)">
       <defs>
        <path id="DejaVuSans-34" d="M 2419 4116 
L 825 1625 
L 2419 1625 
L 2419 4116 
z
M 2253 4666 
L 3047 4666 
L 3047 1625 
L 3713 1625 
L 3713 1100 
L 3047 1100 
L 3047 0 
L 2419 0 
L 2419 1100 
L 313 1100 
L 313 1709 
L 2253 4666 
z
" transform="scale(0.015625)"/>
       </defs>
       <use xlink:href="#DejaVuSans-34"/>
      </g>
     </g>
    </g>
    <g id="xtick_4">
     <g id="line2d_4">
      <g>
       <use xlink:href="#m4d2fc37719" x="245.052273" y="224.64" style="stroke: #000000; stroke-width: 0.8"/>
      </g>
     </g>
     <g id="text_4">
      <!-- 6 -->
      <g transform="translate(241.871023 239.238437)scale(0.1 -0.1)">
       <defs>
        <path id="DejaVuSans-36" d="M 2113 2584 
Q 1688 2584 1439 2293 
Q 1191 2003 1191 1497 
Q 1191 994 1439 701 
Q 1688 409 2113 409 
Q 2538 409 2786 701 
Q 3034 994 3034 1497 
Q 3034 2003 2786 2293 
Q 2538 2584 2113 2584 
z
M 3366 4563 
L 3366 3988 
Q 3128 4100 2886 4159 
Q 2644 4219 2406 4219 
Q 1781 4219 1451 3797 
Q 1122 3375 1075 2522 
Q 1259 2794 1537 2939 
Q 1816 3084 2150 3084 
Q 2853 3084 3261 2657 
Q 3669 2231 3669 1497 
Q 3669 778 3244 343 
Q 2819 -91 2113 -91 
Q 1303 -91 875 529 
Q 447 1150 447 2328 
Q 447 3434 972 4092 
Q 1497 4750 2381 4750 
Q 2619 4750 2861 4703 
Q 3103 4656 3366 4563 
z
" transform="scale(0.015625)"/>
       </defs>
       <use xlink:href="#DejaVuSans-36"/>
      </g>
     </g>
    </g>
    <g id="xtick_5">
     <g id="line2d_5">
      <g>
       <use xlink:href="#m4d2fc37719" x="312.688636" y="224.64" style="stroke: #000000; stroke-width: 0.8"/>
      </g>
     </g>
     <g id="text_5">
      <!-- 8 -->
      <g transform="translate(309.507386 239.238437)scale(0.1 -0.1)">
       <defs>
        <path id="DejaVuSans-38" d="M 2034 2216 
Q 1584 2216 1326 1975 
Q 1069 1734 1069 1313 
Q 1069 891 1326 650 
Q 1584 409 2034 409 
Q 2484 409 2743 651 
Q 3003 894 3003 1313 
Q 3003 1734 2745 1975 
Q 2488 2216 2034 2216 
z
M 1403 2484 
Q 997 2584 770 2862 
Q 544 3141 544 3541 
Q 544 4100 942 4425 
Q 1341 4750 2034 4750 
Q 2731 4750 3128 4425 
Q 3525 4100 3525 3541 
Q 3525 3141 3298 2862 
Q 3072 2584 2669 2484 
Q 3125 2378 3379 2068 
Q 3634 1759 3634 1313 
Q 3634 634 3220 271 
Q 2806 -91 2034 -91 
Q 1263 -91 848 271 
Q 434 634 434 1313 
Q 434 1759 690 2068 
Q 947 2378 1403 2484 
z
M 1172 3481 
Q 1172 3119 1398 2916 
Q 1625 2713 2034 2713 
Q 2441 2713 2670 2916 
Q 2900 3119 2900 3481 
Q 2900 3844 2670 4047 
Q 2441 4250 2034 4250 
Q 1625 4250 1398 4047 
Q 1172 3844 1172 3481 
z
" transform="scale(0.015625)"/>
       </defs>
       <use xlink:href="#DejaVuSans-38"/>
      </g>
     </g>
    </g>
   </g>
   <g id="matplotlib.axis_2">
    <g id="ytick_1">
     <g id="line2d_6">
      <defs>
       <path id="mcb586bb722" d="M 0 0 
L -3.5 0 
" style="stroke: #000000; stroke-width: 0.8"/>
      </defs>
      <g>
       <use xlink:href="#mcb586bb722" x="26.925" y="224.64" style="stroke: #000000; stroke-width: 0.8"/>
      </g>
     </g>
     <g id="text_6">
      <!-- 0 -->
      <g transform="translate(13.5625 228.439219)scale(0.1 -0.1)">
       <use xlink:href="#DejaVuSans-30"/>
      </g>
     </g>
    </g>
    <g id="ytick_2">
     <g id="line2d_7">
      <g>
       <use xlink:href="#mcb586bb722" x="26.925" y="192.780659" style="stroke: #000000; stroke-width: 0.8"/>
      </g>
     </g>
     <g id="text_7">
      <!-- 2 -->
      <g transform="translate(13.5625 196.579878)scale(0.1 -0.1)">
       <use xlink:href="#DejaVuSans-32"/>
      </g>
     </g>
    </g>
    <g id="ytick_3">
     <g id="line2d_8">
      <g>
       <use xlink:href="#mcb586bb722" x="26.925" y="160.921319" style="stroke: #000000; stroke-width: 0.8"/>
      </g>
     </g>
     <g id="text_8">
      <!-- 4 -->
      <g transform="translate(13.5625 164.720537)scale(0.1 -0.1)">
       <use xlink:href="#DejaVuSans-34"/>
      </g>
     </g>
    </g>
    <g id="ytick_4">
     <g id="line2d_9">
      <g>
       <use xlink:href="#mcb586bb722" x="26.925" y="129.061978" style="stroke: #000000; stroke-width: 0.8"/>
      </g>
     </g>
     <g id="text_9">
      <!-- 6 -->
      <g transform="translate(13.5625 132.861197)scale(0.1 -0.1)">
       <use xlink:href="#DejaVuSans-36"/>
      </g>
     </g>
    </g>
    <g id="ytick_5">
     <g id="line2d_10">
      <g>
       <use xlink:href="#mcb586bb722" x="26.925" y="97.202637" style="stroke: #000000; stroke-width: 0.8"/>
      </g>
     </g>
     <g id="text_10">
      <!-- 8 -->
      <g transform="translate(13.5625 101.001856)scale(0.1 -0.1)">
       <use xlink:href="#DejaVuSans-38"/>
      </g>
     </g>
    </g>
    <g id="ytick_6">
     <g id="line2d_11">
      <g>
       <use xlink:href="#mcb586bb722" x="26.925" y="65.343297" style="stroke: #000000; stroke-width: 0.8"/>
      </g>
     </g>
     <g id="text_11">
      <!-- 10 -->
      <g transform="translate(7.2 69.142515)scale(0.1 -0.1)">
       <defs>
        <path id="DejaVuSans-31" d="M 794 531 
L 1825 531 
L 1825 4091 
L 703 3866 
L 703 4441 
L 1819 4666 
L 2450 4666 
L 2450 531 
L 3481 531 
L 3481 0 
L 794 0 
L 794 531 
z
" transform="scale(0.015625)"/>
       </defs>
       <use xlink:href="#DejaVuSans-31"/>
       <use xlink:href="#DejaVuSans-30" x="63.623047"/>
      </g>
     </g>
    </g>
    <g id="ytick_7">
     <g id="line2d_12">
      <g>
       <use xlink:href="#mcb586bb722" x="26.925" y="33.483956" style="stroke: #000000; stroke-width: 0.8"/>
      </g>
     </g>
     <g id="text_12">
      <!-- 12 -->
      <g transform="translate(7.2 37.283175)scale(0.1 -0.1)">
       <use xlink:href="#DejaVuSans-31"/>
       <use xlink:href="#DejaVuSans-32" x="63.623047"/>
      </g>
     </g>
    </g>
   </g>
   <g id="patch_63">
    <path d="M 26.925 224.64 
L 26.925 7.2 
" style="fill: none; stroke: #000000; stroke-width: 0.8; stroke-linejoin: miter; stroke-linecap: square"/>
   </g>
   <g id="patch_64">
    <path d="M 361.725 224.64 
L 361.725 7.2 
" style="fill: none; stroke: #000000; stroke-width: 0.8; stroke-linejoin: miter; stroke-linecap: square"/>
   </g>
   <g id="patch_65">
    <path d="M 26.925 224.64 
L 361.725 224.64 
" style="fill: none; stroke: #000000; stroke-width: 0.8; stroke-linejoin: miter; stroke-linecap: square"/>
   </g>
   <g id="patch_66">
    <path d="M 26.925 7.2 
L 361.725 7.2 
" style="fill: none; stroke: #000000; stroke-width: 0.8; stroke-linejoin: miter; stroke-linecap: square"/>
   </g>
  </g>
 </g>
 <defs>
  <clipPath id="pf74ee83da5">
   <rect x="26.925" y="7.2" width="334.8" height="217.44"/>
  </clipPath>
 </defs>
</svg>
