<?xml version="1.0" encoding="utf-8" standalone="no"?>
<!DOCTYPE svg PUBLIC "-//W3C//DTD SVG 1.1//EN"
  "http://www.w3.org/Graphics/SVG/1.1/DTD/svg11.dtd">
<svg xmlns:xlink="http://www.w3.org/1999/xlink" width="384.620312pt" height="262.19625pt" viewBox="0 0 384.620312 262.19625" xmlns="http://www.w3.org/2000/svg" version="1.1">
 <metadata>
  <rdf:RDF xmlns:dc="http://purl.org/dc/elements/1.1/" xmlns:cc="http://creativecommons.org/ns#" xmlns:rdf="http://www.w3.org/1999/02/22-rdf-syntax-ns#">
   <cc:Work>
    <dc:type rdf:resource="http://purl.org/dc/dcmitype/StillImage"/>
    <dc:date>2021-12-05T12:39:14.740830</dc:date>
    <dc:format>image/svg+xml</dc:format>
    <dc:creator>
     <cc:Agent>
      <dc:title>Matplotlib v3.5.0, https://matplotlib.org/</dc:title>
     </cc:Agent>
    </dc:creator>
   </cc:Work>
  </rdf:RDF>
 </metadata>
 <defs>
  <style type="text/css">*{stroke-linejoin: round; stroke-linecap: butt}</style>
 </defs>
 <g id="figure_1">
  <g id="patch_1">
   <path d="M 0 262.19625 
L 384.620312 262.19625 
L 384.620312 0 
L 0 0 
L 0 262.19625 
z
" style="fill: none"/>
  </g>
  <g id="axes_1">
   <g id="patch_2">
    <path d="M 42.620313 224.64 
L 377.420313 224.64 
L 377.420313 7.2 
L 42.620313 7.2 
z
" style="fill: #ffffff"/>
   </g>
   <g id="matplotlib.axis_1">
    <g id="xtick_1">
     <g id="line2d_1">
      <path d="M 57.838494 224.64 
L 57.838494 7.2 
" clip-path="url(#p240b5fbf4e)" style="fill: none; stroke: #b0b0b0; stroke-width: 0.8; stroke-linecap: square"/>
     </g>
     <g id="line2d_2">
      <defs>
       <path id="mffc29f68f8" d="M 0 0 
L 0 3.5 
" style="stroke: #000000; stroke-width: 0.8"/>
      </defs>
      <g>
       <use xlink:href="#mffc29f68f8" x="57.838494" y="224.64" style="stroke: #000000; stroke-width: 0.8"/>
      </g>
     </g>
     <g id="text_1">
      <!-- 0 -->
      <g transform="translate(54.657244 239.238438)scale(0.1 -0.1)">
       <defs>
        <path id="DejaVuSans-30" d="M 2034 4250 
Q 1547 4250 1301 3770 
Q 1056 3291 1056 2328 
Q 1056 1369 1301 889 
Q 1547 409 2034 409 
Q 2525 409 2770 889 
Q 3016 1369 3016 2328 
Q 3016 3291 2770 3770 
Q 2525 4250 2034 4250 
z
M 2034 4750 
Q 2819 4750 3233 4129 
Q 3647 3509 3647 2328 
Q 3647 1150 3233 529 
Q 2819 -91 2034 -91 
Q 1250 -91 836 529 
Q 422 1150 422 2328 
Q 422 3509 836 4129 
Q 1250 4750 2034 4750 
z
" transform="scale(0.015625)"/>
       </defs>
       <use xlink:href="#DejaVuSans-30"/>
      </g>
     </g>
    </g>
    <g id="xtick_2">
     <g id="line2d_3">
      <path d="M 109.425551 224.64 
L 109.425551 7.2 
" clip-path="url(#p240b5fbf4e)" style="fill: none; stroke: #b0b0b0; stroke-width: 0.8; stroke-linecap: square"/>
     </g>
     <g id="line2d_4">
      <g>
       <use xlink:href="#mffc29f68f8" x="109.425551" y="224.64" style="stroke: #000000; stroke-width: 0.8"/>
      </g>
     </g>
     <g id="text_2">
      <!-- 10 -->
      <g transform="translate(103.063051 239.238438)scale(0.1 -0.1)">
       <defs>
        <path id="DejaVuSans-31" d="M 794 531 
L 1825 531 
L 1825 4091 
L 703 3866 
L 703 4441 
L 1819 4666 
L 2450 4666 
L 2450 531 
L 3481 531 
L 3481 0 
L 794 0 
L 794 531 
z
" transform="scale(0.015625)"/>
       </defs>
       <use xlink:href="#DejaVuSans-31"/>
       <use xlink:href="#DejaVuSans-30" x="63.623047"/>
      </g>
     </g>
    </g>
    <g id="xtick_3">
     <g id="line2d_5">
      <path d="M 161.012608 224.64 
L 161.012608 7.2 
" clip-path="url(#p240b5fbf4e)" style="fill: none; stroke: #b0b0b0; stroke-width: 0.8; stroke-linecap: square"/>
     </g>
     <g id="line2d_6">
      <g>
       <use xlink:href="#mffc29f68f8" x="161.012608" y="224.64" style="stroke: #000000; stroke-width: 0.8"/>
      </g>
     </g>
     <g id="text_3">
      <!-- 20 -->
      <g transform="translate(154.650108 239.238438)scale(0.1 -0.1)">
       <defs>
        <path id="DejaVuSans-32" d="M 1228 531 
L 3431 531 
L 3431 0 
L 469 0 
L 469 531 
Q 828 903 1448 1529 
Q 2069 2156 2228 2338 
Q 2531 2678 2651 2914 
Q 2772 3150 2772 3378 
Q 2772 3750 2511 3984 
Q 2250 4219 1831 4219 
Q 1534 4219 1204 4116 
Q 875 4013 500 3803 
L 500 4441 
Q 881 4594 1212 4672 
Q 1544 4750 1819 4750 
Q 2544 4750 2975 4387 
Q 3406 4025 3406 3419 
Q 3406 3131 3298 2873 
Q 3191 2616 2906 2266 
Q 2828 2175 2409 1742 
Q 1991 1309 1228 531 
z
" transform="scale(0.015625)"/>
       </defs>
       <use xlink:href="#DejaVuSans-32"/>
       <use xlink:href="#DejaVuSans-30" x="63.623047"/>
      </g>
     </g>
    </g>
    <g id="xtick_4">
     <g id="line2d_7">
      <path d="M 212.599665 224.64 
L 212.599665 7.2 
" clip-path="url(#p240b5fbf4e)" style="fill: none; stroke: #b0b0b0; stroke-width: 0.8; stroke-linecap: square"/>
     </g>
     <g id="line2d_8">
      <g>
       <use xlink:href="#mffc29f68f8" x="212.599665" y="224.64" style="stroke: #000000; stroke-width: 0.8"/>
      </g>
     </g>
     <g id="text_4">
      <!-- 30 -->
      <g transform="translate(206.237165 239.238438)scale(0.1 -0.1)">
       <defs>
        <path id="DejaVuSans-33" d="M 2597 2516 
Q 3050 2419 3304 2112 
Q 3559 1806 3559 1356 
Q 3559 666 3084 287 
Q 2609 -91 1734 -91 
Q 1441 -91 1130 -33 
Q 819 25 488 141 
L 488 750 
Q 750 597 1062 519 
Q 1375 441 1716 441 
Q 2309 441 2620 675 
Q 2931 909 2931 1356 
Q 2931 1769 2642 2001 
Q 2353 2234 1838 2234 
L 1294 2234 
L 1294 2753 
L 1863 2753 
Q 2328 2753 2575 2939 
Q 2822 3125 2822 3475 
Q 2822 3834 2567 4026 
Q 2313 4219 1838 4219 
Q 1578 4219 1281 4162 
Q 984 4106 628 3988 
L 628 4550 
Q 988 4650 1302 4700 
Q 1616 4750 1894 4750 
Q 2613 4750 3031 4423 
Q 3450 4097 3450 3541 
Q 3450 3153 3228 2886 
Q 3006 2619 2597 2516 
z
" transform="scale(0.015625)"/>
       </defs>
       <use xlink:href="#DejaVuSans-33"/>
       <use xlink:href="#DejaVuSans-30" x="63.623047"/>
      </g>
     </g>
    </g>
    <g id="xtick_5">
     <g id="line2d_9">
      <path d="M 264.186722 224.64 
L 264.186722 7.2 
" clip-path="url(#p240b5fbf4e)" style="fill: none; stroke: #b0b0b0; stroke-width: 0.8; stroke-linecap: square"/>
     </g>
     <g id="line2d_10">
      <g>
       <use xlink:href="#mffc29f68f8" x="264.186722" y="224.64" style="stroke: #000000; stroke-width: 0.8"/>
      </g>
     </g>
     <g id="text_5">
      <!-- 40 -->
      <g transform="translate(257.824222 239.238438)scale(0.1 -0.1)">
       <defs>
        <path id="DejaVuSans-34" d="M 2419 4116 
L 825 1625 
L 2419 1625 
L 2419 4116 
z
M 2253 4666 
L 3047 4666 
L 3047 1625 
L 3713 1625 
L 3713 1100 
L 3047 1100 
L 3047 0 
L 2419 0 
L 2419 1100 
L 313 1100 
L 313 1709 
L 2253 4666 
z
" transform="scale(0.015625)"/>
       </defs>
       <use xlink:href="#DejaVuSans-34"/>
       <use xlink:href="#DejaVuSans-30" x="63.623047"/>
      </g>
     </g>
    </g>
    <g id="xtick_6">
     <g id="line2d_11">
      <path d="M 315.773779 224.64 
L 315.773779 7.2 
" clip-path="url(#p240b5fbf4e)" style="fill: none; stroke: #b0b0b0; stroke-width: 0.8; stroke-linecap: square"/>
     </g>
     <g id="line2d_12">
      <g>
       <use xlink:href="#mffc29f68f8" x="315.773779" y="224.64" style="stroke: #000000; stroke-width: 0.8"/>
      </g>
     </g>
     <g id="text_6">
      <!-- 50 -->
      <g transform="translate(309.411279 239.238438)scale(0.1 -0.1)">
       <defs>
        <path id="DejaVuSans-35" d="M 691 4666 
L 3169 4666 
L 3169 4134 
L 1269 4134 
L 1269 2991 
Q 1406 3038 1543 3061 
Q 1681 3084 1819 3084 
Q 2600 3084 3056 2656 
Q 3513 2228 3513 1497 
Q 3513 744 3044 326 
Q 2575 -91 1722 -91 
Q 1428 -91 1123 -41 
Q 819 9 494 109 
L 494 744 
Q 775 591 1075 516 
Q 1375 441 1709 441 
Q 2250 441 2565 725 
Q 2881 1009 2881 1497 
Q 2881 1984 2565 2268 
Q 2250 2553 1709 2553 
Q 1456 2553 1204 2497 
Q 953 2441 691 2322 
L 691 4666 
z
" transform="scale(0.015625)"/>
       </defs>
       <use xlink:href="#DejaVuSans-35"/>
       <use xlink:href="#DejaVuSans-30" x="63.623047"/>
      </g>
     </g>
    </g>
    <g id="xtick_7">
     <g id="line2d_13">
      <path d="M 367.360836 224.64 
L 367.360836 7.2 
" clip-path="url(#p240b5fbf4e)" style="fill: none; stroke: #b0b0b0; stroke-width: 0.8; stroke-linecap: square"/>
     </g>
     <g id="line2d_14">
      <g>
       <use xlink:href="#mffc29f68f8" x="367.360836" y="224.64" style="stroke: #000000; stroke-width: 0.8"/>
      </g>
     </g>
     <g id="text_7">
      <!-- 60 -->
      <g transform="translate(360.998336 239.238438)scale(0.1 -0.1)">
       <defs>
        <path id="DejaVuSans-36" d="M 2113 2584 
Q 1688 2584 1439 2293 
Q 1191 2003 1191 1497 
Q 1191 994 1439 701 
Q 1688 409 2113 409 
Q 2538 409 2786 701 
Q 3034 994 3034 1497 
Q 3034 2003 2786 2293 
Q 2538 2584 2113 2584 
z
M 3366 4563 
L 3366 3988 
Q 3128 4100 2886 4159 
Q 2644 4219 2406 4219 
Q 1781 4219 1451 3797 
Q 1122 3375 1075 2522 
Q 1259 2794 1537 2939 
Q 1816 3084 2150 3084 
Q 2853 3084 3261 2657 
Q 3669 2231 3669 1497 
Q 3669 778 3244 343 
Q 2819 -91 2113 -91 
Q 1303 -91 875 529 
Q 447 1150 447 2328 
Q 447 3434 972 4092 
Q 1497 4750 2381 4750 
Q 2619 4750 2861 4703 
Q 3103 4656 3366 4563 
z
" transform="scale(0.015625)"/>
       </defs>
       <use xlink:href="#DejaVuSans-36"/>
       <use xlink:href="#DejaVuSans-30" x="63.623047"/>
      </g>
     </g>
    </g>
    <g id="text_8">
     <!-- Minute -->
     <g transform="translate(192.942969 252.916563)scale(0.1 -0.1)">
      <defs>
       <path id="DejaVuSans-4d" d="M 628 4666 
L 1569 4666 
L 2759 1491 
L 3956 4666 
L 4897 4666 
L 4897 0 
L 4281 0 
L 4281 4097 
L 3078 897 
L 2444 897 
L 1241 4097 
L 1241 0 
L 628 0 
L 628 4666 
z
" transform="scale(0.015625)"/>
       <path id="DejaVuSans-69" d="M 603 3500 
L 1178 3500 
L 1178 0 
L 603 0 
L 603 3500 
z
M 603 4863 
L 1178 4863 
L 1178 4134 
L 603 4134 
L 603 4863 
z
" transform="scale(0.015625)"/>
       <path id="DejaVuSans-6e" d="M 3513 2113 
L 3513 0 
L 2938 0 
L 2938 2094 
Q 2938 2591 2744 2837 
Q 2550 3084 2163 3084 
Q 1697 3084 1428 2787 
Q 1159 2491 1159 1978 
L 1159 0 
L 581 0 
L 581 3500 
L 1159 3500 
L 1159 2956 
Q 1366 3272 1645 3428 
Q 1925 3584 2291 3584 
Q 2894 3584 3203 3211 
Q 3513 2838 3513 2113 
z
" transform="scale(0.015625)"/>
       <path id="DejaVuSans-75" d="M 544 1381 
L 544 3500 
L 1119 3500 
L 1119 1403 
Q 1119 906 1312 657 
Q 1506 409 1894 409 
Q 2359 409 2629 706 
Q 2900 1003 2900 1516 
L 2900 3500 
L 3475 3500 
L 3475 0 
L 2900 0 
L 2900 538 
Q 2691 219 2414 64 
Q 2138 -91 1772 -91 
Q 1169 -91 856 284 
Q 544 659 544 1381 
z
M 1991 3584 
L 1991 3584 
z
" transform="scale(0.015625)"/>
       <path id="DejaVuSans-74" d="M 1172 4494 
L 1172 3500 
L 2356 3500 
L 2356 3053 
L 1172 3053 
L 1172 1153 
Q 1172 725 1289 603 
Q 1406 481 1766 481 
L 2356 481 
L 2356 0 
L 1766 0 
Q 1100 0 847 248 
Q 594 497 594 1153 
L 594 3053 
L 172 3053 
L 172 3500 
L 594 3500 
L 594 4494 
L 1172 4494 
z
" transform="scale(0.015625)"/>
       <path id="DejaVuSans-65" d="M 3597 1894 
L 3597 1613 
L 953 1613 
Q 991 1019 1311 708 
Q 1631 397 2203 397 
Q 2534 397 2845 478 
Q 3156 559 3463 722 
L 3463 178 
Q 3153 47 2828 -22 
Q 2503 -91 2169 -91 
Q 1331 -91 842 396 
Q 353 884 353 1716 
Q 353 2575 817 3079 
Q 1281 3584 2069 3584 
Q 2775 3584 3186 3129 
Q 3597 2675 3597 1894 
z
M 3022 2063 
Q 3016 2534 2758 2815 
Q 2500 3097 2075 3097 
Q 1594 3097 1305 2825 
Q 1016 2553 972 2059 
L 3022 2063 
z
" transform="scale(0.015625)"/>
      </defs>
      <use xlink:href="#DejaVuSans-4d"/>
      <use xlink:href="#DejaVuSans-69" x="86.279297"/>
      <use xlink:href="#DejaVuSans-6e" x="114.0625"/>
      <use xlink:href="#DejaVuSans-75" x="177.441406"/>
      <use xlink:href="#DejaVuSans-74" x="240.820312"/>
      <use xlink:href="#DejaVuSans-65" x="280.029297"/>
     </g>
    </g>
   </g>
   <g id="matplotlib.axis_2">
    <g id="ytick_1">
     <g id="line2d_15">
      <path d="M 42.620313 222.600519 
L 377.420313 222.600519 
" clip-path="url(#p240b5fbf4e)" style="fill: none; stroke: #b0b0b0; stroke-width: 0.8; stroke-linecap: square"/>
     </g>
     <g id="line2d_16">
      <defs>
       <path id="mf2e95cd063" d="M 0 0 
L -3.5 0 
" style="stroke: #000000; stroke-width: 0.8"/>
      </defs>
      <g>
       <use xlink:href="#mf2e95cd063" x="42.620313" y="222.600519" style="stroke: #000000; stroke-width: 0.8"/>
      </g>
     </g>
     <g id="text_9">
      <!-- −2 -->
      <g transform="translate(20.878125 226.399738)scale(0.1 -0.1)">
       <defs>
        <path id="DejaVuSans-2212" d="M 678 2272 
L 4684 2272 
L 4684 1741 
L 678 1741 
L 678 2272 
z
" transform="scale(0.015625)"/>
       </defs>
       <use xlink:href="#DejaVuSans-2212"/>
       <use xlink:href="#DejaVuSans-32" x="83.789062"/>
      </g>
     </g>
    </g>
    <g id="ytick_2">
     <g id="line2d_17">
      <path d="M 42.620313 191.223896 
L 377.420313 191.223896 
" clip-path="url(#p240b5fbf4e)" style="fill: none; stroke: #b0b0b0; stroke-width: 0.8; stroke-linecap: square"/>
     </g>
     <g id="line2d_18">
      <g>
       <use xlink:href="#mf2e95cd063" x="42.620313" y="191.223896" style="stroke: #000000; stroke-width: 0.8"/>
      </g>
     </g>
     <g id="text_10">
      <!-- −1 -->
      <g transform="translate(20.878125 195.023115)scale(0.1 -0.1)">
       <use xlink:href="#DejaVuSans-2212"/>
       <use xlink:href="#DejaVuSans-31" x="83.789062"/>
      </g>
     </g>
    </g>
    <g id="ytick_3">
     <g id="line2d_19">
      <path d="M 42.620313 159.847273 
L 377.420313 159.847273 
" clip-path="url(#p240b5fbf4e)" style="fill: none; stroke: #b0b0b0; stroke-width: 0.8; stroke-linecap: square"/>
     </g>
     <g id="line2d_20">
      <g>
       <use xlink:href="#mf2e95cd063" x="42.620313" y="159.847273" style="stroke: #000000; stroke-width: 0.8"/>
      </g>
     </g>
     <g id="text_11">
      <!-- 0 -->
      <g transform="translate(29.257813 163.646491)scale(0.1 -0.1)">
       <use xlink:href="#DejaVuSans-30"/>
      </g>
     </g>
    </g>
    <g id="ytick_4">
     <g id="line2d_21">
      <path d="M 42.620313 128.470649 
L 377.420313 128.470649 
" clip-path="url(#p240b5fbf4e)" style="fill: none; stroke: #b0b0b0; stroke-width: 0.8; stroke-linecap: square"/>
     </g>
     <g id="line2d_22">
      <g>
       <use xlink:href="#mf2e95cd063" x="42.620313" y="128.470649" style="stroke: #000000; stroke-width: 0.8"/>
      </g>
     </g>
     <g id="text_12">
      <!-- 1 -->
      <g transform="translate(29.257813 132.269868)scale(0.1 -0.1)">
       <use xlink:href="#DejaVuSans-31"/>
      </g>
     </g>
    </g>
    <g id="ytick_5">
     <g id="line2d_23">
      <path d="M 42.620313 97.094026 
L 377.420313 97.094026 
" clip-path="url(#p240b5fbf4e)" style="fill: none; stroke: #b0b0b0; stroke-width: 0.8; stroke-linecap: square"/>
     </g>
     <g id="line2d_24">
      <g>
       <use xlink:href="#mf2e95cd063" x="42.620313" y="97.094026" style="stroke: #000000; stroke-width: 0.8"/>
      </g>
     </g>
     <g id="text_13">
      <!-- 2 -->
      <g transform="translate(29.257813 100.893245)scale(0.1 -0.1)">
       <use xlink:href="#DejaVuSans-32"/>
      </g>
     </g>
    </g>
    <g id="ytick_6">
     <g id="line2d_25">
      <path d="M 42.620313 65.717403 
L 377.420313 65.717403 
" clip-path="url(#p240b5fbf4e)" style="fill: none; stroke: #b0b0b0; stroke-width: 0.8; stroke-linecap: square"/>
     </g>
     <g id="line2d_26">
      <g>
       <use xlink:href="#mf2e95cd063" x="42.620313" y="65.717403" style="stroke: #000000; stroke-width: 0.8"/>
      </g>
     </g>
     <g id="text_14">
      <!-- 3 -->
      <g transform="translate(29.257813 69.516621)scale(0.1 -0.1)">
       <use xlink:href="#DejaVuSans-33"/>
      </g>
     </g>
    </g>
    <g id="ytick_7">
     <g id="line2d_27">
      <path d="M 42.620313 34.340779 
L 377.420313 34.340779 
" clip-path="url(#p240b5fbf4e)" style="fill: none; stroke: #b0b0b0; stroke-width: 0.8; stroke-linecap: square"/>
     </g>
     <g id="line2d_28">
      <g>
       <use xlink:href="#mf2e95cd063" x="42.620313" y="34.340779" style="stroke: #000000; stroke-width: 0.8"/>
      </g>
     </g>
     <g id="text_15">
      <!-- 4 -->
      <g transform="translate(29.257813 38.139998)scale(0.1 -0.1)">
       <use xlink:href="#DejaVuSans-34"/>
      </g>
     </g>
    </g>
    <g id="text_16">
     <!-- Standardised residual -->
     <g transform="translate(14.798438 170.310625)rotate(-90)scale(0.1 -0.1)">
      <defs>
       <path id="DejaVuSans-53" d="M 3425 4513 
L 3425 3897 
Q 3066 4069 2747 4153 
Q 2428 4238 2131 4238 
Q 1616 4238 1336 4038 
Q 1056 3838 1056 3469 
Q 1056 3159 1242 3001 
Q 1428 2844 1947 2747 
L 2328 2669 
Q 3034 2534 3370 2195 
Q 3706 1856 3706 1288 
Q 3706 609 3251 259 
Q 2797 -91 1919 -91 
Q 1588 -91 1214 -16 
Q 841 59 441 206 
L 441 856 
Q 825 641 1194 531 
Q 1563 422 1919 422 
Q 2459 422 2753 634 
Q 3047 847 3047 1241 
Q 3047 1584 2836 1778 
Q 2625 1972 2144 2069 
L 1759 2144 
Q 1053 2284 737 2584 
Q 422 2884 422 3419 
Q 422 4038 858 4394 
Q 1294 4750 2059 4750 
Q 2388 4750 2728 4690 
Q 3069 4631 3425 4513 
z
" transform="scale(0.015625)"/>
       <path id="DejaVuSans-61" d="M 2194 1759 
Q 1497 1759 1228 1600 
Q 959 1441 959 1056 
Q 959 750 1161 570 
Q 1363 391 1709 391 
Q 2188 391 2477 730 
Q 2766 1069 2766 1631 
L 2766 1759 
L 2194 1759 
z
M 3341 1997 
L 3341 0 
L 2766 0 
L 2766 531 
Q 2569 213 2275 61 
Q 1981 -91 1556 -91 
Q 1019 -91 701 211 
Q 384 513 384 1019 
Q 384 1609 779 1909 
Q 1175 2209 1959 2209 
L 2766 2209 
L 2766 2266 
Q 2766 2663 2505 2880 
Q 2244 3097 1772 3097 
Q 1472 3097 1187 3025 
Q 903 2953 641 2809 
L 641 3341 
Q 956 3463 1253 3523 
Q 1550 3584 1831 3584 
Q 2591 3584 2966 3190 
Q 3341 2797 3341 1997 
z
" transform="scale(0.015625)"/>
       <path id="DejaVuSans-64" d="M 2906 2969 
L 2906 4863 
L 3481 4863 
L 3481 0 
L 2906 0 
L 2906 525 
Q 2725 213 2448 61 
Q 2172 -91 1784 -91 
Q 1150 -91 751 415 
Q 353 922 353 1747 
Q 353 2572 751 3078 
Q 1150 3584 1784 3584 
Q 2172 3584 2448 3432 
Q 2725 3281 2906 2969 
z
M 947 1747 
Q 947 1113 1208 752 
Q 1469 391 1925 391 
Q 2381 391 2643 752 
Q 2906 1113 2906 1747 
Q 2906 2381 2643 2742 
Q 2381 3103 1925 3103 
Q 1469 3103 1208 2742 
Q 947 2381 947 1747 
z
" transform="scale(0.015625)"/>
       <path id="DejaVuSans-72" d="M 2631 2963 
Q 2534 3019 2420 3045 
Q 2306 3072 2169 3072 
Q 1681 3072 1420 2755 
Q 1159 2438 1159 1844 
L 1159 0 
L 581 0 
L 581 3500 
L 1159 3500 
L 1159 2956 
Q 1341 3275 1631 3429 
Q 1922 3584 2338 3584 
Q 2397 3584 2469 3576 
Q 2541 3569 2628 3553 
L 2631 2963 
z
" transform="scale(0.015625)"/>
       <path id="DejaVuSans-73" d="M 2834 3397 
L 2834 2853 
Q 2591 2978 2328 3040 
Q 2066 3103 1784 3103 
Q 1356 3103 1142 2972 
Q 928 2841 928 2578 
Q 928 2378 1081 2264 
Q 1234 2150 1697 2047 
L 1894 2003 
Q 2506 1872 2764 1633 
Q 3022 1394 3022 966 
Q 3022 478 2636 193 
Q 2250 -91 1575 -91 
Q 1294 -91 989 -36 
Q 684 19 347 128 
L 347 722 
Q 666 556 975 473 
Q 1284 391 1588 391 
Q 1994 391 2212 530 
Q 2431 669 2431 922 
Q 2431 1156 2273 1281 
Q 2116 1406 1581 1522 
L 1381 1569 
Q 847 1681 609 1914 
Q 372 2147 372 2553 
Q 372 3047 722 3315 
Q 1072 3584 1716 3584 
Q 2034 3584 2315 3537 
Q 2597 3491 2834 3397 
z
" transform="scale(0.015625)"/>
       <path id="DejaVuSans-20" transform="scale(0.015625)"/>
       <path id="DejaVuSans-6c" d="M 603 4863 
L 1178 4863 
L 1178 0 
L 603 0 
L 603 4863 
z
" transform="scale(0.015625)"/>
      </defs>
      <use xlink:href="#DejaVuSans-53"/>
      <use xlink:href="#DejaVuSans-74" x="63.476562"/>
      <use xlink:href="#DejaVuSans-61" x="102.685547"/>
      <use xlink:href="#DejaVuSans-6e" x="163.964844"/>
      <use xlink:href="#DejaVuSans-64" x="227.34375"/>
      <use xlink:href="#DejaVuSans-61" x="290.820312"/>
      <use xlink:href="#DejaVuSans-72" x="352.099609"/>
      <use xlink:href="#DejaVuSans-64" x="391.462891"/>
      <use xlink:href="#DejaVuSans-69" x="454.939453"/>
      <use xlink:href="#DejaVuSans-73" x="482.722656"/>
      <use xlink:href="#DejaVuSans-65" x="534.822266"/>
      <use xlink:href="#DejaVuSans-64" x="596.345703"/>
      <use xlink:href="#DejaVuSans-20" x="659.822266"/>
      <use xlink:href="#DejaVuSans-72" x="691.609375"/>
      <use xlink:href="#DejaVuSans-65" x="730.472656"/>
      <use xlink:href="#DejaVuSans-73" x="791.996094"/>
      <use xlink:href="#DejaVuSans-69" x="844.095703"/>
      <use xlink:href="#DejaVuSans-64" x="871.878906"/>
      <use xlink:href="#DejaVuSans-75" x="935.355469"/>
      <use xlink:href="#DejaVuSans-61" x="998.734375"/>
      <use xlink:href="#DejaVuSans-6c" x="1060.013672"/>
     </g>
    </g>
   </g>
   <g id="PathCollection_1">
    <defs>
     <path id="m8390ade4fd" d="M 0 3 
C 0.795609 3 1.55874 2.683901 2.12132 2.12132 
C 2.683901 1.55874 3 0.795609 3 0 
C 3 -0.795609 2.683901 -1.55874 2.12132 -2.12132 
C 1.55874 -2.683901 0.795609 -3 0 -3 
C -0.795609 -3 -1.55874 -2.683901 -2.12132 -2.12132 
C -2.683901 -1.55874 -3 -0.795609 -3 0 
C -3 0.795609 -2.683901 1.55874 -2.12132 2.12132 
C -1.55874 2.683901 -0.795609 3 0 3 
z
" style="stroke: #000000"/>
    </defs>
    <g clip-path="url(#p240b5fbf4e)">
     <use xlink:href="#m8390ade4fd" x="57.838494" y="152.003117" style="fill: #dcdcdc; stroke: #000000"/>
     <use xlink:href="#m8390ade4fd" x="62.9972" y="57.873247" style="fill: #dcdcdc; stroke: #000000"/>
     <use xlink:href="#m8390ade4fd" x="68.155906" y="214.756364" style="fill: #dcdcdc; stroke: #000000"/>
     <use xlink:href="#m8390ade4fd" x="73.314611" y="152.003117" style="fill: #dcdcdc; stroke: #000000"/>
     <use xlink:href="#m8390ade4fd" x="78.473317" y="120.626494" style="fill: #dcdcdc; stroke: #000000"/>
     <use xlink:href="#m8390ade4fd" x="83.632023" y="183.37974" style="fill: #dcdcdc; stroke: #000000"/>
     <use xlink:href="#m8390ade4fd" x="88.790729" y="183.37974" style="fill: #dcdcdc; stroke: #000000"/>
     <use xlink:href="#m8390ade4fd" x="93.949434" y="152.003117" style="fill: #dcdcdc; stroke: #000000"/>
     <use xlink:href="#m8390ade4fd" x="99.10814" y="183.37974" style="fill: #dcdcdc; stroke: #000000"/>
     <use xlink:href="#m8390ade4fd" x="104.266846" y="120.626494" style="fill: #dcdcdc; stroke: #000000"/>
     <use xlink:href="#m8390ade4fd" x="109.425551" y="214.756364" style="fill: #dcdcdc; stroke: #000000"/>
     <use xlink:href="#m8390ade4fd" x="114.584257" y="152.003117" style="fill: #dcdcdc; stroke: #000000"/>
     <use xlink:href="#m8390ade4fd" x="119.742963" y="214.756364" style="fill: #dcdcdc; stroke: #000000"/>
     <use xlink:href="#m8390ade4fd" x="124.901668" y="89.24987" style="fill: #dcdcdc; stroke: #000000"/>
     <use xlink:href="#m8390ade4fd" x="130.060374" y="183.37974" style="fill: #dcdcdc; stroke: #000000"/>
     <use xlink:href="#m8390ade4fd" x="135.21908" y="183.37974" style="fill: #dcdcdc; stroke: #000000"/>
     <use xlink:href="#m8390ade4fd" x="140.377786" y="214.756364" style="fill: #dcdcdc; stroke: #000000"/>
     <use xlink:href="#m8390ade4fd" x="145.536491" y="183.37974" style="fill: #dcdcdc; stroke: #000000"/>
     <use xlink:href="#m8390ade4fd" x="150.695197" y="120.626494" style="fill: #dcdcdc; stroke: #000000"/>
     <use xlink:href="#m8390ade4fd" x="155.853903" y="183.37974" style="fill: #dcdcdc; stroke: #000000"/>
     <use xlink:href="#m8390ade4fd" x="161.012608" y="183.37974" style="fill: #dcdcdc; stroke: #000000"/>
     <use xlink:href="#m8390ade4fd" x="166.171314" y="152.003117" style="fill: #dcdcdc; stroke: #000000"/>
     <use xlink:href="#m8390ade4fd" x="171.33002" y="214.756364" style="fill: #dcdcdc; stroke: #000000"/>
     <use xlink:href="#m8390ade4fd" x="176.488725" y="183.37974" style="fill: #dcdcdc; stroke: #000000"/>
     <use xlink:href="#m8390ade4fd" x="181.647431" y="183.37974" style="fill: #dcdcdc; stroke: #000000"/>
     <use xlink:href="#m8390ade4fd" x="186.806137" y="120.626494" style="fill: #dcdcdc; stroke: #000000"/>
     <use xlink:href="#m8390ade4fd" x="191.964843" y="183.37974" style="fill: #dcdcdc; stroke: #000000"/>
     <use xlink:href="#m8390ade4fd" x="197.123548" y="152.003117" style="fill: #dcdcdc; stroke: #000000"/>
     <use xlink:href="#m8390ade4fd" x="202.282254" y="183.37974" style="fill: #dcdcdc; stroke: #000000"/>
     <use xlink:href="#m8390ade4fd" x="207.44096" y="57.873247" style="fill: #dcdcdc; stroke: #000000"/>
     <use xlink:href="#m8390ade4fd" x="212.599665" y="152.003117" style="fill: #dcdcdc; stroke: #000000"/>
     <use xlink:href="#m8390ade4fd" x="217.758371" y="183.37974" style="fill: #dcdcdc; stroke: #000000"/>
     <use xlink:href="#m8390ade4fd" x="222.917077" y="183.37974" style="fill: #dcdcdc; stroke: #000000"/>
     <use xlink:href="#m8390ade4fd" x="228.075782" y="89.24987" style="fill: #dcdcdc; stroke: #000000"/>
     <use xlink:href="#m8390ade4fd" x="233.234488" y="183.37974" style="fill: #dcdcdc; stroke: #000000"/>
     <use xlink:href="#m8390ade4fd" x="238.393194" y="214.756364" style="fill: #dcdcdc; stroke: #000000"/>
     <use xlink:href="#m8390ade4fd" x="243.5519" y="214.756364" style="fill: #dcdcdc; stroke: #000000"/>
     <use xlink:href="#m8390ade4fd" x="248.710605" y="183.37974" style="fill: #dcdcdc; stroke: #000000"/>
     <use xlink:href="#m8390ade4fd" x="253.869311" y="152.003117" style="fill: #dcdcdc; stroke: #000000"/>
     <use xlink:href="#m8390ade4fd" x="259.028017" y="183.37974" style="fill: #dcdcdc; stroke: #000000"/>
     <use xlink:href="#m8390ade4fd" x="264.186722" y="152.003117" style="fill: #dcdcdc; stroke: #000000"/>
     <use xlink:href="#m8390ade4fd" x="269.345428" y="183.37974" style="fill: #dcdcdc; stroke: #000000"/>
     <use xlink:href="#m8390ade4fd" x="274.504134" y="120.626494" style="fill: #dcdcdc; stroke: #000000"/>
     <use xlink:href="#m8390ade4fd" x="279.662839" y="89.24987" style="fill: #dcdcdc; stroke: #000000"/>
     <use xlink:href="#m8390ade4fd" x="284.821545" y="183.37974" style="fill: #dcdcdc; stroke: #000000"/>
     <use xlink:href="#m8390ade4fd" x="289.980251" y="214.756364" style="fill: #dcdcdc; stroke: #000000"/>
     <use xlink:href="#m8390ade4fd" x="295.138957" y="120.626494" style="fill: #dcdcdc; stroke: #000000"/>
     <use xlink:href="#m8390ade4fd" x="300.297662" y="152.003117" style="fill: #dcdcdc; stroke: #000000"/>
     <use xlink:href="#m8390ade4fd" x="305.456368" y="214.756364" style="fill: #dcdcdc; stroke: #000000"/>
     <use xlink:href="#m8390ade4fd" x="310.615074" y="120.626494" style="fill: #dcdcdc; stroke: #000000"/>
     <use xlink:href="#m8390ade4fd" x="315.773779" y="152.003117" style="fill: #dcdcdc; stroke: #000000"/>
     <use xlink:href="#m8390ade4fd" x="320.932485" y="214.756364" style="fill: #dcdcdc; stroke: #000000"/>
     <use xlink:href="#m8390ade4fd" x="326.091191" y="152.003117" style="fill: #dcdcdc; stroke: #000000"/>
     <use xlink:href="#m8390ade4fd" x="331.249896" y="152.003117" style="fill: #dcdcdc; stroke: #000000"/>
     <use xlink:href="#m8390ade4fd" x="336.408602" y="152.003117" style="fill: #dcdcdc; stroke: #000000"/>
     <use xlink:href="#m8390ade4fd" x="341.567308" y="120.626494" style="fill: #dcdcdc; stroke: #000000"/>
     <use xlink:href="#m8390ade4fd" x="346.726014" y="120.626494" style="fill: #dcdcdc; stroke: #000000"/>
     <use xlink:href="#m8390ade4fd" x="351.884719" y="89.24987" style="fill: #dcdcdc; stroke: #000000"/>
     <use xlink:href="#m8390ade4fd" x="357.043425" y="89.24987" style="fill: #dcdcdc; stroke: #000000"/>
     <use xlink:href="#m8390ade4fd" x="362.202131" y="183.37974" style="fill: #dcdcdc; stroke: #000000"/>
    </g>
   </g>
   <g id="PathCollection_2">
    <defs>
     <path id="m1612a3fb0a" d="M 0 3 
C 0.795609 3 1.55874 2.683901 2.12132 2.12132 
C 2.683901 1.55874 3 0.795609 3 0 
C 3 -0.795609 2.683901 -1.55874 2.12132 -2.12132 
C 1.55874 -2.683901 0.795609 -3 0 -3 
C -0.795609 -3 -1.55874 -2.683901 -2.12132 -2.12132 
C -2.683901 -1.55874 -3 -0.795609 -3 0 
C -3 0.795609 -2.683901 1.55874 -2.12132 2.12132 
C -1.55874 2.683901 -0.795609 3 0 3 
z
" style="stroke: #000000"/>
    </defs>
    <g clip-path="url(#p240b5fbf4e)">
     <use xlink:href="#m1612a3fb0a" x="57.838494" y="142.59013" style="fill: #696969; stroke: #000000"/>
     <use xlink:href="#m1612a3fb0a" x="62.9972" y="173.966753" style="fill: #696969; stroke: #000000"/>
     <use xlink:href="#m1612a3fb0a" x="68.155906" y="205.343377" style="fill: #696969; stroke: #000000"/>
     <use xlink:href="#m1612a3fb0a" x="73.314611" y="111.213506" style="fill: #696969; stroke: #000000"/>
     <use xlink:href="#m1612a3fb0a" x="78.473317" y="205.343377" style="fill: #696969; stroke: #000000"/>
     <use xlink:href="#m1612a3fb0a" x="83.632023" y="142.59013" style="fill: #696969; stroke: #000000"/>
     <use xlink:href="#m1612a3fb0a" x="88.790729" y="173.966753" style="fill: #696969; stroke: #000000"/>
     <use xlink:href="#m1612a3fb0a" x="93.949434" y="205.343377" style="fill: #696969; stroke: #000000"/>
     <use xlink:href="#m1612a3fb0a" x="99.10814" y="142.59013" style="fill: #696969; stroke: #000000"/>
     <use xlink:href="#m1612a3fb0a" x="104.266846" y="111.213506" style="fill: #696969; stroke: #000000"/>
     <use xlink:href="#m1612a3fb0a" x="109.425551" y="173.966753" style="fill: #696969; stroke: #000000"/>
     <use xlink:href="#m1612a3fb0a" x="114.584257" y="173.966753" style="fill: #696969; stroke: #000000"/>
     <use xlink:href="#m1612a3fb0a" x="119.742963" y="173.966753" style="fill: #696969; stroke: #000000"/>
     <use xlink:href="#m1612a3fb0a" x="124.901668" y="205.343377" style="fill: #696969; stroke: #000000"/>
     <use xlink:href="#m1612a3fb0a" x="130.060374" y="205.343377" style="fill: #696969; stroke: #000000"/>
     <use xlink:href="#m1612a3fb0a" x="135.21908" y="173.966753" style="fill: #696969; stroke: #000000"/>
     <use xlink:href="#m1612a3fb0a" x="140.377786" y="111.213506" style="fill: #696969; stroke: #000000"/>
     <use xlink:href="#m1612a3fb0a" x="145.536491" y="173.966753" style="fill: #696969; stroke: #000000"/>
     <use xlink:href="#m1612a3fb0a" x="150.695197" y="173.966753" style="fill: #696969; stroke: #000000"/>
     <use xlink:href="#m1612a3fb0a" x="155.853903" y="142.59013" style="fill: #696969; stroke: #000000"/>
     <use xlink:href="#m1612a3fb0a" x="161.012608" y="173.966753" style="fill: #696969; stroke: #000000"/>
     <use xlink:href="#m1612a3fb0a" x="166.171314" y="173.966753" style="fill: #696969; stroke: #000000"/>
     <use xlink:href="#m1612a3fb0a" x="171.33002" y="142.59013" style="fill: #696969; stroke: #000000"/>
     <use xlink:href="#m1612a3fb0a" x="176.488725" y="173.966753" style="fill: #696969; stroke: #000000"/>
     <use xlink:href="#m1612a3fb0a" x="181.647431" y="205.343377" style="fill: #696969; stroke: #000000"/>
     <use xlink:href="#m1612a3fb0a" x="186.806137" y="142.59013" style="fill: #696969; stroke: #000000"/>
     <use xlink:href="#m1612a3fb0a" x="191.964843" y="142.59013" style="fill: #696969; stroke: #000000"/>
     <use xlink:href="#m1612a3fb0a" x="197.123548" y="111.213506" style="fill: #696969; stroke: #000000"/>
     <use xlink:href="#m1612a3fb0a" x="202.282254" y="142.59013" style="fill: #696969; stroke: #000000"/>
     <use xlink:href="#m1612a3fb0a" x="207.44096" y="173.966753" style="fill: #696969; stroke: #000000"/>
     <use xlink:href="#m1612a3fb0a" x="212.599665" y="173.966753" style="fill: #696969; stroke: #000000"/>
     <use xlink:href="#m1612a3fb0a" x="217.758371" y="79.836883" style="fill: #696969; stroke: #000000"/>
     <use xlink:href="#m1612a3fb0a" x="222.917077" y="79.836883" style="fill: #696969; stroke: #000000"/>
     <use xlink:href="#m1612a3fb0a" x="228.075782" y="173.966753" style="fill: #696969; stroke: #000000"/>
     <use xlink:href="#m1612a3fb0a" x="233.234488" y="205.343377" style="fill: #696969; stroke: #000000"/>
     <use xlink:href="#m1612a3fb0a" x="238.393194" y="205.343377" style="fill: #696969; stroke: #000000"/>
     <use xlink:href="#m1612a3fb0a" x="243.5519" y="111.213506" style="fill: #696969; stroke: #000000"/>
     <use xlink:href="#m1612a3fb0a" x="248.710605" y="173.966753" style="fill: #696969; stroke: #000000"/>
     <use xlink:href="#m1612a3fb0a" x="253.869311" y="173.966753" style="fill: #696969; stroke: #000000"/>
     <use xlink:href="#m1612a3fb0a" x="259.028017" y="173.966753" style="fill: #696969; stroke: #000000"/>
     <use xlink:href="#m1612a3fb0a" x="264.186722" y="173.966753" style="fill: #696969; stroke: #000000"/>
     <use xlink:href="#m1612a3fb0a" x="269.345428" y="205.343377" style="fill: #696969; stroke: #000000"/>
     <use xlink:href="#m1612a3fb0a" x="274.504134" y="205.343377" style="fill: #696969; stroke: #000000"/>
     <use xlink:href="#m1612a3fb0a" x="279.662839" y="17.083636" style="fill: #696969; stroke: #000000"/>
     <use xlink:href="#m1612a3fb0a" x="284.821545" y="173.966753" style="fill: #696969; stroke: #000000"/>
     <use xlink:href="#m1612a3fb0a" x="289.980251" y="205.343377" style="fill: #696969; stroke: #000000"/>
     <use xlink:href="#m1612a3fb0a" x="295.138957" y="173.966753" style="fill: #696969; stroke: #000000"/>
     <use xlink:href="#m1612a3fb0a" x="300.297662" y="111.213506" style="fill: #696969; stroke: #000000"/>
     <use xlink:href="#m1612a3fb0a" x="305.456368" y="79.836883" style="fill: #696969; stroke: #000000"/>
     <use xlink:href="#m1612a3fb0a" x="310.615074" y="205.343377" style="fill: #696969; stroke: #000000"/>
     <use xlink:href="#m1612a3fb0a" x="315.773779" y="173.966753" style="fill: #696969; stroke: #000000"/>
     <use xlink:href="#m1612a3fb0a" x="320.932485" y="173.966753" style="fill: #696969; stroke: #000000"/>
     <use xlink:href="#m1612a3fb0a" x="326.091191" y="142.59013" style="fill: #696969; stroke: #000000"/>
     <use xlink:href="#m1612a3fb0a" x="331.249896" y="111.213506" style="fill: #696969; stroke: #000000"/>
     <use xlink:href="#m1612a3fb0a" x="336.408602" y="142.59013" style="fill: #696969; stroke: #000000"/>
     <use xlink:href="#m1612a3fb0a" x="341.567308" y="142.59013" style="fill: #696969; stroke: #000000"/>
     <use xlink:href="#m1612a3fb0a" x="346.726014" y="173.966753" style="fill: #696969; stroke: #000000"/>
     <use xlink:href="#m1612a3fb0a" x="351.884719" y="173.966753" style="fill: #696969; stroke: #000000"/>
     <use xlink:href="#m1612a3fb0a" x="357.043425" y="173.966753" style="fill: #696969; stroke: #000000"/>
     <use xlink:href="#m1612a3fb0a" x="362.202131" y="173.966753" style="fill: #696969; stroke: #000000"/>
    </g>
   </g>
   <g id="patch_3">
    <path d="M 42.620313 224.64 
L 42.620313 7.2 
" style="fill: none; stroke: #000000; stroke-width: 0.8; stroke-linejoin: miter; stroke-linecap: square"/>
   </g>
   <g id="patch_4">
    <path d="M 377.420313 224.64 
L 377.420313 7.2 
" style="fill: none; stroke: #000000; stroke-width: 0.8; stroke-linejoin: miter; stroke-linecap: square"/>
   </g>
   <g id="patch_5">
    <path d="M 42.620313 224.64 
L 377.420312 224.64 
" style="fill: none; stroke: #000000; stroke-width: 0.8; stroke-linejoin: miter; stroke-linecap: square"/>
   </g>
   <g id="patch_6">
    <path d="M 42.620313 7.2 
L 377.420312 7.2 
" style="fill: none; stroke: #000000; stroke-width: 0.8; stroke-linejoin: miter; stroke-linecap: square"/>
   </g>
  </g>
 </g>
 <defs>
  <clipPath id="p240b5fbf4e">
   <rect x="42.620313" y="7.2" width="334.8" height="217.44"/>
  </clipPath>
 </defs>
</svg>
