<?xml version="1.0" encoding="utf-8" standalone="no"?>
<!DOCTYPE svg PUBLIC "-//W3C//DTD SVG 1.1//EN"
  "http://www.w3.org/Graphics/SVG/1.1/DTD/svg11.dtd">
<svg xmlns:xlink="http://www.w3.org/1999/xlink" width="440.39952pt" height="296.39952pt" viewBox="0 0 440.39952 296.39952" xmlns="http://www.w3.org/2000/svg" version="1.1">
 <metadata>
  <rdf:RDF xmlns:dc="http://purl.org/dc/elements/1.1/" xmlns:cc="http://creativecommons.org/ns#" xmlns:rdf="http://www.w3.org/1999/02/22-rdf-syntax-ns#">
   <cc:Work>
    <dc:type rdf:resource="http://purl.org/dc/dcmitype/StillImage"/>
    <dc:date>2021-12-12T10:57:53.828168</dc:date>
    <dc:format>image/svg+xml</dc:format>
    <dc:creator>
     <cc:Agent>
      <dc:title>Matplotlib v3.5.0, https://matplotlib.org/</dc:title>
     </cc:Agent>
    </dc:creator>
   </cc:Work>
  </rdf:RDF>
 </metadata>
 <defs>
  <style type="text/css">*{stroke-linejoin: round; stroke-linecap: butt}</style>
 </defs>
 <g id="figure_1">
  <g id="patch_1">
   <path d="M 0 296.39952 
L 440.39952 296.39952 
L 440.39952 0 
L 0 0 
L 0 296.39952 
z
" style="fill: none"/>
  </g>
  <g id="axes_1">
   <g id="patch_2">
    <path d="M 36.465625 80.521395 
L 433.19952 80.521395 
L 433.19952 7.2 
L 36.465625 7.2 
z
" style="fill: #ffffff"/>
   </g>
   <g id="matplotlib.axis_1">
    <g id="xtick_1">
     <g id="line2d_1">
      <defs>
       <path id="m4f977a0022" d="M 0 0 
L 0 3.5 
" style="stroke: #000000; stroke-width: 0.8"/>
      </defs>
      <g>
       <use xlink:href="#m4f977a0022" x="66.296508" y="80.521395" style="stroke: #000000; stroke-width: 0.8"/>
      </g>
     </g>
     <g id="text_1">
      <!-- Group 0.0 -->
      <g transform="translate(41.536352 95.119832)scale(0.1 -0.1)">
       <defs>
        <path id="DejaVuSans-47" d="M 3809 666 
L 3809 1919 
L 2778 1919 
L 2778 2438 
L 4434 2438 
L 4434 434 
Q 4069 175 3628 42 
Q 3188 -91 2688 -91 
Q 1594 -91 976 548 
Q 359 1188 359 2328 
Q 359 3472 976 4111 
Q 1594 4750 2688 4750 
Q 3144 4750 3555 4637 
Q 3966 4525 4313 4306 
L 4313 3634 
Q 3963 3931 3569 4081 
Q 3175 4231 2741 4231 
Q 1884 4231 1454 3753 
Q 1025 3275 1025 2328 
Q 1025 1384 1454 906 
Q 1884 428 2741 428 
Q 3075 428 3337 486 
Q 3600 544 3809 666 
z
" transform="scale(0.015625)"/>
        <path id="DejaVuSans-72" d="M 2631 2963 
Q 2534 3019 2420 3045 
Q 2306 3072 2169 3072 
Q 1681 3072 1420 2755 
Q 1159 2438 1159 1844 
L 1159 0 
L 581 0 
L 581 3500 
L 1159 3500 
L 1159 2956 
Q 1341 3275 1631 3429 
Q 1922 3584 2338 3584 
Q 2397 3584 2469 3576 
Q 2541 3569 2628 3553 
L 2631 2963 
z
" transform="scale(0.015625)"/>
        <path id="DejaVuSans-6f" d="M 1959 3097 
Q 1497 3097 1228 2736 
Q 959 2375 959 1747 
Q 959 1119 1226 758 
Q 1494 397 1959 397 
Q 2419 397 2687 759 
Q 2956 1122 2956 1747 
Q 2956 2369 2687 2733 
Q 2419 3097 1959 3097 
z
M 1959 3584 
Q 2709 3584 3137 3096 
Q 3566 2609 3566 1747 
Q 3566 888 3137 398 
Q 2709 -91 1959 -91 
Q 1206 -91 779 398 
Q 353 888 353 1747 
Q 353 2609 779 3096 
Q 1206 3584 1959 3584 
z
" transform="scale(0.015625)"/>
        <path id="DejaVuSans-75" d="M 544 1381 
L 544 3500 
L 1119 3500 
L 1119 1403 
Q 1119 906 1312 657 
Q 1506 409 1894 409 
Q 2359 409 2629 706 
Q 2900 1003 2900 1516 
L 2900 3500 
L 3475 3500 
L 3475 0 
L 2900 0 
L 2900 538 
Q 2691 219 2414 64 
Q 2138 -91 1772 -91 
Q 1169 -91 856 284 
Q 544 659 544 1381 
z
M 1991 3584 
L 1991 3584 
z
" transform="scale(0.015625)"/>
        <path id="DejaVuSans-70" d="M 1159 525 
L 1159 -1331 
L 581 -1331 
L 581 3500 
L 1159 3500 
L 1159 2969 
Q 1341 3281 1617 3432 
Q 1894 3584 2278 3584 
Q 2916 3584 3314 3078 
Q 3713 2572 3713 1747 
Q 3713 922 3314 415 
Q 2916 -91 2278 -91 
Q 1894 -91 1617 61 
Q 1341 213 1159 525 
z
M 3116 1747 
Q 3116 2381 2855 2742 
Q 2594 3103 2138 3103 
Q 1681 3103 1420 2742 
Q 1159 2381 1159 1747 
Q 1159 1113 1420 752 
Q 1681 391 2138 391 
Q 2594 391 2855 752 
Q 3116 1113 3116 1747 
z
" transform="scale(0.015625)"/>
        <path id="DejaVuSans-20" transform="scale(0.015625)"/>
        <path id="DejaVuSans-30" d="M 2034 4250 
Q 1547 4250 1301 3770 
Q 1056 3291 1056 2328 
Q 1056 1369 1301 889 
Q 1547 409 2034 409 
Q 2525 409 2770 889 
Q 3016 1369 3016 2328 
Q 3016 3291 2770 3770 
Q 2525 4250 2034 4250 
z
M 2034 4750 
Q 2819 4750 3233 4129 
Q 3647 3509 3647 2328 
Q 3647 1150 3233 529 
Q 2819 -91 2034 -91 
Q 1250 -91 836 529 
Q 422 1150 422 2328 
Q 422 3509 836 4129 
Q 1250 4750 2034 4750 
z
" transform="scale(0.015625)"/>
        <path id="DejaVuSans-2e" d="M 684 794 
L 1344 794 
L 1344 0 
L 684 0 
L 684 794 
z
" transform="scale(0.015625)"/>
       </defs>
       <use xlink:href="#DejaVuSans-47"/>
       <use xlink:href="#DejaVuSans-72" x="77.490234"/>
       <use xlink:href="#DejaVuSans-6f" x="116.353516"/>
       <use xlink:href="#DejaVuSans-75" x="177.535156"/>
       <use xlink:href="#DejaVuSans-70" x="240.914062"/>
       <use xlink:href="#DejaVuSans-20" x="304.390625"/>
       <use xlink:href="#DejaVuSans-30" x="336.177734"/>
       <use xlink:href="#DejaVuSans-2e" x="399.800781"/>
       <use xlink:href="#DejaVuSans-30" x="431.587891"/>
      </g>
     </g>
    </g>
    <g id="xtick_2">
     <g id="line2d_2">
      <g>
       <use xlink:href="#m4f977a0022" x="133.710934" y="80.521395" style="stroke: #000000; stroke-width: 0.8"/>
      </g>
     </g>
     <g id="text_2">
      <!-- Group 1.0 -->
      <g transform="translate(108.950778 95.119832)scale(0.1 -0.1)">
       <defs>
        <path id="DejaVuSans-31" d="M 794 531 
L 1825 531 
L 1825 4091 
L 703 3866 
L 703 4441 
L 1819 4666 
L 2450 4666 
L 2450 531 
L 3481 531 
L 3481 0 
L 794 0 
L 794 531 
z
" transform="scale(0.015625)"/>
       </defs>
       <use xlink:href="#DejaVuSans-47"/>
       <use xlink:href="#DejaVuSans-72" x="77.490234"/>
       <use xlink:href="#DejaVuSans-6f" x="116.353516"/>
       <use xlink:href="#DejaVuSans-75" x="177.535156"/>
       <use xlink:href="#DejaVuSans-70" x="240.914062"/>
       <use xlink:href="#DejaVuSans-20" x="304.390625"/>
       <use xlink:href="#DejaVuSans-31" x="336.177734"/>
       <use xlink:href="#DejaVuSans-2e" x="399.800781"/>
       <use xlink:href="#DejaVuSans-30" x="431.587891"/>
      </g>
     </g>
    </g>
    <g id="xtick_3">
     <g id="line2d_3">
      <g>
       <use xlink:href="#m4f977a0022" x="201.12536" y="80.521395" style="stroke: #000000; stroke-width: 0.8"/>
      </g>
     </g>
     <g id="text_3">
      <!-- Group 2.0 -->
      <g transform="translate(176.365203 95.119832)scale(0.1 -0.1)">
       <defs>
        <path id="DejaVuSans-32" d="M 1228 531 
L 3431 531 
L 3431 0 
L 469 0 
L 469 531 
Q 828 903 1448 1529 
Q 2069 2156 2228 2338 
Q 2531 2678 2651 2914 
Q 2772 3150 2772 3378 
Q 2772 3750 2511 3984 
Q 2250 4219 1831 4219 
Q 1534 4219 1204 4116 
Q 875 4013 500 3803 
L 500 4441 
Q 881 4594 1212 4672 
Q 1544 4750 1819 4750 
Q 2544 4750 2975 4387 
Q 3406 4025 3406 3419 
Q 3406 3131 3298 2873 
Q 3191 2616 2906 2266 
Q 2828 2175 2409 1742 
Q 1991 1309 1228 531 
z
" transform="scale(0.015625)"/>
       </defs>
       <use xlink:href="#DejaVuSans-47"/>
       <use xlink:href="#DejaVuSans-72" x="77.490234"/>
       <use xlink:href="#DejaVuSans-6f" x="116.353516"/>
       <use xlink:href="#DejaVuSans-75" x="177.535156"/>
       <use xlink:href="#DejaVuSans-70" x="240.914062"/>
       <use xlink:href="#DejaVuSans-20" x="304.390625"/>
       <use xlink:href="#DejaVuSans-32" x="336.177734"/>
       <use xlink:href="#DejaVuSans-2e" x="399.800781"/>
       <use xlink:href="#DejaVuSans-30" x="431.587891"/>
      </g>
     </g>
    </g>
    <g id="xtick_4">
     <g id="line2d_4">
      <g>
       <use xlink:href="#m4f977a0022" x="268.539785" y="80.521395" style="stroke: #000000; stroke-width: 0.8"/>
      </g>
     </g>
     <g id="text_4">
      <!-- Group 3.0 -->
      <g transform="translate(243.779629 95.119832)scale(0.1 -0.1)">
       <defs>
        <path id="DejaVuSans-33" d="M 2597 2516 
Q 3050 2419 3304 2112 
Q 3559 1806 3559 1356 
Q 3559 666 3084 287 
Q 2609 -91 1734 -91 
Q 1441 -91 1130 -33 
Q 819 25 488 141 
L 488 750 
Q 750 597 1062 519 
Q 1375 441 1716 441 
Q 2309 441 2620 675 
Q 2931 909 2931 1356 
Q 2931 1769 2642 2001 
Q 2353 2234 1838 2234 
L 1294 2234 
L 1294 2753 
L 1863 2753 
Q 2328 2753 2575 2939 
Q 2822 3125 2822 3475 
Q 2822 3834 2567 4026 
Q 2313 4219 1838 4219 
Q 1578 4219 1281 4162 
Q 984 4106 628 3988 
L 628 4550 
Q 988 4650 1302 4700 
Q 1616 4750 1894 4750 
Q 2613 4750 3031 4423 
Q 3450 4097 3450 3541 
Q 3450 3153 3228 2886 
Q 3006 2619 2597 2516 
z
" transform="scale(0.015625)"/>
       </defs>
       <use xlink:href="#DejaVuSans-47"/>
       <use xlink:href="#DejaVuSans-72" x="77.490234"/>
       <use xlink:href="#DejaVuSans-6f" x="116.353516"/>
       <use xlink:href="#DejaVuSans-75" x="177.535156"/>
       <use xlink:href="#DejaVuSans-70" x="240.914062"/>
       <use xlink:href="#DejaVuSans-20" x="304.390625"/>
       <use xlink:href="#DejaVuSans-33" x="336.177734"/>
       <use xlink:href="#DejaVuSans-2e" x="399.800781"/>
       <use xlink:href="#DejaVuSans-30" x="431.587891"/>
      </g>
     </g>
    </g>
    <g id="xtick_5">
     <g id="line2d_5">
      <g>
       <use xlink:href="#m4f977a0022" x="335.954211" y="80.521395" style="stroke: #000000; stroke-width: 0.8"/>
      </g>
     </g>
     <g id="text_5">
      <!-- Group 4.0 -->
      <g transform="translate(311.194055 95.119832)scale(0.1 -0.1)">
       <defs>
        <path id="DejaVuSans-34" d="M 2419 4116 
L 825 1625 
L 2419 1625 
L 2419 4116 
z
M 2253 4666 
L 3047 4666 
L 3047 1625 
L 3713 1625 
L 3713 1100 
L 3047 1100 
L 3047 0 
L 2419 0 
L 2419 1100 
L 313 1100 
L 313 1709 
L 2253 4666 
z
" transform="scale(0.015625)"/>
       </defs>
       <use xlink:href="#DejaVuSans-47"/>
       <use xlink:href="#DejaVuSans-72" x="77.490234"/>
       <use xlink:href="#DejaVuSans-6f" x="116.353516"/>
       <use xlink:href="#DejaVuSans-75" x="177.535156"/>
       <use xlink:href="#DejaVuSans-70" x="240.914062"/>
       <use xlink:href="#DejaVuSans-20" x="304.390625"/>
       <use xlink:href="#DejaVuSans-34" x="336.177734"/>
       <use xlink:href="#DejaVuSans-2e" x="399.800781"/>
       <use xlink:href="#DejaVuSans-30" x="431.587891"/>
      </g>
     </g>
    </g>
    <g id="xtick_6">
     <g id="line2d_6">
      <g>
       <use xlink:href="#m4f977a0022" x="403.368637" y="80.521395" style="stroke: #000000; stroke-width: 0.8"/>
      </g>
     </g>
     <g id="text_6">
      <!-- Group 5.0 -->
      <g transform="translate(378.60848 95.119832)scale(0.1 -0.1)">
       <defs>
        <path id="DejaVuSans-35" d="M 691 4666 
L 3169 4666 
L 3169 4134 
L 1269 4134 
L 1269 2991 
Q 1406 3038 1543 3061 
Q 1681 3084 1819 3084 
Q 2600 3084 3056 2656 
Q 3513 2228 3513 1497 
Q 3513 744 3044 326 
Q 2575 -91 1722 -91 
Q 1428 -91 1123 -41 
Q 819 9 494 109 
L 494 744 
Q 775 591 1075 516 
Q 1375 441 1709 441 
Q 2250 441 2565 725 
Q 2881 1009 2881 1497 
Q 2881 1984 2565 2268 
Q 2250 2553 1709 2553 
Q 1456 2553 1204 2497 
Q 953 2441 691 2322 
L 691 4666 
z
" transform="scale(0.015625)"/>
       </defs>
       <use xlink:href="#DejaVuSans-47"/>
       <use xlink:href="#DejaVuSans-72" x="77.490234"/>
       <use xlink:href="#DejaVuSans-6f" x="116.353516"/>
       <use xlink:href="#DejaVuSans-75" x="177.535156"/>
       <use xlink:href="#DejaVuSans-70" x="240.914062"/>
       <use xlink:href="#DejaVuSans-20" x="304.390625"/>
       <use xlink:href="#DejaVuSans-35" x="336.177734"/>
       <use xlink:href="#DejaVuSans-2e" x="399.800781"/>
       <use xlink:href="#DejaVuSans-30" x="431.587891"/>
      </g>
     </g>
    </g>
   </g>
   <g id="matplotlib.axis_2">
    <g id="ytick_1">
     <g id="line2d_7">
      <defs>
       <path id="m58f878e606" d="M 0 0 
L -3.5 0 
" style="stroke: #000000; stroke-width: 0.8"/>
      </defs>
      <g>
       <use xlink:href="#m58f878e606" x="36.465625" y="60.450882" style="stroke: #000000; stroke-width: 0.8"/>
      </g>
     </g>
     <g id="text_7">
      <!-- 9 -->
      <g transform="translate(23.103125 64.250101)scale(0.1 -0.1)">
       <defs>
        <path id="DejaVuSans-39" d="M 703 97 
L 703 672 
Q 941 559 1184 500 
Q 1428 441 1663 441 
Q 2288 441 2617 861 
Q 2947 1281 2994 2138 
Q 2813 1869 2534 1725 
Q 2256 1581 1919 1581 
Q 1219 1581 811 2004 
Q 403 2428 403 3163 
Q 403 3881 828 4315 
Q 1253 4750 1959 4750 
Q 2769 4750 3195 4129 
Q 3622 3509 3622 2328 
Q 3622 1225 3098 567 
Q 2575 -91 1691 -91 
Q 1453 -91 1209 -44 
Q 966 3 703 97 
z
M 1959 2075 
Q 2384 2075 2632 2365 
Q 2881 2656 2881 3163 
Q 2881 3666 2632 3958 
Q 2384 4250 1959 4250 
Q 1534 4250 1286 3958 
Q 1038 3666 1038 3163 
Q 1038 2656 1286 2365 
Q 1534 2075 1959 2075 
z
" transform="scale(0.015625)"/>
       </defs>
       <use xlink:href="#DejaVuSans-39"/>
      </g>
     </g>
    </g>
    <g id="ytick_2">
     <g id="line2d_8">
      <g>
       <use xlink:href="#m58f878e606" x="36.465625" y="25.521706" style="stroke: #000000; stroke-width: 0.8"/>
      </g>
     </g>
     <g id="text_8">
      <!-- 10 -->
      <g transform="translate(16.740625 29.320925)scale(0.1 -0.1)">
       <use xlink:href="#DejaVuSans-31"/>
       <use xlink:href="#DejaVuSans-30" x="63.623047"/>
      </g>
     </g>
    </g>
   </g>
   <g id="line2d_9">
    <path d="M 36.465625 33.555416 
L 433.19952 33.555416 
" clip-path="url(#pdee4ba61b9)" style="fill: none; stroke-dasharray: 5.55,2.4; stroke-dashoffset: 0; stroke: #000000; stroke-width: 1.5"/>
   </g>
   <g id="LineCollection_1">
    <path d="M 78.094033 58.585696 
L 78.094033 27.751306 
" clip-path="url(#pdee4ba61b9)" style="fill: none; stroke: #000000; stroke-width: 1.5"/>
    <path d="M 145.508459 50.566899 
L 145.508459 30.007217 
" clip-path="url(#pdee4ba61b9)" style="fill: none; stroke: #000000; stroke-width: 1.5"/>
    <path d="M 212.922884 35.713156 
L 212.922884 10.532791 
" clip-path="url(#pdee4ba61b9)" style="fill: none; stroke: #000000; stroke-width: 1.5"/>
    <path d="M 280.33731 48.869101 
L 280.33731 48.869101 
" clip-path="url(#pdee4ba61b9)" style="fill: none; stroke: #000000; stroke-width: 1.5"/>
    <path d="M 347.751735 77.188604 
L 347.751735 46.320001 
" clip-path="url(#pdee4ba61b9)" style="fill: none; stroke: #000000; stroke-width: 1.5"/>
    <path d="M 415.166161 48.869101 
L 415.166161 48.869101 
" clip-path="url(#pdee4ba61b9)" style="fill: none; stroke: #000000; stroke-width: 1.5"/>
   </g>
   <g id="line2d_10">
    <defs>
     <path id="m86eaf44c05" d="M 1.5 0 
L -1.5 -0 
" style="stroke: #000000"/>
    </defs>
    <g clip-path="url(#pdee4ba61b9)">
     <use xlink:href="#m86eaf44c05" x="78.094033" y="58.585696" style="stroke: #000000"/>
     <use xlink:href="#m86eaf44c05" x="145.508459" y="50.566899" style="stroke: #000000"/>
     <use xlink:href="#m86eaf44c05" x="212.922884" y="35.713156" style="stroke: #000000"/>
     <use xlink:href="#m86eaf44c05" x="280.33731" y="48.869101" style="stroke: #000000"/>
     <use xlink:href="#m86eaf44c05" x="347.751735" y="77.188604" style="stroke: #000000"/>
     <use xlink:href="#m86eaf44c05" x="415.166161" y="48.869101" style="stroke: #000000"/>
    </g>
   </g>
   <g id="line2d_11">
    <g clip-path="url(#pdee4ba61b9)">
     <use xlink:href="#m86eaf44c05" x="78.094033" y="27.751306" style="stroke: #000000"/>
     <use xlink:href="#m86eaf44c05" x="145.508459" y="30.007217" style="stroke: #000000"/>
     <use xlink:href="#m86eaf44c05" x="212.922884" y="10.532791" style="stroke: #000000"/>
     <use xlink:href="#m86eaf44c05" x="280.33731" y="48.869101" style="stroke: #000000"/>
     <use xlink:href="#m86eaf44c05" x="347.751735" y="46.320001" style="stroke: #000000"/>
     <use xlink:href="#m86eaf44c05" x="415.166161" y="48.869101" style="stroke: #000000"/>
    </g>
   </g>
   <g id="LineCollection_2">
    <path d="M 54.498984 47.868297 
L 54.498984 38.468705 
" clip-path="url(#pdee4ba61b9)" style="fill: none; stroke: #696969; stroke-width: 1.5"/>
    <path d="M 121.91341 43.420777 
L 121.91341 37.153339 
" clip-path="url(#pdee4ba61b9)" style="fill: none; stroke: #696969; stroke-width: 1.5"/>
    <path d="M 189.327835 26.960979 
L 189.327835 19.284967 
" clip-path="url(#pdee4ba61b9)" style="fill: none; stroke: #696969; stroke-width: 1.5"/>
    <path d="M 256.742261 48.869101 
L 256.742261 48.869101 
" clip-path="url(#pdee4ba61b9)" style="fill: none; stroke: #696969; stroke-width: 1.5"/>
    <path d="M 324.156686 66.459313 
L 324.156686 57.049292 
" clip-path="url(#pdee4ba61b9)" style="fill: none; stroke: #696969; stroke-width: 1.5"/>
    <path d="M 391.571112 48.869101 
L 391.571112 48.869101 
" clip-path="url(#pdee4ba61b9)" style="fill: none; stroke: #696969; stroke-width: 1.5"/>
   </g>
   <g id="line2d_12">
    <defs>
     <path id="m54a700c8cf" d="M 1.5 0 
L -1.5 -0 
" style="stroke: #696969"/>
    </defs>
    <g clip-path="url(#pdee4ba61b9)">
     <use xlink:href="#m54a700c8cf" x="54.498984" y="47.868297" style="fill: #696969; stroke: #696969"/>
     <use xlink:href="#m54a700c8cf" x="121.91341" y="43.420777" style="fill: #696969; stroke: #696969"/>
     <use xlink:href="#m54a700c8cf" x="189.327835" y="26.960979" style="fill: #696969; stroke: #696969"/>
     <use xlink:href="#m54a700c8cf" x="256.742261" y="48.869101" style="fill: #696969; stroke: #696969"/>
     <use xlink:href="#m54a700c8cf" x="324.156686" y="66.459313" style="fill: #696969; stroke: #696969"/>
     <use xlink:href="#m54a700c8cf" x="391.571112" y="48.869101" style="fill: #696969; stroke: #696969"/>
    </g>
   </g>
   <g id="line2d_13">
    <g clip-path="url(#pdee4ba61b9)">
     <use xlink:href="#m54a700c8cf" x="54.498984" y="38.468705" style="fill: #696969; stroke: #696969"/>
     <use xlink:href="#m54a700c8cf" x="121.91341" y="37.153339" style="fill: #696969; stroke: #696969"/>
     <use xlink:href="#m54a700c8cf" x="189.327835" y="19.284967" style="fill: #696969; stroke: #696969"/>
     <use xlink:href="#m54a700c8cf" x="256.742261" y="48.869101" style="fill: #696969; stroke: #696969"/>
     <use xlink:href="#m54a700c8cf" x="324.156686" y="57.049292" style="fill: #696969; stroke: #696969"/>
     <use xlink:href="#m54a700c8cf" x="391.571112" y="48.869101" style="fill: #696969; stroke: #696969"/>
    </g>
   </g>
   <g id="LineCollection_3">
    <path d="M 66.296508 57.267888 
L 66.296508 29.069113 
" clip-path="url(#pdee4ba61b9)" style="fill: none; stroke: #708090; stroke-width: 1.5"/>
    <path d="M 133.710934 49.688215 
L 133.710934 30.885902 
" clip-path="url(#pdee4ba61b9)" style="fill: none; stroke: #708090; stroke-width: 1.5"/>
    <path d="M 201.12536 34.636992 
L 201.12536 11.608955 
" clip-path="url(#pdee4ba61b9)" style="fill: none; stroke: #708090; stroke-width: 1.5"/>
    <path d="M 268.539785 48.869101 
L 268.539785 48.869101 
" clip-path="url(#pdee4ba61b9)" style="fill: none; stroke: #708090; stroke-width: 1.5"/>
    <path d="M 335.954211 75.869335 
L 335.954211 47.639271 
" clip-path="url(#pdee4ba61b9)" style="fill: none; stroke: #708090; stroke-width: 1.5"/>
    <path d="M 403.368637 48.869101 
L 403.368637 48.869101 
" clip-path="url(#pdee4ba61b9)" style="fill: none; stroke: #708090; stroke-width: 1.5"/>
   </g>
   <g id="line2d_14">
    <defs>
     <path id="m781bb7986f" d="M 1.5 0 
L -1.5 -0 
" style="stroke: #708090"/>
    </defs>
    <g clip-path="url(#pdee4ba61b9)">
     <use xlink:href="#m781bb7986f" x="66.296508" y="57.267888" style="fill: #708090; stroke: #708090"/>
     <use xlink:href="#m781bb7986f" x="133.710934" y="49.688215" style="fill: #708090; stroke: #708090"/>
     <use xlink:href="#m781bb7986f" x="201.12536" y="34.636992" style="fill: #708090; stroke: #708090"/>
     <use xlink:href="#m781bb7986f" x="268.539785" y="48.869101" style="fill: #708090; stroke: #708090"/>
     <use xlink:href="#m781bb7986f" x="335.954211" y="75.869335" style="fill: #708090; stroke: #708090"/>
     <use xlink:href="#m781bb7986f" x="403.368637" y="48.869101" style="fill: #708090; stroke: #708090"/>
    </g>
   </g>
   <g id="line2d_15">
    <g clip-path="url(#pdee4ba61b9)">
     <use xlink:href="#m781bb7986f" x="66.296508" y="29.069113" style="fill: #708090; stroke: #708090"/>
     <use xlink:href="#m781bb7986f" x="133.710934" y="30.885902" style="fill: #708090; stroke: #708090"/>
     <use xlink:href="#m781bb7986f" x="201.12536" y="11.608955" style="fill: #708090; stroke: #708090"/>
     <use xlink:href="#m781bb7986f" x="268.539785" y="48.869101" style="fill: #708090; stroke: #708090"/>
     <use xlink:href="#m781bb7986f" x="335.954211" y="47.639271" style="fill: #708090; stroke: #708090"/>
     <use xlink:href="#m781bb7986f" x="403.368637" y="48.869101" style="fill: #708090; stroke: #708090"/>
    </g>
   </g>
   <g id="line2d_16">
    <defs>
     <path id="mf85c776c00" d="M 0 1.5 
C 0.397805 1.5 0.77937 1.341951 1.06066 1.06066 
C 1.341951 0.77937 1.5 0.397805 1.5 0 
C 1.5 -0.397805 1.341951 -0.77937 1.06066 -1.06066 
C 0.77937 -1.341951 0.397805 -1.5 0 -1.5 
C -0.397805 -1.5 -0.77937 -1.341951 -1.06066 -1.06066 
C -1.341951 -0.77937 -1.5 -0.397805 -1.5 0 
C -1.5 0.397805 -1.341951 0.77937 -1.06066 1.06066 
C -0.77937 1.341951 -0.397805 1.5 0 1.5 
z
" style="stroke: #000000"/>
    </defs>
    <g clip-path="url(#pdee4ba61b9)">
     <use xlink:href="#mf85c776c00" x="78.094033" y="43.168501" style="stroke: #000000"/>
     <use xlink:href="#mf85c776c00" x="145.508459" y="40.287058" style="stroke: #000000"/>
     <use xlink:href="#mf85c776c00" x="212.922884" y="23.122973" style="stroke: #000000"/>
     <use xlink:href="#mf85c776c00" x="280.33731" y="48.869101" style="stroke: #000000"/>
     <use xlink:href="#mf85c776c00" x="347.751735" y="61.754303" style="stroke: #000000"/>
     <use xlink:href="#mf85c776c00" x="415.166161" y="48.869101" style="stroke: #000000"/>
    </g>
   </g>
   <g id="line2d_17">
    <defs>
     <path id="m0feb2fd098" d="M 0 1.5 
C 0.397805 1.5 0.77937 1.341951 1.06066 1.06066 
C 1.341951 0.77937 1.5 0.397805 1.5 0 
C 1.5 -0.397805 1.341951 -0.77937 1.06066 -1.06066 
C 0.77937 -1.341951 0.397805 -1.5 0 -1.5 
C -0.397805 -1.5 -0.77937 -1.341951 -1.06066 -1.06066 
C -1.341951 -0.77937 -1.5 -0.397805 -1.5 0 
C -1.5 0.397805 -1.341951 0.77937 -1.06066 1.06066 
C -0.77937 1.341951 -0.397805 1.5 0 1.5 
z
" style="stroke: #696969"/>
    </defs>
    <g clip-path="url(#pdee4ba61b9)">
     <use xlink:href="#m0feb2fd098" x="54.498984" y="43.168501" style="fill: #696969; stroke: #696969"/>
     <use xlink:href="#m0feb2fd098" x="121.91341" y="40.287058" style="fill: #696969; stroke: #696969"/>
     <use xlink:href="#m0feb2fd098" x="189.327835" y="23.122973" style="fill: #696969; stroke: #696969"/>
     <use xlink:href="#m0feb2fd098" x="256.742261" y="48.869101" style="fill: #696969; stroke: #696969"/>
     <use xlink:href="#m0feb2fd098" x="324.156686" y="61.754303" style="fill: #696969; stroke: #696969"/>
     <use xlink:href="#m0feb2fd098" x="391.571112" y="48.869101" style="fill: #696969; stroke: #696969"/>
    </g>
   </g>
   <g id="line2d_18">
    <defs>
     <path id="m62e284debd" d="M 0 1.5 
C 0.397805 1.5 0.77937 1.341951 1.06066 1.06066 
C 1.341951 0.77937 1.5 0.397805 1.5 0 
C 1.5 -0.397805 1.341951 -0.77937 1.06066 -1.06066 
C 0.77937 -1.341951 0.397805 -1.5 0 -1.5 
C -0.397805 -1.5 -0.77937 -1.341951 -1.06066 -1.06066 
C -1.341951 -0.77937 -1.5 -0.397805 -1.5 0 
C -1.5 0.397805 -1.341951 0.77937 -1.06066 1.06066 
C -0.77937 1.341951 -0.397805 1.5 0 1.5 
z
" style="stroke: #708090"/>
    </defs>
    <g clip-path="url(#pdee4ba61b9)">
     <use xlink:href="#m62e284debd" x="66.296508" y="43.168501" style="fill: #708090; stroke: #708090"/>
     <use xlink:href="#m62e284debd" x="133.710934" y="40.287058" style="fill: #708090; stroke: #708090"/>
     <use xlink:href="#m62e284debd" x="201.12536" y="23.122973" style="fill: #708090; stroke: #708090"/>
     <use xlink:href="#m62e284debd" x="268.539785" y="48.869101" style="fill: #708090; stroke: #708090"/>
     <use xlink:href="#m62e284debd" x="335.954211" y="61.754303" style="fill: #708090; stroke: #708090"/>
     <use xlink:href="#m62e284debd" x="403.368637" y="48.869101" style="fill: #708090; stroke: #708090"/>
    </g>
   </g>
   <g id="patch_3">
    <path d="M 36.465625 80.521395 
L 36.465625 7.2 
" style="fill: none; stroke: #000000; stroke-width: 0.8; stroke-linejoin: miter; stroke-linecap: square"/>
   </g>
   <g id="patch_4">
    <path d="M 433.19952 80.521395 
L 433.19952 7.2 
" style="fill: none; stroke: #000000; stroke-width: 0.8; stroke-linejoin: miter; stroke-linecap: square"/>
   </g>
   <g id="patch_5">
    <path d="M 36.465625 80.521395 
L 433.19952 80.521395 
" style="fill: none; stroke: #000000; stroke-width: 0.8; stroke-linejoin: miter; stroke-linecap: square"/>
   </g>
   <g id="patch_6">
    <path d="M 36.465625 7.2 
L 433.19952 7.2 
" style="fill: none; stroke: #000000; stroke-width: 0.8; stroke-linejoin: miter; stroke-linecap: square"/>
   </g>
  </g>
  <g id="axes_2">
   <g id="patch_7">
    <path d="M 36.465625 176.521395 
L 433.19952 176.521395 
L 433.19952 103.2 
L 36.465625 103.2 
z
" style="fill: #ffffff"/>
   </g>
   <g id="matplotlib.axis_3">
    <g id="xtick_7">
     <g id="line2d_19">
      <g>
       <use xlink:href="#m4f977a0022" x="101.252136" y="176.521395" style="stroke: #000000; stroke-width: 0.8"/>
      </g>
     </g>
     <g id="text_9">
      <!-- Group 0.0 -->
      <g transform="translate(76.49198 191.119832)scale(0.1 -0.1)">
       <use xlink:href="#DejaVuSans-47"/>
       <use xlink:href="#DejaVuSans-72" x="77.490234"/>
       <use xlink:href="#DejaVuSans-6f" x="116.353516"/>
       <use xlink:href="#DejaVuSans-75" x="177.535156"/>
       <use xlink:href="#DejaVuSans-70" x="240.914062"/>
       <use xlink:href="#DejaVuSans-20" x="304.390625"/>
       <use xlink:href="#DejaVuSans-30" x="336.177734"/>
       <use xlink:href="#DejaVuSans-2e" x="399.800781"/>
       <use xlink:href="#DejaVuSans-30" x="431.587891"/>
      </g>
     </g>
    </g>
    <g id="xtick_8">
     <g id="line2d_20">
      <g>
       <use xlink:href="#m4f977a0022" x="368.413009" y="176.521395" style="stroke: #000000; stroke-width: 0.8"/>
      </g>
     </g>
     <g id="text_10">
      <!-- Group 1.0 -->
      <g transform="translate(343.652852 191.119832)scale(0.1 -0.1)">
       <use xlink:href="#DejaVuSans-47"/>
       <use xlink:href="#DejaVuSans-72" x="77.490234"/>
       <use xlink:href="#DejaVuSans-6f" x="116.353516"/>
       <use xlink:href="#DejaVuSans-75" x="177.535156"/>
       <use xlink:href="#DejaVuSans-70" x="240.914062"/>
       <use xlink:href="#DejaVuSans-20" x="304.390625"/>
       <use xlink:href="#DejaVuSans-31" x="336.177734"/>
       <use xlink:href="#DejaVuSans-2e" x="399.800781"/>
       <use xlink:href="#DejaVuSans-30" x="431.587891"/>
      </g>
     </g>
    </g>
   </g>
   <g id="matplotlib.axis_4">
    <g id="ytick_3">
     <g id="line2d_21">
      <g>
       <use xlink:href="#m58f878e606" x="36.465625" y="169.409365" style="stroke: #000000; stroke-width: 0.8"/>
      </g>
     </g>
     <g id="text_11">
      <!-- 9.0 -->
      <g transform="translate(13.5625 173.208583)scale(0.1 -0.1)">
       <use xlink:href="#DejaVuSans-39"/>
       <use xlink:href="#DejaVuSans-2e" x="63.623047"/>
       <use xlink:href="#DejaVuSans-30" x="95.410156"/>
      </g>
     </g>
    </g>
    <g id="ytick_4">
     <g id="line2d_22">
      <g>
       <use xlink:href="#m58f878e606" x="36.465625" y="141.182074" style="stroke: #000000; stroke-width: 0.8"/>
      </g>
     </g>
     <g id="text_12">
      <!-- 9.5 -->
      <g transform="translate(13.5625 144.981293)scale(0.1 -0.1)">
       <use xlink:href="#DejaVuSans-39"/>
       <use xlink:href="#DejaVuSans-2e" x="63.623047"/>
       <use xlink:href="#DejaVuSans-35" x="95.410156"/>
      </g>
     </g>
    </g>
    <g id="ytick_5">
     <g id="line2d_23">
      <g>
       <use xlink:href="#m58f878e606" x="36.465625" y="112.954784" style="stroke: #000000; stroke-width: 0.8"/>
      </g>
     </g>
     <g id="text_13">
      <!-- 10.0 -->
      <g transform="translate(7.2 116.754003)scale(0.1 -0.1)">
       <use xlink:href="#DejaVuSans-31"/>
       <use xlink:href="#DejaVuSans-30" x="63.623047"/>
       <use xlink:href="#DejaVuSans-2e" x="127.246094"/>
       <use xlink:href="#DejaVuSans-30" x="159.033203"/>
      </g>
     </g>
    </g>
   </g>
   <g id="line2d_24">
    <path d="M 36.465625 125.939338 
L 433.19952 125.939338 
" clip-path="url(#p6810097800)" style="fill: none; stroke-dasharray: 5.55,2.4; stroke-dashoffset: 0; stroke: #000000; stroke-width: 1.5"/>
   </g>
   <g id="LineCollection_4">
    <path d="M 148.005289 151.716404 
L 148.005289 106.532791 
" clip-path="url(#p6810097800)" style="fill: none; stroke: #000000; stroke-width: 1.5"/>
    <path d="M 415.166161 173.188604 
L 415.166161 142.075698 
" clip-path="url(#p6810097800)" style="fill: none; stroke: #000000; stroke-width: 1.5"/>
   </g>
   <g id="line2d_25">
    <g clip-path="url(#p6810097800)">
     <use xlink:href="#m86eaf44c05" x="148.005289" y="151.716404" style="stroke: #000000"/>
     <use xlink:href="#m86eaf44c05" x="415.166161" y="173.188604" style="stroke: #000000"/>
    </g>
   </g>
   <g id="line2d_26">
    <g clip-path="url(#p6810097800)">
     <use xlink:href="#m86eaf44c05" x="148.005289" y="106.532791" style="stroke: #000000"/>
     <use xlink:href="#m86eaf44c05" x="415.166161" y="142.075698" style="stroke: #000000"/>
    </g>
   </g>
   <g id="LineCollection_5">
    <path d="M 54.498984 136.01151 
L 54.498984 122.237685 
" clip-path="url(#p6810097800)" style="fill: none; stroke: #696969; stroke-width: 1.5"/>
    <path d="M 321.659856 162.374398 
L 321.659856 152.889904 
" clip-path="url(#p6810097800)" style="fill: none; stroke: #696969; stroke-width: 1.5"/>
   </g>
   <g id="line2d_27">
    <g clip-path="url(#p6810097800)">
     <use xlink:href="#m54a700c8cf" x="54.498984" y="136.01151" style="fill: #696969; stroke: #696969"/>
     <use xlink:href="#m54a700c8cf" x="321.659856" y="162.374398" style="fill: #696969; stroke: #696969"/>
    </g>
   </g>
   <g id="line2d_28">
    <g clip-path="url(#p6810097800)">
     <use xlink:href="#m54a700c8cf" x="54.498984" y="122.237685" style="fill: #696969; stroke: #696969"/>
     <use xlink:href="#m54a700c8cf" x="321.659856" y="152.889904" style="fill: #696969; stroke: #696969"/>
    </g>
   </g>
   <g id="LineCollection_6">
    <path d="M 101.252136 149.785336 
L 101.252136 108.463859 
" clip-path="url(#p6810097800)" style="fill: none; stroke: #708090; stroke-width: 1.5"/>
    <path d="M 368.413009 171.858893 
L 368.413009 143.405409 
" clip-path="url(#p6810097800)" style="fill: none; stroke: #708090; stroke-width: 1.5"/>
   </g>
   <g id="line2d_29">
    <g clip-path="url(#p6810097800)">
     <use xlink:href="#m781bb7986f" x="101.252136" y="149.785336" style="fill: #708090; stroke: #708090"/>
     <use xlink:href="#m781bb7986f" x="368.413009" y="171.858893" style="fill: #708090; stroke: #708090"/>
    </g>
   </g>
   <g id="line2d_30">
    <g clip-path="url(#p6810097800)">
     <use xlink:href="#m781bb7986f" x="101.252136" y="108.463859" style="fill: #708090; stroke: #708090"/>
     <use xlink:href="#m781bb7986f" x="368.413009" y="143.405409" style="fill: #708090; stroke: #708090"/>
    </g>
   </g>
   <g id="line2d_31">
    <g clip-path="url(#p6810097800)">
     <use xlink:href="#mf85c776c00" x="148.005289" y="129.124597" style="stroke: #000000"/>
     <use xlink:href="#mf85c776c00" x="415.166161" y="157.632151" style="stroke: #000000"/>
    </g>
   </g>
   <g id="line2d_32">
    <g clip-path="url(#p6810097800)">
     <use xlink:href="#m0feb2fd098" x="54.498984" y="129.124597" style="fill: #696969; stroke: #696969"/>
     <use xlink:href="#m0feb2fd098" x="321.659856" y="157.632151" style="fill: #696969; stroke: #696969"/>
    </g>
   </g>
   <g id="line2d_33">
    <g clip-path="url(#p6810097800)">
     <use xlink:href="#m62e284debd" x="101.252136" y="129.124597" style="fill: #708090; stroke: #708090"/>
     <use xlink:href="#m62e284debd" x="368.413009" y="157.632151" style="fill: #708090; stroke: #708090"/>
    </g>
   </g>
   <g id="patch_8">
    <path d="M 36.465625 176.521395 
L 36.465625 103.2 
" style="fill: none; stroke: #000000; stroke-width: 0.8; stroke-linejoin: miter; stroke-linecap: square"/>
   </g>
   <g id="patch_9">
    <path d="M 433.19952 176.521395 
L 433.19952 103.2 
" style="fill: none; stroke: #000000; stroke-width: 0.8; stroke-linejoin: miter; stroke-linecap: square"/>
   </g>
   <g id="patch_10">
    <path d="M 36.465625 176.521395 
L 433.19952 176.521395 
" style="fill: none; stroke: #000000; stroke-width: 0.8; stroke-linejoin: miter; stroke-linecap: square"/>
   </g>
   <g id="patch_11">
    <path d="M 36.465625 103.2 
L 433.19952 103.2 
" style="fill: none; stroke: #000000; stroke-width: 0.8; stroke-linejoin: miter; stroke-linecap: square"/>
   </g>
  </g>
  <g id="axes_3">
   <g id="patch_12">
    <path d="M 36.465625 272.521395 
L 433.19952 272.521395 
L 433.19952 199.2 
L 36.465625 199.2 
z
" style="fill: #ffffff"/>
   </g>
   <g id="matplotlib.axis_5">
    <g id="xtick_9">
     <g id="line2d_34">
      <g>
       <use xlink:href="#m4f977a0022" x="234.832573" y="272.521395" style="stroke: #000000; stroke-width: 0.8"/>
      </g>
     </g>
     <g id="text_14">
      <!-- Group 0.0 -->
      <g transform="translate(210.072416 287.119832)scale(0.1 -0.1)">
       <use xlink:href="#DejaVuSans-47"/>
       <use xlink:href="#DejaVuSans-72" x="77.490234"/>
       <use xlink:href="#DejaVuSans-6f" x="116.353516"/>
       <use xlink:href="#DejaVuSans-75" x="177.535156"/>
       <use xlink:href="#DejaVuSans-70" x="240.914062"/>
       <use xlink:href="#DejaVuSans-20" x="304.390625"/>
       <use xlink:href="#DejaVuSans-30" x="336.177734"/>
       <use xlink:href="#DejaVuSans-2e" x="399.800781"/>
       <use xlink:href="#DejaVuSans-30" x="431.587891"/>
      </g>
     </g>
    </g>
   </g>
   <g id="matplotlib.axis_6">
    <g id="ytick_6">
     <g id="line2d_35">
      <g>
       <use xlink:href="#m58f878e606" x="36.465625" y="254.603252" style="stroke: #000000; stroke-width: 0.8"/>
      </g>
     </g>
     <g id="text_15">
      <!-- 9.25 -->
      <g transform="translate(7.2 258.402471)scale(0.1 -0.1)">
       <use xlink:href="#DejaVuSans-39"/>
       <use xlink:href="#DejaVuSans-2e" x="63.623047"/>
       <use xlink:href="#DejaVuSans-32" x="95.410156"/>
       <use xlink:href="#DejaVuSans-35" x="159.033203"/>
      </g>
     </g>
    </g>
    <g id="ytick_7">
     <g id="line2d_36">
      <g>
       <use xlink:href="#m58f878e606" x="36.465625" y="232.40655" style="stroke: #000000; stroke-width: 0.8"/>
      </g>
     </g>
     <g id="text_16">
      <!-- 9.50 -->
      <g transform="translate(7.2 236.205769)scale(0.1 -0.1)">
       <use xlink:href="#DejaVuSans-39"/>
       <use xlink:href="#DejaVuSans-2e" x="63.623047"/>
       <use xlink:href="#DejaVuSans-35" x="95.410156"/>
       <use xlink:href="#DejaVuSans-30" x="159.033203"/>
      </g>
     </g>
    </g>
    <g id="ytick_8">
     <g id="line2d_37">
      <g>
       <use xlink:href="#m58f878e606" x="36.465625" y="210.209848" style="stroke: #000000; stroke-width: 0.8"/>
      </g>
     </g>
     <g id="text_17">
      <!-- 9.75 -->
      <g transform="translate(7.2 214.009067)scale(0.1 -0.1)">
       <defs>
        <path id="DejaVuSans-37" d="M 525 4666 
L 3525 4666 
L 3525 4397 
L 1831 0 
L 1172 0 
L 2766 4134 
L 525 4134 
L 525 4666 
z
" transform="scale(0.015625)"/>
       </defs>
       <use xlink:href="#DejaVuSans-39"/>
       <use xlink:href="#DejaVuSans-2e" x="63.623047"/>
       <use xlink:href="#DejaVuSans-37" x="95.410156"/>
       <use xlink:href="#DejaVuSans-35" x="159.033203"/>
      </g>
     </g>
    </g>
   </g>
   <g id="line2d_38">
    <path d="M 36.465625 208.434112 
L 433.19952 208.434112 
" clip-path="url(#p85665bfa51)" style="fill: none; stroke-dasharray: 5.55,2.4; stroke-dashoffset: 0; stroke: #000000; stroke-width: 1.5"/>
   </g>
   <g id="LineCollection_7">
    <path d="M 415.166161 269.188604 
L 415.166161 202.532791 
" clip-path="url(#p85665bfa51)" style="fill: none; stroke: #000000; stroke-width: 1.5"/>
   </g>
   <g id="line2d_39">
    <g clip-path="url(#p85665bfa51)">
     <use xlink:href="#m86eaf44c05" x="415.166161" y="269.188604" style="stroke: #000000"/>
    </g>
   </g>
   <g id="line2d_40">
    <g clip-path="url(#p85665bfa51)">
     <use xlink:href="#m86eaf44c05" x="415.166161" y="202.532791" style="stroke: #000000"/>
    </g>
   </g>
   <g id="LineCollection_8">
    <path d="M 54.498984 246.020416 
L 54.498984 225.700979 
" clip-path="url(#p85665bfa51)" style="fill: none; stroke: #696969; stroke-width: 1.5"/>
   </g>
   <g id="line2d_41">
    <g clip-path="url(#p85665bfa51)">
     <use xlink:href="#m54a700c8cf" x="54.498984" y="246.020416" style="fill: #696969; stroke: #696969"/>
    </g>
   </g>
   <g id="line2d_42">
    <g clip-path="url(#p85665bfa51)">
     <use xlink:href="#m54a700c8cf" x="54.498984" y="225.700979" style="fill: #696969; stroke: #696969"/>
    </g>
   </g>
   <g id="LineCollection_9">
    <path d="M 234.832573 266.339852 
L 234.832573 205.381543 
" clip-path="url(#p85665bfa51)" style="fill: none; stroke: #708090; stroke-width: 1.5"/>
   </g>
   <g id="line2d_43">
    <g clip-path="url(#p85665bfa51)">
     <use xlink:href="#m781bb7986f" x="234.832573" y="266.339852" style="fill: #708090; stroke: #708090"/>
    </g>
   </g>
   <g id="line2d_44">
    <g clip-path="url(#p85665bfa51)">
     <use xlink:href="#m781bb7986f" x="234.832573" y="205.381543" style="fill: #708090; stroke: #708090"/>
    </g>
   </g>
   <g id="line2d_45">
    <g clip-path="url(#p85665bfa51)">
     <use xlink:href="#mf85c776c00" x="415.166161" y="235.860698" style="stroke: #000000"/>
    </g>
   </g>
   <g id="line2d_46">
    <g clip-path="url(#p85665bfa51)">
     <use xlink:href="#m0feb2fd098" x="54.498984" y="235.860698" style="fill: #696969; stroke: #696969"/>
    </g>
   </g>
   <g id="line2d_47">
    <g clip-path="url(#p85665bfa51)">
     <use xlink:href="#m62e284debd" x="234.832573" y="235.860698" style="fill: #708090; stroke: #708090"/>
    </g>
   </g>
   <g id="patch_13">
    <path d="M 36.465625 272.521395 
L 36.465625 199.2 
" style="fill: none; stroke: #000000; stroke-width: 0.8; stroke-linejoin: miter; stroke-linecap: square"/>
   </g>
   <g id="patch_14">
    <path d="M 433.19952 272.521395 
L 433.19952 199.2 
" style="fill: none; stroke: #000000; stroke-width: 0.8; stroke-linejoin: miter; stroke-linecap: square"/>
   </g>
   <g id="patch_15">
    <path d="M 36.465625 272.521395 
L 433.19952 272.521395 
" style="fill: none; stroke: #000000; stroke-width: 0.8; stroke-linejoin: miter; stroke-linecap: square"/>
   </g>
   <g id="patch_16">
    <path d="M 36.465625 199.2 
L 433.19952 199.2 
" style="fill: none; stroke: #000000; stroke-width: 0.8; stroke-linejoin: miter; stroke-linecap: square"/>
   </g>
  </g>
 </g>
 <defs>
  <clipPath id="pdee4ba61b9">
   <rect x="36.465625" y="7.2" width="396.733895" height="73.321395"/>
  </clipPath>
  <clipPath id="p6810097800">
   <rect x="36.465625" y="103.2" width="396.733895" height="73.321395"/>
  </clipPath>
  <clipPath id="p85665bfa51">
   <rect x="36.465625" y="199.2" width="396.733895" height="73.321395"/>
  </clipPath>
 </defs>
</svg>
