<?xml version="1.0" encoding="utf-8" standalone="no"?>
<!DOCTYPE svg PUBLIC "-//W3C//DTD SVG 1.1//EN"
  "http://www.w3.org/Graphics/SVG/1.1/DTD/svg11.dtd">
<svg xmlns:xlink="http://www.w3.org/1999/xlink" width="376.240625pt" height="262.19625pt" viewBox="0 0 376.240625 262.19625" xmlns="http://www.w3.org/2000/svg" version="1.1">
 <metadata>
  <rdf:RDF xmlns:dc="http://purl.org/dc/elements/1.1/" xmlns:cc="http://creativecommons.org/ns#" xmlns:rdf="http://www.w3.org/1999/02/22-rdf-syntax-ns#">
   <cc:Work>
    <dc:type rdf:resource="http://purl.org/dc/dcmitype/StillImage"/>
    <dc:date>2021-12-03T18:12:34.757334</dc:date>
    <dc:format>image/svg+xml</dc:format>
    <dc:creator>
     <cc:Agent>
      <dc:title>Matplotlib v3.5.0, https://matplotlib.org/</dc:title>
     </cc:Agent>
    </dc:creator>
   </cc:Work>
  </rdf:RDF>
 </metadata>
 <defs>
  <style type="text/css">*{stroke-linejoin: round; stroke-linecap: butt}</style>
 </defs>
 <g id="figure_1">
  <g id="patch_1">
   <path d="M 0 262.19625 
L 376.240625 262.19625 
L 376.240625 0 
L 0 0 
L 0 262.19625 
z
" style="fill: none"/>
  </g>
  <g id="axes_1">
   <g id="patch_2">
    <path d="M 34.240625 224.64 
L 369.040625 224.64 
L 369.040625 7.2 
L 34.240625 7.2 
z
" style="fill: #ffffff"/>
   </g>
   <g id="matplotlib.axis_1">
    <g id="xtick_1">
     <g id="line2d_1">
      <path d="M 49.458807 224.64 
L 49.458807 7.2 
" clip-path="url(#pe6c6dce0fd)" style="fill: none; stroke: #b0b0b0; stroke-width: 0.8; stroke-linecap: square"/>
     </g>
     <g id="line2d_2">
      <defs>
       <path id="m74d02c3df6" d="M 0 0 
L 0 3.5 
" style="stroke: #000000; stroke-width: 0.8"/>
      </defs>
      <g>
       <use xlink:href="#m74d02c3df6" x="49.458807" y="224.64" style="stroke: #000000; stroke-width: 0.8"/>
      </g>
     </g>
     <g id="text_1">
      <!-- 0 -->
      <g transform="translate(46.277557 239.238437)scale(0.1 -0.1)">
       <defs>
        <path id="DejaVuSans-30" d="M 2034 4250 
Q 1547 4250 1301 3770 
Q 1056 3291 1056 2328 
Q 1056 1369 1301 889 
Q 1547 409 2034 409 
Q 2525 409 2770 889 
Q 3016 1369 3016 2328 
Q 3016 3291 2770 3770 
Q 2525 4250 2034 4250 
z
M 2034 4750 
Q 2819 4750 3233 4129 
Q 3647 3509 3647 2328 
Q 3647 1150 3233 529 
Q 2819 -91 2034 -91 
Q 1250 -91 836 529 
Q 422 1150 422 2328 
Q 422 3509 836 4129 
Q 1250 4750 2034 4750 
z
" transform="scale(0.015625)"/>
       </defs>
       <use xlink:href="#DejaVuSans-30"/>
      </g>
     </g>
    </g>
    <g id="xtick_2">
     <g id="line2d_3">
      <path d="M 101.045864 224.64 
L 101.045864 7.2 
" clip-path="url(#pe6c6dce0fd)" style="fill: none; stroke: #b0b0b0; stroke-width: 0.8; stroke-linecap: square"/>
     </g>
     <g id="line2d_4">
      <g>
       <use xlink:href="#m74d02c3df6" x="101.045864" y="224.64" style="stroke: #000000; stroke-width: 0.8"/>
      </g>
     </g>
     <g id="text_2">
      <!-- 10 -->
      <g transform="translate(94.683364 239.238437)scale(0.1 -0.1)">
       <defs>
        <path id="DejaVuSans-31" d="M 794 531 
L 1825 531 
L 1825 4091 
L 703 3866 
L 703 4441 
L 1819 4666 
L 2450 4666 
L 2450 531 
L 3481 531 
L 3481 0 
L 794 0 
L 794 531 
z
" transform="scale(0.015625)"/>
       </defs>
       <use xlink:href="#DejaVuSans-31"/>
       <use xlink:href="#DejaVuSans-30" x="63.623047"/>
      </g>
     </g>
    </g>
    <g id="xtick_3">
     <g id="line2d_5">
      <path d="M 152.632921 224.64 
L 152.632921 7.2 
" clip-path="url(#pe6c6dce0fd)" style="fill: none; stroke: #b0b0b0; stroke-width: 0.8; stroke-linecap: square"/>
     </g>
     <g id="line2d_6">
      <g>
       <use xlink:href="#m74d02c3df6" x="152.632921" y="224.64" style="stroke: #000000; stroke-width: 0.8"/>
      </g>
     </g>
     <g id="text_3">
      <!-- 20 -->
      <g transform="translate(146.270421 239.238437)scale(0.1 -0.1)">
       <defs>
        <path id="DejaVuSans-32" d="M 1228 531 
L 3431 531 
L 3431 0 
L 469 0 
L 469 531 
Q 828 903 1448 1529 
Q 2069 2156 2228 2338 
Q 2531 2678 2651 2914 
Q 2772 3150 2772 3378 
Q 2772 3750 2511 3984 
Q 2250 4219 1831 4219 
Q 1534 4219 1204 4116 
Q 875 4013 500 3803 
L 500 4441 
Q 881 4594 1212 4672 
Q 1544 4750 1819 4750 
Q 2544 4750 2975 4387 
Q 3406 4025 3406 3419 
Q 3406 3131 3298 2873 
Q 3191 2616 2906 2266 
Q 2828 2175 2409 1742 
Q 1991 1309 1228 531 
z
" transform="scale(0.015625)"/>
       </defs>
       <use xlink:href="#DejaVuSans-32"/>
       <use xlink:href="#DejaVuSans-30" x="63.623047"/>
      </g>
     </g>
    </g>
    <g id="xtick_4">
     <g id="line2d_7">
      <path d="M 204.219978 224.64 
L 204.219978 7.2 
" clip-path="url(#pe6c6dce0fd)" style="fill: none; stroke: #b0b0b0; stroke-width: 0.8; stroke-linecap: square"/>
     </g>
     <g id="line2d_8">
      <g>
       <use xlink:href="#m74d02c3df6" x="204.219978" y="224.64" style="stroke: #000000; stroke-width: 0.8"/>
      </g>
     </g>
     <g id="text_4">
      <!-- 30 -->
      <g transform="translate(197.857478 239.238437)scale(0.1 -0.1)">
       <defs>
        <path id="DejaVuSans-33" d="M 2597 2516 
Q 3050 2419 3304 2112 
Q 3559 1806 3559 1356 
Q 3559 666 3084 287 
Q 2609 -91 1734 -91 
Q 1441 -91 1130 -33 
Q 819 25 488 141 
L 488 750 
Q 750 597 1062 519 
Q 1375 441 1716 441 
Q 2309 441 2620 675 
Q 2931 909 2931 1356 
Q 2931 1769 2642 2001 
Q 2353 2234 1838 2234 
L 1294 2234 
L 1294 2753 
L 1863 2753 
Q 2328 2753 2575 2939 
Q 2822 3125 2822 3475 
Q 2822 3834 2567 4026 
Q 2313 4219 1838 4219 
Q 1578 4219 1281 4162 
Q 984 4106 628 3988 
L 628 4550 
Q 988 4650 1302 4700 
Q 1616 4750 1894 4750 
Q 2613 4750 3031 4423 
Q 3450 4097 3450 3541 
Q 3450 3153 3228 2886 
Q 3006 2619 2597 2516 
z
" transform="scale(0.015625)"/>
       </defs>
       <use xlink:href="#DejaVuSans-33"/>
       <use xlink:href="#DejaVuSans-30" x="63.623047"/>
      </g>
     </g>
    </g>
    <g id="xtick_5">
     <g id="line2d_9">
      <path d="M 255.807035 224.64 
L 255.807035 7.2 
" clip-path="url(#pe6c6dce0fd)" style="fill: none; stroke: #b0b0b0; stroke-width: 0.8; stroke-linecap: square"/>
     </g>
     <g id="line2d_10">
      <g>
       <use xlink:href="#m74d02c3df6" x="255.807035" y="224.64" style="stroke: #000000; stroke-width: 0.8"/>
      </g>
     </g>
     <g id="text_5">
      <!-- 40 -->
      <g transform="translate(249.444535 239.238437)scale(0.1 -0.1)">
       <defs>
        <path id="DejaVuSans-34" d="M 2419 4116 
L 825 1625 
L 2419 1625 
L 2419 4116 
z
M 2253 4666 
L 3047 4666 
L 3047 1625 
L 3713 1625 
L 3713 1100 
L 3047 1100 
L 3047 0 
L 2419 0 
L 2419 1100 
L 313 1100 
L 313 1709 
L 2253 4666 
z
" transform="scale(0.015625)"/>
       </defs>
       <use xlink:href="#DejaVuSans-34"/>
       <use xlink:href="#DejaVuSans-30" x="63.623047"/>
      </g>
     </g>
    </g>
    <g id="xtick_6">
     <g id="line2d_11">
      <path d="M 307.394092 224.64 
L 307.394092 7.2 
" clip-path="url(#pe6c6dce0fd)" style="fill: none; stroke: #b0b0b0; stroke-width: 0.8; stroke-linecap: square"/>
     </g>
     <g id="line2d_12">
      <g>
       <use xlink:href="#m74d02c3df6" x="307.394092" y="224.64" style="stroke: #000000; stroke-width: 0.8"/>
      </g>
     </g>
     <g id="text_6">
      <!-- 50 -->
      <g transform="translate(301.031592 239.238437)scale(0.1 -0.1)">
       <defs>
        <path id="DejaVuSans-35" d="M 691 4666 
L 3169 4666 
L 3169 4134 
L 1269 4134 
L 1269 2991 
Q 1406 3038 1543 3061 
Q 1681 3084 1819 3084 
Q 2600 3084 3056 2656 
Q 3513 2228 3513 1497 
Q 3513 744 3044 326 
Q 2575 -91 1722 -91 
Q 1428 -91 1123 -41 
Q 819 9 494 109 
L 494 744 
Q 775 591 1075 516 
Q 1375 441 1709 441 
Q 2250 441 2565 725 
Q 2881 1009 2881 1497 
Q 2881 1984 2565 2268 
Q 2250 2553 1709 2553 
Q 1456 2553 1204 2497 
Q 953 2441 691 2322 
L 691 4666 
z
" transform="scale(0.015625)"/>
       </defs>
       <use xlink:href="#DejaVuSans-35"/>
       <use xlink:href="#DejaVuSans-30" x="63.623047"/>
      </g>
     </g>
    </g>
    <g id="xtick_7">
     <g id="line2d_13">
      <path d="M 358.981149 224.64 
L 358.981149 7.2 
" clip-path="url(#pe6c6dce0fd)" style="fill: none; stroke: #b0b0b0; stroke-width: 0.8; stroke-linecap: square"/>
     </g>
     <g id="line2d_14">
      <g>
       <use xlink:href="#m74d02c3df6" x="358.981149" y="224.64" style="stroke: #000000; stroke-width: 0.8"/>
      </g>
     </g>
     <g id="text_7">
      <!-- 60 -->
      <g transform="translate(352.618649 239.238437)scale(0.1 -0.1)">
       <defs>
        <path id="DejaVuSans-36" d="M 2113 2584 
Q 1688 2584 1439 2293 
Q 1191 2003 1191 1497 
Q 1191 994 1439 701 
Q 1688 409 2113 409 
Q 2538 409 2786 701 
Q 3034 994 3034 1497 
Q 3034 2003 2786 2293 
Q 2538 2584 2113 2584 
z
M 3366 4563 
L 3366 3988 
Q 3128 4100 2886 4159 
Q 2644 4219 2406 4219 
Q 1781 4219 1451 3797 
Q 1122 3375 1075 2522 
Q 1259 2794 1537 2939 
Q 1816 3084 2150 3084 
Q 2853 3084 3261 2657 
Q 3669 2231 3669 1497 
Q 3669 778 3244 343 
Q 2819 -91 2113 -91 
Q 1303 -91 875 529 
Q 447 1150 447 2328 
Q 447 3434 972 4092 
Q 1497 4750 2381 4750 
Q 2619 4750 2861 4703 
Q 3103 4656 3366 4563 
z
" transform="scale(0.015625)"/>
       </defs>
       <use xlink:href="#DejaVuSans-36"/>
       <use xlink:href="#DejaVuSans-30" x="63.623047"/>
      </g>
     </g>
    </g>
    <g id="text_8">
     <!-- Minute -->
     <g transform="translate(184.563281 252.916562)scale(0.1 -0.1)">
      <defs>
       <path id="DejaVuSans-4d" d="M 628 4666 
L 1569 4666 
L 2759 1491 
L 3956 4666 
L 4897 4666 
L 4897 0 
L 4281 0 
L 4281 4097 
L 3078 897 
L 2444 897 
L 1241 4097 
L 1241 0 
L 628 0 
L 628 4666 
z
" transform="scale(0.015625)"/>
       <path id="DejaVuSans-69" d="M 603 3500 
L 1178 3500 
L 1178 0 
L 603 0 
L 603 3500 
z
M 603 4863 
L 1178 4863 
L 1178 4134 
L 603 4134 
L 603 4863 
z
" transform="scale(0.015625)"/>
       <path id="DejaVuSans-6e" d="M 3513 2113 
L 3513 0 
L 2938 0 
L 2938 2094 
Q 2938 2591 2744 2837 
Q 2550 3084 2163 3084 
Q 1697 3084 1428 2787 
Q 1159 2491 1159 1978 
L 1159 0 
L 581 0 
L 581 3500 
L 1159 3500 
L 1159 2956 
Q 1366 3272 1645 3428 
Q 1925 3584 2291 3584 
Q 2894 3584 3203 3211 
Q 3513 2838 3513 2113 
z
" transform="scale(0.015625)"/>
       <path id="DejaVuSans-75" d="M 544 1381 
L 544 3500 
L 1119 3500 
L 1119 1403 
Q 1119 906 1312 657 
Q 1506 409 1894 409 
Q 2359 409 2629 706 
Q 2900 1003 2900 1516 
L 2900 3500 
L 3475 3500 
L 3475 0 
L 2900 0 
L 2900 538 
Q 2691 219 2414 64 
Q 2138 -91 1772 -91 
Q 1169 -91 856 284 
Q 544 659 544 1381 
z
M 1991 3584 
L 1991 3584 
z
" transform="scale(0.015625)"/>
       <path id="DejaVuSans-74" d="M 1172 4494 
L 1172 3500 
L 2356 3500 
L 2356 3053 
L 1172 3053 
L 1172 1153 
Q 1172 725 1289 603 
Q 1406 481 1766 481 
L 2356 481 
L 2356 0 
L 1766 0 
Q 1100 0 847 248 
Q 594 497 594 1153 
L 594 3053 
L 172 3053 
L 172 3500 
L 594 3500 
L 594 4494 
L 1172 4494 
z
" transform="scale(0.015625)"/>
       <path id="DejaVuSans-65" d="M 3597 1894 
L 3597 1613 
L 953 1613 
Q 991 1019 1311 708 
Q 1631 397 2203 397 
Q 2534 397 2845 478 
Q 3156 559 3463 722 
L 3463 178 
Q 3153 47 2828 -22 
Q 2503 -91 2169 -91 
Q 1331 -91 842 396 
Q 353 884 353 1716 
Q 353 2575 817 3079 
Q 1281 3584 2069 3584 
Q 2775 3584 3186 3129 
Q 3597 2675 3597 1894 
z
M 3022 2063 
Q 3016 2534 2758 2815 
Q 2500 3097 2075 3097 
Q 1594 3097 1305 2825 
Q 1016 2553 972 2059 
L 3022 2063 
z
" transform="scale(0.015625)"/>
      </defs>
      <use xlink:href="#DejaVuSans-4d"/>
      <use xlink:href="#DejaVuSans-69" x="86.279297"/>
      <use xlink:href="#DejaVuSans-6e" x="114.0625"/>
      <use xlink:href="#DejaVuSans-75" x="177.441406"/>
      <use xlink:href="#DejaVuSans-74" x="240.820312"/>
      <use xlink:href="#DejaVuSans-65" x="280.029297"/>
     </g>
    </g>
   </g>
   <g id="matplotlib.axis_2">
    <g id="ytick_1">
     <g id="line2d_15">
      <path d="M 34.240625 219.181872 
L 369.040625 219.181872 
" clip-path="url(#pe6c6dce0fd)" style="fill: none; stroke: #b0b0b0; stroke-width: 0.8; stroke-linecap: square"/>
     </g>
     <g id="line2d_16">
      <defs>
       <path id="medfe95214c" d="M 0 0 
L -3.5 0 
" style="stroke: #000000; stroke-width: 0.8"/>
      </defs>
      <g>
       <use xlink:href="#medfe95214c" x="34.240625" y="219.181872" style="stroke: #000000; stroke-width: 0.8"/>
      </g>
     </g>
     <g id="text_9">
      <!-- 0 -->
      <g transform="translate(20.878125 222.981091)scale(0.1 -0.1)">
       <use xlink:href="#DejaVuSans-30"/>
      </g>
     </g>
    </g>
    <g id="ytick_2">
     <g id="line2d_17">
      <path d="M 34.240625 189.67848 
L 369.040625 189.67848 
" clip-path="url(#pe6c6dce0fd)" style="fill: none; stroke: #b0b0b0; stroke-width: 0.8; stroke-linecap: square"/>
     </g>
     <g id="line2d_18">
      <g>
       <use xlink:href="#medfe95214c" x="34.240625" y="189.67848" style="stroke: #000000; stroke-width: 0.8"/>
      </g>
     </g>
     <g id="text_10">
      <!-- 1 -->
      <g transform="translate(20.878125 193.477699)scale(0.1 -0.1)">
       <use xlink:href="#DejaVuSans-31"/>
      </g>
     </g>
    </g>
    <g id="ytick_3">
     <g id="line2d_19">
      <path d="M 34.240625 160.175088 
L 369.040625 160.175088 
" clip-path="url(#pe6c6dce0fd)" style="fill: none; stroke: #b0b0b0; stroke-width: 0.8; stroke-linecap: square"/>
     </g>
     <g id="line2d_20">
      <g>
       <use xlink:href="#medfe95214c" x="34.240625" y="160.175088" style="stroke: #000000; stroke-width: 0.8"/>
      </g>
     </g>
     <g id="text_11">
      <!-- 2 -->
      <g transform="translate(20.878125 163.974307)scale(0.1 -0.1)">
       <use xlink:href="#DejaVuSans-32"/>
      </g>
     </g>
    </g>
    <g id="ytick_4">
     <g id="line2d_21">
      <path d="M 34.240625 130.671696 
L 369.040625 130.671696 
" clip-path="url(#pe6c6dce0fd)" style="fill: none; stroke: #b0b0b0; stroke-width: 0.8; stroke-linecap: square"/>
     </g>
     <g id="line2d_22">
      <g>
       <use xlink:href="#medfe95214c" x="34.240625" y="130.671696" style="stroke: #000000; stroke-width: 0.8"/>
      </g>
     </g>
     <g id="text_12">
      <!-- 3 -->
      <g transform="translate(20.878125 134.470915)scale(0.1 -0.1)">
       <use xlink:href="#DejaVuSans-33"/>
      </g>
     </g>
    </g>
    <g id="ytick_5">
     <g id="line2d_23">
      <path d="M 34.240625 101.168304 
L 369.040625 101.168304 
" clip-path="url(#pe6c6dce0fd)" style="fill: none; stroke: #b0b0b0; stroke-width: 0.8; stroke-linecap: square"/>
     </g>
     <g id="line2d_24">
      <g>
       <use xlink:href="#medfe95214c" x="34.240625" y="101.168304" style="stroke: #000000; stroke-width: 0.8"/>
      </g>
     </g>
     <g id="text_13">
      <!-- 4 -->
      <g transform="translate(20.878125 104.967523)scale(0.1 -0.1)">
       <use xlink:href="#DejaVuSans-34"/>
      </g>
     </g>
    </g>
    <g id="ytick_6">
     <g id="line2d_25">
      <path d="M 34.240625 71.664912 
L 369.040625 71.664912 
" clip-path="url(#pe6c6dce0fd)" style="fill: none; stroke: #b0b0b0; stroke-width: 0.8; stroke-linecap: square"/>
     </g>
     <g id="line2d_26">
      <g>
       <use xlink:href="#medfe95214c" x="34.240625" y="71.664912" style="stroke: #000000; stroke-width: 0.8"/>
      </g>
     </g>
     <g id="text_14">
      <!-- 5 -->
      <g transform="translate(20.878125 75.464131)scale(0.1 -0.1)">
       <use xlink:href="#DejaVuSans-35"/>
      </g>
     </g>
    </g>
    <g id="ytick_7">
     <g id="line2d_27">
      <path d="M 34.240625 42.16152 
L 369.040625 42.16152 
" clip-path="url(#pe6c6dce0fd)" style="fill: none; stroke: #b0b0b0; stroke-width: 0.8; stroke-linecap: square"/>
     </g>
     <g id="line2d_28">
      <g>
       <use xlink:href="#medfe95214c" x="34.240625" y="42.16152" style="stroke: #000000; stroke-width: 0.8"/>
      </g>
     </g>
     <g id="text_15">
      <!-- 6 -->
      <g transform="translate(20.878125 45.960738)scale(0.1 -0.1)">
       <use xlink:href="#DejaVuSans-36"/>
      </g>
     </g>
    </g>
    <g id="ytick_8">
     <g id="line2d_29">
      <path d="M 34.240625 12.658128 
L 369.040625 12.658128 
" clip-path="url(#pe6c6dce0fd)" style="fill: none; stroke: #b0b0b0; stroke-width: 0.8; stroke-linecap: square"/>
     </g>
     <g id="line2d_30">
      <g>
       <use xlink:href="#medfe95214c" x="34.240625" y="12.658128" style="stroke: #000000; stroke-width: 0.8"/>
      </g>
     </g>
     <g id="text_16">
      <!-- 7 -->
      <g transform="translate(20.878125 16.457346)scale(0.1 -0.1)">
       <defs>
        <path id="DejaVuSans-37" d="M 525 4666 
L 3525 4666 
L 3525 4397 
L 1831 0 
L 1172 0 
L 2766 4134 
L 525 4134 
L 525 4666 
z
" transform="scale(0.015625)"/>
       </defs>
       <use xlink:href="#DejaVuSans-37"/>
      </g>
     </g>
    </g>
    <g id="text_17">
     <!-- Difference -->
     <g transform="translate(14.798437 141.77)rotate(-90)scale(0.1 -0.1)">
      <defs>
       <path id="DejaVuSans-44" d="M 1259 4147 
L 1259 519 
L 2022 519 
Q 2988 519 3436 956 
Q 3884 1394 3884 2338 
Q 3884 3275 3436 3711 
Q 2988 4147 2022 4147 
L 1259 4147 
z
M 628 4666 
L 1925 4666 
Q 3281 4666 3915 4102 
Q 4550 3538 4550 2338 
Q 4550 1131 3912 565 
Q 3275 0 1925 0 
L 628 0 
L 628 4666 
z
" transform="scale(0.015625)"/>
       <path id="DejaVuSans-66" d="M 2375 4863 
L 2375 4384 
L 1825 4384 
Q 1516 4384 1395 4259 
Q 1275 4134 1275 3809 
L 1275 3500 
L 2222 3500 
L 2222 3053 
L 1275 3053 
L 1275 0 
L 697 0 
L 697 3053 
L 147 3053 
L 147 3500 
L 697 3500 
L 697 3744 
Q 697 4328 969 4595 
Q 1241 4863 1831 4863 
L 2375 4863 
z
" transform="scale(0.015625)"/>
       <path id="DejaVuSans-72" d="M 2631 2963 
Q 2534 3019 2420 3045 
Q 2306 3072 2169 3072 
Q 1681 3072 1420 2755 
Q 1159 2438 1159 1844 
L 1159 0 
L 581 0 
L 581 3500 
L 1159 3500 
L 1159 2956 
Q 1341 3275 1631 3429 
Q 1922 3584 2338 3584 
Q 2397 3584 2469 3576 
Q 2541 3569 2628 3553 
L 2631 2963 
z
" transform="scale(0.015625)"/>
       <path id="DejaVuSans-63" d="M 3122 3366 
L 3122 2828 
Q 2878 2963 2633 3030 
Q 2388 3097 2138 3097 
Q 1578 3097 1268 2742 
Q 959 2388 959 1747 
Q 959 1106 1268 751 
Q 1578 397 2138 397 
Q 2388 397 2633 464 
Q 2878 531 3122 666 
L 3122 134 
Q 2881 22 2623 -34 
Q 2366 -91 2075 -91 
Q 1284 -91 818 406 
Q 353 903 353 1747 
Q 353 2603 823 3093 
Q 1294 3584 2113 3584 
Q 2378 3584 2631 3529 
Q 2884 3475 3122 3366 
z
" transform="scale(0.015625)"/>
      </defs>
      <use xlink:href="#DejaVuSans-44"/>
      <use xlink:href="#DejaVuSans-69" x="77.001953"/>
      <use xlink:href="#DejaVuSans-66" x="104.785156"/>
      <use xlink:href="#DejaVuSans-66" x="139.990234"/>
      <use xlink:href="#DejaVuSans-65" x="175.195312"/>
      <use xlink:href="#DejaVuSans-72" x="236.71875"/>
      <use xlink:href="#DejaVuSans-65" x="275.582031"/>
      <use xlink:href="#DejaVuSans-6e" x="337.105469"/>
      <use xlink:href="#DejaVuSans-63" x="400.484375"/>
      <use xlink:href="#DejaVuSans-65" x="455.464844"/>
     </g>
    </g>
   </g>
   <g id="line2d_31">
    <defs>
     <path id="me1a778fb41" d="M 0 1.5 
C 0.397805 1.5 0.77937 1.341951 1.06066 1.06066 
C 1.341951 0.77937 1.5 0.397805 1.5 0 
C 1.5 -0.397805 1.341951 -0.77937 1.06066 -1.06066 
C 0.77937 -1.341951 0.397805 -1.5 0 -1.5 
C -0.397805 -1.5 -0.77937 -1.341951 -1.06066 -1.06066 
C -1.341951 -0.77937 -1.5 -0.397805 -1.5 0 
C -1.5 0.397805 -1.341951 0.77937 -1.06066 1.06066 
C -0.77937 1.341951 -0.397805 1.5 0 1.5 
z
" style="stroke: #000000"/>
    </defs>
    <g clip-path="url(#pe6c6dce0fd)">
     <use xlink:href="#me1a778fb41" x="49.458807" y="184.761248" style="stroke: #000000"/>
     <use xlink:href="#me1a778fb41" x="54.617513" y="96.251072" style="stroke: #000000"/>
     <use xlink:href="#me1a778fb41" x="59.776218" y="184.761248" style="stroke: #000000"/>
     <use xlink:href="#me1a778fb41" x="64.934924" y="194.595712" style="stroke: #000000"/>
     <use xlink:href="#me1a778fb41" x="70.09363" y="214.26464" style="stroke: #000000"/>
     <use xlink:href="#me1a778fb41" x="75.252335" y="214.26464" style="stroke: #000000"/>
     <use xlink:href="#me1a778fb41" x="80.411041" y="106.085536" style="stroke: #000000"/>
     <use xlink:href="#me1a778fb41" x="85.569747" y="125.754464" style="stroke: #000000"/>
     <use xlink:href="#me1a778fb41" x="90.728452" y="96.251072" style="stroke: #000000"/>
     <use xlink:href="#me1a778fb41" x="95.887158" y="214.26464" style="stroke: #000000"/>
     <use xlink:href="#me1a778fb41" x="101.045864" y="106.085536" style="stroke: #000000"/>
     <use xlink:href="#me1a778fb41" x="106.20457" y="214.26464" style="stroke: #000000"/>
     <use xlink:href="#me1a778fb41" x="111.363275" y="135.588928" style="stroke: #000000"/>
     <use xlink:href="#me1a778fb41" x="116.521981" y="155.257856" style="stroke: #000000"/>
     <use xlink:href="#me1a778fb41" x="121.680687" y="194.595712" style="stroke: #000000"/>
     <use xlink:href="#me1a778fb41" x="126.839392" y="184.761248" style="stroke: #000000"/>
     <use xlink:href="#me1a778fb41" x="131.998098" y="135.588928" style="stroke: #000000"/>
     <use xlink:href="#me1a778fb41" x="137.156804" y="194.595712" style="stroke: #000000"/>
     <use xlink:href="#me1a778fb41" x="142.315509" y="194.595712" style="stroke: #000000"/>
     <use xlink:href="#me1a778fb41" x="147.474215" y="184.761248" style="stroke: #000000"/>
     <use xlink:href="#me1a778fb41" x="152.632921" y="165.09232" style="stroke: #000000"/>
     <use xlink:href="#me1a778fb41" x="157.791627" y="184.761248" style="stroke: #000000"/>
     <use xlink:href="#me1a778fb41" x="162.950332" y="135.588928" style="stroke: #000000"/>
     <use xlink:href="#me1a778fb41" x="168.109038" y="184.761248" style="stroke: #000000"/>
     <use xlink:href="#me1a778fb41" x="173.267744" y="214.26464" style="stroke: #000000"/>
     <use xlink:href="#me1a778fb41" x="178.426449" y="194.595712" style="stroke: #000000"/>
     <use xlink:href="#me1a778fb41" x="183.585155" y="165.09232" style="stroke: #000000"/>
     <use xlink:href="#me1a778fb41" x="188.743861" y="155.257856" style="stroke: #000000"/>
     <use xlink:href="#me1a778fb41" x="193.902566" y="214.26464" style="stroke: #000000"/>
     <use xlink:href="#me1a778fb41" x="199.061272" y="194.595712" style="stroke: #000000"/>
     <use xlink:href="#me1a778fb41" x="204.219978" y="106.085536" style="stroke: #000000"/>
     <use xlink:href="#me1a778fb41" x="209.378684" y="165.09232" style="stroke: #000000"/>
     <use xlink:href="#me1a778fb41" x="214.537389" y="214.26464" style="stroke: #000000"/>
     <use xlink:href="#me1a778fb41" x="219.696095" y="135.588928" style="stroke: #000000"/>
     <use xlink:href="#me1a778fb41" x="224.854801" y="214.26464" style="stroke: #000000"/>
     <use xlink:href="#me1a778fb41" x="230.013506" y="184.761248" style="stroke: #000000"/>
     <use xlink:href="#me1a778fb41" x="235.172212" y="214.26464" style="stroke: #000000"/>
     <use xlink:href="#me1a778fb41" x="240.330918" y="155.257856" style="stroke: #000000"/>
     <use xlink:href="#me1a778fb41" x="245.489623" y="214.26464" style="stroke: #000000"/>
     <use xlink:href="#me1a778fb41" x="250.648329" y="214.26464" style="stroke: #000000"/>
     <use xlink:href="#me1a778fb41" x="255.807035" y="96.251072" style="stroke: #000000"/>
     <use xlink:href="#me1a778fb41" x="260.965741" y="165.09232" style="stroke: #000000"/>
     <use xlink:href="#me1a778fb41" x="266.124446" y="96.251072" style="stroke: #000000"/>
     <use xlink:href="#me1a778fb41" x="271.283152" y="155.257856" style="stroke: #000000"/>
     <use xlink:href="#me1a778fb41" x="276.441858" y="165.09232" style="stroke: #000000"/>
     <use xlink:href="#me1a778fb41" x="281.600563" y="214.26464" style="stroke: #000000"/>
     <use xlink:href="#me1a778fb41" x="286.759269" y="184.761248" style="stroke: #000000"/>
     <use xlink:href="#me1a778fb41" x="291.917975" y="165.09232" style="stroke: #000000"/>
     <use xlink:href="#me1a778fb41" x="297.07668" y="135.588928" style="stroke: #000000"/>
     <use xlink:href="#me1a778fb41" x="302.235386" y="125.754464" style="stroke: #000000"/>
     <use xlink:href="#me1a778fb41" x="307.394092" y="165.09232" style="stroke: #000000"/>
     <use xlink:href="#me1a778fb41" x="312.552798" y="194.595712" style="stroke: #000000"/>
     <use xlink:href="#me1a778fb41" x="317.711503" y="96.251072" style="stroke: #000000"/>
     <use xlink:href="#me1a778fb41" x="322.870209" y="96.251072" style="stroke: #000000"/>
     <use xlink:href="#me1a778fb41" x="328.028915" y="194.595712" style="stroke: #000000"/>
     <use xlink:href="#me1a778fb41" x="333.18762" y="165.09232" style="stroke: #000000"/>
     <use xlink:href="#me1a778fb41" x="338.346326" y="214.26464" style="stroke: #000000"/>
     <use xlink:href="#me1a778fb41" x="343.505032" y="76.582144" style="stroke: #000000"/>
     <use xlink:href="#me1a778fb41" x="348.663737" y="155.257856" style="stroke: #000000"/>
     <use xlink:href="#me1a778fb41" x="353.822443" y="165.09232" style="stroke: #000000"/>
    </g>
   </g>
   <g id="line2d_32">
    <defs>
     <path id="m725c7052c5" d="M 0 1.5 
C 0.397805 1.5 0.77937 1.341951 1.06066 1.06066 
C 1.341951 0.77937 1.5 0.397805 1.5 0 
C 1.5 -0.397805 1.341951 -0.77937 1.06066 -1.06066 
C 0.77937 -1.341951 0.397805 -1.5 0 -1.5 
C -0.397805 -1.5 -0.77937 -1.341951 -1.06066 -1.06066 
C -1.341951 -0.77937 -1.5 -0.397805 -1.5 0 
C -1.5 0.397805 -1.341951 0.77937 -1.06066 1.06066 
C -0.77937 1.341951 -0.397805 1.5 0 1.5 
z
" style="stroke: #0000ff"/>
    </defs>
    <g clip-path="url(#pe6c6dce0fd)">
     <use xlink:href="#m725c7052c5" x="49.458807" y="214.756364" style="fill: #0000ff; stroke: #0000ff"/>
     <use xlink:href="#m725c7052c5" x="54.617513" y="194.103989" style="fill: #0000ff; stroke: #0000ff"/>
     <use xlink:href="#m725c7052c5" x="59.776218" y="214.756364" style="fill: #0000ff; stroke: #0000ff"/>
     <use xlink:href="#m725c7052c5" x="64.934924" y="164.600597" style="fill: #0000ff; stroke: #0000ff"/>
     <use xlink:href="#m725c7052c5" x="70.09363" y="185.252972" style="fill: #0000ff; stroke: #0000ff"/>
     <use xlink:href="#m725c7052c5" x="75.252335" y="96.742795" style="fill: #0000ff; stroke: #0000ff"/>
     <use xlink:href="#m725c7052c5" x="80.411041" y="194.103989" style="fill: #0000ff; stroke: #0000ff"/>
     <use xlink:href="#m725c7052c5" x="85.569747" y="185.252972" style="fill: #0000ff; stroke: #0000ff"/>
     <use xlink:href="#m725c7052c5" x="90.728452" y="164.600597" style="fill: #0000ff; stroke: #0000ff"/>
     <use xlink:href="#m725c7052c5" x="95.887158" y="126.246187" style="fill: #0000ff; stroke: #0000ff"/>
     <use xlink:href="#m725c7052c5" x="101.045864" y="194.103989" style="fill: #0000ff; stroke: #0000ff"/>
     <use xlink:href="#m725c7052c5" x="106.20457" y="194.103989" style="fill: #0000ff; stroke: #0000ff"/>
     <use xlink:href="#m725c7052c5" x="111.363275" y="214.756364" style="fill: #0000ff; stroke: #0000ff"/>
     <use xlink:href="#m725c7052c5" x="116.521981" y="185.252972" style="fill: #0000ff; stroke: #0000ff"/>
     <use xlink:href="#m725c7052c5" x="121.680687" y="155.749579" style="fill: #0000ff; stroke: #0000ff"/>
     <use xlink:href="#m725c7052c5" x="126.839392" y="105.593813" style="fill: #0000ff; stroke: #0000ff"/>
     <use xlink:href="#m725c7052c5" x="131.998098" y="185.252972" style="fill: #0000ff; stroke: #0000ff"/>
     <use xlink:href="#m725c7052c5" x="137.156804" y="17.083636" style="fill: #0000ff; stroke: #0000ff"/>
     <use xlink:href="#m725c7052c5" x="142.315509" y="185.252972" style="fill: #0000ff; stroke: #0000ff"/>
     <use xlink:href="#m725c7052c5" x="147.474215" y="185.252972" style="fill: #0000ff; stroke: #0000ff"/>
     <use xlink:href="#m725c7052c5" x="152.632921" y="126.246187" style="fill: #0000ff; stroke: #0000ff"/>
     <use xlink:href="#m725c7052c5" x="157.791627" y="105.593813" style="fill: #0000ff; stroke: #0000ff"/>
     <use xlink:href="#m725c7052c5" x="162.950332" y="164.600597" style="fill: #0000ff; stroke: #0000ff"/>
     <use xlink:href="#m725c7052c5" x="168.109038" y="135.097205" style="fill: #0000ff; stroke: #0000ff"/>
     <use xlink:href="#m725c7052c5" x="173.267744" y="155.749579" style="fill: #0000ff; stroke: #0000ff"/>
     <use xlink:href="#m725c7052c5" x="178.426449" y="185.252972" style="fill: #0000ff; stroke: #0000ff"/>
     <use xlink:href="#m725c7052c5" x="183.585155" y="185.252972" style="fill: #0000ff; stroke: #0000ff"/>
     <use xlink:href="#m725c7052c5" x="188.743861" y="135.097205" style="fill: #0000ff; stroke: #0000ff"/>
     <use xlink:href="#m725c7052c5" x="193.902566" y="185.252972" style="fill: #0000ff; stroke: #0000ff"/>
     <use xlink:href="#m725c7052c5" x="199.061272" y="194.103989" style="fill: #0000ff; stroke: #0000ff"/>
     <use xlink:href="#m725c7052c5" x="204.219978" y="105.593813" style="fill: #0000ff; stroke: #0000ff"/>
     <use xlink:href="#m725c7052c5" x="209.378684" y="194.103989" style="fill: #0000ff; stroke: #0000ff"/>
     <use xlink:href="#m725c7052c5" x="214.537389" y="194.103989" style="fill: #0000ff; stroke: #0000ff"/>
     <use xlink:href="#m725c7052c5" x="219.696095" y="214.756364" style="fill: #0000ff; stroke: #0000ff"/>
     <use xlink:href="#m725c7052c5" x="224.854801" y="155.749579" style="fill: #0000ff; stroke: #0000ff"/>
     <use xlink:href="#m725c7052c5" x="230.013506" y="96.742795" style="fill: #0000ff; stroke: #0000ff"/>
     <use xlink:href="#m725c7052c5" x="235.172212" y="164.600597" style="fill: #0000ff; stroke: #0000ff"/>
     <use xlink:href="#m725c7052c5" x="240.330918" y="164.600597" style="fill: #0000ff; stroke: #0000ff"/>
     <use xlink:href="#m725c7052c5" x="245.489623" y="185.252972" style="fill: #0000ff; stroke: #0000ff"/>
     <use xlink:href="#m725c7052c5" x="250.648329" y="185.252972" style="fill: #0000ff; stroke: #0000ff"/>
     <use xlink:href="#m725c7052c5" x="255.807035" y="105.593813" style="fill: #0000ff; stroke: #0000ff"/>
     <use xlink:href="#m725c7052c5" x="260.965741" y="135.097205" style="fill: #0000ff; stroke: #0000ff"/>
     <use xlink:href="#m725c7052c5" x="266.124446" y="155.749579" style="fill: #0000ff; stroke: #0000ff"/>
     <use xlink:href="#m725c7052c5" x="271.283152" y="185.252972" style="fill: #0000ff; stroke: #0000ff"/>
     <use xlink:href="#m725c7052c5" x="276.441858" y="214.756364" style="fill: #0000ff; stroke: #0000ff"/>
     <use xlink:href="#m725c7052c5" x="281.600563" y="155.749579" style="fill: #0000ff; stroke: #0000ff"/>
     <use xlink:href="#m725c7052c5" x="286.759269" y="164.600597" style="fill: #0000ff; stroke: #0000ff"/>
     <use xlink:href="#m725c7052c5" x="291.917975" y="164.600597" style="fill: #0000ff; stroke: #0000ff"/>
     <use xlink:href="#m725c7052c5" x="297.07668" y="96.742795" style="fill: #0000ff; stroke: #0000ff"/>
     <use xlink:href="#m725c7052c5" x="302.235386" y="155.749579" style="fill: #0000ff; stroke: #0000ff"/>
     <use xlink:href="#m725c7052c5" x="307.394092" y="164.600597" style="fill: #0000ff; stroke: #0000ff"/>
     <use xlink:href="#m725c7052c5" x="312.552798" y="155.749579" style="fill: #0000ff; stroke: #0000ff"/>
     <use xlink:href="#m725c7052c5" x="317.711503" y="126.246187" style="fill: #0000ff; stroke: #0000ff"/>
     <use xlink:href="#m725c7052c5" x="322.870209" y="214.756364" style="fill: #0000ff; stroke: #0000ff"/>
     <use xlink:href="#m725c7052c5" x="328.028915" y="214.756364" style="fill: #0000ff; stroke: #0000ff"/>
     <use xlink:href="#m725c7052c5" x="333.18762" y="164.600597" style="fill: #0000ff; stroke: #0000ff"/>
     <use xlink:href="#m725c7052c5" x="338.346326" y="185.252972" style="fill: #0000ff; stroke: #0000ff"/>
     <use xlink:href="#m725c7052c5" x="343.505032" y="194.103989" style="fill: #0000ff; stroke: #0000ff"/>
     <use xlink:href="#m725c7052c5" x="348.663737" y="126.246187" style="fill: #0000ff; stroke: #0000ff"/>
     <use xlink:href="#m725c7052c5" x="353.822443" y="164.600597" style="fill: #0000ff; stroke: #0000ff"/>
    </g>
   </g>
   <g id="patch_3">
    <path d="M 34.240625 224.64 
L 34.240625 7.2 
" style="fill: none; stroke: #000000; stroke-width: 0.8; stroke-linejoin: miter; stroke-linecap: square"/>
   </g>
   <g id="patch_4">
    <path d="M 369.040625 224.64 
L 369.040625 7.2 
" style="fill: none; stroke: #000000; stroke-width: 0.8; stroke-linejoin: miter; stroke-linecap: square"/>
   </g>
   <g id="patch_5">
    <path d="M 34.240625 224.64 
L 369.040625 224.64 
" style="fill: none; stroke: #000000; stroke-width: 0.8; stroke-linejoin: miter; stroke-linecap: square"/>
   </g>
   <g id="patch_6">
    <path d="M 34.240625 7.2 
L 369.040625 7.2 
" style="fill: none; stroke: #000000; stroke-width: 0.8; stroke-linejoin: miter; stroke-linecap: square"/>
   </g>
  </g>
 </g>
 <defs>
  <clipPath id="pe6c6dce0fd">
   <rect x="34.240625" y="7.2" width="334.8" height="217.44"/>
  </clipPath>
 </defs>
</svg>
