<?xml version="1.0" encoding="utf-8" standalone="no"?>
<!DOCTYPE svg PUBLIC "-//W3C//DTD SVG 1.1//EN"
  "http://www.w3.org/Graphics/SVG/1.1/DTD/svg11.dtd">
<svg xmlns:xlink="http://www.w3.org/1999/xlink" width="1016.39952pt" height="296.393149pt" viewBox="0 0 1016.39952 296.393149" xmlns="http://www.w3.org/2000/svg" version="1.1">
 <metadata>
  <rdf:RDF xmlns:dc="http://purl.org/dc/elements/1.1/" xmlns:cc="http://creativecommons.org/ns#" xmlns:rdf="http://www.w3.org/1999/02/22-rdf-syntax-ns#">
   <cc:Work>
    <dc:type rdf:resource="http://purl.org/dc/dcmitype/StillImage"/>
    <dc:date>2021-12-12T11:01:20.852480</dc:date>
    <dc:format>image/svg+xml</dc:format>
    <dc:creator>
     <cc:Agent>
      <dc:title>Matplotlib v3.5.0, https://matplotlib.org/</dc:title>
     </cc:Agent>
    </dc:creator>
   </cc:Work>
  </rdf:RDF>
 </metadata>
 <defs>
  <style type="text/css">*{stroke-linejoin: round; stroke-linecap: butt}</style>
 </defs>
 <g id="figure_1">
  <g id="patch_1">
   <path d="M 0 296.393149 
L 1016.39952 296.393149 
L 1016.39952 0 
L 0 0 
L 0 296.393149 
z
" style="fill: none"/>
  </g>
  <g id="axes_1">
   <g id="patch_2">
    <path d="M 42.828125 272.515024 
L 343.08234 272.515024 
L 343.08234 7.905973 
L 42.828125 7.905973 
z
" style="fill: #ffffff"/>
   </g>
   <g id="matplotlib.axis_1">
    <g id="xtick_1">
     <g id="line2d_1">
      <defs>
       <path id="m8880021a9e" d="M 0 0 
L 0 3.5 
" style="stroke: #000000; stroke-width: 0.8"/>
      </defs>
      <g>
       <use xlink:href="#m8880021a9e" x="65.404589" y="272.515024" style="stroke: #000000; stroke-width: 0.8"/>
      </g>
     </g>
     <g id="text_1">
      <!-- Group 0 -->
      <g transform="translate(45.414745 287.113461)scale(0.1 -0.1)">
       <defs>
        <path id="DejaVuSans-47" d="M 3809 666 
L 3809 1919 
L 2778 1919 
L 2778 2438 
L 4434 2438 
L 4434 434 
Q 4069 175 3628 42 
Q 3188 -91 2688 -91 
Q 1594 -91 976 548 
Q 359 1188 359 2328 
Q 359 3472 976 4111 
Q 1594 4750 2688 4750 
Q 3144 4750 3555 4637 
Q 3966 4525 4313 4306 
L 4313 3634 
Q 3963 3931 3569 4081 
Q 3175 4231 2741 4231 
Q 1884 4231 1454 3753 
Q 1025 3275 1025 2328 
Q 1025 1384 1454 906 
Q 1884 428 2741 428 
Q 3075 428 3337 486 
Q 3600 544 3809 666 
z
" transform="scale(0.015625)"/>
        <path id="DejaVuSans-72" d="M 2631 2963 
Q 2534 3019 2420 3045 
Q 2306 3072 2169 3072 
Q 1681 3072 1420 2755 
Q 1159 2438 1159 1844 
L 1159 0 
L 581 0 
L 581 3500 
L 1159 3500 
L 1159 2956 
Q 1341 3275 1631 3429 
Q 1922 3584 2338 3584 
Q 2397 3584 2469 3576 
Q 2541 3569 2628 3553 
L 2631 2963 
z
" transform="scale(0.015625)"/>
        <path id="DejaVuSans-6f" d="M 1959 3097 
Q 1497 3097 1228 2736 
Q 959 2375 959 1747 
Q 959 1119 1226 758 
Q 1494 397 1959 397 
Q 2419 397 2687 759 
Q 2956 1122 2956 1747 
Q 2956 2369 2687 2733 
Q 2419 3097 1959 3097 
z
M 1959 3584 
Q 2709 3584 3137 3096 
Q 3566 2609 3566 1747 
Q 3566 888 3137 398 
Q 2709 -91 1959 -91 
Q 1206 -91 779 398 
Q 353 888 353 1747 
Q 353 2609 779 3096 
Q 1206 3584 1959 3584 
z
" transform="scale(0.015625)"/>
        <path id="DejaVuSans-75" d="M 544 1381 
L 544 3500 
L 1119 3500 
L 1119 1403 
Q 1119 906 1312 657 
Q 1506 409 1894 409 
Q 2359 409 2629 706 
Q 2900 1003 2900 1516 
L 2900 3500 
L 3475 3500 
L 3475 0 
L 2900 0 
L 2900 538 
Q 2691 219 2414 64 
Q 2138 -91 1772 -91 
Q 1169 -91 856 284 
Q 544 659 544 1381 
z
M 1991 3584 
L 1991 3584 
z
" transform="scale(0.015625)"/>
        <path id="DejaVuSans-70" d="M 1159 525 
L 1159 -1331 
L 581 -1331 
L 581 3500 
L 1159 3500 
L 1159 2969 
Q 1341 3281 1617 3432 
Q 1894 3584 2278 3584 
Q 2916 3584 3314 3078 
Q 3713 2572 3713 1747 
Q 3713 922 3314 415 
Q 2916 -91 2278 -91 
Q 1894 -91 1617 61 
Q 1341 213 1159 525 
z
M 3116 1747 
Q 3116 2381 2855 2742 
Q 2594 3103 2138 3103 
Q 1681 3103 1420 2742 
Q 1159 2381 1159 1747 
Q 1159 1113 1420 752 
Q 1681 391 2138 391 
Q 2594 391 2855 752 
Q 3116 1113 3116 1747 
z
" transform="scale(0.015625)"/>
        <path id="DejaVuSans-20" transform="scale(0.015625)"/>
        <path id="DejaVuSans-30" d="M 2034 4250 
Q 1547 4250 1301 3770 
Q 1056 3291 1056 2328 
Q 1056 1369 1301 889 
Q 1547 409 2034 409 
Q 2525 409 2770 889 
Q 3016 1369 3016 2328 
Q 3016 3291 2770 3770 
Q 2525 4250 2034 4250 
z
M 2034 4750 
Q 2819 4750 3233 4129 
Q 3647 3509 3647 2328 
Q 3647 1150 3233 529 
Q 2819 -91 2034 -91 
Q 1250 -91 836 529 
Q 422 1150 422 2328 
Q 422 3509 836 4129 
Q 1250 4750 2034 4750 
z
" transform="scale(0.015625)"/>
       </defs>
       <use xlink:href="#DejaVuSans-47"/>
       <use xlink:href="#DejaVuSans-72" x="77.490234"/>
       <use xlink:href="#DejaVuSans-6f" x="116.353516"/>
       <use xlink:href="#DejaVuSans-75" x="177.535156"/>
       <use xlink:href="#DejaVuSans-70" x="240.914062"/>
       <use xlink:href="#DejaVuSans-20" x="304.390625"/>
       <use xlink:href="#DejaVuSans-30" x="336.177734"/>
      </g>
     </g>
    </g>
    <g id="xtick_2">
     <g id="line2d_2">
      <g>
       <use xlink:href="#m8880021a9e" x="116.424846" y="272.515024" style="stroke: #000000; stroke-width: 0.8"/>
      </g>
     </g>
     <g id="text_2">
      <!-- Group 1 -->
      <g transform="translate(96.435003 287.113461)scale(0.1 -0.1)">
       <defs>
        <path id="DejaVuSans-31" d="M 794 531 
L 1825 531 
L 1825 4091 
L 703 3866 
L 703 4441 
L 1819 4666 
L 2450 4666 
L 2450 531 
L 3481 531 
L 3481 0 
L 794 0 
L 794 531 
z
" transform="scale(0.015625)"/>
       </defs>
       <use xlink:href="#DejaVuSans-47"/>
       <use xlink:href="#DejaVuSans-72" x="77.490234"/>
       <use xlink:href="#DejaVuSans-6f" x="116.353516"/>
       <use xlink:href="#DejaVuSans-75" x="177.535156"/>
       <use xlink:href="#DejaVuSans-70" x="240.914062"/>
       <use xlink:href="#DejaVuSans-20" x="304.390625"/>
       <use xlink:href="#DejaVuSans-31" x="336.177734"/>
      </g>
     </g>
    </g>
    <g id="xtick_3">
     <g id="line2d_3">
      <g>
       <use xlink:href="#m8880021a9e" x="167.445104" y="272.515024" style="stroke: #000000; stroke-width: 0.8"/>
      </g>
     </g>
     <g id="text_3">
      <!-- Group 2 -->
      <g transform="translate(147.45526 287.113461)scale(0.1 -0.1)">
       <defs>
        <path id="DejaVuSans-32" d="M 1228 531 
L 3431 531 
L 3431 0 
L 469 0 
L 469 531 
Q 828 903 1448 1529 
Q 2069 2156 2228 2338 
Q 2531 2678 2651 2914 
Q 2772 3150 2772 3378 
Q 2772 3750 2511 3984 
Q 2250 4219 1831 4219 
Q 1534 4219 1204 4116 
Q 875 4013 500 3803 
L 500 4441 
Q 881 4594 1212 4672 
Q 1544 4750 1819 4750 
Q 2544 4750 2975 4387 
Q 3406 4025 3406 3419 
Q 3406 3131 3298 2873 
Q 3191 2616 2906 2266 
Q 2828 2175 2409 1742 
Q 1991 1309 1228 531 
z
" transform="scale(0.015625)"/>
       </defs>
       <use xlink:href="#DejaVuSans-47"/>
       <use xlink:href="#DejaVuSans-72" x="77.490234"/>
       <use xlink:href="#DejaVuSans-6f" x="116.353516"/>
       <use xlink:href="#DejaVuSans-75" x="177.535156"/>
       <use xlink:href="#DejaVuSans-70" x="240.914062"/>
       <use xlink:href="#DejaVuSans-20" x="304.390625"/>
       <use xlink:href="#DejaVuSans-32" x="336.177734"/>
      </g>
     </g>
    </g>
    <g id="xtick_4">
     <g id="line2d_4">
      <g>
       <use xlink:href="#m8880021a9e" x="218.465361" y="272.515024" style="stroke: #000000; stroke-width: 0.8"/>
      </g>
     </g>
     <g id="text_4">
      <!-- Group 3 -->
      <g transform="translate(198.475517 287.113461)scale(0.1 -0.1)">
       <defs>
        <path id="DejaVuSans-33" d="M 2597 2516 
Q 3050 2419 3304 2112 
Q 3559 1806 3559 1356 
Q 3559 666 3084 287 
Q 2609 -91 1734 -91 
Q 1441 -91 1130 -33 
Q 819 25 488 141 
L 488 750 
Q 750 597 1062 519 
Q 1375 441 1716 441 
Q 2309 441 2620 675 
Q 2931 909 2931 1356 
Q 2931 1769 2642 2001 
Q 2353 2234 1838 2234 
L 1294 2234 
L 1294 2753 
L 1863 2753 
Q 2328 2753 2575 2939 
Q 2822 3125 2822 3475 
Q 2822 3834 2567 4026 
Q 2313 4219 1838 4219 
Q 1578 4219 1281 4162 
Q 984 4106 628 3988 
L 628 4550 
Q 988 4650 1302 4700 
Q 1616 4750 1894 4750 
Q 2613 4750 3031 4423 
Q 3450 4097 3450 3541 
Q 3450 3153 3228 2886 
Q 3006 2619 2597 2516 
z
" transform="scale(0.015625)"/>
       </defs>
       <use xlink:href="#DejaVuSans-47"/>
       <use xlink:href="#DejaVuSans-72" x="77.490234"/>
       <use xlink:href="#DejaVuSans-6f" x="116.353516"/>
       <use xlink:href="#DejaVuSans-75" x="177.535156"/>
       <use xlink:href="#DejaVuSans-70" x="240.914062"/>
       <use xlink:href="#DejaVuSans-20" x="304.390625"/>
       <use xlink:href="#DejaVuSans-33" x="336.177734"/>
      </g>
     </g>
    </g>
    <g id="xtick_5">
     <g id="line2d_5">
      <g>
       <use xlink:href="#m8880021a9e" x="269.485619" y="272.515024" style="stroke: #000000; stroke-width: 0.8"/>
      </g>
     </g>
     <g id="text_5">
      <!-- Group 4 -->
      <g transform="translate(249.495775 287.113461)scale(0.1 -0.1)">
       <defs>
        <path id="DejaVuSans-34" d="M 2419 4116 
L 825 1625 
L 2419 1625 
L 2419 4116 
z
M 2253 4666 
L 3047 4666 
L 3047 1625 
L 3713 1625 
L 3713 1100 
L 3047 1100 
L 3047 0 
L 2419 0 
L 2419 1100 
L 313 1100 
L 313 1709 
L 2253 4666 
z
" transform="scale(0.015625)"/>
       </defs>
       <use xlink:href="#DejaVuSans-47"/>
       <use xlink:href="#DejaVuSans-72" x="77.490234"/>
       <use xlink:href="#DejaVuSans-6f" x="116.353516"/>
       <use xlink:href="#DejaVuSans-75" x="177.535156"/>
       <use xlink:href="#DejaVuSans-70" x="240.914062"/>
       <use xlink:href="#DejaVuSans-20" x="304.390625"/>
       <use xlink:href="#DejaVuSans-34" x="336.177734"/>
      </g>
     </g>
    </g>
    <g id="xtick_6">
     <g id="line2d_6">
      <g>
       <use xlink:href="#m8880021a9e" x="320.505876" y="272.515024" style="stroke: #000000; stroke-width: 0.8"/>
      </g>
     </g>
     <g id="text_6">
      <!-- Group 5 -->
      <g transform="translate(300.516032 287.113461)scale(0.1 -0.1)">
       <defs>
        <path id="DejaVuSans-35" d="M 691 4666 
L 3169 4666 
L 3169 4134 
L 1269 4134 
L 1269 2991 
Q 1406 3038 1543 3061 
Q 1681 3084 1819 3084 
Q 2600 3084 3056 2656 
Q 3513 2228 3513 1497 
Q 3513 744 3044 326 
Q 2575 -91 1722 -91 
Q 1428 -91 1123 -41 
Q 819 9 494 109 
L 494 744 
Q 775 591 1075 516 
Q 1375 441 1709 441 
Q 2250 441 2565 725 
Q 2881 1009 2881 1497 
Q 2881 1984 2565 2268 
Q 2250 2553 1709 2553 
Q 1456 2553 1204 2497 
Q 953 2441 691 2322 
L 691 4666 
z
" transform="scale(0.015625)"/>
       </defs>
       <use xlink:href="#DejaVuSans-47"/>
       <use xlink:href="#DejaVuSans-72" x="77.490234"/>
       <use xlink:href="#DejaVuSans-6f" x="116.353516"/>
       <use xlink:href="#DejaVuSans-75" x="177.535156"/>
       <use xlink:href="#DejaVuSans-70" x="240.914062"/>
       <use xlink:href="#DejaVuSans-20" x="304.390625"/>
       <use xlink:href="#DejaVuSans-35" x="336.177734"/>
      </g>
     </g>
    </g>
   </g>
   <g id="matplotlib.axis_2">
    <g id="ytick_1">
     <g id="line2d_7">
      <defs>
       <path id="m18fb957bda" d="M 0 0 
L -3.5 0 
" style="stroke: #000000; stroke-width: 0.8"/>
      </defs>
      <g>
       <use xlink:href="#m18fb957bda" x="42.828125" y="263.110519" style="stroke: #000000; stroke-width: 0.8"/>
      </g>
     </g>
     <g id="text_7">
      <!-- 8.50 -->
      <g transform="translate(13.5625 266.909738)scale(0.1 -0.1)">
       <defs>
        <path id="DejaVuSans-38" d="M 2034 2216 
Q 1584 2216 1326 1975 
Q 1069 1734 1069 1313 
Q 1069 891 1326 650 
Q 1584 409 2034 409 
Q 2484 409 2743 651 
Q 3003 894 3003 1313 
Q 3003 1734 2745 1975 
Q 2488 2216 2034 2216 
z
M 1403 2484 
Q 997 2584 770 2862 
Q 544 3141 544 3541 
Q 544 4100 942 4425 
Q 1341 4750 2034 4750 
Q 2731 4750 3128 4425 
Q 3525 4100 3525 3541 
Q 3525 3141 3298 2862 
Q 3072 2584 2669 2484 
Q 3125 2378 3379 2068 
Q 3634 1759 3634 1313 
Q 3634 634 3220 271 
Q 2806 -91 2034 -91 
Q 1263 -91 848 271 
Q 434 634 434 1313 
Q 434 1759 690 2068 
Q 947 2378 1403 2484 
z
M 1172 3481 
Q 1172 3119 1398 2916 
Q 1625 2713 2034 2713 
Q 2441 2713 2670 2916 
Q 2900 3119 2900 3481 
Q 2900 3844 2670 4047 
Q 2441 4250 2034 4250 
Q 1625 4250 1398 4047 
Q 1172 3844 1172 3481 
z
" transform="scale(0.015625)"/>
        <path id="DejaVuSans-2e" d="M 684 794 
L 1344 794 
L 1344 0 
L 684 0 
L 684 794 
z
" transform="scale(0.015625)"/>
       </defs>
       <use xlink:href="#DejaVuSans-38"/>
       <use xlink:href="#DejaVuSans-2e" x="63.623047"/>
       <use xlink:href="#DejaVuSans-35" x="95.410156"/>
       <use xlink:href="#DejaVuSans-30" x="159.033203"/>
      </g>
     </g>
    </g>
    <g id="ytick_2">
     <g id="line2d_8">
      <g>
       <use xlink:href="#m18fb957bda" x="42.828125" y="231.596607" style="stroke: #000000; stroke-width: 0.8"/>
      </g>
     </g>
     <g id="text_8">
      <!-- 8.75 -->
      <g transform="translate(13.5625 235.395826)scale(0.1 -0.1)">
       <defs>
        <path id="DejaVuSans-37" d="M 525 4666 
L 3525 4666 
L 3525 4397 
L 1831 0 
L 1172 0 
L 2766 4134 
L 525 4134 
L 525 4666 
z
" transform="scale(0.015625)"/>
       </defs>
       <use xlink:href="#DejaVuSans-38"/>
       <use xlink:href="#DejaVuSans-2e" x="63.623047"/>
       <use xlink:href="#DejaVuSans-37" x="95.410156"/>
       <use xlink:href="#DejaVuSans-35" x="159.033203"/>
      </g>
     </g>
    </g>
    <g id="ytick_3">
     <g id="line2d_9">
      <g>
       <use xlink:href="#m18fb957bda" x="42.828125" y="200.082694" style="stroke: #000000; stroke-width: 0.8"/>
      </g>
     </g>
     <g id="text_9">
      <!-- 9.00 -->
      <g transform="translate(13.5625 203.881913)scale(0.1 -0.1)">
       <defs>
        <path id="DejaVuSans-39" d="M 703 97 
L 703 672 
Q 941 559 1184 500 
Q 1428 441 1663 441 
Q 2288 441 2617 861 
Q 2947 1281 2994 2138 
Q 2813 1869 2534 1725 
Q 2256 1581 1919 1581 
Q 1219 1581 811 2004 
Q 403 2428 403 3163 
Q 403 3881 828 4315 
Q 1253 4750 1959 4750 
Q 2769 4750 3195 4129 
Q 3622 3509 3622 2328 
Q 3622 1225 3098 567 
Q 2575 -91 1691 -91 
Q 1453 -91 1209 -44 
Q 966 3 703 97 
z
M 1959 2075 
Q 2384 2075 2632 2365 
Q 2881 2656 2881 3163 
Q 2881 3666 2632 3958 
Q 2384 4250 1959 4250 
Q 1534 4250 1286 3958 
Q 1038 3666 1038 3163 
Q 1038 2656 1286 2365 
Q 1534 2075 1959 2075 
z
" transform="scale(0.015625)"/>
       </defs>
       <use xlink:href="#DejaVuSans-39"/>
       <use xlink:href="#DejaVuSans-2e" x="63.623047"/>
       <use xlink:href="#DejaVuSans-30" x="95.410156"/>
       <use xlink:href="#DejaVuSans-30" x="159.033203"/>
      </g>
     </g>
    </g>
    <g id="ytick_4">
     <g id="line2d_10">
      <g>
       <use xlink:href="#m18fb957bda" x="42.828125" y="168.568782" style="stroke: #000000; stroke-width: 0.8"/>
      </g>
     </g>
     <g id="text_10">
      <!-- 9.25 -->
      <g transform="translate(13.5625 172.368)scale(0.1 -0.1)">
       <use xlink:href="#DejaVuSans-39"/>
       <use xlink:href="#DejaVuSans-2e" x="63.623047"/>
       <use xlink:href="#DejaVuSans-32" x="95.410156"/>
       <use xlink:href="#DejaVuSans-35" x="159.033203"/>
      </g>
     </g>
    </g>
    <g id="ytick_5">
     <g id="line2d_11">
      <g>
       <use xlink:href="#m18fb957bda" x="42.828125" y="137.054869" style="stroke: #000000; stroke-width: 0.8"/>
      </g>
     </g>
     <g id="text_11">
      <!-- 9.50 -->
      <g transform="translate(13.5625 140.854088)scale(0.1 -0.1)">
       <use xlink:href="#DejaVuSans-39"/>
       <use xlink:href="#DejaVuSans-2e" x="63.623047"/>
       <use xlink:href="#DejaVuSans-35" x="95.410156"/>
       <use xlink:href="#DejaVuSans-30" x="159.033203"/>
      </g>
     </g>
    </g>
    <g id="ytick_6">
     <g id="line2d_12">
      <g>
       <use xlink:href="#m18fb957bda" x="42.828125" y="105.540956" style="stroke: #000000; stroke-width: 0.8"/>
      </g>
     </g>
     <g id="text_12">
      <!-- 9.75 -->
      <g transform="translate(13.5625 109.340175)scale(0.1 -0.1)">
       <use xlink:href="#DejaVuSans-39"/>
       <use xlink:href="#DejaVuSans-2e" x="63.623047"/>
       <use xlink:href="#DejaVuSans-37" x="95.410156"/>
       <use xlink:href="#DejaVuSans-35" x="159.033203"/>
      </g>
     </g>
    </g>
    <g id="ytick_7">
     <g id="line2d_13">
      <g>
       <use xlink:href="#m18fb957bda" x="42.828125" y="74.027044" style="stroke: #000000; stroke-width: 0.8"/>
      </g>
     </g>
     <g id="text_13">
      <!-- 10.00 -->
      <g transform="translate(7.2 77.826263)scale(0.1 -0.1)">
       <use xlink:href="#DejaVuSans-31"/>
       <use xlink:href="#DejaVuSans-30" x="63.623047"/>
       <use xlink:href="#DejaVuSans-2e" x="127.246094"/>
       <use xlink:href="#DejaVuSans-30" x="159.033203"/>
       <use xlink:href="#DejaVuSans-30" x="222.65625"/>
      </g>
     </g>
    </g>
    <g id="ytick_8">
     <g id="line2d_14">
      <g>
       <use xlink:href="#m18fb957bda" x="42.828125" y="42.513131" style="stroke: #000000; stroke-width: 0.8"/>
      </g>
     </g>
     <g id="text_14">
      <!-- 10.25 -->
      <g transform="translate(7.2 46.31235)scale(0.1 -0.1)">
       <use xlink:href="#DejaVuSans-31"/>
       <use xlink:href="#DejaVuSans-30" x="63.623047"/>
       <use xlink:href="#DejaVuSans-2e" x="127.246094"/>
       <use xlink:href="#DejaVuSans-32" x="159.033203"/>
       <use xlink:href="#DejaVuSans-35" x="222.65625"/>
      </g>
     </g>
    </g>
    <g id="ytick_9">
     <g id="line2d_15">
      <g>
       <use xlink:href="#m18fb957bda" x="42.828125" y="10.999219" style="stroke: #000000; stroke-width: 0.8"/>
      </g>
     </g>
     <g id="text_15">
      <!-- 10.50 -->
      <g transform="translate(7.2 14.798438)scale(0.1 -0.1)">
       <use xlink:href="#DejaVuSans-31"/>
       <use xlink:href="#DejaVuSans-30" x="63.623047"/>
       <use xlink:href="#DejaVuSans-2e" x="127.246094"/>
       <use xlink:href="#DejaVuSans-35" x="159.033203"/>
       <use xlink:href="#DejaVuSans-30" x="222.65625"/>
      </g>
     </g>
    </g>
   </g>
   <g id="line2d_16">
    <path d="M 42.828125 103.019843 
L 343.08234 103.019843 
" clip-path="url(#p26e2ed490b)" style="fill: none; stroke-dasharray: 5.55,2.4; stroke-dashoffset: 0; stroke: #000000; stroke-width: 1.5"/>
   </g>
   <g id="LineCollection_1">
    <path d="M 74.333134 193.351438 
L 74.333134 82.073431 
" clip-path="url(#p26e2ed490b)" style="fill: none; stroke: #000000; stroke-width: 1.5"/>
    <path d="M 125.353391 164.412462 
L 125.353391 90.214773 
" clip-path="url(#p26e2ed490b)" style="fill: none; stroke: #000000; stroke-width: 1.5"/>
    <path d="M 176.373649 110.806895 
L 176.373649 19.933657 
" clip-path="url(#p26e2ed490b)" style="fill: none; stroke: #000000; stroke-width: 1.5"/>
    <path d="M 227.393906 158.285288 
L 227.393906 158.285288 
" clip-path="url(#p26e2ed490b)" style="fill: none; stroke: #000000; stroke-width: 1.5"/>
    <path d="M 278.414164 260.48734 
L 278.414164 149.085862 
" clip-path="url(#p26e2ed490b)" style="fill: none; stroke: #000000; stroke-width: 1.5"/>
    <path d="M 329.434421 158.285288 
L 329.434421 158.285288 
" clip-path="url(#p26e2ed490b)" style="fill: none; stroke: #000000; stroke-width: 1.5"/>
   </g>
   <g id="line2d_17">
    <defs>
     <path id="m9800232fcb" d="M 1.5 0 
L -1.5 -0 
" style="stroke: #000000"/>
    </defs>
    <g clip-path="url(#p26e2ed490b)">
     <use xlink:href="#m9800232fcb" x="74.333134" y="193.351438" style="stroke: #000000"/>
     <use xlink:href="#m9800232fcb" x="125.353391" y="164.412462" style="stroke: #000000"/>
     <use xlink:href="#m9800232fcb" x="176.373649" y="110.806895" style="stroke: #000000"/>
     <use xlink:href="#m9800232fcb" x="227.393906" y="158.285288" style="stroke: #000000"/>
     <use xlink:href="#m9800232fcb" x="278.414164" y="260.48734" style="stroke: #000000"/>
     <use xlink:href="#m9800232fcb" x="329.434421" y="158.285288" style="stroke: #000000"/>
    </g>
   </g>
   <g id="line2d_18">
    <g clip-path="url(#p26e2ed490b)">
     <use xlink:href="#m9800232fcb" x="74.333134" y="82.073431" style="stroke: #000000"/>
     <use xlink:href="#m9800232fcb" x="125.353391" y="90.214773" style="stroke: #000000"/>
     <use xlink:href="#m9800232fcb" x="176.373649" y="19.933657" style="stroke: #000000"/>
     <use xlink:href="#m9800232fcb" x="227.393906" y="158.285288" style="stroke: #000000"/>
     <use xlink:href="#m9800232fcb" x="278.414164" y="149.085862" style="stroke: #000000"/>
     <use xlink:href="#m9800232fcb" x="329.434421" y="158.285288" style="stroke: #000000"/>
    </g>
   </g>
   <g id="LineCollection_2">
    <path d="M 56.476044 154.673493 
L 56.476044 120.751375 
" clip-path="url(#p26e2ed490b)" style="fill: none; stroke: #696969; stroke-width: 1.5"/>
    <path d="M 107.496301 138.622873 
L 107.496301 116.004362 
" clip-path="url(#p26e2ed490b)" style="fill: none; stroke: #696969; stroke-width: 1.5"/>
    <path d="M 158.516559 79.221228 
L 158.516559 51.519324 
" clip-path="url(#p26e2ed490b)" style="fill: none; stroke: #696969; stroke-width: 1.5"/>
    <path d="M 209.536816 158.285288 
L 209.536816 158.285288 
" clip-path="url(#p26e2ed490b)" style="fill: none; stroke: #696969; stroke-width: 1.5"/>
    <path d="M 260.557074 221.766479 
L 260.557074 187.806722 
" clip-path="url(#p26e2ed490b)" style="fill: none; stroke: #696969; stroke-width: 1.5"/>
    <path d="M 311.577331 158.285288 
L 311.577331 158.285288 
" clip-path="url(#p26e2ed490b)" style="fill: none; stroke: #696969; stroke-width: 1.5"/>
   </g>
   <g id="line2d_19">
    <defs>
     <path id="m63769e1ffe" d="M 1.5 0 
L -1.5 -0 
" style="stroke: #696969"/>
    </defs>
    <g clip-path="url(#p26e2ed490b)">
     <use xlink:href="#m63769e1ffe" x="56.476044" y="154.673493" style="fill: #696969; stroke: #696969"/>
     <use xlink:href="#m63769e1ffe" x="107.496301" y="138.622873" style="fill: #696969; stroke: #696969"/>
     <use xlink:href="#m63769e1ffe" x="158.516559" y="79.221228" style="fill: #696969; stroke: #696969"/>
     <use xlink:href="#m63769e1ffe" x="209.536816" y="158.285288" style="fill: #696969; stroke: #696969"/>
     <use xlink:href="#m63769e1ffe" x="260.557074" y="221.766479" style="fill: #696969; stroke: #696969"/>
     <use xlink:href="#m63769e1ffe" x="311.577331" y="158.285288" style="fill: #696969; stroke: #696969"/>
    </g>
   </g>
   <g id="line2d_20">
    <g clip-path="url(#p26e2ed490b)">
     <use xlink:href="#m63769e1ffe" x="56.476044" y="120.751375" style="fill: #696969; stroke: #696969"/>
     <use xlink:href="#m63769e1ffe" x="107.496301" y="116.004362" style="fill: #696969; stroke: #696969"/>
     <use xlink:href="#m63769e1ffe" x="158.516559" y="51.519324" style="fill: #696969; stroke: #696969"/>
     <use xlink:href="#m63769e1ffe" x="209.536816" y="158.285288" style="fill: #696969; stroke: #696969"/>
     <use xlink:href="#m63769e1ffe" x="260.557074" y="187.806722" style="fill: #696969; stroke: #696969"/>
     <use xlink:href="#m63769e1ffe" x="311.577331" y="158.285288" style="fill: #696969; stroke: #696969"/>
    </g>
   </g>
   <g id="LineCollection_3">
    <path d="M 65.404589 188.595612 
L 65.404589 86.829257 
" clip-path="url(#p26e2ed490b)" style="fill: none; stroke: #708090; stroke-width: 1.5"/>
    <path d="M 116.424846 161.241383 
L 116.424846 93.385852 
" clip-path="url(#p26e2ed490b)" style="fill: none; stroke: #708090; stroke-width: 1.5"/>
    <path d="M 167.445104 106.923133 
L 167.445104 23.817419 
" clip-path="url(#p26e2ed490b)" style="fill: none; stroke: #708090; stroke-width: 1.5"/>
    <path d="M 218.465361 158.285288 
L 218.465361 158.285288 
" clip-path="url(#p26e2ed490b)" style="fill: none; stroke: #708090; stroke-width: 1.5"/>
    <path d="M 269.485619 255.726236 
L 269.485619 153.846965 
" clip-path="url(#p26e2ed490b)" style="fill: none; stroke: #708090; stroke-width: 1.5"/>
    <path d="M 320.505876 158.285288 
L 320.505876 158.285288 
" clip-path="url(#p26e2ed490b)" style="fill: none; stroke: #708090; stroke-width: 1.5"/>
   </g>
   <g id="line2d_21">
    <defs>
     <path id="m6b50e29c26" d="M 1.5 0 
L -1.5 -0 
" style="stroke: #708090"/>
    </defs>
    <g clip-path="url(#p26e2ed490b)">
     <use xlink:href="#m6b50e29c26" x="65.404589" y="188.595612" style="fill: #708090; stroke: #708090"/>
     <use xlink:href="#m6b50e29c26" x="116.424846" y="161.241383" style="fill: #708090; stroke: #708090"/>
     <use xlink:href="#m6b50e29c26" x="167.445104" y="106.923133" style="fill: #708090; stroke: #708090"/>
     <use xlink:href="#m6b50e29c26" x="218.465361" y="158.285288" style="fill: #708090; stroke: #708090"/>
     <use xlink:href="#m6b50e29c26" x="269.485619" y="255.726236" style="fill: #708090; stroke: #708090"/>
     <use xlink:href="#m6b50e29c26" x="320.505876" y="158.285288" style="fill: #708090; stroke: #708090"/>
    </g>
   </g>
   <g id="line2d_22">
    <g clip-path="url(#p26e2ed490b)">
     <use xlink:href="#m6b50e29c26" x="65.404589" y="86.829257" style="fill: #708090; stroke: #708090"/>
     <use xlink:href="#m6b50e29c26" x="116.424846" y="93.385852" style="fill: #708090; stroke: #708090"/>
     <use xlink:href="#m6b50e29c26" x="167.445104" y="23.817419" style="fill: #708090; stroke: #708090"/>
     <use xlink:href="#m6b50e29c26" x="218.465361" y="158.285288" style="fill: #708090; stroke: #708090"/>
     <use xlink:href="#m6b50e29c26" x="269.485619" y="153.846965" style="fill: #708090; stroke: #708090"/>
     <use xlink:href="#m6b50e29c26" x="320.505876" y="158.285288" style="fill: #708090; stroke: #708090"/>
    </g>
   </g>
   <g id="line2d_23">
    <defs>
     <path id="mb669ba2d6e" d="M 0 1.5 
C 0.397805 1.5 0.77937 1.341951 1.06066 1.06066 
C 1.341951 0.77937 1.5 0.397805 1.5 0 
C 1.5 -0.397805 1.341951 -0.77937 1.06066 -1.06066 
C 0.77937 -1.341951 0.397805 -1.5 0 -1.5 
C -0.397805 -1.5 -0.77937 -1.341951 -1.06066 -1.06066 
C -1.341951 -0.77937 -1.5 -0.397805 -1.5 0 
C -1.5 0.397805 -1.341951 0.77937 -1.06066 1.06066 
C -0.77937 1.341951 -0.397805 1.5 0 1.5 
z
" style="stroke: #000000"/>
    </defs>
    <g clip-path="url(#p26e2ed490b)">
     <use xlink:href="#mb669ba2d6e" x="74.333134" y="137.712434" style="stroke: #000000"/>
     <use xlink:href="#mb669ba2d6e" x="125.353391" y="127.313617" style="stroke: #000000"/>
     <use xlink:href="#mb669ba2d6e" x="176.373649" y="65.370276" style="stroke: #000000"/>
     <use xlink:href="#mb669ba2d6e" x="227.393906" y="158.285288" style="stroke: #000000"/>
     <use xlink:href="#mb669ba2d6e" x="278.414164" y="204.786601" style="stroke: #000000"/>
     <use xlink:href="#mb669ba2d6e" x="329.434421" y="158.285288" style="stroke: #000000"/>
    </g>
   </g>
   <g id="line2d_24">
    <defs>
     <path id="md362b2045e" d="M 0 1.5 
C 0.397805 1.5 0.77937 1.341951 1.06066 1.06066 
C 1.341951 0.77937 1.5 0.397805 1.5 0 
C 1.5 -0.397805 1.341951 -0.77937 1.06066 -1.06066 
C 0.77937 -1.341951 0.397805 -1.5 0 -1.5 
C -0.397805 -1.5 -0.77937 -1.341951 -1.06066 -1.06066 
C -1.341951 -0.77937 -1.5 -0.397805 -1.5 0 
C -1.5 0.397805 -1.341951 0.77937 -1.06066 1.06066 
C -0.77937 1.341951 -0.397805 1.5 0 1.5 
z
" style="stroke: #696969"/>
    </defs>
    <g clip-path="url(#p26e2ed490b)">
     <use xlink:href="#md362b2045e" x="56.476044" y="137.712434" style="fill: #696969; stroke: #696969"/>
     <use xlink:href="#md362b2045e" x="107.496301" y="127.313617" style="fill: #696969; stroke: #696969"/>
     <use xlink:href="#md362b2045e" x="158.516559" y="65.370276" style="fill: #696969; stroke: #696969"/>
     <use xlink:href="#md362b2045e" x="209.536816" y="158.285288" style="fill: #696969; stroke: #696969"/>
     <use xlink:href="#md362b2045e" x="260.557074" y="204.786601" style="fill: #696969; stroke: #696969"/>
     <use xlink:href="#md362b2045e" x="311.577331" y="158.285288" style="fill: #696969; stroke: #696969"/>
    </g>
   </g>
   <g id="line2d_25">
    <defs>
     <path id="mc0a7382bdc" d="M 0 1.5 
C 0.397805 1.5 0.77937 1.341951 1.06066 1.06066 
C 1.341951 0.77937 1.5 0.397805 1.5 0 
C 1.5 -0.397805 1.341951 -0.77937 1.06066 -1.06066 
C 0.77937 -1.341951 0.397805 -1.5 0 -1.5 
C -0.397805 -1.5 -0.77937 -1.341951 -1.06066 -1.06066 
C -1.341951 -0.77937 -1.5 -0.397805 -1.5 0 
C -1.5 0.397805 -1.341951 0.77937 -1.06066 1.06066 
C -0.77937 1.341951 -0.397805 1.5 0 1.5 
z
" style="stroke: #708090"/>
    </defs>
    <g clip-path="url(#p26e2ed490b)">
     <use xlink:href="#mc0a7382bdc" x="65.404589" y="137.712434" style="fill: #708090; stroke: #708090"/>
     <use xlink:href="#mc0a7382bdc" x="116.424846" y="127.313617" style="fill: #708090; stroke: #708090"/>
     <use xlink:href="#mc0a7382bdc" x="167.445104" y="65.370276" style="fill: #708090; stroke: #708090"/>
     <use xlink:href="#mc0a7382bdc" x="218.465361" y="158.285288" style="fill: #708090; stroke: #708090"/>
     <use xlink:href="#mc0a7382bdc" x="269.485619" y="204.786601" style="fill: #708090; stroke: #708090"/>
     <use xlink:href="#mc0a7382bdc" x="320.505876" y="158.285288" style="fill: #708090; stroke: #708090"/>
    </g>
   </g>
   <g id="patch_3">
    <path d="M 42.828125 272.515024 
L 42.828125 7.905973 
" style="fill: none; stroke: #000000; stroke-width: 0.8; stroke-linejoin: miter; stroke-linecap: square"/>
   </g>
   <g id="patch_4">
    <path d="M 343.08234 272.515024 
L 343.08234 7.905973 
" style="fill: none; stroke: #000000; stroke-width: 0.8; stroke-linejoin: miter; stroke-linecap: square"/>
   </g>
   <g id="patch_5">
    <path d="M 42.828125 272.515024 
L 343.08234 272.515024 
" style="fill: none; stroke: #000000; stroke-width: 0.8; stroke-linejoin: miter; stroke-linecap: square"/>
   </g>
   <g id="patch_6">
    <path d="M 42.828125 7.905973 
L 343.08234 7.905973 
" style="fill: none; stroke: #000000; stroke-width: 0.8; stroke-linejoin: miter; stroke-linecap: square"/>
   </g>
  </g>
  <g id="axes_2">
   <g id="patch_7">
    <path d="M 379.067965 272.515024 
L 679.32218 272.515024 
L 679.32218 7.905973 
L 379.067965 7.905973 
z
" style="fill: #ffffff"/>
   </g>
   <g id="matplotlib.axis_3">
    <g id="xtick_7">
     <g id="line2d_26">
      <g>
       <use xlink:href="#m8880021a9e" x="428.099377" y="272.515024" style="stroke: #000000; stroke-width: 0.8"/>
      </g>
     </g>
     <g id="text_16">
      <!-- Group 0 -->
      <g transform="translate(408.109533 287.113461)scale(0.1 -0.1)">
       <use xlink:href="#DejaVuSans-47"/>
       <use xlink:href="#DejaVuSans-72" x="77.490234"/>
       <use xlink:href="#DejaVuSans-6f" x="116.353516"/>
       <use xlink:href="#DejaVuSans-75" x="177.535156"/>
       <use xlink:href="#DejaVuSans-70" x="240.914062"/>
       <use xlink:href="#DejaVuSans-20" x="304.390625"/>
       <use xlink:href="#DejaVuSans-30" x="336.177734"/>
      </g>
     </g>
    </g>
    <g id="xtick_8">
     <g id="line2d_27">
      <g>
       <use xlink:href="#m8880021a9e" x="630.290768" y="272.515024" style="stroke: #000000; stroke-width: 0.8"/>
      </g>
     </g>
     <g id="text_17">
      <!-- Group 1 -->
      <g transform="translate(610.300924 287.113461)scale(0.1 -0.1)">
       <use xlink:href="#DejaVuSans-47"/>
       <use xlink:href="#DejaVuSans-72" x="77.490234"/>
       <use xlink:href="#DejaVuSans-6f" x="116.353516"/>
       <use xlink:href="#DejaVuSans-75" x="177.535156"/>
       <use xlink:href="#DejaVuSans-70" x="240.914062"/>
       <use xlink:href="#DejaVuSans-20" x="304.390625"/>
       <use xlink:href="#DejaVuSans-31" x="336.177734"/>
      </g>
     </g>
    </g>
   </g>
   <g id="matplotlib.axis_4">
    <g id="ytick_10">
     <g id="line2d_28">
      <g>
       <use xlink:href="#m18fb957bda" x="379.067965" y="246.848469" style="stroke: #000000; stroke-width: 0.8"/>
      </g>
     </g>
     <g id="text_18">
      <!-- 9.0 -->
      <g transform="translate(356.16484 250.647688)scale(0.1 -0.1)">
       <use xlink:href="#DejaVuSans-39"/>
       <use xlink:href="#DejaVuSans-2e" x="63.623047"/>
       <use xlink:href="#DejaVuSans-30" x="95.410156"/>
      </g>
     </g>
    </g>
    <g id="ytick_11">
     <g id="line2d_29">
      <g>
       <use xlink:href="#m18fb957bda" x="379.067965" y="206.100764" style="stroke: #000000; stroke-width: 0.8"/>
      </g>
     </g>
     <g id="text_19">
      <!-- 9.2 -->
      <g transform="translate(356.16484 209.899982)scale(0.1 -0.1)">
       <use xlink:href="#DejaVuSans-39"/>
       <use xlink:href="#DejaVuSans-2e" x="63.623047"/>
       <use xlink:href="#DejaVuSans-32" x="95.410156"/>
      </g>
     </g>
    </g>
    <g id="ytick_12">
     <g id="line2d_30">
      <g>
       <use xlink:href="#m18fb957bda" x="379.067965" y="165.353058" style="stroke: #000000; stroke-width: 0.8"/>
      </g>
     </g>
     <g id="text_20">
      <!-- 9.4 -->
      <g transform="translate(356.16484 169.152277)scale(0.1 -0.1)">
       <use xlink:href="#DejaVuSans-39"/>
       <use xlink:href="#DejaVuSans-2e" x="63.623047"/>
       <use xlink:href="#DejaVuSans-34" x="95.410156"/>
      </g>
     </g>
    </g>
    <g id="ytick_13">
     <g id="line2d_31">
      <g>
       <use xlink:href="#m18fb957bda" x="379.067965" y="124.605353" style="stroke: #000000; stroke-width: 0.8"/>
      </g>
     </g>
     <g id="text_21">
      <!-- 9.6 -->
      <g transform="translate(356.16484 128.404572)scale(0.1 -0.1)">
       <defs>
        <path id="DejaVuSans-36" d="M 2113 2584 
Q 1688 2584 1439 2293 
Q 1191 2003 1191 1497 
Q 1191 994 1439 701 
Q 1688 409 2113 409 
Q 2538 409 2786 701 
Q 3034 994 3034 1497 
Q 3034 2003 2786 2293 
Q 2538 2584 2113 2584 
z
M 3366 4563 
L 3366 3988 
Q 3128 4100 2886 4159 
Q 2644 4219 2406 4219 
Q 1781 4219 1451 3797 
Q 1122 3375 1075 2522 
Q 1259 2794 1537 2939 
Q 1816 3084 2150 3084 
Q 2853 3084 3261 2657 
Q 3669 2231 3669 1497 
Q 3669 778 3244 343 
Q 2819 -91 2113 -91 
Q 1303 -91 875 529 
Q 447 1150 447 2328 
Q 447 3434 972 4092 
Q 1497 4750 2381 4750 
Q 2619 4750 2861 4703 
Q 3103 4656 3366 4563 
z
" transform="scale(0.015625)"/>
       </defs>
       <use xlink:href="#DejaVuSans-39"/>
       <use xlink:href="#DejaVuSans-2e" x="63.623047"/>
       <use xlink:href="#DejaVuSans-36" x="95.410156"/>
      </g>
     </g>
    </g>
    <g id="ytick_14">
     <g id="line2d_32">
      <g>
       <use xlink:href="#m18fb957bda" x="379.067965" y="83.857648" style="stroke: #000000; stroke-width: 0.8"/>
      </g>
     </g>
     <g id="text_22">
      <!-- 9.8 -->
      <g transform="translate(356.16484 87.656867)scale(0.1 -0.1)">
       <use xlink:href="#DejaVuSans-39"/>
       <use xlink:href="#DejaVuSans-2e" x="63.623047"/>
       <use xlink:href="#DejaVuSans-38" x="95.410156"/>
      </g>
     </g>
    </g>
    <g id="ytick_15">
     <g id="line2d_33">
      <g>
       <use xlink:href="#m18fb957bda" x="379.067965" y="43.109943" style="stroke: #000000; stroke-width: 0.8"/>
      </g>
     </g>
     <g id="text_23">
      <!-- 10.0 -->
      <g transform="translate(349.80234 46.909161)scale(0.1 -0.1)">
       <use xlink:href="#DejaVuSans-31"/>
       <use xlink:href="#DejaVuSans-30" x="63.623047"/>
       <use xlink:href="#DejaVuSans-2e" x="127.246094"/>
       <use xlink:href="#DejaVuSans-30" x="159.033203"/>
      </g>
     </g>
    </g>
   </g>
   <g id="line2d_34">
    <path d="M 379.067965 89.969804 
L 679.32218 89.969804 
" clip-path="url(#pb4814c2166)" style="fill: none; stroke-dasharray: 5.55,2.4; stroke-dashoffset: 0; stroke: #000000; stroke-width: 1.5"/>
   </g>
   <g id="LineCollection_4">
    <path d="M 463.482871 182.996471 
L 463.482871 19.933657 
" clip-path="url(#pb4814c2166)" style="fill: none; stroke: #000000; stroke-width: 1.5"/>
    <path d="M 665.674261 260.48734 
L 665.674261 148.204196 
" clip-path="url(#pb4814c2166)" style="fill: none; stroke: #000000; stroke-width: 1.5"/>
   </g>
   <g id="line2d_35">
    <g clip-path="url(#pb4814c2166)">
     <use xlink:href="#m9800232fcb" x="463.482871" y="182.996471" style="stroke: #000000"/>
     <use xlink:href="#m9800232fcb" x="665.674261" y="260.48734" style="stroke: #000000"/>
    </g>
   </g>
   <g id="line2d_36">
    <g clip-path="url(#pb4814c2166)">
     <use xlink:href="#m9800232fcb" x="463.482871" y="19.933657" style="stroke: #000000"/>
     <use xlink:href="#m9800232fcb" x="665.674261" y="148.204196" style="stroke: #000000"/>
    </g>
   </g>
   <g id="LineCollection_5">
    <path d="M 392.715884 126.319194 
L 392.715884 76.610934 
" clip-path="url(#pb4814c2166)" style="fill: none; stroke: #696969; stroke-width: 1.5"/>
    <path d="M 594.907274 221.46003 
L 594.907274 187.231505 
" clip-path="url(#pb4814c2166)" style="fill: none; stroke: #696969; stroke-width: 1.5"/>
   </g>
   <g id="line2d_37">
    <g clip-path="url(#pb4814c2166)">
     <use xlink:href="#m63769e1ffe" x="392.715884" y="126.319194" style="fill: #696969; stroke: #696969"/>
     <use xlink:href="#m63769e1ffe" x="594.907274" y="221.46003" style="fill: #696969; stroke: #696969"/>
    </g>
   </g>
   <g id="line2d_38">
    <g clip-path="url(#pb4814c2166)">
     <use xlink:href="#m63769e1ffe" x="392.715884" y="76.610934" style="fill: #696969; stroke: #696969"/>
     <use xlink:href="#m63769e1ffe" x="594.907274" y="187.231505" style="fill: #696969; stroke: #696969"/>
    </g>
   </g>
   <g id="LineCollection_6">
    <path d="M 428.099377 176.027454 
L 428.099377 26.902675 
" clip-path="url(#pb4814c2166)" style="fill: none; stroke: #708090; stroke-width: 1.5"/>
    <path d="M 630.290768 255.688556 
L 630.290768 153.00298 
" clip-path="url(#pb4814c2166)" style="fill: none; stroke: #708090; stroke-width: 1.5"/>
   </g>
   <g id="line2d_39">
    <g clip-path="url(#pb4814c2166)">
     <use xlink:href="#m6b50e29c26" x="428.099377" y="176.027454" style="fill: #708090; stroke: #708090"/>
     <use xlink:href="#m6b50e29c26" x="630.290768" y="255.688556" style="fill: #708090; stroke: #708090"/>
    </g>
   </g>
   <g id="line2d_40">
    <g clip-path="url(#pb4814c2166)">
     <use xlink:href="#m6b50e29c26" x="428.099377" y="26.902675" style="fill: #708090; stroke: #708090"/>
     <use xlink:href="#m6b50e29c26" x="630.290768" y="153.00298" style="fill: #708090; stroke: #708090"/>
    </g>
   </g>
   <g id="line2d_41">
    <g clip-path="url(#pb4814c2166)">
     <use xlink:href="#mb669ba2d6e" x="463.482871" y="101.465064" style="stroke: #000000"/>
     <use xlink:href="#mb669ba2d6e" x="665.674261" y="204.345768" style="stroke: #000000"/>
    </g>
   </g>
   <g id="line2d_42">
    <g clip-path="url(#pb4814c2166)">
     <use xlink:href="#md362b2045e" x="392.715884" y="101.465064" style="fill: #696969; stroke: #696969"/>
     <use xlink:href="#md362b2045e" x="594.907274" y="204.345768" style="fill: #696969; stroke: #696969"/>
    </g>
   </g>
   <g id="line2d_43">
    <g clip-path="url(#pb4814c2166)">
     <use xlink:href="#mc0a7382bdc" x="428.099377" y="101.465064" style="fill: #708090; stroke: #708090"/>
     <use xlink:href="#mc0a7382bdc" x="630.290768" y="204.345768" style="fill: #708090; stroke: #708090"/>
    </g>
   </g>
   <g id="patch_8">
    <path d="M 379.067965 272.515024 
L 379.067965 7.905973 
" style="fill: none; stroke: #000000; stroke-width: 0.8; stroke-linejoin: miter; stroke-linecap: square"/>
   </g>
   <g id="patch_9">
    <path d="M 679.32218 272.515024 
L 679.32218 7.905973 
" style="fill: none; stroke: #000000; stroke-width: 0.8; stroke-linejoin: miter; stroke-linecap: square"/>
   </g>
   <g id="patch_10">
    <path d="M 379.067965 272.515024 
L 679.32218 272.515024 
" style="fill: none; stroke: #000000; stroke-width: 0.8; stroke-linejoin: miter; stroke-linecap: square"/>
   </g>
   <g id="patch_11">
    <path d="M 379.067965 7.905973 
L 679.32218 7.905973 
" style="fill: none; stroke: #000000; stroke-width: 0.8; stroke-linejoin: miter; stroke-linecap: square"/>
   </g>
  </g>
  <g id="axes_3">
   <g id="patch_12">
    <path d="M 708.945305 272.515024 
L 1009.19952 272.515024 
L 1009.19952 7.905973 
L 708.945305 7.905973 
z
" style="fill: #ffffff"/>
   </g>
   <g id="matplotlib.axis_5">
    <g id="xtick_9">
     <g id="line2d_44">
      <g>
       <use xlink:href="#m8880021a9e" x="859.072412" y="272.515024" style="stroke: #000000; stroke-width: 0.8"/>
      </g>
     </g>
     <g id="text_24">
      <!-- Group 0 -->
      <g transform="translate(839.082569 287.113461)scale(0.1 -0.1)">
       <use xlink:href="#DejaVuSans-47"/>
       <use xlink:href="#DejaVuSans-72" x="77.490234"/>
       <use xlink:href="#DejaVuSans-6f" x="116.353516"/>
       <use xlink:href="#DejaVuSans-75" x="177.535156"/>
       <use xlink:href="#DejaVuSans-70" x="240.914062"/>
       <use xlink:href="#DejaVuSans-20" x="304.390625"/>
       <use xlink:href="#DejaVuSans-30" x="336.177734"/>
      </g>
     </g>
    </g>
   </g>
   <g id="matplotlib.axis_6">
    <g id="ytick_16">
     <g id="line2d_45">
      <g>
       <use xlink:href="#m18fb957bda" x="708.945305" y="255.913677" style="stroke: #000000; stroke-width: 0.8"/>
      </g>
     </g>
     <g id="text_25">
      <!-- 9.1 -->
      <g transform="translate(686.04218 259.712896)scale(0.1 -0.1)">
       <use xlink:href="#DejaVuSans-39"/>
       <use xlink:href="#DejaVuSans-2e" x="63.623047"/>
       <use xlink:href="#DejaVuSans-31" x="95.410156"/>
      </g>
     </g>
    </g>
    <g id="ytick_17">
     <g id="line2d_46">
      <g>
       <use xlink:href="#m18fb957bda" x="708.945305" y="223.871471" style="stroke: #000000; stroke-width: 0.8"/>
      </g>
     </g>
     <g id="text_26">
      <!-- 9.2 -->
      <g transform="translate(686.04218 227.670689)scale(0.1 -0.1)">
       <use xlink:href="#DejaVuSans-39"/>
       <use xlink:href="#DejaVuSans-2e" x="63.623047"/>
       <use xlink:href="#DejaVuSans-32" x="95.410156"/>
      </g>
     </g>
    </g>
    <g id="ytick_18">
     <g id="line2d_47">
      <g>
       <use xlink:href="#m18fb957bda" x="708.945305" y="191.829264" style="stroke: #000000; stroke-width: 0.8"/>
      </g>
     </g>
     <g id="text_27">
      <!-- 9.3 -->
      <g transform="translate(686.04218 195.628483)scale(0.1 -0.1)">
       <use xlink:href="#DejaVuSans-39"/>
       <use xlink:href="#DejaVuSans-2e" x="63.623047"/>
       <use xlink:href="#DejaVuSans-33" x="95.410156"/>
      </g>
     </g>
    </g>
    <g id="ytick_19">
     <g id="line2d_48">
      <g>
       <use xlink:href="#m18fb957bda" x="708.945305" y="159.787057" style="stroke: #000000; stroke-width: 0.8"/>
      </g>
     </g>
     <g id="text_28">
      <!-- 9.4 -->
      <g transform="translate(686.04218 163.586276)scale(0.1 -0.1)">
       <use xlink:href="#DejaVuSans-39"/>
       <use xlink:href="#DejaVuSans-2e" x="63.623047"/>
       <use xlink:href="#DejaVuSans-34" x="95.410156"/>
      </g>
     </g>
    </g>
    <g id="ytick_20">
     <g id="line2d_49">
      <g>
       <use xlink:href="#m18fb957bda" x="708.945305" y="127.744851" style="stroke: #000000; stroke-width: 0.8"/>
      </g>
     </g>
     <g id="text_29">
      <!-- 9.5 -->
      <g transform="translate(686.04218 131.544069)scale(0.1 -0.1)">
       <use xlink:href="#DejaVuSans-39"/>
       <use xlink:href="#DejaVuSans-2e" x="63.623047"/>
       <use xlink:href="#DejaVuSans-35" x="95.410156"/>
      </g>
     </g>
    </g>
    <g id="ytick_21">
     <g id="line2d_50">
      <g>
       <use xlink:href="#m18fb957bda" x="708.945305" y="95.702644" style="stroke: #000000; stroke-width: 0.8"/>
      </g>
     </g>
     <g id="text_30">
      <!-- 9.6 -->
      <g transform="translate(686.04218 99.501863)scale(0.1 -0.1)">
       <use xlink:href="#DejaVuSans-39"/>
       <use xlink:href="#DejaVuSans-2e" x="63.623047"/>
       <use xlink:href="#DejaVuSans-36" x="95.410156"/>
      </g>
     </g>
    </g>
    <g id="ytick_22">
     <g id="line2d_51">
      <g>
       <use xlink:href="#m18fb957bda" x="708.945305" y="63.660437" style="stroke: #000000; stroke-width: 0.8"/>
      </g>
     </g>
     <g id="text_31">
      <!-- 9.7 -->
      <g transform="translate(686.04218 67.459656)scale(0.1 -0.1)">
       <use xlink:href="#DejaVuSans-39"/>
       <use xlink:href="#DejaVuSans-2e" x="63.623047"/>
       <use xlink:href="#DejaVuSans-37" x="95.410156"/>
      </g>
     </g>
    </g>
    <g id="ytick_23">
     <g id="line2d_52">
      <g>
       <use xlink:href="#m18fb957bda" x="708.945305" y="31.61823" style="stroke: #000000; stroke-width: 0.8"/>
      </g>
     </g>
     <g id="text_32">
      <!-- 9.8 -->
      <g transform="translate(686.04218 35.417449)scale(0.1 -0.1)">
       <use xlink:href="#DejaVuSans-39"/>
       <use xlink:href="#DejaVuSans-2e" x="63.623047"/>
       <use xlink:href="#DejaVuSans-38" x="95.410156"/>
      </g>
     </g>
    </g>
   </g>
   <g id="line2d_53">
    <path d="M 708.945305 41.230892 
L 1009.19952 41.230892 
" clip-path="url(#p4a1fb120c7)" style="fill: none; stroke-dasharray: 5.55,2.4; stroke-dashoffset: 0; stroke: #000000; stroke-width: 1.5"/>
   </g>
   <g id="LineCollection_7">
    <path d="M 995.551601 260.48734 
L 995.551601 19.933657 
" clip-path="url(#p4a1fb120c7)" style="fill: none; stroke: #000000; stroke-width: 1.5"/>
   </g>
   <g id="line2d_54">
    <g clip-path="url(#p4a1fb120c7)">
     <use xlink:href="#m9800232fcb" x="995.551601" y="260.48734" style="stroke: #000000"/>
    </g>
   </g>
   <g id="line2d_55">
    <g clip-path="url(#p4a1fb120c7)">
     <use xlink:href="#m9800232fcb" x="995.551601" y="19.933657" style="stroke: #000000"/>
    </g>
   </g>
   <g id="LineCollection_8">
    <path d="M 722.593224 176.875832 
L 722.593224 103.545165 
" clip-path="url(#p4a1fb120c7)" style="fill: none; stroke: #696969; stroke-width: 1.5"/>
   </g>
   <g id="line2d_56">
    <g clip-path="url(#p4a1fb120c7)">
     <use xlink:href="#m63769e1ffe" x="722.593224" y="176.875832" style="fill: #696969; stroke: #696969"/>
    </g>
   </g>
   <g id="line2d_57">
    <g clip-path="url(#p4a1fb120c7)">
     <use xlink:href="#m63769e1ffe" x="722.593224" y="103.545165" style="fill: #696969; stroke: #696969"/>
    </g>
   </g>
   <g id="LineCollection_9">
    <path d="M 859.072412 250.206498 
L 859.072412 30.214498 
" clip-path="url(#p4a1fb120c7)" style="fill: none; stroke: #708090; stroke-width: 1.5"/>
   </g>
   <g id="line2d_58">
    <g clip-path="url(#p4a1fb120c7)">
     <use xlink:href="#m6b50e29c26" x="859.072412" y="250.206498" style="fill: #708090; stroke: #708090"/>
    </g>
   </g>
   <g id="line2d_59">
    <g clip-path="url(#p4a1fb120c7)">
     <use xlink:href="#m6b50e29c26" x="859.072412" y="30.214498" style="fill: #708090; stroke: #708090"/>
    </g>
   </g>
   <g id="line2d_60">
    <g clip-path="url(#p4a1fb120c7)">
     <use xlink:href="#mb669ba2d6e" x="995.551601" y="140.210498" style="stroke: #000000"/>
    </g>
   </g>
   <g id="line2d_61">
    <g clip-path="url(#p4a1fb120c7)">
     <use xlink:href="#md362b2045e" x="722.593224" y="140.210498" style="fill: #696969; stroke: #696969"/>
    </g>
   </g>
   <g id="line2d_62">
    <g clip-path="url(#p4a1fb120c7)">
     <use xlink:href="#mc0a7382bdc" x="859.072412" y="140.210498" style="fill: #708090; stroke: #708090"/>
    </g>
   </g>
   <g id="patch_13">
    <path d="M 708.945305 272.515024 
L 708.945305 7.905973 
" style="fill: none; stroke: #000000; stroke-width: 0.8; stroke-linejoin: miter; stroke-linecap: square"/>
   </g>
   <g id="patch_14">
    <path d="M 1009.19952 272.515024 
L 1009.19952 7.905973 
" style="fill: none; stroke: #000000; stroke-width: 0.8; stroke-linejoin: miter; stroke-linecap: square"/>
   </g>
   <g id="patch_15">
    <path d="M 708.945305 272.515024 
L 1009.19952 272.515024 
" style="fill: none; stroke: #000000; stroke-width: 0.8; stroke-linejoin: miter; stroke-linecap: square"/>
   </g>
   <g id="patch_16">
    <path d="M 708.945305 7.905973 
L 1009.19952 7.905973 
" style="fill: none; stroke: #000000; stroke-width: 0.8; stroke-linejoin: miter; stroke-linecap: square"/>
   </g>
  </g>
 </g>
 <defs>
  <clipPath id="p26e2ed490b">
   <rect x="42.828125" y="7.905973" width="300.254215" height="264.609051"/>
  </clipPath>
  <clipPath id="pb4814c2166">
   <rect x="379.067965" y="7.905973" width="300.254215" height="264.609051"/>
  </clipPath>
  <clipPath id="p4a1fb120c7">
   <rect x="708.945305" y="7.905973" width="300.254215" height="264.609051"/>
  </clipPath>
 </defs>
</svg>
