<?xml version="1.0" encoding="utf-8" standalone="no"?>
<!DOCTYPE svg PUBLIC "-//W3C//DTD SVG 1.1//EN"
  "http://www.w3.org/Graphics/SVG/1.1/DTD/svg11.dtd">
<svg xmlns:xlink="http://www.w3.org/1999/xlink" width="384.620312pt" height="262.19625pt" viewBox="0 0 384.620312 262.19625" xmlns="http://www.w3.org/2000/svg" version="1.1">
 <metadata>
  <rdf:RDF xmlns:dc="http://purl.org/dc/elements/1.1/" xmlns:cc="http://creativecommons.org/ns#" xmlns:rdf="http://www.w3.org/1999/02/22-rdf-syntax-ns#">
   <cc:Work>
    <dc:type rdf:resource="http://purl.org/dc/dcmitype/StillImage"/>
    <dc:date>2021-12-05T11:54:04.180321</dc:date>
    <dc:format>image/svg+xml</dc:format>
    <dc:creator>
     <cc:Agent>
      <dc:title>Matplotlib v3.5.0, https://matplotlib.org/</dc:title>
     </cc:Agent>
    </dc:creator>
   </cc:Work>
  </rdf:RDF>
 </metadata>
 <defs>
  <style type="text/css">*{stroke-linejoin: round; stroke-linecap: butt}</style>
 </defs>
 <g id="figure_1">
  <g id="patch_1">
   <path d="M 0 262.19625 
L 384.620312 262.19625 
L 384.620312 0 
L 0 0 
L 0 262.19625 
z
" style="fill: none"/>
  </g>
  <g id="axes_1">
   <g id="patch_2">
    <path d="M 42.620313 224.64 
L 377.420313 224.64 
L 377.420313 7.2 
L 42.620313 7.2 
z
" style="fill: #ffffff"/>
   </g>
   <g id="matplotlib.axis_1">
    <g id="xtick_1">
     <g id="line2d_1">
      <path d="M 57.838494 224.64 
L 57.838494 7.2 
" clip-path="url(#pe0d92c3a04)" style="fill: none; stroke: #b0b0b0; stroke-width: 0.8; stroke-linecap: square"/>
     </g>
     <g id="line2d_2">
      <defs>
       <path id="md8b0c3a7a0" d="M 0 0 
L 0 3.5 
" style="stroke: #000000; stroke-width: 0.8"/>
      </defs>
      <g>
       <use xlink:href="#md8b0c3a7a0" x="57.838494" y="224.64" style="stroke: #000000; stroke-width: 0.8"/>
      </g>
     </g>
     <g id="text_1">
      <!-- 0 -->
      <g transform="translate(54.657244 239.238437)scale(0.1 -0.1)">
       <defs>
        <path id="DejaVuSans-30" d="M 2034 4250 
Q 1547 4250 1301 3770 
Q 1056 3291 1056 2328 
Q 1056 1369 1301 889 
Q 1547 409 2034 409 
Q 2525 409 2770 889 
Q 3016 1369 3016 2328 
Q 3016 3291 2770 3770 
Q 2525 4250 2034 4250 
z
M 2034 4750 
Q 2819 4750 3233 4129 
Q 3647 3509 3647 2328 
Q 3647 1150 3233 529 
Q 2819 -91 2034 -91 
Q 1250 -91 836 529 
Q 422 1150 422 2328 
Q 422 3509 836 4129 
Q 1250 4750 2034 4750 
z
" transform="scale(0.015625)"/>
       </defs>
       <use xlink:href="#DejaVuSans-30"/>
      </g>
     </g>
    </g>
    <g id="xtick_2">
     <g id="line2d_3">
      <path d="M 109.425551 224.64 
L 109.425551 7.2 
" clip-path="url(#pe0d92c3a04)" style="fill: none; stroke: #b0b0b0; stroke-width: 0.8; stroke-linecap: square"/>
     </g>
     <g id="line2d_4">
      <g>
       <use xlink:href="#md8b0c3a7a0" x="109.425551" y="224.64" style="stroke: #000000; stroke-width: 0.8"/>
      </g>
     </g>
     <g id="text_2">
      <!-- 10 -->
      <g transform="translate(103.063051 239.238437)scale(0.1 -0.1)">
       <defs>
        <path id="DejaVuSans-31" d="M 794 531 
L 1825 531 
L 1825 4091 
L 703 3866 
L 703 4441 
L 1819 4666 
L 2450 4666 
L 2450 531 
L 3481 531 
L 3481 0 
L 794 0 
L 794 531 
z
" transform="scale(0.015625)"/>
       </defs>
       <use xlink:href="#DejaVuSans-31"/>
       <use xlink:href="#DejaVuSans-30" x="63.623047"/>
      </g>
     </g>
    </g>
    <g id="xtick_3">
     <g id="line2d_5">
      <path d="M 161.012608 224.64 
L 161.012608 7.2 
" clip-path="url(#pe0d92c3a04)" style="fill: none; stroke: #b0b0b0; stroke-width: 0.8; stroke-linecap: square"/>
     </g>
     <g id="line2d_6">
      <g>
       <use xlink:href="#md8b0c3a7a0" x="161.012608" y="224.64" style="stroke: #000000; stroke-width: 0.8"/>
      </g>
     </g>
     <g id="text_3">
      <!-- 20 -->
      <g transform="translate(154.650108 239.238437)scale(0.1 -0.1)">
       <defs>
        <path id="DejaVuSans-32" d="M 1228 531 
L 3431 531 
L 3431 0 
L 469 0 
L 469 531 
Q 828 903 1448 1529 
Q 2069 2156 2228 2338 
Q 2531 2678 2651 2914 
Q 2772 3150 2772 3378 
Q 2772 3750 2511 3984 
Q 2250 4219 1831 4219 
Q 1534 4219 1204 4116 
Q 875 4013 500 3803 
L 500 4441 
Q 881 4594 1212 4672 
Q 1544 4750 1819 4750 
Q 2544 4750 2975 4387 
Q 3406 4025 3406 3419 
Q 3406 3131 3298 2873 
Q 3191 2616 2906 2266 
Q 2828 2175 2409 1742 
Q 1991 1309 1228 531 
z
" transform="scale(0.015625)"/>
       </defs>
       <use xlink:href="#DejaVuSans-32"/>
       <use xlink:href="#DejaVuSans-30" x="63.623047"/>
      </g>
     </g>
    </g>
    <g id="xtick_4">
     <g id="line2d_7">
      <path d="M 212.599665 224.64 
L 212.599665 7.2 
" clip-path="url(#pe0d92c3a04)" style="fill: none; stroke: #b0b0b0; stroke-width: 0.8; stroke-linecap: square"/>
     </g>
     <g id="line2d_8">
      <g>
       <use xlink:href="#md8b0c3a7a0" x="212.599665" y="224.64" style="stroke: #000000; stroke-width: 0.8"/>
      </g>
     </g>
     <g id="text_4">
      <!-- 30 -->
      <g transform="translate(206.237165 239.238437)scale(0.1 -0.1)">
       <defs>
        <path id="DejaVuSans-33" d="M 2597 2516 
Q 3050 2419 3304 2112 
Q 3559 1806 3559 1356 
Q 3559 666 3084 287 
Q 2609 -91 1734 -91 
Q 1441 -91 1130 -33 
Q 819 25 488 141 
L 488 750 
Q 750 597 1062 519 
Q 1375 441 1716 441 
Q 2309 441 2620 675 
Q 2931 909 2931 1356 
Q 2931 1769 2642 2001 
Q 2353 2234 1838 2234 
L 1294 2234 
L 1294 2753 
L 1863 2753 
Q 2328 2753 2575 2939 
Q 2822 3125 2822 3475 
Q 2822 3834 2567 4026 
Q 2313 4219 1838 4219 
Q 1578 4219 1281 4162 
Q 984 4106 628 3988 
L 628 4550 
Q 988 4650 1302 4700 
Q 1616 4750 1894 4750 
Q 2613 4750 3031 4423 
Q 3450 4097 3450 3541 
Q 3450 3153 3228 2886 
Q 3006 2619 2597 2516 
z
" transform="scale(0.015625)"/>
       </defs>
       <use xlink:href="#DejaVuSans-33"/>
       <use xlink:href="#DejaVuSans-30" x="63.623047"/>
      </g>
     </g>
    </g>
    <g id="xtick_5">
     <g id="line2d_9">
      <path d="M 264.186722 224.64 
L 264.186722 7.2 
" clip-path="url(#pe0d92c3a04)" style="fill: none; stroke: #b0b0b0; stroke-width: 0.8; stroke-linecap: square"/>
     </g>
     <g id="line2d_10">
      <g>
       <use xlink:href="#md8b0c3a7a0" x="264.186722" y="224.64" style="stroke: #000000; stroke-width: 0.8"/>
      </g>
     </g>
     <g id="text_5">
      <!-- 40 -->
      <g transform="translate(257.824222 239.238437)scale(0.1 -0.1)">
       <defs>
        <path id="DejaVuSans-34" d="M 2419 4116 
L 825 1625 
L 2419 1625 
L 2419 4116 
z
M 2253 4666 
L 3047 4666 
L 3047 1625 
L 3713 1625 
L 3713 1100 
L 3047 1100 
L 3047 0 
L 2419 0 
L 2419 1100 
L 313 1100 
L 313 1709 
L 2253 4666 
z
" transform="scale(0.015625)"/>
       </defs>
       <use xlink:href="#DejaVuSans-34"/>
       <use xlink:href="#DejaVuSans-30" x="63.623047"/>
      </g>
     </g>
    </g>
    <g id="xtick_6">
     <g id="line2d_11">
      <path d="M 315.773779 224.64 
L 315.773779 7.2 
" clip-path="url(#pe0d92c3a04)" style="fill: none; stroke: #b0b0b0; stroke-width: 0.8; stroke-linecap: square"/>
     </g>
     <g id="line2d_12">
      <g>
       <use xlink:href="#md8b0c3a7a0" x="315.773779" y="224.64" style="stroke: #000000; stroke-width: 0.8"/>
      </g>
     </g>
     <g id="text_6">
      <!-- 50 -->
      <g transform="translate(309.411279 239.238437)scale(0.1 -0.1)">
       <defs>
        <path id="DejaVuSans-35" d="M 691 4666 
L 3169 4666 
L 3169 4134 
L 1269 4134 
L 1269 2991 
Q 1406 3038 1543 3061 
Q 1681 3084 1819 3084 
Q 2600 3084 3056 2656 
Q 3513 2228 3513 1497 
Q 3513 744 3044 326 
Q 2575 -91 1722 -91 
Q 1428 -91 1123 -41 
Q 819 9 494 109 
L 494 744 
Q 775 591 1075 516 
Q 1375 441 1709 441 
Q 2250 441 2565 725 
Q 2881 1009 2881 1497 
Q 2881 1984 2565 2268 
Q 2250 2553 1709 2553 
Q 1456 2553 1204 2497 
Q 953 2441 691 2322 
L 691 4666 
z
" transform="scale(0.015625)"/>
       </defs>
       <use xlink:href="#DejaVuSans-35"/>
       <use xlink:href="#DejaVuSans-30" x="63.623047"/>
      </g>
     </g>
    </g>
    <g id="xtick_7">
     <g id="line2d_13">
      <path d="M 367.360836 224.64 
L 367.360836 7.2 
" clip-path="url(#pe0d92c3a04)" style="fill: none; stroke: #b0b0b0; stroke-width: 0.8; stroke-linecap: square"/>
     </g>
     <g id="line2d_14">
      <g>
       <use xlink:href="#md8b0c3a7a0" x="367.360836" y="224.64" style="stroke: #000000; stroke-width: 0.8"/>
      </g>
     </g>
     <g id="text_7">
      <!-- 60 -->
      <g transform="translate(360.998336 239.238437)scale(0.1 -0.1)">
       <defs>
        <path id="DejaVuSans-36" d="M 2113 2584 
Q 1688 2584 1439 2293 
Q 1191 2003 1191 1497 
Q 1191 994 1439 701 
Q 1688 409 2113 409 
Q 2538 409 2786 701 
Q 3034 994 3034 1497 
Q 3034 2003 2786 2293 
Q 2538 2584 2113 2584 
z
M 3366 4563 
L 3366 3988 
Q 3128 4100 2886 4159 
Q 2644 4219 2406 4219 
Q 1781 4219 1451 3797 
Q 1122 3375 1075 2522 
Q 1259 2794 1537 2939 
Q 1816 3084 2150 3084 
Q 2853 3084 3261 2657 
Q 3669 2231 3669 1497 
Q 3669 778 3244 343 
Q 2819 -91 2113 -91 
Q 1303 -91 875 529 
Q 447 1150 447 2328 
Q 447 3434 972 4092 
Q 1497 4750 2381 4750 
Q 2619 4750 2861 4703 
Q 3103 4656 3366 4563 
z
" transform="scale(0.015625)"/>
       </defs>
       <use xlink:href="#DejaVuSans-36"/>
       <use xlink:href="#DejaVuSans-30" x="63.623047"/>
      </g>
     </g>
    </g>
    <g id="text_8">
     <!-- Minute -->
     <g transform="translate(192.942969 252.916562)scale(0.1 -0.1)">
      <defs>
       <path id="DejaVuSans-4d" d="M 628 4666 
L 1569 4666 
L 2759 1491 
L 3956 4666 
L 4897 4666 
L 4897 0 
L 4281 0 
L 4281 4097 
L 3078 897 
L 2444 897 
L 1241 4097 
L 1241 0 
L 628 0 
L 628 4666 
z
" transform="scale(0.015625)"/>
       <path id="DejaVuSans-69" d="M 603 3500 
L 1178 3500 
L 1178 0 
L 603 0 
L 603 3500 
z
M 603 4863 
L 1178 4863 
L 1178 4134 
L 603 4134 
L 603 4863 
z
" transform="scale(0.015625)"/>
       <path id="DejaVuSans-6e" d="M 3513 2113 
L 3513 0 
L 2938 0 
L 2938 2094 
Q 2938 2591 2744 2837 
Q 2550 3084 2163 3084 
Q 1697 3084 1428 2787 
Q 1159 2491 1159 1978 
L 1159 0 
L 581 0 
L 581 3500 
L 1159 3500 
L 1159 2956 
Q 1366 3272 1645 3428 
Q 1925 3584 2291 3584 
Q 2894 3584 3203 3211 
Q 3513 2838 3513 2113 
z
" transform="scale(0.015625)"/>
       <path id="DejaVuSans-75" d="M 544 1381 
L 544 3500 
L 1119 3500 
L 1119 1403 
Q 1119 906 1312 657 
Q 1506 409 1894 409 
Q 2359 409 2629 706 
Q 2900 1003 2900 1516 
L 2900 3500 
L 3475 3500 
L 3475 0 
L 2900 0 
L 2900 538 
Q 2691 219 2414 64 
Q 2138 -91 1772 -91 
Q 1169 -91 856 284 
Q 544 659 544 1381 
z
M 1991 3584 
L 1991 3584 
z
" transform="scale(0.015625)"/>
       <path id="DejaVuSans-74" d="M 1172 4494 
L 1172 3500 
L 2356 3500 
L 2356 3053 
L 1172 3053 
L 1172 1153 
Q 1172 725 1289 603 
Q 1406 481 1766 481 
L 2356 481 
L 2356 0 
L 1766 0 
Q 1100 0 847 248 
Q 594 497 594 1153 
L 594 3053 
L 172 3053 
L 172 3500 
L 594 3500 
L 594 4494 
L 1172 4494 
z
" transform="scale(0.015625)"/>
       <path id="DejaVuSans-65" d="M 3597 1894 
L 3597 1613 
L 953 1613 
Q 991 1019 1311 708 
Q 1631 397 2203 397 
Q 2534 397 2845 478 
Q 3156 559 3463 722 
L 3463 178 
Q 3153 47 2828 -22 
Q 2503 -91 2169 -91 
Q 1331 -91 842 396 
Q 353 884 353 1716 
Q 353 2575 817 3079 
Q 1281 3584 2069 3584 
Q 2775 3584 3186 3129 
Q 3597 2675 3597 1894 
z
M 3022 2063 
Q 3016 2534 2758 2815 
Q 2500 3097 2075 3097 
Q 1594 3097 1305 2825 
Q 1016 2553 972 2059 
L 3022 2063 
z
" transform="scale(0.015625)"/>
      </defs>
      <use xlink:href="#DejaVuSans-4d"/>
      <use xlink:href="#DejaVuSans-69" x="86.279297"/>
      <use xlink:href="#DejaVuSans-6e" x="114.0625"/>
      <use xlink:href="#DejaVuSans-75" x="177.441406"/>
      <use xlink:href="#DejaVuSans-74" x="240.820312"/>
      <use xlink:href="#DejaVuSans-65" x="280.029297"/>
     </g>
    </g>
   </g>
   <g id="matplotlib.axis_2">
    <g id="ytick_1">
     <g id="line2d_15">
      <path d="M 42.620313 200.166234 
L 377.420313 200.166234 
" clip-path="url(#pe0d92c3a04)" style="fill: none; stroke: #b0b0b0; stroke-width: 0.8; stroke-linecap: square"/>
     </g>
     <g id="line2d_16">
      <defs>
       <path id="mc7915ea83f" d="M 0 0 
L -3.5 0 
" style="stroke: #000000; stroke-width: 0.8"/>
      </defs>
      <g>
       <use xlink:href="#mc7915ea83f" x="42.620313" y="200.166234" style="stroke: #000000; stroke-width: 0.8"/>
      </g>
     </g>
     <g id="text_9">
      <!-- −1 -->
      <g transform="translate(20.878125 203.965453)scale(0.1 -0.1)">
       <defs>
        <path id="DejaVuSans-2212" d="M 678 2272 
L 4684 2272 
L 4684 1741 
L 678 1741 
L 678 2272 
z
" transform="scale(0.015625)"/>
       </defs>
       <use xlink:href="#DejaVuSans-2212"/>
       <use xlink:href="#DejaVuSans-31" x="83.789062"/>
      </g>
     </g>
    </g>
    <g id="ytick_2">
     <g id="line2d_17">
      <path d="M 42.620313 171.927273 
L 377.420313 171.927273 
" clip-path="url(#pe0d92c3a04)" style="fill: none; stroke: #b0b0b0; stroke-width: 0.8; stroke-linecap: square"/>
     </g>
     <g id="line2d_18">
      <g>
       <use xlink:href="#mc7915ea83f" x="42.620313" y="171.927273" style="stroke: #000000; stroke-width: 0.8"/>
      </g>
     </g>
     <g id="text_10">
      <!-- 0 -->
      <g transform="translate(29.257813 175.726491)scale(0.1 -0.1)">
       <use xlink:href="#DejaVuSans-30"/>
      </g>
     </g>
    </g>
    <g id="ytick_3">
     <g id="line2d_19">
      <path d="M 42.620313 143.688312 
L 377.420313 143.688312 
" clip-path="url(#pe0d92c3a04)" style="fill: none; stroke: #b0b0b0; stroke-width: 0.8; stroke-linecap: square"/>
     </g>
     <g id="line2d_20">
      <g>
       <use xlink:href="#mc7915ea83f" x="42.620313" y="143.688312" style="stroke: #000000; stroke-width: 0.8"/>
      </g>
     </g>
     <g id="text_11">
      <!-- 1 -->
      <g transform="translate(29.257813 147.48753)scale(0.1 -0.1)">
       <use xlink:href="#DejaVuSans-31"/>
      </g>
     </g>
    </g>
    <g id="ytick_4">
     <g id="line2d_21">
      <path d="M 42.620313 115.449351 
L 377.420313 115.449351 
" clip-path="url(#pe0d92c3a04)" style="fill: none; stroke: #b0b0b0; stroke-width: 0.8; stroke-linecap: square"/>
     </g>
     <g id="line2d_22">
      <g>
       <use xlink:href="#mc7915ea83f" x="42.620313" y="115.449351" style="stroke: #000000; stroke-width: 0.8"/>
      </g>
     </g>
     <g id="text_12">
      <!-- 2 -->
      <g transform="translate(29.257813 119.248569)scale(0.1 -0.1)">
       <use xlink:href="#DejaVuSans-32"/>
      </g>
     </g>
    </g>
    <g id="ytick_5">
     <g id="line2d_23">
      <path d="M 42.620313 87.21039 
L 377.420313 87.21039 
" clip-path="url(#pe0d92c3a04)" style="fill: none; stroke: #b0b0b0; stroke-width: 0.8; stroke-linecap: square"/>
     </g>
     <g id="line2d_24">
      <g>
       <use xlink:href="#mc7915ea83f" x="42.620313" y="87.21039" style="stroke: #000000; stroke-width: 0.8"/>
      </g>
     </g>
     <g id="text_13">
      <!-- 3 -->
      <g transform="translate(29.257813 91.009608)scale(0.1 -0.1)">
       <use xlink:href="#DejaVuSans-33"/>
      </g>
     </g>
    </g>
    <g id="ytick_6">
     <g id="line2d_25">
      <path d="M 42.620313 58.971429 
L 377.420313 58.971429 
" clip-path="url(#pe0d92c3a04)" style="fill: none; stroke: #b0b0b0; stroke-width: 0.8; stroke-linecap: square"/>
     </g>
     <g id="line2d_26">
      <g>
       <use xlink:href="#mc7915ea83f" x="42.620313" y="58.971429" style="stroke: #000000; stroke-width: 0.8"/>
      </g>
     </g>
     <g id="text_14">
      <!-- 4 -->
      <g transform="translate(29.257813 62.770647)scale(0.1 -0.1)">
       <use xlink:href="#DejaVuSans-34"/>
      </g>
     </g>
    </g>
    <g id="ytick_7">
     <g id="line2d_27">
      <path d="M 42.620313 30.732468 
L 377.420313 30.732468 
" clip-path="url(#pe0d92c3a04)" style="fill: none; stroke: #b0b0b0; stroke-width: 0.8; stroke-linecap: square"/>
     </g>
     <g id="line2d_28">
      <g>
       <use xlink:href="#mc7915ea83f" x="42.620313" y="30.732468" style="stroke: #000000; stroke-width: 0.8"/>
      </g>
     </g>
     <g id="text_15">
      <!-- 5 -->
      <g transform="translate(29.257813 34.531686)scale(0.1 -0.1)">
       <use xlink:href="#DejaVuSans-35"/>
      </g>
     </g>
    </g>
    <g id="text_16">
     <!-- Difference -->
     <g transform="translate(14.798438 141.77)rotate(-90)scale(0.1 -0.1)">
      <defs>
       <path id="DejaVuSans-44" d="M 1259 4147 
L 1259 519 
L 2022 519 
Q 2988 519 3436 956 
Q 3884 1394 3884 2338 
Q 3884 3275 3436 3711 
Q 2988 4147 2022 4147 
L 1259 4147 
z
M 628 4666 
L 1925 4666 
Q 3281 4666 3915 4102 
Q 4550 3538 4550 2338 
Q 4550 1131 3912 565 
Q 3275 0 1925 0 
L 628 0 
L 628 4666 
z
" transform="scale(0.015625)"/>
       <path id="DejaVuSans-66" d="M 2375 4863 
L 2375 4384 
L 1825 4384 
Q 1516 4384 1395 4259 
Q 1275 4134 1275 3809 
L 1275 3500 
L 2222 3500 
L 2222 3053 
L 1275 3053 
L 1275 0 
L 697 0 
L 697 3053 
L 147 3053 
L 147 3500 
L 697 3500 
L 697 3744 
Q 697 4328 969 4595 
Q 1241 4863 1831 4863 
L 2375 4863 
z
" transform="scale(0.015625)"/>
       <path id="DejaVuSans-72" d="M 2631 2963 
Q 2534 3019 2420 3045 
Q 2306 3072 2169 3072 
Q 1681 3072 1420 2755 
Q 1159 2438 1159 1844 
L 1159 0 
L 581 0 
L 581 3500 
L 1159 3500 
L 1159 2956 
Q 1341 3275 1631 3429 
Q 1922 3584 2338 3584 
Q 2397 3584 2469 3576 
Q 2541 3569 2628 3553 
L 2631 2963 
z
" transform="scale(0.015625)"/>
       <path id="DejaVuSans-63" d="M 3122 3366 
L 3122 2828 
Q 2878 2963 2633 3030 
Q 2388 3097 2138 3097 
Q 1578 3097 1268 2742 
Q 959 2388 959 1747 
Q 959 1106 1268 751 
Q 1578 397 2138 397 
Q 2388 397 2633 464 
Q 2878 531 3122 666 
L 3122 134 
Q 2881 22 2623 -34 
Q 2366 -91 2075 -91 
Q 1284 -91 818 406 
Q 353 903 353 1747 
Q 353 2603 823 3093 
Q 1294 3584 2113 3584 
Q 2378 3584 2631 3529 
Q 2884 3475 3122 3366 
z
" transform="scale(0.015625)"/>
      </defs>
      <use xlink:href="#DejaVuSans-44"/>
      <use xlink:href="#DejaVuSans-69" x="77.001953"/>
      <use xlink:href="#DejaVuSans-66" x="104.785156"/>
      <use xlink:href="#DejaVuSans-66" x="139.990234"/>
      <use xlink:href="#DejaVuSans-65" x="175.195312"/>
      <use xlink:href="#DejaVuSans-72" x="236.71875"/>
      <use xlink:href="#DejaVuSans-65" x="275.582031"/>
      <use xlink:href="#DejaVuSans-6e" x="337.105469"/>
      <use xlink:href="#DejaVuSans-63" x="400.484375"/>
      <use xlink:href="#DejaVuSans-65" x="455.464844"/>
     </g>
    </g>
   </g>
   <g id="line2d_29">
    <defs>
     <path id="m002d6dd279" d="M 0 1.5 
C 0.397805 1.5 0.77937 1.341951 1.06066 1.06066 
C 1.341951 0.77937 1.5 0.397805 1.5 0 
C 1.5 -0.397805 1.341951 -0.77937 1.06066 -1.06066 
C 0.77937 -1.341951 0.397805 -1.5 0 -1.5 
C -0.397805 -1.5 -0.77937 -1.341951 -1.06066 -1.06066 
C -1.341951 -0.77937 -1.5 -0.397805 -1.5 0 
C -1.5 0.397805 -1.341951 0.77937 -1.06066 1.06066 
C -0.77937 1.341951 -0.397805 1.5 0 1.5 
z
" style="stroke: #000000"/>
    </defs>
    <g clip-path="url(#pe0d92c3a04)">
     <use xlink:href="#m002d6dd279" x="57.838494" y="164.867532" style="stroke: #000000"/>
     <use xlink:href="#m002d6dd279" x="62.9972" y="80.150649" style="stroke: #000000"/>
     <use xlink:href="#m002d6dd279" x="68.155906" y="122.509091" style="stroke: #000000"/>
     <use xlink:href="#m002d6dd279" x="73.314611" y="164.867532" style="stroke: #000000"/>
     <use xlink:href="#m002d6dd279" x="78.473317" y="136.628571" style="stroke: #000000"/>
     <use xlink:href="#m002d6dd279" x="83.632023" y="150.748052" style="stroke: #000000"/>
     <use xlink:href="#m002d6dd279" x="88.790729" y="150.748052" style="stroke: #000000"/>
     <use xlink:href="#m002d6dd279" x="93.949434" y="164.867532" style="stroke: #000000"/>
     <use xlink:href="#m002d6dd279" x="99.10814" y="150.748052" style="stroke: #000000"/>
     <use xlink:href="#m002d6dd279" x="104.266846" y="136.628571" style="stroke: #000000"/>
     <use xlink:href="#m002d6dd279" x="109.425551" y="122.509091" style="stroke: #000000"/>
     <use xlink:href="#m002d6dd279" x="114.584257" y="164.867532" style="stroke: #000000"/>
     <use xlink:href="#m002d6dd279" x="119.742963" y="122.509091" style="stroke: #000000"/>
     <use xlink:href="#m002d6dd279" x="124.901668" y="108.38961" style="stroke: #000000"/>
     <use xlink:href="#m002d6dd279" x="130.060374" y="150.748052" style="stroke: #000000"/>
     <use xlink:href="#m002d6dd279" x="135.21908" y="150.748052" style="stroke: #000000"/>
     <use xlink:href="#m002d6dd279" x="140.377786" y="122.509091" style="stroke: #000000"/>
     <use xlink:href="#m002d6dd279" x="145.536491" y="150.748052" style="stroke: #000000"/>
     <use xlink:href="#m002d6dd279" x="150.695197" y="136.628571" style="stroke: #000000"/>
     <use xlink:href="#m002d6dd279" x="155.853903" y="150.748052" style="stroke: #000000"/>
     <use xlink:href="#m002d6dd279" x="161.012608" y="150.748052" style="stroke: #000000"/>
     <use xlink:href="#m002d6dd279" x="166.171314" y="164.867532" style="stroke: #000000"/>
     <use xlink:href="#m002d6dd279" x="171.33002" y="122.509091" style="stroke: #000000"/>
     <use xlink:href="#m002d6dd279" x="176.488725" y="150.748052" style="stroke: #000000"/>
     <use xlink:href="#m002d6dd279" x="181.647431" y="150.748052" style="stroke: #000000"/>
     <use xlink:href="#m002d6dd279" x="186.806137" y="136.628571" style="stroke: #000000"/>
     <use xlink:href="#m002d6dd279" x="191.964843" y="150.748052" style="stroke: #000000"/>
     <use xlink:href="#m002d6dd279" x="197.123548" y="164.867532" style="stroke: #000000"/>
     <use xlink:href="#m002d6dd279" x="202.282254" y="150.748052" style="stroke: #000000"/>
     <use xlink:href="#m002d6dd279" x="207.44096" y="80.150649" style="stroke: #000000"/>
     <use xlink:href="#m002d6dd279" x="212.599665" y="164.867532" style="stroke: #000000"/>
     <use xlink:href="#m002d6dd279" x="217.758371" y="150.748052" style="stroke: #000000"/>
     <use xlink:href="#m002d6dd279" x="222.917077" y="150.748052" style="stroke: #000000"/>
     <use xlink:href="#m002d6dd279" x="228.075782" y="108.38961" style="stroke: #000000"/>
     <use xlink:href="#m002d6dd279" x="233.234488" y="150.748052" style="stroke: #000000"/>
     <use xlink:href="#m002d6dd279" x="238.393194" y="122.509091" style="stroke: #000000"/>
     <use xlink:href="#m002d6dd279" x="243.5519" y="122.509091" style="stroke: #000000"/>
     <use xlink:href="#m002d6dd279" x="248.710605" y="150.748052" style="stroke: #000000"/>
     <use xlink:href="#m002d6dd279" x="253.869311" y="164.867532" style="stroke: #000000"/>
     <use xlink:href="#m002d6dd279" x="259.028017" y="150.748052" style="stroke: #000000"/>
     <use xlink:href="#m002d6dd279" x="264.186722" y="164.867532" style="stroke: #000000"/>
     <use xlink:href="#m002d6dd279" x="269.345428" y="150.748052" style="stroke: #000000"/>
     <use xlink:href="#m002d6dd279" x="274.504134" y="136.628571" style="stroke: #000000"/>
     <use xlink:href="#m002d6dd279" x="279.662839" y="108.38961" style="stroke: #000000"/>
     <use xlink:href="#m002d6dd279" x="284.821545" y="150.748052" style="stroke: #000000"/>
     <use xlink:href="#m002d6dd279" x="289.980251" y="122.509091" style="stroke: #000000"/>
     <use xlink:href="#m002d6dd279" x="295.138957" y="136.628571" style="stroke: #000000"/>
     <use xlink:href="#m002d6dd279" x="300.297662" y="164.867532" style="stroke: #000000"/>
     <use xlink:href="#m002d6dd279" x="305.456368" y="122.509091" style="stroke: #000000"/>
     <use xlink:href="#m002d6dd279" x="310.615074" y="136.628571" style="stroke: #000000"/>
     <use xlink:href="#m002d6dd279" x="315.773779" y="164.867532" style="stroke: #000000"/>
     <use xlink:href="#m002d6dd279" x="320.932485" y="122.509091" style="stroke: #000000"/>
     <use xlink:href="#m002d6dd279" x="326.091191" y="164.867532" style="stroke: #000000"/>
     <use xlink:href="#m002d6dd279" x="331.249896" y="164.867532" style="stroke: #000000"/>
     <use xlink:href="#m002d6dd279" x="336.408602" y="164.867532" style="stroke: #000000"/>
     <use xlink:href="#m002d6dd279" x="341.567308" y="136.628571" style="stroke: #000000"/>
     <use xlink:href="#m002d6dd279" x="346.726014" y="136.628571" style="stroke: #000000"/>
     <use xlink:href="#m002d6dd279" x="351.884719" y="108.38961" style="stroke: #000000"/>
     <use xlink:href="#m002d6dd279" x="357.043425" y="108.38961" style="stroke: #000000"/>
     <use xlink:href="#m002d6dd279" x="362.202131" y="150.748052" style="stroke: #000000"/>
    </g>
   </g>
   <g id="line2d_30">
    <defs>
     <path id="m940e11527f" d="M 0 1.5 
C 0.397805 1.5 0.77937 1.341951 1.06066 1.06066 
C 1.341951 0.77937 1.5 0.397805 1.5 0 
C 1.5 -0.397805 1.341951 -0.77937 1.06066 -1.06066 
C 0.77937 -1.341951 0.397805 -1.5 0 -1.5 
C -0.397805 -1.5 -0.77937 -1.341951 -1.06066 -1.06066 
C -1.341951 -0.77937 -1.5 -0.397805 -1.5 0 
C -1.5 0.397805 -1.341951 0.77937 -1.06066 1.06066 
C -0.77937 1.341951 -0.397805 1.5 0 1.5 
z
" style="stroke: #0000ff"/>
    </defs>
    <g clip-path="url(#pe0d92c3a04)">
     <use xlink:href="#m940e11527f" x="57.838494" y="158.278442" style="fill: #0000ff; stroke: #0000ff"/>
     <use xlink:href="#m940e11527f" x="62.9972" y="186.517403" style="fill: #0000ff; stroke: #0000ff"/>
     <use xlink:href="#m940e11527f" x="68.155906" y="73.561558" style="fill: #0000ff; stroke: #0000ff"/>
     <use xlink:href="#m940e11527f" x="73.314611" y="186.517403" style="fill: #0000ff; stroke: #0000ff"/>
     <use xlink:href="#m940e11527f" x="78.473317" y="214.756364" style="fill: #0000ff; stroke: #0000ff"/>
     <use xlink:href="#m940e11527f" x="83.632023" y="130.039481" style="fill: #0000ff; stroke: #0000ff"/>
     <use xlink:href="#m940e11527f" x="88.790729" y="158.278442" style="fill: #0000ff; stroke: #0000ff"/>
     <use xlink:href="#m940e11527f" x="93.949434" y="214.756364" style="fill: #0000ff; stroke: #0000ff"/>
     <use xlink:href="#m940e11527f" x="99.10814" y="214.756364" style="fill: #0000ff; stroke: #0000ff"/>
     <use xlink:href="#m940e11527f" x="104.266846" y="158.278442" style="fill: #0000ff; stroke: #0000ff"/>
     <use xlink:href="#m940e11527f" x="109.425551" y="186.517403" style="fill: #0000ff; stroke: #0000ff"/>
     <use xlink:href="#m940e11527f" x="114.584257" y="186.517403" style="fill: #0000ff; stroke: #0000ff"/>
     <use xlink:href="#m940e11527f" x="119.742963" y="17.083636" style="fill: #0000ff; stroke: #0000ff"/>
     <use xlink:href="#m940e11527f" x="124.901668" y="186.517403" style="fill: #0000ff; stroke: #0000ff"/>
     <use xlink:href="#m940e11527f" x="130.060374" y="158.278442" style="fill: #0000ff; stroke: #0000ff"/>
     <use xlink:href="#m940e11527f" x="135.21908" y="186.517403" style="fill: #0000ff; stroke: #0000ff"/>
     <use xlink:href="#m940e11527f" x="140.377786" y="186.517403" style="fill: #0000ff; stroke: #0000ff"/>
     <use xlink:href="#m940e11527f" x="145.536491" y="130.039481" style="fill: #0000ff; stroke: #0000ff"/>
     <use xlink:href="#m940e11527f" x="150.695197" y="158.278442" style="fill: #0000ff; stroke: #0000ff"/>
     <use xlink:href="#m940e11527f" x="155.853903" y="158.278442" style="fill: #0000ff; stroke: #0000ff"/>
     <use xlink:href="#m940e11527f" x="161.012608" y="186.517403" style="fill: #0000ff; stroke: #0000ff"/>
     <use xlink:href="#m940e11527f" x="166.171314" y="186.517403" style="fill: #0000ff; stroke: #0000ff"/>
     <use xlink:href="#m940e11527f" x="171.33002" y="214.756364" style="fill: #0000ff; stroke: #0000ff"/>
     <use xlink:href="#m940e11527f" x="176.488725" y="130.039481" style="fill: #0000ff; stroke: #0000ff"/>
     <use xlink:href="#m940e11527f" x="181.647431" y="45.322597" style="fill: #0000ff; stroke: #0000ff"/>
     <use xlink:href="#m940e11527f" x="186.806137" y="214.756364" style="fill: #0000ff; stroke: #0000ff"/>
     <use xlink:href="#m940e11527f" x="191.964843" y="158.278442" style="fill: #0000ff; stroke: #0000ff"/>
     <use xlink:href="#m940e11527f" x="197.123548" y="186.517403" style="fill: #0000ff; stroke: #0000ff"/>
     <use xlink:href="#m940e11527f" x="202.282254" y="186.517403" style="fill: #0000ff; stroke: #0000ff"/>
     <use xlink:href="#m940e11527f" x="207.44096" y="214.756364" style="fill: #0000ff; stroke: #0000ff"/>
     <use xlink:href="#m940e11527f" x="212.599665" y="186.517403" style="fill: #0000ff; stroke: #0000ff"/>
     <use xlink:href="#m940e11527f" x="217.758371" y="158.278442" style="fill: #0000ff; stroke: #0000ff"/>
     <use xlink:href="#m940e11527f" x="222.917077" y="158.278442" style="fill: #0000ff; stroke: #0000ff"/>
     <use xlink:href="#m940e11527f" x="228.075782" y="158.278442" style="fill: #0000ff; stroke: #0000ff"/>
     <use xlink:href="#m940e11527f" x="233.234488" y="130.039481" style="fill: #0000ff; stroke: #0000ff"/>
     <use xlink:href="#m940e11527f" x="238.393194" y="214.756364" style="fill: #0000ff; stroke: #0000ff"/>
     <use xlink:href="#m940e11527f" x="243.5519" y="186.517403" style="fill: #0000ff; stroke: #0000ff"/>
     <use xlink:href="#m940e11527f" x="248.710605" y="130.039481" style="fill: #0000ff; stroke: #0000ff"/>
     <use xlink:href="#m940e11527f" x="253.869311" y="186.517403" style="fill: #0000ff; stroke: #0000ff"/>
     <use xlink:href="#m940e11527f" x="259.028017" y="186.517403" style="fill: #0000ff; stroke: #0000ff"/>
     <use xlink:href="#m940e11527f" x="264.186722" y="186.517403" style="fill: #0000ff; stroke: #0000ff"/>
     <use xlink:href="#m940e11527f" x="269.345428" y="158.278442" style="fill: #0000ff; stroke: #0000ff"/>
     <use xlink:href="#m940e11527f" x="274.504134" y="186.517403" style="fill: #0000ff; stroke: #0000ff"/>
     <use xlink:href="#m940e11527f" x="279.662839" y="214.756364" style="fill: #0000ff; stroke: #0000ff"/>
     <use xlink:href="#m940e11527f" x="284.821545" y="158.278442" style="fill: #0000ff; stroke: #0000ff"/>
     <use xlink:href="#m940e11527f" x="289.980251" y="186.517403" style="fill: #0000ff; stroke: #0000ff"/>
     <use xlink:href="#m940e11527f" x="295.138957" y="101.800519" style="fill: #0000ff; stroke: #0000ff"/>
     <use xlink:href="#m940e11527f" x="300.297662" y="186.517403" style="fill: #0000ff; stroke: #0000ff"/>
     <use xlink:href="#m940e11527f" x="305.456368" y="186.517403" style="fill: #0000ff; stroke: #0000ff"/>
     <use xlink:href="#m940e11527f" x="310.615074" y="214.756364" style="fill: #0000ff; stroke: #0000ff"/>
     <use xlink:href="#m940e11527f" x="315.773779" y="214.756364" style="fill: #0000ff; stroke: #0000ff"/>
     <use xlink:href="#m940e11527f" x="320.932485" y="214.756364" style="fill: #0000ff; stroke: #0000ff"/>
     <use xlink:href="#m940e11527f" x="326.091191" y="130.039481" style="fill: #0000ff; stroke: #0000ff"/>
     <use xlink:href="#m940e11527f" x="331.249896" y="73.561558" style="fill: #0000ff; stroke: #0000ff"/>
     <use xlink:href="#m940e11527f" x="336.408602" y="214.756364" style="fill: #0000ff; stroke: #0000ff"/>
     <use xlink:href="#m940e11527f" x="341.567308" y="214.756364" style="fill: #0000ff; stroke: #0000ff"/>
     <use xlink:href="#m940e11527f" x="346.726014" y="214.756364" style="fill: #0000ff; stroke: #0000ff"/>
     <use xlink:href="#m940e11527f" x="351.884719" y="186.517403" style="fill: #0000ff; stroke: #0000ff"/>
     <use xlink:href="#m940e11527f" x="357.043425" y="214.756364" style="fill: #0000ff; stroke: #0000ff"/>
     <use xlink:href="#m940e11527f" x="362.202131" y="186.517403" style="fill: #0000ff; stroke: #0000ff"/>
    </g>
   </g>
   <g id="patch_3">
    <path d="M 42.620313 224.64 
L 42.620313 7.2 
" style="fill: none; stroke: #000000; stroke-width: 0.8; stroke-linejoin: miter; stroke-linecap: square"/>
   </g>
   <g id="patch_4">
    <path d="M 377.420313 224.64 
L 377.420313 7.2 
" style="fill: none; stroke: #000000; stroke-width: 0.8; stroke-linejoin: miter; stroke-linecap: square"/>
   </g>
   <g id="patch_5">
    <path d="M 42.620313 224.64 
L 377.420312 224.64 
" style="fill: none; stroke: #000000; stroke-width: 0.8; stroke-linejoin: miter; stroke-linecap: square"/>
   </g>
   <g id="patch_6">
    <path d="M 42.620313 7.2 
L 377.420312 7.2 
" style="fill: none; stroke: #000000; stroke-width: 0.8; stroke-linejoin: miter; stroke-linecap: square"/>
   </g>
  </g>
 </g>
 <defs>
  <clipPath id="pe0d92c3a04">
   <rect x="42.620313" y="7.2" width="334.8" height="217.44"/>
  </clipPath>
 </defs>
</svg>
