<?xml version="1.0" encoding="utf-8" standalone="no"?>
<!DOCTYPE svg PUBLIC "-//W3C//DTD SVG 1.1//EN"
  "http://www.w3.org/Graphics/SVG/1.1/DTD/svg11.dtd">
<svg xmlns:xlink="http://www.w3.org/1999/xlink" width="440.39952pt" height="296.39952pt" viewBox="0 0 440.39952 296.39952" xmlns="http://www.w3.org/2000/svg" version="1.1">
 <metadata>
  <rdf:RDF xmlns:dc="http://purl.org/dc/elements/1.1/" xmlns:cc="http://creativecommons.org/ns#" xmlns:rdf="http://www.w3.org/1999/02/22-rdf-syntax-ns#">
   <cc:Work>
    <dc:type rdf:resource="http://purl.org/dc/dcmitype/StillImage"/>
    <dc:date>2021-12-11T10:59:07.212183</dc:date>
    <dc:format>image/svg+xml</dc:format>
    <dc:creator>
     <cc:Agent>
      <dc:title>Matplotlib v3.5.0, https://matplotlib.org/</dc:title>
     </cc:Agent>
    </dc:creator>
   </cc:Work>
  </rdf:RDF>
 </metadata>
 <defs>
  <style type="text/css">*{stroke-linejoin: round; stroke-linecap: butt}</style>
 </defs>
 <g id="figure_1">
  <g id="patch_1">
   <path d="M 0 296.39952 
L 440.39952 296.39952 
L 440.39952 0 
L 0 0 
L 0 296.39952 
z
" style="fill: none"/>
  </g>
  <g id="axes_1">
   <g id="patch_2">
    <path d="M 36.465625 80.521395 
L 433.19952 80.521395 
L 433.19952 7.2 
L 36.465625 7.2 
z
" style="fill: #ffffff"/>
   </g>
   <g id="matplotlib.axis_1">
    <g id="xtick_1">
     <g id="line2d_1">
      <path d="M 66.296508 80.521395 
L 66.296508 7.2 
" clip-path="url(#p41316bab45)" style="fill: none; stroke: #b0b0b0; stroke-width: 0.8; stroke-linecap: square"/>
     </g>
     <g id="line2d_2">
      <defs>
       <path id="m9e2d1778f7" d="M 0 0 
L 0 3.5 
" style="stroke: #000000; stroke-width: 0.8"/>
      </defs>
      <g>
       <use xlink:href="#m9e2d1778f7" x="66.296508" y="80.521395" style="stroke: #000000; stroke-width: 0.8"/>
      </g>
     </g>
     <g id="text_1">
      <!-- 0 -->
      <g transform="translate(63.115258 95.119832)scale(0.1 -0.1)">
       <defs>
        <path id="DejaVuSans-30" d="M 2034 4250 
Q 1547 4250 1301 3770 
Q 1056 3291 1056 2328 
Q 1056 1369 1301 889 
Q 1547 409 2034 409 
Q 2525 409 2770 889 
Q 3016 1369 3016 2328 
Q 3016 3291 2770 3770 
Q 2525 4250 2034 4250 
z
M 2034 4750 
Q 2819 4750 3233 4129 
Q 3647 3509 3647 2328 
Q 3647 1150 3233 529 
Q 2819 -91 2034 -91 
Q 1250 -91 836 529 
Q 422 1150 422 2328 
Q 422 3509 836 4129 
Q 1250 4750 2034 4750 
z
" transform="scale(0.015625)"/>
       </defs>
       <use xlink:href="#DejaVuSans-30"/>
      </g>
     </g>
    </g>
    <g id="xtick_2">
     <g id="line2d_3">
      <path d="M 133.710934 80.521395 
L 133.710934 7.2 
" clip-path="url(#p41316bab45)" style="fill: none; stroke: #b0b0b0; stroke-width: 0.8; stroke-linecap: square"/>
     </g>
     <g id="line2d_4">
      <g>
       <use xlink:href="#m9e2d1778f7" x="133.710934" y="80.521395" style="stroke: #000000; stroke-width: 0.8"/>
      </g>
     </g>
     <g id="text_2">
      <!-- 1 -->
      <g transform="translate(130.529684 95.119832)scale(0.1 -0.1)">
       <defs>
        <path id="DejaVuSans-31" d="M 794 531 
L 1825 531 
L 1825 4091 
L 703 3866 
L 703 4441 
L 1819 4666 
L 2450 4666 
L 2450 531 
L 3481 531 
L 3481 0 
L 794 0 
L 794 531 
z
" transform="scale(0.015625)"/>
       </defs>
       <use xlink:href="#DejaVuSans-31"/>
      </g>
     </g>
    </g>
    <g id="xtick_3">
     <g id="line2d_5">
      <path d="M 201.12536 80.521395 
L 201.12536 7.2 
" clip-path="url(#p41316bab45)" style="fill: none; stroke: #b0b0b0; stroke-width: 0.8; stroke-linecap: square"/>
     </g>
     <g id="line2d_6">
      <g>
       <use xlink:href="#m9e2d1778f7" x="201.12536" y="80.521395" style="stroke: #000000; stroke-width: 0.8"/>
      </g>
     </g>
     <g id="text_3">
      <!-- 2 -->
      <g transform="translate(197.94411 95.119832)scale(0.1 -0.1)">
       <defs>
        <path id="DejaVuSans-32" d="M 1228 531 
L 3431 531 
L 3431 0 
L 469 0 
L 469 531 
Q 828 903 1448 1529 
Q 2069 2156 2228 2338 
Q 2531 2678 2651 2914 
Q 2772 3150 2772 3378 
Q 2772 3750 2511 3984 
Q 2250 4219 1831 4219 
Q 1534 4219 1204 4116 
Q 875 4013 500 3803 
L 500 4441 
Q 881 4594 1212 4672 
Q 1544 4750 1819 4750 
Q 2544 4750 2975 4387 
Q 3406 4025 3406 3419 
Q 3406 3131 3298 2873 
Q 3191 2616 2906 2266 
Q 2828 2175 2409 1742 
Q 1991 1309 1228 531 
z
" transform="scale(0.015625)"/>
       </defs>
       <use xlink:href="#DejaVuSans-32"/>
      </g>
     </g>
    </g>
    <g id="xtick_4">
     <g id="line2d_7">
      <path d="M 268.539785 80.521395 
L 268.539785 7.2 
" clip-path="url(#p41316bab45)" style="fill: none; stroke: #b0b0b0; stroke-width: 0.8; stroke-linecap: square"/>
     </g>
     <g id="line2d_8">
      <g>
       <use xlink:href="#m9e2d1778f7" x="268.539785" y="80.521395" style="stroke: #000000; stroke-width: 0.8"/>
      </g>
     </g>
     <g id="text_4">
      <!-- 3 -->
      <g transform="translate(265.358535 95.119832)scale(0.1 -0.1)">
       <defs>
        <path id="DejaVuSans-33" d="M 2597 2516 
Q 3050 2419 3304 2112 
Q 3559 1806 3559 1356 
Q 3559 666 3084 287 
Q 2609 -91 1734 -91 
Q 1441 -91 1130 -33 
Q 819 25 488 141 
L 488 750 
Q 750 597 1062 519 
Q 1375 441 1716 441 
Q 2309 441 2620 675 
Q 2931 909 2931 1356 
Q 2931 1769 2642 2001 
Q 2353 2234 1838 2234 
L 1294 2234 
L 1294 2753 
L 1863 2753 
Q 2328 2753 2575 2939 
Q 2822 3125 2822 3475 
Q 2822 3834 2567 4026 
Q 2313 4219 1838 4219 
Q 1578 4219 1281 4162 
Q 984 4106 628 3988 
L 628 4550 
Q 988 4650 1302 4700 
Q 1616 4750 1894 4750 
Q 2613 4750 3031 4423 
Q 3450 4097 3450 3541 
Q 3450 3153 3228 2886 
Q 3006 2619 2597 2516 
z
" transform="scale(0.015625)"/>
       </defs>
       <use xlink:href="#DejaVuSans-33"/>
      </g>
     </g>
    </g>
    <g id="xtick_5">
     <g id="line2d_9">
      <path d="M 335.954211 80.521395 
L 335.954211 7.2 
" clip-path="url(#p41316bab45)" style="fill: none; stroke: #b0b0b0; stroke-width: 0.8; stroke-linecap: square"/>
     </g>
     <g id="line2d_10">
      <g>
       <use xlink:href="#m9e2d1778f7" x="335.954211" y="80.521395" style="stroke: #000000; stroke-width: 0.8"/>
      </g>
     </g>
     <g id="text_5">
      <!-- 4 -->
      <g transform="translate(332.772961 95.119832)scale(0.1 -0.1)">
       <defs>
        <path id="DejaVuSans-34" d="M 2419 4116 
L 825 1625 
L 2419 1625 
L 2419 4116 
z
M 2253 4666 
L 3047 4666 
L 3047 1625 
L 3713 1625 
L 3713 1100 
L 3047 1100 
L 3047 0 
L 2419 0 
L 2419 1100 
L 313 1100 
L 313 1709 
L 2253 4666 
z
" transform="scale(0.015625)"/>
       </defs>
       <use xlink:href="#DejaVuSans-34"/>
      </g>
     </g>
    </g>
    <g id="xtick_6">
     <g id="line2d_11">
      <path d="M 403.368637 80.521395 
L 403.368637 7.2 
" clip-path="url(#p41316bab45)" style="fill: none; stroke: #b0b0b0; stroke-width: 0.8; stroke-linecap: square"/>
     </g>
     <g id="line2d_12">
      <g>
       <use xlink:href="#m9e2d1778f7" x="403.368637" y="80.521395" style="stroke: #000000; stroke-width: 0.8"/>
      </g>
     </g>
     <g id="text_6">
      <!-- 5 -->
      <g transform="translate(400.187387 95.119832)scale(0.1 -0.1)">
       <defs>
        <path id="DejaVuSans-35" d="M 691 4666 
L 3169 4666 
L 3169 4134 
L 1269 4134 
L 1269 2991 
Q 1406 3038 1543 3061 
Q 1681 3084 1819 3084 
Q 2600 3084 3056 2656 
Q 3513 2228 3513 1497 
Q 3513 744 3044 326 
Q 2575 -91 1722 -91 
Q 1428 -91 1123 -41 
Q 819 9 494 109 
L 494 744 
Q 775 591 1075 516 
Q 1375 441 1709 441 
Q 2250 441 2565 725 
Q 2881 1009 2881 1497 
Q 2881 1984 2565 2268 
Q 2250 2553 1709 2553 
Q 1456 2553 1204 2497 
Q 953 2441 691 2322 
L 691 4666 
z
" transform="scale(0.015625)"/>
       </defs>
       <use xlink:href="#DejaVuSans-35"/>
      </g>
     </g>
    </g>
   </g>
   <g id="matplotlib.axis_2">
    <g id="ytick_1">
     <g id="line2d_13">
      <path d="M 36.465625 79.667985 
L 433.19952 79.667985 
" clip-path="url(#p41316bab45)" style="fill: none; stroke: #b0b0b0; stroke-width: 0.8; stroke-linecap: square"/>
     </g>
     <g id="line2d_14">
      <defs>
       <path id="md38978fb49" d="M 0 0 
L -3.5 0 
" style="stroke: #000000; stroke-width: 0.8"/>
      </defs>
      <g>
       <use xlink:href="#md38978fb49" x="36.465625" y="79.667985" style="stroke: #000000; stroke-width: 0.8"/>
      </g>
     </g>
     <g id="text_7">
      <!-- 0.0 -->
      <g transform="translate(13.5625 83.467204)scale(0.1 -0.1)">
       <defs>
        <path id="DejaVuSans-2e" d="M 684 794 
L 1344 794 
L 1344 0 
L 684 0 
L 684 794 
z
" transform="scale(0.015625)"/>
       </defs>
       <use xlink:href="#DejaVuSans-30"/>
       <use xlink:href="#DejaVuSans-2e" x="63.623047"/>
       <use xlink:href="#DejaVuSans-30" x="95.410156"/>
      </g>
     </g>
    </g>
    <g id="ytick_2">
     <g id="line2d_15">
      <path d="M 36.465625 45.960772 
L 433.19952 45.960772 
" clip-path="url(#p41316bab45)" style="fill: none; stroke: #b0b0b0; stroke-width: 0.8; stroke-linecap: square"/>
     </g>
     <g id="line2d_16">
      <g>
       <use xlink:href="#md38978fb49" x="36.465625" y="45.960772" style="stroke: #000000; stroke-width: 0.8"/>
      </g>
     </g>
     <g id="text_8">
      <!-- 0.5 -->
      <g transform="translate(13.5625 49.759991)scale(0.1 -0.1)">
       <use xlink:href="#DejaVuSans-30"/>
       <use xlink:href="#DejaVuSans-2e" x="63.623047"/>
       <use xlink:href="#DejaVuSans-35" x="95.410156"/>
      </g>
     </g>
    </g>
    <g id="ytick_3">
     <g id="line2d_17">
      <path d="M 36.465625 12.253559 
L 433.19952 12.253559 
" clip-path="url(#p41316bab45)" style="fill: none; stroke: #b0b0b0; stroke-width: 0.8; stroke-linecap: square"/>
     </g>
     <g id="line2d_18">
      <g>
       <use xlink:href="#md38978fb49" x="36.465625" y="12.253559" style="stroke: #000000; stroke-width: 0.8"/>
      </g>
     </g>
     <g id="text_9">
      <!-- 1.0 -->
      <g transform="translate(13.5625 16.052778)scale(0.1 -0.1)">
       <use xlink:href="#DejaVuSans-31"/>
       <use xlink:href="#DejaVuSans-2e" x="63.623047"/>
       <use xlink:href="#DejaVuSans-30" x="95.410156"/>
      </g>
     </g>
    </g>
   </g>
   <g id="patch_3">
    <path d="M 54.498984 79.667985 
L 78.094033 79.667985 
L 78.094033 41.136896 
L 54.498984 41.136896 
z
" clip-path="url(#p41316bab45)" style="fill: #dcdcdc; stroke: #000000; stroke-linejoin: miter"/>
   </g>
   <g id="patch_4">
    <path d="M 121.91341 79.667985 
L 145.508459 79.667985 
L 145.508459 44.656199 
L 121.91341 44.656199 
z
" clip-path="url(#p41316bab45)" style="fill: #dcdcdc; stroke: #000000; stroke-linejoin: miter"/>
   </g>
   <g id="patch_5">
    <path d="M 189.327835 79.667985 
L 212.922884 79.667985 
L 212.922884 59.114076 
L 189.327835 59.114076 
z
" clip-path="url(#p41316bab45)" style="fill: #dcdcdc; stroke: #000000; stroke-linejoin: miter"/>
   </g>
   <g id="patch_6">
    <path d="M 256.742261 79.667985 
L 280.33731 79.667985 
L 280.33731 75.183282 
L 256.742261 75.183282 
z
" clip-path="url(#p41316bab45)" style="fill: #dcdcdc; stroke: #000000; stroke-linejoin: miter"/>
   </g>
   <g id="patch_7">
    <path d="M 324.156686 79.667985 
L 347.751735 79.667985 
L 347.751735 40.946304 
L 324.156686 40.946304 
z
" clip-path="url(#p41316bab45)" style="fill: #dcdcdc; stroke: #000000; stroke-linejoin: miter"/>
   </g>
   <g id="patch_8">
    <path d="M 391.571112 79.667985 
L 415.166161 79.667985 
L 415.166161 76.535732 
L 391.571112 76.535732 
z
" clip-path="url(#p41316bab45)" style="fill: #dcdcdc; stroke: #000000; stroke-linejoin: miter"/>
   </g>
   <g id="LineCollection_1">
    <path d="M 78.094033 70.67178 
L 78.094033 11.602011 
" clip-path="url(#p41316bab45)" style="fill: none; stroke: #000000; stroke-width: 1.5"/>
    <path d="M 145.508459 75.429807 
L 145.508459 13.882592 
" clip-path="url(#p41316bab45)" style="fill: none; stroke: #000000; stroke-width: 1.5"/>
    <path d="M 212.922884 65.879345 
L 212.922884 52.348807 
" clip-path="url(#p41316bab45)" style="fill: none; stroke: #000000; stroke-width: 1.5"/>
    <path d="M 280.33731 76.537699 
L 280.33731 73.828865 
" clip-path="url(#p41316bab45)" style="fill: none; stroke: #000000; stroke-width: 1.5"/>
    <path d="M 347.751735 70.42898 
L 347.751735 11.463628 
" clip-path="url(#p41316bab45)" style="fill: none; stroke: #000000; stroke-width: 1.5"/>
    <path d="M 415.166161 77.332008 
L 415.166161 75.739457 
" clip-path="url(#p41316bab45)" style="fill: none; stroke: #000000; stroke-width: 1.5"/>
   </g>
   <g id="line2d_19">
    <defs>
     <path id="m6ee87c59f0" d="M 1.5 0 
L -1.5 -0 
" style="stroke: #000000"/>
    </defs>
    <g clip-path="url(#p41316bab45)">
     <use xlink:href="#m6ee87c59f0" x="78.094033" y="70.67178" style="stroke: #000000"/>
     <use xlink:href="#m6ee87c59f0" x="145.508459" y="75.429807" style="stroke: #000000"/>
     <use xlink:href="#m6ee87c59f0" x="212.922884" y="65.879345" style="stroke: #000000"/>
     <use xlink:href="#m6ee87c59f0" x="280.33731" y="76.537699" style="stroke: #000000"/>
     <use xlink:href="#m6ee87c59f0" x="347.751735" y="70.42898" style="stroke: #000000"/>
     <use xlink:href="#m6ee87c59f0" x="415.166161" y="77.332008" style="stroke: #000000"/>
    </g>
   </g>
   <g id="line2d_20">
    <g clip-path="url(#p41316bab45)">
     <use xlink:href="#m6ee87c59f0" x="78.094033" y="11.602011" style="stroke: #000000"/>
     <use xlink:href="#m6ee87c59f0" x="145.508459" y="13.882592" style="stroke: #000000"/>
     <use xlink:href="#m6ee87c59f0" x="212.922884" y="52.348807" style="stroke: #000000"/>
     <use xlink:href="#m6ee87c59f0" x="280.33731" y="73.828865" style="stroke: #000000"/>
     <use xlink:href="#m6ee87c59f0" x="347.751735" y="11.463628" style="stroke: #000000"/>
     <use xlink:href="#m6ee87c59f0" x="415.166161" y="75.739457" style="stroke: #000000"/>
    </g>
   </g>
   <g id="LineCollection_2">
    <path d="M 54.498984 50.140344 
L 54.498984 32.133447 
" clip-path="url(#p41316bab45)" style="fill: none; stroke: #ff0000; stroke-width: 1.5"/>
    <path d="M 121.91341 54.037262 
L 121.91341 35.275137 
" clip-path="url(#p41316bab45)" style="fill: none; stroke: #ff0000; stroke-width: 1.5"/>
    <path d="M 189.327835 61.176408 
L 189.327835 57.051743 
" clip-path="url(#p41316bab45)" style="fill: none; stroke: #ff0000; stroke-width: 1.5"/>
    <path d="M 256.742261 75.596165 
L 256.742261 74.7704 
" clip-path="url(#p41316bab45)" style="fill: none; stroke: #ff0000; stroke-width: 1.5"/>
    <path d="M 324.156686 49.933838 
L 324.156686 31.958771 
" clip-path="url(#p41316bab45)" style="fill: none; stroke: #ff0000; stroke-width: 1.5"/>
    <path d="M 391.571112 76.77847 
L 391.571112 76.292995 
" clip-path="url(#p41316bab45)" style="fill: none; stroke: #ff0000; stroke-width: 1.5"/>
   </g>
   <g id="line2d_21">
    <defs>
     <path id="ma4d7e92c04" d="M 1.5 0 
L -1.5 -0 
" style="stroke: #ff0000"/>
    </defs>
    <g clip-path="url(#p41316bab45)">
     <use xlink:href="#ma4d7e92c04" x="54.498984" y="50.140344" style="fill: #ff0000; stroke: #ff0000"/>
     <use xlink:href="#ma4d7e92c04" x="121.91341" y="54.037262" style="fill: #ff0000; stroke: #ff0000"/>
     <use xlink:href="#ma4d7e92c04" x="189.327835" y="61.176408" style="fill: #ff0000; stroke: #ff0000"/>
     <use xlink:href="#ma4d7e92c04" x="256.742261" y="75.596165" style="fill: #ff0000; stroke: #ff0000"/>
     <use xlink:href="#ma4d7e92c04" x="324.156686" y="49.933838" style="fill: #ff0000; stroke: #ff0000"/>
     <use xlink:href="#ma4d7e92c04" x="391.571112" y="76.77847" style="fill: #ff0000; stroke: #ff0000"/>
    </g>
   </g>
   <g id="line2d_22">
    <g clip-path="url(#p41316bab45)">
     <use xlink:href="#ma4d7e92c04" x="54.498984" y="32.133447" style="fill: #ff0000; stroke: #ff0000"/>
     <use xlink:href="#ma4d7e92c04" x="121.91341" y="35.275137" style="fill: #ff0000; stroke: #ff0000"/>
     <use xlink:href="#ma4d7e92c04" x="189.327835" y="57.051743" style="fill: #ff0000; stroke: #ff0000"/>
     <use xlink:href="#ma4d7e92c04" x="256.742261" y="74.7704" style="fill: #ff0000; stroke: #ff0000"/>
     <use xlink:href="#ma4d7e92c04" x="324.156686" y="31.958771" style="fill: #ff0000; stroke: #ff0000"/>
     <use xlink:href="#ma4d7e92c04" x="391.571112" y="76.292995" style="fill: #ff0000; stroke: #ff0000"/>
    </g>
   </g>
   <g id="LineCollection_3">
    <path d="M 66.296508 68.147242 
L 66.296508 14.126549 
" clip-path="url(#p41316bab45)" style="fill: none; stroke: #0000ff; stroke-width: 1.5"/>
    <path d="M 133.710934 72.799387 
L 133.710934 16.513012 
" clip-path="url(#p41316bab45)" style="fill: none; stroke: #0000ff; stroke-width: 1.5"/>
    <path d="M 201.12536 65.301073 
L 201.12536 52.927078 
" clip-path="url(#p41316bab45)" style="fill: none; stroke: #0000ff; stroke-width: 1.5"/>
    <path d="M 268.539785 76.421929 
L 268.539785 73.944636 
" clip-path="url(#p41316bab45)" style="fill: none; stroke: #0000ff; stroke-width: 1.5"/>
    <path d="M 335.954211 67.908905 
L 335.954211 13.983703 
" clip-path="url(#p41316bab45)" style="fill: none; stroke: #0000ff; stroke-width: 1.5"/>
    <path d="M 403.368637 77.263945 
L 403.368637 75.80752 
" clip-path="url(#p41316bab45)" style="fill: none; stroke: #0000ff; stroke-width: 1.5"/>
   </g>
   <g id="line2d_23">
    <defs>
     <path id="m98517a3f14" d="M 1.5 0 
L -1.5 -0 
" style="stroke: #0000ff"/>
    </defs>
    <g clip-path="url(#p41316bab45)">
     <use xlink:href="#m98517a3f14" x="66.296508" y="68.147242" style="fill: #0000ff; stroke: #0000ff"/>
     <use xlink:href="#m98517a3f14" x="133.710934" y="72.799387" style="fill: #0000ff; stroke: #0000ff"/>
     <use xlink:href="#m98517a3f14" x="201.12536" y="65.301073" style="fill: #0000ff; stroke: #0000ff"/>
     <use xlink:href="#m98517a3f14" x="268.539785" y="76.421929" style="fill: #0000ff; stroke: #0000ff"/>
     <use xlink:href="#m98517a3f14" x="335.954211" y="67.908905" style="fill: #0000ff; stroke: #0000ff"/>
     <use xlink:href="#m98517a3f14" x="403.368637" y="77.263945" style="fill: #0000ff; stroke: #0000ff"/>
    </g>
   </g>
   <g id="line2d_24">
    <g clip-path="url(#p41316bab45)">
     <use xlink:href="#m98517a3f14" x="66.296508" y="14.126549" style="fill: #0000ff; stroke: #0000ff"/>
     <use xlink:href="#m98517a3f14" x="133.710934" y="16.513012" style="fill: #0000ff; stroke: #0000ff"/>
     <use xlink:href="#m98517a3f14" x="201.12536" y="52.927078" style="fill: #0000ff; stroke: #0000ff"/>
     <use xlink:href="#m98517a3f14" x="268.539785" y="73.944636" style="fill: #0000ff; stroke: #0000ff"/>
     <use xlink:href="#m98517a3f14" x="335.954211" y="13.983703" style="fill: #0000ff; stroke: #0000ff"/>
     <use xlink:href="#m98517a3f14" x="403.368637" y="75.80752" style="fill: #0000ff; stroke: #0000ff"/>
    </g>
   </g>
   <g id="line2d_25">
    <defs>
     <path id="m101c7adbd0" d="M 0 3 
C 0.795609 3 1.55874 2.683901 2.12132 2.12132 
C 2.683901 1.55874 3 0.795609 3 0 
C 3 -0.795609 2.683901 -1.55874 2.12132 -2.12132 
C 1.55874 -2.683901 0.795609 -3 0 -3 
C -0.795609 -3 -1.55874 -2.683901 -2.12132 -2.12132 
C -2.683901 -1.55874 -3 -0.795609 -3 0 
C -3 0.795609 -2.683901 1.55874 -2.12132 2.12132 
C -1.55874 2.683901 -0.795609 3 0 3 
z
" style="stroke: #000000"/>
    </defs>
    <g clip-path="url(#p41316bab45)">
     <use xlink:href="#m101c7adbd0" x="78.094033" y="41.136896" style="stroke: #000000"/>
     <use xlink:href="#m101c7adbd0" x="145.508459" y="44.656199" style="stroke: #000000"/>
     <use xlink:href="#m101c7adbd0" x="212.922884" y="59.114076" style="stroke: #000000"/>
     <use xlink:href="#m101c7adbd0" x="280.33731" y="75.183282" style="stroke: #000000"/>
     <use xlink:href="#m101c7adbd0" x="347.751735" y="40.946304" style="stroke: #000000"/>
     <use xlink:href="#m101c7adbd0" x="415.166161" y="76.535732" style="stroke: #000000"/>
    </g>
   </g>
   <g id="line2d_26">
    <defs>
     <path id="m79a52169fe" d="M 0 3 
C 0.795609 3 1.55874 2.683901 2.12132 2.12132 
C 2.683901 1.55874 3 0.795609 3 0 
C 3 -0.795609 2.683901 -1.55874 2.12132 -2.12132 
C 1.55874 -2.683901 0.795609 -3 0 -3 
C -0.795609 -3 -1.55874 -2.683901 -2.12132 -2.12132 
C -2.683901 -1.55874 -3 -0.795609 -3 0 
C -3 0.795609 -2.683901 1.55874 -2.12132 2.12132 
C -1.55874 2.683901 -0.795609 3 0 3 
z
" style="stroke: #ff0000"/>
    </defs>
    <g clip-path="url(#p41316bab45)">
     <use xlink:href="#m79a52169fe" x="54.498984" y="41.136896" style="fill: #ff0000; stroke: #ff0000"/>
     <use xlink:href="#m79a52169fe" x="121.91341" y="44.656199" style="fill: #ff0000; stroke: #ff0000"/>
     <use xlink:href="#m79a52169fe" x="189.327835" y="59.114076" style="fill: #ff0000; stroke: #ff0000"/>
     <use xlink:href="#m79a52169fe" x="256.742261" y="75.183282" style="fill: #ff0000; stroke: #ff0000"/>
     <use xlink:href="#m79a52169fe" x="324.156686" y="40.946304" style="fill: #ff0000; stroke: #ff0000"/>
     <use xlink:href="#m79a52169fe" x="391.571112" y="76.535732" style="fill: #ff0000; stroke: #ff0000"/>
    </g>
   </g>
   <g id="line2d_27">
    <defs>
     <path id="m8e1c549717" d="M 0 3 
C 0.795609 3 1.55874 2.683901 2.12132 2.12132 
C 2.683901 1.55874 3 0.795609 3 0 
C 3 -0.795609 2.683901 -1.55874 2.12132 -2.12132 
C 1.55874 -2.683901 0.795609 -3 0 -3 
C -0.795609 -3 -1.55874 -2.683901 -2.12132 -2.12132 
C -2.683901 -1.55874 -3 -0.795609 -3 0 
C -3 0.795609 -2.683901 1.55874 -2.12132 2.12132 
C -1.55874 2.683901 -0.795609 3 0 3 
z
" style="stroke: #0000ff"/>
    </defs>
    <g clip-path="url(#p41316bab45)">
     <use xlink:href="#m8e1c549717" x="66.296508" y="41.136896" style="fill: #0000ff; stroke: #0000ff"/>
     <use xlink:href="#m8e1c549717" x="133.710934" y="44.656199" style="fill: #0000ff; stroke: #0000ff"/>
     <use xlink:href="#m8e1c549717" x="201.12536" y="59.114076" style="fill: #0000ff; stroke: #0000ff"/>
     <use xlink:href="#m8e1c549717" x="268.539785" y="75.183282" style="fill: #0000ff; stroke: #0000ff"/>
     <use xlink:href="#m8e1c549717" x="335.954211" y="40.946304" style="fill: #0000ff; stroke: #0000ff"/>
     <use xlink:href="#m8e1c549717" x="403.368637" y="76.535732" style="fill: #0000ff; stroke: #0000ff"/>
    </g>
   </g>
   <g id="patch_9">
    <path d="M 36.465625 80.521395 
L 36.465625 7.2 
" style="fill: none; stroke: #000000; stroke-width: 0.8; stroke-linejoin: miter; stroke-linecap: square"/>
   </g>
   <g id="patch_10">
    <path d="M 433.19952 80.521395 
L 433.19952 7.2 
" style="fill: none; stroke: #000000; stroke-width: 0.8; stroke-linejoin: miter; stroke-linecap: square"/>
   </g>
   <g id="patch_11">
    <path d="M 36.465625 80.521395 
L 433.19952 80.521395 
" style="fill: none; stroke: #000000; stroke-width: 0.8; stroke-linejoin: miter; stroke-linecap: square"/>
   </g>
   <g id="patch_12">
    <path d="M 36.465625 7.2 
L 433.19952 7.2 
" style="fill: none; stroke: #000000; stroke-width: 0.8; stroke-linejoin: miter; stroke-linecap: square"/>
   </g>
  </g>
  <g id="axes_2">
   <g id="patch_13">
    <path d="M 36.465625 176.521395 
L 433.19952 176.521395 
L 433.19952 103.2 
L 36.465625 103.2 
z
" style="fill: #ffffff"/>
   </g>
   <g id="matplotlib.axis_3">
    <g id="xtick_7">
     <g id="line2d_28">
      <path d="M 44.418593 176.521395 
L 44.418593 103.2 
" clip-path="url(#pea8fa270ed)" style="fill: none; stroke: #b0b0b0; stroke-width: 0.8; stroke-linecap: square"/>
     </g>
     <g id="line2d_29">
      <g>
       <use xlink:href="#m9e2d1778f7" x="44.418593" y="176.521395" style="stroke: #000000; stroke-width: 0.8"/>
      </g>
     </g>
     <g id="text_10">
      <!-- −2 -->
      <g transform="translate(37.0475 191.119832)scale(0.1 -0.1)">
       <defs>
        <path id="DejaVuSans-2212" d="M 678 2272 
L 4684 2272 
L 4684 1741 
L 678 1741 
L 678 2272 
z
" transform="scale(0.015625)"/>
       </defs>
       <use xlink:href="#DejaVuSans-2212"/>
       <use xlink:href="#DejaVuSans-32" x="83.789062"/>
      </g>
     </g>
    </g>
    <g id="xtick_8">
     <g id="line2d_30">
      <path d="M 120.584185 176.521395 
L 120.584185 103.2 
" clip-path="url(#pea8fa270ed)" style="fill: none; stroke: #b0b0b0; stroke-width: 0.8; stroke-linecap: square"/>
     </g>
     <g id="line2d_31">
      <g>
       <use xlink:href="#m9e2d1778f7" x="120.584185" y="176.521395" style="stroke: #000000; stroke-width: 0.8"/>
      </g>
     </g>
     <g id="text_11">
      <!-- −1 -->
      <g transform="translate(113.213091 191.119832)scale(0.1 -0.1)">
       <use xlink:href="#DejaVuSans-2212"/>
       <use xlink:href="#DejaVuSans-31" x="83.789062"/>
      </g>
     </g>
    </g>
    <g id="xtick_9">
     <g id="line2d_32">
      <path d="M 196.749777 176.521395 
L 196.749777 103.2 
" clip-path="url(#pea8fa270ed)" style="fill: none; stroke: #b0b0b0; stroke-width: 0.8; stroke-linecap: square"/>
     </g>
     <g id="line2d_33">
      <g>
       <use xlink:href="#m9e2d1778f7" x="196.749777" y="176.521395" style="stroke: #000000; stroke-width: 0.8"/>
      </g>
     </g>
     <g id="text_12">
      <!-- 0 -->
      <g transform="translate(193.568527 191.119832)scale(0.1 -0.1)">
       <use xlink:href="#DejaVuSans-30"/>
      </g>
     </g>
    </g>
    <g id="xtick_10">
     <g id="line2d_34">
      <path d="M 272.915368 176.521395 
L 272.915368 103.2 
" clip-path="url(#pea8fa270ed)" style="fill: none; stroke: #b0b0b0; stroke-width: 0.8; stroke-linecap: square"/>
     </g>
     <g id="line2d_35">
      <g>
       <use xlink:href="#m9e2d1778f7" x="272.915368" y="176.521395" style="stroke: #000000; stroke-width: 0.8"/>
      </g>
     </g>
     <g id="text_13">
      <!-- 1 -->
      <g transform="translate(269.734118 191.119832)scale(0.1 -0.1)">
       <use xlink:href="#DejaVuSans-31"/>
      </g>
     </g>
    </g>
    <g id="xtick_11">
     <g id="line2d_36">
      <path d="M 349.08096 176.521395 
L 349.08096 103.2 
" clip-path="url(#pea8fa270ed)" style="fill: none; stroke: #b0b0b0; stroke-width: 0.8; stroke-linecap: square"/>
     </g>
     <g id="line2d_37">
      <g>
       <use xlink:href="#m9e2d1778f7" x="349.08096" y="176.521395" style="stroke: #000000; stroke-width: 0.8"/>
      </g>
     </g>
     <g id="text_14">
      <!-- 2 -->
      <g transform="translate(345.89971 191.119832)scale(0.1 -0.1)">
       <use xlink:href="#DejaVuSans-32"/>
      </g>
     </g>
    </g>
    <g id="xtick_12">
     <g id="line2d_38">
      <path d="M 425.246552 176.521395 
L 425.246552 103.2 
" clip-path="url(#pea8fa270ed)" style="fill: none; stroke: #b0b0b0; stroke-width: 0.8; stroke-linecap: square"/>
     </g>
     <g id="line2d_39">
      <g>
       <use xlink:href="#m9e2d1778f7" x="425.246552" y="176.521395" style="stroke: #000000; stroke-width: 0.8"/>
      </g>
     </g>
     <g id="text_15">
      <!-- 3 -->
      <g transform="translate(422.065302 191.119832)scale(0.1 -0.1)">
       <use xlink:href="#DejaVuSans-33"/>
      </g>
     </g>
    </g>
   </g>
   <g id="matplotlib.axis_4">
    <g id="ytick_4">
     <g id="line2d_40">
      <path d="M 36.465625 169.508988 
L 433.19952 169.508988 
" clip-path="url(#pea8fa270ed)" style="fill: none; stroke: #b0b0b0; stroke-width: 0.8; stroke-linecap: square"/>
     </g>
     <g id="line2d_41">
      <g>
       <use xlink:href="#md38978fb49" x="36.465625" y="169.508988" style="stroke: #000000; stroke-width: 0.8"/>
      </g>
     </g>
     <g id="text_16">
      <!-- 0.0 -->
      <g transform="translate(13.5625 173.308207)scale(0.1 -0.1)">
       <use xlink:href="#DejaVuSans-30"/>
       <use xlink:href="#DejaVuSans-2e" x="63.623047"/>
       <use xlink:href="#DejaVuSans-30" x="95.410156"/>
      </g>
     </g>
    </g>
    <g id="ytick_5">
     <g id="line2d_42">
      <path d="M 36.465625 131.426193 
L 433.19952 131.426193 
" clip-path="url(#pea8fa270ed)" style="fill: none; stroke: #b0b0b0; stroke-width: 0.8; stroke-linecap: square"/>
     </g>
     <g id="line2d_43">
      <g>
       <use xlink:href="#md38978fb49" x="36.465625" y="131.426193" style="stroke: #000000; stroke-width: 0.8"/>
      </g>
     </g>
     <g id="text_17">
      <!-- 0.5 -->
      <g transform="translate(13.5625 135.225411)scale(0.1 -0.1)">
       <use xlink:href="#DejaVuSans-30"/>
       <use xlink:href="#DejaVuSans-2e" x="63.623047"/>
       <use xlink:href="#DejaVuSans-35" x="95.410156"/>
      </g>
     </g>
    </g>
   </g>
   <g id="patch_14">
    <path d="M 183.420798 169.508988 
L 210.078755 169.508988 
L 210.078755 134.071779 
L 183.420798 134.071779 
z
" clip-path="url(#pea8fa270ed)" style="fill: #dcdcdc; stroke: #000000; stroke-linejoin: miter"/>
   </g>
   <g id="patch_15">
    <path d="M 259.58639 169.508988 
L 286.244347 169.508988 
L 286.244347 152.057681 
L 259.58639 152.057681 
z
" clip-path="url(#pea8fa270ed)" style="fill: #dcdcdc; stroke: #000000; stroke-linejoin: miter"/>
   </g>
   <g id="LineCollection_4">
    <path d="M 210.078755 162.729885 
L 210.078755 105.413674 
" clip-path="url(#pea8fa270ed)" style="fill: none; stroke: #000000; stroke-width: 1.5"/>
    <path d="M 286.244347 174.307721 
L 286.244347 129.807641 
" clip-path="url(#pea8fa270ed)" style="fill: none; stroke: #000000; stroke-width: 1.5"/>
   </g>
   <g id="line2d_44">
    <g clip-path="url(#pea8fa270ed)">
     <use xlink:href="#m6ee87c59f0" x="210.078755" y="162.729885" style="stroke: #000000"/>
     <use xlink:href="#m6ee87c59f0" x="286.244347" y="174.307721" style="stroke: #000000"/>
    </g>
   </g>
   <g id="line2d_45">
    <g clip-path="url(#pea8fa270ed)">
     <use xlink:href="#m6ee87c59f0" x="210.078755" y="105.413674" style="stroke: #000000"/>
     <use xlink:href="#m6ee87c59f0" x="286.244347" y="129.807641" style="stroke: #000000"/>
    </g>
   </g>
   <g id="LineCollection_5">
    <path d="M 183.420798 142.80795 
L 183.420798 125.335609 
" clip-path="url(#pea8fa270ed)" style="fill: none; stroke: #ff0000; stroke-width: 1.5"/>
    <path d="M 259.58639 158.840409 
L 259.58639 145.274952 
" clip-path="url(#pea8fa270ed)" style="fill: none; stroke: #ff0000; stroke-width: 1.5"/>
   </g>
   <g id="line2d_46">
    <g clip-path="url(#pea8fa270ed)">
     <use xlink:href="#ma4d7e92c04" x="183.420798" y="142.80795" style="fill: #ff0000; stroke: #ff0000"/>
     <use xlink:href="#ma4d7e92c04" x="259.58639" y="158.840409" style="fill: #ff0000; stroke: #ff0000"/>
    </g>
   </g>
   <g id="line2d_47">
    <g clip-path="url(#pea8fa270ed)">
     <use xlink:href="#ma4d7e92c04" x="183.420798" y="125.335609" style="fill: #ff0000; stroke: #ff0000"/>
     <use xlink:href="#ma4d7e92c04" x="259.58639" y="145.274952" style="fill: #ff0000; stroke: #ff0000"/>
    </g>
   </g>
   <g id="LineCollection_6">
    <path d="M 196.749777 160.280291 
L 196.749777 107.863268 
" clip-path="url(#pea8fa270ed)" style="fill: none; stroke: #0000ff; stroke-width: 1.5"/>
    <path d="M 272.915368 172.405866 
L 272.915368 131.709496 
" clip-path="url(#pea8fa270ed)" style="fill: none; stroke: #0000ff; stroke-width: 1.5"/>
   </g>
   <g id="line2d_48">
    <g clip-path="url(#pea8fa270ed)">
     <use xlink:href="#m98517a3f14" x="196.749777" y="160.280291" style="fill: #0000ff; stroke: #0000ff"/>
     <use xlink:href="#m98517a3f14" x="272.915368" y="172.405866" style="fill: #0000ff; stroke: #0000ff"/>
    </g>
   </g>
   <g id="line2d_49">
    <g clip-path="url(#pea8fa270ed)">
     <use xlink:href="#m98517a3f14" x="196.749777" y="107.863268" style="fill: #0000ff; stroke: #0000ff"/>
     <use xlink:href="#m98517a3f14" x="272.915368" y="131.709496" style="fill: #0000ff; stroke: #0000ff"/>
    </g>
   </g>
   <g id="line2d_50">
    <g clip-path="url(#pea8fa270ed)">
     <use xlink:href="#m101c7adbd0" x="210.078755" y="134.071779" style="stroke: #000000"/>
     <use xlink:href="#m101c7adbd0" x="286.244347" y="152.057681" style="stroke: #000000"/>
    </g>
   </g>
   <g id="line2d_51">
    <g clip-path="url(#pea8fa270ed)">
     <use xlink:href="#m79a52169fe" x="183.420798" y="134.071779" style="fill: #ff0000; stroke: #ff0000"/>
     <use xlink:href="#m79a52169fe" x="259.58639" y="152.057681" style="fill: #ff0000; stroke: #ff0000"/>
    </g>
   </g>
   <g id="line2d_52">
    <g clip-path="url(#pea8fa270ed)">
     <use xlink:href="#m8e1c549717" x="196.749777" y="134.071779" style="fill: #0000ff; stroke: #0000ff"/>
     <use xlink:href="#m8e1c549717" x="272.915368" y="152.057681" style="fill: #0000ff; stroke: #0000ff"/>
    </g>
   </g>
   <g id="patch_16">
    <path d="M 36.465625 176.521395 
L 36.465625 103.2 
" style="fill: none; stroke: #000000; stroke-width: 0.8; stroke-linejoin: miter; stroke-linecap: square"/>
   </g>
   <g id="patch_17">
    <path d="M 433.19952 176.521395 
L 433.19952 103.2 
" style="fill: none; stroke: #000000; stroke-width: 0.8; stroke-linejoin: miter; stroke-linecap: square"/>
   </g>
   <g id="patch_18">
    <path d="M 36.465625 176.521395 
L 433.19952 176.521395 
" style="fill: none; stroke: #000000; stroke-width: 0.8; stroke-linejoin: miter; stroke-linecap: square"/>
   </g>
   <g id="patch_19">
    <path d="M 36.465625 103.2 
L 433.19952 103.2 
" style="fill: none; stroke: #000000; stroke-width: 0.8; stroke-linejoin: miter; stroke-linecap: square"/>
   </g>
  </g>
  <g id="axes_3">
   <g id="patch_20">
    <path d="M 36.465625 272.521395 
L 433.19952 272.521395 
L 433.19952 199.2 
L 36.465625 199.2 
z
" style="fill: #ffffff"/>
   </g>
   <g id="matplotlib.axis_5">
    <g id="xtick_13">
     <g id="line2d_53">
      <path d="M 83.328862 272.521395 
L 83.328862 199.2 
" clip-path="url(#p0a428300a7)" style="fill: none; stroke: #b0b0b0; stroke-width: 0.8; stroke-linecap: square"/>
     </g>
     <g id="line2d_54">
      <g>
       <use xlink:href="#m9e2d1778f7" x="83.328862" y="272.521395" style="stroke: #000000; stroke-width: 0.8"/>
      </g>
     </g>
     <g id="text_18">
      <!-- −1.5 -->
      <g transform="translate(71.187456 287.119832)scale(0.1 -0.1)">
       <use xlink:href="#DejaVuSans-2212"/>
       <use xlink:href="#DejaVuSans-31" x="83.789062"/>
       <use xlink:href="#DejaVuSans-2e" x="147.412109"/>
       <use xlink:href="#DejaVuSans-35" x="179.199219"/>
      </g>
     </g>
    </g>
    <g id="xtick_14">
     <g id="line2d_55">
      <path d="M 133.830099 272.521395 
L 133.830099 199.2 
" clip-path="url(#p0a428300a7)" style="fill: none; stroke: #b0b0b0; stroke-width: 0.8; stroke-linecap: square"/>
     </g>
     <g id="line2d_56">
      <g>
       <use xlink:href="#m9e2d1778f7" x="133.830099" y="272.521395" style="stroke: #000000; stroke-width: 0.8"/>
      </g>
     </g>
     <g id="text_19">
      <!-- −1.0 -->
      <g transform="translate(121.688692 287.119832)scale(0.1 -0.1)">
       <use xlink:href="#DejaVuSans-2212"/>
       <use xlink:href="#DejaVuSans-31" x="83.789062"/>
       <use xlink:href="#DejaVuSans-2e" x="147.412109"/>
       <use xlink:href="#DejaVuSans-30" x="179.199219"/>
      </g>
     </g>
    </g>
    <g id="xtick_15">
     <g id="line2d_57">
      <path d="M 184.331336 272.521395 
L 184.331336 199.2 
" clip-path="url(#p0a428300a7)" style="fill: none; stroke: #b0b0b0; stroke-width: 0.8; stroke-linecap: square"/>
     </g>
     <g id="line2d_58">
      <g>
       <use xlink:href="#m9e2d1778f7" x="184.331336" y="272.521395" style="stroke: #000000; stroke-width: 0.8"/>
      </g>
     </g>
     <g id="text_20">
      <!-- −0.5 -->
      <g transform="translate(172.189929 287.119832)scale(0.1 -0.1)">
       <use xlink:href="#DejaVuSans-2212"/>
       <use xlink:href="#DejaVuSans-30" x="83.789062"/>
       <use xlink:href="#DejaVuSans-2e" x="147.412109"/>
       <use xlink:href="#DejaVuSans-35" x="179.199219"/>
      </g>
     </g>
    </g>
    <g id="xtick_16">
     <g id="line2d_59">
      <path d="M 234.832573 272.521395 
L 234.832573 199.2 
" clip-path="url(#p0a428300a7)" style="fill: none; stroke: #b0b0b0; stroke-width: 0.8; stroke-linecap: square"/>
     </g>
     <g id="line2d_60">
      <g>
       <use xlink:href="#m9e2d1778f7" x="234.832573" y="272.521395" style="stroke: #000000; stroke-width: 0.8"/>
      </g>
     </g>
     <g id="text_21">
      <!-- 0.0 -->
      <g transform="translate(226.88101 287.119832)scale(0.1 -0.1)">
       <use xlink:href="#DejaVuSans-30"/>
       <use xlink:href="#DejaVuSans-2e" x="63.623047"/>
       <use xlink:href="#DejaVuSans-30" x="95.410156"/>
      </g>
     </g>
    </g>
    <g id="xtick_17">
     <g id="line2d_61">
      <path d="M 285.333809 272.521395 
L 285.333809 199.2 
" clip-path="url(#p0a428300a7)" style="fill: none; stroke: #b0b0b0; stroke-width: 0.8; stroke-linecap: square"/>
     </g>
     <g id="line2d_62">
      <g>
       <use xlink:href="#m9e2d1778f7" x="285.333809" y="272.521395" style="stroke: #000000; stroke-width: 0.8"/>
      </g>
     </g>
     <g id="text_22">
      <!-- 0.5 -->
      <g transform="translate(277.382247 287.119832)scale(0.1 -0.1)">
       <use xlink:href="#DejaVuSans-30"/>
       <use xlink:href="#DejaVuSans-2e" x="63.623047"/>
       <use xlink:href="#DejaVuSans-35" x="95.410156"/>
      </g>
     </g>
    </g>
    <g id="xtick_18">
     <g id="line2d_63">
      <path d="M 335.835046 272.521395 
L 335.835046 199.2 
" clip-path="url(#p0a428300a7)" style="fill: none; stroke: #b0b0b0; stroke-width: 0.8; stroke-linecap: square"/>
     </g>
     <g id="line2d_64">
      <g>
       <use xlink:href="#m9e2d1778f7" x="335.835046" y="272.521395" style="stroke: #000000; stroke-width: 0.8"/>
      </g>
     </g>
     <g id="text_23">
      <!-- 1.0 -->
      <g transform="translate(327.883484 287.119832)scale(0.1 -0.1)">
       <use xlink:href="#DejaVuSans-31"/>
       <use xlink:href="#DejaVuSans-2e" x="63.623047"/>
       <use xlink:href="#DejaVuSans-30" x="95.410156"/>
      </g>
     </g>
    </g>
    <g id="xtick_19">
     <g id="line2d_65">
      <path d="M 386.336283 272.521395 
L 386.336283 199.2 
" clip-path="url(#p0a428300a7)" style="fill: none; stroke: #b0b0b0; stroke-width: 0.8; stroke-linecap: square"/>
     </g>
     <g id="line2d_66">
      <g>
       <use xlink:href="#m9e2d1778f7" x="386.336283" y="272.521395" style="stroke: #000000; stroke-width: 0.8"/>
      </g>
     </g>
     <g id="text_24">
      <!-- 1.5 -->
      <g transform="translate(378.384721 287.119832)scale(0.1 -0.1)">
       <use xlink:href="#DejaVuSans-31"/>
       <use xlink:href="#DejaVuSans-2e" x="63.623047"/>
       <use xlink:href="#DejaVuSans-35" x="95.410156"/>
      </g>
     </g>
    </g>
   </g>
   <g id="matplotlib.axis_6">
    <g id="ytick_6">
     <g id="line2d_67">
      <path d="M 36.465625 272.521395 
L 433.19952 272.521395 
" clip-path="url(#p0a428300a7)" style="fill: none; stroke: #b0b0b0; stroke-width: 0.8; stroke-linecap: square"/>
     </g>
     <g id="line2d_68">
      <g>
       <use xlink:href="#md38978fb49" x="36.465625" y="272.521395" style="stroke: #000000; stroke-width: 0.8"/>
      </g>
     </g>
     <g id="text_25">
      <!-- 0.00 -->
      <g transform="translate(7.2 276.320614)scale(0.1 -0.1)">
       <use xlink:href="#DejaVuSans-30"/>
       <use xlink:href="#DejaVuSans-2e" x="63.623047"/>
       <use xlink:href="#DejaVuSans-30" x="95.410156"/>
       <use xlink:href="#DejaVuSans-30" x="159.033203"/>
      </g>
     </g>
    </g>
    <g id="ytick_7">
     <g id="line2d_69">
      <path d="M 36.465625 247.270777 
L 433.19952 247.270777 
" clip-path="url(#p0a428300a7)" style="fill: none; stroke: #b0b0b0; stroke-width: 0.8; stroke-linecap: square"/>
     </g>
     <g id="line2d_70">
      <g>
       <use xlink:href="#md38978fb49" x="36.465625" y="247.270777" style="stroke: #000000; stroke-width: 0.8"/>
      </g>
     </g>
     <g id="text_26">
      <!-- 0.25 -->
      <g transform="translate(7.2 251.069995)scale(0.1 -0.1)">
       <use xlink:href="#DejaVuSans-30"/>
       <use xlink:href="#DejaVuSans-2e" x="63.623047"/>
       <use xlink:href="#DejaVuSans-32" x="95.410156"/>
       <use xlink:href="#DejaVuSans-35" x="159.033203"/>
      </g>
     </g>
    </g>
    <g id="ytick_8">
     <g id="line2d_71">
      <path d="M 36.465625 222.020158 
L 433.19952 222.020158 
" clip-path="url(#p0a428300a7)" style="fill: none; stroke: #b0b0b0; stroke-width: 0.8; stroke-linecap: square"/>
     </g>
     <g id="line2d_72">
      <g>
       <use xlink:href="#md38978fb49" x="36.465625" y="222.020158" style="stroke: #000000; stroke-width: 0.8"/>
      </g>
     </g>
     <g id="text_27">
      <!-- 0.50 -->
      <g transform="translate(7.2 225.819377)scale(0.1 -0.1)">
       <use xlink:href="#DejaVuSans-30"/>
       <use xlink:href="#DejaVuSans-2e" x="63.623047"/>
       <use xlink:href="#DejaVuSans-35" x="95.410156"/>
       <use xlink:href="#DejaVuSans-30" x="159.033203"/>
      </g>
     </g>
    </g>
   </g>
   <g id="patch_21">
    <path d="M 217.15714 272.521395 
L 252.508005 272.521395 
L 252.508005 237.453913 
L 217.15714 237.453913 
z
" clip-path="url(#p0a428300a7)" style="fill: #dcdcdc; stroke: #000000; stroke-linejoin: miter"/>
   </g>
   <g id="LineCollection_7">
    <path d="M 252.508005 272.216331 
L 252.508005 202.691495 
" clip-path="url(#p0a428300a7)" style="fill: none; stroke: #000000; stroke-width: 1.5"/>
   </g>
   <g id="line2d_73">
    <g clip-path="url(#p0a428300a7)">
     <use xlink:href="#m6ee87c59f0" x="252.508005" y="272.216331" style="stroke: #000000"/>
    </g>
   </g>
   <g id="line2d_74">
    <g clip-path="url(#p0a428300a7)">
     <use xlink:href="#m6ee87c59f0" x="252.508005" y="202.691495" style="stroke: #000000"/>
    </g>
   </g>
   <g id="LineCollection_8">
    <path d="M 217.15714 248.050929 
L 217.15714 226.856897 
" clip-path="url(#p0a428300a7)" style="fill: none; stroke: #ff0000; stroke-width: 1.5"/>
   </g>
   <g id="line2d_75">
    <g clip-path="url(#p0a428300a7)">
     <use xlink:href="#ma4d7e92c04" x="217.15714" y="248.050929" style="fill: #ff0000; stroke: #ff0000"/>
    </g>
   </g>
   <g id="line2d_76">
    <g clip-path="url(#p0a428300a7)">
     <use xlink:href="#ma4d7e92c04" x="217.15714" y="226.856897" style="fill: #ff0000; stroke: #ff0000"/>
    </g>
   </g>
   <g id="LineCollection_9">
    <path d="M 234.832573 269.244962 
L 234.832573 205.662864 
" clip-path="url(#p0a428300a7)" style="fill: none; stroke: #0000ff; stroke-width: 1.5"/>
   </g>
   <g id="line2d_77">
    <g clip-path="url(#p0a428300a7)">
     <use xlink:href="#m98517a3f14" x="234.832573" y="269.244962" style="fill: #0000ff; stroke: #0000ff"/>
    </g>
   </g>
   <g id="line2d_78">
    <g clip-path="url(#p0a428300a7)">
     <use xlink:href="#m98517a3f14" x="234.832573" y="205.662864" style="fill: #0000ff; stroke: #0000ff"/>
    </g>
   </g>
   <g id="line2d_79">
    <g clip-path="url(#p0a428300a7)">
     <use xlink:href="#m101c7adbd0" x="252.508005" y="237.453913" style="stroke: #000000"/>
    </g>
   </g>
   <g id="line2d_80">
    <g clip-path="url(#p0a428300a7)">
     <use xlink:href="#m79a52169fe" x="217.15714" y="237.453913" style="fill: #ff0000; stroke: #ff0000"/>
    </g>
   </g>
   <g id="line2d_81">
    <g clip-path="url(#p0a428300a7)">
     <use xlink:href="#m8e1c549717" x="234.832573" y="237.453913" style="fill: #0000ff; stroke: #0000ff"/>
    </g>
   </g>
   <g id="patch_22">
    <path d="M 36.465625 272.521395 
L 36.465625 199.2 
" style="fill: none; stroke: #000000; stroke-width: 0.8; stroke-linejoin: miter; stroke-linecap: square"/>
   </g>
   <g id="patch_23">
    <path d="M 433.19952 272.521395 
L 433.19952 199.2 
" style="fill: none; stroke: #000000; stroke-width: 0.8; stroke-linejoin: miter; stroke-linecap: square"/>
   </g>
   <g id="patch_24">
    <path d="M 36.465625 272.521395 
L 433.19952 272.521395 
" style="fill: none; stroke: #000000; stroke-width: 0.8; stroke-linejoin: miter; stroke-linecap: square"/>
   </g>
   <g id="patch_25">
    <path d="M 36.465625 199.2 
L 433.19952 199.2 
" style="fill: none; stroke: #000000; stroke-width: 0.8; stroke-linejoin: miter; stroke-linecap: square"/>
   </g>
  </g>
 </g>
 <defs>
  <clipPath id="p41316bab45">
   <rect x="36.465625" y="7.2" width="396.733895" height="73.321395"/>
  </clipPath>
  <clipPath id="pea8fa270ed">
   <rect x="36.465625" y="103.2" width="396.733895" height="73.321395"/>
  </clipPath>
  <clipPath id="p0a428300a7">
   <rect x="36.465625" y="199.2" width="396.733895" height="73.321395"/>
  </clipPath>
 </defs>
</svg>
