<?xml version="1.0" encoding="utf-8" standalone="no"?>
<!DOCTYPE svg PUBLIC "-//W3C//DTD SVG 1.1//EN"
  "http://www.w3.org/Graphics/SVG/1.1/DTD/svg11.dtd">
<svg xmlns:xlink="http://www.w3.org/1999/xlink" width="440.39952pt" height="296.39952pt" viewBox="0 0 440.39952 296.39952" xmlns="http://www.w3.org/2000/svg" version="1.1">
 <metadata>
  <rdf:RDF xmlns:dc="http://purl.org/dc/elements/1.1/" xmlns:cc="http://creativecommons.org/ns#" xmlns:rdf="http://www.w3.org/1999/02/22-rdf-syntax-ns#">
   <cc:Work>
    <dc:type rdf:resource="http://purl.org/dc/dcmitype/StillImage"/>
    <dc:date>2021-12-12T09:39:55.038386</dc:date>
    <dc:format>image/svg+xml</dc:format>
    <dc:creator>
     <cc:Agent>
      <dc:title>Matplotlib v3.5.0, https://matplotlib.org/</dc:title>
     </cc:Agent>
    </dc:creator>
   </cc:Work>
  </rdf:RDF>
 </metadata>
 <defs>
  <style type="text/css">*{stroke-linejoin: round; stroke-linecap: butt}</style>
 </defs>
 <g id="figure_1">
  <g id="patch_1">
   <path d="M 0 296.39952 
L 440.39952 296.39952 
L 440.39952 0 
L 0 0 
L 0 296.39952 
z
" style="fill: none"/>
  </g>
  <g id="axes_1">
   <g id="patch_2">
    <path d="M 30.103125 80.521395 
L 433.19952 80.521395 
L 433.19952 7.2 
L 30.103125 7.2 
z
" style="fill: #ffffff"/>
   </g>
   <g id="matplotlib.axis_1">
    <g id="xtick_1">
     <g id="line2d_1">
      <path d="M 61.251685 80.521395 
L 61.251685 7.2 
" clip-path="url(#p281864c618)" style="fill: none; stroke: #b0b0b0; stroke-width: 0.8; stroke-linecap: square"/>
     </g>
     <g id="line2d_2">
      <defs>
       <path id="m1531b2a2b1" d="M 0 0 
L 0 3.5 
" style="stroke: #000000; stroke-width: 0.8"/>
      </defs>
      <g>
       <use xlink:href="#m1531b2a2b1" x="61.251685" y="80.521395" style="stroke: #000000; stroke-width: 0.8"/>
      </g>
     </g>
     <g id="text_1">
      <!-- 0 -->
      <g transform="translate(58.070435 95.119832)scale(0.1 -0.1)">
       <defs>
        <path id="DejaVuSans-30" d="M 2034 4250 
Q 1547 4250 1301 3770 
Q 1056 3291 1056 2328 
Q 1056 1369 1301 889 
Q 1547 409 2034 409 
Q 2525 409 2770 889 
Q 3016 1369 3016 2328 
Q 3016 3291 2770 3770 
Q 2525 4250 2034 4250 
z
M 2034 4750 
Q 2819 4750 3233 4129 
Q 3647 3509 3647 2328 
Q 3647 1150 3233 529 
Q 2819 -91 2034 -91 
Q 1250 -91 836 529 
Q 422 1150 422 2328 
Q 422 3509 836 4129 
Q 1250 4750 2034 4750 
z
" transform="scale(0.015625)"/>
       </defs>
       <use xlink:href="#DejaVuSans-30"/>
      </g>
     </g>
    </g>
    <g id="xtick_2">
     <g id="line2d_3">
      <path d="M 129.41154 80.521395 
L 129.41154 7.2 
" clip-path="url(#p281864c618)" style="fill: none; stroke: #b0b0b0; stroke-width: 0.8; stroke-linecap: square"/>
     </g>
     <g id="line2d_4">
      <g>
       <use xlink:href="#m1531b2a2b1" x="129.41154" y="80.521395" style="stroke: #000000; stroke-width: 0.8"/>
      </g>
     </g>
     <g id="text_2">
      <!-- 1 -->
      <g transform="translate(126.23029 95.119832)scale(0.1 -0.1)">
       <defs>
        <path id="DejaVuSans-31" d="M 794 531 
L 1825 531 
L 1825 4091 
L 703 3866 
L 703 4441 
L 1819 4666 
L 2450 4666 
L 2450 531 
L 3481 531 
L 3481 0 
L 794 0 
L 794 531 
z
" transform="scale(0.015625)"/>
       </defs>
       <use xlink:href="#DejaVuSans-31"/>
      </g>
     </g>
    </g>
    <g id="xtick_3">
     <g id="line2d_5">
      <path d="M 197.571395 80.521395 
L 197.571395 7.2 
" clip-path="url(#p281864c618)" style="fill: none; stroke: #b0b0b0; stroke-width: 0.8; stroke-linecap: square"/>
     </g>
     <g id="line2d_6">
      <g>
       <use xlink:href="#m1531b2a2b1" x="197.571395" y="80.521395" style="stroke: #000000; stroke-width: 0.8"/>
      </g>
     </g>
     <g id="text_3">
      <!-- 2 -->
      <g transform="translate(194.390145 95.119832)scale(0.1 -0.1)">
       <defs>
        <path id="DejaVuSans-32" d="M 1228 531 
L 3431 531 
L 3431 0 
L 469 0 
L 469 531 
Q 828 903 1448 1529 
Q 2069 2156 2228 2338 
Q 2531 2678 2651 2914 
Q 2772 3150 2772 3378 
Q 2772 3750 2511 3984 
Q 2250 4219 1831 4219 
Q 1534 4219 1204 4116 
Q 875 4013 500 3803 
L 500 4441 
Q 881 4594 1212 4672 
Q 1544 4750 1819 4750 
Q 2544 4750 2975 4387 
Q 3406 4025 3406 3419 
Q 3406 3131 3298 2873 
Q 3191 2616 2906 2266 
Q 2828 2175 2409 1742 
Q 1991 1309 1228 531 
z
" transform="scale(0.015625)"/>
       </defs>
       <use xlink:href="#DejaVuSans-32"/>
      </g>
     </g>
    </g>
    <g id="xtick_4">
     <g id="line2d_7">
      <path d="M 265.73125 80.521395 
L 265.73125 7.2 
" clip-path="url(#p281864c618)" style="fill: none; stroke: #b0b0b0; stroke-width: 0.8; stroke-linecap: square"/>
     </g>
     <g id="line2d_8">
      <g>
       <use xlink:href="#m1531b2a2b1" x="265.73125" y="80.521395" style="stroke: #000000; stroke-width: 0.8"/>
      </g>
     </g>
     <g id="text_4">
      <!-- 3 -->
      <g transform="translate(262.55 95.119832)scale(0.1 -0.1)">
       <defs>
        <path id="DejaVuSans-33" d="M 2597 2516 
Q 3050 2419 3304 2112 
Q 3559 1806 3559 1356 
Q 3559 666 3084 287 
Q 2609 -91 1734 -91 
Q 1441 -91 1130 -33 
Q 819 25 488 141 
L 488 750 
Q 750 597 1062 519 
Q 1375 441 1716 441 
Q 2309 441 2620 675 
Q 2931 909 2931 1356 
Q 2931 1769 2642 2001 
Q 2353 2234 1838 2234 
L 1294 2234 
L 1294 2753 
L 1863 2753 
Q 2328 2753 2575 2939 
Q 2822 3125 2822 3475 
Q 2822 3834 2567 4026 
Q 2313 4219 1838 4219 
Q 1578 4219 1281 4162 
Q 984 4106 628 3988 
L 628 4550 
Q 988 4650 1302 4700 
Q 1616 4750 1894 4750 
Q 2613 4750 3031 4423 
Q 3450 4097 3450 3541 
Q 3450 3153 3228 2886 
Q 3006 2619 2597 2516 
z
" transform="scale(0.015625)"/>
       </defs>
       <use xlink:href="#DejaVuSans-33"/>
      </g>
     </g>
    </g>
    <g id="xtick_5">
     <g id="line2d_9">
      <path d="M 333.891105 80.521395 
L 333.891105 7.2 
" clip-path="url(#p281864c618)" style="fill: none; stroke: #b0b0b0; stroke-width: 0.8; stroke-linecap: square"/>
     </g>
     <g id="line2d_10">
      <g>
       <use xlink:href="#m1531b2a2b1" x="333.891105" y="80.521395" style="stroke: #000000; stroke-width: 0.8"/>
      </g>
     </g>
     <g id="text_5">
      <!-- 4 -->
      <g transform="translate(330.709855 95.119832)scale(0.1 -0.1)">
       <defs>
        <path id="DejaVuSans-34" d="M 2419 4116 
L 825 1625 
L 2419 1625 
L 2419 4116 
z
M 2253 4666 
L 3047 4666 
L 3047 1625 
L 3713 1625 
L 3713 1100 
L 3047 1100 
L 3047 0 
L 2419 0 
L 2419 1100 
L 313 1100 
L 313 1709 
L 2253 4666 
z
" transform="scale(0.015625)"/>
       </defs>
       <use xlink:href="#DejaVuSans-34"/>
      </g>
     </g>
    </g>
    <g id="xtick_6">
     <g id="line2d_11">
      <path d="M 402.05096 80.521395 
L 402.05096 7.2 
" clip-path="url(#p281864c618)" style="fill: none; stroke: #b0b0b0; stroke-width: 0.8; stroke-linecap: square"/>
     </g>
     <g id="line2d_12">
      <g>
       <use xlink:href="#m1531b2a2b1" x="402.05096" y="80.521395" style="stroke: #000000; stroke-width: 0.8"/>
      </g>
     </g>
     <g id="text_6">
      <!-- 5 -->
      <g transform="translate(398.86971 95.119832)scale(0.1 -0.1)">
       <defs>
        <path id="DejaVuSans-35" d="M 691 4666 
L 3169 4666 
L 3169 4134 
L 1269 4134 
L 1269 2991 
Q 1406 3038 1543 3061 
Q 1681 3084 1819 3084 
Q 2600 3084 3056 2656 
Q 3513 2228 3513 1497 
Q 3513 744 3044 326 
Q 2575 -91 1722 -91 
Q 1428 -91 1123 -41 
Q 819 9 494 109 
L 494 744 
Q 775 591 1075 516 
Q 1375 441 1709 441 
Q 2250 441 2565 725 
Q 2881 1009 2881 1497 
Q 2881 1984 2565 2268 
Q 2250 2553 1709 2553 
Q 1456 2553 1204 2497 
Q 953 2441 691 2322 
L 691 4666 
z
" transform="scale(0.015625)"/>
       </defs>
       <use xlink:href="#DejaVuSans-35"/>
      </g>
     </g>
    </g>
   </g>
   <g id="matplotlib.axis_2">
    <g id="ytick_1">
     <g id="line2d_13">
      <path d="M 30.103125 79.552508 
L 433.19952 79.552508 
" clip-path="url(#p281864c618)" style="fill: none; stroke: #b0b0b0; stroke-width: 0.8; stroke-linecap: square"/>
     </g>
     <g id="line2d_14">
      <defs>
       <path id="mc06b14b7d6" d="M 0 0 
L -3.5 0 
" style="stroke: #000000; stroke-width: 0.8"/>
      </defs>
      <g>
       <use xlink:href="#mc06b14b7d6" x="30.103125" y="79.552508" style="stroke: #000000; stroke-width: 0.8"/>
      </g>
     </g>
     <g id="text_7">
      <!-- 0.0 -->
      <g transform="translate(7.2 83.351726)scale(0.1 -0.1)">
       <defs>
        <path id="DejaVuSans-2e" d="M 684 794 
L 1344 794 
L 1344 0 
L 684 0 
L 684 794 
z
" transform="scale(0.015625)"/>
       </defs>
       <use xlink:href="#DejaVuSans-30"/>
       <use xlink:href="#DejaVuSans-2e" x="63.623047"/>
       <use xlink:href="#DejaVuSans-30" x="95.410156"/>
      </g>
     </g>
    </g>
    <g id="ytick_2">
     <g id="line2d_15">
      <path d="M 30.103125 45.442337 
L 433.19952 45.442337 
" clip-path="url(#p281864c618)" style="fill: none; stroke: #b0b0b0; stroke-width: 0.8; stroke-linecap: square"/>
     </g>
     <g id="line2d_16">
      <g>
       <use xlink:href="#mc06b14b7d6" x="30.103125" y="45.442337" style="stroke: #000000; stroke-width: 0.8"/>
      </g>
     </g>
     <g id="text_8">
      <!-- 0.5 -->
      <g transform="translate(7.2 49.241555)scale(0.1 -0.1)">
       <use xlink:href="#DejaVuSans-30"/>
       <use xlink:href="#DejaVuSans-2e" x="63.623047"/>
       <use xlink:href="#DejaVuSans-35" x="95.410156"/>
      </g>
     </g>
    </g>
    <g id="ytick_3">
     <g id="line2d_17">
      <path d="M 30.103125 11.332166 
L 433.19952 11.332166 
" clip-path="url(#p281864c618)" style="fill: none; stroke: #b0b0b0; stroke-width: 0.8; stroke-linecap: square"/>
     </g>
     <g id="line2d_18">
      <g>
       <use xlink:href="#mc06b14b7d6" x="30.103125" y="11.332166" style="stroke: #000000; stroke-width: 0.8"/>
      </g>
     </g>
     <g id="text_9">
      <!-- 1.0 -->
      <g transform="translate(7.2 15.131384)scale(0.1 -0.1)">
       <use xlink:href="#DejaVuSans-31"/>
       <use xlink:href="#DejaVuSans-2e" x="63.623047"/>
       <use xlink:href="#DejaVuSans-30" x="95.410156"/>
      </g>
     </g>
    </g>
   </g>
   <g id="LineCollection_1">
    <path d="M 73.17966 70.448756 
L 73.17966 10.672828 
" clip-path="url(#p281864c618)" style="fill: none; stroke: #000000; stroke-width: 1.5"/>
    <path d="M 141.339515 75.263663 
L 141.339515 12.980673 
" clip-path="url(#p281864c618)" style="fill: none; stroke: #000000; stroke-width: 1.5"/>
    <path d="M 209.49937 65.599029 
L 209.49937 51.906738 
" clip-path="url(#p281864c618)" style="fill: none; stroke: #000000; stroke-width: 1.5"/>
    <path d="M 277.659225 76.384801 
L 277.659225 73.643583 
" clip-path="url(#p281864c618)" style="fill: none; stroke: #000000; stroke-width: 1.5"/>
    <path d="M 345.819079 70.203054 
L 345.819079 10.532791 
" clip-path="url(#p281864c618)" style="fill: none; stroke: #000000; stroke-width: 1.5"/>
    <path d="M 413.978934 77.188604 
L 413.978934 75.577015 
" clip-path="url(#p281864c618)" style="fill: none; stroke: #000000; stroke-width: 1.5"/>
   </g>
   <g id="line2d_19">
    <defs>
     <path id="ma3e9b74e92" d="M 1.5 0 
L -1.5 -0 
" style="stroke: #000000"/>
    </defs>
    <g clip-path="url(#p281864c618)">
     <use xlink:href="#ma3e9b74e92" x="73.17966" y="70.448756" style="stroke: #000000"/>
     <use xlink:href="#ma3e9b74e92" x="141.339515" y="75.263663" style="stroke: #000000"/>
     <use xlink:href="#ma3e9b74e92" x="209.49937" y="65.599029" style="stroke: #000000"/>
     <use xlink:href="#ma3e9b74e92" x="277.659225" y="76.384801" style="stroke: #000000"/>
     <use xlink:href="#ma3e9b74e92" x="345.819079" y="70.203054" style="stroke: #000000"/>
     <use xlink:href="#ma3e9b74e92" x="413.978934" y="77.188604" style="stroke: #000000"/>
    </g>
   </g>
   <g id="line2d_20">
    <g clip-path="url(#p281864c618)">
     <use xlink:href="#ma3e9b74e92" x="73.17966" y="10.672828" style="stroke: #000000"/>
     <use xlink:href="#ma3e9b74e92" x="141.339515" y="12.980673" style="stroke: #000000"/>
     <use xlink:href="#ma3e9b74e92" x="209.49937" y="51.906738" style="stroke: #000000"/>
     <use xlink:href="#ma3e9b74e92" x="277.659225" y="73.643583" style="stroke: #000000"/>
     <use xlink:href="#ma3e9b74e92" x="345.819079" y="10.532791" style="stroke: #000000"/>
     <use xlink:href="#ma3e9b74e92" x="413.978934" y="75.577015" style="stroke: #000000"/>
    </g>
   </g>
   <g id="LineCollection_2">
    <path d="M 49.323711 49.671874 
L 49.323711 31.44971 
" clip-path="url(#p281864c618)" style="fill: none; stroke: #ff0000; stroke-width: 1.5"/>
    <path d="M 117.483566 53.615378 
L 117.483566 34.628958 
" clip-path="url(#p281864c618)" style="fill: none; stroke: #ff0000; stroke-width: 1.5"/>
    <path d="M 185.64342 60.83987 
L 185.64342 56.665896 
" clip-path="url(#p281864c618)" style="fill: none; stroke: #ff0000; stroke-width: 1.5"/>
    <path d="M 253.803275 75.43201 
L 253.803275 74.596374 
" clip-path="url(#p281864c618)" style="fill: none; stroke: #ff0000; stroke-width: 1.5"/>
    <path d="M 321.96313 49.462899 
L 321.96313 31.272946 
" clip-path="url(#p281864c618)" style="fill: none; stroke: #ff0000; stroke-width: 1.5"/>
    <path d="M 390.122985 76.628449 
L 390.122985 76.137171 
" clip-path="url(#p281864c618)" style="fill: none; stroke: #ff0000; stroke-width: 1.5"/>
   </g>
   <g id="line2d_21">
    <defs>
     <path id="mfc6ea5cd0b" d="M 1.5 0 
L -1.5 -0 
" style="stroke: #ff0000"/>
    </defs>
    <g clip-path="url(#p281864c618)">
     <use xlink:href="#mfc6ea5cd0b" x="49.323711" y="49.671874" style="fill: #ff0000; stroke: #ff0000"/>
     <use xlink:href="#mfc6ea5cd0b" x="117.483566" y="53.615378" style="fill: #ff0000; stroke: #ff0000"/>
     <use xlink:href="#mfc6ea5cd0b" x="185.64342" y="60.83987" style="fill: #ff0000; stroke: #ff0000"/>
     <use xlink:href="#mfc6ea5cd0b" x="253.803275" y="75.43201" style="fill: #ff0000; stroke: #ff0000"/>
     <use xlink:href="#mfc6ea5cd0b" x="321.96313" y="49.462899" style="fill: #ff0000; stroke: #ff0000"/>
     <use xlink:href="#mfc6ea5cd0b" x="390.122985" y="76.628449" style="fill: #ff0000; stroke: #ff0000"/>
    </g>
   </g>
   <g id="line2d_22">
    <g clip-path="url(#p281864c618)">
     <use xlink:href="#mfc6ea5cd0b" x="49.323711" y="31.44971" style="fill: #ff0000; stroke: #ff0000"/>
     <use xlink:href="#mfc6ea5cd0b" x="117.483566" y="34.628958" style="fill: #ff0000; stroke: #ff0000"/>
     <use xlink:href="#mfc6ea5cd0b" x="185.64342" y="56.665896" style="fill: #ff0000; stroke: #ff0000"/>
     <use xlink:href="#mfc6ea5cd0b" x="253.803275" y="74.596374" style="fill: #ff0000; stroke: #ff0000"/>
     <use xlink:href="#mfc6ea5cd0b" x="321.96313" y="31.272946" style="fill: #ff0000; stroke: #ff0000"/>
     <use xlink:href="#mfc6ea5cd0b" x="390.122985" y="76.137171" style="fill: #ff0000; stroke: #ff0000"/>
    </g>
   </g>
   <g id="LineCollection_3">
    <path d="M 61.251685 67.894038 
L 61.251685 13.227546 
" clip-path="url(#p281864c618)" style="fill: none; stroke: #0000ff; stroke-width: 1.5"/>
    <path d="M 129.41154 72.601798 
L 129.41154 15.642539 
" clip-path="url(#p281864c618)" style="fill: none; stroke: #0000ff; stroke-width: 1.5"/>
    <path d="M 197.571395 65.013844 
L 197.571395 52.491922 
" clip-path="url(#p281864c618)" style="fill: none; stroke: #0000ff; stroke-width: 1.5"/>
    <path d="M 265.73125 76.267646 
L 265.73125 73.760738 
" clip-path="url(#p281864c618)" style="fill: none; stroke: #0000ff; stroke-width: 1.5"/>
    <path d="M 333.891105 67.652852 
L 333.891105 13.082993 
" clip-path="url(#p281864c618)" style="fill: none; stroke: #0000ff; stroke-width: 1.5"/>
    <path d="M 402.05096 77.119728 
L 402.05096 75.645892 
" clip-path="url(#p281864c618)" style="fill: none; stroke: #0000ff; stroke-width: 1.5"/>
   </g>
   <g id="line2d_23">
    <defs>
     <path id="m122ee1e90a" d="M 1.5 0 
L -1.5 -0 
" style="stroke: #0000ff"/>
    </defs>
    <g clip-path="url(#p281864c618)">
     <use xlink:href="#m122ee1e90a" x="61.251685" y="67.894038" style="fill: #0000ff; stroke: #0000ff"/>
     <use xlink:href="#m122ee1e90a" x="129.41154" y="72.601798" style="fill: #0000ff; stroke: #0000ff"/>
     <use xlink:href="#m122ee1e90a" x="197.571395" y="65.013844" style="fill: #0000ff; stroke: #0000ff"/>
     <use xlink:href="#m122ee1e90a" x="265.73125" y="76.267646" style="fill: #0000ff; stroke: #0000ff"/>
     <use xlink:href="#m122ee1e90a" x="333.891105" y="67.652852" style="fill: #0000ff; stroke: #0000ff"/>
     <use xlink:href="#m122ee1e90a" x="402.05096" y="77.119728" style="fill: #0000ff; stroke: #0000ff"/>
    </g>
   </g>
   <g id="line2d_24">
    <g clip-path="url(#p281864c618)">
     <use xlink:href="#m122ee1e90a" x="61.251685" y="13.227546" style="fill: #0000ff; stroke: #0000ff"/>
     <use xlink:href="#m122ee1e90a" x="129.41154" y="15.642539" style="fill: #0000ff; stroke: #0000ff"/>
     <use xlink:href="#m122ee1e90a" x="197.571395" y="52.491922" style="fill: #0000ff; stroke: #0000ff"/>
     <use xlink:href="#m122ee1e90a" x="265.73125" y="73.760738" style="fill: #0000ff; stroke: #0000ff"/>
     <use xlink:href="#m122ee1e90a" x="333.891105" y="13.082993" style="fill: #0000ff; stroke: #0000ff"/>
     <use xlink:href="#m122ee1e90a" x="402.05096" y="75.645892" style="fill: #0000ff; stroke: #0000ff"/>
    </g>
   </g>
   <g id="line2d_25">
    <defs>
     <path id="mc01607a393" d="M 0 3 
C 0.795609 3 1.55874 2.683901 2.12132 2.12132 
C 2.683901 1.55874 3 0.795609 3 0 
C 3 -0.795609 2.683901 -1.55874 2.12132 -2.12132 
C 1.55874 -2.683901 0.795609 -3 0 -3 
C -0.795609 -3 -1.55874 -2.683901 -2.12132 -2.12132 
C -2.683901 -1.55874 -3 -0.795609 -3 0 
C -3 0.795609 -2.683901 1.55874 -2.12132 2.12132 
C -1.55874 2.683901 -0.795609 3 0 3 
z
" style="stroke: #000000"/>
    </defs>
    <g clip-path="url(#p281864c618)">
     <use xlink:href="#mc01607a393" x="73.17966" y="40.560792" style="stroke: #000000"/>
     <use xlink:href="#mc01607a393" x="141.339515" y="44.122168" style="stroke: #000000"/>
     <use xlink:href="#mc01607a393" x="209.49937" y="58.752883" style="stroke: #000000"/>
     <use xlink:href="#mc01607a393" x="277.659225" y="75.014192" style="stroke: #000000"/>
     <use xlink:href="#mc01607a393" x="345.819079" y="40.367922" style="stroke: #000000"/>
     <use xlink:href="#mc01607a393" x="413.978934" y="76.38281" style="stroke: #000000"/>
    </g>
   </g>
   <g id="line2d_26">
    <defs>
     <path id="m20be87708b" d="M 0 3 
C 0.795609 3 1.55874 2.683901 2.12132 2.12132 
C 2.683901 1.55874 3 0.795609 3 0 
C 3 -0.795609 2.683901 -1.55874 2.12132 -2.12132 
C 1.55874 -2.683901 0.795609 -3 0 -3 
C -0.795609 -3 -1.55874 -2.683901 -2.12132 -2.12132 
C -2.683901 -1.55874 -3 -0.795609 -3 0 
C -3 0.795609 -2.683901 1.55874 -2.12132 2.12132 
C -1.55874 2.683901 -0.795609 3 0 3 
z
" style="stroke: #ff0000"/>
    </defs>
    <g clip-path="url(#p281864c618)">
     <use xlink:href="#m20be87708b" x="49.323711" y="40.560792" style="fill: #ff0000; stroke: #ff0000"/>
     <use xlink:href="#m20be87708b" x="117.483566" y="44.122168" style="fill: #ff0000; stroke: #ff0000"/>
     <use xlink:href="#m20be87708b" x="185.64342" y="58.752883" style="fill: #ff0000; stroke: #ff0000"/>
     <use xlink:href="#m20be87708b" x="253.803275" y="75.014192" style="fill: #ff0000; stroke: #ff0000"/>
     <use xlink:href="#m20be87708b" x="321.96313" y="40.367922" style="fill: #ff0000; stroke: #ff0000"/>
     <use xlink:href="#m20be87708b" x="390.122985" y="76.38281" style="fill: #ff0000; stroke: #ff0000"/>
    </g>
   </g>
   <g id="line2d_27">
    <defs>
     <path id="m35f11727d4" d="M 0 3 
C 0.795609 3 1.55874 2.683901 2.12132 2.12132 
C 2.683901 1.55874 3 0.795609 3 0 
C 3 -0.795609 2.683901 -1.55874 2.12132 -2.12132 
C 1.55874 -2.683901 0.795609 -3 0 -3 
C -0.795609 -3 -1.55874 -2.683901 -2.12132 -2.12132 
C -2.683901 -1.55874 -3 -0.795609 -3 0 
C -3 0.795609 -2.683901 1.55874 -2.12132 2.12132 
C -1.55874 2.683901 -0.795609 3 0 3 
z
" style="stroke: #0000ff"/>
    </defs>
    <g clip-path="url(#p281864c618)">
     <use xlink:href="#m35f11727d4" x="61.251685" y="40.560792" style="fill: #0000ff; stroke: #0000ff"/>
     <use xlink:href="#m35f11727d4" x="129.41154" y="44.122168" style="fill: #0000ff; stroke: #0000ff"/>
     <use xlink:href="#m35f11727d4" x="197.571395" y="58.752883" style="fill: #0000ff; stroke: #0000ff"/>
     <use xlink:href="#m35f11727d4" x="265.73125" y="75.014192" style="fill: #0000ff; stroke: #0000ff"/>
     <use xlink:href="#m35f11727d4" x="333.891105" y="40.367922" style="fill: #0000ff; stroke: #0000ff"/>
     <use xlink:href="#m35f11727d4" x="402.05096" y="76.38281" style="fill: #0000ff; stroke: #0000ff"/>
    </g>
   </g>
   <g id="patch_3">
    <path d="M 30.103125 80.521395 
L 30.103125 7.2 
" style="fill: none; stroke: #000000; stroke-width: 0.8; stroke-linejoin: miter; stroke-linecap: square"/>
   </g>
   <g id="patch_4">
    <path d="M 433.19952 80.521395 
L 433.19952 7.2 
" style="fill: none; stroke: #000000; stroke-width: 0.8; stroke-linejoin: miter; stroke-linecap: square"/>
   </g>
   <g id="patch_5">
    <path d="M 30.103125 80.521395 
L 433.19952 80.521395 
" style="fill: none; stroke: #000000; stroke-width: 0.8; stroke-linejoin: miter; stroke-linecap: square"/>
   </g>
   <g id="patch_6">
    <path d="M 30.103125 7.2 
L 433.19952 7.2 
" style="fill: none; stroke: #000000; stroke-width: 0.8; stroke-linejoin: miter; stroke-linecap: square"/>
   </g>
  </g>
  <g id="axes_2">
   <g id="patch_7">
    <path d="M 30.103125 176.521395 
L 433.19952 176.521395 
L 433.19952 103.2 
L 30.103125 103.2 
z
" style="fill: #ffffff"/>
   </g>
   <g id="matplotlib.axis_3">
    <g id="xtick_7">
     <g id="line2d_28">
      <path d="M 47.586866 176.521395 
L 47.586866 103.2 
" clip-path="url(#pcb0a4d9f36)" style="fill: none; stroke: #b0b0b0; stroke-width: 0.8; stroke-linecap: square"/>
     </g>
     <g id="line2d_29">
      <g>
       <use xlink:href="#m1531b2a2b1" x="47.586866" y="176.521395" style="stroke: #000000; stroke-width: 0.8"/>
      </g>
     </g>
     <g id="text_10">
      <!-- −2 -->
      <g transform="translate(40.215772 191.119832)scale(0.1 -0.1)">
       <defs>
        <path id="DejaVuSans-2212" d="M 678 2272 
L 4684 2272 
L 4684 1741 
L 678 1741 
L 678 2272 
z
" transform="scale(0.015625)"/>
       </defs>
       <use xlink:href="#DejaVuSans-2212"/>
       <use xlink:href="#DejaVuSans-32" x="83.789062"/>
      </g>
     </g>
    </g>
    <g id="xtick_8">
     <g id="line2d_30">
      <path d="M 121.212649 176.521395 
L 121.212649 103.2 
" clip-path="url(#pcb0a4d9f36)" style="fill: none; stroke: #b0b0b0; stroke-width: 0.8; stroke-linecap: square"/>
     </g>
     <g id="line2d_31">
      <g>
       <use xlink:href="#m1531b2a2b1" x="121.212649" y="176.521395" style="stroke: #000000; stroke-width: 0.8"/>
      </g>
     </g>
     <g id="text_11">
      <!-- −1 -->
      <g transform="translate(113.841555 191.119832)scale(0.1 -0.1)">
       <use xlink:href="#DejaVuSans-2212"/>
       <use xlink:href="#DejaVuSans-31" x="83.789062"/>
      </g>
     </g>
    </g>
    <g id="xtick_9">
     <g id="line2d_32">
      <path d="M 194.838431 176.521395 
L 194.838431 103.2 
" clip-path="url(#pcb0a4d9f36)" style="fill: none; stroke: #b0b0b0; stroke-width: 0.8; stroke-linecap: square"/>
     </g>
     <g id="line2d_33">
      <g>
       <use xlink:href="#m1531b2a2b1" x="194.838431" y="176.521395" style="stroke: #000000; stroke-width: 0.8"/>
      </g>
     </g>
     <g id="text_12">
      <!-- 0 -->
      <g transform="translate(191.657181 191.119832)scale(0.1 -0.1)">
       <use xlink:href="#DejaVuSans-30"/>
      </g>
     </g>
    </g>
    <g id="xtick_10">
     <g id="line2d_34">
      <path d="M 268.464214 176.521395 
L 268.464214 103.2 
" clip-path="url(#pcb0a4d9f36)" style="fill: none; stroke: #b0b0b0; stroke-width: 0.8; stroke-linecap: square"/>
     </g>
     <g id="line2d_35">
      <g>
       <use xlink:href="#m1531b2a2b1" x="268.464214" y="176.521395" style="stroke: #000000; stroke-width: 0.8"/>
      </g>
     </g>
     <g id="text_13">
      <!-- 1 -->
      <g transform="translate(265.282964 191.119832)scale(0.1 -0.1)">
       <use xlink:href="#DejaVuSans-31"/>
      </g>
     </g>
    </g>
    <g id="xtick_11">
     <g id="line2d_36">
      <path d="M 342.089996 176.521395 
L 342.089996 103.2 
" clip-path="url(#pcb0a4d9f36)" style="fill: none; stroke: #b0b0b0; stroke-width: 0.8; stroke-linecap: square"/>
     </g>
     <g id="line2d_37">
      <g>
       <use xlink:href="#m1531b2a2b1" x="342.089996" y="176.521395" style="stroke: #000000; stroke-width: 0.8"/>
      </g>
     </g>
     <g id="text_14">
      <!-- 2 -->
      <g transform="translate(338.908746 191.119832)scale(0.1 -0.1)">
       <use xlink:href="#DejaVuSans-32"/>
      </g>
     </g>
    </g>
    <g id="xtick_12">
     <g id="line2d_38">
      <path d="M 415.715779 176.521395 
L 415.715779 103.2 
" clip-path="url(#pcb0a4d9f36)" style="fill: none; stroke: #b0b0b0; stroke-width: 0.8; stroke-linecap: square"/>
     </g>
     <g id="line2d_39">
      <g>
       <use xlink:href="#m1531b2a2b1" x="415.715779" y="176.521395" style="stroke: #000000; stroke-width: 0.8"/>
      </g>
     </g>
     <g id="text_15">
      <!-- 3 -->
      <g transform="translate(412.534529 191.119832)scale(0.1 -0.1)">
       <use xlink:href="#DejaVuSans-33"/>
      </g>
     </g>
    </g>
   </g>
   <g id="matplotlib.axis_4">
    <g id="ytick_4">
     <g id="line2d_40">
      <path d="M 30.103125 168.545773 
L 433.19952 168.545773 
" clip-path="url(#pcb0a4d9f36)" style="fill: none; stroke: #b0b0b0; stroke-width: 0.8; stroke-linecap: square"/>
     </g>
     <g id="line2d_41">
      <g>
       <use xlink:href="#mc06b14b7d6" x="30.103125" y="168.545773" style="stroke: #000000; stroke-width: 0.8"/>
      </g>
     </g>
     <g id="text_16">
      <!-- 0.0 -->
      <g transform="translate(7.2 172.344992)scale(0.1 -0.1)">
       <use xlink:href="#DejaVuSans-30"/>
       <use xlink:href="#DejaVuSans-2e" x="63.623047"/>
       <use xlink:href="#DejaVuSans-30" x="95.410156"/>
      </g>
     </g>
    </g>
    <g id="ytick_5">
     <g id="line2d_42">
      <path d="M 30.103125 131.700213 
L 433.19952 131.700213 
" clip-path="url(#pcb0a4d9f36)" style="fill: none; stroke: #b0b0b0; stroke-width: 0.8; stroke-linecap: square"/>
     </g>
     <g id="line2d_43">
      <g>
       <use xlink:href="#mc06b14b7d6" x="30.103125" y="131.700213" style="stroke: #000000; stroke-width: 0.8"/>
      </g>
     </g>
     <g id="text_17">
      <!-- 0.5 -->
      <g transform="translate(7.2 135.499432)scale(0.1 -0.1)">
       <use xlink:href="#DejaVuSans-30"/>
       <use xlink:href="#DejaVuSans-2e" x="63.623047"/>
       <use xlink:href="#DejaVuSans-35" x="95.410156"/>
      </g>
     </g>
    </g>
   </g>
   <g id="LineCollection_4">
    <path d="M 207.722943 161.98691 
L 207.722943 106.532791 
" clip-path="url(#pcb0a4d9f36)" style="fill: none; stroke: #000000; stroke-width: 1.5"/>
    <path d="M 281.348726 173.188604 
L 281.348726 130.134245 
" clip-path="url(#pcb0a4d9f36)" style="fill: none; stroke: #000000; stroke-width: 1.5"/>
   </g>
   <g id="line2d_44">
    <g clip-path="url(#pcb0a4d9f36)">
     <use xlink:href="#ma3e9b74e92" x="207.722943" y="161.98691" style="stroke: #000000"/>
     <use xlink:href="#ma3e9b74e92" x="281.348726" y="173.188604" style="stroke: #000000"/>
    </g>
   </g>
   <g id="line2d_45">
    <g clip-path="url(#pcb0a4d9f36)">
     <use xlink:href="#ma3e9b74e92" x="207.722943" y="106.532791" style="stroke: #000000"/>
     <use xlink:href="#ma3e9b74e92" x="281.348726" y="130.134245" style="stroke: #000000"/>
    </g>
   </g>
   <g id="LineCollection_5">
    <path d="M 181.953919 142.712199 
L 181.953919 125.807501 
" clip-path="url(#pcb0a4d9f36)" style="fill: none; stroke: #ff0000; stroke-width: 1.5"/>
    <path d="M 255.579702 158.223795 
L 255.579702 145.099054 
" clip-path="url(#pcb0a4d9f36)" style="fill: none; stroke: #ff0000; stroke-width: 1.5"/>
   </g>
   <g id="line2d_46">
    <g clip-path="url(#pcb0a4d9f36)">
     <use xlink:href="#mfc6ea5cd0b" x="181.953919" y="142.712199" style="fill: #ff0000; stroke: #ff0000"/>
     <use xlink:href="#mfc6ea5cd0b" x="255.579702" y="158.223795" style="fill: #ff0000; stroke: #ff0000"/>
    </g>
   </g>
   <g id="line2d_47">
    <g clip-path="url(#pcb0a4d9f36)">
     <use xlink:href="#mfc6ea5cd0b" x="181.953919" y="125.807501" style="fill: #ff0000; stroke: #ff0000"/>
     <use xlink:href="#mfc6ea5cd0b" x="255.579702" y="145.099054" style="fill: #ff0000; stroke: #ff0000"/>
    </g>
   </g>
   <g id="LineCollection_6">
    <path d="M 194.838431 159.616898 
L 194.838431 108.902802 
" clip-path="url(#pcb0a4d9f36)" style="fill: none; stroke: #0000ff; stroke-width: 1.5"/>
    <path d="M 268.464214 171.348537 
L 268.464214 131.974312 
" clip-path="url(#pcb0a4d9f36)" style="fill: none; stroke: #0000ff; stroke-width: 1.5"/>
   </g>
   <g id="line2d_48">
    <g clip-path="url(#pcb0a4d9f36)">
     <use xlink:href="#m122ee1e90a" x="194.838431" y="159.616898" style="fill: #0000ff; stroke: #0000ff"/>
     <use xlink:href="#m122ee1e90a" x="268.464214" y="171.348537" style="fill: #0000ff; stroke: #0000ff"/>
    </g>
   </g>
   <g id="line2d_49">
    <g clip-path="url(#pcb0a4d9f36)">
     <use xlink:href="#m122ee1e90a" x="194.838431" y="108.902802" style="fill: #0000ff; stroke: #0000ff"/>
     <use xlink:href="#m122ee1e90a" x="268.464214" y="131.974312" style="fill: #0000ff; stroke: #0000ff"/>
    </g>
   </g>
   <g id="line2d_50">
    <g clip-path="url(#pcb0a4d9f36)">
     <use xlink:href="#mc01607a393" x="207.722943" y="134.25985" style="stroke: #000000"/>
     <use xlink:href="#mc01607a393" x="281.348726" y="151.661425" style="stroke: #000000"/>
    </g>
   </g>
   <g id="line2d_51">
    <g clip-path="url(#pcb0a4d9f36)">
     <use xlink:href="#m20be87708b" x="181.953919" y="134.25985" style="fill: #ff0000; stroke: #ff0000"/>
     <use xlink:href="#m20be87708b" x="255.579702" y="151.661425" style="fill: #ff0000; stroke: #ff0000"/>
    </g>
   </g>
   <g id="line2d_52">
    <g clip-path="url(#pcb0a4d9f36)">
     <use xlink:href="#m35f11727d4" x="194.838431" y="134.25985" style="fill: #0000ff; stroke: #0000ff"/>
     <use xlink:href="#m35f11727d4" x="268.464214" y="151.661425" style="fill: #0000ff; stroke: #0000ff"/>
    </g>
   </g>
   <g id="patch_8">
    <path d="M 30.103125 176.521395 
L 30.103125 103.2 
" style="fill: none; stroke: #000000; stroke-width: 0.8; stroke-linejoin: miter; stroke-linecap: square"/>
   </g>
   <g id="patch_9">
    <path d="M 433.19952 176.521395 
L 433.19952 103.2 
" style="fill: none; stroke: #000000; stroke-width: 0.8; stroke-linejoin: miter; stroke-linecap: square"/>
   </g>
   <g id="patch_10">
    <path d="M 30.103125 176.521395 
L 433.19952 176.521395 
" style="fill: none; stroke: #000000; stroke-width: 0.8; stroke-linejoin: miter; stroke-linecap: square"/>
   </g>
   <g id="patch_11">
    <path d="M 30.103125 103.2 
L 433.19952 103.2 
" style="fill: none; stroke: #000000; stroke-width: 0.8; stroke-linejoin: miter; stroke-linecap: square"/>
   </g>
  </g>
  <g id="axes_3">
   <g id="patch_12">
    <path d="M 30.103125 272.521395 
L 433.19952 272.521395 
L 433.19952 199.2 
L 30.103125 199.2 
z
" style="fill: #ffffff"/>
   </g>
   <g id="matplotlib.axis_5">
    <g id="xtick_13">
     <g id="line2d_53">
      <path d="M 38.154058 272.521395 
L 38.154058 199.2 
" clip-path="url(#p5a6fe627db)" style="fill: none; stroke: #b0b0b0; stroke-width: 0.8; stroke-linecap: square"/>
     </g>
     <g id="line2d_54">
      <g>
       <use xlink:href="#m1531b2a2b1" x="38.154058" y="272.521395" style="stroke: #000000; stroke-width: 0.8"/>
      </g>
     </g>
     <g id="text_18">
      <!-- −2.0 -->
      <g transform="translate(26.012651 287.119832)scale(0.1 -0.1)">
       <use xlink:href="#DejaVuSans-2212"/>
       <use xlink:href="#DejaVuSans-32" x="83.789062"/>
       <use xlink:href="#DejaVuSans-2e" x="147.412109"/>
       <use xlink:href="#DejaVuSans-30" x="179.199219"/>
      </g>
     </g>
    </g>
    <g id="xtick_14">
     <g id="line2d_55">
      <path d="M 86.528374 272.521395 
L 86.528374 199.2 
" clip-path="url(#p5a6fe627db)" style="fill: none; stroke: #b0b0b0; stroke-width: 0.8; stroke-linecap: square"/>
     </g>
     <g id="line2d_56">
      <g>
       <use xlink:href="#m1531b2a2b1" x="86.528374" y="272.521395" style="stroke: #000000; stroke-width: 0.8"/>
      </g>
     </g>
     <g id="text_19">
      <!-- −1.5 -->
      <g transform="translate(74.386968 287.119832)scale(0.1 -0.1)">
       <use xlink:href="#DejaVuSans-2212"/>
       <use xlink:href="#DejaVuSans-31" x="83.789062"/>
       <use xlink:href="#DejaVuSans-2e" x="147.412109"/>
       <use xlink:href="#DejaVuSans-35" x="179.199219"/>
      </g>
     </g>
    </g>
    <g id="xtick_15">
     <g id="line2d_57">
      <path d="M 134.90269 272.521395 
L 134.90269 199.2 
" clip-path="url(#p5a6fe627db)" style="fill: none; stroke: #b0b0b0; stroke-width: 0.8; stroke-linecap: square"/>
     </g>
     <g id="line2d_58">
      <g>
       <use xlink:href="#m1531b2a2b1" x="134.90269" y="272.521395" style="stroke: #000000; stroke-width: 0.8"/>
      </g>
     </g>
     <g id="text_20">
      <!-- −1.0 -->
      <g transform="translate(122.761284 287.119832)scale(0.1 -0.1)">
       <use xlink:href="#DejaVuSans-2212"/>
       <use xlink:href="#DejaVuSans-31" x="83.789062"/>
       <use xlink:href="#DejaVuSans-2e" x="147.412109"/>
       <use xlink:href="#DejaVuSans-30" x="179.199219"/>
      </g>
     </g>
    </g>
    <g id="xtick_16">
     <g id="line2d_59">
      <path d="M 183.277006 272.521395 
L 183.277006 199.2 
" clip-path="url(#p5a6fe627db)" style="fill: none; stroke: #b0b0b0; stroke-width: 0.8; stroke-linecap: square"/>
     </g>
     <g id="line2d_60">
      <g>
       <use xlink:href="#m1531b2a2b1" x="183.277006" y="272.521395" style="stroke: #000000; stroke-width: 0.8"/>
      </g>
     </g>
     <g id="text_21">
      <!-- −0.5 -->
      <g transform="translate(171.1356 287.119832)scale(0.1 -0.1)">
       <use xlink:href="#DejaVuSans-2212"/>
       <use xlink:href="#DejaVuSans-30" x="83.789062"/>
       <use xlink:href="#DejaVuSans-2e" x="147.412109"/>
       <use xlink:href="#DejaVuSans-35" x="179.199219"/>
      </g>
     </g>
    </g>
    <g id="xtick_17">
     <g id="line2d_61">
      <path d="M 231.651323 272.521395 
L 231.651323 199.2 
" clip-path="url(#p5a6fe627db)" style="fill: none; stroke: #b0b0b0; stroke-width: 0.8; stroke-linecap: square"/>
     </g>
     <g id="line2d_62">
      <g>
       <use xlink:href="#m1531b2a2b1" x="231.651323" y="272.521395" style="stroke: #000000; stroke-width: 0.8"/>
      </g>
     </g>
     <g id="text_22">
      <!-- 0.0 -->
      <g transform="translate(223.69976 287.119832)scale(0.1 -0.1)">
       <use xlink:href="#DejaVuSans-30"/>
       <use xlink:href="#DejaVuSans-2e" x="63.623047"/>
       <use xlink:href="#DejaVuSans-30" x="95.410156"/>
      </g>
     </g>
    </g>
    <g id="xtick_18">
     <g id="line2d_63">
      <path d="M 280.025639 272.521395 
L 280.025639 199.2 
" clip-path="url(#p5a6fe627db)" style="fill: none; stroke: #b0b0b0; stroke-width: 0.8; stroke-linecap: square"/>
     </g>
     <g id="line2d_64">
      <g>
       <use xlink:href="#m1531b2a2b1" x="280.025639" y="272.521395" style="stroke: #000000; stroke-width: 0.8"/>
      </g>
     </g>
     <g id="text_23">
      <!-- 0.5 -->
      <g transform="translate(272.074076 287.119832)scale(0.1 -0.1)">
       <use xlink:href="#DejaVuSans-30"/>
       <use xlink:href="#DejaVuSans-2e" x="63.623047"/>
       <use xlink:href="#DejaVuSans-35" x="95.410156"/>
      </g>
     </g>
    </g>
    <g id="xtick_19">
     <g id="line2d_65">
      <path d="M 328.399955 272.521395 
L 328.399955 199.2 
" clip-path="url(#p5a6fe627db)" style="fill: none; stroke: #b0b0b0; stroke-width: 0.8; stroke-linecap: square"/>
     </g>
     <g id="line2d_66">
      <g>
       <use xlink:href="#m1531b2a2b1" x="328.399955" y="272.521395" style="stroke: #000000; stroke-width: 0.8"/>
      </g>
     </g>
     <g id="text_24">
      <!-- 1.0 -->
      <g transform="translate(320.448392 287.119832)scale(0.1 -0.1)">
       <use xlink:href="#DejaVuSans-31"/>
       <use xlink:href="#DejaVuSans-2e" x="63.623047"/>
       <use xlink:href="#DejaVuSans-30" x="95.410156"/>
      </g>
     </g>
    </g>
    <g id="xtick_20">
     <g id="line2d_67">
      <path d="M 376.774271 272.521395 
L 376.774271 199.2 
" clip-path="url(#p5a6fe627db)" style="fill: none; stroke: #b0b0b0; stroke-width: 0.8; stroke-linecap: square"/>
     </g>
     <g id="line2d_68">
      <g>
       <use xlink:href="#m1531b2a2b1" x="376.774271" y="272.521395" style="stroke: #000000; stroke-width: 0.8"/>
      </g>
     </g>
     <g id="text_25">
      <!-- 1.5 -->
      <g transform="translate(368.822709 287.119832)scale(0.1 -0.1)">
       <use xlink:href="#DejaVuSans-31"/>
       <use xlink:href="#DejaVuSans-2e" x="63.623047"/>
       <use xlink:href="#DejaVuSans-35" x="95.410156"/>
      </g>
     </g>
    </g>
    <g id="xtick_21">
     <g id="line2d_69">
      <path d="M 425.148587 272.521395 
L 425.148587 199.2 
" clip-path="url(#p5a6fe627db)" style="fill: none; stroke: #b0b0b0; stroke-width: 0.8; stroke-linecap: square"/>
     </g>
     <g id="line2d_70">
      <g>
       <use xlink:href="#m1531b2a2b1" x="425.148587" y="272.521395" style="stroke: #000000; stroke-width: 0.8"/>
      </g>
     </g>
     <g id="text_26">
      <!-- 2.0 -->
      <g transform="translate(417.197025 287.119832)scale(0.1 -0.1)">
       <use xlink:href="#DejaVuSans-32"/>
       <use xlink:href="#DejaVuSans-2e" x="63.623047"/>
       <use xlink:href="#DejaVuSans-30" x="95.410156"/>
      </g>
     </g>
    </g>
   </g>
   <g id="matplotlib.axis_6">
    <g id="ytick_6">
     <g id="line2d_71">
      <path d="M 30.103125 269.481079 
L 433.19952 269.481079 
" clip-path="url(#p5a6fe627db)" style="fill: none; stroke: #b0b0b0; stroke-width: 0.8; stroke-linecap: square"/>
     </g>
     <g id="line2d_72">
      <g>
       <use xlink:href="#mc06b14b7d6" x="30.103125" y="269.481079" style="stroke: #000000; stroke-width: 0.8"/>
      </g>
     </g>
     <g id="text_27">
      <!-- 0.0 -->
      <g transform="translate(7.2 273.280298)scale(0.1 -0.1)">
       <use xlink:href="#DejaVuSans-30"/>
       <use xlink:href="#DejaVuSans-2e" x="63.623047"/>
       <use xlink:href="#DejaVuSans-30" x="95.410156"/>
      </g>
     </g>
    </g>
    <g id="ytick_7">
     <g id="line2d_73">
      <path d="M 30.103125 221.063834 
L 433.19952 221.063834 
" clip-path="url(#p5a6fe627db)" style="fill: none; stroke: #b0b0b0; stroke-width: 0.8; stroke-linecap: square"/>
     </g>
     <g id="line2d_74">
      <g>
       <use xlink:href="#mc06b14b7d6" x="30.103125" y="221.063834" style="stroke: #000000; stroke-width: 0.8"/>
      </g>
     </g>
     <g id="text_28">
      <!-- 0.5 -->
      <g transform="translate(7.2 224.863053)scale(0.1 -0.1)">
       <use xlink:href="#DejaVuSans-30"/>
       <use xlink:href="#DejaVuSans-2e" x="63.623047"/>
       <use xlink:href="#DejaVuSans-35" x="95.410156"/>
      </g>
     </g>
    </g>
   </g>
   <g id="LineCollection_7">
    <path d="M 248.582333 269.188604 
L 248.582333 202.532791 
" clip-path="url(#p5a6fe627db)" style="fill: none; stroke: #000000; stroke-width: 1.5"/>
   </g>
   <g id="line2d_75">
    <g clip-path="url(#p5a6fe627db)">
     <use xlink:href="#ma3e9b74e92" x="248.582333" y="269.188604" style="stroke: #000000"/>
    </g>
   </g>
   <g id="line2d_76">
    <g clip-path="url(#p5a6fe627db)">
     <use xlink:href="#ma3e9b74e92" x="248.582333" y="202.532791" style="stroke: #000000"/>
    </g>
   </g>
   <g id="LineCollection_8">
    <path d="M 214.720312 246.020416 
L 214.720312 225.700979 
" clip-path="url(#p5a6fe627db)" style="fill: none; stroke: #ff0000; stroke-width: 1.5"/>
   </g>
   <g id="line2d_77">
    <g clip-path="url(#p5a6fe627db)">
     <use xlink:href="#mfc6ea5cd0b" x="214.720312" y="246.020416" style="fill: #ff0000; stroke: #ff0000"/>
    </g>
   </g>
   <g id="line2d_78">
    <g clip-path="url(#p5a6fe627db)">
     <use xlink:href="#mfc6ea5cd0b" x="214.720312" y="225.700979" style="fill: #ff0000; stroke: #ff0000"/>
    </g>
   </g>
   <g id="LineCollection_9">
    <path d="M 231.651323 266.339852 
L 231.651323 205.381543 
" clip-path="url(#p5a6fe627db)" style="fill: none; stroke: #0000ff; stroke-width: 1.5"/>
   </g>
   <g id="line2d_79">
    <g clip-path="url(#p5a6fe627db)">
     <use xlink:href="#m122ee1e90a" x="231.651323" y="266.339852" style="fill: #0000ff; stroke: #0000ff"/>
    </g>
   </g>
   <g id="line2d_80">
    <g clip-path="url(#p5a6fe627db)">
     <use xlink:href="#m122ee1e90a" x="231.651323" y="205.381543" style="fill: #0000ff; stroke: #0000ff"/>
    </g>
   </g>
   <g id="line2d_81">
    <g clip-path="url(#p5a6fe627db)">
     <use xlink:href="#mc01607a393" x="248.582333" y="235.860697" style="stroke: #000000"/>
    </g>
   </g>
   <g id="line2d_82">
    <g clip-path="url(#p5a6fe627db)">
     <use xlink:href="#m20be87708b" x="214.720312" y="235.860697" style="fill: #ff0000; stroke: #ff0000"/>
    </g>
   </g>
   <g id="line2d_83">
    <g clip-path="url(#p5a6fe627db)">
     <use xlink:href="#m35f11727d4" x="231.651323" y="235.860697" style="fill: #0000ff; stroke: #0000ff"/>
    </g>
   </g>
   <g id="patch_13">
    <path d="M 30.103125 272.521395 
L 30.103125 199.2 
" style="fill: none; stroke: #000000; stroke-width: 0.8; stroke-linejoin: miter; stroke-linecap: square"/>
   </g>
   <g id="patch_14">
    <path d="M 433.19952 272.521395 
L 433.19952 199.2 
" style="fill: none; stroke: #000000; stroke-width: 0.8; stroke-linejoin: miter; stroke-linecap: square"/>
   </g>
   <g id="patch_15">
    <path d="M 30.103125 272.521395 
L 433.19952 272.521395 
" style="fill: none; stroke: #000000; stroke-width: 0.8; stroke-linejoin: miter; stroke-linecap: square"/>
   </g>
   <g id="patch_16">
    <path d="M 30.103125 199.2 
L 433.19952 199.2 
" style="fill: none; stroke: #000000; stroke-width: 0.8; stroke-linejoin: miter; stroke-linecap: square"/>
   </g>
  </g>
 </g>
 <defs>
  <clipPath id="p281864c618">
   <rect x="30.103125" y="7.2" width="403.096395" height="73.321395"/>
  </clipPath>
  <clipPath id="pcb0a4d9f36">
   <rect x="30.103125" y="103.2" width="403.096395" height="73.321395"/>
  </clipPath>
  <clipPath id="p5a6fe627db">
   <rect x="30.103125" y="199.2" width="403.096395" height="73.321395"/>
  </clipPath>
 </defs>
</svg>
