<?xml version="1.0" encoding="utf-8" standalone="no"?>
<!DOCTYPE svg PUBLIC "-//W3C//DTD SVG 1.1//EN"
  "http://www.w3.org/Graphics/SVG/1.1/DTD/svg11.dtd">
<!-- Created with matplotlib (https://matplotlib.org/) -->
<svg height="252.20711pt" version="1.1" viewBox="0 0 394.366568 252.20711" width="394.366568pt" xmlns="http://www.w3.org/2000/svg" xmlns:xlink="http://www.w3.org/1999/xlink">
 <metadata>
  <rdf:RDF xmlns:cc="http://creativecommons.org/ns#" xmlns:dc="http://purl.org/dc/elements/1.1/" xmlns:rdf="http://www.w3.org/1999/02/22-rdf-syntax-ns#">
   <cc:Work>
    <dc:type rdf:resource="http://purl.org/dc/dcmitype/StillImage"/>
    <dc:date>2021-10-24T20:39:53.723499</dc:date>
    <dc:format>image/svg+xml</dc:format>
    <dc:creator>
     <cc:Agent>
      <dc:title>Matplotlib v3.3.4, https://matplotlib.org/</dc:title>
     </cc:Agent>
    </dc:creator>
   </cc:Work>
  </rdf:RDF>
 </metadata>
 <defs>
  <style type="text/css">*{stroke-linecap:butt;stroke-linejoin:round;}</style>
 </defs>
 <g id="figure_1">
  <g id="patch_1">
   <path d="M 0 252.20711 
L 394.366568 252.20711 
L 394.366568 0 
L 0 0 
z
" style="fill:none;"/>
  </g>
  <g id="axes_1">
   <g id="patch_2">
    <path d="M 44.894588 224.64 
L 379.694588 224.64 
L 379.694588 7.2 
L 44.894588 7.2 
z
" style="fill:#ffffff;"/>
   </g>
   <g id="matplotlib.axis_1">
    <g id="xtick_1">
     <g id="line2d_1">
      <path clip-path="url(#pdbdf1fa44f)" d="M 44.894588 224.64 
L 44.894588 7.2 
" style="fill:none;stroke:#b0b0b0;stroke-linecap:square;stroke-width:0.8;"/>
     </g>
     <g id="line2d_2">
      <defs>
       <path d="M 0 0 
L 0 3.5 
" id="m40c37cc40f" style="stroke:#000000;stroke-width:0.8;"/>
      </defs>
      <g>
       <use style="stroke:#000000;stroke-width:0.8;" x="44.894588" xlink:href="#m40c37cc40f" y="224.64"/>
      </g>
     </g>
     <g id="text_1">
      <!-- $\mathdefault{0}$ -->
      <g transform="translate(41.158598 241.771866)scale(0.15 -0.15)">
       <defs>
        <path d="M 25.40625 68 
C 19.90625 68 15.703125 66.296875 12 62.796875 
C 6.203125 57.203125 2.40625 45.6875 2.40625 34 
C 2.40625 23.09375 5.703125 11.390625 10.40625 5.796875 
C 14.09375 1.390625 19.203125 -1 25 -1 
C 30.09375 -1 34.40625 0.6875 38 4.1875 
C 43.796875 9.6875 47.59375 21.296875 47.59375 33.390625 
C 47.59375 53.890625 38.5 68 25.40625 68 
z
M 25.09375 65.390625 
C 33.5 65.390625 38 54.09375 38 33.1875 
C 38 12.296875 33.59375 1.59375 25 1.59375 
C 16.40625 1.59375 12 12.296875 12 33.09375 
C 12 54.296875 16.5 65.390625 25.09375 65.390625 
z
" id="Nimbus_Roman_No9_L_Regular-48"/>
       </defs>
       <use transform="scale(0.996264)" xlink:href="#Nimbus_Roman_No9_L_Regular-48"/>
      </g>
     </g>
    </g>
    <g id="xtick_2">
     <g id="line2d_3">
      <path clip-path="url(#pdbdf1fa44f)" d="M 111.854588 224.64 
L 111.854588 7.2 
" style="fill:none;stroke:#b0b0b0;stroke-linecap:square;stroke-width:0.8;"/>
     </g>
     <g id="line2d_4">
      <g>
       <use style="stroke:#000000;stroke-width:0.8;" x="111.854588" xlink:href="#m40c37cc40f" y="224.64"/>
      </g>
     </g>
     <g id="text_2">
      <!-- $\mathdefault{2}$ -->
      <g transform="translate(108.118598 241.771866)scale(0.15 -0.15)">
       <defs>
        <path d="M 47.5 13.734375 
L 46.203125 14.25 
C 42.5 8.5 41.203125 7.59375 36.703125 7.59375 
L 12.796875 7.59375 
L 29.59375 25.328125 
C 38.5 34.703125 42.40625 42.359375 42.40625 50.21875 
C 42.40625 60.28125 34.296875 68 23.90625 68 
C 18.40625 68 13.203125 65.796875 9.5 61.796875 
C 6.296875 58.375 4.796875 55.15625 3.09375 48 
L 5.203125 47.484375 
C 9.203125 57.359375 12.796875 60.59375 19.703125 60.59375 
C 28.09375 60.59375 33.796875 54.84375 33.796875 46.390625 
C 33.796875 38.53125 29.203125 29.15625 20.796875 20.1875 
L 3 1.1875 
L 3 0 
L 42 0 
z
" id="Nimbus_Roman_No9_L_Regular-50"/>
       </defs>
       <use transform="scale(0.996264)" xlink:href="#Nimbus_Roman_No9_L_Regular-50"/>
      </g>
     </g>
    </g>
    <g id="xtick_3">
     <g id="line2d_5">
      <path clip-path="url(#pdbdf1fa44f)" d="M 178.814588 224.64 
L 178.814588 7.2 
" style="fill:none;stroke:#b0b0b0;stroke-linecap:square;stroke-width:0.8;"/>
     </g>
     <g id="line2d_6">
      <g>
       <use style="stroke:#000000;stroke-width:0.8;" x="178.814588" xlink:href="#m40c37cc40f" y="224.64"/>
      </g>
     </g>
     <g id="text_3">
      <!-- $\mathdefault{4}$ -->
      <g transform="translate(175.078598 241.771866)scale(0.15 -0.15)">
       <defs>
        <path d="M 47.203125 23.390625 
L 37 23.390625 
L 37 68 
L 32.59375 68 
L 1.203125 23.390625 
L 1.203125 17 
L 29.296875 17 
L 29.296875 0 
L 37 0 
L 37 17 
L 47.203125 17 
z
M 29.203125 23.390625 
L 5.203125 23.390625 
L 29.203125 57.765625 
z
" id="Nimbus_Roman_No9_L_Regular-52"/>
       </defs>
       <use transform="scale(0.996264)" xlink:href="#Nimbus_Roman_No9_L_Regular-52"/>
      </g>
     </g>
    </g>
    <g id="xtick_4">
     <g id="line2d_7">
      <path clip-path="url(#pdbdf1fa44f)" d="M 245.774588 224.64 
L 245.774588 7.2 
" style="fill:none;stroke:#b0b0b0;stroke-linecap:square;stroke-width:0.8;"/>
     </g>
     <g id="line2d_8">
      <g>
       <use style="stroke:#000000;stroke-width:0.8;" x="245.774588" xlink:href="#m40c37cc40f" y="224.64"/>
      </g>
     </g>
     <g id="text_4">
      <!-- $\mathdefault{6}$ -->
      <g transform="translate(242.038598 241.771866)scale(0.15 -0.15)">
       <defs>
        <path d="M 44.59375 68.59375 
C 33.203125 67.59375 27.40625 65.6875 20.09375 60.59375 
C 9.296875 52.890625 3.40625 41.484375 3.40625 28.140625 
C 3.40625 19.5 6.09375 10.75 10.40625 5.765625 
C 14.203125 1.390625 19.59375 -1 25.796875 -1 
C 38.203125 -1 46.796875 8.453125 46.796875 22.1875 
C 46.796875 34.90625 39.5 43 28 43 
C 23.59375 43 21.5 42.296875 15.203125 38.484375 
C 17.90625 53.59375 29.09375 64.390625 44.796875 67 
z
M 24.203125 38.390625 
C 32.796875 38.390625 37.796875 31.234375 37.796875 18.796875 
C 37.796875 7.859375 33.90625 1.796875 26.90625 1.796875 
C 18.09375 1.796875 12.703125 11.140625 12.703125 26.5625 
C 12.703125 31.625 13.5 34.421875 15.5 35.90625 
C 17.59375 37.5 20.703125 38.390625 24.203125 38.390625 
z
" id="Nimbus_Roman_No9_L_Regular-54"/>
       </defs>
       <use transform="scale(0.996264)" xlink:href="#Nimbus_Roman_No9_L_Regular-54"/>
      </g>
     </g>
    </g>
    <g id="xtick_5">
     <g id="line2d_9">
      <path clip-path="url(#pdbdf1fa44f)" d="M 312.734588 224.64 
L 312.734588 7.2 
" style="fill:none;stroke:#b0b0b0;stroke-linecap:square;stroke-width:0.8;"/>
     </g>
     <g id="line2d_10">
      <g>
       <use style="stroke:#000000;stroke-width:0.8;" x="312.734588" xlink:href="#m40c37cc40f" y="224.64"/>
      </g>
     </g>
     <g id="text_5">
      <!-- $\mathdefault{8}$ -->
      <g transform="translate(308.998598 241.771866)scale(0.15 -0.15)">
       <defs>
        <path d="M 29 37.5 
C 38.90625 42.796875 42.40625 47 42.40625 53.796875 
C 42.40625 62 35.203125 68 25.203125 68 
C 14.296875 68 6.203125 61.296875 6.203125 52.203125 
C 6.203125 45.6875 8.09375 42.796875 18.59375 33.59375 
C 7.796875 25.390625 5.59375 22.296875 5.59375 15.5 
C 5.59375 5.796875 13.5 -1 24.796875 -1 
C 36.796875 -1 44.5 5.59375 44.5 15.890625 
C 44.5 23.59375 41.09375 28.5 29 37.5 
z
M 27.203125 27.1875 
C 34.5 22 36.90625 18.390625 36.90625 12.796875 
C 36.90625 6.296875 32.40625 1.796875 25.90625 1.796875 
C 18.296875 1.796875 13.203125 7.59375 13.203125 16.296875 
C 13.203125 22.6875 15.40625 26.890625 21.203125 31.59375 
z
M 26.09375 39.296875 
C 17.203125 45.09375 13.59375 49.6875 13.59375 55.296875 
C 13.59375 61.09375 18.09375 65.1875 24.40625 65.1875 
C 31.203125 65.1875 35.5 60.796875 35.5 53.890625 
C 35.5 48.1875 32.703125 43.6875 27 39.890625 
C 26.5 39.59375 26.5 39.59375 26.09375 39.296875 
z
" id="Nimbus_Roman_No9_L_Regular-56"/>
       </defs>
       <use transform="scale(0.996264)" xlink:href="#Nimbus_Roman_No9_L_Regular-56"/>
      </g>
     </g>
    </g>
    <g id="xtick_6">
     <g id="line2d_11">
      <path clip-path="url(#pdbdf1fa44f)" d="M 379.694588 224.64 
L 379.694588 7.2 
" style="fill:none;stroke:#b0b0b0;stroke-linecap:square;stroke-width:0.8;"/>
     </g>
     <g id="line2d_12">
      <g>
       <use style="stroke:#000000;stroke-width:0.8;" x="379.694588" xlink:href="#m40c37cc40f" y="224.64"/>
      </g>
     </g>
     <g id="text_6">
      <!-- $\mathdefault{10}$ -->
      <g transform="translate(372.222608 241.771866)scale(0.15 -0.15)">
       <defs>
        <path d="M 29.09375 68 
L 11.09375 59 
L 11.09375 57.59375 
C 12.296875 58.09375 13.40625 58.484375 13.796875 58.6875 
C 15.59375 59.390625 17.296875 59.78125 18.296875 59.78125 
C 20.40625 59.78125 21.296875 58.296875 21.296875 55.078125 
L 21.296875 9.359375 
C 21.296875 6.03125 20.5 3.71875 18.90625 2.796875 
C 17.40625 1.890625 16 1.59375 11.796875 1.5 
L 11.796875 0 
L 39.40625 0 
L 39.40625 1.5 
C 31.5 1.59375 29.90625 2.609375 29.90625 7.453125 
L 29.90625 67.796875 
z
" id="Nimbus_Roman_No9_L_Regular-49"/>
       </defs>
       <use transform="scale(0.996264)" xlink:href="#Nimbus_Roman_No9_L_Regular-49"/>
       <use transform="translate(49.8132 0)scale(0.996264)" xlink:href="#Nimbus_Roman_No9_L_Regular-48"/>
      </g>
     </g>
    </g>
   </g>
   <g id="matplotlib.axis_2">
    <g id="ytick_1">
     <g id="line2d_13">
      <path clip-path="url(#pdbdf1fa44f)" d="M 44.894588 209.684374 
L 379.694588 209.684374 
" style="fill:none;stroke:#b0b0b0;stroke-linecap:square;stroke-width:0.8;"/>
     </g>
     <g id="line2d_14">
      <defs>
       <path d="M 0 0 
L -3.5 0 
" id="m670e28b83f" style="stroke:#000000;stroke-width:0.8;"/>
      </defs>
      <g>
       <use style="stroke:#000000;stroke-width:0.8;" x="44.894588" xlink:href="#m670e28b83f" y="209.684374"/>
      </g>
     </g>
     <g id="text_7">
      <!-- $\mathdefault{−0.6}$ -->
      <g transform="translate(7.2 214.750307)scale(0.15 -0.15)">
       <defs>
        <path d="M 65.90625 23 
C 67.59375 23 69.40625 23 69.40625 25 
C 69.40625 27 67.59375 27 65.90625 27 
L 11.796875 27 
C 10.09375 27 8.296875 27 8.296875 25 
C 8.296875 23 10.09375 23 11.796875 23 
z
" id="CMSY10-0"/>
        <path d="M 19.203125 5.296875 
C 19.203125 8.1875 16.796875 10.59375 13.90625 10.59375 
C 11 10.59375 8.59375 8.1875 8.59375 5.296875 
C 8.59375 2.390625 11 0 13.90625 0 
C 16.796875 0 19.203125 2.390625 19.203125 5.296875 
z
" id="CMMI10-58"/>
       </defs>
       <use transform="scale(0.996264)" xlink:href="#CMSY10-0"/>
       <use transform="translate(77.408707 0)scale(0.996264)" xlink:href="#Nimbus_Roman_No9_L_Regular-48"/>
       <use transform="translate(127.221908 0)scale(0.996264)" xlink:href="#CMMI10-58"/>
       <use transform="translate(154.817414 0)scale(0.996264)" xlink:href="#Nimbus_Roman_No9_L_Regular-54"/>
      </g>
     </g>
    </g>
    <g id="ytick_2">
     <g id="line2d_15">
      <path clip-path="url(#pdbdf1fa44f)" d="M 44.894588 178.429367 
L 379.694588 178.429367 
" style="fill:none;stroke:#b0b0b0;stroke-linecap:square;stroke-width:0.8;"/>
     </g>
     <g id="line2d_16">
      <g>
       <use style="stroke:#000000;stroke-width:0.8;" x="44.894588" xlink:href="#m670e28b83f" y="178.429367"/>
      </g>
     </g>
     <g id="text_8">
      <!-- $\mathdefault{−0.4}$ -->
      <g transform="translate(7.2 183.4953)scale(0.15 -0.15)">
       <use transform="scale(0.996264)" xlink:href="#CMSY10-0"/>
       <use transform="translate(77.408707 0)scale(0.996264)" xlink:href="#Nimbus_Roman_No9_L_Regular-48"/>
       <use transform="translate(127.221908 0)scale(0.996264)" xlink:href="#CMMI10-58"/>
       <use transform="translate(154.817414 0)scale(0.996264)" xlink:href="#Nimbus_Roman_No9_L_Regular-52"/>
      </g>
     </g>
    </g>
    <g id="ytick_3">
     <g id="line2d_17">
      <path clip-path="url(#pdbdf1fa44f)" d="M 44.894588 147.17436 
L 379.694588 147.17436 
" style="fill:none;stroke:#b0b0b0;stroke-linecap:square;stroke-width:0.8;"/>
     </g>
     <g id="line2d_18">
      <g>
       <use style="stroke:#000000;stroke-width:0.8;" x="44.894588" xlink:href="#m670e28b83f" y="147.17436"/>
      </g>
     </g>
     <g id="text_9">
      <!-- $\mathdefault{−0.2}$ -->
      <g transform="translate(7.2 152.240293)scale(0.15 -0.15)">
       <use transform="scale(0.996264)" xlink:href="#CMSY10-0"/>
       <use transform="translate(77.408707 0)scale(0.996264)" xlink:href="#Nimbus_Roman_No9_L_Regular-48"/>
       <use transform="translate(127.221908 0)scale(0.996264)" xlink:href="#CMMI10-58"/>
       <use transform="translate(154.817414 0)scale(0.996264)" xlink:href="#Nimbus_Roman_No9_L_Regular-50"/>
      </g>
     </g>
    </g>
    <g id="ytick_4">
     <g id="line2d_19">
      <path clip-path="url(#pdbdf1fa44f)" d="M 44.894588 115.919352 
L 379.694588 115.919352 
" style="fill:none;stroke:#b0b0b0;stroke-linecap:square;stroke-width:0.8;"/>
     </g>
     <g id="line2d_20">
      <g>
       <use style="stroke:#000000;stroke-width:0.8;" x="44.894588" xlink:href="#m670e28b83f" y="115.919352"/>
      </g>
     </g>
     <g id="text_10">
      <!-- $\mathdefault{0.0}$ -->
      <g transform="translate(18.811304 120.985285)scale(0.15 -0.15)">
       <use transform="scale(0.996264)" xlink:href="#Nimbus_Roman_No9_L_Regular-48"/>
       <use transform="translate(49.8132 0)scale(0.996264)" xlink:href="#CMMI10-58"/>
       <use transform="translate(77.408707 0)scale(0.996264)" xlink:href="#Nimbus_Roman_No9_L_Regular-48"/>
      </g>
     </g>
    </g>
    <g id="ytick_5">
     <g id="line2d_21">
      <path clip-path="url(#pdbdf1fa44f)" d="M 44.894588 84.664345 
L 379.694588 84.664345 
" style="fill:none;stroke:#b0b0b0;stroke-linecap:square;stroke-width:0.8;"/>
     </g>
     <g id="line2d_22">
      <g>
       <use style="stroke:#000000;stroke-width:0.8;" x="44.894588" xlink:href="#m670e28b83f" y="84.664345"/>
      </g>
     </g>
     <g id="text_11">
      <!-- $\mathdefault{0.2}$ -->
      <g transform="translate(18.811304 89.730278)scale(0.15 -0.15)">
       <use transform="scale(0.996264)" xlink:href="#Nimbus_Roman_No9_L_Regular-48"/>
       <use transform="translate(49.8132 0)scale(0.996264)" xlink:href="#CMMI10-58"/>
       <use transform="translate(77.408707 0)scale(0.996264)" xlink:href="#Nimbus_Roman_No9_L_Regular-50"/>
      </g>
     </g>
    </g>
    <g id="ytick_6">
     <g id="line2d_23">
      <path clip-path="url(#pdbdf1fa44f)" d="M 44.894588 53.409338 
L 379.694588 53.409338 
" style="fill:none;stroke:#b0b0b0;stroke-linecap:square;stroke-width:0.8;"/>
     </g>
     <g id="line2d_24">
      <g>
       <use style="stroke:#000000;stroke-width:0.8;" x="44.894588" xlink:href="#m670e28b83f" y="53.409338"/>
      </g>
     </g>
     <g id="text_12">
      <!-- $\mathdefault{0.4}$ -->
      <g transform="translate(18.811304 58.475271)scale(0.15 -0.15)">
       <use transform="scale(0.996264)" xlink:href="#Nimbus_Roman_No9_L_Regular-48"/>
       <use transform="translate(49.8132 0)scale(0.996264)" xlink:href="#CMMI10-58"/>
       <use transform="translate(77.408707 0)scale(0.996264)" xlink:href="#Nimbus_Roman_No9_L_Regular-52"/>
      </g>
     </g>
    </g>
    <g id="ytick_7">
     <g id="line2d_25">
      <path clip-path="url(#pdbdf1fa44f)" d="M 44.894588 22.15433 
L 379.694588 22.15433 
" style="fill:none;stroke:#b0b0b0;stroke-linecap:square;stroke-width:0.8;"/>
     </g>
     <g id="line2d_26">
      <g>
       <use style="stroke:#000000;stroke-width:0.8;" x="44.894588" xlink:href="#m670e28b83f" y="22.15433"/>
      </g>
     </g>
     <g id="text_13">
      <!-- $\mathdefault{0.6}$ -->
      <g transform="translate(18.811304 27.220264)scale(0.15 -0.15)">
       <use transform="scale(0.996264)" xlink:href="#Nimbus_Roman_No9_L_Regular-48"/>
       <use transform="translate(49.8132 0)scale(0.996264)" xlink:href="#CMMI10-58"/>
       <use transform="translate(77.408707 0)scale(0.996264)" xlink:href="#Nimbus_Roman_No9_L_Regular-54"/>
      </g>
     </g>
    </g>
   </g>
   <g id="line2d_27">
    <path clip-path="url(#pdbdf1fa44f)" d="M 44.894588 146.461668 
L 46.907413 145.882639 
L 48.920239 144.167504 
L 50.933065 141.381296 
L 52.94589 137.629659 
L 54.958716 133.054842 
L 56.971542 127.830305 
L 60.997193 116.241586 
L 65.022844 104.604458 
L 67.03567 99.32113 
L 69.048495 94.66715 
L 71.061321 90.818981 
L 73.074147 87.922531 
L 75.086972 86.087625 
L 77.099798 85.383835 
L 79.112624 85.837848 
L 81.125449 87.432447 
L 83.138275 90.107173 
L 85.151101 93.760607 
L 87.163926 98.254225 
L 89.176752 103.417644 
L 93.202403 114.952795 
L 97.228055 126.63315 
L 99.24088 131.972916 
L 101.253706 136.703987 
L 103.266532 140.646975 
L 105.279357 143.652377 
L 107.292183 145.606238 
L 109.305009 146.434474 
L 111.317834 146.105681 
L 113.33066 144.632327 
L 115.343485 142.070275 
L 117.356311 138.51667 
L 119.369137 134.106252 
L 121.381962 129.00625 
L 125.407614 117.529804 
L 129.433265 105.811421 
L 131.446091 100.417594 
L 133.458916 95.611539 
L 135.471742 91.575488 
L 137.484568 88.462472 
L 139.497393 86.390526 
L 141.510219 85.438212 
L 143.523045 85.641639 
L 145.53587 86.993092 
L 147.548696 89.44133 
L 149.561522 92.893523 
L 151.574347 97.218777 
L 153.587173 102.253092 
L 157.612824 113.665724 
L 161.638475 125.416916 
L 163.651301 130.862403 
L 165.664127 135.741302 
L 167.676952 139.86862 
L 169.689778 143.087864 
L 171.702604 145.276971 
L 173.715429 146.352939 
L 175.728255 146.274969 
L 177.741081 145.046019 
L 179.753906 142.712685 
L 181.766732 139.36344 
L 183.779558 135.125276 
L 185.792383 130.15889 
L 187.805209 124.652589 
L 195.856512 101.541662 
L 197.869337 96.592092 
L 199.882163 92.375345 
L 201.894988 89.051306 
L 203.907814 86.746011 
L 205.92064 85.54687 
L 207.933465 85.499348 
L 209.946291 86.605248 
L 211.959117 88.822639 
L 213.971942 92.067443 
L 215.984768 96.216631 
L 217.997594 101.112878 
L 220.010419 106.570535 
L 228.061722 129.72528 
L 230.074548 134.743318 
L 232.087373 139.047616 
L 234.100199 142.47497 
L 236.113025 144.895426 
L 238.12585 146.217208 
L 240.138676 146.3902 
L 242.151502 145.407842 
L 244.164327 143.307382 
L 246.177153 140.168462 
L 248.189978 136.110099 
L 250.202804 131.286172 
L 252.21563 125.879588 
L 260.266932 102.691334 
L 262.279758 97.607062 
L 264.292584 93.217129 
L 266.305409 89.687987 
L 268.318235 87.153448 
L 270.331061 85.709613 
L 272.343886 85.411228 
L 274.356712 86.269606 
L 276.369538 88.252201 
L 278.382363 91.283839 
L 280.395189 95.249571 
L 282.408015 99.99903 
L 284.42084 105.352133 
L 292.472143 128.563572 
L 294.484968 133.711813 
L 296.497794 138.185426 
L 298.51062 141.814786 
L 300.523445 144.46228 
L 302.536271 146.027524 
L 304.549097 146.451169 
L 306.561922 145.717153 
L 308.574748 143.853307 
L 310.587574 140.930301 
L 312.600399 137.058966 
L 314.613225 132.386089 
L 316.626051 127.08885 
L 320.651702 115.440757 
L 324.677353 103.864562 
L 326.690179 98.654642 
L 328.703005 94.099341 
L 330.71583 90.37138 
L 332.728656 87.61211 
L 334.741481 85.926154 
L 336.754307 85.377436 
L 338.767133 85.986764 
L 340.779958 87.731032 
L 342.792784 90.544104 
L 344.80561 94.319319 
L 346.818435 98.913533 
L 348.831261 104.152549 
L 352.856912 115.753489 
L 356.882564 127.379346 
L 358.895389 132.648624 
L 360.908215 137.283585 
L 362.921041 141.108488 
L 364.933866 143.978305 
L 366.946692 145.784223 
L 368.959518 146.457768 
L 370.972343 145.973401 
L 372.985169 144.349488 
L 374.997994 141.647601 
L 377.01082 137.970188 
L 379.023646 133.456683 
L 381.036471 128.278222 
L 385.062123 116.729601 
L 389.087774 105.059257 
L 391.1006 99.732967 
L 393.113425 95.02041 
L 395.366568 90.744587 
L 395.366568 90.744587 
" style="fill:none;stroke:#1f77b4;stroke-linecap:square;stroke-width:1.5;"/>
   </g>
   <g id="line2d_28">
    <path clip-path="url(#pdbdf1fa44f)" d="M 44.894588 35.95853 
L 46.907413 37.47445 
L 48.920239 41.964731 
L 50.933065 49.259118 
L 52.94589 59.081031 
L 54.958716 71.058059 
L 56.971542 84.736072 
L 60.997193 115.075733 
L 65.022844 145.54213 
L 67.03567 159.374061 
L 69.048495 171.558339 
L 71.061321 181.632977 
L 73.074147 189.215981 
L 75.086972 194.019828 
L 77.099798 195.862373 
L 79.112624 194.673754 
L 81.125449 190.499038 
L 83.138275 183.496516 
L 85.151101 173.931701 
L 87.163926 162.167256 
L 89.176752 148.64925 
L 93.202403 118.449833 
L 97.228055 87.870265 
L 99.24088 73.890576 
L 101.253706 61.504473 
L 103.266532 51.181595 
L 105.279357 43.313351 
L 107.292183 38.198077 
L 109.305009 36.029727 
L 111.317834 36.890517 
L 113.33066 40.747809 
L 115.343485 47.455347 
L 117.356311 56.758806 
L 119.369137 68.30543 
L 121.381962 81.657409 
L 125.407614 111.703136 
L 129.433265 142.382259 
L 131.446091 156.503483 
L 133.458916 169.085897 
L 135.471742 179.652418 
L 137.484568 187.802399 
L 139.497393 193.226823 
L 141.510219 195.720012 
L 143.523045 195.187435 
L 145.53587 191.649284 
L 147.548696 185.239715 
L 149.561522 176.201755 
L 151.574347 164.878094 
L 153.587173 151.698085 
L 157.612824 121.819426 
L 161.638475 91.054408 
L 163.651301 76.797936 
L 165.664127 64.024815 
L 167.676952 53.219356 
L 169.689778 44.791265 
L 171.702604 39.060108 
L 173.715429 36.243188 
L 175.728255 36.447316 
L 177.741081 39.66475 
L 179.753906 45.773496 
L 181.766732 54.541933 
L 183.779558 65.63759 
L 185.792383 78.63976 
L 187.805209 93.055443 
L 195.856512 153.560634 
L 197.869337 166.518777 
L 199.882163 177.558363 
L 201.894988 186.26081 
L 203.907814 192.29615 
L 205.92064 195.435544 
L 207.933465 195.559958 
L 209.946291 192.664673 
L 211.959117 186.859469 
L 213.971942 178.36446 
L 215.984768 167.501747 
L 217.997594 154.683206 
L 220.010419 140.394874 
L 228.061722 79.774964 
L 230.074548 66.63757 
L 232.087373 55.368771 
L 234.100199 46.395843 
L 236.113025 40.059008 
L 238.12585 36.598536 
L 240.138676 36.145637 
L 242.151502 38.717483 
L 244.164327 44.216559 
L 246.177153 52.434359 
L 248.189978 63.059292 
L 250.202804 75.688496 
L 252.21563 89.843117 
L 260.266932 150.550754 
L 262.279758 163.861551 
L 264.292584 175.354543 
L 266.305409 184.593958 
L 268.318235 191.229467 
L 270.331061 195.009476 
L 272.343886 195.790659 
L 274.356712 193.543396 
L 276.369538 188.352896 
L 278.382363 180.415964 
L 280.395189 170.033543 
L 282.408015 157.599298 
L 284.42084 143.584692 
L 288.446491 112.979715 
L 292.472143 82.816356 
L 294.484968 69.338084 
L 296.497794 57.626014 
L 298.51062 48.124227 
L 300.523445 41.192998 
L 302.536271 37.095136 
L 304.549097 35.986017 
L 306.561922 37.907696 
L 308.574748 42.787309 
L 310.587574 50.439838 
L 312.600399 60.575125 
L 314.613225 72.808875 
L 316.626051 86.677227 
L 320.651702 117.172332 
L 324.677353 147.479203 
L 326.690179 161.11895 
L 328.703005 173.044883 
L 330.71583 182.804812 
L 332.728656 190.028674 
L 334.741481 194.442565 
L 336.754307 195.879126 
L 338.767133 194.283887 
L 340.779958 189.717334 
L 342.792784 182.352614 
L 344.80561 172.468974 
L 346.818435 160.441166 
L 348.831261 146.725244 
L 352.856912 116.353588 
L 356.882564 85.916698 
L 358.895389 72.12155 
L 360.908215 59.987064 
L 362.921041 49.973339 
L 364.933866 42.460059 
L 366.946692 37.732104 
L 368.959518 35.968741 
L 370.972343 37.236831 
L 372.985169 41.488291 
L 374.997994 48.561921 
L 377.01082 58.189514 
L 379.023646 70.006025 
L 381.036471 83.56341 
L 385.062123 113.798094 
L 389.087774 144.351451 
L 391.1006 158.295859 
L 393.113425 170.633494 
L 395.366568 181.827744 
L 395.366568 181.827744 
" style="fill:none;stroke:#ff7f0e;stroke-linecap:square;stroke-width:1.5;"/>
   </g>
   <g id="line2d_29">
    <path clip-path="url(#pdbdf1fa44f)" d="M 44.894588 214.756364 
L 46.907413 212.882584 
L 48.920239 207.332291 
L 50.933065 198.315934 
L 52.94589 186.175381 
L 54.958716 171.370961 
L 56.971542 154.464006 
L 60.997193 116.962122 
L 65.022844 79.303585 
L 67.03567 62.206378 
L 69.048495 47.145782 
L 71.061321 34.692844 
L 73.074147 25.319737 
L 75.086972 19.381855 
L 77.099798 17.104344 
L 79.112624 18.573559 
L 81.125449 23.733791 
L 83.138275 32.389384 
L 85.151101 44.212146 
L 87.163926 58.753799 
L 89.176752 75.462974 
L 93.202403 112.791506 
L 97.228055 150.58993 
L 99.24088 167.869777 
L 101.253706 183.179843 
L 103.266532 195.939621 
L 105.279357 205.665306 
L 107.292183 211.988132 
L 109.305009 214.66836 
L 111.317834 213.604365 
L 113.33066 208.83649 
L 115.343485 200.545516 
L 117.356311 189.045809 
L 119.369137 174.773397 
L 121.381962 158.269443 
L 125.407614 121.130882 
L 129.433265 83.2094 
L 131.446091 65.754607 
L 133.458916 50.201889 
L 135.471742 37.140951 
L 137.484568 27.06702 
L 139.497393 20.362064 
L 141.510219 17.280312 
L 143.523045 17.938613 
L 145.53587 22.312008 
L 147.548696 30.234672 
L 149.561522 41.406204 
L 151.574347 55.40302 
L 153.587173 71.694406 
L 157.612824 108.62646 
L 161.638475 146.654114 
L 163.651301 164.276082 
L 165.664127 180.064528 
L 167.676952 193.42081 
L 169.689778 203.838503 
L 171.702604 210.922603 
L 173.715429 214.404507 
L 175.728255 214.152192 
L 177.741081 210.175225 
L 179.753906 202.624398 
L 181.766732 191.786015 
L 183.779558 178.071028 
L 185.792383 161.999463 
L 187.805209 144.180699 
L 195.856512 69.392169 
L 197.869337 53.375024 
L 199.882163 39.729345 
L 201.894988 28.972529 
L 203.907814 21.512438 
L 205.92064 17.631933 
L 207.933465 17.47815 
L 209.946291 21.056919 
L 211.959117 28.232545 
L 213.971942 38.732954 
L 215.984768 52.160006 
L 217.997594 68.004594 
L 220.010419 85.665944 
L 228.061722 160.596273 
L 230.074548 176.834986 
L 232.087373 190.763986 
L 234.100199 201.855136 
L 236.113025 209.687895 
L 238.12585 213.965273 
L 240.138676 214.525087 
L 242.151502 211.34611 
L 244.164327 204.548878 
L 246.177153 194.391119 
L 248.189978 181.25798 
L 250.202804 165.647425 
L 252.21563 148.151352 
L 260.266932 73.112585 
L 262.279758 56.659536 
L 264.292584 42.453416 
L 266.305409 31.032871 
L 268.318235 22.830931 
L 270.331061 18.158583 
L 272.343886 17.192988 
L 274.356712 19.970758 
L 276.369538 26.386569 
L 278.382363 36.197156 
L 280.395189 49.030534 
L 282.408015 64.400107 
L 284.42084 81.723112 
L 288.446491 119.552943 
L 292.472143 156.836905 
L 294.484968 173.496966 
L 296.497794 187.973881 
L 298.51062 199.718736 
L 300.523445 208.286206 
L 302.536271 213.351442 
L 304.549097 214.722388 
L 306.561922 212.347062 
L 308.574748 206.315529 
L 310.587574 196.856483 
L 312.600399 184.328579 
L 314.613225 169.206832 
L 316.626051 152.064607 
L 320.651702 114.370585 
L 324.677353 76.909231 
L 326.690179 60.049577 
L 328.703005 45.308313 
L 330.71583 33.244377 
L 332.728656 24.315193 
L 334.741481 18.859323 
L 336.754307 17.083636 
L 338.767133 19.055461 
L 340.779958 24.700031 
L 342.792784 33.803324 
L 344.80561 46.020176 
L 346.818435 60.887364 
L 348.831261 77.841176 
L 352.856912 115.382607 
L 356.882564 153.004673 
L 358.895389 170.056413 
L 360.908215 185.055463 
L 362.921041 197.433108 
L 364.933866 206.720032 
L 366.946692 212.564106 
L 368.959518 214.743742 
L 370.972343 213.176298 
L 372.985169 207.921204 
L 374.997994 199.177716 
L 377.01082 187.277356 
L 379.023646 172.671346 
L 381.036471 155.913496 
L 385.062123 118.541372 
L 389.087774 80.775345 
L 391.1006 63.53911 
L 393.113425 48.288953 
L 395.366568 34.4521 
L 395.366568 34.4521 
" style="fill:none;stroke:#2ca02c;stroke-linecap:square;stroke-width:1.5;"/>
   </g>
   <g id="line2d_30">
    <path clip-path="url(#pdbdf1fa44f)" d="M 44.894588 35.95853 
L 46.907413 37.47445 
L 48.920239 41.964731 
L 50.933065 49.259118 
L 52.94589 59.081031 
L 54.958716 71.058059 
L 56.971542 84.736072 
L 60.997193 115.075733 
L 65.022844 145.54213 
L 67.03567 159.374061 
L 69.048495 171.558339 
L 71.061321 181.632977 
L 73.074147 189.215981 
L 75.086972 194.019828 
L 77.099798 195.862373 
L 79.112624 194.673754 
L 81.125449 190.499038 
L 83.138275 183.496516 
L 85.151101 173.931701 
L 87.163926 162.167256 
L 89.176752 148.64925 
L 93.202403 118.449833 
L 97.228055 87.870265 
L 99.24088 73.890576 
L 101.253706 61.504473 
L 103.266532 51.181595 
L 105.279357 43.313351 
L 107.292183 38.198077 
L 109.305009 36.029727 
L 111.317834 36.890517 
L 113.33066 40.747809 
L 115.343485 47.455347 
L 117.356311 56.758806 
L 119.369137 68.30543 
L 121.381962 81.657409 
L 125.407614 111.703136 
L 129.433265 142.382259 
L 131.446091 156.503483 
L 133.458916 169.085897 
L 135.471742 179.652418 
L 137.484568 187.802399 
L 139.497393 193.226823 
L 141.510219 195.720012 
L 143.523045 195.187435 
L 145.53587 191.649284 
L 147.548696 185.239715 
L 149.561522 176.201755 
L 151.574347 164.878094 
L 153.587173 151.698085 
L 157.612824 121.819426 
L 161.638475 91.054408 
L 163.651301 76.797936 
L 165.664127 64.024815 
L 167.676952 53.219356 
L 169.689778 44.791265 
L 171.702604 39.060108 
L 173.715429 36.243188 
L 175.728255 36.447316 
L 177.741081 39.66475 
L 179.753906 45.773496 
L 181.766732 54.541933 
L 183.779558 65.63759 
L 185.792383 78.63976 
L 187.805209 93.055443 
L 195.856512 153.560634 
L 197.869337 166.518777 
L 199.882163 177.558363 
L 201.894988 186.26081 
L 203.907814 192.29615 
L 205.92064 195.435544 
L 207.933465 195.559958 
L 209.946291 192.664673 
L 211.959117 186.859469 
L 213.971942 178.36446 
L 215.984768 167.501747 
L 217.997594 154.683206 
L 220.010419 140.394874 
L 228.061722 79.774964 
L 230.074548 66.63757 
L 232.087373 55.368771 
L 234.100199 46.395843 
L 236.113025 40.059008 
L 238.12585 36.598536 
L 240.138676 36.145637 
L 242.151502 38.717483 
L 244.164327 44.216559 
L 246.177153 52.434359 
L 248.189978 63.059292 
L 250.202804 75.688496 
L 252.21563 89.843117 
L 260.266932 150.550754 
L 262.279758 163.861551 
L 264.292584 175.354543 
L 266.305409 184.593958 
L 268.318235 191.229467 
L 270.331061 195.009476 
L 272.343886 195.790659 
L 274.356712 193.543396 
L 276.369538 188.352896 
L 278.382363 180.415964 
L 280.395189 170.033543 
L 282.408015 157.599298 
L 284.42084 143.584692 
L 288.446491 112.979715 
L 292.472143 82.816356 
L 294.484968 69.338084 
L 296.497794 57.626014 
L 298.51062 48.124227 
L 300.523445 41.192998 
L 302.536271 37.095136 
L 304.549097 35.986017 
L 306.561922 37.907696 
L 308.574748 42.787309 
L 310.587574 50.439838 
L 312.600399 60.575125 
L 314.613225 72.808875 
L 316.626051 86.677227 
L 320.651702 117.172332 
L 324.677353 147.479203 
L 326.690179 161.11895 
L 328.703005 173.044883 
L 330.71583 182.804812 
L 332.728656 190.028674 
L 334.741481 194.442565 
L 336.754307 195.879126 
L 338.767133 194.283887 
L 340.779958 189.717334 
L 342.792784 182.352614 
L 344.80561 172.468974 
L 346.818435 160.441166 
L 348.831261 146.725244 
L 352.856912 116.353588 
L 356.882564 85.916698 
L 358.895389 72.12155 
L 360.908215 59.987064 
L 362.921041 49.973339 
L 364.933866 42.460059 
L 366.946692 37.732104 
L 368.959518 35.968741 
L 370.972343 37.236831 
L 372.985169 41.488291 
L 374.997994 48.561921 
L 377.01082 58.189514 
L 379.023646 70.006025 
L 381.036471 83.56341 
L 385.062123 113.798094 
L 389.087774 144.351451 
L 391.1006 158.295859 
L 393.113425 170.633494 
L 395.366568 181.827744 
L 395.366568 181.827744 
" style="fill:none;stroke:#d62728;stroke-linecap:square;stroke-width:1.5;"/>
   </g>
   <g id="line2d_31">
    <path clip-path="url(#pdbdf1fa44f)" d="M 44.894588 146.461668 
L 46.907413 145.882639 
L 48.920239 144.167504 
L 50.933065 141.381296 
L 52.94589 137.629659 
L 54.958716 133.054842 
L 56.971542 127.830305 
L 60.997193 116.241586 
L 65.022844 104.604458 
L 67.03567 99.32113 
L 69.048495 94.66715 
L 71.061321 90.818981 
L 73.074147 87.922531 
L 75.086972 86.087625 
L 77.099798 85.383835 
L 79.112624 85.837848 
L 81.125449 87.432447 
L 83.138275 90.107173 
L 85.151101 93.760607 
L 87.163926 98.254225 
L 89.176752 103.417644 
L 93.202403 114.952795 
L 97.228055 126.63315 
L 99.24088 131.972916 
L 101.253706 136.703987 
L 103.266532 140.646975 
L 105.279357 143.652377 
L 107.292183 145.606238 
L 109.305009 146.434474 
L 111.317834 146.105681 
L 113.33066 144.632327 
L 115.343485 142.070275 
L 117.356311 138.51667 
L 119.369137 134.106252 
L 121.381962 129.00625 
L 125.407614 117.529804 
L 129.433265 105.811421 
L 131.446091 100.417594 
L 133.458916 95.611539 
L 135.471742 91.575488 
L 137.484568 88.462472 
L 139.497393 86.390526 
L 141.510219 85.438212 
L 143.523045 85.641639 
L 145.53587 86.993092 
L 147.548696 89.44133 
L 149.561522 92.893523 
L 151.574347 97.218777 
L 153.587173 102.253092 
L 157.612824 113.665724 
L 161.638475 125.416916 
L 163.651301 130.862403 
L 165.664127 135.741302 
L 167.676952 139.86862 
L 169.689778 143.087864 
L 171.702604 145.276971 
L 173.715429 146.352939 
L 175.728255 146.274969 
L 177.741081 145.046019 
L 179.753906 142.712685 
L 181.766732 139.36344 
L 183.779558 135.125276 
L 185.792383 130.15889 
L 187.805209 124.652589 
L 195.856512 101.541662 
L 197.869337 96.592092 
L 199.882163 92.375345 
L 201.894988 89.051306 
L 203.907814 86.746011 
L 205.92064 85.54687 
L 207.933465 85.499348 
L 209.946291 86.605248 
L 211.959117 88.822639 
L 213.971942 92.067443 
L 215.984768 96.216631 
L 217.997594 101.112878 
L 220.010419 106.570535 
L 228.061722 129.72528 
L 230.074548 134.743318 
L 232.087373 139.047616 
L 234.100199 142.47497 
L 236.113025 144.895426 
L 238.12585 146.217208 
L 240.138676 146.3902 
L 242.151502 145.407842 
L 244.164327 143.307382 
L 246.177153 140.168462 
L 248.189978 136.110099 
L 250.202804 131.286172 
L 252.21563 125.879588 
L 260.266932 102.691334 
L 262.279758 97.607062 
L 264.292584 93.217129 
L 266.305409 89.687987 
L 268.318235 87.153448 
L 270.331061 85.709613 
L 272.343886 85.411228 
L 274.356712 86.269606 
L 276.369538 88.252201 
L 278.382363 91.283839 
L 280.395189 95.249571 
L 282.408015 99.99903 
L 284.42084 105.352133 
L 292.472143 128.563572 
L 294.484968 133.711813 
L 296.497794 138.185426 
L 298.51062 141.814786 
L 300.523445 144.46228 
L 302.536271 146.027524 
L 304.549097 146.451169 
L 306.561922 145.717153 
L 308.574748 143.853307 
L 310.587574 140.930301 
L 312.600399 137.058966 
L 314.613225 132.386089 
L 316.626051 127.08885 
L 320.651702 115.440757 
L 324.677353 103.864562 
L 326.690179 98.654642 
L 328.703005 94.099341 
L 330.71583 90.37138 
L 332.728656 87.61211 
L 334.741481 85.926154 
L 336.754307 85.377436 
L 338.767133 85.986764 
L 340.779958 87.731032 
L 342.792784 90.544104 
L 344.80561 94.319319 
L 346.818435 98.913533 
L 348.831261 104.152549 
L 352.856912 115.753489 
L 356.882564 127.379346 
L 358.895389 132.648624 
L 360.908215 137.283585 
L 362.921041 141.108488 
L 364.933866 143.978305 
L 366.946692 145.784223 
L 368.959518 146.457768 
L 370.972343 145.973401 
L 372.985169 144.349488 
L 374.997994 141.647601 
L 377.01082 137.970188 
L 379.023646 133.456683 
L 381.036471 128.278222 
L 385.062123 116.729601 
L 389.087774 105.059257 
L 391.1006 99.732967 
L 393.113425 95.02041 
L 395.366568 90.744587 
L 395.366568 90.744587 
" style="fill:none;stroke:#9467bd;stroke-linecap:square;stroke-width:1.5;"/>
   </g>
   <g id="patch_3">
    <path d="M 44.894588 224.64 
L 44.894588 7.2 
" style="fill:none;stroke:#000000;stroke-linecap:square;stroke-linejoin:miter;stroke-width:0.8;"/>
   </g>
   <g id="patch_4">
    <path d="M 379.694588 224.64 
L 379.694588 7.2 
" style="fill:none;stroke:#000000;stroke-linecap:square;stroke-linejoin:miter;stroke-width:0.8;"/>
   </g>
   <g id="patch_5">
    <path d="M 44.894588 224.64 
L 379.694588 224.64 
" style="fill:none;stroke:#000000;stroke-linecap:square;stroke-linejoin:miter;stroke-width:0.8;"/>
   </g>
   <g id="patch_6">
    <path d="M 44.894588 7.2 
L 379.694588 7.2 
" style="fill:none;stroke:#000000;stroke-linecap:square;stroke-linejoin:miter;stroke-width:0.8;"/>
   </g>
  </g>
 </g>
 <defs>
  <clipPath id="pdbdf1fa44f">
   <rect height="217.44" width="334.8" x="44.894588" y="7.2"/>
  </clipPath>
 </defs>
</svg>
