<?xml version="1.0" encoding="utf-8" standalone="no"?>
<!DOCTYPE svg PUBLIC "-//W3C//DTD SVG 1.1//EN"
  "http://www.w3.org/Graphics/SVG/1.1/DTD/svg11.dtd">
<svg xmlns:xlink="http://www.w3.org/1999/xlink" width="440.39952pt" height="296.39952pt" viewBox="0 0 440.39952 296.39952" xmlns="http://www.w3.org/2000/svg" version="1.1">
 <metadata>
  <rdf:RDF xmlns:dc="http://purl.org/dc/elements/1.1/" xmlns:cc="http://creativecommons.org/ns#" xmlns:rdf="http://www.w3.org/1999/02/22-rdf-syntax-ns#">
   <cc:Work>
    <dc:type rdf:resource="http://purl.org/dc/dcmitype/StillImage"/>
    <dc:date>2021-12-12T09:44:06.600053</dc:date>
    <dc:format>image/svg+xml</dc:format>
    <dc:creator>
     <cc:Agent>
      <dc:title>Matplotlib v3.5.0, https://matplotlib.org/</dc:title>
     </cc:Agent>
    </dc:creator>
   </cc:Work>
  </rdf:RDF>
 </metadata>
 <defs>
  <style type="text/css">*{stroke-linejoin: round; stroke-linecap: butt}</style>
 </defs>
 <g id="figure_1">
  <g id="patch_1">
   <path d="M 0 296.39952 
L 440.39952 296.39952 
L 440.39952 0 
L 0 0 
L 0 296.39952 
z
" style="fill: none"/>
  </g>
  <g id="axes_1">
   <g id="patch_2">
    <path d="M 36.465625 80.521395 
L 433.19952 80.521395 
L 433.19952 7.2 
L 36.465625 7.2 
z
" style="fill: #ffffff"/>
   </g>
   <g id="matplotlib.axis_1">
    <g id="xtick_1">
     <g id="line2d_1">
      <path d="M 77.65128 80.521395 
L 77.65128 7.2 
" clip-path="url(#p81764a11d4)" style="fill: none; stroke: #b0b0b0; stroke-width: 0.8; stroke-linecap: square"/>
     </g>
     <g id="line2d_2">
      <defs>
       <path id="m754c14ee74" d="M 0 0 
L 0 3.5 
" style="stroke: #000000; stroke-width: 0.8"/>
      </defs>
      <g>
       <use xlink:href="#m754c14ee74" x="77.65128" y="80.521395" style="stroke: #000000; stroke-width: 0.8"/>
      </g>
     </g>
     <g id="text_1">
      <!-- −2 -->
      <g transform="translate(70.280187 95.119832)scale(0.1 -0.1)">
       <defs>
        <path id="DejaVuSans-2212" d="M 678 2272 
L 4684 2272 
L 4684 1741 
L 678 1741 
L 678 2272 
z
" transform="scale(0.015625)"/>
        <path id="DejaVuSans-32" d="M 1228 531 
L 3431 531 
L 3431 0 
L 469 0 
L 469 531 
Q 828 903 1448 1529 
Q 2069 2156 2228 2338 
Q 2531 2678 2651 2914 
Q 2772 3150 2772 3378 
Q 2772 3750 2511 3984 
Q 2250 4219 1831 4219 
Q 1534 4219 1204 4116 
Q 875 4013 500 3803 
L 500 4441 
Q 881 4594 1212 4672 
Q 1544 4750 1819 4750 
Q 2544 4750 2975 4387 
Q 3406 4025 3406 3419 
Q 3406 3131 3298 2873 
Q 3191 2616 2906 2266 
Q 2828 2175 2409 1742 
Q 1991 1309 1228 531 
z
" transform="scale(0.015625)"/>
       </defs>
       <use xlink:href="#DejaVuSans-2212"/>
       <use xlink:href="#DejaVuSans-32" x="83.789062"/>
      </g>
     </g>
    </g>
    <g id="xtick_2">
     <g id="line2d_3">
      <path d="M 147.509632 80.521395 
L 147.509632 7.2 
" clip-path="url(#p81764a11d4)" style="fill: none; stroke: #b0b0b0; stroke-width: 0.8; stroke-linecap: square"/>
     </g>
     <g id="line2d_4">
      <g>
       <use xlink:href="#m754c14ee74" x="147.509632" y="80.521395" style="stroke: #000000; stroke-width: 0.8"/>
      </g>
     </g>
     <g id="text_2">
      <!-- 0 -->
      <g transform="translate(144.328382 95.119832)scale(0.1 -0.1)">
       <defs>
        <path id="DejaVuSans-30" d="M 2034 4250 
Q 1547 4250 1301 3770 
Q 1056 3291 1056 2328 
Q 1056 1369 1301 889 
Q 1547 409 2034 409 
Q 2525 409 2770 889 
Q 3016 1369 3016 2328 
Q 3016 3291 2770 3770 
Q 2525 4250 2034 4250 
z
M 2034 4750 
Q 2819 4750 3233 4129 
Q 3647 3509 3647 2328 
Q 3647 1150 3233 529 
Q 2819 -91 2034 -91 
Q 1250 -91 836 529 
Q 422 1150 422 2328 
Q 422 3509 836 4129 
Q 1250 4750 2034 4750 
z
" transform="scale(0.015625)"/>
       </defs>
       <use xlink:href="#DejaVuSans-30"/>
      </g>
     </g>
    </g>
    <g id="xtick_3">
     <g id="line2d_5">
      <path d="M 217.367984 80.521395 
L 217.367984 7.2 
" clip-path="url(#p81764a11d4)" style="fill: none; stroke: #b0b0b0; stroke-width: 0.8; stroke-linecap: square"/>
     </g>
     <g id="line2d_6">
      <g>
       <use xlink:href="#m754c14ee74" x="217.367984" y="80.521395" style="stroke: #000000; stroke-width: 0.8"/>
      </g>
     </g>
     <g id="text_3">
      <!-- 2 -->
      <g transform="translate(214.186734 95.119832)scale(0.1 -0.1)">
       <use xlink:href="#DejaVuSans-32"/>
      </g>
     </g>
    </g>
    <g id="xtick_4">
     <g id="line2d_7">
      <path d="M 287.226337 80.521395 
L 287.226337 7.2 
" clip-path="url(#p81764a11d4)" style="fill: none; stroke: #b0b0b0; stroke-width: 0.8; stroke-linecap: square"/>
     </g>
     <g id="line2d_8">
      <g>
       <use xlink:href="#m754c14ee74" x="287.226337" y="80.521395" style="stroke: #000000; stroke-width: 0.8"/>
      </g>
     </g>
     <g id="text_4">
      <!-- 4 -->
      <g transform="translate(284.045087 95.119832)scale(0.1 -0.1)">
       <defs>
        <path id="DejaVuSans-34" d="M 2419 4116 
L 825 1625 
L 2419 1625 
L 2419 4116 
z
M 2253 4666 
L 3047 4666 
L 3047 1625 
L 3713 1625 
L 3713 1100 
L 3047 1100 
L 3047 0 
L 2419 0 
L 2419 1100 
L 313 1100 
L 313 1709 
L 2253 4666 
z
" transform="scale(0.015625)"/>
       </defs>
       <use xlink:href="#DejaVuSans-34"/>
      </g>
     </g>
    </g>
    <g id="xtick_5">
     <g id="line2d_9">
      <path d="M 357.084689 80.521395 
L 357.084689 7.2 
" clip-path="url(#p81764a11d4)" style="fill: none; stroke: #b0b0b0; stroke-width: 0.8; stroke-linecap: square"/>
     </g>
     <g id="line2d_10">
      <g>
       <use xlink:href="#m754c14ee74" x="357.084689" y="80.521395" style="stroke: #000000; stroke-width: 0.8"/>
      </g>
     </g>
     <g id="text_5">
      <!-- 6 -->
      <g transform="translate(353.903439 95.119832)scale(0.1 -0.1)">
       <defs>
        <path id="DejaVuSans-36" d="M 2113 2584 
Q 1688 2584 1439 2293 
Q 1191 2003 1191 1497 
Q 1191 994 1439 701 
Q 1688 409 2113 409 
Q 2538 409 2786 701 
Q 3034 994 3034 1497 
Q 3034 2003 2786 2293 
Q 2538 2584 2113 2584 
z
M 3366 4563 
L 3366 3988 
Q 3128 4100 2886 4159 
Q 2644 4219 2406 4219 
Q 1781 4219 1451 3797 
Q 1122 3375 1075 2522 
Q 1259 2794 1537 2939 
Q 1816 3084 2150 3084 
Q 2853 3084 3261 2657 
Q 3669 2231 3669 1497 
Q 3669 778 3244 343 
Q 2819 -91 2113 -91 
Q 1303 -91 875 529 
Q 447 1150 447 2328 
Q 447 3434 972 4092 
Q 1497 4750 2381 4750 
Q 2619 4750 2861 4703 
Q 3103 4656 3366 4563 
z
" transform="scale(0.015625)"/>
       </defs>
       <use xlink:href="#DejaVuSans-36"/>
      </g>
     </g>
    </g>
    <g id="xtick_6">
     <g id="line2d_11">
      <path d="M 426.943041 80.521395 
L 426.943041 7.2 
" clip-path="url(#p81764a11d4)" style="fill: none; stroke: #b0b0b0; stroke-width: 0.8; stroke-linecap: square"/>
     </g>
     <g id="line2d_12">
      <g>
       <use xlink:href="#m754c14ee74" x="426.943041" y="80.521395" style="stroke: #000000; stroke-width: 0.8"/>
      </g>
     </g>
     <g id="text_6">
      <!-- 8 -->
      <g transform="translate(423.761791 95.119832)scale(0.1 -0.1)">
       <defs>
        <path id="DejaVuSans-38" d="M 2034 2216 
Q 1584 2216 1326 1975 
Q 1069 1734 1069 1313 
Q 1069 891 1326 650 
Q 1584 409 2034 409 
Q 2484 409 2743 651 
Q 3003 894 3003 1313 
Q 3003 1734 2745 1975 
Q 2488 2216 2034 2216 
z
M 1403 2484 
Q 997 2584 770 2862 
Q 544 3141 544 3541 
Q 544 4100 942 4425 
Q 1341 4750 2034 4750 
Q 2731 4750 3128 4425 
Q 3525 4100 3525 3541 
Q 3525 3141 3298 2862 
Q 3072 2584 2669 2484 
Q 3125 2378 3379 2068 
Q 3634 1759 3634 1313 
Q 3634 634 3220 271 
Q 2806 -91 2034 -91 
Q 1263 -91 848 271 
Q 434 634 434 1313 
Q 434 1759 690 2068 
Q 947 2378 1403 2484 
z
M 1172 3481 
Q 1172 3119 1398 2916 
Q 1625 2713 2034 2713 
Q 2441 2713 2670 2916 
Q 2900 3119 2900 3481 
Q 2900 3844 2670 4047 
Q 2441 4250 2034 4250 
Q 1625 4250 1398 4047 
Q 1172 3844 1172 3481 
z
" transform="scale(0.015625)"/>
       </defs>
       <use xlink:href="#DejaVuSans-38"/>
      </g>
     </g>
    </g>
   </g>
   <g id="matplotlib.axis_2">
    <g id="ytick_1">
     <g id="line2d_13">
      <path d="M 36.465625 60.450882 
L 433.19952 60.450882 
" clip-path="url(#p81764a11d4)" style="fill: none; stroke: #b0b0b0; stroke-width: 0.8; stroke-linecap: square"/>
     </g>
     <g id="line2d_14">
      <defs>
       <path id="m789e061df1" d="M 0 0 
L -3.5 0 
" style="stroke: #000000; stroke-width: 0.8"/>
      </defs>
      <g>
       <use xlink:href="#m789e061df1" x="36.465625" y="60.450882" style="stroke: #000000; stroke-width: 0.8"/>
      </g>
     </g>
     <g id="text_7">
      <!-- 9 -->
      <g transform="translate(23.103125 64.250101)scale(0.1 -0.1)">
       <defs>
        <path id="DejaVuSans-39" d="M 703 97 
L 703 672 
Q 941 559 1184 500 
Q 1428 441 1663 441 
Q 2288 441 2617 861 
Q 2947 1281 2994 2138 
Q 2813 1869 2534 1725 
Q 2256 1581 1919 1581 
Q 1219 1581 811 2004 
Q 403 2428 403 3163 
Q 403 3881 828 4315 
Q 1253 4750 1959 4750 
Q 2769 4750 3195 4129 
Q 3622 3509 3622 2328 
Q 3622 1225 3098 567 
Q 2575 -91 1691 -91 
Q 1453 -91 1209 -44 
Q 966 3 703 97 
z
M 1959 2075 
Q 2384 2075 2632 2365 
Q 2881 2656 2881 3163 
Q 2881 3666 2632 3958 
Q 2384 4250 1959 4250 
Q 1534 4250 1286 3958 
Q 1038 3666 1038 3163 
Q 1038 2656 1286 2365 
Q 1534 2075 1959 2075 
z
" transform="scale(0.015625)"/>
       </defs>
       <use xlink:href="#DejaVuSans-39"/>
      </g>
     </g>
    </g>
    <g id="ytick_2">
     <g id="line2d_15">
      <path d="M 36.465625 25.521706 
L 433.19952 25.521706 
" clip-path="url(#p81764a11d4)" style="fill: none; stroke: #b0b0b0; stroke-width: 0.8; stroke-linecap: square"/>
     </g>
     <g id="line2d_16">
      <g>
       <use xlink:href="#m789e061df1" x="36.465625" y="25.521706" style="stroke: #000000; stroke-width: 0.8"/>
      </g>
     </g>
     <g id="text_8">
      <!-- 10 -->
      <g transform="translate(16.740625 29.320925)scale(0.1 -0.1)">
       <defs>
        <path id="DejaVuSans-31" d="M 794 531 
L 1825 531 
L 1825 4091 
L 703 3866 
L 703 4441 
L 1819 4666 
L 2450 4666 
L 2450 531 
L 3481 531 
L 3481 0 
L 794 0 
L 794 531 
z
" transform="scale(0.015625)"/>
       </defs>
       <use xlink:href="#DejaVuSans-31"/>
       <use xlink:href="#DejaVuSans-30" x="63.623047"/>
      </g>
     </g>
    </g>
   </g>
   <g id="LineCollection_1">
    <path d="M 153.622238 58.585696 
L 153.622238 27.751306 
" clip-path="url(#p81764a11d4)" style="fill: none; stroke: #000000; stroke-width: 1.5"/>
    <path d="M 188.551414 50.566899 
L 188.551414 30.007217 
" clip-path="url(#p81764a11d4)" style="fill: none; stroke: #000000; stroke-width: 1.5"/>
    <path d="M 223.48059 35.713156 
L 223.48059 10.532791 
" clip-path="url(#p81764a11d4)" style="fill: none; stroke: #000000; stroke-width: 1.5"/>
    <path d="M 258.409766 48.869101 
L 258.409766 48.869101 
" clip-path="url(#p81764a11d4)" style="fill: none; stroke: #000000; stroke-width: 1.5"/>
    <path d="M 293.338942 77.188604 
L 293.338942 46.320001 
" clip-path="url(#p81764a11d4)" style="fill: none; stroke: #000000; stroke-width: 1.5"/>
    <path d="M 328.268118 48.869101 
L 328.268118 48.869101 
" clip-path="url(#p81764a11d4)" style="fill: none; stroke: #000000; stroke-width: 1.5"/>
   </g>
   <g id="line2d_17">
    <defs>
     <path id="m8346199053" d="M 1.5 0 
L -1.5 -0 
" style="stroke: #000000"/>
    </defs>
    <g clip-path="url(#p81764a11d4)">
     <use xlink:href="#m8346199053" x="153.622238" y="58.585696" style="stroke: #000000"/>
     <use xlink:href="#m8346199053" x="188.551414" y="50.566899" style="stroke: #000000"/>
     <use xlink:href="#m8346199053" x="223.48059" y="35.713156" style="stroke: #000000"/>
     <use xlink:href="#m8346199053" x="258.409766" y="48.869101" style="stroke: #000000"/>
     <use xlink:href="#m8346199053" x="293.338942" y="77.188604" style="stroke: #000000"/>
     <use xlink:href="#m8346199053" x="328.268118" y="48.869101" style="stroke: #000000"/>
    </g>
   </g>
   <g id="line2d_18">
    <g clip-path="url(#p81764a11d4)">
     <use xlink:href="#m8346199053" x="153.622238" y="27.751306" style="stroke: #000000"/>
     <use xlink:href="#m8346199053" x="188.551414" y="30.007217" style="stroke: #000000"/>
     <use xlink:href="#m8346199053" x="223.48059" y="10.532791" style="stroke: #000000"/>
     <use xlink:href="#m8346199053" x="258.409766" y="48.869101" style="stroke: #000000"/>
     <use xlink:href="#m8346199053" x="293.338942" y="46.320001" style="stroke: #000000"/>
     <use xlink:href="#m8346199053" x="328.268118" y="48.869101" style="stroke: #000000"/>
    </g>
   </g>
   <g id="LineCollection_2">
    <path d="M 141.397027 47.868297 
L 141.397027 38.468705 
" clip-path="url(#p81764a11d4)" style="fill: none; stroke: #ff0000; stroke-width: 1.5"/>
    <path d="M 176.326203 43.420777 
L 176.326203 37.153339 
" clip-path="url(#p81764a11d4)" style="fill: none; stroke: #ff0000; stroke-width: 1.5"/>
    <path d="M 211.255379 26.960979 
L 211.255379 19.284967 
" clip-path="url(#p81764a11d4)" style="fill: none; stroke: #ff0000; stroke-width: 1.5"/>
    <path d="M 246.184555 48.869101 
L 246.184555 48.869101 
" clip-path="url(#p81764a11d4)" style="fill: none; stroke: #ff0000; stroke-width: 1.5"/>
    <path d="M 281.113731 66.459313 
L 281.113731 57.049292 
" clip-path="url(#p81764a11d4)" style="fill: none; stroke: #ff0000; stroke-width: 1.5"/>
    <path d="M 316.042907 48.869101 
L 316.042907 48.869101 
" clip-path="url(#p81764a11d4)" style="fill: none; stroke: #ff0000; stroke-width: 1.5"/>
   </g>
   <g id="line2d_19">
    <defs>
     <path id="m72b0d4503b" d="M 1.5 0 
L -1.5 -0 
" style="stroke: #ff0000"/>
    </defs>
    <g clip-path="url(#p81764a11d4)">
     <use xlink:href="#m72b0d4503b" x="141.397027" y="47.868297" style="fill: #ff0000; stroke: #ff0000"/>
     <use xlink:href="#m72b0d4503b" x="176.326203" y="43.420777" style="fill: #ff0000; stroke: #ff0000"/>
     <use xlink:href="#m72b0d4503b" x="211.255379" y="26.960979" style="fill: #ff0000; stroke: #ff0000"/>
     <use xlink:href="#m72b0d4503b" x="246.184555" y="48.869101" style="fill: #ff0000; stroke: #ff0000"/>
     <use xlink:href="#m72b0d4503b" x="281.113731" y="66.459313" style="fill: #ff0000; stroke: #ff0000"/>
     <use xlink:href="#m72b0d4503b" x="316.042907" y="48.869101" style="fill: #ff0000; stroke: #ff0000"/>
    </g>
   </g>
   <g id="line2d_20">
    <g clip-path="url(#p81764a11d4)">
     <use xlink:href="#m72b0d4503b" x="141.397027" y="38.468705" style="fill: #ff0000; stroke: #ff0000"/>
     <use xlink:href="#m72b0d4503b" x="176.326203" y="37.153339" style="fill: #ff0000; stroke: #ff0000"/>
     <use xlink:href="#m72b0d4503b" x="211.255379" y="19.284967" style="fill: #ff0000; stroke: #ff0000"/>
     <use xlink:href="#m72b0d4503b" x="246.184555" y="48.869101" style="fill: #ff0000; stroke: #ff0000"/>
     <use xlink:href="#m72b0d4503b" x="281.113731" y="57.049292" style="fill: #ff0000; stroke: #ff0000"/>
     <use xlink:href="#m72b0d4503b" x="316.042907" y="48.869101" style="fill: #ff0000; stroke: #ff0000"/>
    </g>
   </g>
   <g id="LineCollection_3">
    <path d="M 147.509632 57.267888 
L 147.509632 29.069113 
" clip-path="url(#p81764a11d4)" style="fill: none; stroke: #0000ff; stroke-width: 1.5"/>
    <path d="M 182.438808 49.688215 
L 182.438808 30.885902 
" clip-path="url(#p81764a11d4)" style="fill: none; stroke: #0000ff; stroke-width: 1.5"/>
    <path d="M 217.367984 34.636992 
L 217.367984 11.608955 
" clip-path="url(#p81764a11d4)" style="fill: none; stroke: #0000ff; stroke-width: 1.5"/>
    <path d="M 252.297161 48.869101 
L 252.297161 48.869101 
" clip-path="url(#p81764a11d4)" style="fill: none; stroke: #0000ff; stroke-width: 1.5"/>
    <path d="M 287.226337 75.869335 
L 287.226337 47.639271 
" clip-path="url(#p81764a11d4)" style="fill: none; stroke: #0000ff; stroke-width: 1.5"/>
    <path d="M 322.155513 48.869101 
L 322.155513 48.869101 
" clip-path="url(#p81764a11d4)" style="fill: none; stroke: #0000ff; stroke-width: 1.5"/>
   </g>
   <g id="line2d_21">
    <defs>
     <path id="m1dce19dc44" d="M 1.5 0 
L -1.5 -0 
" style="stroke: #0000ff"/>
    </defs>
    <g clip-path="url(#p81764a11d4)">
     <use xlink:href="#m1dce19dc44" x="147.509632" y="57.267888" style="fill: #0000ff; stroke: #0000ff"/>
     <use xlink:href="#m1dce19dc44" x="182.438808" y="49.688215" style="fill: #0000ff; stroke: #0000ff"/>
     <use xlink:href="#m1dce19dc44" x="217.367984" y="34.636992" style="fill: #0000ff; stroke: #0000ff"/>
     <use xlink:href="#m1dce19dc44" x="252.297161" y="48.869101" style="fill: #0000ff; stroke: #0000ff"/>
     <use xlink:href="#m1dce19dc44" x="287.226337" y="75.869335" style="fill: #0000ff; stroke: #0000ff"/>
     <use xlink:href="#m1dce19dc44" x="322.155513" y="48.869101" style="fill: #0000ff; stroke: #0000ff"/>
    </g>
   </g>
   <g id="line2d_22">
    <g clip-path="url(#p81764a11d4)">
     <use xlink:href="#m1dce19dc44" x="147.509632" y="29.069113" style="fill: #0000ff; stroke: #0000ff"/>
     <use xlink:href="#m1dce19dc44" x="182.438808" y="30.885902" style="fill: #0000ff; stroke: #0000ff"/>
     <use xlink:href="#m1dce19dc44" x="217.367984" y="11.608955" style="fill: #0000ff; stroke: #0000ff"/>
     <use xlink:href="#m1dce19dc44" x="252.297161" y="48.869101" style="fill: #0000ff; stroke: #0000ff"/>
     <use xlink:href="#m1dce19dc44" x="287.226337" y="47.639271" style="fill: #0000ff; stroke: #0000ff"/>
     <use xlink:href="#m1dce19dc44" x="322.155513" y="48.869101" style="fill: #0000ff; stroke: #0000ff"/>
    </g>
   </g>
   <g id="line2d_23">
    <path d="M 147.509632 33.555416 
L 322.155513 33.555416 
" clip-path="url(#p81764a11d4)" style="fill: none; stroke-dasharray: 5.55,2.4; stroke-dashoffset: 0; stroke: #000000; stroke-width: 1.5"/>
   </g>
   <g id="line2d_24">
    <defs>
     <path id="m0968c35605" d="M 0 3 
C 0.795609 3 1.55874 2.683901 2.12132 2.12132 
C 2.683901 1.55874 3 0.795609 3 0 
C 3 -0.795609 2.683901 -1.55874 2.12132 -2.12132 
C 1.55874 -2.683901 0.795609 -3 0 -3 
C -0.795609 -3 -1.55874 -2.683901 -2.12132 -2.12132 
C -2.683901 -1.55874 -3 -0.795609 -3 0 
C -3 0.795609 -2.683901 1.55874 -2.12132 2.12132 
C -1.55874 2.683901 -0.795609 3 0 3 
z
" style="stroke: #000000"/>
    </defs>
    <g clip-path="url(#p81764a11d4)">
     <use xlink:href="#m0968c35605" x="153.622238" y="43.168501" style="stroke: #000000"/>
     <use xlink:href="#m0968c35605" x="188.551414" y="40.287058" style="stroke: #000000"/>
     <use xlink:href="#m0968c35605" x="223.48059" y="23.122973" style="stroke: #000000"/>
     <use xlink:href="#m0968c35605" x="258.409766" y="48.869101" style="stroke: #000000"/>
     <use xlink:href="#m0968c35605" x="293.338942" y="61.754303" style="stroke: #000000"/>
     <use xlink:href="#m0968c35605" x="328.268118" y="48.869101" style="stroke: #000000"/>
    </g>
   </g>
   <g id="line2d_25">
    <defs>
     <path id="ma21e3b07dc" d="M 0 3 
C 0.795609 3 1.55874 2.683901 2.12132 2.12132 
C 2.683901 1.55874 3 0.795609 3 0 
C 3 -0.795609 2.683901 -1.55874 2.12132 -2.12132 
C 1.55874 -2.683901 0.795609 -3 0 -3 
C -0.795609 -3 -1.55874 -2.683901 -2.12132 -2.12132 
C -2.683901 -1.55874 -3 -0.795609 -3 0 
C -3 0.795609 -2.683901 1.55874 -2.12132 2.12132 
C -1.55874 2.683901 -0.795609 3 0 3 
z
" style="stroke: #ff0000"/>
    </defs>
    <g clip-path="url(#p81764a11d4)">
     <use xlink:href="#ma21e3b07dc" x="141.397027" y="43.168501" style="fill: #ff0000; stroke: #ff0000"/>
     <use xlink:href="#ma21e3b07dc" x="176.326203" y="40.287058" style="fill: #ff0000; stroke: #ff0000"/>
     <use xlink:href="#ma21e3b07dc" x="211.255379" y="23.122973" style="fill: #ff0000; stroke: #ff0000"/>
     <use xlink:href="#ma21e3b07dc" x="246.184555" y="48.869101" style="fill: #ff0000; stroke: #ff0000"/>
     <use xlink:href="#ma21e3b07dc" x="281.113731" y="61.754303" style="fill: #ff0000; stroke: #ff0000"/>
     <use xlink:href="#ma21e3b07dc" x="316.042907" y="48.869101" style="fill: #ff0000; stroke: #ff0000"/>
    </g>
   </g>
   <g id="line2d_26">
    <defs>
     <path id="m2678e2f504" d="M 0 3 
C 0.795609 3 1.55874 2.683901 2.12132 2.12132 
C 2.683901 1.55874 3 0.795609 3 0 
C 3 -0.795609 2.683901 -1.55874 2.12132 -2.12132 
C 1.55874 -2.683901 0.795609 -3 0 -3 
C -0.795609 -3 -1.55874 -2.683901 -2.12132 -2.12132 
C -2.683901 -1.55874 -3 -0.795609 -3 0 
C -3 0.795609 -2.683901 1.55874 -2.12132 2.12132 
C -1.55874 2.683901 -0.795609 3 0 3 
z
" style="stroke: #0000ff"/>
    </defs>
    <g clip-path="url(#p81764a11d4)">
     <use xlink:href="#m2678e2f504" x="147.509632" y="43.168501" style="fill: #0000ff; stroke: #0000ff"/>
     <use xlink:href="#m2678e2f504" x="182.438808" y="40.287058" style="fill: #0000ff; stroke: #0000ff"/>
     <use xlink:href="#m2678e2f504" x="217.367984" y="23.122973" style="fill: #0000ff; stroke: #0000ff"/>
     <use xlink:href="#m2678e2f504" x="252.297161" y="48.869101" style="fill: #0000ff; stroke: #0000ff"/>
     <use xlink:href="#m2678e2f504" x="287.226337" y="61.754303" style="fill: #0000ff; stroke: #0000ff"/>
     <use xlink:href="#m2678e2f504" x="322.155513" y="48.869101" style="fill: #0000ff; stroke: #0000ff"/>
    </g>
   </g>
   <g id="patch_3">
    <path d="M 36.465625 80.521395 
L 36.465625 7.2 
" style="fill: none; stroke: #000000; stroke-width: 0.8; stroke-linejoin: miter; stroke-linecap: square"/>
   </g>
   <g id="patch_4">
    <path d="M 433.19952 80.521395 
L 433.19952 7.2 
" style="fill: none; stroke: #000000; stroke-width: 0.8; stroke-linejoin: miter; stroke-linecap: square"/>
   </g>
   <g id="patch_5">
    <path d="M 36.465625 80.521395 
L 433.19952 80.521395 
" style="fill: none; stroke: #000000; stroke-width: 0.8; stroke-linejoin: miter; stroke-linecap: square"/>
   </g>
   <g id="patch_6">
    <path d="M 36.465625 7.2 
L 433.19952 7.2 
" style="fill: none; stroke: #000000; stroke-width: 0.8; stroke-linejoin: miter; stroke-linecap: square"/>
   </g>
  </g>
  <g id="axes_2">
   <g id="patch_7">
    <path d="M 36.465625 176.521395 
L 433.19952 176.521395 
L 433.19952 103.2 
L 36.465625 103.2 
z
" style="fill: #ffffff"/>
   </g>
   <g id="matplotlib.axis_3">
    <g id="xtick_7">
     <g id="line2d_27">
      <path d="M 42.181317 176.521395 
L 42.181317 103.2 
" clip-path="url(#p2f490d11ee)" style="fill: none; stroke: #b0b0b0; stroke-width: 0.8; stroke-linecap: square"/>
     </g>
     <g id="line2d_28">
      <g>
       <use xlink:href="#m754c14ee74" x="42.181317" y="176.521395" style="stroke: #000000; stroke-width: 0.8"/>
      </g>
     </g>
     <g id="text_9">
      <!-- −1 -->
      <g transform="translate(34.810223 191.119832)scale(0.1 -0.1)">
       <use xlink:href="#DejaVuSans-2212"/>
       <use xlink:href="#DejaVuSans-31" x="83.789062"/>
      </g>
     </g>
    </g>
    <g id="xtick_8">
     <g id="line2d_29">
      <path d="M 98.635897 176.521395 
L 98.635897 103.2 
" clip-path="url(#p2f490d11ee)" style="fill: none; stroke: #b0b0b0; stroke-width: 0.8; stroke-linecap: square"/>
     </g>
     <g id="line2d_30">
      <g>
       <use xlink:href="#m754c14ee74" x="98.635897" y="176.521395" style="stroke: #000000; stroke-width: 0.8"/>
      </g>
     </g>
     <g id="text_10">
      <!-- 0 -->
      <g transform="translate(95.454647 191.119832)scale(0.1 -0.1)">
       <use xlink:href="#DejaVuSans-30"/>
      </g>
     </g>
    </g>
    <g id="xtick_9">
     <g id="line2d_31">
      <path d="M 155.090478 176.521395 
L 155.090478 103.2 
" clip-path="url(#p2f490d11ee)" style="fill: none; stroke: #b0b0b0; stroke-width: 0.8; stroke-linecap: square"/>
     </g>
     <g id="line2d_32">
      <g>
       <use xlink:href="#m754c14ee74" x="155.090478" y="176.521395" style="stroke: #000000; stroke-width: 0.8"/>
      </g>
     </g>
     <g id="text_11">
      <!-- 1 -->
      <g transform="translate(151.909228 191.119832)scale(0.1 -0.1)">
       <use xlink:href="#DejaVuSans-31"/>
      </g>
     </g>
    </g>
    <g id="xtick_10">
     <g id="line2d_33">
      <path d="M 211.545058 176.521395 
L 211.545058 103.2 
" clip-path="url(#p2f490d11ee)" style="fill: none; stroke: #b0b0b0; stroke-width: 0.8; stroke-linecap: square"/>
     </g>
     <g id="line2d_34">
      <g>
       <use xlink:href="#m754c14ee74" x="211.545058" y="176.521395" style="stroke: #000000; stroke-width: 0.8"/>
      </g>
     </g>
     <g id="text_12">
      <!-- 2 -->
      <g transform="translate(208.363808 191.119832)scale(0.1 -0.1)">
       <use xlink:href="#DejaVuSans-32"/>
      </g>
     </g>
    </g>
    <g id="xtick_11">
     <g id="line2d_35">
      <path d="M 267.999639 176.521395 
L 267.999639 103.2 
" clip-path="url(#p2f490d11ee)" style="fill: none; stroke: #b0b0b0; stroke-width: 0.8; stroke-linecap: square"/>
     </g>
     <g id="line2d_36">
      <g>
       <use xlink:href="#m754c14ee74" x="267.999639" y="176.521395" style="stroke: #000000; stroke-width: 0.8"/>
      </g>
     </g>
     <g id="text_13">
      <!-- 3 -->
      <g transform="translate(264.818389 191.119832)scale(0.1 -0.1)">
       <defs>
        <path id="DejaVuSans-33" d="M 2597 2516 
Q 3050 2419 3304 2112 
Q 3559 1806 3559 1356 
Q 3559 666 3084 287 
Q 2609 -91 1734 -91 
Q 1441 -91 1130 -33 
Q 819 25 488 141 
L 488 750 
Q 750 597 1062 519 
Q 1375 441 1716 441 
Q 2309 441 2620 675 
Q 2931 909 2931 1356 
Q 2931 1769 2642 2001 
Q 2353 2234 1838 2234 
L 1294 2234 
L 1294 2753 
L 1863 2753 
Q 2328 2753 2575 2939 
Q 2822 3125 2822 3475 
Q 2822 3834 2567 4026 
Q 2313 4219 1838 4219 
Q 1578 4219 1281 4162 
Q 984 4106 628 3988 
L 628 4550 
Q 988 4650 1302 4700 
Q 1616 4750 1894 4750 
Q 2613 4750 3031 4423 
Q 3450 4097 3450 3541 
Q 3450 3153 3228 2886 
Q 3006 2619 2597 2516 
z
" transform="scale(0.015625)"/>
       </defs>
       <use xlink:href="#DejaVuSans-33"/>
      </g>
     </g>
    </g>
    <g id="xtick_12">
     <g id="line2d_37">
      <path d="M 324.454219 176.521395 
L 324.454219 103.2 
" clip-path="url(#p2f490d11ee)" style="fill: none; stroke: #b0b0b0; stroke-width: 0.8; stroke-linecap: square"/>
     </g>
     <g id="line2d_38">
      <g>
       <use xlink:href="#m754c14ee74" x="324.454219" y="176.521395" style="stroke: #000000; stroke-width: 0.8"/>
      </g>
     </g>
     <g id="text_14">
      <!-- 4 -->
      <g transform="translate(321.272969 191.119832)scale(0.1 -0.1)">
       <use xlink:href="#DejaVuSans-34"/>
      </g>
     </g>
    </g>
    <g id="xtick_13">
     <g id="line2d_39">
      <path d="M 380.908799 176.521395 
L 380.908799 103.2 
" clip-path="url(#p2f490d11ee)" style="fill: none; stroke: #b0b0b0; stroke-width: 0.8; stroke-linecap: square"/>
     </g>
     <g id="line2d_40">
      <g>
       <use xlink:href="#m754c14ee74" x="380.908799" y="176.521395" style="stroke: #000000; stroke-width: 0.8"/>
      </g>
     </g>
     <g id="text_15">
      <!-- 5 -->
      <g transform="translate(377.727549 191.119832)scale(0.1 -0.1)">
       <defs>
        <path id="DejaVuSans-35" d="M 691 4666 
L 3169 4666 
L 3169 4134 
L 1269 4134 
L 1269 2991 
Q 1406 3038 1543 3061 
Q 1681 3084 1819 3084 
Q 2600 3084 3056 2656 
Q 3513 2228 3513 1497 
Q 3513 744 3044 326 
Q 2575 -91 1722 -91 
Q 1428 -91 1123 -41 
Q 819 9 494 109 
L 494 744 
Q 775 591 1075 516 
Q 1375 441 1709 441 
Q 2250 441 2565 725 
Q 2881 1009 2881 1497 
Q 2881 1984 2565 2268 
Q 2250 2553 1709 2553 
Q 1456 2553 1204 2497 
Q 953 2441 691 2322 
L 691 4666 
z
" transform="scale(0.015625)"/>
       </defs>
       <use xlink:href="#DejaVuSans-35"/>
      </g>
     </g>
    </g>
   </g>
   <g id="matplotlib.axis_4">
    <g id="ytick_3">
     <g id="line2d_41">
      <path d="M 36.465625 169.409365 
L 433.19952 169.409365 
" clip-path="url(#p2f490d11ee)" style="fill: none; stroke: #b0b0b0; stroke-width: 0.8; stroke-linecap: square"/>
     </g>
     <g id="line2d_42">
      <g>
       <use xlink:href="#m789e061df1" x="36.465625" y="169.409365" style="stroke: #000000; stroke-width: 0.8"/>
      </g>
     </g>
     <g id="text_16">
      <!-- 9.0 -->
      <g transform="translate(13.5625 173.208583)scale(0.1 -0.1)">
       <defs>
        <path id="DejaVuSans-2e" d="M 684 794 
L 1344 794 
L 1344 0 
L 684 0 
L 684 794 
z
" transform="scale(0.015625)"/>
       </defs>
       <use xlink:href="#DejaVuSans-39"/>
       <use xlink:href="#DejaVuSans-2e" x="63.623047"/>
       <use xlink:href="#DejaVuSans-30" x="95.410156"/>
      </g>
     </g>
    </g>
    <g id="ytick_4">
     <g id="line2d_43">
      <path d="M 36.465625 141.182074 
L 433.19952 141.182074 
" clip-path="url(#p2f490d11ee)" style="fill: none; stroke: #b0b0b0; stroke-width: 0.8; stroke-linecap: square"/>
     </g>
     <g id="line2d_44">
      <g>
       <use xlink:href="#m789e061df1" x="36.465625" y="141.182074" style="stroke: #000000; stroke-width: 0.8"/>
      </g>
     </g>
     <g id="text_17">
      <!-- 9.5 -->
      <g transform="translate(13.5625 144.981293)scale(0.1 -0.1)">
       <use xlink:href="#DejaVuSans-39"/>
       <use xlink:href="#DejaVuSans-2e" x="63.623047"/>
       <use xlink:href="#DejaVuSans-35" x="95.410156"/>
      </g>
     </g>
    </g>
    <g id="ytick_5">
     <g id="line2d_45">
      <path d="M 36.465625 112.954784 
L 433.19952 112.954784 
" clip-path="url(#p2f490d11ee)" style="fill: none; stroke: #b0b0b0; stroke-width: 0.8; stroke-linecap: square"/>
     </g>
     <g id="line2d_46">
      <g>
       <use xlink:href="#m789e061df1" x="36.465625" y="112.954784" style="stroke: #000000; stroke-width: 0.8"/>
      </g>
     </g>
     <g id="text_18">
      <!-- 10.0 -->
      <g transform="translate(7.2 116.754003)scale(0.1 -0.1)">
       <use xlink:href="#DejaVuSans-31"/>
       <use xlink:href="#DejaVuSans-30" x="63.623047"/>
       <use xlink:href="#DejaVuSans-2e" x="127.246094"/>
       <use xlink:href="#DejaVuSans-30" x="159.033203"/>
      </g>
     </g>
    </g>
   </g>
   <g id="LineCollection_4">
    <path d="M 108.515449 151.716404 
L 108.515449 106.532791 
" clip-path="url(#p2f490d11ee)" style="fill: none; stroke: #000000; stroke-width: 1.5"/>
    <path d="M 164.970029 173.188604 
L 164.970029 142.075698 
" clip-path="url(#p2f490d11ee)" style="fill: none; stroke: #000000; stroke-width: 1.5"/>
   </g>
   <g id="line2d_47">
    <g clip-path="url(#p2f490d11ee)">
     <use xlink:href="#m8346199053" x="108.515449" y="151.716404" style="stroke: #000000"/>
     <use xlink:href="#m8346199053" x="164.970029" y="173.188604" style="stroke: #000000"/>
    </g>
   </g>
   <g id="line2d_48">
    <g clip-path="url(#p2f490d11ee)">
     <use xlink:href="#m8346199053" x="108.515449" y="106.532791" style="stroke: #000000"/>
     <use xlink:href="#m8346199053" x="164.970029" y="142.075698" style="stroke: #000000"/>
    </g>
   </g>
   <g id="LineCollection_5">
    <path d="M 88.756346 136.01151 
L 88.756346 122.237685 
" clip-path="url(#p2f490d11ee)" style="fill: none; stroke: #ff0000; stroke-width: 1.5"/>
    <path d="M 145.210926 162.374398 
L 145.210926 152.889904 
" clip-path="url(#p2f490d11ee)" style="fill: none; stroke: #ff0000; stroke-width: 1.5"/>
   </g>
   <g id="line2d_49">
    <g clip-path="url(#p2f490d11ee)">
     <use xlink:href="#m72b0d4503b" x="88.756346" y="136.01151" style="fill: #ff0000; stroke: #ff0000"/>
     <use xlink:href="#m72b0d4503b" x="145.210926" y="162.374398" style="fill: #ff0000; stroke: #ff0000"/>
    </g>
   </g>
   <g id="line2d_50">
    <g clip-path="url(#p2f490d11ee)">
     <use xlink:href="#m72b0d4503b" x="88.756346" y="122.237685" style="fill: #ff0000; stroke: #ff0000"/>
     <use xlink:href="#m72b0d4503b" x="145.210926" y="152.889904" style="fill: #ff0000; stroke: #ff0000"/>
    </g>
   </g>
   <g id="LineCollection_6">
    <path d="M 98.635897 149.785336 
L 98.635897 108.463859 
" clip-path="url(#p2f490d11ee)" style="fill: none; stroke: #0000ff; stroke-width: 1.5"/>
    <path d="M 155.090478 171.858893 
L 155.090478 143.405409 
" clip-path="url(#p2f490d11ee)" style="fill: none; stroke: #0000ff; stroke-width: 1.5"/>
   </g>
   <g id="line2d_51">
    <g clip-path="url(#p2f490d11ee)">
     <use xlink:href="#m1dce19dc44" x="98.635897" y="149.785336" style="fill: #0000ff; stroke: #0000ff"/>
     <use xlink:href="#m1dce19dc44" x="155.090478" y="171.858893" style="fill: #0000ff; stroke: #0000ff"/>
    </g>
   </g>
   <g id="line2d_52">
    <g clip-path="url(#p2f490d11ee)">
     <use xlink:href="#m1dce19dc44" x="98.635897" y="108.463859" style="fill: #0000ff; stroke: #0000ff"/>
     <use xlink:href="#m1dce19dc44" x="155.090478" y="143.405409" style="fill: #0000ff; stroke: #0000ff"/>
    </g>
   </g>
   <g id="line2d_53">
    <path d="M 98.635897 125.939338 
L 380.908799 125.939338 
" clip-path="url(#p2f490d11ee)" style="fill: none; stroke-dasharray: 5.55,2.4; stroke-dashoffset: 0; stroke: #000000; stroke-width: 1.5"/>
   </g>
   <g id="line2d_54">
    <g clip-path="url(#p2f490d11ee)">
     <use xlink:href="#m0968c35605" x="108.515449" y="129.124597" style="stroke: #000000"/>
     <use xlink:href="#m0968c35605" x="164.970029" y="157.632151" style="stroke: #000000"/>
    </g>
   </g>
   <g id="line2d_55">
    <g clip-path="url(#p2f490d11ee)">
     <use xlink:href="#ma21e3b07dc" x="88.756346" y="129.124597" style="fill: #ff0000; stroke: #ff0000"/>
     <use xlink:href="#ma21e3b07dc" x="145.210926" y="157.632151" style="fill: #ff0000; stroke: #ff0000"/>
    </g>
   </g>
   <g id="line2d_56">
    <g clip-path="url(#p2f490d11ee)">
     <use xlink:href="#m2678e2f504" x="98.635897" y="129.124597" style="fill: #0000ff; stroke: #0000ff"/>
     <use xlink:href="#m2678e2f504" x="155.090478" y="157.632151" style="fill: #0000ff; stroke: #0000ff"/>
    </g>
   </g>
   <g id="patch_8">
    <path d="M 36.465625 176.521395 
L 36.465625 103.2 
" style="fill: none; stroke: #000000; stroke-width: 0.8; stroke-linejoin: miter; stroke-linecap: square"/>
   </g>
   <g id="patch_9">
    <path d="M 433.19952 176.521395 
L 433.19952 103.2 
" style="fill: none; stroke: #000000; stroke-width: 0.8; stroke-linejoin: miter; stroke-linecap: square"/>
   </g>
   <g id="patch_10">
    <path d="M 36.465625 176.521395 
L 433.19952 176.521395 
" style="fill: none; stroke: #000000; stroke-width: 0.8; stroke-linejoin: miter; stroke-linecap: square"/>
   </g>
   <g id="patch_11">
    <path d="M 36.465625 103.2 
L 433.19952 103.2 
" style="fill: none; stroke: #000000; stroke-width: 0.8; stroke-linejoin: miter; stroke-linecap: square"/>
   </g>
  </g>
  <g id="axes_3">
   <g id="patch_12">
    <path d="M 36.465625 272.521395 
L 433.19952 272.521395 
L 433.19952 199.2 
L 36.465625 199.2 
z
" style="fill: #ffffff"/>
   </g>
   <g id="matplotlib.axis_5">
    <g id="xtick_14">
     <g id="line2d_57">
      <path d="M 63.962678 272.521395 
L 63.962678 199.2 
" clip-path="url(#pd4c0c9a944)" style="fill: none; stroke: #b0b0b0; stroke-width: 0.8; stroke-linecap: square"/>
     </g>
     <g id="line2d_58">
      <g>
       <use xlink:href="#m754c14ee74" x="63.962678" y="272.521395" style="stroke: #000000; stroke-width: 0.8"/>
      </g>
     </g>
     <g id="text_19">
      <!-- 0 -->
      <g transform="translate(60.781428 287.119832)scale(0.1 -0.1)">
       <use xlink:href="#DejaVuSans-30"/>
      </g>
     </g>
    </g>
    <g id="xtick_15">
     <g id="line2d_59">
      <path d="M 134.789577 272.521395 
L 134.789577 199.2 
" clip-path="url(#pd4c0c9a944)" style="fill: none; stroke: #b0b0b0; stroke-width: 0.8; stroke-linecap: square"/>
     </g>
     <g id="line2d_60">
      <g>
       <use xlink:href="#m754c14ee74" x="134.789577" y="272.521395" style="stroke: #000000; stroke-width: 0.8"/>
      </g>
     </g>
     <g id="text_20">
      <!-- 1 -->
      <g transform="translate(131.608327 287.119832)scale(0.1 -0.1)">
       <use xlink:href="#DejaVuSans-31"/>
      </g>
     </g>
    </g>
    <g id="xtick_16">
     <g id="line2d_61">
      <path d="M 205.616477 272.521395 
L 205.616477 199.2 
" clip-path="url(#pd4c0c9a944)" style="fill: none; stroke: #b0b0b0; stroke-width: 0.8; stroke-linecap: square"/>
     </g>
     <g id="line2d_62">
      <g>
       <use xlink:href="#m754c14ee74" x="205.616477" y="272.521395" style="stroke: #000000; stroke-width: 0.8"/>
      </g>
     </g>
     <g id="text_21">
      <!-- 2 -->
      <g transform="translate(202.435227 287.119832)scale(0.1 -0.1)">
       <use xlink:href="#DejaVuSans-32"/>
      </g>
     </g>
    </g>
    <g id="xtick_17">
     <g id="line2d_63">
      <path d="M 276.443376 272.521395 
L 276.443376 199.2 
" clip-path="url(#pd4c0c9a944)" style="fill: none; stroke: #b0b0b0; stroke-width: 0.8; stroke-linecap: square"/>
     </g>
     <g id="line2d_64">
      <g>
       <use xlink:href="#m754c14ee74" x="276.443376" y="272.521395" style="stroke: #000000; stroke-width: 0.8"/>
      </g>
     </g>
     <g id="text_22">
      <!-- 3 -->
      <g transform="translate(273.262126 287.119832)scale(0.1 -0.1)">
       <use xlink:href="#DejaVuSans-33"/>
      </g>
     </g>
    </g>
    <g id="xtick_18">
     <g id="line2d_65">
      <path d="M 347.270275 272.521395 
L 347.270275 199.2 
" clip-path="url(#pd4c0c9a944)" style="fill: none; stroke: #b0b0b0; stroke-width: 0.8; stroke-linecap: square"/>
     </g>
     <g id="line2d_66">
      <g>
       <use xlink:href="#m754c14ee74" x="347.270275" y="272.521395" style="stroke: #000000; stroke-width: 0.8"/>
      </g>
     </g>
     <g id="text_23">
      <!-- 4 -->
      <g transform="translate(344.089025 287.119832)scale(0.1 -0.1)">
       <use xlink:href="#DejaVuSans-34"/>
      </g>
     </g>
    </g>
    <g id="xtick_19">
     <g id="line2d_67">
      <path d="M 418.097174 272.521395 
L 418.097174 199.2 
" clip-path="url(#pd4c0c9a944)" style="fill: none; stroke: #b0b0b0; stroke-width: 0.8; stroke-linecap: square"/>
     </g>
     <g id="line2d_68">
      <g>
       <use xlink:href="#m754c14ee74" x="418.097174" y="272.521395" style="stroke: #000000; stroke-width: 0.8"/>
      </g>
     </g>
     <g id="text_24">
      <!-- 5 -->
      <g transform="translate(414.915924 287.119832)scale(0.1 -0.1)">
       <use xlink:href="#DejaVuSans-35"/>
      </g>
     </g>
    </g>
   </g>
   <g id="matplotlib.axis_6">
    <g id="ytick_6">
     <g id="line2d_69">
      <path d="M 36.465625 268.518709 
L 433.19952 268.518709 
" clip-path="url(#pd4c0c9a944)" style="fill: none; stroke: #b0b0b0; stroke-width: 0.8; stroke-linecap: square"/>
     </g>
     <g id="line2d_70">
      <g>
       <use xlink:href="#m789e061df1" x="36.465625" y="268.518709" style="stroke: #000000; stroke-width: 0.8"/>
      </g>
     </g>
     <g id="text_25">
      <!-- 9.0 -->
      <g transform="translate(13.5625 272.317928)scale(0.1 -0.1)">
       <use xlink:href="#DejaVuSans-39"/>
       <use xlink:href="#DejaVuSans-2e" x="63.623047"/>
       <use xlink:href="#DejaVuSans-30" x="95.410156"/>
      </g>
     </g>
    </g>
    <g id="ytick_7">
     <g id="line2d_71">
      <path d="M 36.465625 233.105259 
L 433.19952 233.105259 
" clip-path="url(#pd4c0c9a944)" style="fill: none; stroke: #b0b0b0; stroke-width: 0.8; stroke-linecap: square"/>
     </g>
     <g id="line2d_72">
      <g>
       <use xlink:href="#m789e061df1" x="36.465625" y="233.105259" style="stroke: #000000; stroke-width: 0.8"/>
      </g>
     </g>
     <g id="text_26">
      <!-- 9.5 -->
      <g transform="translate(13.5625 236.904478)scale(0.1 -0.1)">
       <use xlink:href="#DejaVuSans-39"/>
       <use xlink:href="#DejaVuSans-2e" x="63.623047"/>
       <use xlink:href="#DejaVuSans-35" x="95.410156"/>
      </g>
     </g>
    </g>
   </g>
   <g id="LineCollection_7">
    <path d="M 76.357386 262.446993 
L 76.357386 209.274402 
" clip-path="url(#pd4c0c9a944)" style="fill: none; stroke: #000000; stroke-width: 1.5"/>
   </g>
   <g id="line2d_73">
    <g clip-path="url(#pd4c0c9a944)">
     <use xlink:href="#m8346199053" x="76.357386" y="262.446993" style="stroke: #000000"/>
    </g>
   </g>
   <g id="line2d_74">
    <g clip-path="url(#pd4c0c9a944)">
     <use xlink:href="#m8346199053" x="76.357386" y="209.274402" style="stroke: #000000"/>
    </g>
   </g>
   <g id="LineCollection_8">
    <path d="M 51.567971 243.965295 
L 51.567971 227.7561 
" clip-path="url(#pd4c0c9a944)" style="fill: none; stroke: #ff0000; stroke-width: 1.5"/>
   </g>
   <g id="line2d_75">
    <g clip-path="url(#pd4c0c9a944)">
     <use xlink:href="#m72b0d4503b" x="51.567971" y="243.965295" style="fill: #ff0000; stroke: #ff0000"/>
    </g>
   </g>
   <g id="line2d_76">
    <g clip-path="url(#pd4c0c9a944)">
     <use xlink:href="#m72b0d4503b" x="51.567971" y="227.7561" style="fill: #ff0000; stroke: #ff0000"/>
    </g>
   </g>
   <g id="LineCollection_9">
    <path d="M 63.962678 260.17449 
L 63.962678 211.546905 
" clip-path="url(#pd4c0c9a944)" style="fill: none; stroke: #0000ff; stroke-width: 1.5"/>
   </g>
   <g id="line2d_77">
    <g clip-path="url(#pd4c0c9a944)">
     <use xlink:href="#m1dce19dc44" x="63.962678" y="260.17449" style="fill: #0000ff; stroke: #0000ff"/>
    </g>
   </g>
   <g id="line2d_78">
    <g clip-path="url(#pd4c0c9a944)">
     <use xlink:href="#m1dce19dc44" x="63.962678" y="211.546905" style="fill: #0000ff; stroke: #0000ff"/>
    </g>
   </g>
   <g id="line2d_79">
    <path d="M 63.962678 213.981997 
L 418.097174 213.981997 
" clip-path="url(#pd4c0c9a944)" style="fill: none; stroke-dasharray: 5.55,2.4; stroke-dashoffset: 0; stroke: #000000; stroke-width: 1.5"/>
   </g>
   <g id="line2d_80">
    <g clip-path="url(#pd4c0c9a944)">
     <use xlink:href="#m0968c35605" x="76.357386" y="235.860698" style="stroke: #000000"/>
    </g>
   </g>
   <g id="line2d_81">
    <g clip-path="url(#pd4c0c9a944)">
     <use xlink:href="#ma21e3b07dc" x="51.567971" y="235.860698" style="fill: #ff0000; stroke: #ff0000"/>
    </g>
   </g>
   <g id="line2d_82">
    <g clip-path="url(#pd4c0c9a944)">
     <use xlink:href="#m2678e2f504" x="63.962678" y="235.860698" style="fill: #0000ff; stroke: #0000ff"/>
    </g>
   </g>
   <g id="patch_13">
    <path d="M 36.465625 272.521395 
L 36.465625 199.2 
" style="fill: none; stroke: #000000; stroke-width: 0.8; stroke-linejoin: miter; stroke-linecap: square"/>
   </g>
   <g id="patch_14">
    <path d="M 433.19952 272.521395 
L 433.19952 199.2 
" style="fill: none; stroke: #000000; stroke-width: 0.8; stroke-linejoin: miter; stroke-linecap: square"/>
   </g>
   <g id="patch_15">
    <path d="M 36.465625 272.521395 
L 433.19952 272.521395 
" style="fill: none; stroke: #000000; stroke-width: 0.8; stroke-linejoin: miter; stroke-linecap: square"/>
   </g>
   <g id="patch_16">
    <path d="M 36.465625 199.2 
L 433.19952 199.2 
" style="fill: none; stroke: #000000; stroke-width: 0.8; stroke-linejoin: miter; stroke-linecap: square"/>
   </g>
  </g>
 </g>
 <defs>
  <clipPath id="p81764a11d4">
   <rect x="36.465625" y="7.2" width="396.733895" height="73.321395"/>
  </clipPath>
  <clipPath id="p2f490d11ee">
   <rect x="36.465625" y="103.2" width="396.733895" height="73.321395"/>
  </clipPath>
  <clipPath id="pd4c0c9a944">
   <rect x="36.465625" y="199.2" width="396.733895" height="73.321395"/>
  </clipPath>
 </defs>
</svg>
