<?xml version="1.0" encoding="utf-8" standalone="no"?>
<!DOCTYPE svg PUBLIC "-//W3C//DTD SVG 1.1//EN"
  "http://www.w3.org/Graphics/SVG/1.1/DTD/svg11.dtd">
<!-- Created with matplotlib (https://matplotlib.org/) -->
<svg height="248.518125pt" version="1.1" viewBox="0 0 386.845313 248.518125" width="386.845313pt" xmlns="http://www.w3.org/2000/svg" xmlns:xlink="http://www.w3.org/1999/xlink">
 <metadata>
  <rdf:RDF xmlns:cc="http://creativecommons.org/ns#" xmlns:dc="http://purl.org/dc/elements/1.1/" xmlns:rdf="http://www.w3.org/1999/02/22-rdf-syntax-ns#">
   <cc:Work>
    <dc:type rdf:resource="http://purl.org/dc/dcmitype/StillImage"/>
    <dc:date>2021-10-24T19:28:47.336192</dc:date>
    <dc:format>image/svg+xml</dc:format>
    <dc:creator>
     <cc:Agent>
      <dc:title>Matplotlib v3.3.4, https://matplotlib.org/</dc:title>
     </cc:Agent>
    </dc:creator>
   </cc:Work>
  </rdf:RDF>
 </metadata>
 <defs>
  <style type="text/css">*{stroke-linecap:butt;stroke-linejoin:round;}</style>
 </defs>
 <g id="figure_1">
  <g id="patch_1">
   <path d="M -0 248.518125 
L 386.845313 248.518125 
L 386.845313 0 
L -0 0 
z
" style="fill:none;"/>
  </g>
  <g id="axes_1">
   <g id="patch_2">
    <path d="M 38.482813 224.64 
L 373.282813 224.64 
L 373.282813 7.2 
L 38.482813 7.2 
z
" style="fill:#ffffff;"/>
   </g>
   <g id="matplotlib.axis_1">
    <g id="xtick_1">
     <g id="line2d_1">
      <path clip-path="url(#p5bf5a3c7a3)" d="M 38.482813 224.64 
L 38.482813 7.2 
" style="fill:none;stroke:#b0b0b0;stroke-linecap:square;stroke-width:0.8;"/>
     </g>
     <g id="line2d_2">
      <defs>
       <path d="M 0 0 
L 0 3.5 
" id="m1524ceb51b" style="stroke:#000000;stroke-width:0.8;"/>
      </defs>
      <g>
       <use style="stroke:#000000;stroke-width:0.8;" x="38.482813" xlink:href="#m1524ceb51b" y="224.64"/>
      </g>
     </g>
     <g id="text_1">
      <!-- 0 -->
      <g transform="translate(35.301563 239.238437)scale(0.1 -0.1)">
       <defs>
        <path d="M 31.78125 66.40625 
Q 24.171875 66.40625 20.328125 58.90625 
Q 16.5 51.421875 16.5 36.375 
Q 16.5 21.390625 20.328125 13.890625 
Q 24.171875 6.390625 31.78125 6.390625 
Q 39.453125 6.390625 43.28125 13.890625 
Q 47.125 21.390625 47.125 36.375 
Q 47.125 51.421875 43.28125 58.90625 
Q 39.453125 66.40625 31.78125 66.40625 
z
M 31.78125 74.21875 
Q 44.046875 74.21875 50.515625 64.515625 
Q 56.984375 54.828125 56.984375 36.375 
Q 56.984375 17.96875 50.515625 8.265625 
Q 44.046875 -1.421875 31.78125 -1.421875 
Q 19.53125 -1.421875 13.0625 8.265625 
Q 6.59375 17.96875 6.59375 36.375 
Q 6.59375 54.828125 13.0625 64.515625 
Q 19.53125 74.21875 31.78125 74.21875 
z
" id="DejaVuSans-48"/>
       </defs>
       <use xlink:href="#DejaVuSans-48"/>
      </g>
     </g>
    </g>
    <g id="xtick_2">
     <g id="line2d_3">
      <path clip-path="url(#p5bf5a3c7a3)" d="M 105.442813 224.64 
L 105.442813 7.2 
" style="fill:none;stroke:#b0b0b0;stroke-linecap:square;stroke-width:0.8;"/>
     </g>
     <g id="line2d_4">
      <g>
       <use style="stroke:#000000;stroke-width:0.8;" x="105.442813" xlink:href="#m1524ceb51b" y="224.64"/>
      </g>
     </g>
     <g id="text_2">
      <!-- 2 -->
      <g transform="translate(102.261562 239.238437)scale(0.1 -0.1)">
       <defs>
        <path d="M 19.1875 8.296875 
L 53.609375 8.296875 
L 53.609375 0 
L 7.328125 0 
L 7.328125 8.296875 
Q 12.9375 14.109375 22.625 23.890625 
Q 32.328125 33.6875 34.8125 36.53125 
Q 39.546875 41.84375 41.421875 45.53125 
Q 43.3125 49.21875 43.3125 52.78125 
Q 43.3125 58.59375 39.234375 62.25 
Q 35.15625 65.921875 28.609375 65.921875 
Q 23.96875 65.921875 18.8125 64.3125 
Q 13.671875 62.703125 7.8125 59.421875 
L 7.8125 69.390625 
Q 13.765625 71.78125 18.9375 73 
Q 24.125 74.21875 28.421875 74.21875 
Q 39.75 74.21875 46.484375 68.546875 
Q 53.21875 62.890625 53.21875 53.421875 
Q 53.21875 48.921875 51.53125 44.890625 
Q 49.859375 40.875 45.40625 35.40625 
Q 44.1875 33.984375 37.640625 27.21875 
Q 31.109375 20.453125 19.1875 8.296875 
z
" id="DejaVuSans-50"/>
       </defs>
       <use xlink:href="#DejaVuSans-50"/>
      </g>
     </g>
    </g>
    <g id="xtick_3">
     <g id="line2d_5">
      <path clip-path="url(#p5bf5a3c7a3)" d="M 172.402813 224.64 
L 172.402813 7.2 
" style="fill:none;stroke:#b0b0b0;stroke-linecap:square;stroke-width:0.8;"/>
     </g>
     <g id="line2d_6">
      <g>
       <use style="stroke:#000000;stroke-width:0.8;" x="172.402813" xlink:href="#m1524ceb51b" y="224.64"/>
      </g>
     </g>
     <g id="text_3">
      <!-- 4 -->
      <g transform="translate(169.221563 239.238437)scale(0.1 -0.1)">
       <defs>
        <path d="M 37.796875 64.3125 
L 12.890625 25.390625 
L 37.796875 25.390625 
z
M 35.203125 72.90625 
L 47.609375 72.90625 
L 47.609375 25.390625 
L 58.015625 25.390625 
L 58.015625 17.1875 
L 47.609375 17.1875 
L 47.609375 0 
L 37.796875 0 
L 37.796875 17.1875 
L 4.890625 17.1875 
L 4.890625 26.703125 
z
" id="DejaVuSans-52"/>
       </defs>
       <use xlink:href="#DejaVuSans-52"/>
      </g>
     </g>
    </g>
    <g id="xtick_4">
     <g id="line2d_7">
      <path clip-path="url(#p5bf5a3c7a3)" d="M 239.362813 224.64 
L 239.362813 7.2 
" style="fill:none;stroke:#b0b0b0;stroke-linecap:square;stroke-width:0.8;"/>
     </g>
     <g id="line2d_8">
      <g>
       <use style="stroke:#000000;stroke-width:0.8;" x="239.362813" xlink:href="#m1524ceb51b" y="224.64"/>
      </g>
     </g>
     <g id="text_4">
      <!-- 6 -->
      <g transform="translate(236.181563 239.238437)scale(0.1 -0.1)">
       <defs>
        <path d="M 33.015625 40.375 
Q 26.375 40.375 22.484375 35.828125 
Q 18.609375 31.296875 18.609375 23.390625 
Q 18.609375 15.53125 22.484375 10.953125 
Q 26.375 6.390625 33.015625 6.390625 
Q 39.65625 6.390625 43.53125 10.953125 
Q 47.40625 15.53125 47.40625 23.390625 
Q 47.40625 31.296875 43.53125 35.828125 
Q 39.65625 40.375 33.015625 40.375 
z
M 52.59375 71.296875 
L 52.59375 62.3125 
Q 48.875 64.0625 45.09375 64.984375 
Q 41.3125 65.921875 37.59375 65.921875 
Q 27.828125 65.921875 22.671875 59.328125 
Q 17.53125 52.734375 16.796875 39.40625 
Q 19.671875 43.65625 24.015625 45.921875 
Q 28.375 48.1875 33.59375 48.1875 
Q 44.578125 48.1875 50.953125 41.515625 
Q 57.328125 34.859375 57.328125 23.390625 
Q 57.328125 12.15625 50.6875 5.359375 
Q 44.046875 -1.421875 33.015625 -1.421875 
Q 20.359375 -1.421875 13.671875 8.265625 
Q 6.984375 17.96875 6.984375 36.375 
Q 6.984375 53.65625 15.1875 63.9375 
Q 23.390625 74.21875 37.203125 74.21875 
Q 40.921875 74.21875 44.703125 73.484375 
Q 48.484375 72.75 52.59375 71.296875 
z
" id="DejaVuSans-54"/>
       </defs>
       <use xlink:href="#DejaVuSans-54"/>
      </g>
     </g>
    </g>
    <g id="xtick_5">
     <g id="line2d_9">
      <path clip-path="url(#p5bf5a3c7a3)" d="M 306.322813 224.64 
L 306.322813 7.2 
" style="fill:none;stroke:#b0b0b0;stroke-linecap:square;stroke-width:0.8;"/>
     </g>
     <g id="line2d_10">
      <g>
       <use style="stroke:#000000;stroke-width:0.8;" x="306.322813" xlink:href="#m1524ceb51b" y="224.64"/>
      </g>
     </g>
     <g id="text_5">
      <!-- 8 -->
      <g transform="translate(303.141563 239.238437)scale(0.1 -0.1)">
       <defs>
        <path d="M 31.78125 34.625 
Q 24.75 34.625 20.71875 30.859375 
Q 16.703125 27.09375 16.703125 20.515625 
Q 16.703125 13.921875 20.71875 10.15625 
Q 24.75 6.390625 31.78125 6.390625 
Q 38.8125 6.390625 42.859375 10.171875 
Q 46.921875 13.96875 46.921875 20.515625 
Q 46.921875 27.09375 42.890625 30.859375 
Q 38.875 34.625 31.78125 34.625 
z
M 21.921875 38.8125 
Q 15.578125 40.375 12.03125 44.71875 
Q 8.5 49.078125 8.5 55.328125 
Q 8.5 64.0625 14.71875 69.140625 
Q 20.953125 74.21875 31.78125 74.21875 
Q 42.671875 74.21875 48.875 69.140625 
Q 55.078125 64.0625 55.078125 55.328125 
Q 55.078125 49.078125 51.53125 44.71875 
Q 48 40.375 41.703125 38.8125 
Q 48.828125 37.15625 52.796875 32.3125 
Q 56.78125 27.484375 56.78125 20.515625 
Q 56.78125 9.90625 50.3125 4.234375 
Q 43.84375 -1.421875 31.78125 -1.421875 
Q 19.734375 -1.421875 13.25 4.234375 
Q 6.78125 9.90625 6.78125 20.515625 
Q 6.78125 27.484375 10.78125 32.3125 
Q 14.796875 37.15625 21.921875 38.8125 
z
M 18.3125 54.390625 
Q 18.3125 48.734375 21.84375 45.5625 
Q 25.390625 42.390625 31.78125 42.390625 
Q 38.140625 42.390625 41.71875 45.5625 
Q 45.3125 48.734375 45.3125 54.390625 
Q 45.3125 60.0625 41.71875 63.234375 
Q 38.140625 66.40625 31.78125 66.40625 
Q 25.390625 66.40625 21.84375 63.234375 
Q 18.3125 60.0625 18.3125 54.390625 
z
" id="DejaVuSans-56"/>
       </defs>
       <use xlink:href="#DejaVuSans-56"/>
      </g>
     </g>
    </g>
    <g id="xtick_6">
     <g id="line2d_11">
      <path clip-path="url(#p5bf5a3c7a3)" d="M 373.282813 224.64 
L 373.282813 7.2 
" style="fill:none;stroke:#b0b0b0;stroke-linecap:square;stroke-width:0.8;"/>
     </g>
     <g id="line2d_12">
      <g>
       <use style="stroke:#000000;stroke-width:0.8;" x="373.282813" xlink:href="#m1524ceb51b" y="224.64"/>
      </g>
     </g>
     <g id="text_6">
      <!-- 10 -->
      <g transform="translate(366.920313 239.238437)scale(0.1 -0.1)">
       <defs>
        <path d="M 12.40625 8.296875 
L 28.515625 8.296875 
L 28.515625 63.921875 
L 10.984375 60.40625 
L 10.984375 69.390625 
L 28.421875 72.90625 
L 38.28125 72.90625 
L 38.28125 8.296875 
L 54.390625 8.296875 
L 54.390625 0 
L 12.40625 0 
z
" id="DejaVuSans-49"/>
       </defs>
       <use xlink:href="#DejaVuSans-49"/>
       <use x="63.623047" xlink:href="#DejaVuSans-48"/>
      </g>
     </g>
    </g>
   </g>
   <g id="matplotlib.axis_2">
    <g id="ytick_1">
     <g id="line2d_13">
      <path clip-path="url(#p5bf5a3c7a3)" d="M 38.482813 209.684407 
L 373.282813 209.684407 
" style="fill:none;stroke:#b0b0b0;stroke-linecap:square;stroke-width:0.8;"/>
     </g>
     <g id="line2d_14">
      <defs>
       <path d="M 0 0 
L -3.5 0 
" id="m68ba9e88d1" style="stroke:#000000;stroke-width:0.8;"/>
      </defs>
      <g>
       <use style="stroke:#000000;stroke-width:0.8;" x="38.482813" xlink:href="#m68ba9e88d1" y="209.684407"/>
      </g>
     </g>
     <g id="text_7">
      <!-- −0.6 -->
      <g transform="translate(7.2 213.483626)scale(0.1 -0.1)">
       <defs>
        <path d="M 10.59375 35.5 
L 73.1875 35.5 
L 73.1875 27.203125 
L 10.59375 27.203125 
z
" id="DejaVuSans-8722"/>
        <path d="M 10.6875 12.40625 
L 21 12.40625 
L 21 0 
L 10.6875 0 
z
" id="DejaVuSans-46"/>
       </defs>
       <use xlink:href="#DejaVuSans-8722"/>
       <use x="83.789062" xlink:href="#DejaVuSans-48"/>
       <use x="147.412109" xlink:href="#DejaVuSans-46"/>
       <use x="179.199219" xlink:href="#DejaVuSans-54"/>
      </g>
     </g>
    </g>
    <g id="ytick_2">
     <g id="line2d_15">
      <path clip-path="url(#p5bf5a3c7a3)" d="M 38.482813 178.429602 
L 373.282813 178.429602 
" style="fill:none;stroke:#b0b0b0;stroke-linecap:square;stroke-width:0.8;"/>
     </g>
     <g id="line2d_16">
      <g>
       <use style="stroke:#000000;stroke-width:0.8;" x="38.482813" xlink:href="#m68ba9e88d1" y="178.429602"/>
      </g>
     </g>
     <g id="text_8">
      <!-- −0.4 -->
      <g transform="translate(7.2 182.228821)scale(0.1 -0.1)">
       <use xlink:href="#DejaVuSans-8722"/>
       <use x="83.789062" xlink:href="#DejaVuSans-48"/>
       <use x="147.412109" xlink:href="#DejaVuSans-46"/>
       <use x="179.199219" xlink:href="#DejaVuSans-52"/>
      </g>
     </g>
    </g>
    <g id="ytick_3">
     <g id="line2d_17">
      <path clip-path="url(#p5bf5a3c7a3)" d="M 38.482813 147.174797 
L 373.282813 147.174797 
" style="fill:none;stroke:#b0b0b0;stroke-linecap:square;stroke-width:0.8;"/>
     </g>
     <g id="line2d_18">
      <g>
       <use style="stroke:#000000;stroke-width:0.8;" x="38.482813" xlink:href="#m68ba9e88d1" y="147.174797"/>
      </g>
     </g>
     <g id="text_9">
      <!-- −0.2 -->
      <g transform="translate(7.2 150.974016)scale(0.1 -0.1)">
       <use xlink:href="#DejaVuSans-8722"/>
       <use x="83.789062" xlink:href="#DejaVuSans-48"/>
       <use x="147.412109" xlink:href="#DejaVuSans-46"/>
       <use x="179.199219" xlink:href="#DejaVuSans-50"/>
      </g>
     </g>
    </g>
    <g id="ytick_4">
     <g id="line2d_19">
      <path clip-path="url(#p5bf5a3c7a3)" d="M 38.482813 115.919992 
L 373.282813 115.919992 
" style="fill:none;stroke:#b0b0b0;stroke-linecap:square;stroke-width:0.8;"/>
     </g>
     <g id="line2d_20">
      <g>
       <use style="stroke:#000000;stroke-width:0.8;" x="38.482813" xlink:href="#m68ba9e88d1" y="115.919992"/>
      </g>
     </g>
     <g id="text_10">
      <!-- 0.0 -->
      <g transform="translate(15.579688 119.71921)scale(0.1 -0.1)">
       <use xlink:href="#DejaVuSans-48"/>
       <use x="63.623047" xlink:href="#DejaVuSans-46"/>
       <use x="95.410156" xlink:href="#DejaVuSans-48"/>
      </g>
     </g>
    </g>
    <g id="ytick_5">
     <g id="line2d_21">
      <path clip-path="url(#p5bf5a3c7a3)" d="M 38.482813 84.665187 
L 373.282813 84.665187 
" style="fill:none;stroke:#b0b0b0;stroke-linecap:square;stroke-width:0.8;"/>
     </g>
     <g id="line2d_22">
      <g>
       <use style="stroke:#000000;stroke-width:0.8;" x="38.482813" xlink:href="#m68ba9e88d1" y="84.665187"/>
      </g>
     </g>
     <g id="text_11">
      <!-- 0.2 -->
      <g transform="translate(15.579688 88.464405)scale(0.1 -0.1)">
       <use xlink:href="#DejaVuSans-48"/>
       <use x="63.623047" xlink:href="#DejaVuSans-46"/>
       <use x="95.410156" xlink:href="#DejaVuSans-50"/>
      </g>
     </g>
    </g>
    <g id="ytick_6">
     <g id="line2d_23">
      <path clip-path="url(#p5bf5a3c7a3)" d="M 38.482813 53.410381 
L 373.282813 53.410381 
" style="fill:none;stroke:#b0b0b0;stroke-linecap:square;stroke-width:0.8;"/>
     </g>
     <g id="line2d_24">
      <g>
       <use style="stroke:#000000;stroke-width:0.8;" x="38.482813" xlink:href="#m68ba9e88d1" y="53.410381"/>
      </g>
     </g>
     <g id="text_12">
      <!-- 0.4 -->
      <g transform="translate(15.579688 57.2096)scale(0.1 -0.1)">
       <use xlink:href="#DejaVuSans-48"/>
       <use x="63.623047" xlink:href="#DejaVuSans-46"/>
       <use x="95.410156" xlink:href="#DejaVuSans-52"/>
      </g>
     </g>
    </g>
    <g id="ytick_7">
     <g id="line2d_25">
      <path clip-path="url(#p5bf5a3c7a3)" d="M 38.482813 22.155576 
L 373.282813 22.155576 
" style="fill:none;stroke:#b0b0b0;stroke-linecap:square;stroke-width:0.8;"/>
     </g>
     <g id="line2d_26">
      <g>
       <use style="stroke:#000000;stroke-width:0.8;" x="38.482813" xlink:href="#m68ba9e88d1" y="22.155576"/>
      </g>
     </g>
     <g id="text_13">
      <!-- 0.6 -->
      <g transform="translate(15.579688 25.954795)scale(0.1 -0.1)">
       <use xlink:href="#DejaVuSans-48"/>
       <use x="63.623047" xlink:href="#DejaVuSans-46"/>
       <use x="95.410156" xlink:href="#DejaVuSans-54"/>
      </g>
     </g>
    </g>
   </g>
   <g id="line2d_27">
    <path clip-path="url(#p5bf5a3c7a3)" d="M 38.482813 35.959687 
L 40.495638 37.411372 
L 42.508464 41.713717 
L 44.521289 48.710503 
L 46.534115 58.147675 
L 48.546941 69.682568 
L 50.559766 82.89635 
L 54.585418 112.397859 
L 58.611069 142.40628 
L 60.623895 156.236458 
L 62.63672 168.602738 
L 64.649546 179.0561 
L 66.662372 187.216981 
L 68.675197 192.789057 
L 70.688023 195.570007 
L 72.700849 195.458852 
L 74.713674 192.45963 
L 76.7265 186.681242 
L 78.739326 178.333502 
L 80.752151 167.719519 
L 82.764977 155.224687 
L 84.777802 141.302696 
L 92.829105 81.837382 
L 94.841931 68.735691 
L 96.854756 57.347268 
L 98.867582 48.08563 
L 100.880408 41.287067 
L 102.893233 37.198437 
L 104.906059 35.968198 
L 106.918885 37.641021 
L 108.93171 42.156164 
L 110.944536 49.349684 
L 112.957362 58.960381 
L 114.970187 70.639289 
L 116.983013 83.962347 
L 121.008664 113.563727 
L 125.034316 143.504226 
L 127.047141 157.239645 
L 129.059967 169.474742 
L 131.072792 179.765258 
L 133.085618 187.737542 
L 135.098444 193.102121 
L 137.111269 195.664205 
L 139.124095 195.330765 
L 141.136921 192.113908 
L 143.149746 186.130439 
L 145.162572 177.597618 
L 147.175398 166.825273 
L 149.188223 154.20455 
L 151.201049 140.193709 
L 159.252352 80.78567 
L 161.265177 67.798858 
L 163.278003 56.55933 
L 165.290829 47.475197 
L 167.303654 40.876305 
L 169.31648 37.00226 
L 171.329305 35.993729 
L 173.342131 37.887333 
L 175.354957 42.614315 
L 177.367782 50.003036 
L 179.380608 59.785212 
L 181.393434 71.60565 
L 183.406259 85.035148 
L 187.431911 114.730098 
L 191.457562 144.5963 
L 193.470388 158.234037 
L 195.483213 170.335345 
L 197.496039 180.460824 
L 199.508865 188.242815 
L 201.52169 193.398754 
L 203.534516 195.741428 
L 205.547342 195.185773 
L 207.560167 191.751966 
L 209.572993 185.564689 
L 211.585819 176.848603 
L 213.598644 165.92019 
L 215.61147 153.176262 
L 217.624295 139.079554 
L 225.675598 79.741438 
L 227.688424 66.872269 
L 229.701249 55.784029 
L 231.714075 46.879335 
L 233.726901 40.481518 
L 235.739726 36.822883 
L 237.752552 36.036275 
L 239.765378 38.150258 
L 241.778203 43.08807 
L 243.791029 50.670421 
L 245.803855 60.621993 
L 247.81668 72.581444 
L 249.829506 86.114523 
L 253.855157 115.896721 
L 257.880808 145.682268 
L 259.893634 159.219421 
L 261.90646 171.184364 
L 263.919285 181.14265 
L 265.932111 188.732692 
L 267.944937 193.678893 
L 269.957762 195.801658 
L 271.970588 195.023907 
L 273.983414 191.373881 
L 275.996239 184.984114 
L 278.009065 176.086618 
L 280.021891 165.004463 
L 282.034716 152.140043 
L 284.047542 137.960468 
L 292.098845 78.704907 
L 294.11167 65.956121 
L 296.124496 55.02153 
L 298.137322 46.298171 
L 300.150147 40.102791 
L 302.162973 36.660344 
L 304.175798 36.095827 
L 306.188624 38.429738 
L 308.20145 43.57733 
L 310.214275 51.351696 
L 312.227101 61.470546 
L 314.239927 73.566464 
L 316.252752 87.200244 
L 320.278404 117.06335 
L 324.304055 146.761901 
L 326.316881 160.195587 
L 328.329706 172.021618 
L 330.342532 181.810592 
L 332.355358 189.207068 
L 334.368183 193.942479 
L 336.381009 195.844882 
L 338.393835 194.845201 
L 340.40666 190.979734 
L 342.419486 184.388836 
L 344.432311 175.311824 
L 346.445137 164.078287 
L 348.457963 151.096114 
L 352.483614 121.81778 
L 356.509265 91.690623 
L 358.522091 77.676299 
L 360.534917 65.050609 
L 362.547742 54.271995 
L 364.560568 45.731828 
L 366.573394 39.740203 
L 368.586219 36.514678 
L 370.599045 36.172372 
L 372.611871 38.725714 
L 374.624696 44.081991 
L 376.637522 52.046717 
L 378.650348 62.330691 
L 380.663173 74.5605 
L 382.675999 88.292078 
L 387.845313 126.820183 
L 387.845313 126.820183 
" style="fill:none;stroke:#1f77b4;stroke-linecap:square;stroke-width:1.5;"/>
   </g>
   <g id="line2d_28">
    <path clip-path="url(#p5bf5a3c7a3)" d="M 38.482813 146.46211 
L 40.495638 145.907616 
L 42.508464 144.264266 
L 44.521289 141.591732 
L 46.534115 137.987053 
L 48.546941 133.581116 
L 50.559766 128.5339 
L 54.585418 117.265327 
L 58.611069 105.80313 
L 60.623895 100.520472 
L 62.63672 95.796973 
L 64.649546 91.804144 
L 66.662372 88.686965 
L 68.675197 86.558621 
L 70.688023 85.496393 
L 72.700849 85.53885 
L 74.713674 86.684451 
L 76.7265 88.891599 
L 78.739326 92.080152 
L 80.752151 96.134333 
L 82.764977 100.906934 
L 84.777802 106.224661 
L 92.829105 128.93839 
L 94.841931 133.942791 
L 96.854756 138.292781 
L 98.867582 141.830412 
L 100.880408 144.427232 
L 102.893233 145.98895 
L 104.906059 146.458859 
L 106.918885 145.819898 
L 108.93171 144.095266 
L 110.944536 141.347587 
L 112.957362 137.676627 
L 114.970187 133.215681 
L 116.983013 128.126726 
L 121.008664 116.820005 
L 125.034316 105.383752 
L 127.047141 100.137288 
L 129.059967 95.463897 
L 131.072792 91.53327 
L 133.085618 88.488128 
L 135.098444 86.439041 
L 137.111269 85.460412 
L 139.124095 85.587775 
L 141.136921 86.816505 
L 143.149746 89.101987 
L 145.162572 92.361235 
L 147.175398 96.475904 
L 149.188223 101.296592 
L 151.201049 106.648257 
L 159.252352 129.340108 
L 161.265177 134.300629 
L 163.278003 138.593747 
L 165.290829 142.063577 
L 167.303654 144.584129 
L 169.31648 146.063883 
L 171.329305 146.449107 
L 173.342131 145.725815 
L 175.354957 143.920269 
L 177.367782 141.098028 
L 179.380608 137.36157 
L 181.393434 132.846564 
L 183.406259 127.716952 
L 187.431911 116.374491 
L 191.457562 104.966617 
L 193.470388 99.757465 
L 195.483213 95.135176 
L 197.496039 91.267587 
L 199.508865 88.295131 
L 201.52169 86.325738 
L 203.534516 85.430916 
L 205.547342 85.643157 
L 207.560167 86.954755 
L 209.572993 89.318084 
L 211.585819 92.647333 
L 213.598644 96.821615 
L 215.61147 101.689363 
L 217.624295 107.073826 
L 225.675598 129.738969 
L 227.688424 134.654555 
L 229.701249 138.889885 
L 231.714075 142.291176 
L 233.726901 144.734925 
L 235.739726 146.132399 
L 237.752552 146.432856 
L 239.765378 145.625387 
L 241.778203 143.73931 
L 243.791029 140.84311 
L 245.803855 137.041948 
L 247.81668 132.473844 
L 249.829506 127.304667 
L 253.855157 115.92888 
L 257.880808 104.551813 
L 259.893634 99.381081 
L 261.90646 94.81088 
L 263.919285 91.007153 
L 265.932111 88.108015 
L 267.944937 86.218734 
L 269.957762 85.40791 
L 271.970588 85.704985 
L 273.983414 87.09917 
L 275.996239 89.539844 
L 278.009065 92.938385 
L 280.021891 97.171392 
L 282.034716 102.085163 
L 286.060368 113.223079 
L 290.086019 124.749141 
L 292.098845 130.134889 
L 294.11167 135.004492 
L 296.124496 139.181134 
L 298.137322 142.513161 
L 300.150147 144.879585 
L 302.162973 146.194483 
L 304.175798 146.410109 
L 306.188624 145.518635 
L 308.20145 143.552429 
L 310.214275 140.582886 
L 312.227101 136.717829 
L 314.239927 132.0976 
L 316.252752 126.889959 
L 320.278404 115.483268 
L 324.304055 104.13943 
L 326.316881 99.008219 
L 328.329706 94.491077 
L 330.342532 90.752022 
L 332.355358 87.926819 
L 334.368183 86.118053 
L 336.381009 85.3914 
L 338.393835 85.773244 
L 340.40666 87.249721 
L 342.419486 89.76722 
L 344.432311 93.23433 
L 346.445137 97.52516 
L 348.457963 102.483909 
L 352.483614 113.667237 
L 356.509265 125.174787 
L 358.522091 130.527782 
L 360.534917 135.350367 
L 362.547742 139.467431 
L 364.560568 142.729485 
L 366.573394 145.018081 
L 368.586219 146.250122 
L 370.599045 146.380872 
L 372.611871 145.405582 
L 374.624696 143.359666 
L 376.637522 140.317412 
L 378.650348 136.389283 
L 380.663173 131.717912 
L 382.675999 126.472915 
L 387.845313 111.756489 
L 387.845313 111.756489 
" style="fill:none;stroke:#ff7f0e;stroke-linecap:square;stroke-width:1.5;"/>
   </g>
   <g id="line2d_29">
    <path clip-path="url(#p5bf5a3c7a3)" d="M 38.482813 214.756364 
L 40.495638 212.961982 
L 42.508464 207.643991 
L 44.521289 198.995489 
L 46.534115 187.330502 
L 48.546941 173.07259 
L 50.559766 156.739458 
L 54.585418 120.273588 
L 58.611069 83.181138 
L 60.623895 66.086099 
L 62.63672 50.800536 
L 64.649546 37.879469 
L 66.662372 27.792066 
L 68.675197 20.904601 
L 70.688023 17.467159 
L 72.700849 17.604553 
L 74.713674 21.311796 
L 76.7265 28.454276 
L 78.739326 38.77265 
L 80.752151 51.892254 
L 82.764977 67.336716 
L 84.777802 84.545243 
L 92.829105 158.048414 
L 94.841931 174.242995 
L 96.854756 188.31986 
L 98.867582 199.767874 
L 100.880408 208.17136 
L 102.893233 213.225185 
L 104.906059 214.745843 
L 106.918885 212.678121 
L 108.93171 207.097096 
L 110.944536 198.205418 
L 112.957362 186.325943 
L 114.970187 171.890018 
L 116.983013 155.421813 
L 121.008664 118.832495 
L 125.034316 81.824003 
L 127.047141 64.846091 
L 129.059967 49.72268 
L 131.072792 37.002903 
L 133.085618 27.148617 
L 135.098444 20.517633 
L 137.111269 17.350723 
L 139.124095 17.762877 
L 141.136921 21.739131 
L 143.149746 29.135106 
L 145.162572 39.682253 
L 147.175398 52.997604 
L 149.188223 68.597675 
L 151.201049 85.916027 
L 159.252352 159.348401 
L 161.265177 175.400985 
L 163.278003 189.293804 
L 165.290829 200.52241 
L 167.303654 208.67909 
L 169.31648 213.467673 
L 171.329305 214.714285 
L 173.342131 212.373662 
L 175.354957 206.530792 
L 177.367782 197.39783 
L 179.380608 185.306395 
L 181.393434 170.695531 
L 183.406259 154.095758 
L 187.431911 117.390781 
L 191.457562 80.474126 
L 193.470388 63.616955 
L 195.483213 48.658916 
L 197.496039 36.143136 
L 199.508865 26.524065 
L 201.52169 20.150974 
L 203.534516 17.25527 
L 205.547342 17.942097 
L 207.560167 22.186516 
L 209.572993 29.834411 
L 211.585819 40.608086 
L 213.598644 54.116348 
L 215.61147 69.868709 
L 217.624295 87.293199 
L 225.675598 160.639143 
L 227.688424 176.546312 
L 229.701249 190.252129 
L 231.714075 201.258936 
L 233.726901 209.167073 
L 235.739726 213.689395 
L 237.752552 214.661695 
L 239.765378 212.04867 
L 241.778203 205.945197 
L 243.791029 196.572897 
L 245.803855 184.272077 
L 247.81668 169.489383 
L 249.829506 152.761576 
L 253.855157 115.948755 
L 257.880808 79.131794 
L 259.893634 62.398954 
L 261.90646 47.60947 
L 263.919285 35.300352 
L 265.932111 25.918545 
L 267.944937 19.804703 
L 269.957762 17.180822 
L 271.970588 18.142175 
L 273.983414 22.653855 
L 275.996239 30.552042 
L 278.009065 41.549952 
L 280.021891 55.248249 
L 282.034716 71.149546 
L 284.047542 88.676464 
L 292.098845 161.920366 
L 294.11167 177.678732 
L 296.124496 191.19463 
L 298.137322 201.977295 
L 300.150147 209.635206 
L 302.162973 213.890304 
L 304.175798 214.588085 
L 306.188624 211.703213 
L 308.20145 205.340438 
L 310.214275 195.730794 
L 312.227101 183.223208 
L 314.239927 168.271831 
L 316.252752 151.419552 
L 320.278404 114.506723 
L 324.304055 77.797294 
L 326.316881 61.192346 
L 328.329706 46.574567 
L 330.342532 34.474731 
L 332.355358 25.332184 
L 334.368183 19.478893 
L 336.381009 17.127393 
L 338.393835 18.363068 
L 340.40666 23.141048 
L 342.419486 31.287846 
L 344.432311 42.507649 
L 346.445137 56.393065 
L 348.457963 72.439913 
L 352.483614 108.629925 
L 356.509265 145.869138 
L 358.522091 163.191795 
L 360.534917 178.798006 
L 362.547742 192.121107 
L 364.560568 202.677333 
L 366.573394 210.083388 
L 368.586219 214.070357 
L 370.599045 214.49347 
L 372.611871 211.337366 
L 374.624696 204.716644 
L 376.637522 194.871701 
L 378.650348 182.160011 
L 380.663173 167.043135 
L 382.675999 150.06997 
L 387.845313 102.446614 
L 387.845313 102.446614 
" style="fill:none;stroke:#2ca02c;stroke-linecap:square;stroke-width:1.5;"/>
   </g>
   <g id="line2d_30">
    <path clip-path="url(#p5bf5a3c7a3)" d="M 38.482813 146.46211 
L 40.495638 145.907616 
L 42.508464 144.264266 
L 44.521289 141.591732 
L 46.534115 137.987053 
L 48.546941 133.581116 
L 50.559766 128.5339 
L 54.585418 117.265327 
L 58.611069 105.80313 
L 60.623895 100.520472 
L 62.63672 95.796973 
L 64.649546 91.804144 
L 66.662372 88.686965 
L 68.675197 86.558621 
L 70.688023 85.496393 
L 72.700849 85.53885 
L 74.713674 86.684451 
L 76.7265 88.891599 
L 78.739326 92.080152 
L 80.752151 96.134333 
L 82.764977 100.906934 
L 84.777802 106.224661 
L 92.829105 128.93839 
L 94.841931 133.942791 
L 96.854756 138.292781 
L 98.867582 141.830412 
L 100.880408 144.427232 
L 102.893233 145.98895 
L 104.906059 146.458859 
L 106.918885 145.819898 
L 108.93171 144.095266 
L 110.944536 141.347587 
L 112.957362 137.676627 
L 114.970187 133.215681 
L 116.983013 128.126726 
L 121.008664 116.820005 
L 125.034316 105.383752 
L 127.047141 100.137288 
L 129.059967 95.463897 
L 131.072792 91.53327 
L 133.085618 88.488128 
L 135.098444 86.439041 
L 137.111269 85.460412 
L 139.124095 85.587775 
L 141.136921 86.816505 
L 143.149746 89.101987 
L 145.162572 92.361235 
L 147.175398 96.475904 
L 149.188223 101.296592 
L 151.201049 106.648257 
L 159.252352 129.340108 
L 161.265177 134.300629 
L 163.278003 138.593747 
L 165.290829 142.063577 
L 167.303654 144.584129 
L 169.31648 146.063883 
L 171.329305 146.449107 
L 173.342131 145.725815 
L 175.354957 143.920269 
L 177.367782 141.098028 
L 179.380608 137.36157 
L 181.393434 132.846564 
L 183.406259 127.716952 
L 187.431911 116.374491 
L 191.457562 104.966617 
L 193.470388 99.757465 
L 195.483213 95.135176 
L 197.496039 91.267587 
L 199.508865 88.295131 
L 201.52169 86.325738 
L 203.534516 85.430916 
L 205.547342 85.643157 
L 207.560167 86.954755 
L 209.572993 89.318084 
L 211.585819 92.647333 
L 213.598644 96.821615 
L 215.61147 101.689363 
L 217.624295 107.073826 
L 225.675598 129.738969 
L 227.688424 134.654555 
L 229.701249 138.889885 
L 231.714075 142.291176 
L 233.726901 144.734925 
L 235.739726 146.132399 
L 237.752552 146.432856 
L 239.765378 145.625387 
L 241.778203 143.73931 
L 243.791029 140.84311 
L 245.803855 137.041948 
L 247.81668 132.473844 
L 249.829506 127.304667 
L 253.855157 115.92888 
L 257.880808 104.551813 
L 259.893634 99.381081 
L 261.90646 94.81088 
L 263.919285 91.007153 
L 265.932111 88.108015 
L 267.944937 86.218734 
L 269.957762 85.40791 
L 271.970588 85.704985 
L 273.983414 87.09917 
L 275.996239 89.539844 
L 278.009065 92.938385 
L 280.021891 97.171392 
L 282.034716 102.085163 
L 286.060368 113.223079 
L 290.086019 124.749141 
L 292.098845 130.134889 
L 294.11167 135.004492 
L 296.124496 139.181134 
L 298.137322 142.513161 
L 300.150147 144.879585 
L 302.162973 146.194483 
L 304.175798 146.410109 
L 306.188624 145.518635 
L 308.20145 143.552429 
L 310.214275 140.582886 
L 312.227101 136.717829 
L 314.239927 132.0976 
L 316.252752 126.889959 
L 320.278404 115.483268 
L 324.304055 104.13943 
L 326.316881 99.008219 
L 328.329706 94.491077 
L 330.342532 90.752022 
L 332.355358 87.926819 
L 334.368183 86.118053 
L 336.381009 85.3914 
L 338.393835 85.773244 
L 340.40666 87.249721 
L 342.419486 89.76722 
L 344.432311 93.23433 
L 346.445137 97.52516 
L 348.457963 102.483909 
L 352.483614 113.667237 
L 356.509265 125.174787 
L 358.522091 130.527782 
L 360.534917 135.350367 
L 362.547742 139.467431 
L 364.560568 142.729485 
L 366.573394 145.018081 
L 368.586219 146.250122 
L 370.599045 146.380872 
L 372.611871 145.405582 
L 374.624696 143.359666 
L 376.637522 140.317412 
L 378.650348 136.389283 
L 380.663173 131.717912 
L 382.675999 126.472915 
L 387.845313 111.756489 
L 387.845313 111.756489 
" style="fill:none;stroke:#d62728;stroke-linecap:square;stroke-width:1.5;"/>
   </g>
   <g id="line2d_31">
    <path clip-path="url(#p5bf5a3c7a3)" d="M 38.482813 35.959687 
L 40.495638 37.411372 
L 42.508464 41.713717 
L 44.521289 48.710503 
L 46.534115 58.147675 
L 48.546941 69.682568 
L 50.559766 82.89635 
L 54.585418 112.397859 
L 58.611069 142.40628 
L 60.623895 156.236458 
L 62.63672 168.602738 
L 64.649546 179.0561 
L 66.662372 187.216981 
L 68.675197 192.789057 
L 70.688023 195.570007 
L 72.700849 195.458852 
L 74.713674 192.45963 
L 76.7265 186.681242 
L 78.739326 178.333502 
L 80.752151 167.719519 
L 82.764977 155.224687 
L 84.777802 141.302696 
L 92.829105 81.837382 
L 94.841931 68.735691 
L 96.854756 57.347268 
L 98.867582 48.08563 
L 100.880408 41.287067 
L 102.893233 37.198437 
L 104.906059 35.968198 
L 106.918885 37.641021 
L 108.93171 42.156164 
L 110.944536 49.349684 
L 112.957362 58.960381 
L 114.970187 70.639289 
L 116.983013 83.962347 
L 121.008664 113.563727 
L 125.034316 143.504226 
L 127.047141 157.239645 
L 129.059967 169.474742 
L 131.072792 179.765258 
L 133.085618 187.737542 
L 135.098444 193.102121 
L 137.111269 195.664205 
L 139.124095 195.330765 
L 141.136921 192.113908 
L 143.149746 186.130439 
L 145.162572 177.597618 
L 147.175398 166.825273 
L 149.188223 154.20455 
L 151.201049 140.193709 
L 159.252352 80.78567 
L 161.265177 67.798858 
L 163.278003 56.55933 
L 165.290829 47.475197 
L 167.303654 40.876305 
L 169.31648 37.00226 
L 171.329305 35.993729 
L 173.342131 37.887333 
L 175.354957 42.614315 
L 177.367782 50.003036 
L 179.380608 59.785212 
L 181.393434 71.60565 
L 183.406259 85.035148 
L 187.431911 114.730098 
L 191.457562 144.5963 
L 193.470388 158.234037 
L 195.483213 170.335345 
L 197.496039 180.460824 
L 199.508865 188.242815 
L 201.52169 193.398754 
L 203.534516 195.741428 
L 205.547342 195.185773 
L 207.560167 191.751966 
L 209.572993 185.564689 
L 211.585819 176.848603 
L 213.598644 165.92019 
L 215.61147 153.176262 
L 217.624295 139.079554 
L 225.675598 79.741438 
L 227.688424 66.872269 
L 229.701249 55.784029 
L 231.714075 46.879335 
L 233.726901 40.481518 
L 235.739726 36.822883 
L 237.752552 36.036275 
L 239.765378 38.150258 
L 241.778203 43.08807 
L 243.791029 50.670421 
L 245.803855 60.621993 
L 247.81668 72.581444 
L 249.829506 86.114523 
L 253.855157 115.896721 
L 257.880808 145.682268 
L 259.893634 159.219421 
L 261.90646 171.184364 
L 263.919285 181.14265 
L 265.932111 188.732692 
L 267.944937 193.678893 
L 269.957762 195.801658 
L 271.970588 195.023907 
L 273.983414 191.373881 
L 275.996239 184.984114 
L 278.009065 176.086618 
L 280.021891 165.004463 
L 282.034716 152.140043 
L 284.047542 137.960468 
L 292.098845 78.704907 
L 294.11167 65.956121 
L 296.124496 55.02153 
L 298.137322 46.298171 
L 300.150147 40.102791 
L 302.162973 36.660344 
L 304.175798 36.095827 
L 306.188624 38.429738 
L 308.20145 43.57733 
L 310.214275 51.351696 
L 312.227101 61.470546 
L 314.239927 73.566464 
L 316.252752 87.200244 
L 320.278404 117.06335 
L 324.304055 146.761901 
L 326.316881 160.195587 
L 328.329706 172.021618 
L 330.342532 181.810592 
L 332.355358 189.207068 
L 334.368183 193.942479 
L 336.381009 195.844882 
L 338.393835 194.845201 
L 340.40666 190.979734 
L 342.419486 184.388836 
L 344.432311 175.311824 
L 346.445137 164.078287 
L 348.457963 151.096114 
L 352.483614 121.81778 
L 356.509265 91.690623 
L 358.522091 77.676299 
L 360.534917 65.050609 
L 362.547742 54.271995 
L 364.560568 45.731828 
L 366.573394 39.740203 
L 368.586219 36.514678 
L 370.599045 36.172372 
L 372.611871 38.725714 
L 374.624696 44.081991 
L 376.637522 52.046717 
L 378.650348 62.330691 
L 380.663173 74.5605 
L 382.675999 88.292078 
L 387.845313 126.820183 
L 387.845313 126.820183 
" style="fill:none;stroke:#9467bd;stroke-linecap:square;stroke-width:1.5;"/>
   </g>
   <g id="patch_3">
    <path d="M 38.482813 224.64 
L 38.482813 7.2 
" style="fill:none;stroke:#000000;stroke-linecap:square;stroke-linejoin:miter;stroke-width:0.8;"/>
   </g>
   <g id="patch_4">
    <path d="M 373.282813 224.64 
L 373.282813 7.2 
" style="fill:none;stroke:#000000;stroke-linecap:square;stroke-linejoin:miter;stroke-width:0.8;"/>
   </g>
   <g id="patch_5">
    <path d="M 38.482813 224.64 
L 373.282813 224.64 
" style="fill:none;stroke:#000000;stroke-linecap:square;stroke-linejoin:miter;stroke-width:0.8;"/>
   </g>
   <g id="patch_6">
    <path d="M 38.482813 7.2 
L 373.282813 7.2 
" style="fill:none;stroke:#000000;stroke-linecap:square;stroke-linejoin:miter;stroke-width:0.8;"/>
   </g>
  </g>
 </g>
 <defs>
  <clipPath id="p5bf5a3c7a3">
   <rect height="217.44" width="334.8" x="38.482813" y="7.2"/>
  </clipPath>
 </defs>
</svg>
