<?xml version="1.0" encoding="utf-8" standalone="no"?>
<!DOCTYPE svg PUBLIC "-//W3C//DTD SVG 1.1//EN"
  "http://www.w3.org/Graphics/SVG/1.1/DTD/svg11.dtd">
<svg xmlns:xlink="http://www.w3.org/1999/xlink" width="584.39952pt" height="728.39952pt" viewBox="0 0 584.39952 728.39952" xmlns="http://www.w3.org/2000/svg" version="1.1">
 <metadata>
  <rdf:RDF xmlns:dc="http://purl.org/dc/elements/1.1/" xmlns:cc="http://creativecommons.org/ns#" xmlns:rdf="http://www.w3.org/1999/02/22-rdf-syntax-ns#">
   <cc:Work>
    <dc:type rdf:resource="http://purl.org/dc/dcmitype/StillImage"/>
    <dc:date>2021-12-12T10:59:38.606925</dc:date>
    <dc:format>image/svg+xml</dc:format>
    <dc:creator>
     <cc:Agent>
      <dc:title>Matplotlib v3.5.0, https://matplotlib.org/</dc:title>
     </cc:Agent>
    </dc:creator>
   </cc:Work>
  </rdf:RDF>
 </metadata>
 <defs>
  <style type="text/css">*{stroke-linejoin: round; stroke-linecap: butt}</style>
 </defs>
 <g id="figure_1">
  <g id="patch_1">
   <path d="M 0 728.39952 
L 584.39952 728.39952 
L 584.39952 0 
L 0 0 
L 0 728.39952 
z
" style="fill: none"/>
  </g>
  <g id="axes_1">
   <g id="patch_2">
    <path d="M 42.828125 704.521395 
L 195.032625 704.521395 
L 195.032625 7.2 
L 42.828125 7.2 
z
" style="fill: #ffffff"/>
   </g>
   <g id="matplotlib.axis_1">
    <g id="xtick_1">
     <g id="line2d_1">
      <defs>
       <path id="mf52c903600" d="M 0 0 
L 0 3.5 
" style="stroke: #000000; stroke-width: 0.8"/>
      </defs>
      <g>
       <use xlink:href="#mf52c903600" x="54.272558" y="704.521395" style="stroke: #000000; stroke-width: 0.8"/>
      </g>
     </g>
     <g id="text_1">
      <!-- Group 0.0 -->
      <g transform="translate(29.512402 719.119832)scale(0.1 -0.1)">
       <defs>
        <path id="DejaVuSans-47" d="M 3809 666 
L 3809 1919 
L 2778 1919 
L 2778 2438 
L 4434 2438 
L 4434 434 
Q 4069 175 3628 42 
Q 3188 -91 2688 -91 
Q 1594 -91 976 548 
Q 359 1188 359 2328 
Q 359 3472 976 4111 
Q 1594 4750 2688 4750 
Q 3144 4750 3555 4637 
Q 3966 4525 4313 4306 
L 4313 3634 
Q 3963 3931 3569 4081 
Q 3175 4231 2741 4231 
Q 1884 4231 1454 3753 
Q 1025 3275 1025 2328 
Q 1025 1384 1454 906 
Q 1884 428 2741 428 
Q 3075 428 3337 486 
Q 3600 544 3809 666 
z
" transform="scale(0.015625)"/>
        <path id="DejaVuSans-72" d="M 2631 2963 
Q 2534 3019 2420 3045 
Q 2306 3072 2169 3072 
Q 1681 3072 1420 2755 
Q 1159 2438 1159 1844 
L 1159 0 
L 581 0 
L 581 3500 
L 1159 3500 
L 1159 2956 
Q 1341 3275 1631 3429 
Q 1922 3584 2338 3584 
Q 2397 3584 2469 3576 
Q 2541 3569 2628 3553 
L 2631 2963 
z
" transform="scale(0.015625)"/>
        <path id="DejaVuSans-6f" d="M 1959 3097 
Q 1497 3097 1228 2736 
Q 959 2375 959 1747 
Q 959 1119 1226 758 
Q 1494 397 1959 397 
Q 2419 397 2687 759 
Q 2956 1122 2956 1747 
Q 2956 2369 2687 2733 
Q 2419 3097 1959 3097 
z
M 1959 3584 
Q 2709 3584 3137 3096 
Q 3566 2609 3566 1747 
Q 3566 888 3137 398 
Q 2709 -91 1959 -91 
Q 1206 -91 779 398 
Q 353 888 353 1747 
Q 353 2609 779 3096 
Q 1206 3584 1959 3584 
z
" transform="scale(0.015625)"/>
        <path id="DejaVuSans-75" d="M 544 1381 
L 544 3500 
L 1119 3500 
L 1119 1403 
Q 1119 906 1312 657 
Q 1506 409 1894 409 
Q 2359 409 2629 706 
Q 2900 1003 2900 1516 
L 2900 3500 
L 3475 3500 
L 3475 0 
L 2900 0 
L 2900 538 
Q 2691 219 2414 64 
Q 2138 -91 1772 -91 
Q 1169 -91 856 284 
Q 544 659 544 1381 
z
M 1991 3584 
L 1991 3584 
z
" transform="scale(0.015625)"/>
        <path id="DejaVuSans-70" d="M 1159 525 
L 1159 -1331 
L 581 -1331 
L 581 3500 
L 1159 3500 
L 1159 2969 
Q 1341 3281 1617 3432 
Q 1894 3584 2278 3584 
Q 2916 3584 3314 3078 
Q 3713 2572 3713 1747 
Q 3713 922 3314 415 
Q 2916 -91 2278 -91 
Q 1894 -91 1617 61 
Q 1341 213 1159 525 
z
M 3116 1747 
Q 3116 2381 2855 2742 
Q 2594 3103 2138 3103 
Q 1681 3103 1420 2742 
Q 1159 2381 1159 1747 
Q 1159 1113 1420 752 
Q 1681 391 2138 391 
Q 2594 391 2855 752 
Q 3116 1113 3116 1747 
z
" transform="scale(0.015625)"/>
        <path id="DejaVuSans-20" transform="scale(0.015625)"/>
        <path id="DejaVuSans-30" d="M 2034 4250 
Q 1547 4250 1301 3770 
Q 1056 3291 1056 2328 
Q 1056 1369 1301 889 
Q 1547 409 2034 409 
Q 2525 409 2770 889 
Q 3016 1369 3016 2328 
Q 3016 3291 2770 3770 
Q 2525 4250 2034 4250 
z
M 2034 4750 
Q 2819 4750 3233 4129 
Q 3647 3509 3647 2328 
Q 3647 1150 3233 529 
Q 2819 -91 2034 -91 
Q 1250 -91 836 529 
Q 422 1150 422 2328 
Q 422 3509 836 4129 
Q 1250 4750 2034 4750 
z
" transform="scale(0.015625)"/>
        <path id="DejaVuSans-2e" d="M 684 794 
L 1344 794 
L 1344 0 
L 684 0 
L 684 794 
z
" transform="scale(0.015625)"/>
       </defs>
       <use xlink:href="#DejaVuSans-47"/>
       <use xlink:href="#DejaVuSans-72" x="77.490234"/>
       <use xlink:href="#DejaVuSans-6f" x="116.353516"/>
       <use xlink:href="#DejaVuSans-75" x="177.535156"/>
       <use xlink:href="#DejaVuSans-70" x="240.914062"/>
       <use xlink:href="#DejaVuSans-20" x="304.390625"/>
       <use xlink:href="#DejaVuSans-30" x="336.177734"/>
       <use xlink:href="#DejaVuSans-2e" x="399.800781"/>
       <use xlink:href="#DejaVuSans-30" x="431.587891"/>
      </g>
     </g>
    </g>
    <g id="xtick_2">
     <g id="line2d_2">
      <g>
       <use xlink:href="#mf52c903600" x="80.135685" y="704.521395" style="stroke: #000000; stroke-width: 0.8"/>
      </g>
     </g>
     <g id="text_2">
      <!-- Group 1.0 -->
      <g transform="translate(55.375529 719.119832)scale(0.1 -0.1)">
       <defs>
        <path id="DejaVuSans-31" d="M 794 531 
L 1825 531 
L 1825 4091 
L 703 3866 
L 703 4441 
L 1819 4666 
L 2450 4666 
L 2450 531 
L 3481 531 
L 3481 0 
L 794 0 
L 794 531 
z
" transform="scale(0.015625)"/>
       </defs>
       <use xlink:href="#DejaVuSans-47"/>
       <use xlink:href="#DejaVuSans-72" x="77.490234"/>
       <use xlink:href="#DejaVuSans-6f" x="116.353516"/>
       <use xlink:href="#DejaVuSans-75" x="177.535156"/>
       <use xlink:href="#DejaVuSans-70" x="240.914062"/>
       <use xlink:href="#DejaVuSans-20" x="304.390625"/>
       <use xlink:href="#DejaVuSans-31" x="336.177734"/>
       <use xlink:href="#DejaVuSans-2e" x="399.800781"/>
       <use xlink:href="#DejaVuSans-30" x="431.587891"/>
      </g>
     </g>
    </g>
    <g id="xtick_3">
     <g id="line2d_3">
      <g>
       <use xlink:href="#mf52c903600" x="105.998812" y="704.521395" style="stroke: #000000; stroke-width: 0.8"/>
      </g>
     </g>
     <g id="text_3">
      <!-- Group 2.0 -->
      <g transform="translate(81.238655 719.119832)scale(0.1 -0.1)">
       <defs>
        <path id="DejaVuSans-32" d="M 1228 531 
L 3431 531 
L 3431 0 
L 469 0 
L 469 531 
Q 828 903 1448 1529 
Q 2069 2156 2228 2338 
Q 2531 2678 2651 2914 
Q 2772 3150 2772 3378 
Q 2772 3750 2511 3984 
Q 2250 4219 1831 4219 
Q 1534 4219 1204 4116 
Q 875 4013 500 3803 
L 500 4441 
Q 881 4594 1212 4672 
Q 1544 4750 1819 4750 
Q 2544 4750 2975 4387 
Q 3406 4025 3406 3419 
Q 3406 3131 3298 2873 
Q 3191 2616 2906 2266 
Q 2828 2175 2409 1742 
Q 1991 1309 1228 531 
z
" transform="scale(0.015625)"/>
       </defs>
       <use xlink:href="#DejaVuSans-47"/>
       <use xlink:href="#DejaVuSans-72" x="77.490234"/>
       <use xlink:href="#DejaVuSans-6f" x="116.353516"/>
       <use xlink:href="#DejaVuSans-75" x="177.535156"/>
       <use xlink:href="#DejaVuSans-70" x="240.914062"/>
       <use xlink:href="#DejaVuSans-20" x="304.390625"/>
       <use xlink:href="#DejaVuSans-32" x="336.177734"/>
       <use xlink:href="#DejaVuSans-2e" x="399.800781"/>
       <use xlink:href="#DejaVuSans-30" x="431.587891"/>
      </g>
     </g>
    </g>
    <g id="xtick_4">
     <g id="line2d_4">
      <g>
       <use xlink:href="#mf52c903600" x="131.861938" y="704.521395" style="stroke: #000000; stroke-width: 0.8"/>
      </g>
     </g>
     <g id="text_4">
      <!-- Group 3.0 -->
      <g transform="translate(107.101782 719.119832)scale(0.1 -0.1)">
       <defs>
        <path id="DejaVuSans-33" d="M 2597 2516 
Q 3050 2419 3304 2112 
Q 3559 1806 3559 1356 
Q 3559 666 3084 287 
Q 2609 -91 1734 -91 
Q 1441 -91 1130 -33 
Q 819 25 488 141 
L 488 750 
Q 750 597 1062 519 
Q 1375 441 1716 441 
Q 2309 441 2620 675 
Q 2931 909 2931 1356 
Q 2931 1769 2642 2001 
Q 2353 2234 1838 2234 
L 1294 2234 
L 1294 2753 
L 1863 2753 
Q 2328 2753 2575 2939 
Q 2822 3125 2822 3475 
Q 2822 3834 2567 4026 
Q 2313 4219 1838 4219 
Q 1578 4219 1281 4162 
Q 984 4106 628 3988 
L 628 4550 
Q 988 4650 1302 4700 
Q 1616 4750 1894 4750 
Q 2613 4750 3031 4423 
Q 3450 4097 3450 3541 
Q 3450 3153 3228 2886 
Q 3006 2619 2597 2516 
z
" transform="scale(0.015625)"/>
       </defs>
       <use xlink:href="#DejaVuSans-47"/>
       <use xlink:href="#DejaVuSans-72" x="77.490234"/>
       <use xlink:href="#DejaVuSans-6f" x="116.353516"/>
       <use xlink:href="#DejaVuSans-75" x="177.535156"/>
       <use xlink:href="#DejaVuSans-70" x="240.914062"/>
       <use xlink:href="#DejaVuSans-20" x="304.390625"/>
       <use xlink:href="#DejaVuSans-33" x="336.177734"/>
       <use xlink:href="#DejaVuSans-2e" x="399.800781"/>
       <use xlink:href="#DejaVuSans-30" x="431.587891"/>
      </g>
     </g>
    </g>
    <g id="xtick_5">
     <g id="line2d_5">
      <g>
       <use xlink:href="#mf52c903600" x="157.725065" y="704.521395" style="stroke: #000000; stroke-width: 0.8"/>
      </g>
     </g>
     <g id="text_5">
      <!-- Group 4.0 -->
      <g transform="translate(132.964908 719.119832)scale(0.1 -0.1)">
       <defs>
        <path id="DejaVuSans-34" d="M 2419 4116 
L 825 1625 
L 2419 1625 
L 2419 4116 
z
M 2253 4666 
L 3047 4666 
L 3047 1625 
L 3713 1625 
L 3713 1100 
L 3047 1100 
L 3047 0 
L 2419 0 
L 2419 1100 
L 313 1100 
L 313 1709 
L 2253 4666 
z
" transform="scale(0.015625)"/>
       </defs>
       <use xlink:href="#DejaVuSans-47"/>
       <use xlink:href="#DejaVuSans-72" x="77.490234"/>
       <use xlink:href="#DejaVuSans-6f" x="116.353516"/>
       <use xlink:href="#DejaVuSans-75" x="177.535156"/>
       <use xlink:href="#DejaVuSans-70" x="240.914062"/>
       <use xlink:href="#DejaVuSans-20" x="304.390625"/>
       <use xlink:href="#DejaVuSans-34" x="336.177734"/>
       <use xlink:href="#DejaVuSans-2e" x="399.800781"/>
       <use xlink:href="#DejaVuSans-30" x="431.587891"/>
      </g>
     </g>
    </g>
    <g id="xtick_6">
     <g id="line2d_6">
      <g>
       <use xlink:href="#mf52c903600" x="183.588191" y="704.521395" style="stroke: #000000; stroke-width: 0.8"/>
      </g>
     </g>
     <g id="text_6">
      <!-- Group 5.0 -->
      <g transform="translate(158.828035 719.119832)scale(0.1 -0.1)">
       <defs>
        <path id="DejaVuSans-35" d="M 691 4666 
L 3169 4666 
L 3169 4134 
L 1269 4134 
L 1269 2991 
Q 1406 3038 1543 3061 
Q 1681 3084 1819 3084 
Q 2600 3084 3056 2656 
Q 3513 2228 3513 1497 
Q 3513 744 3044 326 
Q 2575 -91 1722 -91 
Q 1428 -91 1123 -41 
Q 819 9 494 109 
L 494 744 
Q 775 591 1075 516 
Q 1375 441 1709 441 
Q 2250 441 2565 725 
Q 2881 1009 2881 1497 
Q 2881 1984 2565 2268 
Q 2250 2553 1709 2553 
Q 1456 2553 1204 2497 
Q 953 2441 691 2322 
L 691 4666 
z
" transform="scale(0.015625)"/>
       </defs>
       <use xlink:href="#DejaVuSans-47"/>
       <use xlink:href="#DejaVuSans-72" x="77.490234"/>
       <use xlink:href="#DejaVuSans-6f" x="116.353516"/>
       <use xlink:href="#DejaVuSans-75" x="177.535156"/>
       <use xlink:href="#DejaVuSans-70" x="240.914062"/>
       <use xlink:href="#DejaVuSans-20" x="304.390625"/>
       <use xlink:href="#DejaVuSans-35" x="336.177734"/>
       <use xlink:href="#DejaVuSans-2e" x="399.800781"/>
       <use xlink:href="#DejaVuSans-30" x="431.587891"/>
      </g>
     </g>
    </g>
   </g>
   <g id="matplotlib.axis_2">
    <g id="ytick_1">
     <g id="line2d_7">
      <defs>
       <path id="mba75a6ee81" d="M 0 0 
L -3.5 0 
" style="stroke: #000000; stroke-width: 0.8"/>
      </defs>
      <g>
       <use xlink:href="#mba75a6ee81" x="42.828125" y="679.737806" style="stroke: #000000; stroke-width: 0.8"/>
      </g>
     </g>
     <g id="text_7">
      <!-- 8.50 -->
      <g transform="translate(13.5625 683.537024)scale(0.1 -0.1)">
       <defs>
        <path id="DejaVuSans-38" d="M 2034 2216 
Q 1584 2216 1326 1975 
Q 1069 1734 1069 1313 
Q 1069 891 1326 650 
Q 1584 409 2034 409 
Q 2484 409 2743 651 
Q 3003 894 3003 1313 
Q 3003 1734 2745 1975 
Q 2488 2216 2034 2216 
z
M 1403 2484 
Q 997 2584 770 2862 
Q 544 3141 544 3541 
Q 544 4100 942 4425 
Q 1341 4750 2034 4750 
Q 2731 4750 3128 4425 
Q 3525 4100 3525 3541 
Q 3525 3141 3298 2862 
Q 3072 2584 2669 2484 
Q 3125 2378 3379 2068 
Q 3634 1759 3634 1313 
Q 3634 634 3220 271 
Q 2806 -91 2034 -91 
Q 1263 -91 848 271 
Q 434 634 434 1313 
Q 434 1759 690 2068 
Q 947 2378 1403 2484 
z
M 1172 3481 
Q 1172 3119 1398 2916 
Q 1625 2713 2034 2713 
Q 2441 2713 2670 2916 
Q 2900 3119 2900 3481 
Q 2900 3844 2670 4047 
Q 2441 4250 2034 4250 
Q 1625 4250 1398 4047 
Q 1172 3844 1172 3481 
z
" transform="scale(0.015625)"/>
       </defs>
       <use xlink:href="#DejaVuSans-38"/>
       <use xlink:href="#DejaVuSans-2e" x="63.623047"/>
       <use xlink:href="#DejaVuSans-35" x="95.410156"/>
       <use xlink:href="#DejaVuSans-30" x="159.033203"/>
      </g>
     </g>
    </g>
    <g id="ytick_2">
     <g id="line2d_8">
      <g>
       <use xlink:href="#mba75a6ee81" x="42.828125" y="596.68953" style="stroke: #000000; stroke-width: 0.8"/>
      </g>
     </g>
     <g id="text_8">
      <!-- 8.75 -->
      <g transform="translate(13.5625 600.488748)scale(0.1 -0.1)">
       <defs>
        <path id="DejaVuSans-37" d="M 525 4666 
L 3525 4666 
L 3525 4397 
L 1831 0 
L 1172 0 
L 2766 4134 
L 525 4134 
L 525 4666 
z
" transform="scale(0.015625)"/>
       </defs>
       <use xlink:href="#DejaVuSans-38"/>
       <use xlink:href="#DejaVuSans-2e" x="63.623047"/>
       <use xlink:href="#DejaVuSans-37" x="95.410156"/>
       <use xlink:href="#DejaVuSans-35" x="159.033203"/>
      </g>
     </g>
    </g>
    <g id="ytick_3">
     <g id="line2d_9">
      <g>
       <use xlink:href="#mba75a6ee81" x="42.828125" y="513.641254" style="stroke: #000000; stroke-width: 0.8"/>
      </g>
     </g>
     <g id="text_9">
      <!-- 9.00 -->
      <g transform="translate(13.5625 517.440472)scale(0.1 -0.1)">
       <defs>
        <path id="DejaVuSans-39" d="M 703 97 
L 703 672 
Q 941 559 1184 500 
Q 1428 441 1663 441 
Q 2288 441 2617 861 
Q 2947 1281 2994 2138 
Q 2813 1869 2534 1725 
Q 2256 1581 1919 1581 
Q 1219 1581 811 2004 
Q 403 2428 403 3163 
Q 403 3881 828 4315 
Q 1253 4750 1959 4750 
Q 2769 4750 3195 4129 
Q 3622 3509 3622 2328 
Q 3622 1225 3098 567 
Q 2575 -91 1691 -91 
Q 1453 -91 1209 -44 
Q 966 3 703 97 
z
M 1959 2075 
Q 2384 2075 2632 2365 
Q 2881 2656 2881 3163 
Q 2881 3666 2632 3958 
Q 2384 4250 1959 4250 
Q 1534 4250 1286 3958 
Q 1038 3666 1038 3163 
Q 1038 2656 1286 2365 
Q 1534 2075 1959 2075 
z
" transform="scale(0.015625)"/>
       </defs>
       <use xlink:href="#DejaVuSans-39"/>
       <use xlink:href="#DejaVuSans-2e" x="63.623047"/>
       <use xlink:href="#DejaVuSans-30" x="95.410156"/>
       <use xlink:href="#DejaVuSans-30" x="159.033203"/>
      </g>
     </g>
    </g>
    <g id="ytick_4">
     <g id="line2d_10">
      <g>
       <use xlink:href="#mba75a6ee81" x="42.828125" y="430.592978" style="stroke: #000000; stroke-width: 0.8"/>
      </g>
     </g>
     <g id="text_10">
      <!-- 9.25 -->
      <g transform="translate(13.5625 434.392197)scale(0.1 -0.1)">
       <use xlink:href="#DejaVuSans-39"/>
       <use xlink:href="#DejaVuSans-2e" x="63.623047"/>
       <use xlink:href="#DejaVuSans-32" x="95.410156"/>
       <use xlink:href="#DejaVuSans-35" x="159.033203"/>
      </g>
     </g>
    </g>
    <g id="ytick_5">
     <g id="line2d_11">
      <g>
       <use xlink:href="#mba75a6ee81" x="42.828125" y="347.544702" style="stroke: #000000; stroke-width: 0.8"/>
      </g>
     </g>
     <g id="text_11">
      <!-- 9.50 -->
      <g transform="translate(13.5625 351.343921)scale(0.1 -0.1)">
       <use xlink:href="#DejaVuSans-39"/>
       <use xlink:href="#DejaVuSans-2e" x="63.623047"/>
       <use xlink:href="#DejaVuSans-35" x="95.410156"/>
       <use xlink:href="#DejaVuSans-30" x="159.033203"/>
      </g>
     </g>
    </g>
    <g id="ytick_6">
     <g id="line2d_12">
      <g>
       <use xlink:href="#mba75a6ee81" x="42.828125" y="264.496426" style="stroke: #000000; stroke-width: 0.8"/>
      </g>
     </g>
     <g id="text_12">
      <!-- 9.75 -->
      <g transform="translate(13.5625 268.295645)scale(0.1 -0.1)">
       <use xlink:href="#DejaVuSans-39"/>
       <use xlink:href="#DejaVuSans-2e" x="63.623047"/>
       <use xlink:href="#DejaVuSans-37" x="95.410156"/>
       <use xlink:href="#DejaVuSans-35" x="159.033203"/>
      </g>
     </g>
    </g>
    <g id="ytick_7">
     <g id="line2d_13">
      <g>
       <use xlink:href="#mba75a6ee81" x="42.828125" y="181.44815" style="stroke: #000000; stroke-width: 0.8"/>
      </g>
     </g>
     <g id="text_13">
      <!-- 10.00 -->
      <g transform="translate(7.2 185.247369)scale(0.1 -0.1)">
       <use xlink:href="#DejaVuSans-31"/>
       <use xlink:href="#DejaVuSans-30" x="63.623047"/>
       <use xlink:href="#DejaVuSans-2e" x="127.246094"/>
       <use xlink:href="#DejaVuSans-30" x="159.033203"/>
       <use xlink:href="#DejaVuSans-30" x="222.65625"/>
      </g>
     </g>
    </g>
    <g id="ytick_8">
     <g id="line2d_14">
      <g>
       <use xlink:href="#mba75a6ee81" x="42.828125" y="98.399874" style="stroke: #000000; stroke-width: 0.8"/>
      </g>
     </g>
     <g id="text_14">
      <!-- 10.25 -->
      <g transform="translate(7.2 102.199093)scale(0.1 -0.1)">
       <use xlink:href="#DejaVuSans-31"/>
       <use xlink:href="#DejaVuSans-30" x="63.623047"/>
       <use xlink:href="#DejaVuSans-2e" x="127.246094"/>
       <use xlink:href="#DejaVuSans-32" x="159.033203"/>
       <use xlink:href="#DejaVuSans-35" x="222.65625"/>
      </g>
     </g>
    </g>
    <g id="ytick_9">
     <g id="line2d_15">
      <g>
       <use xlink:href="#mba75a6ee81" x="42.828125" y="15.351598" style="stroke: #000000; stroke-width: 0.8"/>
      </g>
     </g>
     <g id="text_15">
      <!-- 10.50 -->
      <g transform="translate(7.2 19.150817)scale(0.1 -0.1)">
       <use xlink:href="#DejaVuSans-31"/>
       <use xlink:href="#DejaVuSans-30" x="63.623047"/>
       <use xlink:href="#DejaVuSans-2e" x="127.246094"/>
       <use xlink:href="#DejaVuSans-35" x="159.033203"/>
       <use xlink:href="#DejaVuSans-30" x="222.65625"/>
      </g>
     </g>
    </g>
   </g>
   <g id="line2d_16">
    <path d="M 42.828125 257.852564 
L 195.032625 257.852564 
" clip-path="url(#p6dc47af966)" style="fill: none; stroke-dasharray: 5.55,2.4; stroke-dashoffset: 0; stroke: #000000; stroke-width: 1.5"/>
   </g>
   <g id="LineCollection_1">
    <path d="M 58.798606 495.902446 
L 58.798606 202.652707 
" clip-path="url(#p6dc47af966)" style="fill: none; stroke: #000000; stroke-width: 1.5"/>
    <path d="M 84.661732 419.639872 
L 84.661732 224.1075 
" clip-path="url(#p6dc47af966)" style="fill: none; stroke: #000000; stroke-width: 1.5"/>
    <path d="M 110.524859 278.373697 
L 110.524859 38.896427 
" clip-path="url(#p6dc47af966)" style="fill: none; stroke: #000000; stroke-width: 1.5"/>
    <path d="M 136.387985 403.492998 
L 136.387985 403.492998 
" clip-path="url(#p6dc47af966)" style="fill: none; stroke: #000000; stroke-width: 1.5"/>
    <path d="M 162.251112 672.824968 
L 162.251112 379.249848 
" clip-path="url(#p6dc47af966)" style="fill: none; stroke: #000000; stroke-width: 1.5"/>
    <path d="M 188.114238 403.492998 
L 188.114238 403.492998 
" clip-path="url(#p6dc47af966)" style="fill: none; stroke: #000000; stroke-width: 1.5"/>
   </g>
   <g id="line2d_17">
    <defs>
     <path id="mf301c9c36e" d="M 1.5 0 
L -1.5 -0 
" style="stroke: #000000"/>
    </defs>
    <g clip-path="url(#p6dc47af966)">
     <use xlink:href="#mf301c9c36e" x="58.798606" y="495.902446" style="stroke: #000000"/>
     <use xlink:href="#mf301c9c36e" x="84.661732" y="419.639872" style="stroke: #000000"/>
     <use xlink:href="#mf301c9c36e" x="110.524859" y="278.373697" style="stroke: #000000"/>
     <use xlink:href="#mf301c9c36e" x="136.387985" y="403.492998" style="stroke: #000000"/>
     <use xlink:href="#mf301c9c36e" x="162.251112" y="672.824968" style="stroke: #000000"/>
     <use xlink:href="#mf301c9c36e" x="188.114238" y="403.492998" style="stroke: #000000"/>
    </g>
   </g>
   <g id="line2d_18">
    <g clip-path="url(#p6dc47af966)">
     <use xlink:href="#mf301c9c36e" x="58.798606" y="202.652707" style="stroke: #000000"/>
     <use xlink:href="#mf301c9c36e" x="84.661732" y="224.1075" style="stroke: #000000"/>
     <use xlink:href="#mf301c9c36e" x="110.524859" y="38.896427" style="stroke: #000000"/>
     <use xlink:href="#mf301c9c36e" x="136.387985" y="403.492998" style="stroke: #000000"/>
     <use xlink:href="#mf301c9c36e" x="162.251112" y="379.249848" style="stroke: #000000"/>
     <use xlink:href="#mf301c9c36e" x="188.114238" y="403.492998" style="stroke: #000000"/>
    </g>
   </g>
   <g id="LineCollection_2">
    <path d="M 49.746511 393.974874 
L 49.746511 304.580279 
" clip-path="url(#p6dc47af966)" style="fill: none; stroke: #696969; stroke-width: 1.5"/>
    <path d="M 75.609638 351.676845 
L 75.609638 292.070527 
" clip-path="url(#p6dc47af966)" style="fill: none; stroke: #696969; stroke-width: 1.5"/>
    <path d="M 101.472764 195.136328 
L 101.472764 122.133796 
" clip-path="url(#p6dc47af966)" style="fill: none; stroke: #696969; stroke-width: 1.5"/>
    <path d="M 127.335891 403.492998 
L 127.335891 403.492998 
" clip-path="url(#p6dc47af966)" style="fill: none; stroke: #696969; stroke-width: 1.5"/>
    <path d="M 153.199017 570.7843 
L 153.199017 481.290516 
" clip-path="url(#p6dc47af966)" style="fill: none; stroke: #696969; stroke-width: 1.5"/>
    <path d="M 179.062144 403.492998 
L 179.062144 403.492998 
" clip-path="url(#p6dc47af966)" style="fill: none; stroke: #696969; stroke-width: 1.5"/>
   </g>
   <g id="line2d_19">
    <defs>
     <path id="m9de9d1fba5" d="M 1.5 0 
L -1.5 -0 
" style="stroke: #696969"/>
    </defs>
    <g clip-path="url(#p6dc47af966)">
     <use xlink:href="#m9de9d1fba5" x="49.746511" y="393.974874" style="fill: #696969; stroke: #696969"/>
     <use xlink:href="#m9de9d1fba5" x="75.609638" y="351.676845" style="fill: #696969; stroke: #696969"/>
     <use xlink:href="#m9de9d1fba5" x="101.472764" y="195.136328" style="fill: #696969; stroke: #696969"/>
     <use xlink:href="#m9de9d1fba5" x="127.335891" y="403.492998" style="fill: #696969; stroke: #696969"/>
     <use xlink:href="#m9de9d1fba5" x="153.199017" y="570.7843" style="fill: #696969; stroke: #696969"/>
     <use xlink:href="#m9de9d1fba5" x="179.062144" y="403.492998" style="fill: #696969; stroke: #696969"/>
    </g>
   </g>
   <g id="line2d_20">
    <g clip-path="url(#p6dc47af966)">
     <use xlink:href="#m9de9d1fba5" x="49.746511" y="304.580279" style="fill: #696969; stroke: #696969"/>
     <use xlink:href="#m9de9d1fba5" x="75.609638" y="292.070527" style="fill: #696969; stroke: #696969"/>
     <use xlink:href="#m9de9d1fba5" x="101.472764" y="122.133796" style="fill: #696969; stroke: #696969"/>
     <use xlink:href="#m9de9d1fba5" x="127.335891" y="403.492998" style="fill: #696969; stroke: #696969"/>
     <use xlink:href="#m9de9d1fba5" x="153.199017" y="481.290516" style="fill: #696969; stroke: #696969"/>
     <use xlink:href="#m9de9d1fba5" x="179.062144" y="403.492998" style="fill: #696969; stroke: #696969"/>
    </g>
   </g>
   <g id="LineCollection_3">
    <path d="M 54.272558 483.369468 
L 54.272558 215.185685 
" clip-path="url(#p6dc47af966)" style="fill: none; stroke: #708090; stroke-width: 1.5"/>
    <path d="M 80.135685 411.283162 
L 80.135685 232.464209 
" clip-path="url(#p6dc47af966)" style="fill: none; stroke: #708090; stroke-width: 1.5"/>
    <path d="M 105.998812 268.13886 
L 105.998812 49.131264 
" clip-path="url(#p6dc47af966)" style="fill: none; stroke: #708090; stroke-width: 1.5"/>
    <path d="M 131.861938 403.492998 
L 131.861938 403.492998 
" clip-path="url(#p6dc47af966)" style="fill: none; stroke: #708090; stroke-width: 1.5"/>
    <path d="M 157.725065 660.278084 
L 157.725065 391.796732 
" clip-path="url(#p6dc47af966)" style="fill: none; stroke: #708090; stroke-width: 1.5"/>
    <path d="M 183.588191 403.492998 
L 183.588191 403.492998 
" clip-path="url(#p6dc47af966)" style="fill: none; stroke: #708090; stroke-width: 1.5"/>
   </g>
   <g id="line2d_21">
    <defs>
     <path id="med22875c87" d="M 1.5 0 
L -1.5 -0 
" style="stroke: #708090"/>
    </defs>
    <g clip-path="url(#p6dc47af966)">
     <use xlink:href="#med22875c87" x="54.272558" y="483.369468" style="fill: #708090; stroke: #708090"/>
     <use xlink:href="#med22875c87" x="80.135685" y="411.283162" style="fill: #708090; stroke: #708090"/>
     <use xlink:href="#med22875c87" x="105.998812" y="268.13886" style="fill: #708090; stroke: #708090"/>
     <use xlink:href="#med22875c87" x="131.861938" y="403.492998" style="fill: #708090; stroke: #708090"/>
     <use xlink:href="#med22875c87" x="157.725065" y="660.278084" style="fill: #708090; stroke: #708090"/>
     <use xlink:href="#med22875c87" x="183.588191" y="403.492998" style="fill: #708090; stroke: #708090"/>
    </g>
   </g>
   <g id="line2d_22">
    <g clip-path="url(#p6dc47af966)">
     <use xlink:href="#med22875c87" x="54.272558" y="215.185685" style="fill: #708090; stroke: #708090"/>
     <use xlink:href="#med22875c87" x="80.135685" y="232.464209" style="fill: #708090; stroke: #708090"/>
     <use xlink:href="#med22875c87" x="105.998812" y="49.131264" style="fill: #708090; stroke: #708090"/>
     <use xlink:href="#med22875c87" x="131.861938" y="403.492998" style="fill: #708090; stroke: #708090"/>
     <use xlink:href="#med22875c87" x="157.725065" y="391.796732" style="fill: #708090; stroke: #708090"/>
     <use xlink:href="#med22875c87" x="183.588191" y="403.492998" style="fill: #708090; stroke: #708090"/>
    </g>
   </g>
   <g id="line2d_23">
    <defs>
     <path id="m29e38d8252" d="M 0 1.5 
C 0.397805 1.5 0.77937 1.341951 1.06066 1.06066 
C 1.341951 0.77937 1.5 0.397805 1.5 0 
C 1.5 -0.397805 1.341951 -0.77937 1.06066 -1.06066 
C 0.77937 -1.341951 0.397805 -1.5 0 -1.5 
C -0.397805 -1.5 -0.77937 -1.341951 -1.06066 -1.06066 
C -1.341951 -0.77937 -1.5 -0.397805 -1.5 0 
C -1.5 0.397805 -1.341951 0.77937 -1.06066 1.06066 
C -0.77937 1.341951 -0.397805 1.5 0 1.5 
z
" style="stroke: #000000"/>
    </defs>
    <g clip-path="url(#p6dc47af966)">
     <use xlink:href="#m29e38d8252" x="58.798606" y="349.277576" style="stroke: #000000"/>
     <use xlink:href="#m29e38d8252" x="84.661732" y="321.873686" style="stroke: #000000"/>
     <use xlink:href="#m29e38d8252" x="110.524859" y="158.635062" style="stroke: #000000"/>
     <use xlink:href="#m29e38d8252" x="136.387985" y="403.492998" style="stroke: #000000"/>
     <use xlink:href="#m29e38d8252" x="162.251112" y="526.037408" style="stroke: #000000"/>
     <use xlink:href="#m29e38d8252" x="188.114238" y="403.492998" style="stroke: #000000"/>
    </g>
   </g>
   <g id="line2d_24">
    <defs>
     <path id="m39d60ca657" d="M 0 1.5 
C 0.397805 1.5 0.77937 1.341951 1.06066 1.06066 
C 1.341951 0.77937 1.5 0.397805 1.5 0 
C 1.5 -0.397805 1.341951 -0.77937 1.06066 -1.06066 
C 0.77937 -1.341951 0.397805 -1.5 0 -1.5 
C -0.397805 -1.5 -0.77937 -1.341951 -1.06066 -1.06066 
C -1.341951 -0.77937 -1.5 -0.397805 -1.5 0 
C -1.5 0.397805 -1.341951 0.77937 -1.06066 1.06066 
C -0.77937 1.341951 -0.397805 1.5 0 1.5 
z
" style="stroke: #696969"/>
    </defs>
    <g clip-path="url(#p6dc47af966)">
     <use xlink:href="#m39d60ca657" x="49.746511" y="349.277576" style="fill: #696969; stroke: #696969"/>
     <use xlink:href="#m39d60ca657" x="75.609638" y="321.873686" style="fill: #696969; stroke: #696969"/>
     <use xlink:href="#m39d60ca657" x="101.472764" y="158.635062" style="fill: #696969; stroke: #696969"/>
     <use xlink:href="#m39d60ca657" x="127.335891" y="403.492998" style="fill: #696969; stroke: #696969"/>
     <use xlink:href="#m39d60ca657" x="153.199017" y="526.037408" style="fill: #696969; stroke: #696969"/>
     <use xlink:href="#m39d60ca657" x="179.062144" y="403.492998" style="fill: #696969; stroke: #696969"/>
    </g>
   </g>
   <g id="line2d_25">
    <defs>
     <path id="m512b6fb847" d="M 0 1.5 
C 0.397805 1.5 0.77937 1.341951 1.06066 1.06066 
C 1.341951 0.77937 1.5 0.397805 1.5 0 
C 1.5 -0.397805 1.341951 -0.77937 1.06066 -1.06066 
C 0.77937 -1.341951 0.397805 -1.5 0 -1.5 
C -0.397805 -1.5 -0.77937 -1.341951 -1.06066 -1.06066 
C -1.341951 -0.77937 -1.5 -0.397805 -1.5 0 
C -1.5 0.397805 -1.341951 0.77937 -1.06066 1.06066 
C -0.77937 1.341951 -0.397805 1.5 0 1.5 
z
" style="stroke: #708090"/>
    </defs>
    <g clip-path="url(#p6dc47af966)">
     <use xlink:href="#m512b6fb847" x="54.272558" y="349.277576" style="fill: #708090; stroke: #708090"/>
     <use xlink:href="#m512b6fb847" x="80.135685" y="321.873686" style="fill: #708090; stroke: #708090"/>
     <use xlink:href="#m512b6fb847" x="105.998812" y="158.635062" style="fill: #708090; stroke: #708090"/>
     <use xlink:href="#m512b6fb847" x="131.861938" y="403.492998" style="fill: #708090; stroke: #708090"/>
     <use xlink:href="#m512b6fb847" x="157.725065" y="526.037408" style="fill: #708090; stroke: #708090"/>
     <use xlink:href="#m512b6fb847" x="183.588191" y="403.492998" style="fill: #708090; stroke: #708090"/>
    </g>
   </g>
   <g id="patch_3">
    <path d="M 42.828125 704.521395 
L 42.828125 7.2 
" style="fill: none; stroke: #000000; stroke-width: 0.8; stroke-linejoin: miter; stroke-linecap: square"/>
   </g>
   <g id="patch_4">
    <path d="M 195.032625 704.521395 
L 195.032625 7.2 
" style="fill: none; stroke: #000000; stroke-width: 0.8; stroke-linejoin: miter; stroke-linecap: square"/>
   </g>
   <g id="patch_5">
    <path d="M 42.828125 704.521395 
L 195.032625 704.521395 
" style="fill: none; stroke: #000000; stroke-width: 0.8; stroke-linejoin: miter; stroke-linecap: square"/>
   </g>
   <g id="patch_6">
    <path d="M 42.828125 7.2 
L 195.032625 7.2 
" style="fill: none; stroke: #000000; stroke-width: 0.8; stroke-linejoin: miter; stroke-linecap: square"/>
   </g>
  </g>
  <g id="axes_2">
   <g id="patch_7">
    <path d="M 243.730239 704.521395 
L 395.934738 704.521395 
L 395.934738 7.2 
L 243.730239 7.2 
z
" style="fill: #ffffff"/>
   </g>
   <g id="matplotlib.axis_3">
    <g id="xtick_7">
     <g id="line2d_26">
      <g>
       <use xlink:href="#mf52c903600" x="268.585182" y="704.521395" style="stroke: #000000; stroke-width: 0.8"/>
      </g>
     </g>
     <g id="text_16">
      <!-- Group 0.0 -->
      <g transform="translate(243.825026 719.119832)scale(0.1 -0.1)">
       <use xlink:href="#DejaVuSans-47"/>
       <use xlink:href="#DejaVuSans-72" x="77.490234"/>
       <use xlink:href="#DejaVuSans-6f" x="116.353516"/>
       <use xlink:href="#DejaVuSans-75" x="177.535156"/>
       <use xlink:href="#DejaVuSans-70" x="240.914062"/>
       <use xlink:href="#DejaVuSans-20" x="304.390625"/>
       <use xlink:href="#DejaVuSans-30" x="336.177734"/>
       <use xlink:href="#DejaVuSans-2e" x="399.800781"/>
       <use xlink:href="#DejaVuSans-30" x="431.587891"/>
      </g>
     </g>
    </g>
    <g id="xtick_8">
     <g id="line2d_27">
      <g>
       <use xlink:href="#mf52c903600" x="371.079795" y="704.521395" style="stroke: #000000; stroke-width: 0.8"/>
      </g>
     </g>
     <g id="text_17">
      <!-- Group 1.0 -->
      <g transform="translate(346.319639 719.119832)scale(0.1 -0.1)">
       <use xlink:href="#DejaVuSans-47"/>
       <use xlink:href="#DejaVuSans-72" x="77.490234"/>
       <use xlink:href="#DejaVuSans-6f" x="116.353516"/>
       <use xlink:href="#DejaVuSans-75" x="177.535156"/>
       <use xlink:href="#DejaVuSans-70" x="240.914062"/>
       <use xlink:href="#DejaVuSans-20" x="304.390625"/>
       <use xlink:href="#DejaVuSans-31" x="336.177734"/>
       <use xlink:href="#DejaVuSans-2e" x="399.800781"/>
       <use xlink:href="#DejaVuSans-30" x="431.587891"/>
      </g>
     </g>
    </g>
   </g>
   <g id="matplotlib.axis_4">
    <g id="ytick_10">
     <g id="line2d_28">
      <g>
       <use xlink:href="#mba75a6ee81" x="243.730239" y="636.882598" style="stroke: #000000; stroke-width: 0.8"/>
      </g>
     </g>
     <g id="text_18">
      <!-- 9.0 -->
      <g transform="translate(220.827114 640.681817)scale(0.1 -0.1)">
       <use xlink:href="#DejaVuSans-39"/>
       <use xlink:href="#DejaVuSans-2e" x="63.623047"/>
       <use xlink:href="#DejaVuSans-30" x="95.410156"/>
      </g>
     </g>
    </g>
    <g id="ytick_11">
     <g id="line2d_29">
      <g>
       <use xlink:href="#mba75a6ee81" x="243.730239" y="529.500607" style="stroke: #000000; stroke-width: 0.8"/>
      </g>
     </g>
     <g id="text_19">
      <!-- 9.2 -->
      <g transform="translate(220.827114 533.299826)scale(0.1 -0.1)">
       <use xlink:href="#DejaVuSans-39"/>
       <use xlink:href="#DejaVuSans-2e" x="63.623047"/>
       <use xlink:href="#DejaVuSans-32" x="95.410156"/>
      </g>
     </g>
    </g>
    <g id="ytick_12">
     <g id="line2d_30">
      <g>
       <use xlink:href="#mba75a6ee81" x="243.730239" y="422.118617" style="stroke: #000000; stroke-width: 0.8"/>
      </g>
     </g>
     <g id="text_20">
      <!-- 9.4 -->
      <g transform="translate(220.827114 425.917835)scale(0.1 -0.1)">
       <use xlink:href="#DejaVuSans-39"/>
       <use xlink:href="#DejaVuSans-2e" x="63.623047"/>
       <use xlink:href="#DejaVuSans-34" x="95.410156"/>
      </g>
     </g>
    </g>
    <g id="ytick_13">
     <g id="line2d_31">
      <g>
       <use xlink:href="#mba75a6ee81" x="243.730239" y="314.736626" style="stroke: #000000; stroke-width: 0.8"/>
      </g>
     </g>
     <g id="text_21">
      <!-- 9.6 -->
      <g transform="translate(220.827114 318.535845)scale(0.1 -0.1)">
       <defs>
        <path id="DejaVuSans-36" d="M 2113 2584 
Q 1688 2584 1439 2293 
Q 1191 2003 1191 1497 
Q 1191 994 1439 701 
Q 1688 409 2113 409 
Q 2538 409 2786 701 
Q 3034 994 3034 1497 
Q 3034 2003 2786 2293 
Q 2538 2584 2113 2584 
z
M 3366 4563 
L 3366 3988 
Q 3128 4100 2886 4159 
Q 2644 4219 2406 4219 
Q 1781 4219 1451 3797 
Q 1122 3375 1075 2522 
Q 1259 2794 1537 2939 
Q 1816 3084 2150 3084 
Q 2853 3084 3261 2657 
Q 3669 2231 3669 1497 
Q 3669 778 3244 343 
Q 2819 -91 2113 -91 
Q 1303 -91 875 529 
Q 447 1150 447 2328 
Q 447 3434 972 4092 
Q 1497 4750 2381 4750 
Q 2619 4750 2861 4703 
Q 3103 4656 3366 4563 
z
" transform="scale(0.015625)"/>
       </defs>
       <use xlink:href="#DejaVuSans-39"/>
       <use xlink:href="#DejaVuSans-2e" x="63.623047"/>
       <use xlink:href="#DejaVuSans-36" x="95.410156"/>
      </g>
     </g>
    </g>
    <g id="ytick_14">
     <g id="line2d_32">
      <g>
       <use xlink:href="#mba75a6ee81" x="243.730239" y="207.354635" style="stroke: #000000; stroke-width: 0.8"/>
      </g>
     </g>
     <g id="text_22">
      <!-- 9.8 -->
      <g transform="translate(220.827114 211.153854)scale(0.1 -0.1)">
       <use xlink:href="#DejaVuSans-39"/>
       <use xlink:href="#DejaVuSans-2e" x="63.623047"/>
       <use xlink:href="#DejaVuSans-38" x="95.410156"/>
      </g>
     </g>
    </g>
    <g id="ytick_15">
     <g id="line2d_33">
      <g>
       <use xlink:href="#mba75a6ee81" x="243.730239" y="99.972644" style="stroke: #000000; stroke-width: 0.8"/>
      </g>
     </g>
     <g id="text_23">
      <!-- 10.0 -->
      <g transform="translate(214.464614 103.771863)scale(0.1 -0.1)">
       <use xlink:href="#DejaVuSans-31"/>
       <use xlink:href="#DejaVuSans-30" x="63.623047"/>
       <use xlink:href="#DejaVuSans-2e" x="127.246094"/>
       <use xlink:href="#DejaVuSans-30" x="159.033203"/>
      </g>
     </g>
    </g>
   </g>
   <g id="line2d_34">
    <path d="M 243.730239 223.461934 
L 395.934738 223.461934 
" clip-path="url(#pa4683552bd)" style="fill: none; stroke-dasharray: 5.55,2.4; stroke-dashoffset: 0; stroke: #000000; stroke-width: 1.5"/>
   </g>
   <g id="LineCollection_4">
    <path d="M 286.52174 468.614114 
L 286.52174 38.896427 
" clip-path="url(#pa4683552bd)" style="fill: none; stroke: #000000; stroke-width: 1.5"/>
    <path d="M 389.016352 672.824968 
L 389.016352 376.926404 
" clip-path="url(#pa4683552bd)" style="fill: none; stroke: #000000; stroke-width: 1.5"/>
   </g>
   <g id="line2d_35">
    <g clip-path="url(#pa4683552bd)">
     <use xlink:href="#mf301c9c36e" x="286.52174" y="468.614114" style="stroke: #000000"/>
     <use xlink:href="#mf301c9c36e" x="389.016352" y="672.824968" style="stroke: #000000"/>
    </g>
   </g>
   <g id="line2d_36">
    <g clip-path="url(#pa4683552bd)">
     <use xlink:href="#mf301c9c36e" x="286.52174" y="38.896427" style="stroke: #000000"/>
     <use xlink:href="#mf301c9c36e" x="389.016352" y="376.926404" style="stroke: #000000"/>
    </g>
   </g>
   <g id="LineCollection_5">
    <path d="M 250.648625 319.253092 
L 250.648625 188.257449 
" clip-path="url(#pa4683552bd)" style="fill: none; stroke: #696969; stroke-width: 1.5"/>
    <path d="M 353.143238 569.976719 
L 353.143238 479.774653 
" clip-path="url(#pa4683552bd)" style="fill: none; stroke: #696969; stroke-width: 1.5"/>
   </g>
   <g id="line2d_37">
    <g clip-path="url(#pa4683552bd)">
     <use xlink:href="#m9de9d1fba5" x="250.648625" y="319.253092" style="fill: #696969; stroke: #696969"/>
     <use xlink:href="#m9de9d1fba5" x="353.143238" y="569.976719" style="fill: #696969; stroke: #696969"/>
    </g>
   </g>
   <g id="line2d_38">
    <g clip-path="url(#pa4683552bd)">
     <use xlink:href="#m9de9d1fba5" x="250.648625" y="188.257449" style="fill: #696969; stroke: #696969"/>
     <use xlink:href="#m9de9d1fba5" x="353.143238" y="479.774653" style="fill: #696969; stroke: #696969"/>
    </g>
   </g>
   <g id="LineCollection_6">
    <path d="M 268.585182 450.248736 
L 268.585182 57.261805 
" clip-path="url(#pa4683552bd)" style="fill: none; stroke: #708090; stroke-width: 1.5"/>
    <path d="M 371.079795 660.178784 
L 371.079795 389.572588 
" clip-path="url(#pa4683552bd)" style="fill: none; stroke: #708090; stroke-width: 1.5"/>
   </g>
   <g id="line2d_39">
    <g clip-path="url(#pa4683552bd)">
     <use xlink:href="#med22875c87" x="268.585182" y="450.248736" style="fill: #708090; stroke: #708090"/>
     <use xlink:href="#med22875c87" x="371.079795" y="660.178784" style="fill: #708090; stroke: #708090"/>
    </g>
   </g>
   <g id="line2d_40">
    <g clip-path="url(#pa4683552bd)">
     <use xlink:href="#med22875c87" x="268.585182" y="57.261805" style="fill: #708090; stroke: #708090"/>
     <use xlink:href="#med22875c87" x="371.079795" y="389.572588" style="fill: #708090; stroke: #708090"/>
    </g>
   </g>
   <g id="line2d_41">
    <g clip-path="url(#pa4683552bd)">
     <use xlink:href="#m29e38d8252" x="286.52174" y="253.755271" style="stroke: #000000"/>
     <use xlink:href="#m29e38d8252" x="389.016352" y="524.875686" style="stroke: #000000"/>
    </g>
   </g>
   <g id="line2d_42">
    <g clip-path="url(#pa4683552bd)">
     <use xlink:href="#m39d60ca657" x="250.648625" y="253.755271" style="fill: #696969; stroke: #696969"/>
     <use xlink:href="#m39d60ca657" x="353.143238" y="524.875686" style="fill: #696969; stroke: #696969"/>
    </g>
   </g>
   <g id="line2d_43">
    <g clip-path="url(#pa4683552bd)">
     <use xlink:href="#m512b6fb847" x="268.585182" y="253.755271" style="fill: #708090; stroke: #708090"/>
     <use xlink:href="#m512b6fb847" x="371.079795" y="524.875686" style="fill: #708090; stroke: #708090"/>
    </g>
   </g>
   <g id="patch_8">
    <path d="M 243.730239 704.521395 
L 243.730239 7.2 
" style="fill: none; stroke: #000000; stroke-width: 0.8; stroke-linejoin: miter; stroke-linecap: square"/>
   </g>
   <g id="patch_9">
    <path d="M 395.934738 704.521395 
L 395.934738 7.2 
" style="fill: none; stroke: #000000; stroke-width: 0.8; stroke-linejoin: miter; stroke-linecap: square"/>
   </g>
   <g id="patch_10">
    <path d="M 243.730239 704.521395 
L 395.934738 704.521395 
" style="fill: none; stroke: #000000; stroke-width: 0.8; stroke-linejoin: miter; stroke-linecap: square"/>
   </g>
   <g id="patch_11">
    <path d="M 243.730239 7.2 
L 395.934738 7.2 
" style="fill: none; stroke: #000000; stroke-width: 0.8; stroke-linejoin: miter; stroke-linecap: square"/>
   </g>
  </g>
  <g id="axes_3">
   <g id="patch_12">
    <path d="M 424.99502 704.521395 
L 577.19952 704.521395 
L 577.19952 7.2 
L 424.99502 7.2 
z
" style="fill: #ffffff"/>
   </g>
   <g id="matplotlib.axis_5">
    <g id="xtick_9">
     <g id="line2d_44">
      <g>
       <use xlink:href="#mf52c903600" x="501.09727" y="704.521395" style="stroke: #000000; stroke-width: 0.8"/>
      </g>
     </g>
     <g id="text_24">
      <!-- Group 0.0 -->
      <g transform="translate(476.337114 719.119832)scale(0.1 -0.1)">
       <use xlink:href="#DejaVuSans-47"/>
       <use xlink:href="#DejaVuSans-72" x="77.490234"/>
       <use xlink:href="#DejaVuSans-6f" x="116.353516"/>
       <use xlink:href="#DejaVuSans-75" x="177.535156"/>
       <use xlink:href="#DejaVuSans-70" x="240.914062"/>
       <use xlink:href="#DejaVuSans-20" x="304.390625"/>
       <use xlink:href="#DejaVuSans-30" x="336.177734"/>
       <use xlink:href="#DejaVuSans-2e" x="399.800781"/>
       <use xlink:href="#DejaVuSans-30" x="431.587891"/>
      </g>
     </g>
    </g>
   </g>
   <g id="matplotlib.axis_6">
    <g id="ytick_16">
     <g id="line2d_45">
      <g>
       <use xlink:href="#mba75a6ee81" x="424.99502" y="660.772045" style="stroke: #000000; stroke-width: 0.8"/>
      </g>
     </g>
     <g id="text_25">
      <!-- 9.1 -->
      <g transform="translate(402.091895 664.571264)scale(0.1 -0.1)">
       <use xlink:href="#DejaVuSans-39"/>
       <use xlink:href="#DejaVuSans-2e" x="63.623047"/>
       <use xlink:href="#DejaVuSans-31" x="95.410156"/>
      </g>
     </g>
    </g>
    <g id="ytick_17">
     <g id="line2d_46">
      <g>
       <use xlink:href="#mba75a6ee81" x="424.99502" y="576.331561" style="stroke: #000000; stroke-width: 0.8"/>
      </g>
     </g>
     <g id="text_26">
      <!-- 9.2 -->
      <g transform="translate(402.091895 580.13078)scale(0.1 -0.1)">
       <use xlink:href="#DejaVuSans-39"/>
       <use xlink:href="#DejaVuSans-2e" x="63.623047"/>
       <use xlink:href="#DejaVuSans-32" x="95.410156"/>
      </g>
     </g>
    </g>
    <g id="ytick_18">
     <g id="line2d_47">
      <g>
       <use xlink:href="#mba75a6ee81" x="424.99502" y="491.891077" style="stroke: #000000; stroke-width: 0.8"/>
      </g>
     </g>
     <g id="text_27">
      <!-- 9.3 -->
      <g transform="translate(402.091895 495.690296)scale(0.1 -0.1)">
       <use xlink:href="#DejaVuSans-39"/>
       <use xlink:href="#DejaVuSans-2e" x="63.623047"/>
       <use xlink:href="#DejaVuSans-33" x="95.410156"/>
      </g>
     </g>
    </g>
    <g id="ytick_19">
     <g id="line2d_48">
      <g>
       <use xlink:href="#mba75a6ee81" x="424.99502" y="407.450594" style="stroke: #000000; stroke-width: 0.8"/>
      </g>
     </g>
     <g id="text_28">
      <!-- 9.4 -->
      <g transform="translate(402.091895 411.249812)scale(0.1 -0.1)">
       <use xlink:href="#DejaVuSans-39"/>
       <use xlink:href="#DejaVuSans-2e" x="63.623047"/>
       <use xlink:href="#DejaVuSans-34" x="95.410156"/>
      </g>
     </g>
    </g>
    <g id="ytick_20">
     <g id="line2d_49">
      <g>
       <use xlink:href="#mba75a6ee81" x="424.99502" y="323.01011" style="stroke: #000000; stroke-width: 0.8"/>
      </g>
     </g>
     <g id="text_29">
      <!-- 9.5 -->
      <g transform="translate(402.091895 326.809329)scale(0.1 -0.1)">
       <use xlink:href="#DejaVuSans-39"/>
       <use xlink:href="#DejaVuSans-2e" x="63.623047"/>
       <use xlink:href="#DejaVuSans-35" x="95.410156"/>
      </g>
     </g>
    </g>
    <g id="ytick_21">
     <g id="line2d_50">
      <g>
       <use xlink:href="#mba75a6ee81" x="424.99502" y="238.569626" style="stroke: #000000; stroke-width: 0.8"/>
      </g>
     </g>
     <g id="text_30">
      <!-- 9.6 -->
      <g transform="translate(402.091895 242.368845)scale(0.1 -0.1)">
       <use xlink:href="#DejaVuSans-39"/>
       <use xlink:href="#DejaVuSans-2e" x="63.623047"/>
       <use xlink:href="#DejaVuSans-36" x="95.410156"/>
      </g>
     </g>
    </g>
    <g id="ytick_22">
     <g id="line2d_51">
      <g>
       <use xlink:href="#mba75a6ee81" x="424.99502" y="154.129142" style="stroke: #000000; stroke-width: 0.8"/>
      </g>
     </g>
     <g id="text_31">
      <!-- 9.7 -->
      <g transform="translate(402.091895 157.928361)scale(0.1 -0.1)">
       <use xlink:href="#DejaVuSans-39"/>
       <use xlink:href="#DejaVuSans-2e" x="63.623047"/>
       <use xlink:href="#DejaVuSans-37" x="95.410156"/>
      </g>
     </g>
    </g>
    <g id="ytick_23">
     <g id="line2d_52">
      <g>
       <use xlink:href="#mba75a6ee81" x="424.99502" y="69.688659" style="stroke: #000000; stroke-width: 0.8"/>
      </g>
     </g>
     <g id="text_32">
      <!-- 9.8 -->
      <g transform="translate(402.091895 73.487877)scale(0.1 -0.1)">
       <use xlink:href="#DejaVuSans-39"/>
       <use xlink:href="#DejaVuSans-2e" x="63.623047"/>
       <use xlink:href="#DejaVuSans-38" x="95.410156"/>
      </g>
     </g>
    </g>
   </g>
   <g id="line2d_53">
    <path d="M 424.99502 95.020804 
L 577.19952 95.020804 
" clip-path="url(#p1d29a49049)" style="fill: none; stroke-dasharray: 5.55,2.4; stroke-dashoffset: 0; stroke: #000000; stroke-width: 1.5"/>
   </g>
   <g id="LineCollection_7">
    <path d="M 570.281134 672.824968 
L 570.281134 38.896427 
" clip-path="url(#p1d29a49049)" style="fill: none; stroke: #000000; stroke-width: 1.5"/>
   </g>
   <g id="line2d_54">
    <g clip-path="url(#p1d29a49049)">
     <use xlink:href="#mf301c9c36e" x="570.281134" y="672.824968" style="stroke: #000000"/>
    </g>
   </g>
   <g id="line2d_55">
    <g clip-path="url(#p1d29a49049)">
     <use xlink:href="#mf301c9c36e" x="570.281134" y="38.896427" style="stroke: #000000"/>
    </g>
   </g>
   <g id="LineCollection_8">
    <path d="M 431.913407 452.484457 
L 431.913407 259.236938 
" clip-path="url(#p1d29a49049)" style="fill: none; stroke: #696969; stroke-width: 1.5"/>
   </g>
   <g id="line2d_56">
    <g clip-path="url(#p1d29a49049)">
     <use xlink:href="#m9de9d1fba5" x="431.913407" y="452.484457" style="fill: #696969; stroke: #696969"/>
    </g>
   </g>
   <g id="line2d_57">
    <g clip-path="url(#p1d29a49049)">
     <use xlink:href="#m9de9d1fba5" x="431.913407" y="259.236938" style="fill: #696969; stroke: #696969"/>
    </g>
   </g>
   <g id="LineCollection_9">
    <path d="M 501.09727 645.731977 
L 501.09727 65.989418 
" clip-path="url(#p1d29a49049)" style="fill: none; stroke: #708090; stroke-width: 1.5"/>
   </g>
   <g id="line2d_58">
    <g clip-path="url(#p1d29a49049)">
     <use xlink:href="#med22875c87" x="501.09727" y="645.731977" style="fill: #708090; stroke: #708090"/>
    </g>
   </g>
   <g id="line2d_59">
    <g clip-path="url(#p1d29a49049)">
     <use xlink:href="#med22875c87" x="501.09727" y="65.989418" style="fill: #708090; stroke: #708090"/>
    </g>
   </g>
   <g id="line2d_60">
    <g clip-path="url(#p1d29a49049)">
     <use xlink:href="#m29e38d8252" x="570.281134" y="355.860698" style="stroke: #000000"/>
    </g>
   </g>
   <g id="line2d_61">
    <g clip-path="url(#p1d29a49049)">
     <use xlink:href="#m39d60ca657" x="431.913407" y="355.860698" style="fill: #696969; stroke: #696969"/>
    </g>
   </g>
   <g id="line2d_62">
    <g clip-path="url(#p1d29a49049)">
     <use xlink:href="#m512b6fb847" x="501.09727" y="355.860698" style="fill: #708090; stroke: #708090"/>
    </g>
   </g>
   <g id="patch_13">
    <path d="M 424.99502 704.521395 
L 424.99502 7.2 
" style="fill: none; stroke: #000000; stroke-width: 0.8; stroke-linejoin: miter; stroke-linecap: square"/>
   </g>
   <g id="patch_14">
    <path d="M 577.19952 704.521395 
L 577.19952 7.2 
" style="fill: none; stroke: #000000; stroke-width: 0.8; stroke-linejoin: miter; stroke-linecap: square"/>
   </g>
   <g id="patch_15">
    <path d="M 424.99502 704.521395 
L 577.19952 704.521395 
" style="fill: none; stroke: #000000; stroke-width: 0.8; stroke-linejoin: miter; stroke-linecap: square"/>
   </g>
   <g id="patch_16">
    <path d="M 424.99502 7.2 
L 577.19952 7.2 
" style="fill: none; stroke: #000000; stroke-width: 0.8; stroke-linejoin: miter; stroke-linecap: square"/>
   </g>
  </g>
 </g>
 <defs>
  <clipPath id="p6dc47af966">
   <rect x="42.828125" y="7.2" width="152.2045" height="697.321395"/>
  </clipPath>
  <clipPath id="pa4683552bd">
   <rect x="243.730239" y="7.2" width="152.2045" height="697.321395"/>
  </clipPath>
  <clipPath id="p1d29a49049">
   <rect x="424.99502" y="7.2" width="152.2045" height="697.321395"/>
  </clipPath>
 </defs>
</svg>
