<?xml version="1.0" encoding="utf-8" standalone="no"?>
<!DOCTYPE svg PUBLIC "-//W3C//DTD SVG 1.1//EN"
  "http://www.w3.org/Graphics/SVG/1.1/DTD/svg11.dtd">
<!-- Created with matplotlib (https://matplotlib.org/) -->
<svg height="248.518125pt" version="1.1" viewBox="0 0 386.845313 248.518125" width="386.845313pt" xmlns="http://www.w3.org/2000/svg" xmlns:xlink="http://www.w3.org/1999/xlink">
 <metadata>
  <rdf:RDF xmlns:cc="http://creativecommons.org/ns#" xmlns:dc="http://purl.org/dc/elements/1.1/" xmlns:rdf="http://www.w3.org/1999/02/22-rdf-syntax-ns#">
   <cc:Work>
    <dc:type rdf:resource="http://purl.org/dc/dcmitype/StillImage"/>
    <dc:date>2021-10-24T17:07:23.447282</dc:date>
    <dc:format>image/svg+xml</dc:format>
    <dc:creator>
     <cc:Agent>
      <dc:title>Matplotlib v3.3.4, https://matplotlib.org/</dc:title>
     </cc:Agent>
    </dc:creator>
   </cc:Work>
  </rdf:RDF>
 </metadata>
 <defs>
  <style type="text/css">*{stroke-linecap:butt;stroke-linejoin:round;}</style>
 </defs>
 <g id="figure_1">
  <g id="patch_1">
   <path d="M -0 248.518125 
L 386.845313 248.518125 
L 386.845313 0 
L -0 0 
z
" style="fill:none;"/>
  </g>
  <g id="axes_1">
   <g id="patch_2">
    <path d="M 38.482813 224.64 
L 373.282813 224.64 
L 373.282813 7.2 
L 38.482813 7.2 
z
" style="fill:#ffffff;"/>
   </g>
   <g id="matplotlib.axis_1">
    <g id="xtick_1">
     <g id="line2d_1">
      <path clip-path="url(#p8288cbdf30)" d="M 38.482813 224.64 
L 38.482813 7.2 
" style="fill:none;stroke:#b0b0b0;stroke-linecap:square;stroke-width:0.8;"/>
     </g>
     <g id="line2d_2">
      <defs>
       <path d="M 0 0 
L 0 3.5 
" id="me33b815c03" style="stroke:#000000;stroke-width:0.8;"/>
      </defs>
      <g>
       <use style="stroke:#000000;stroke-width:0.8;" x="38.482813" xlink:href="#me33b815c03" y="224.64"/>
      </g>
     </g>
     <g id="text_1">
      <!-- 0 -->
      <g transform="translate(35.301563 239.238437)scale(0.1 -0.1)">
       <defs>
        <path d="M 31.78125 66.40625 
Q 24.171875 66.40625 20.328125 58.90625 
Q 16.5 51.421875 16.5 36.375 
Q 16.5 21.390625 20.328125 13.890625 
Q 24.171875 6.390625 31.78125 6.390625 
Q 39.453125 6.390625 43.28125 13.890625 
Q 47.125 21.390625 47.125 36.375 
Q 47.125 51.421875 43.28125 58.90625 
Q 39.453125 66.40625 31.78125 66.40625 
z
M 31.78125 74.21875 
Q 44.046875 74.21875 50.515625 64.515625 
Q 56.984375 54.828125 56.984375 36.375 
Q 56.984375 17.96875 50.515625 8.265625 
Q 44.046875 -1.421875 31.78125 -1.421875 
Q 19.53125 -1.421875 13.0625 8.265625 
Q 6.59375 17.96875 6.59375 36.375 
Q 6.59375 54.828125 13.0625 64.515625 
Q 19.53125 74.21875 31.78125 74.21875 
z
" id="DejaVuSans-48"/>
       </defs>
       <use xlink:href="#DejaVuSans-48"/>
      </g>
     </g>
    </g>
    <g id="xtick_2">
     <g id="line2d_3">
      <path clip-path="url(#p8288cbdf30)" d="M 105.442813 224.64 
L 105.442813 7.2 
" style="fill:none;stroke:#b0b0b0;stroke-linecap:square;stroke-width:0.8;"/>
     </g>
     <g id="line2d_4">
      <g>
       <use style="stroke:#000000;stroke-width:0.8;" x="105.442813" xlink:href="#me33b815c03" y="224.64"/>
      </g>
     </g>
     <g id="text_2">
      <!-- 2 -->
      <g transform="translate(102.261562 239.238437)scale(0.1 -0.1)">
       <defs>
        <path d="M 19.1875 8.296875 
L 53.609375 8.296875 
L 53.609375 0 
L 7.328125 0 
L 7.328125 8.296875 
Q 12.9375 14.109375 22.625 23.890625 
Q 32.328125 33.6875 34.8125 36.53125 
Q 39.546875 41.84375 41.421875 45.53125 
Q 43.3125 49.21875 43.3125 52.78125 
Q 43.3125 58.59375 39.234375 62.25 
Q 35.15625 65.921875 28.609375 65.921875 
Q 23.96875 65.921875 18.8125 64.3125 
Q 13.671875 62.703125 7.8125 59.421875 
L 7.8125 69.390625 
Q 13.765625 71.78125 18.9375 73 
Q 24.125 74.21875 28.421875 74.21875 
Q 39.75 74.21875 46.484375 68.546875 
Q 53.21875 62.890625 53.21875 53.421875 
Q 53.21875 48.921875 51.53125 44.890625 
Q 49.859375 40.875 45.40625 35.40625 
Q 44.1875 33.984375 37.640625 27.21875 
Q 31.109375 20.453125 19.1875 8.296875 
z
" id="DejaVuSans-50"/>
       </defs>
       <use xlink:href="#DejaVuSans-50"/>
      </g>
     </g>
    </g>
    <g id="xtick_3">
     <g id="line2d_5">
      <path clip-path="url(#p8288cbdf30)" d="M 172.402813 224.64 
L 172.402813 7.2 
" style="fill:none;stroke:#b0b0b0;stroke-linecap:square;stroke-width:0.8;"/>
     </g>
     <g id="line2d_6">
      <g>
       <use style="stroke:#000000;stroke-width:0.8;" x="172.402813" xlink:href="#me33b815c03" y="224.64"/>
      </g>
     </g>
     <g id="text_3">
      <!-- 4 -->
      <g transform="translate(169.221563 239.238437)scale(0.1 -0.1)">
       <defs>
        <path d="M 37.796875 64.3125 
L 12.890625 25.390625 
L 37.796875 25.390625 
z
M 35.203125 72.90625 
L 47.609375 72.90625 
L 47.609375 25.390625 
L 58.015625 25.390625 
L 58.015625 17.1875 
L 47.609375 17.1875 
L 47.609375 0 
L 37.796875 0 
L 37.796875 17.1875 
L 4.890625 17.1875 
L 4.890625 26.703125 
z
" id="DejaVuSans-52"/>
       </defs>
       <use xlink:href="#DejaVuSans-52"/>
      </g>
     </g>
    </g>
    <g id="xtick_4">
     <g id="line2d_7">
      <path clip-path="url(#p8288cbdf30)" d="M 239.362813 224.64 
L 239.362813 7.2 
" style="fill:none;stroke:#b0b0b0;stroke-linecap:square;stroke-width:0.8;"/>
     </g>
     <g id="line2d_8">
      <g>
       <use style="stroke:#000000;stroke-width:0.8;" x="239.362813" xlink:href="#me33b815c03" y="224.64"/>
      </g>
     </g>
     <g id="text_4">
      <!-- 6 -->
      <g transform="translate(236.181563 239.238437)scale(0.1 -0.1)">
       <defs>
        <path d="M 33.015625 40.375 
Q 26.375 40.375 22.484375 35.828125 
Q 18.609375 31.296875 18.609375 23.390625 
Q 18.609375 15.53125 22.484375 10.953125 
Q 26.375 6.390625 33.015625 6.390625 
Q 39.65625 6.390625 43.53125 10.953125 
Q 47.40625 15.53125 47.40625 23.390625 
Q 47.40625 31.296875 43.53125 35.828125 
Q 39.65625 40.375 33.015625 40.375 
z
M 52.59375 71.296875 
L 52.59375 62.3125 
Q 48.875 64.0625 45.09375 64.984375 
Q 41.3125 65.921875 37.59375 65.921875 
Q 27.828125 65.921875 22.671875 59.328125 
Q 17.53125 52.734375 16.796875 39.40625 
Q 19.671875 43.65625 24.015625 45.921875 
Q 28.375 48.1875 33.59375 48.1875 
Q 44.578125 48.1875 50.953125 41.515625 
Q 57.328125 34.859375 57.328125 23.390625 
Q 57.328125 12.15625 50.6875 5.359375 
Q 44.046875 -1.421875 33.015625 -1.421875 
Q 20.359375 -1.421875 13.671875 8.265625 
Q 6.984375 17.96875 6.984375 36.375 
Q 6.984375 53.65625 15.1875 63.9375 
Q 23.390625 74.21875 37.203125 74.21875 
Q 40.921875 74.21875 44.703125 73.484375 
Q 48.484375 72.75 52.59375 71.296875 
z
" id="DejaVuSans-54"/>
       </defs>
       <use xlink:href="#DejaVuSans-54"/>
      </g>
     </g>
    </g>
    <g id="xtick_5">
     <g id="line2d_9">
      <path clip-path="url(#p8288cbdf30)" d="M 306.322813 224.64 
L 306.322813 7.2 
" style="fill:none;stroke:#b0b0b0;stroke-linecap:square;stroke-width:0.8;"/>
     </g>
     <g id="line2d_10">
      <g>
       <use style="stroke:#000000;stroke-width:0.8;" x="306.322813" xlink:href="#me33b815c03" y="224.64"/>
      </g>
     </g>
     <g id="text_5">
      <!-- 8 -->
      <g transform="translate(303.141563 239.238437)scale(0.1 -0.1)">
       <defs>
        <path d="M 31.78125 34.625 
Q 24.75 34.625 20.71875 30.859375 
Q 16.703125 27.09375 16.703125 20.515625 
Q 16.703125 13.921875 20.71875 10.15625 
Q 24.75 6.390625 31.78125 6.390625 
Q 38.8125 6.390625 42.859375 10.171875 
Q 46.921875 13.96875 46.921875 20.515625 
Q 46.921875 27.09375 42.890625 30.859375 
Q 38.875 34.625 31.78125 34.625 
z
M 21.921875 38.8125 
Q 15.578125 40.375 12.03125 44.71875 
Q 8.5 49.078125 8.5 55.328125 
Q 8.5 64.0625 14.71875 69.140625 
Q 20.953125 74.21875 31.78125 74.21875 
Q 42.671875 74.21875 48.875 69.140625 
Q 55.078125 64.0625 55.078125 55.328125 
Q 55.078125 49.078125 51.53125 44.71875 
Q 48 40.375 41.703125 38.8125 
Q 48.828125 37.15625 52.796875 32.3125 
Q 56.78125 27.484375 56.78125 20.515625 
Q 56.78125 9.90625 50.3125 4.234375 
Q 43.84375 -1.421875 31.78125 -1.421875 
Q 19.734375 -1.421875 13.25 4.234375 
Q 6.78125 9.90625 6.78125 20.515625 
Q 6.78125 27.484375 10.78125 32.3125 
Q 14.796875 37.15625 21.921875 38.8125 
z
M 18.3125 54.390625 
Q 18.3125 48.734375 21.84375 45.5625 
Q 25.390625 42.390625 31.78125 42.390625 
Q 38.140625 42.390625 41.71875 45.5625 
Q 45.3125 48.734375 45.3125 54.390625 
Q 45.3125 60.0625 41.71875 63.234375 
Q 38.140625 66.40625 31.78125 66.40625 
Q 25.390625 66.40625 21.84375 63.234375 
Q 18.3125 60.0625 18.3125 54.390625 
z
" id="DejaVuSans-56"/>
       </defs>
       <use xlink:href="#DejaVuSans-56"/>
      </g>
     </g>
    </g>
    <g id="xtick_6">
     <g id="line2d_11">
      <path clip-path="url(#p8288cbdf30)" d="M 373.282813 224.64 
L 373.282813 7.2 
" style="fill:none;stroke:#b0b0b0;stroke-linecap:square;stroke-width:0.8;"/>
     </g>
     <g id="line2d_12">
      <g>
       <use style="stroke:#000000;stroke-width:0.8;" x="373.282813" xlink:href="#me33b815c03" y="224.64"/>
      </g>
     </g>
     <g id="text_6">
      <!-- 10 -->
      <g transform="translate(366.920313 239.238437)scale(0.1 -0.1)">
       <defs>
        <path d="M 12.40625 8.296875 
L 28.515625 8.296875 
L 28.515625 63.921875 
L 10.984375 60.40625 
L 10.984375 69.390625 
L 28.421875 72.90625 
L 38.28125 72.90625 
L 38.28125 8.296875 
L 54.390625 8.296875 
L 54.390625 0 
L 12.40625 0 
z
" id="DejaVuSans-49"/>
       </defs>
       <use xlink:href="#DejaVuSans-49"/>
       <use x="63.623047" xlink:href="#DejaVuSans-48"/>
      </g>
     </g>
    </g>
   </g>
   <g id="matplotlib.axis_2">
    <g id="ytick_1">
     <g id="line2d_13">
      <path clip-path="url(#p8288cbdf30)" d="M 38.482813 209.684409 
L 373.282813 209.684409 
" style="fill:none;stroke:#b0b0b0;stroke-linecap:square;stroke-width:0.8;"/>
     </g>
     <g id="line2d_14">
      <defs>
       <path d="M 0 0 
L -3.5 0 
" id="m1fdcc0276e" style="stroke:#000000;stroke-width:0.8;"/>
      </defs>
      <g>
       <use style="stroke:#000000;stroke-width:0.8;" x="38.482813" xlink:href="#m1fdcc0276e" y="209.684409"/>
      </g>
     </g>
     <g id="text_7">
      <!-- −0.6 -->
      <g transform="translate(7.2 213.483628)scale(0.1 -0.1)">
       <defs>
        <path d="M 10.59375 35.5 
L 73.1875 35.5 
L 73.1875 27.203125 
L 10.59375 27.203125 
z
" id="DejaVuSans-8722"/>
        <path d="M 10.6875 12.40625 
L 21 12.40625 
L 21 0 
L 10.6875 0 
z
" id="DejaVuSans-46"/>
       </defs>
       <use xlink:href="#DejaVuSans-8722"/>
       <use x="83.789062" xlink:href="#DejaVuSans-48"/>
       <use x="147.412109" xlink:href="#DejaVuSans-46"/>
       <use x="179.199219" xlink:href="#DejaVuSans-54"/>
      </g>
     </g>
    </g>
    <g id="ytick_2">
     <g id="line2d_15">
      <path clip-path="url(#p8288cbdf30)" d="M 38.482813 178.429606 
L 373.282813 178.429606 
" style="fill:none;stroke:#b0b0b0;stroke-linecap:square;stroke-width:0.8;"/>
     </g>
     <g id="line2d_16">
      <g>
       <use style="stroke:#000000;stroke-width:0.8;" x="38.482813" xlink:href="#m1fdcc0276e" y="178.429606"/>
      </g>
     </g>
     <g id="text_8">
      <!-- −0.4 -->
      <g transform="translate(7.2 182.228825)scale(0.1 -0.1)">
       <use xlink:href="#DejaVuSans-8722"/>
       <use x="83.789062" xlink:href="#DejaVuSans-48"/>
       <use x="147.412109" xlink:href="#DejaVuSans-46"/>
       <use x="179.199219" xlink:href="#DejaVuSans-52"/>
      </g>
     </g>
    </g>
    <g id="ytick_3">
     <g id="line2d_17">
      <path clip-path="url(#p8288cbdf30)" d="M 38.482813 147.174803 
L 373.282813 147.174803 
" style="fill:none;stroke:#b0b0b0;stroke-linecap:square;stroke-width:0.8;"/>
     </g>
     <g id="line2d_18">
      <g>
       <use style="stroke:#000000;stroke-width:0.8;" x="38.482813" xlink:href="#m1fdcc0276e" y="147.174803"/>
      </g>
     </g>
     <g id="text_9">
      <!-- −0.2 -->
      <g transform="translate(7.2 150.974022)scale(0.1 -0.1)">
       <use xlink:href="#DejaVuSans-8722"/>
       <use x="83.789062" xlink:href="#DejaVuSans-48"/>
       <use x="147.412109" xlink:href="#DejaVuSans-46"/>
       <use x="179.199219" xlink:href="#DejaVuSans-50"/>
      </g>
     </g>
    </g>
    <g id="ytick_4">
     <g id="line2d_19">
      <path clip-path="url(#p8288cbdf30)" d="M 38.482813 115.920001 
L 373.282813 115.920001 
" style="fill:none;stroke:#b0b0b0;stroke-linecap:square;stroke-width:0.8;"/>
     </g>
     <g id="line2d_20">
      <g>
       <use style="stroke:#000000;stroke-width:0.8;" x="38.482813" xlink:href="#m1fdcc0276e" y="115.920001"/>
      </g>
     </g>
     <g id="text_10">
      <!-- 0.0 -->
      <g transform="translate(15.579688 119.71922)scale(0.1 -0.1)">
       <use xlink:href="#DejaVuSans-48"/>
       <use x="63.623047" xlink:href="#DejaVuSans-46"/>
       <use x="95.410156" xlink:href="#DejaVuSans-48"/>
      </g>
     </g>
    </g>
    <g id="ytick_5">
     <g id="line2d_21">
      <path clip-path="url(#p8288cbdf30)" d="M 38.482813 84.665198 
L 373.282813 84.665198 
" style="fill:none;stroke:#b0b0b0;stroke-linecap:square;stroke-width:0.8;"/>
     </g>
     <g id="line2d_22">
      <g>
       <use style="stroke:#000000;stroke-width:0.8;" x="38.482813" xlink:href="#m1fdcc0276e" y="84.665198"/>
      </g>
     </g>
     <g id="text_11">
      <!-- 0.2 -->
      <g transform="translate(15.579688 88.464417)scale(0.1 -0.1)">
       <use xlink:href="#DejaVuSans-48"/>
       <use x="63.623047" xlink:href="#DejaVuSans-46"/>
       <use x="95.410156" xlink:href="#DejaVuSans-50"/>
      </g>
     </g>
    </g>
    <g id="ytick_6">
     <g id="line2d_23">
      <path clip-path="url(#p8288cbdf30)" d="M 38.482813 53.410395 
L 373.282813 53.410395 
" style="fill:none;stroke:#b0b0b0;stroke-linecap:square;stroke-width:0.8;"/>
     </g>
     <g id="line2d_24">
      <g>
       <use style="stroke:#000000;stroke-width:0.8;" x="38.482813" xlink:href="#m1fdcc0276e" y="53.410395"/>
      </g>
     </g>
     <g id="text_12">
      <!-- 0.4 -->
      <g transform="translate(15.579688 57.209614)scale(0.1 -0.1)">
       <use xlink:href="#DejaVuSans-48"/>
       <use x="63.623047" xlink:href="#DejaVuSans-46"/>
       <use x="95.410156" xlink:href="#DejaVuSans-52"/>
      </g>
     </g>
    </g>
    <g id="ytick_7">
     <g id="line2d_25">
      <path clip-path="url(#p8288cbdf30)" d="M 38.482813 22.155593 
L 373.282813 22.155593 
" style="fill:none;stroke:#b0b0b0;stroke-linecap:square;stroke-width:0.8;"/>
     </g>
     <g id="line2d_26">
      <g>
       <use style="stroke:#000000;stroke-width:0.8;" x="38.482813" xlink:href="#m1fdcc0276e" y="22.155593"/>
      </g>
     </g>
     <g id="text_13">
      <!-- 0.6 -->
      <g transform="translate(15.579688 25.954811)scale(0.1 -0.1)">
       <use xlink:href="#DejaVuSans-48"/>
       <use x="63.623047" xlink:href="#DejaVuSans-46"/>
       <use x="95.410156" xlink:href="#DejaVuSans-54"/>
      </g>
     </g>
    </g>
   </g>
   <g id="line2d_27">
    <path clip-path="url(#p8288cbdf30)" d="M 38.482813 195.880299 
L 41.834164 191.416796 
L 45.185515 178.524604 
L 48.536867 158.643047 
L 51.888218 133.991761 
L 55.239569 107.32289 
L 58.590921 81.613826 
L 61.942272 59.734806 
L 65.293623 44.128469 
L 68.644975 36.537154 
L 71.996326 37.808378 
L 75.347677 47.800217 
L 78.699029 65.397152 
L 82.05038 88.63461 
L 88.753083 141.313805 
L 92.104434 164.874279 
L 95.455785 182.969351 
L 98.807137 193.578832 
L 102.158488 195.51825 
L 105.50984 188.57108 
L 108.861191 173.512927 
L 112.212542 152.024926 
L 115.563894 126.506064 
L 118.915245 99.805342 
L 122.266596 74.903709 
L 125.617948 54.581257 
L 128.969299 41.106847 
L 132.32065 35.9848 
L 135.672002 39.786959 
L 139.023353 52.088839 
L 142.374704 71.51702 
L 145.726056 95.902483 
L 152.428758 148.405889 
L 155.78011 170.662194 
L 159.131461 186.806916 
L 162.482813 195.037612 
L 165.834164 194.43538 
L 169.185515 185.067456 
L 172.536867 167.979703 
L 175.888218 145.07985 
L 182.590921 92.433725 
L 185.942272 68.565025 
L 189.293623 49.983176 
L 192.644975 38.762712 
L 195.996326 36.156318 
L 199.347677 42.454981 
L 202.699029 56.955499 
L 206.05038 78.03899 
L 209.401731 103.35163 
L 212.753083 130.067441 
L 216.104434 155.20379 
L 219.455785 175.954378 
L 222.807137 190.002549 
L 226.158488 195.779923 
L 229.50984 192.641496 
L 232.861191 180.937651 
L 236.212542 161.975041 
L 239.563894 137.870709 
L 246.266596 85.274793 
L 249.617948 62.655175 
L 252.969299 45.982201 
L 256.32065 37.117293 
L 259.672002 37.050155 
L 263.023353 45.788283 
L 266.374704 62.356125 
L 269.726056 84.903999 
L 276.428758 137.484005 
L 279.78011 161.645947 
L 283.131461 180.702907 
L 286.482813 192.52731 
L 289.834164 195.799044 
L 293.185515 190.152842 
L 296.536867 176.219063 
L 299.888218 155.553317 
L 303.239569 130.462788 
L 306.590921 103.74866 
L 309.942272 78.393376 
L 313.293623 57.227676 
L 316.644975 42.614564 
L 319.996326 36.18549 
L 323.347677 38.658216 
L 326.699029 49.756678 
L 330.05038 68.241812 
L 333.401731 92.049882 
L 340.104434 144.705291 
L 343.455785 167.674022 
L 346.807137 184.86478 
L 350.158488 194.358336 
L 353.50984 195.094802 
L 356.861191 186.991956 
L 360.212542 170.954424 
L 363.563894 148.772684 
L 373.617948 71.851789 
L 376.969299 52.33168 
L 380.32065 39.910762 
L 383.672002 35.975742 
L 387.023353 40.965939 
L 387.845313 44.242221 
L 387.845313 44.242221 
" style="fill:none;stroke:#1f77b4;stroke-linecap:square;stroke-width:1.5;"/>
   </g>
   <g id="line2d_28">
    <path clip-path="url(#p8288cbdf30)" d="M 38.482813 85.377884 
L 41.834164 87.022708 
L 45.185515 91.780015 
L 48.536867 99.137405 
L 51.888218 108.302423 
L 58.590921 128.01837 
L 61.942272 136.445724 
L 65.293623 142.662283 
L 68.644975 145.99847 
L 71.996326 146.094949 
L 75.347677 142.94133 
L 78.699029 136.877284 
L 82.05038 128.555959 
L 92.104434 99.631725 
L 95.455785 92.144657 
L 98.807137 87.218397 
L 102.158488 85.383544 
L 105.50984 86.837727 
L 108.861191 91.424319 
L 112.212542 98.649304 
L 115.563894 107.734491 
L 122.266596 127.476298 
L 125.617948 136.006558 
L 128.969299 142.373325 
L 132.32065 145.890843 
L 135.672002 146.180247 
L 139.023353 143.210364 
L 142.374704 137.301077 
L 145.726056 129.088865 
L 149.077407 119.458255 
L 152.428758 109.446545 
L 155.78011 100.132081 
L 159.131461 92.51811 
L 162.482813 87.424723 
L 165.834164 85.400519 
L 169.185515 86.663524 
L 172.536867 91.0777 
L 175.888218 98.167604 
L 179.239569 107.169592 
L 185.942272 126.929943 
L 189.293623 135.559949 
L 192.644975 142.074564 
L 195.996326 145.772111 
L 199.347677 146.25433 
L 202.699029 143.469285 
L 206.05038 137.716946 
L 209.401731 129.616891 
L 212.753083 120.041565 
L 216.104434 110.02231 
L 219.455785 100.638288 
L 222.807137 92.900235 
L 226.158488 87.641608 
L 229.50984 85.428804 
L 232.861191 86.500162 
L 236.212542 90.740287 
L 239.563894 97.692482 
L 242.915245 106.607936 
L 249.617948 126.379508 
L 252.969299 135.106061 
L 256.32065 141.766111 
L 259.672002 145.642315 
L 263.023353 146.317173 
L 266.374704 143.717996 
L 269.726056 138.124739 
L 273.077407 130.139842 
L 276.428758 120.623347 
L 279.78011 110.600262 
L 283.131461 101.150158 
L 286.482813 93.290891 
L 289.834164 87.868973 
L 293.185515 85.468389 
L 296.536867 86.347704 
L 299.888218 90.412206 
L 303.239569 97.224115 
L 306.590921 106.04973 
L 313.293623 125.825197 
L 316.644975 134.645063 
L 319.996326 141.44808 
L 323.347677 145.501505 
L 326.699029 146.36875 
L 330.05038 143.956406 
L 333.401731 138.524302 
L 336.753083 130.657522 
L 340.104434 121.203386 
L 343.455785 111.180184 
L 346.807137 101.667501 
L 350.158488 93.689933 
L 353.50984 88.106733 
L 356.861191 85.519259 
L 360.212542 86.206204 
L 363.563894 90.093577 
L 366.915245 96.762677 
L 370.266596 105.495183 
L 376.969299 125.267216 
L 380.32065 134.177126 
L 383.672002 141.120588 
L 387.023353 145.349732 
L 387.845313 145.609541 
L 387.845313 145.609541 
" style="fill:none;stroke:#ff7f0e;stroke-linecap:square;stroke-width:1.5;"/>
   </g>
   <g id="line2d_29">
    <path clip-path="url(#p8288cbdf30)" d="M 38.482813 17.083636 
L 41.834164 22.16588 
L 45.185515 36.889945 
L 48.536867 59.741586 
L 51.888218 88.370704 
L 58.590921 150.892942 
L 61.942272 178.356178 
L 65.293623 199.398379 
L 68.644975 211.855531 
L 71.996326 214.446523 
L 75.347677 206.904892 
L 78.699029 190.006231 
L 82.05038 165.488426 
L 85.401731 135.872925 
L 88.753083 104.205435 
L 92.104434 73.742689 
L 95.455785 47.617524 
L 98.807137 28.516693 
L 102.158488 18.404556 
L 105.50984 18.321062 
L 108.861191 28.274796 
L 112.212542 47.242101 
L 115.563894 73.272349 
L 118.915245 103.68855 
L 122.266596 135.362651 
L 125.617948 165.037241 
L 128.969299 189.660535 
L 132.32065 206.700237 
L 135.672002 214.403957 
L 139.023353 211.979431 
L 142.374704 199.676002 
L 145.726056 178.758973 
L 149.077407 151.379486 
L 155.78011 88.871167 
L 159.131461 60.170789 
L 162.482813 37.203747 
L 165.834164 22.332009 
L 169.185515 17.085008 
L 172.536867 22.002353 
L 175.888218 36.578337 
L 179.239569 59.313943 
L 182.590921 87.871005 
L 189.293623 150.405427 
L 192.644975 177.951649 
L 195.996326 199.118438 
L 199.347677 211.728969 
L 202.699029 214.486355 
L 206.05038 207.107021 
L 209.401731 190.349871 
L 212.753083 165.938235 
L 216.104434 136.382645 
L 219.455785 104.722645 
L 222.807137 74.214198 
L 226.158488 47.994842 
L 229.50984 28.761016 
L 232.861191 18.490758 
L 236.212542 18.240276 
L 239.563894 28.035331 
L 242.915245 46.868584 
L 246.266596 72.803194 
L 249.617948 103.172004 
L 252.969299 134.851838 
L 256.32065 164.584692 
L 259.672002 189.312792 
L 263.023353 206.493063 
L 266.374704 214.358656 
L 269.726056 212.100663 
L 273.077407 199.9513 
L 276.428758 179.160025 
L 279.78011 151.865046 
L 286.482813 89.372381 
L 289.834164 60.601538 
L 293.185515 37.519734 
L 296.536867 22.500736 
L 299.888218 17.089123 
L 303.239569 21.841433 
L 306.590921 36.268931 
L 309.942272 58.887871 
L 313.293623 87.372085 
L 319.996326 149.916955 
L 323.347677 177.545399 
L 326.699029 198.836189 
L 330.05038 211.599748 
L 333.401731 214.523451 
L 336.753083 207.30662 
L 340.104434 190.691444 
L 343.455785 166.386656 
L 346.807137 136.891798 
L 350.158488 105.240166 
L 353.50984 74.686866 
L 356.861191 48.374046 
L 360.212542 29.007759 
L 363.563894 18.579664 
L 366.915245 18.162202 
L 370.266596 27.798306 
L 373.617948 46.496985 
L 376.969299 72.335235 
L 380.32065 102.655812 
L 383.672002 134.340499 
L 387.023353 164.130793 
L 387.845313 170.221195 
L 387.845313 170.221195 
" style="fill:none;stroke:#2ca02c;stroke-linecap:square;stroke-width:1.5;"/>
   </g>
   <g id="line2d_30">
    <path clip-path="url(#p8288cbdf30)" d="M 38.482813 85.377884 
L 41.834164 86.865215 
L 45.185515 91.182347 
L 48.536867 97.908813 
L 51.888218 106.389484 
L 58.590921 125.219129 
L 61.942272 133.734182 
L 65.293623 140.514216 
L 68.644975 144.898887 
L 71.996326 146.461148 
L 75.347677 145.048843 
L 78.699029 140.799523 
L 82.05038 134.127053 
L 85.401731 125.6813 
L 92.104434 106.852849 
L 95.455785 98.303956 
L 98.807137 91.470783 
L 102.158488 87.018852 
L 105.50984 85.381759 
L 108.861191 86.718949 
L 112.212542 90.900187 
L 115.563894 97.518239 
L 118.915245 105.928537 
L 125.617948 124.7546 
L 128.969299 133.336792 
L 132.32065 140.22267 
L 135.672002 144.741579 
L 139.023353 146.453401 
L 142.374704 145.19141 
L 145.726056 141.078519 
L 149.077407 134.515305 
L 152.428758 126.140994 
L 159.131461 107.318514 
L 162.482813 98.703568 
L 165.834164 91.765422 
L 169.185515 87.17982 
L 172.536867 85.39338 
L 175.888218 86.580091 
L 179.239569 90.624373 
L 182.590921 97.132333 
L 185.942272 105.470125 
L 192.644975 124.287829 
L 195.996326 132.934984 
L 199.347677 139.924958 
L 202.699029 144.57696 
L 206.05038 146.437907 
L 209.401731 145.326551 
L 212.753083 141.351133 
L 216.104434 134.89884 
L 219.455785 126.598096 
L 226.158488 107.786361 
L 229.50984 99.107547 
L 232.861191 92.066188 
L 236.212542 87.34808 
L 239.563894 85.412745 
L 242.915245 86.448676 
L 246.266596 90.354977 
L 249.617948 96.751194 
L 252.969299 105.014364 
L 259.672002 123.818935 
L 263.023353 132.528859 
L 266.374704 139.621156 
L 269.726056 144.405071 
L 273.077407 146.414671 
L 276.428758 145.454231 
L 279.78011 141.617294 
L 283.131461 135.27756 
L 286.482813 127.052488 
L 293.185515 108.256272 
L 296.536867 99.515792 
L 299.888218 92.373006 
L 303.239569 87.523588 
L 306.590921 85.43985 
L 309.942272 86.324737 
L 313.293623 90.092067 
L 316.644975 96.374917 
L 319.996326 104.561369 
L 330.05038 132.11852 
L 333.401731 139.311342 
L 336.753083 144.225955 
L 340.104434 146.383699 
L 343.455785 145.57442 
L 346.807137 141.876937 
L 350.158488 135.651369 
L 353.50984 127.504057 
L 363.563894 99.928198 
L 366.915245 92.685797 
L 370.266596 87.7063 
L 373.617948 85.474687 
L 376.969299 86.208307 
L 380.32065 89.835708 
L 383.672002 96.003599 
L 387.845313 106.381837 
L 387.845313 106.381837 
" style="fill:none;stroke:#d62728;stroke-linecap:square;stroke-width:1.5;"/>
   </g>
   <g id="line2d_31">
    <path clip-path="url(#p8288cbdf30)" d="M 38.482813 195.880299 
L 41.834164 191.926215 
L 45.185515 180.455028 
L 48.536867 162.60125 
L 51.888218 140.130642 
L 58.590921 90.465227 
L 61.942272 68.182389 
L 65.293623 50.620856 
L 68.644975 39.517486 
L 71.996326 35.970415 
L 75.347677 40.330451 
L 78.699029 52.166383 
L 82.05038 70.307622 
L 85.401731 92.95998 
L 92.104434 142.612087 
L 95.455785 164.701185 
L 98.807137 181.965766 
L 102.158488 192.698344 
L 105.50984 195.837453 
L 108.861191 191.072632 
L 112.212542 178.875128 
L 115.563894 160.451288 
L 118.915245 137.62325 
L 125.617948 87.997754 
L 128.969299 66.108315 
L 132.32065 49.14531 
L 135.672002 38.786401 
L 139.023353 36.056095 
L 142.374704 41.224424 
L 145.726056 53.780232 
L 149.077407 72.481737 
L 152.428758 95.479338 
L 159.131461 145.064926 
L 162.482813 166.748842 
L 165.834164 183.405725 
L 169.185515 193.38819 
L 172.536867 195.708961 
L 175.888218 190.13851 
L 179.239569 177.227761 
L 182.590921 158.253602 
L 185.942272 135.0926 
L 192.644975 85.560205 
L 195.996326 64.087624 
L 199.347677 47.741325 
L 202.699029 38.137978 
L 206.05038 36.227364 
L 209.401731 42.198446 
L 212.753083 55.460676 
L 216.104434 74.702405 
L 219.455785 98.020602 
L 226.158488 147.486532 
L 229.50984 168.742026 
L 232.861191 184.77336 
L 236.212542 193.995016 
L 239.563894 195.49496 
L 242.915245 189.124848 
L 246.266596 175.514691 
L 249.617948 156.010548 
L 252.969299 132.541403 
L 259.672002 83.155192 
L 263.023353 62.12248 
L 266.374704 46.410406 
L 269.726056 37.572913 
L 273.077407 36.484039 
L 276.428758 43.251475 
L 279.78011 57.205913 
L 283.131461 76.967244 
L 286.482813 100.581048 
L 289.834164 125.711893 
L 293.185515 149.874308 
L 296.536867 170.678602 
L 299.888218 186.067206 
L 303.239569 194.518169 
L 306.590921 195.195681 
L 309.942272 188.032735 
L 313.293623 173.737754 
L 316.644975 153.72453 
L 319.996326 129.972393 
L 323.347677 104.830459 
L 326.699029 80.785293 
L 330.05038 60.214991 
L 333.401731 45.153979 
L 336.753083 37.091811 
L 340.104434 36.825843 
L 343.455785 44.382381 
L 346.807137 59.014073 
L 350.158488 79.273828 
L 353.50984 103.157933 
L 356.861191 128.304222 
L 360.212542 152.225696 
L 363.563894 172.556494 
L 366.915245 187.285877 
L 370.266596 194.95709 
L 373.617948 194.811443 
L 376.969299 186.863339 
L 380.32065 171.898855 
L 383.672002 151.397997 
L 387.845313 121.221477 
L 387.845313 121.221477 
" style="fill:none;stroke:#9467bd;stroke-linecap:square;stroke-width:1.5;"/>
   </g>
   <g id="patch_3">
    <path d="M 38.482813 224.64 
L 38.482813 7.2 
" style="fill:none;stroke:#000000;stroke-linecap:square;stroke-linejoin:miter;stroke-width:0.8;"/>
   </g>
   <g id="patch_4">
    <path d="M 373.282813 224.64 
L 373.282813 7.2 
" style="fill:none;stroke:#000000;stroke-linecap:square;stroke-linejoin:miter;stroke-width:0.8;"/>
   </g>
   <g id="patch_5">
    <path d="M 38.482813 224.64 
L 373.282813 224.64 
" style="fill:none;stroke:#000000;stroke-linecap:square;stroke-linejoin:miter;stroke-width:0.8;"/>
   </g>
   <g id="patch_6">
    <path d="M 38.482813 7.2 
L 373.282813 7.2 
" style="fill:none;stroke:#000000;stroke-linecap:square;stroke-linejoin:miter;stroke-width:0.8;"/>
   </g>
  </g>
 </g>
 <defs>
  <clipPath id="p8288cbdf30">
   <rect height="217.44" width="334.8" x="38.482813" y="7.2"/>
  </clipPath>
 </defs>
</svg>
