<?xml version="1.0" encoding="utf-8" standalone="no"?>
<!DOCTYPE svg PUBLIC "-//W3C//DTD SVG 1.1//EN"
  "http://www.w3.org/Graphics/SVG/1.1/DTD/svg11.dtd">
<svg xmlns:xlink="http://www.w3.org/1999/xlink" width="1016.39952pt" height="296.39952pt" viewBox="0 0 1016.39952 296.39952" xmlns="http://www.w3.org/2000/svg" version="1.1">
 <metadata>
  <rdf:RDF xmlns:dc="http://purl.org/dc/elements/1.1/" xmlns:cc="http://creativecommons.org/ns#" xmlns:rdf="http://www.w3.org/1999/02/22-rdf-syntax-ns#">
   <cc:Work>
    <dc:type rdf:resource="http://purl.org/dc/dcmitype/StillImage"/>
    <dc:date>2021-12-12T11:02:00.810584</dc:date>
    <dc:format>image/svg+xml</dc:format>
    <dc:creator>
     <cc:Agent>
      <dc:title>Matplotlib v3.5.0, https://matplotlib.org/</dc:title>
     </cc:Agent>
    </dc:creator>
   </cc:Work>
  </rdf:RDF>
 </metadata>
 <defs>
  <style type="text/css">*{stroke-linejoin: round; stroke-linecap: butt}</style>
 </defs>
 <g id="figure_1">
  <g id="patch_1">
   <path d="M 0 296.39952 
L 1016.39952 296.39952 
L 1016.39952 0 
L 0 0 
L 0 296.39952 
z
" style="fill: none"/>
  </g>
  <g id="axes_1">
   <g id="patch_2">
    <path d="M 26.925 272.521395 
L 336.71984 272.521395 
L 336.71984 7.2 
L 26.925 7.2 
z
" style="fill: #ffffff"/>
   </g>
   <g id="matplotlib.axis_1">
    <g id="xtick_1">
     <g id="line2d_1">
      <defs>
       <path id="mfaca8f218b" d="M 0 0 
L 0 3.5 
" style="stroke: #000000; stroke-width: 0.8"/>
      </defs>
      <g>
       <use xlink:href="#mfaca8f218b" x="50.218835" y="272.521395" style="stroke: #000000; stroke-width: 0.8"/>
      </g>
     </g>
     <g id="text_1">
      <!-- Group 0 -->
      <g transform="translate(30.228991 287.119832)scale(0.1 -0.1)">
       <defs>
        <path id="DejaVuSans-47" d="M 3809 666 
L 3809 1919 
L 2778 1919 
L 2778 2438 
L 4434 2438 
L 4434 434 
Q 4069 175 3628 42 
Q 3188 -91 2688 -91 
Q 1594 -91 976 548 
Q 359 1188 359 2328 
Q 359 3472 976 4111 
Q 1594 4750 2688 4750 
Q 3144 4750 3555 4637 
Q 3966 4525 4313 4306 
L 4313 3634 
Q 3963 3931 3569 4081 
Q 3175 4231 2741 4231 
Q 1884 4231 1454 3753 
Q 1025 3275 1025 2328 
Q 1025 1384 1454 906 
Q 1884 428 2741 428 
Q 3075 428 3337 486 
Q 3600 544 3809 666 
z
" transform="scale(0.015625)"/>
        <path id="DejaVuSans-72" d="M 2631 2963 
Q 2534 3019 2420 3045 
Q 2306 3072 2169 3072 
Q 1681 3072 1420 2755 
Q 1159 2438 1159 1844 
L 1159 0 
L 581 0 
L 581 3500 
L 1159 3500 
L 1159 2956 
Q 1341 3275 1631 3429 
Q 1922 3584 2338 3584 
Q 2397 3584 2469 3576 
Q 2541 3569 2628 3553 
L 2631 2963 
z
" transform="scale(0.015625)"/>
        <path id="DejaVuSans-6f" d="M 1959 3097 
Q 1497 3097 1228 2736 
Q 959 2375 959 1747 
Q 959 1119 1226 758 
Q 1494 397 1959 397 
Q 2419 397 2687 759 
Q 2956 1122 2956 1747 
Q 2956 2369 2687 2733 
Q 2419 3097 1959 3097 
z
M 1959 3584 
Q 2709 3584 3137 3096 
Q 3566 2609 3566 1747 
Q 3566 888 3137 398 
Q 2709 -91 1959 -91 
Q 1206 -91 779 398 
Q 353 888 353 1747 
Q 353 2609 779 3096 
Q 1206 3584 1959 3584 
z
" transform="scale(0.015625)"/>
        <path id="DejaVuSans-75" d="M 544 1381 
L 544 3500 
L 1119 3500 
L 1119 1403 
Q 1119 906 1312 657 
Q 1506 409 1894 409 
Q 2359 409 2629 706 
Q 2900 1003 2900 1516 
L 2900 3500 
L 3475 3500 
L 3475 0 
L 2900 0 
L 2900 538 
Q 2691 219 2414 64 
Q 2138 -91 1772 -91 
Q 1169 -91 856 284 
Q 544 659 544 1381 
z
M 1991 3584 
L 1991 3584 
z
" transform="scale(0.015625)"/>
        <path id="DejaVuSans-70" d="M 1159 525 
L 1159 -1331 
L 581 -1331 
L 581 3500 
L 1159 3500 
L 1159 2969 
Q 1341 3281 1617 3432 
Q 1894 3584 2278 3584 
Q 2916 3584 3314 3078 
Q 3713 2572 3713 1747 
Q 3713 922 3314 415 
Q 2916 -91 2278 -91 
Q 1894 -91 1617 61 
Q 1341 213 1159 525 
z
M 3116 1747 
Q 3116 2381 2855 2742 
Q 2594 3103 2138 3103 
Q 1681 3103 1420 2742 
Q 1159 2381 1159 1747 
Q 1159 1113 1420 752 
Q 1681 391 2138 391 
Q 2594 391 2855 752 
Q 3116 1113 3116 1747 
z
" transform="scale(0.015625)"/>
        <path id="DejaVuSans-20" transform="scale(0.015625)"/>
        <path id="DejaVuSans-30" d="M 2034 4250 
Q 1547 4250 1301 3770 
Q 1056 3291 1056 2328 
Q 1056 1369 1301 889 
Q 1547 409 2034 409 
Q 2525 409 2770 889 
Q 3016 1369 3016 2328 
Q 3016 3291 2770 3770 
Q 2525 4250 2034 4250 
z
M 2034 4750 
Q 2819 4750 3233 4129 
Q 3647 3509 3647 2328 
Q 3647 1150 3233 529 
Q 2819 -91 2034 -91 
Q 1250 -91 836 529 
Q 422 1150 422 2328 
Q 422 3509 836 4129 
Q 1250 4750 2034 4750 
z
" transform="scale(0.015625)"/>
       </defs>
       <use xlink:href="#DejaVuSans-47"/>
       <use xlink:href="#DejaVuSans-72" x="77.490234"/>
       <use xlink:href="#DejaVuSans-6f" x="116.353516"/>
       <use xlink:href="#DejaVuSans-75" x="177.535156"/>
       <use xlink:href="#DejaVuSans-70" x="240.914062"/>
       <use xlink:href="#DejaVuSans-20" x="304.390625"/>
       <use xlink:href="#DejaVuSans-30" x="336.177734"/>
      </g>
     </g>
    </g>
    <g id="xtick_2">
     <g id="line2d_2">
      <g>
       <use xlink:href="#mfaca8f218b" x="102.860269" y="272.521395" style="stroke: #000000; stroke-width: 0.8"/>
      </g>
     </g>
     <g id="text_2">
      <!-- Group 1 -->
      <g transform="translate(82.870425 287.119832)scale(0.1 -0.1)">
       <defs>
        <path id="DejaVuSans-31" d="M 794 531 
L 1825 531 
L 1825 4091 
L 703 3866 
L 703 4441 
L 1819 4666 
L 2450 4666 
L 2450 531 
L 3481 531 
L 3481 0 
L 794 0 
L 794 531 
z
" transform="scale(0.015625)"/>
       </defs>
       <use xlink:href="#DejaVuSans-47"/>
       <use xlink:href="#DejaVuSans-72" x="77.490234"/>
       <use xlink:href="#DejaVuSans-6f" x="116.353516"/>
       <use xlink:href="#DejaVuSans-75" x="177.535156"/>
       <use xlink:href="#DejaVuSans-70" x="240.914062"/>
       <use xlink:href="#DejaVuSans-20" x="304.390625"/>
       <use xlink:href="#DejaVuSans-31" x="336.177734"/>
      </g>
     </g>
    </g>
    <g id="xtick_3">
     <g id="line2d_3">
      <g>
       <use xlink:href="#mfaca8f218b" x="155.501703" y="272.521395" style="stroke: #000000; stroke-width: 0.8"/>
      </g>
     </g>
     <g id="text_3">
      <!-- Group 2 -->
      <g transform="translate(135.511859 287.119832)scale(0.1 -0.1)">
       <defs>
        <path id="DejaVuSans-32" d="M 1228 531 
L 3431 531 
L 3431 0 
L 469 0 
L 469 531 
Q 828 903 1448 1529 
Q 2069 2156 2228 2338 
Q 2531 2678 2651 2914 
Q 2772 3150 2772 3378 
Q 2772 3750 2511 3984 
Q 2250 4219 1831 4219 
Q 1534 4219 1204 4116 
Q 875 4013 500 3803 
L 500 4441 
Q 881 4594 1212 4672 
Q 1544 4750 1819 4750 
Q 2544 4750 2975 4387 
Q 3406 4025 3406 3419 
Q 3406 3131 3298 2873 
Q 3191 2616 2906 2266 
Q 2828 2175 2409 1742 
Q 1991 1309 1228 531 
z
" transform="scale(0.015625)"/>
       </defs>
       <use xlink:href="#DejaVuSans-47"/>
       <use xlink:href="#DejaVuSans-72" x="77.490234"/>
       <use xlink:href="#DejaVuSans-6f" x="116.353516"/>
       <use xlink:href="#DejaVuSans-75" x="177.535156"/>
       <use xlink:href="#DejaVuSans-70" x="240.914062"/>
       <use xlink:href="#DejaVuSans-20" x="304.390625"/>
       <use xlink:href="#DejaVuSans-32" x="336.177734"/>
      </g>
     </g>
    </g>
    <g id="xtick_4">
     <g id="line2d_4">
      <g>
       <use xlink:href="#mfaca8f218b" x="208.143137" y="272.521395" style="stroke: #000000; stroke-width: 0.8"/>
      </g>
     </g>
     <g id="text_4">
      <!-- Group 3 -->
      <g transform="translate(188.153293 287.119832)scale(0.1 -0.1)">
       <defs>
        <path id="DejaVuSans-33" d="M 2597 2516 
Q 3050 2419 3304 2112 
Q 3559 1806 3559 1356 
Q 3559 666 3084 287 
Q 2609 -91 1734 -91 
Q 1441 -91 1130 -33 
Q 819 25 488 141 
L 488 750 
Q 750 597 1062 519 
Q 1375 441 1716 441 
Q 2309 441 2620 675 
Q 2931 909 2931 1356 
Q 2931 1769 2642 2001 
Q 2353 2234 1838 2234 
L 1294 2234 
L 1294 2753 
L 1863 2753 
Q 2328 2753 2575 2939 
Q 2822 3125 2822 3475 
Q 2822 3834 2567 4026 
Q 2313 4219 1838 4219 
Q 1578 4219 1281 4162 
Q 984 4106 628 3988 
L 628 4550 
Q 988 4650 1302 4700 
Q 1616 4750 1894 4750 
Q 2613 4750 3031 4423 
Q 3450 4097 3450 3541 
Q 3450 3153 3228 2886 
Q 3006 2619 2597 2516 
z
" transform="scale(0.015625)"/>
       </defs>
       <use xlink:href="#DejaVuSans-47"/>
       <use xlink:href="#DejaVuSans-72" x="77.490234"/>
       <use xlink:href="#DejaVuSans-6f" x="116.353516"/>
       <use xlink:href="#DejaVuSans-75" x="177.535156"/>
       <use xlink:href="#DejaVuSans-70" x="240.914062"/>
       <use xlink:href="#DejaVuSans-20" x="304.390625"/>
       <use xlink:href="#DejaVuSans-33" x="336.177734"/>
      </g>
     </g>
    </g>
    <g id="xtick_5">
     <g id="line2d_5">
      <g>
       <use xlink:href="#mfaca8f218b" x="260.784571" y="272.521395" style="stroke: #000000; stroke-width: 0.8"/>
      </g>
     </g>
     <g id="text_5">
      <!-- Group 4 -->
      <g transform="translate(240.794727 287.119832)scale(0.1 -0.1)">
       <defs>
        <path id="DejaVuSans-34" d="M 2419 4116 
L 825 1625 
L 2419 1625 
L 2419 4116 
z
M 2253 4666 
L 3047 4666 
L 3047 1625 
L 3713 1625 
L 3713 1100 
L 3047 1100 
L 3047 0 
L 2419 0 
L 2419 1100 
L 313 1100 
L 313 1709 
L 2253 4666 
z
" transform="scale(0.015625)"/>
       </defs>
       <use xlink:href="#DejaVuSans-47"/>
       <use xlink:href="#DejaVuSans-72" x="77.490234"/>
       <use xlink:href="#DejaVuSans-6f" x="116.353516"/>
       <use xlink:href="#DejaVuSans-75" x="177.535156"/>
       <use xlink:href="#DejaVuSans-70" x="240.914062"/>
       <use xlink:href="#DejaVuSans-20" x="304.390625"/>
       <use xlink:href="#DejaVuSans-34" x="336.177734"/>
      </g>
     </g>
    </g>
    <g id="xtick_6">
     <g id="line2d_6">
      <g>
       <use xlink:href="#mfaca8f218b" x="313.426005" y="272.521395" style="stroke: #000000; stroke-width: 0.8"/>
      </g>
     </g>
     <g id="text_6">
      <!-- Group 5 -->
      <g transform="translate(293.436162 287.119832)scale(0.1 -0.1)">
       <defs>
        <path id="DejaVuSans-35" d="M 691 4666 
L 3169 4666 
L 3169 4134 
L 1269 4134 
L 1269 2991 
Q 1406 3038 1543 3061 
Q 1681 3084 1819 3084 
Q 2600 3084 3056 2656 
Q 3513 2228 3513 1497 
Q 3513 744 3044 326 
Q 2575 -91 1722 -91 
Q 1428 -91 1123 -41 
Q 819 9 494 109 
L 494 744 
Q 775 591 1075 516 
Q 1375 441 1709 441 
Q 2250 441 2565 725 
Q 2881 1009 2881 1497 
Q 2881 1984 2565 2268 
Q 2250 2553 1709 2553 
Q 1456 2553 1204 2497 
Q 953 2441 691 2322 
L 691 4666 
z
" transform="scale(0.015625)"/>
       </defs>
       <use xlink:href="#DejaVuSans-47"/>
       <use xlink:href="#DejaVuSans-72" x="77.490234"/>
       <use xlink:href="#DejaVuSans-6f" x="116.353516"/>
       <use xlink:href="#DejaVuSans-75" x="177.535156"/>
       <use xlink:href="#DejaVuSans-70" x="240.914062"/>
       <use xlink:href="#DejaVuSans-20" x="304.390625"/>
       <use xlink:href="#DejaVuSans-35" x="336.177734"/>
      </g>
     </g>
    </g>
   </g>
   <g id="matplotlib.axis_2">
    <g id="ytick_1">
     <g id="line2d_7">
      <defs>
       <path id="m41fef645a8" d="M 0 0 
L -3.5 0 
" style="stroke: #000000; stroke-width: 0.8"/>
      </defs>
      <g>
       <use xlink:href="#m41fef645a8" x="26.925" y="252.288988" style="stroke: #000000; stroke-width: 0.8"/>
      </g>
     </g>
     <g id="text_7">
      <!-- 10 -->
      <g transform="translate(7.2 256.088206)scale(0.1 -0.1)">
       <use xlink:href="#DejaVuSans-31"/>
       <use xlink:href="#DejaVuSans-30" x="63.623047"/>
      </g>
     </g>
    </g>
    <g id="ytick_2">
     <g id="line2d_8">
      <g>
       <use xlink:href="#m41fef645a8" x="26.925" y="216.757057" style="stroke: #000000; stroke-width: 0.8"/>
      </g>
     </g>
     <g id="text_8">
      <!-- 11 -->
      <g transform="translate(7.2 220.556275)scale(0.1 -0.1)">
       <use xlink:href="#DejaVuSans-31"/>
       <use xlink:href="#DejaVuSans-31" x="63.623047"/>
      </g>
     </g>
    </g>
    <g id="ytick_3">
     <g id="line2d_9">
      <g>
       <use xlink:href="#m41fef645a8" x="26.925" y="181.225126" style="stroke: #000000; stroke-width: 0.8"/>
      </g>
     </g>
     <g id="text_9">
      <!-- 12 -->
      <g transform="translate(7.2 185.024345)scale(0.1 -0.1)">
       <use xlink:href="#DejaVuSans-31"/>
       <use xlink:href="#DejaVuSans-32" x="63.623047"/>
      </g>
     </g>
    </g>
    <g id="ytick_4">
     <g id="line2d_10">
      <g>
       <use xlink:href="#m41fef645a8" x="26.925" y="145.693195" style="stroke: #000000; stroke-width: 0.8"/>
      </g>
     </g>
     <g id="text_10">
      <!-- 13 -->
      <g transform="translate(7.2 149.492414)scale(0.1 -0.1)">
       <use xlink:href="#DejaVuSans-31"/>
       <use xlink:href="#DejaVuSans-33" x="63.623047"/>
      </g>
     </g>
    </g>
    <g id="ytick_5">
     <g id="line2d_11">
      <g>
       <use xlink:href="#m41fef645a8" x="26.925" y="110.161264" style="stroke: #000000; stroke-width: 0.8"/>
      </g>
     </g>
     <g id="text_11">
      <!-- 14 -->
      <g transform="translate(7.2 113.960483)scale(0.1 -0.1)">
       <use xlink:href="#DejaVuSans-31"/>
       <use xlink:href="#DejaVuSans-34" x="63.623047"/>
      </g>
     </g>
    </g>
    <g id="ytick_6">
     <g id="line2d_12">
      <g>
       <use xlink:href="#m41fef645a8" x="26.925" y="74.629334" style="stroke: #000000; stroke-width: 0.8"/>
      </g>
     </g>
     <g id="text_12">
      <!-- 15 -->
      <g transform="translate(7.2 78.428552)scale(0.1 -0.1)">
       <use xlink:href="#DejaVuSans-31"/>
       <use xlink:href="#DejaVuSans-35" x="63.623047"/>
      </g>
     </g>
    </g>
    <g id="ytick_7">
     <g id="line2d_13">
      <g>
       <use xlink:href="#m41fef645a8" x="26.925" y="39.097403" style="stroke: #000000; stroke-width: 0.8"/>
      </g>
     </g>
     <g id="text_13">
      <!-- 16 -->
      <g transform="translate(7.2 42.896621)scale(0.1 -0.1)">
       <defs>
        <path id="DejaVuSans-36" d="M 2113 2584 
Q 1688 2584 1439 2293 
Q 1191 2003 1191 1497 
Q 1191 994 1439 701 
Q 1688 409 2113 409 
Q 2538 409 2786 701 
Q 3034 994 3034 1497 
Q 3034 2003 2786 2293 
Q 2538 2584 2113 2584 
z
M 3366 4563 
L 3366 3988 
Q 3128 4100 2886 4159 
Q 2644 4219 2406 4219 
Q 1781 4219 1451 3797 
Q 1122 3375 1075 2522 
Q 1259 2794 1537 2939 
Q 1816 3084 2150 3084 
Q 2853 3084 3261 2657 
Q 3669 2231 3669 1497 
Q 3669 778 3244 343 
Q 2819 -91 2113 -91 
Q 1303 -91 875 529 
Q 447 1150 447 2328 
Q 447 3434 972 4092 
Q 1497 4750 2381 4750 
Q 2619 4750 2861 4703 
Q 3103 4656 3366 4563 
z
" transform="scale(0.015625)"/>
       </defs>
       <use xlink:href="#DejaVuSans-31"/>
       <use xlink:href="#DejaVuSans-36" x="63.623047"/>
      </g>
     </g>
    </g>
   </g>
   <g id="line2d_14">
    <path d="M 26.925 260.461332 
L 336.71984 260.461332 
" clip-path="url(#p6ffbe5d84f)" style="fill: none; stroke-dasharray: 5.55,2.4; stroke-dashoffset: 0; stroke: #000000; stroke-width: 1.5"/>
   </g>
   <g id="LineCollection_1">
    <path d="M 59.431086 163.414754 
L 59.431086 68.187477 
" clip-path="url(#p6ffbe5d84f)" style="fill: none; stroke: #000000; stroke-width: 1.5"/>
    <path d="M 112.07252 125.32692 
L 112.07252 19.260063 
" clip-path="url(#p6ffbe5d84f)" style="fill: none; stroke: #000000; stroke-width: 1.5"/>
    <path d="M 164.713954 143.195145 
L 164.713954 117.11733 
" clip-path="url(#p6ffbe5d84f)" style="fill: none; stroke: #000000; stroke-width: 1.5"/>
    <path d="M 217.355388 77.203965 
L 217.355388 33.179934 
" clip-path="url(#p6ffbe5d84f)" style="fill: none; stroke: #000000; stroke-width: 1.5"/>
    <path d="M 269.996822 131.539701 
L 269.996822 69.117735 
" clip-path="url(#p6ffbe5d84f)" style="fill: none; stroke: #000000; stroke-width: 1.5"/>
    <path d="M 322.638256 159.132314 
L 322.638256 72.060804 
" clip-path="url(#p6ffbe5d84f)" style="fill: none; stroke: #000000; stroke-width: 1.5"/>
   </g>
   <g id="line2d_15">
    <defs>
     <path id="mc32bea9464" d="M 1.5 0 
L -1.5 -0 
" style="stroke: #000000"/>
    </defs>
    <g clip-path="url(#p6ffbe5d84f)">
     <use xlink:href="#mc32bea9464" x="59.431086" y="163.414754" style="stroke: #000000"/>
     <use xlink:href="#mc32bea9464" x="112.07252" y="125.32692" style="stroke: #000000"/>
     <use xlink:href="#mc32bea9464" x="164.713954" y="143.195145" style="stroke: #000000"/>
     <use xlink:href="#mc32bea9464" x="217.355388" y="77.203965" style="stroke: #000000"/>
     <use xlink:href="#mc32bea9464" x="269.996822" y="131.539701" style="stroke: #000000"/>
     <use xlink:href="#mc32bea9464" x="322.638256" y="159.132314" style="stroke: #000000"/>
    </g>
   </g>
   <g id="line2d_16">
    <g clip-path="url(#p6ffbe5d84f)">
     <use xlink:href="#mc32bea9464" x="59.431086" y="68.187477" style="stroke: #000000"/>
     <use xlink:href="#mc32bea9464" x="112.07252" y="19.260063" style="stroke: #000000"/>
     <use xlink:href="#mc32bea9464" x="164.713954" y="117.11733" style="stroke: #000000"/>
     <use xlink:href="#mc32bea9464" x="217.355388" y="33.179934" style="stroke: #000000"/>
     <use xlink:href="#mc32bea9464" x="269.996822" y="69.117735" style="stroke: #000000"/>
     <use xlink:href="#mc32bea9464" x="322.638256" y="72.060804" style="stroke: #000000"/>
    </g>
   </g>
   <g id="LineCollection_2">
    <path d="M 41.006584 130.315713 
L 41.006584 101.286518 
" clip-path="url(#p6ffbe5d84f)" style="fill: none; stroke: #696969; stroke-width: 1.5"/>
    <path d="M 93.648018 88.460265 
L 93.648018 56.126719 
" clip-path="url(#p6ffbe5d84f)" style="fill: none; stroke: #696969; stroke-width: 1.5"/>
    <path d="M 146.289452 134.131033 
L 146.289452 126.181441 
" clip-path="url(#p6ffbe5d84f)" style="fill: none; stroke: #696969; stroke-width: 1.5"/>
    <path d="M 198.930886 61.902119 
L 198.930886 48.481781 
" clip-path="url(#p6ffbe5d84f)" style="fill: none; stroke: #696969; stroke-width: 1.5"/>
    <path d="M 251.57232 109.843111 
L 251.57232 90.814325 
" clip-path="url(#p6ffbe5d84f)" style="fill: none; stroke: #696969; stroke-width: 1.5"/>
    <path d="M 304.213754 128.86805 
L 304.213754 102.325068 
" clip-path="url(#p6ffbe5d84f)" style="fill: none; stroke: #696969; stroke-width: 1.5"/>
   </g>
   <g id="line2d_17">
    <defs>
     <path id="mdfef7ec434" d="M 1.5 0 
L -1.5 -0 
" style="stroke: #696969"/>
    </defs>
    <g clip-path="url(#p6ffbe5d84f)">
     <use xlink:href="#mdfef7ec434" x="41.006584" y="130.315713" style="fill: #696969; stroke: #696969"/>
     <use xlink:href="#mdfef7ec434" x="93.648018" y="88.460265" style="fill: #696969; stroke: #696969"/>
     <use xlink:href="#mdfef7ec434" x="146.289452" y="134.131033" style="fill: #696969; stroke: #696969"/>
     <use xlink:href="#mdfef7ec434" x="198.930886" y="61.902119" style="fill: #696969; stroke: #696969"/>
     <use xlink:href="#mdfef7ec434" x="251.57232" y="109.843111" style="fill: #696969; stroke: #696969"/>
     <use xlink:href="#mdfef7ec434" x="304.213754" y="128.86805" style="fill: #696969; stroke: #696969"/>
    </g>
   </g>
   <g id="line2d_18">
    <g clip-path="url(#p6ffbe5d84f)">
     <use xlink:href="#mdfef7ec434" x="41.006584" y="101.286518" style="fill: #696969; stroke: #696969"/>
     <use xlink:href="#mdfef7ec434" x="93.648018" y="56.126719" style="fill: #696969; stroke: #696969"/>
     <use xlink:href="#mdfef7ec434" x="146.289452" y="126.181441" style="fill: #696969; stroke: #696969"/>
     <use xlink:href="#mdfef7ec434" x="198.930886" y="48.481781" style="fill: #696969; stroke: #696969"/>
     <use xlink:href="#mdfef7ec434" x="251.57232" y="90.814325" style="fill: #696969; stroke: #696969"/>
     <use xlink:href="#mdfef7ec434" x="304.213754" y="102.325068" style="fill: #696969; stroke: #696969"/>
    </g>
   </g>
   <g id="LineCollection_3">
    <path d="M 50.218835 159.344908 
L 50.218835 72.257323 
" clip-path="url(#p6ffbe5d84f)" style="fill: none; stroke: #708090; stroke-width: 1.5"/>
    <path d="M 102.860269 120.79381 
L 102.860269 23.793174 
" clip-path="url(#p6ffbe5d84f)" style="fill: none; stroke: #708090; stroke-width: 1.5"/>
    <path d="M 155.501703 142.080625 
L 155.501703 118.23185 
" clip-path="url(#p6ffbe5d84f)" style="fill: none; stroke: #708090; stroke-width: 1.5"/>
    <path d="M 208.143137 75.322456 
L 208.143137 35.061444 
" clip-path="url(#p6ffbe5d84f)" style="fill: none; stroke: #708090; stroke-width: 1.5"/>
    <path d="M 260.784571 128.871896 
L 260.784571 71.78554 
" clip-path="url(#p6ffbe5d84f)" style="fill: none; stroke: #708090; stroke-width: 1.5"/>
    <path d="M 313.426005 155.411031 
L 313.426005 75.782087 
" clip-path="url(#p6ffbe5d84f)" style="fill: none; stroke: #708090; stroke-width: 1.5"/>
   </g>
   <g id="line2d_19">
    <defs>
     <path id="mc34f3f1d8b" d="M 1.5 0 
L -1.5 -0 
" style="stroke: #708090"/>
    </defs>
    <g clip-path="url(#p6ffbe5d84f)">
     <use xlink:href="#mc34f3f1d8b" x="50.218835" y="159.344908" style="fill: #708090; stroke: #708090"/>
     <use xlink:href="#mc34f3f1d8b" x="102.860269" y="120.79381" style="fill: #708090; stroke: #708090"/>
     <use xlink:href="#mc34f3f1d8b" x="155.501703" y="142.080625" style="fill: #708090; stroke: #708090"/>
     <use xlink:href="#mc34f3f1d8b" x="208.143137" y="75.322456" style="fill: #708090; stroke: #708090"/>
     <use xlink:href="#mc34f3f1d8b" x="260.784571" y="128.871896" style="fill: #708090; stroke: #708090"/>
     <use xlink:href="#mc34f3f1d8b" x="313.426005" y="155.411031" style="fill: #708090; stroke: #708090"/>
    </g>
   </g>
   <g id="line2d_20">
    <g clip-path="url(#p6ffbe5d84f)">
     <use xlink:href="#mc34f3f1d8b" x="50.218835" y="72.257323" style="fill: #708090; stroke: #708090"/>
     <use xlink:href="#mc34f3f1d8b" x="102.860269" y="23.793174" style="fill: #708090; stroke: #708090"/>
     <use xlink:href="#mc34f3f1d8b" x="155.501703" y="118.23185" style="fill: #708090; stroke: #708090"/>
     <use xlink:href="#mc34f3f1d8b" x="208.143137" y="35.061444" style="fill: #708090; stroke: #708090"/>
     <use xlink:href="#mc34f3f1d8b" x="260.784571" y="71.78554" style="fill: #708090; stroke: #708090"/>
     <use xlink:href="#mc34f3f1d8b" x="313.426005" y="75.782087" style="fill: #708090; stroke: #708090"/>
    </g>
   </g>
   <g id="line2d_21">
    <defs>
     <path id="m62c5790e26" d="M 0 1.5 
C 0.397805 1.5 0.77937 1.341951 1.06066 1.06066 
C 1.341951 0.77937 1.5 0.397805 1.5 0 
C 1.5 -0.397805 1.341951 -0.77937 1.06066 -1.06066 
C 0.77937 -1.341951 0.397805 -1.5 0 -1.5 
C -0.397805 -1.5 -0.77937 -1.341951 -1.06066 -1.06066 
C -1.341951 -0.77937 -1.5 -0.397805 -1.5 0 
C -1.5 0.397805 -1.341951 0.77937 -1.06066 1.06066 
C -0.77937 1.341951 -0.397805 1.5 0 1.5 
z
" style="stroke: #000000"/>
    </defs>
    <g clip-path="url(#p6ffbe5d84f)">
     <use xlink:href="#m62c5790e26" x="59.431086" y="115.801116" style="stroke: #000000"/>
     <use xlink:href="#m62c5790e26" x="112.07252" y="72.293492" style="stroke: #000000"/>
     <use xlink:href="#m62c5790e26" x="164.713954" y="130.156237" style="stroke: #000000"/>
     <use xlink:href="#m62c5790e26" x="217.355388" y="55.19195" style="stroke: #000000"/>
     <use xlink:href="#m62c5790e26" x="269.996822" y="100.328718" style="stroke: #000000"/>
     <use xlink:href="#m62c5790e26" x="322.638256" y="115.596559" style="stroke: #000000"/>
    </g>
   </g>
   <g id="line2d_22">
    <defs>
     <path id="m04355c7bbe" d="M 0 1.5 
C 0.397805 1.5 0.77937 1.341951 1.06066 1.06066 
C 1.341951 0.77937 1.5 0.397805 1.5 0 
C 1.5 -0.397805 1.341951 -0.77937 1.06066 -1.06066 
C 0.77937 -1.341951 0.397805 -1.5 0 -1.5 
C -0.397805 -1.5 -0.77937 -1.341951 -1.06066 -1.06066 
C -1.341951 -0.77937 -1.5 -0.397805 -1.5 0 
C -1.5 0.397805 -1.341951 0.77937 -1.06066 1.06066 
C -0.77937 1.341951 -0.397805 1.5 0 1.5 
z
" style="stroke: #696969"/>
    </defs>
    <g clip-path="url(#p6ffbe5d84f)">
     <use xlink:href="#m04355c7bbe" x="41.006584" y="115.801116" style="fill: #696969; stroke: #696969"/>
     <use xlink:href="#m04355c7bbe" x="93.648018" y="72.293492" style="fill: #696969; stroke: #696969"/>
     <use xlink:href="#m04355c7bbe" x="146.289452" y="130.156237" style="fill: #696969; stroke: #696969"/>
     <use xlink:href="#m04355c7bbe" x="198.930886" y="55.19195" style="fill: #696969; stroke: #696969"/>
     <use xlink:href="#m04355c7bbe" x="251.57232" y="100.328718" style="fill: #696969; stroke: #696969"/>
     <use xlink:href="#m04355c7bbe" x="304.213754" y="115.596559" style="fill: #696969; stroke: #696969"/>
    </g>
   </g>
   <g id="line2d_23">
    <defs>
     <path id="m77182a4c24" d="M 0 1.5 
C 0.397805 1.5 0.77937 1.341951 1.06066 1.06066 
C 1.341951 0.77937 1.5 0.397805 1.5 0 
C 1.5 -0.397805 1.341951 -0.77937 1.06066 -1.06066 
C 0.77937 -1.341951 0.397805 -1.5 0 -1.5 
C -0.397805 -1.5 -0.77937 -1.341951 -1.06066 -1.06066 
C -1.341951 -0.77937 -1.5 -0.397805 -1.5 0 
C -1.5 0.397805 -1.341951 0.77937 -1.06066 1.06066 
C -0.77937 1.341951 -0.397805 1.5 0 1.5 
z
" style="stroke: #708090"/>
    </defs>
    <g clip-path="url(#p6ffbe5d84f)">
     <use xlink:href="#m77182a4c24" x="50.218835" y="115.801116" style="fill: #708090; stroke: #708090"/>
     <use xlink:href="#m77182a4c24" x="102.860269" y="72.293492" style="fill: #708090; stroke: #708090"/>
     <use xlink:href="#m77182a4c24" x="155.501703" y="130.156237" style="fill: #708090; stroke: #708090"/>
     <use xlink:href="#m77182a4c24" x="208.143137" y="55.19195" style="fill: #708090; stroke: #708090"/>
     <use xlink:href="#m77182a4c24" x="260.784571" y="100.328718" style="fill: #708090; stroke: #708090"/>
     <use xlink:href="#m77182a4c24" x="313.426005" y="115.596559" style="fill: #708090; stroke: #708090"/>
    </g>
   </g>
   <g id="patch_3">
    <path d="M 26.925 272.521395 
L 26.925 7.2 
" style="fill: none; stroke: #000000; stroke-width: 0.8; stroke-linejoin: miter; stroke-linecap: square"/>
   </g>
   <g id="patch_4">
    <path d="M 336.71984 272.521395 
L 336.71984 7.2 
" style="fill: none; stroke: #000000; stroke-width: 0.8; stroke-linejoin: miter; stroke-linecap: square"/>
   </g>
   <g id="patch_5">
    <path d="M 26.925 272.521395 
L 336.71984 272.521395 
" style="fill: none; stroke: #000000; stroke-width: 0.8; stroke-linejoin: miter; stroke-linecap: square"/>
   </g>
   <g id="patch_6">
    <path d="M 26.925 7.2 
L 336.71984 7.2 
" style="fill: none; stroke: #000000; stroke-width: 0.8; stroke-linejoin: miter; stroke-linecap: square"/>
   </g>
  </g>
  <g id="axes_2">
   <g id="patch_7">
    <path d="M 363.16484 272.521395 
L 672.95968 272.521395 
L 672.95968 7.2 
L 363.16484 7.2 
z
" style="fill: #ffffff"/>
   </g>
   <g id="matplotlib.axis_3">
    <g id="xtick_7">
     <g id="line2d_24">
      <g>
       <use xlink:href="#mfaca8f218b" x="413.754233" y="272.521395" style="stroke: #000000; stroke-width: 0.8"/>
      </g>
     </g>
     <g id="text_14">
      <!-- Group 0 -->
      <g transform="translate(393.764389 287.119832)scale(0.1 -0.1)">
       <use xlink:href="#DejaVuSans-47"/>
       <use xlink:href="#DejaVuSans-72" x="77.490234"/>
       <use xlink:href="#DejaVuSans-6f" x="116.353516"/>
       <use xlink:href="#DejaVuSans-75" x="177.535156"/>
       <use xlink:href="#DejaVuSans-70" x="240.914062"/>
       <use xlink:href="#DejaVuSans-20" x="304.390625"/>
       <use xlink:href="#DejaVuSans-30" x="336.177734"/>
      </g>
     </g>
    </g>
    <g id="xtick_8">
     <g id="line2d_25">
      <g>
       <use xlink:href="#mfaca8f218b" x="622.370287" y="272.521395" style="stroke: #000000; stroke-width: 0.8"/>
      </g>
     </g>
     <g id="text_15">
      <!-- Group 1 -->
      <g transform="translate(602.380443 287.119832)scale(0.1 -0.1)">
       <use xlink:href="#DejaVuSans-47"/>
       <use xlink:href="#DejaVuSans-72" x="77.490234"/>
       <use xlink:href="#DejaVuSans-6f" x="116.353516"/>
       <use xlink:href="#DejaVuSans-75" x="177.535156"/>
       <use xlink:href="#DejaVuSans-70" x="240.914062"/>
       <use xlink:href="#DejaVuSans-20" x="304.390625"/>
       <use xlink:href="#DejaVuSans-31" x="336.177734"/>
      </g>
     </g>
    </g>
   </g>
   <g id="matplotlib.axis_4">
    <g id="ytick_8">
     <g id="line2d_26">
      <g>
       <use xlink:href="#m41fef645a8" x="363.16484" y="250.933409" style="stroke: #000000; stroke-width: 0.8"/>
      </g>
     </g>
     <g id="text_16">
      <!-- 10 -->
      <g transform="translate(343.43984 254.732628)scale(0.1 -0.1)">
       <use xlink:href="#DejaVuSans-31"/>
       <use xlink:href="#DejaVuSans-30" x="63.623047"/>
      </g>
     </g>
    </g>
    <g id="ytick_9">
     <g id="line2d_27">
      <g>
       <use xlink:href="#m41fef645a8" x="363.16484" y="209.507659" style="stroke: #000000; stroke-width: 0.8"/>
      </g>
     </g>
     <g id="text_17">
      <!-- 11 -->
      <g transform="translate(343.43984 213.306878)scale(0.1 -0.1)">
       <use xlink:href="#DejaVuSans-31"/>
       <use xlink:href="#DejaVuSans-31" x="63.623047"/>
      </g>
     </g>
    </g>
    <g id="ytick_10">
     <g id="line2d_28">
      <g>
       <use xlink:href="#m41fef645a8" x="363.16484" y="168.081909" style="stroke: #000000; stroke-width: 0.8"/>
      </g>
     </g>
     <g id="text_18">
      <!-- 12 -->
      <g transform="translate(343.43984 171.881127)scale(0.1 -0.1)">
       <use xlink:href="#DejaVuSans-31"/>
       <use xlink:href="#DejaVuSans-32" x="63.623047"/>
      </g>
     </g>
    </g>
    <g id="ytick_11">
     <g id="line2d_29">
      <g>
       <use xlink:href="#m41fef645a8" x="363.16484" y="126.656158" style="stroke: #000000; stroke-width: 0.8"/>
      </g>
     </g>
     <g id="text_19">
      <!-- 13 -->
      <g transform="translate(343.43984 130.455377)scale(0.1 -0.1)">
       <use xlink:href="#DejaVuSans-31"/>
       <use xlink:href="#DejaVuSans-33" x="63.623047"/>
      </g>
     </g>
    </g>
    <g id="ytick_12">
     <g id="line2d_30">
      <g>
       <use xlink:href="#m41fef645a8" x="363.16484" y="85.230408" style="stroke: #000000; stroke-width: 0.8"/>
      </g>
     </g>
     <g id="text_20">
      <!-- 14 -->
      <g transform="translate(343.43984 89.029627)scale(0.1 -0.1)">
       <use xlink:href="#DejaVuSans-31"/>
       <use xlink:href="#DejaVuSans-34" x="63.623047"/>
      </g>
     </g>
    </g>
    <g id="ytick_13">
     <g id="line2d_31">
      <g>
       <use xlink:href="#m41fef645a8" x="363.16484" y="43.804658" style="stroke: #000000; stroke-width: 0.8"/>
      </g>
     </g>
     <g id="text_21">
      <!-- 15 -->
      <g transform="translate(343.43984 47.603877)scale(0.1 -0.1)">
       <use xlink:href="#DejaVuSans-31"/>
       <use xlink:href="#DejaVuSans-35" x="63.623047"/>
      </g>
     </g>
    </g>
   </g>
   <g id="line2d_32">
    <path d="M 363.16484 260.461332 
L 672.95968 260.461332 
" clip-path="url(#p53dbb05081)" style="fill: none; stroke-dasharray: 5.55,2.4; stroke-dashoffset: 0; stroke: #000000; stroke-width: 1.5"/>
   </g>
   <g id="LineCollection_4">
    <path d="M 450.262042 132.183495 
L 450.262042 28.769271 
" clip-path="url(#p53dbb05081)" style="fill: none; stroke: #000000; stroke-width: 1.5"/>
    <path d="M 658.878096 105.058134 
L 658.878096 19.260063 
" clip-path="url(#p53dbb05081)" style="fill: none; stroke: #000000; stroke-width: 1.5"/>
   </g>
   <g id="line2d_33">
    <g clip-path="url(#p53dbb05081)">
     <use xlink:href="#mc32bea9464" x="450.262042" y="132.183495" style="stroke: #000000"/>
     <use xlink:href="#mc32bea9464" x="658.878096" y="105.058134" style="stroke: #000000"/>
    </g>
   </g>
   <g id="line2d_34">
    <g clip-path="url(#p53dbb05081)">
     <use xlink:href="#mc32bea9464" x="450.262042" y="28.769271" style="stroke: #000000"/>
     <use xlink:href="#mc32bea9464" x="658.878096" y="19.260063" style="stroke: #000000"/>
    </g>
   </g>
   <g id="LineCollection_5">
    <path d="M 377.246424 96.23884 
L 377.246424 64.713927 
" clip-path="url(#p53dbb05081)" style="fill: none; stroke: #696969; stroke-width: 1.5"/>
    <path d="M 585.862478 75.236491 
L 585.862478 49.081706 
" clip-path="url(#p53dbb05081)" style="fill: none; stroke: #696969; stroke-width: 1.5"/>
   </g>
   <g id="line2d_35">
    <g clip-path="url(#p53dbb05081)">
     <use xlink:href="#mdfef7ec434" x="377.246424" y="96.23884" style="fill: #696969; stroke: #696969"/>
     <use xlink:href="#mdfef7ec434" x="585.862478" y="75.236491" style="fill: #696969; stroke: #696969"/>
    </g>
   </g>
   <g id="line2d_36">
    <g clip-path="url(#p53dbb05081)">
     <use xlink:href="#mdfef7ec434" x="377.246424" y="64.713927" style="fill: #696969; stroke: #696969"/>
     <use xlink:href="#mdfef7ec434" x="585.862478" y="49.081706" style="fill: #696969; stroke: #696969"/>
    </g>
   </g>
   <g id="LineCollection_6">
    <path d="M 413.754233 127.763753 
L 413.754233 33.189013 
" clip-path="url(#p53dbb05081)" style="fill: none; stroke: #708090; stroke-width: 1.5"/>
    <path d="M 622.370287 101.391275 
L 622.370287 22.926922 
" clip-path="url(#p53dbb05081)" style="fill: none; stroke: #708090; stroke-width: 1.5"/>
   </g>
   <g id="line2d_37">
    <g clip-path="url(#p53dbb05081)">
     <use xlink:href="#mc34f3f1d8b" x="413.754233" y="127.763753" style="fill: #708090; stroke: #708090"/>
     <use xlink:href="#mc34f3f1d8b" x="622.370287" y="101.391275" style="fill: #708090; stroke: #708090"/>
    </g>
   </g>
   <g id="line2d_38">
    <g clip-path="url(#p53dbb05081)">
     <use xlink:href="#mc34f3f1d8b" x="413.754233" y="33.189013" style="fill: #708090; stroke: #708090"/>
     <use xlink:href="#mc34f3f1d8b" x="622.370287" y="22.926922" style="fill: #708090; stroke: #708090"/>
    </g>
   </g>
   <g id="line2d_39">
    <g clip-path="url(#p53dbb05081)">
     <use xlink:href="#m62c5790e26" x="450.262042" y="80.476383" style="stroke: #000000"/>
     <use xlink:href="#m62c5790e26" x="658.878096" y="62.159098" style="stroke: #000000"/>
    </g>
   </g>
   <g id="line2d_40">
    <g clip-path="url(#p53dbb05081)">
     <use xlink:href="#m04355c7bbe" x="377.246424" y="80.476383" style="fill: #696969; stroke: #696969"/>
     <use xlink:href="#m04355c7bbe" x="585.862478" y="62.159098" style="fill: #696969; stroke: #696969"/>
    </g>
   </g>
   <g id="line2d_41">
    <g clip-path="url(#p53dbb05081)">
     <use xlink:href="#m77182a4c24" x="413.754233" y="80.476383" style="fill: #708090; stroke: #708090"/>
     <use xlink:href="#m77182a4c24" x="622.370287" y="62.159098" style="fill: #708090; stroke: #708090"/>
    </g>
   </g>
   <g id="patch_8">
    <path d="M 363.16484 272.521395 
L 363.16484 7.2 
" style="fill: none; stroke: #000000; stroke-width: 0.8; stroke-linejoin: miter; stroke-linecap: square"/>
   </g>
   <g id="patch_9">
    <path d="M 672.95968 272.521395 
L 672.95968 7.2 
" style="fill: none; stroke: #000000; stroke-width: 0.8; stroke-linejoin: miter; stroke-linecap: square"/>
   </g>
   <g id="patch_10">
    <path d="M 363.16484 272.521395 
L 672.95968 272.521395 
" style="fill: none; stroke: #000000; stroke-width: 0.8; stroke-linejoin: miter; stroke-linecap: square"/>
   </g>
   <g id="patch_11">
    <path d="M 363.16484 7.2 
L 672.95968 7.2 
" style="fill: none; stroke: #000000; stroke-width: 0.8; stroke-linejoin: miter; stroke-linecap: square"/>
   </g>
  </g>
  <g id="axes_3">
   <g id="patch_12">
    <path d="M 699.40468 272.521395 
L 1009.19952 272.521395 
L 1009.19952 7.2 
L 699.40468 7.2 
z
" style="fill: #ffffff"/>
   </g>
   <g id="matplotlib.axis_5">
    <g id="xtick_9">
     <g id="line2d_42">
      <g>
       <use xlink:href="#mfaca8f218b" x="854.3021" y="272.521395" style="stroke: #000000; stroke-width: 0.8"/>
      </g>
     </g>
     <g id="text_22">
      <!-- Group 0 -->
      <g transform="translate(834.312256 287.119832)scale(0.1 -0.1)">
       <use xlink:href="#DejaVuSans-47"/>
       <use xlink:href="#DejaVuSans-72" x="77.490234"/>
       <use xlink:href="#DejaVuSans-6f" x="116.353516"/>
       <use xlink:href="#DejaVuSans-75" x="177.535156"/>
       <use xlink:href="#DejaVuSans-70" x="240.914062"/>
       <use xlink:href="#DejaVuSans-20" x="304.390625"/>
       <use xlink:href="#DejaVuSans-30" x="336.177734"/>
      </g>
     </g>
    </g>
   </g>
   <g id="matplotlib.axis_6">
    <g id="ytick_14">
     <g id="line2d_43">
      <g>
       <use xlink:href="#m41fef645a8" x="699.40468" y="250.763152" style="stroke: #000000; stroke-width: 0.8"/>
      </g>
     </g>
     <g id="text_23">
      <!-- 10 -->
      <g transform="translate(679.67968 254.562371)scale(0.1 -0.1)">
       <use xlink:href="#DejaVuSans-31"/>
       <use xlink:href="#DejaVuSans-30" x="63.623047"/>
      </g>
     </g>
    </g>
    <g id="ytick_15">
     <g id="line2d_44">
      <g>
       <use xlink:href="#m41fef645a8" x="699.40468" y="208.597156" style="stroke: #000000; stroke-width: 0.8"/>
      </g>
     </g>
     <g id="text_24">
      <!-- 11 -->
      <g transform="translate(679.67968 212.396375)scale(0.1 -0.1)">
       <use xlink:href="#DejaVuSans-31"/>
       <use xlink:href="#DejaVuSans-31" x="63.623047"/>
      </g>
     </g>
    </g>
    <g id="ytick_16">
     <g id="line2d_45">
      <g>
       <use xlink:href="#m41fef645a8" x="699.40468" y="166.431159" style="stroke: #000000; stroke-width: 0.8"/>
      </g>
     </g>
     <g id="text_25">
      <!-- 12 -->
      <g transform="translate(679.67968 170.230378)scale(0.1 -0.1)">
       <use xlink:href="#DejaVuSans-31"/>
       <use xlink:href="#DejaVuSans-32" x="63.623047"/>
      </g>
     </g>
    </g>
    <g id="ytick_17">
     <g id="line2d_46">
      <g>
       <use xlink:href="#m41fef645a8" x="699.40468" y="124.265163" style="stroke: #000000; stroke-width: 0.8"/>
      </g>
     </g>
     <g id="text_26">
      <!-- 13 -->
      <g transform="translate(679.67968 128.064381)scale(0.1 -0.1)">
       <use xlink:href="#DejaVuSans-31"/>
       <use xlink:href="#DejaVuSans-33" x="63.623047"/>
      </g>
     </g>
    </g>
    <g id="ytick_18">
     <g id="line2d_47">
      <g>
       <use xlink:href="#m41fef645a8" x="699.40468" y="82.099166" style="stroke: #000000; stroke-width: 0.8"/>
      </g>
     </g>
     <g id="text_27">
      <!-- 14 -->
      <g transform="translate(679.67968 85.898385)scale(0.1 -0.1)">
       <use xlink:href="#DejaVuSans-31"/>
       <use xlink:href="#DejaVuSans-34" x="63.623047"/>
      </g>
     </g>
    </g>
    <g id="ytick_19">
     <g id="line2d_48">
      <g>
       <use xlink:href="#m41fef645a8" x="699.40468" y="39.933169" style="stroke: #000000; stroke-width: 0.8"/>
      </g>
     </g>
     <g id="text_28">
      <!-- 15 -->
      <g transform="translate(679.67968 43.732388)scale(0.1 -0.1)">
       <use xlink:href="#DejaVuSans-31"/>
       <use xlink:href="#DejaVuSans-35" x="63.623047"/>
      </g>
     </g>
    </g>
   </g>
   <g id="line2d_49">
    <path d="M 699.40468 260.461332 
L 1009.19952 260.461332 
" clip-path="url(#p3c79360d2a)" style="fill: none; stroke-dasharray: 5.55,2.4; stroke-dashoffset: 0; stroke: #000000; stroke-width: 1.5"/>
   </g>
   <g id="LineCollection_7">
    <path d="M 995.117936 116.615717 
L 995.117936 19.260063 
" clip-path="url(#p3c79360d2a)" style="fill: none; stroke: #000000; stroke-width: 1.5"/>
   </g>
   <g id="line2d_50">
    <g clip-path="url(#p3c79360d2a)">
     <use xlink:href="#mc32bea9464" x="995.117936" y="116.615717" style="stroke: #000000"/>
    </g>
   </g>
   <g id="line2d_51">
    <g clip-path="url(#p3c79360d2a)">
     <use xlink:href="#mc32bea9464" x="995.117936" y="19.260063" style="stroke: #000000"/>
    </g>
   </g>
   <g id="LineCollection_8">
    <path d="M 713.486264 82.776896 
L 713.486264 53.098884 
" clip-path="url(#p3c79360d2a)" style="fill: none; stroke: #696969; stroke-width: 1.5"/>
   </g>
   <g id="line2d_52">
    <g clip-path="url(#p3c79360d2a)">
     <use xlink:href="#mdfef7ec434" x="713.486264" y="82.776896" style="fill: #696969; stroke: #696969"/>
    </g>
   </g>
   <g id="line2d_53">
    <g clip-path="url(#p3c79360d2a)">
     <use xlink:href="#mdfef7ec434" x="713.486264" y="53.098884" style="fill: #696969; stroke: #696969"/>
    </g>
   </g>
   <g id="LineCollection_9">
    <path d="M 854.3021 112.454907 
L 854.3021 23.420873 
" clip-path="url(#p3c79360d2a)" style="fill: none; stroke: #708090; stroke-width: 1.5"/>
   </g>
   <g id="line2d_54">
    <g clip-path="url(#p3c79360d2a)">
     <use xlink:href="#mc34f3f1d8b" x="854.3021" y="112.454907" style="fill: #708090; stroke: #708090"/>
    </g>
   </g>
   <g id="line2d_55">
    <g clip-path="url(#p3c79360d2a)">
     <use xlink:href="#mc34f3f1d8b" x="854.3021" y="23.420873" style="fill: #708090; stroke: #708090"/>
    </g>
   </g>
   <g id="line2d_56">
    <g clip-path="url(#p3c79360d2a)">
     <use xlink:href="#m62c5790e26" x="995.117936" y="67.93789" style="stroke: #000000"/>
    </g>
   </g>
   <g id="line2d_57">
    <g clip-path="url(#p3c79360d2a)">
     <use xlink:href="#m04355c7bbe" x="713.486264" y="67.93789" style="fill: #696969; stroke: #696969"/>
    </g>
   </g>
   <g id="line2d_58">
    <g clip-path="url(#p3c79360d2a)">
     <use xlink:href="#m77182a4c24" x="854.3021" y="67.93789" style="fill: #708090; stroke: #708090"/>
    </g>
   </g>
   <g id="patch_13">
    <path d="M 699.40468 272.521395 
L 699.40468 7.2 
" style="fill: none; stroke: #000000; stroke-width: 0.8; stroke-linejoin: miter; stroke-linecap: square"/>
   </g>
   <g id="patch_14">
    <path d="M 1009.19952 272.521395 
L 1009.19952 7.2 
" style="fill: none; stroke: #000000; stroke-width: 0.8; stroke-linejoin: miter; stroke-linecap: square"/>
   </g>
   <g id="patch_15">
    <path d="M 699.40468 272.521395 
L 1009.19952 272.521395 
" style="fill: none; stroke: #000000; stroke-width: 0.8; stroke-linejoin: miter; stroke-linecap: square"/>
   </g>
   <g id="patch_16">
    <path d="M 699.40468 7.2 
L 1009.19952 7.2 
" style="fill: none; stroke: #000000; stroke-width: 0.8; stroke-linejoin: miter; stroke-linecap: square"/>
   </g>
  </g>
 </g>
 <defs>
  <clipPath id="p6ffbe5d84f">
   <rect x="26.925" y="7.2" width="309.79484" height="265.321395"/>
  </clipPath>
  <clipPath id="p53dbb05081">
   <rect x="363.16484" y="7.2" width="309.79484" height="265.321395"/>
  </clipPath>
  <clipPath id="p3c79360d2a">
   <rect x="699.40468" y="7.2" width="309.79484" height="265.321395"/>
  </clipPath>
 </defs>
</svg>
