<?xml version="1.0" encoding="utf-8" standalone="no"?>
<!DOCTYPE svg PUBLIC "-//W3C//DTD SVG 1.1//EN"
  "http://www.w3.org/Graphics/SVG/1.1/DTD/svg11.dtd">
<svg xmlns:xlink="http://www.w3.org/1999/xlink" width="440.39952pt" height="296.39952pt" viewBox="0 0 440.39952 296.39952" xmlns="http://www.w3.org/2000/svg" version="1.1">
 <metadata>
  <rdf:RDF xmlns:dc="http://purl.org/dc/elements/1.1/" xmlns:cc="http://creativecommons.org/ns#" xmlns:rdf="http://www.w3.org/1999/02/22-rdf-syntax-ns#">
   <cc:Work>
    <dc:type rdf:resource="http://purl.org/dc/dcmitype/StillImage"/>
    <dc:date>2021-12-12T10:07:04.881822</dc:date>
    <dc:format>image/svg+xml</dc:format>
    <dc:creator>
     <cc:Agent>
      <dc:title>Matplotlib v3.5.0, https://matplotlib.org/</dc:title>
     </cc:Agent>
    </dc:creator>
   </cc:Work>
  </rdf:RDF>
 </metadata>
 <defs>
  <style type="text/css">*{stroke-linejoin: round; stroke-linecap: butt}</style>
 </defs>
 <g id="figure_1">
  <g id="patch_1">
   <path d="M 0 296.39952 
L 440.39952 296.39952 
L 440.39952 0 
L 0 0 
L 0 296.39952 
z
" style="fill: none"/>
  </g>
  <g id="axes_1">
   <g id="patch_2">
    <path d="M 36.465625 80.521395 
L 433.19952 80.521395 
L 433.19952 7.2 
L 36.465625 7.2 
z
" style="fill: #ffffff"/>
   </g>
   <g id="matplotlib.axis_1">
    <g id="xtick_1">
     <g id="line2d_1">
      <path d="M 72.373296 80.521395 
L 72.373296 7.2 
" clip-path="url(#pbb5818275f)" style="fill: none; stroke: #b0b0b0; stroke-width: 0.8; stroke-linecap: square"/>
     </g>
     <g id="line2d_2">
      <defs>
       <path id="mb654780098" d="M 0 0 
L 0 3.5 
" style="stroke: #000000; stroke-width: 0.8"/>
      </defs>
      <g>
       <use xlink:href="#mb654780098" x="72.373296" y="80.521395" style="stroke: #000000; stroke-width: 0.8"/>
      </g>
     </g>
     <g id="text_1">
      <!-- −2 -->
      <g transform="translate(65.002202 95.119833)scale(0.1 -0.1)">
       <defs>
        <path id="DejaVuSans-2212" d="M 678 2272 
L 4684 2272 
L 4684 1741 
L 678 1741 
L 678 2272 
z
" transform="scale(0.015625)"/>
        <path id="DejaVuSans-32" d="M 1228 531 
L 3431 531 
L 3431 0 
L 469 0 
L 469 531 
Q 828 903 1448 1529 
Q 2069 2156 2228 2338 
Q 2531 2678 2651 2914 
Q 2772 3150 2772 3378 
Q 2772 3750 2511 3984 
Q 2250 4219 1831 4219 
Q 1534 4219 1204 4116 
Q 875 4013 500 3803 
L 500 4441 
Q 881 4594 1212 4672 
Q 1544 4750 1819 4750 
Q 2544 4750 2975 4387 
Q 3406 4025 3406 3419 
Q 3406 3131 3298 2873 
Q 3191 2616 2906 2266 
Q 2828 2175 2409 1742 
Q 1991 1309 1228 531 
z
" transform="scale(0.015625)"/>
       </defs>
       <use xlink:href="#DejaVuSans-2212"/>
       <use xlink:href="#DejaVuSans-32" x="83.789062"/>
      </g>
     </g>
    </g>
    <g id="xtick_2">
     <g id="line2d_3">
      <path d="M 144.577419 80.521395 
L 144.577419 7.2 
" clip-path="url(#pbb5818275f)" style="fill: none; stroke: #b0b0b0; stroke-width: 0.8; stroke-linecap: square"/>
     </g>
     <g id="line2d_4">
      <g>
       <use xlink:href="#mb654780098" x="144.577419" y="80.521395" style="stroke: #000000; stroke-width: 0.8"/>
      </g>
     </g>
     <g id="text_2">
      <!-- 0 -->
      <g transform="translate(141.396169 95.119833)scale(0.1 -0.1)">
       <defs>
        <path id="DejaVuSans-30" d="M 2034 4250 
Q 1547 4250 1301 3770 
Q 1056 3291 1056 2328 
Q 1056 1369 1301 889 
Q 1547 409 2034 409 
Q 2525 409 2770 889 
Q 3016 1369 3016 2328 
Q 3016 3291 2770 3770 
Q 2525 4250 2034 4250 
z
M 2034 4750 
Q 2819 4750 3233 4129 
Q 3647 3509 3647 2328 
Q 3647 1150 3233 529 
Q 2819 -91 2034 -91 
Q 1250 -91 836 529 
Q 422 1150 422 2328 
Q 422 3509 836 4129 
Q 1250 4750 2034 4750 
z
" transform="scale(0.015625)"/>
       </defs>
       <use xlink:href="#DejaVuSans-30"/>
      </g>
     </g>
    </g>
    <g id="xtick_3">
     <g id="line2d_5">
      <path d="M 216.781542 80.521395 
L 216.781542 7.2 
" clip-path="url(#pbb5818275f)" style="fill: none; stroke: #b0b0b0; stroke-width: 0.8; stroke-linecap: square"/>
     </g>
     <g id="line2d_6">
      <g>
       <use xlink:href="#mb654780098" x="216.781542" y="80.521395" style="stroke: #000000; stroke-width: 0.8"/>
      </g>
     </g>
     <g id="text_3">
      <!-- 2 -->
      <g transform="translate(213.600292 95.119833)scale(0.1 -0.1)">
       <use xlink:href="#DejaVuSans-32"/>
      </g>
     </g>
    </g>
    <g id="xtick_4">
     <g id="line2d_7">
      <path d="M 288.985665 80.521395 
L 288.985665 7.2 
" clip-path="url(#pbb5818275f)" style="fill: none; stroke: #b0b0b0; stroke-width: 0.8; stroke-linecap: square"/>
     </g>
     <g id="line2d_8">
      <g>
       <use xlink:href="#mb654780098" x="288.985665" y="80.521395" style="stroke: #000000; stroke-width: 0.8"/>
      </g>
     </g>
     <g id="text_4">
      <!-- 4 -->
      <g transform="translate(285.804415 95.119833)scale(0.1 -0.1)">
       <defs>
        <path id="DejaVuSans-34" d="M 2419 4116 
L 825 1625 
L 2419 1625 
L 2419 4116 
z
M 2253 4666 
L 3047 4666 
L 3047 1625 
L 3713 1625 
L 3713 1100 
L 3047 1100 
L 3047 0 
L 2419 0 
L 2419 1100 
L 313 1100 
L 313 1709 
L 2253 4666 
z
" transform="scale(0.015625)"/>
       </defs>
       <use xlink:href="#DejaVuSans-34"/>
      </g>
     </g>
    </g>
    <g id="xtick_5">
     <g id="line2d_9">
      <path d="M 361.189788 80.521395 
L 361.189788 7.2 
" clip-path="url(#pbb5818275f)" style="fill: none; stroke: #b0b0b0; stroke-width: 0.8; stroke-linecap: square"/>
     </g>
     <g id="line2d_10">
      <g>
       <use xlink:href="#mb654780098" x="361.189788" y="80.521395" style="stroke: #000000; stroke-width: 0.8"/>
      </g>
     </g>
     <g id="text_5">
      <!-- 6 -->
      <g transform="translate(358.008538 95.119833)scale(0.1 -0.1)">
       <defs>
        <path id="DejaVuSans-36" d="M 2113 2584 
Q 1688 2584 1439 2293 
Q 1191 2003 1191 1497 
Q 1191 994 1439 701 
Q 1688 409 2113 409 
Q 2538 409 2786 701 
Q 3034 994 3034 1497 
Q 3034 2003 2786 2293 
Q 2538 2584 2113 2584 
z
M 3366 4563 
L 3366 3988 
Q 3128 4100 2886 4159 
Q 2644 4219 2406 4219 
Q 1781 4219 1451 3797 
Q 1122 3375 1075 2522 
Q 1259 2794 1537 2939 
Q 1816 3084 2150 3084 
Q 2853 3084 3261 2657 
Q 3669 2231 3669 1497 
Q 3669 778 3244 343 
Q 2819 -91 2113 -91 
Q 1303 -91 875 529 
Q 447 1150 447 2328 
Q 447 3434 972 4092 
Q 1497 4750 2381 4750 
Q 2619 4750 2861 4703 
Q 3103 4656 3366 4563 
z
" transform="scale(0.015625)"/>
       </defs>
       <use xlink:href="#DejaVuSans-36"/>
      </g>
     </g>
    </g>
   </g>
   <g id="matplotlib.axis_2">
    <g id="ytick_1">
     <g id="line2d_11">
      <path d="M 36.465625 61.007963 
L 433.19952 61.007963 
" clip-path="url(#pbb5818275f)" style="fill: none; stroke: #b0b0b0; stroke-width: 0.8; stroke-linecap: square"/>
     </g>
     <g id="line2d_12">
      <defs>
       <path id="maf239fb245" d="M 0 0 
L -3.5 0 
" style="stroke: #000000; stroke-width: 0.8"/>
      </defs>
      <g>
       <use xlink:href="#maf239fb245" x="36.465625" y="61.007963" style="stroke: #000000; stroke-width: 0.8"/>
      </g>
     </g>
     <g id="text_6">
      <!-- 9 -->
      <g transform="translate(23.103125 64.807182)scale(0.1 -0.1)">
       <defs>
        <path id="DejaVuSans-39" d="M 703 97 
L 703 672 
Q 941 559 1184 500 
Q 1428 441 1663 441 
Q 2288 441 2617 861 
Q 2947 1281 2994 2138 
Q 2813 1869 2534 1725 
Q 2256 1581 1919 1581 
Q 1219 1581 811 2004 
Q 403 2428 403 3163 
Q 403 3881 828 4315 
Q 1253 4750 1959 4750 
Q 2769 4750 3195 4129 
Q 3622 3509 3622 2328 
Q 3622 1225 3098 567 
Q 2575 -91 1691 -91 
Q 1453 -91 1209 -44 
Q 966 3 703 97 
z
M 1959 2075 
Q 2384 2075 2632 2365 
Q 2881 2656 2881 3163 
Q 2881 3666 2632 3958 
Q 2384 4250 1959 4250 
Q 1534 4250 1286 3958 
Q 1038 3666 1038 3163 
Q 1038 2656 1286 2365 
Q 1534 2075 1959 2075 
z
" transform="scale(0.015625)"/>
       </defs>
       <use xlink:href="#DejaVuSans-39"/>
      </g>
     </g>
    </g>
    <g id="ytick_2">
     <g id="line2d_13">
      <path d="M 36.465625 24.905902 
L 433.19952 24.905902 
" clip-path="url(#pbb5818275f)" style="fill: none; stroke: #b0b0b0; stroke-width: 0.8; stroke-linecap: square"/>
     </g>
     <g id="line2d_14">
      <g>
       <use xlink:href="#maf239fb245" x="36.465625" y="24.905902" style="stroke: #000000; stroke-width: 0.8"/>
      </g>
     </g>
     <g id="text_7">
      <!-- 10 -->
      <g transform="translate(16.740625 28.70512)scale(0.1 -0.1)">
       <defs>
        <path id="DejaVuSans-31" d="M 794 531 
L 1825 531 
L 1825 4091 
L 703 3866 
L 703 4441 
L 1819 4666 
L 2450 4666 
L 2450 531 
L 3481 531 
L 3481 0 
L 794 0 
L 794 531 
z
" transform="scale(0.015625)"/>
       </defs>
       <use xlink:href="#DejaVuSans-31"/>
       <use xlink:href="#DejaVuSans-30" x="63.623047"/>
      </g>
     </g>
    </g>
   </g>
   <g id="LineCollection_1">
    <path d="M 150.89528 59.080146 
L 150.89528 27.210369 
" clip-path="url(#pbb5818275f)" style="fill: none; stroke: #000000; stroke-width: 1.5"/>
    <path d="M 186.997341 50.792087 
L 186.997341 29.542032 
" clip-path="url(#pbb5818275f)" style="fill: none; stroke: #000000; stroke-width: 1.5"/>
    <path d="M 223.099403 35.43957 
L 223.099403 9.413674 
" clip-path="url(#pbb5818275f)" style="fill: none; stroke: #000000; stroke-width: 1.5"/>
    <path d="M 259.201464 49.037278 
L 259.201464 49.037278 
" clip-path="url(#pbb5818275f)" style="fill: none; stroke: #000000; stroke-width: 1.5"/>
    <path d="M 295.303525 78.307721 
L 295.303525 46.402582 
" clip-path="url(#pbb5818275f)" style="fill: none; stroke: #000000; stroke-width: 1.5"/>
    <path d="M 331.405587 49.037278 
L 331.405587 49.037278 
" clip-path="url(#pbb5818275f)" style="fill: none; stroke: #000000; stroke-width: 1.5"/>
   </g>
   <g id="line2d_15">
    <defs>
     <path id="ma068d8c076" d="M 1.5 0 
L -1.5 -0 
" style="stroke: #000000"/>
    </defs>
    <g clip-path="url(#pbb5818275f)">
     <use xlink:href="#ma068d8c076" x="150.89528" y="59.080146" style="stroke: #000000"/>
     <use xlink:href="#ma068d8c076" x="186.997341" y="50.792087" style="stroke: #000000"/>
     <use xlink:href="#ma068d8c076" x="223.099403" y="35.43957" style="stroke: #000000"/>
     <use xlink:href="#ma068d8c076" x="259.201464" y="49.037278" style="stroke: #000000"/>
     <use xlink:href="#ma068d8c076" x="295.303525" y="78.307721" style="stroke: #000000"/>
     <use xlink:href="#ma068d8c076" x="331.405587" y="49.037278" style="stroke: #000000"/>
    </g>
   </g>
   <g id="line2d_16">
    <g clip-path="url(#pbb5818275f)">
     <use xlink:href="#ma068d8c076" x="150.89528" y="27.210369" style="stroke: #000000"/>
     <use xlink:href="#ma068d8c076" x="186.997341" y="29.542032" style="stroke: #000000"/>
     <use xlink:href="#ma068d8c076" x="223.099403" y="9.413674" style="stroke: #000000"/>
     <use xlink:href="#ma068d8c076" x="259.201464" y="49.037278" style="stroke: #000000"/>
     <use xlink:href="#ma068d8c076" x="295.303525" y="46.402582" style="stroke: #000000"/>
     <use xlink:href="#ma068d8c076" x="331.405587" y="49.037278" style="stroke: #000000"/>
    </g>
   </g>
   <g id="LineCollection_2">
    <path d="M 138.259558 48.002868 
L 138.259558 38.287647 
" clip-path="url(#pbb5818275f)" style="fill: none; stroke: #696969; stroke-width: 1.5"/>
    <path d="M 174.36162 43.406005 
L 174.36162 36.928113 
" clip-path="url(#pbb5818275f)" style="fill: none; stroke: #696969; stroke-width: 1.5"/>
    <path d="M 210.463681 26.393504 
L 210.463681 18.45974 
" clip-path="url(#pbb5818275f)" style="fill: none; stroke: #696969; stroke-width: 1.5"/>
    <path d="M 246.565742 49.037278 
L 246.565742 49.037278 
" clip-path="url(#pbb5818275f)" style="fill: none; stroke: #696969; stroke-width: 1.5"/>
    <path d="M 282.667804 67.218151 
L 282.667804 57.492152 
" clip-path="url(#pbb5818275f)" style="fill: none; stroke: #696969; stroke-width: 1.5"/>
    <path d="M 318.769865 49.037278 
L 318.769865 49.037278 
" clip-path="url(#pbb5818275f)" style="fill: none; stroke: #696969; stroke-width: 1.5"/>
   </g>
   <g id="line2d_17">
    <defs>
     <path id="ma6eabc9e64" d="M 1.5 0 
L -1.5 -0 
" style="stroke: #696969"/>
    </defs>
    <g clip-path="url(#pbb5818275f)">
     <use xlink:href="#ma6eabc9e64" x="138.259558" y="48.002868" style="fill: #696969; stroke: #696969"/>
     <use xlink:href="#ma6eabc9e64" x="174.36162" y="43.406005" style="fill: #696969; stroke: #696969"/>
     <use xlink:href="#ma6eabc9e64" x="210.463681" y="26.393504" style="fill: #696969; stroke: #696969"/>
     <use xlink:href="#ma6eabc9e64" x="246.565742" y="49.037278" style="fill: #696969; stroke: #696969"/>
     <use xlink:href="#ma6eabc9e64" x="282.667804" y="67.218151" style="fill: #696969; stroke: #696969"/>
     <use xlink:href="#ma6eabc9e64" x="318.769865" y="49.037278" style="fill: #696969; stroke: #696969"/>
    </g>
   </g>
   <g id="line2d_18">
    <g clip-path="url(#pbb5818275f)">
     <use xlink:href="#ma6eabc9e64" x="138.259558" y="38.287647" style="fill: #696969; stroke: #696969"/>
     <use xlink:href="#ma6eabc9e64" x="174.36162" y="36.928113" style="fill: #696969; stroke: #696969"/>
     <use xlink:href="#ma6eabc9e64" x="210.463681" y="18.45974" style="fill: #696969; stroke: #696969"/>
     <use xlink:href="#ma6eabc9e64" x="246.565742" y="49.037278" style="fill: #696969; stroke: #696969"/>
     <use xlink:href="#ma6eabc9e64" x="282.667804" y="57.492152" style="fill: #696969; stroke: #696969"/>
     <use xlink:href="#ma6eabc9e64" x="318.769865" y="49.037278" style="fill: #696969; stroke: #696969"/>
    </g>
   </g>
   <g id="LineCollection_3">
    <path d="M 144.577419 57.718088 
L 144.577419 28.572427 
" clip-path="url(#pbb5818275f)" style="fill: none; stroke: #dcdcdc; stroke-width: 1.5"/>
    <path d="M 180.67948 49.883897 
L 180.67948 30.450222 
" clip-path="url(#pbb5818275f)" style="fill: none; stroke: #dcdcdc; stroke-width: 1.5"/>
    <path d="M 216.781542 34.327269 
L 216.781542 10.525975 
" clip-path="url(#pbb5818275f)" style="fill: none; stroke: #dcdcdc; stroke-width: 1.5"/>
    <path d="M 252.883603 49.037278 
L 252.883603 49.037278 
" clip-path="url(#pbb5818275f)" style="fill: none; stroke: #dcdcdc; stroke-width: 1.5"/>
    <path d="M 288.985665 76.944151 
L 288.985665 47.766152 
" clip-path="url(#pbb5818275f)" style="fill: none; stroke: #dcdcdc; stroke-width: 1.5"/>
    <path d="M 325.087726 49.037278 
L 325.087726 49.037278 
" clip-path="url(#pbb5818275f)" style="fill: none; stroke: #dcdcdc; stroke-width: 1.5"/>
   </g>
   <g id="line2d_19">
    <defs>
     <path id="me65c5236e5" d="M 1.5 0 
L -1.5 -0 
" style="stroke: #dcdcdc"/>
    </defs>
    <g clip-path="url(#pbb5818275f)">
     <use xlink:href="#me65c5236e5" x="144.577419" y="57.718088" style="fill: #dcdcdc; stroke: #dcdcdc"/>
     <use xlink:href="#me65c5236e5" x="180.67948" y="49.883897" style="fill: #dcdcdc; stroke: #dcdcdc"/>
     <use xlink:href="#me65c5236e5" x="216.781542" y="34.327269" style="fill: #dcdcdc; stroke: #dcdcdc"/>
     <use xlink:href="#me65c5236e5" x="252.883603" y="49.037278" style="fill: #dcdcdc; stroke: #dcdcdc"/>
     <use xlink:href="#me65c5236e5" x="288.985665" y="76.944151" style="fill: #dcdcdc; stroke: #dcdcdc"/>
     <use xlink:href="#me65c5236e5" x="325.087726" y="49.037278" style="fill: #dcdcdc; stroke: #dcdcdc"/>
    </g>
   </g>
   <g id="line2d_20">
    <g clip-path="url(#pbb5818275f)">
     <use xlink:href="#me65c5236e5" x="144.577419" y="28.572427" style="fill: #dcdcdc; stroke: #dcdcdc"/>
     <use xlink:href="#me65c5236e5" x="180.67948" y="30.450222" style="fill: #dcdcdc; stroke: #dcdcdc"/>
     <use xlink:href="#me65c5236e5" x="216.781542" y="10.525975" style="fill: #dcdcdc; stroke: #dcdcdc"/>
     <use xlink:href="#me65c5236e5" x="252.883603" y="49.037278" style="fill: #dcdcdc; stroke: #dcdcdc"/>
     <use xlink:href="#me65c5236e5" x="288.985665" y="47.766152" style="fill: #dcdcdc; stroke: #dcdcdc"/>
     <use xlink:href="#me65c5236e5" x="325.087726" y="49.037278" style="fill: #dcdcdc; stroke: #dcdcdc"/>
    </g>
   </g>
   <g id="line2d_21">
    <path d="M 36.465625 33.209376 
L 433.19952 33.209376 
" clip-path="url(#pbb5818275f)" style="fill: none; stroke-dasharray: 5.55,2.4; stroke-dashoffset: 0; stroke: #000000; stroke-width: 1.5"/>
   </g>
   <g id="line2d_22">
    <defs>
     <path id="m3f68b8b4d1" d="M 0 1.5 
C 0.397805 1.5 0.77937 1.341951 1.06066 1.06066 
C 1.341951 0.77937 1.5 0.397805 1.5 0 
C 1.5 -0.397805 1.341951 -0.77937 1.06066 -1.06066 
C 0.77937 -1.341951 0.397805 -1.5 0 -1.5 
C -0.397805 -1.5 -0.77937 -1.341951 -1.06066 -1.06066 
C -1.341951 -0.77937 -1.5 -0.397805 -1.5 0 
C -1.5 0.397805 -1.341951 0.77937 -1.06066 1.06066 
C -0.77937 1.341951 -0.397805 1.5 0 1.5 
z
" style="stroke: #000000"/>
    </defs>
    <g clip-path="url(#pbb5818275f)">
     <use xlink:href="#m3f68b8b4d1" x="150.89528" y="43.145257" style="stroke: #000000"/>
     <use xlink:href="#m3f68b8b4d1" x="186.997341" y="40.167059" style="stroke: #000000"/>
     <use xlink:href="#m3f68b8b4d1" x="223.099403" y="22.426622" style="stroke: #000000"/>
     <use xlink:href="#m3f68b8b4d1" x="259.201464" y="49.037278" style="stroke: #000000"/>
     <use xlink:href="#m3f68b8b4d1" x="295.303525" y="62.355151" style="stroke: #000000"/>
     <use xlink:href="#m3f68b8b4d1" x="331.405587" y="49.037278" style="stroke: #000000"/>
    </g>
   </g>
   <g id="line2d_23">
    <defs>
     <path id="m1038604ce5" d="M 0 1.5 
C 0.397805 1.5 0.77937 1.341951 1.06066 1.06066 
C 1.341951 0.77937 1.5 0.397805 1.5 0 
C 1.5 -0.397805 1.341951 -0.77937 1.06066 -1.06066 
C 0.77937 -1.341951 0.397805 -1.5 0 -1.5 
C -0.397805 -1.5 -0.77937 -1.341951 -1.06066 -1.06066 
C -1.341951 -0.77937 -1.5 -0.397805 -1.5 0 
C -1.5 0.397805 -1.341951 0.77937 -1.06066 1.06066 
C -0.77937 1.341951 -0.397805 1.5 0 1.5 
z
" style="stroke: #696969"/>
    </defs>
    <g clip-path="url(#pbb5818275f)">
     <use xlink:href="#m1038604ce5" x="138.259558" y="43.145257" style="fill: #696969; stroke: #696969"/>
     <use xlink:href="#m1038604ce5" x="174.36162" y="40.167059" style="fill: #696969; stroke: #696969"/>
     <use xlink:href="#m1038604ce5" x="210.463681" y="22.426622" style="fill: #696969; stroke: #696969"/>
     <use xlink:href="#m1038604ce5" x="246.565742" y="49.037278" style="fill: #696969; stroke: #696969"/>
     <use xlink:href="#m1038604ce5" x="282.667804" y="62.355151" style="fill: #696969; stroke: #696969"/>
     <use xlink:href="#m1038604ce5" x="318.769865" y="49.037278" style="fill: #696969; stroke: #696969"/>
    </g>
   </g>
   <g id="line2d_24">
    <defs>
     <path id="maffb952f0b" d="M 0 1.5 
C 0.397805 1.5 0.77937 1.341951 1.06066 1.06066 
C 1.341951 0.77937 1.5 0.397805 1.5 0 
C 1.5 -0.397805 1.341951 -0.77937 1.06066 -1.06066 
C 0.77937 -1.341951 0.397805 -1.5 0 -1.5 
C -0.397805 -1.5 -0.77937 -1.341951 -1.06066 -1.06066 
C -1.341951 -0.77937 -1.5 -0.397805 -1.5 0 
C -1.5 0.397805 -1.341951 0.77937 -1.06066 1.06066 
C -0.77937 1.341951 -0.397805 1.5 0 1.5 
z
" style="stroke: #dcdcdc"/>
    </defs>
    <g clip-path="url(#pbb5818275f)">
     <use xlink:href="#maffb952f0b" x="144.577419" y="43.145257" style="fill: #dcdcdc; stroke: #dcdcdc"/>
     <use xlink:href="#maffb952f0b" x="180.67948" y="40.167059" style="fill: #dcdcdc; stroke: #dcdcdc"/>
     <use xlink:href="#maffb952f0b" x="216.781542" y="22.426622" style="fill: #dcdcdc; stroke: #dcdcdc"/>
     <use xlink:href="#maffb952f0b" x="252.883603" y="49.037278" style="fill: #dcdcdc; stroke: #dcdcdc"/>
     <use xlink:href="#maffb952f0b" x="288.985665" y="62.355151" style="fill: #dcdcdc; stroke: #dcdcdc"/>
     <use xlink:href="#maffb952f0b" x="325.087726" y="49.037278" style="fill: #dcdcdc; stroke: #dcdcdc"/>
    </g>
   </g>
   <g id="patch_3">
    <path d="M 36.465625 80.521395 
L 36.465625 7.2 
" style="fill: none; stroke: #000000; stroke-width: 0.8; stroke-linejoin: miter; stroke-linecap: square"/>
   </g>
   <g id="patch_4">
    <path d="M 433.19952 80.521395 
L 433.19952 7.2 
" style="fill: none; stroke: #000000; stroke-width: 0.8; stroke-linejoin: miter; stroke-linecap: square"/>
   </g>
   <g id="patch_5">
    <path d="M 36.465625 80.521395 
L 433.19952 80.521395 
" style="fill: none; stroke: #000000; stroke-width: 0.8; stroke-linejoin: miter; stroke-linecap: square"/>
   </g>
   <g id="patch_6">
    <path d="M 36.465625 7.2 
L 433.19952 7.2 
" style="fill: none; stroke: #000000; stroke-width: 0.8; stroke-linejoin: miter; stroke-linecap: square"/>
   </g>
  </g>
  <g id="axes_2">
   <g id="patch_7">
    <path d="M 36.465625 176.521395 
L 433.19952 176.521395 
L 433.19952 103.2 
L 36.465625 103.2 
z
" style="fill: #ffffff"/>
   </g>
   <g id="matplotlib.axis_3">
    <g id="xtick_6">
     <g id="line2d_25">
      <path d="M 88.956906 176.521395 
L 88.956906 103.2 
" clip-path="url(#pbc0d5cb7d0)" style="fill: none; stroke: #b0b0b0; stroke-width: 0.8; stroke-linecap: square"/>
     </g>
     <g id="line2d_26">
      <g>
       <use xlink:href="#mb654780098" x="88.956906" y="176.521395" style="stroke: #000000; stroke-width: 0.8"/>
      </g>
     </g>
     <g id="text_8">
      <!-- −2 -->
      <g transform="translate(81.585812 191.119833)scale(0.1 -0.1)">
       <use xlink:href="#DejaVuSans-2212"/>
       <use xlink:href="#DejaVuSans-32" x="83.789062"/>
      </g>
     </g>
    </g>
    <g id="xtick_7">
     <g id="line2d_27">
      <path d="M 147.307173 176.521395 
L 147.307173 103.2 
" clip-path="url(#pbc0d5cb7d0)" style="fill: none; stroke: #b0b0b0; stroke-width: 0.8; stroke-linecap: square"/>
     </g>
     <g id="line2d_28">
      <g>
       <use xlink:href="#mb654780098" x="147.307173" y="176.521395" style="stroke: #000000; stroke-width: 0.8"/>
      </g>
     </g>
     <g id="text_9">
      <!-- −1 -->
      <g transform="translate(139.936079 191.119833)scale(0.1 -0.1)">
       <use xlink:href="#DejaVuSans-2212"/>
       <use xlink:href="#DejaVuSans-31" x="83.789062"/>
      </g>
     </g>
    </g>
    <g id="xtick_8">
     <g id="line2d_29">
      <path d="M 205.657439 176.521395 
L 205.657439 103.2 
" clip-path="url(#pbc0d5cb7d0)" style="fill: none; stroke: #b0b0b0; stroke-width: 0.8; stroke-linecap: square"/>
     </g>
     <g id="line2d_30">
      <g>
       <use xlink:href="#mb654780098" x="205.657439" y="176.521395" style="stroke: #000000; stroke-width: 0.8"/>
      </g>
     </g>
     <g id="text_10">
      <!-- 0 -->
      <g transform="translate(202.476189 191.119833)scale(0.1 -0.1)">
       <use xlink:href="#DejaVuSans-30"/>
      </g>
     </g>
    </g>
    <g id="xtick_9">
     <g id="line2d_31">
      <path d="M 264.007706 176.521395 
L 264.007706 103.2 
" clip-path="url(#pbc0d5cb7d0)" style="fill: none; stroke: #b0b0b0; stroke-width: 0.8; stroke-linecap: square"/>
     </g>
     <g id="line2d_32">
      <g>
       <use xlink:href="#mb654780098" x="264.007706" y="176.521395" style="stroke: #000000; stroke-width: 0.8"/>
      </g>
     </g>
     <g id="text_11">
      <!-- 1 -->
      <g transform="translate(260.826456 191.119833)scale(0.1 -0.1)">
       <use xlink:href="#DejaVuSans-31"/>
      </g>
     </g>
    </g>
    <g id="xtick_10">
     <g id="line2d_33">
      <path d="M 322.357972 176.521395 
L 322.357972 103.2 
" clip-path="url(#pbc0d5cb7d0)" style="fill: none; stroke: #b0b0b0; stroke-width: 0.8; stroke-linecap: square"/>
     </g>
     <g id="line2d_34">
      <g>
       <use xlink:href="#mb654780098" x="322.357972" y="176.521395" style="stroke: #000000; stroke-width: 0.8"/>
      </g>
     </g>
     <g id="text_12">
      <!-- 2 -->
      <g transform="translate(319.176722 191.119833)scale(0.1 -0.1)">
       <use xlink:href="#DejaVuSans-32"/>
      </g>
     </g>
    </g>
    <g id="xtick_11">
     <g id="line2d_35">
      <path d="M 380.708239 176.521395 
L 380.708239 103.2 
" clip-path="url(#pbc0d5cb7d0)" style="fill: none; stroke: #b0b0b0; stroke-width: 0.8; stroke-linecap: square"/>
     </g>
     <g id="line2d_36">
      <g>
       <use xlink:href="#mb654780098" x="380.708239" y="176.521395" style="stroke: #000000; stroke-width: 0.8"/>
      </g>
     </g>
     <g id="text_13">
      <!-- 3 -->
      <g transform="translate(377.526989 191.119833)scale(0.1 -0.1)">
       <defs>
        <path id="DejaVuSans-33" d="M 2597 2516 
Q 3050 2419 3304 2112 
Q 3559 1806 3559 1356 
Q 3559 666 3084 287 
Q 2609 -91 1734 -91 
Q 1441 -91 1130 -33 
Q 819 25 488 141 
L 488 750 
Q 750 597 1062 519 
Q 1375 441 1716 441 
Q 2309 441 2620 675 
Q 2931 909 2931 1356 
Q 2931 1769 2642 2001 
Q 2353 2234 1838 2234 
L 1294 2234 
L 1294 2753 
L 1863 2753 
Q 2328 2753 2575 2939 
Q 2822 3125 2822 3475 
Q 2822 3834 2567 4026 
Q 2313 4219 1838 4219 
Q 1578 4219 1281 4162 
Q 984 4106 628 3988 
L 628 4550 
Q 988 4650 1302 4700 
Q 1616 4750 1894 4750 
Q 2613 4750 3031 4423 
Q 3450 4097 3450 3541 
Q 3450 3153 3228 2886 
Q 3006 2619 2597 2516 
z
" transform="scale(0.015625)"/>
       </defs>
       <use xlink:href="#DejaVuSans-33"/>
      </g>
     </g>
    </g>
   </g>
   <g id="matplotlib.axis_4">
    <g id="ytick_3">
     <g id="line2d_37">
      <path d="M 36.465625 170.401578 
L 433.19952 170.401578 
" clip-path="url(#pbc0d5cb7d0)" style="fill: none; stroke: #b0b0b0; stroke-width: 0.8; stroke-linecap: square"/>
     </g>
     <g id="line2d_38">
      <g>
       <use xlink:href="#maf239fb245" x="36.465625" y="170.401578" style="stroke: #000000; stroke-width: 0.8"/>
      </g>
     </g>
     <g id="text_14">
      <!-- 9.0 -->
      <g transform="translate(13.5625 174.200797)scale(0.1 -0.1)">
       <defs>
        <path id="DejaVuSans-2e" d="M 684 794 
L 1344 794 
L 1344 0 
L 684 0 
L 684 794 
z
" transform="scale(0.015625)"/>
       </defs>
       <use xlink:href="#DejaVuSans-39"/>
       <use xlink:href="#DejaVuSans-2e" x="63.623047"/>
       <use xlink:href="#DejaVuSans-30" x="95.410156"/>
      </g>
     </g>
    </g>
    <g id="ytick_4">
     <g id="line2d_39">
      <path d="M 36.465625 141.226445 
L 433.19952 141.226445 
" clip-path="url(#pbc0d5cb7d0)" style="fill: none; stroke: #b0b0b0; stroke-width: 0.8; stroke-linecap: square"/>
     </g>
     <g id="line2d_40">
      <g>
       <use xlink:href="#maf239fb245" x="36.465625" y="141.226445" style="stroke: #000000; stroke-width: 0.8"/>
      </g>
     </g>
     <g id="text_15">
      <!-- 9.5 -->
      <g transform="translate(13.5625 145.025664)scale(0.1 -0.1)">
       <defs>
        <path id="DejaVuSans-35" d="M 691 4666 
L 3169 4666 
L 3169 4134 
L 1269 4134 
L 1269 2991 
Q 1406 3038 1543 3061 
Q 1681 3084 1819 3084 
Q 2600 3084 3056 2656 
Q 3513 2228 3513 1497 
Q 3513 744 3044 326 
Q 2575 -91 1722 -91 
Q 1428 -91 1123 -41 
Q 819 9 494 109 
L 494 744 
Q 775 591 1075 516 
Q 1375 441 1709 441 
Q 2250 441 2565 725 
Q 2881 1009 2881 1497 
Q 2881 1984 2565 2268 
Q 2250 2553 1709 2553 
Q 1456 2553 1204 2497 
Q 953 2441 691 2322 
L 691 4666 
z
" transform="scale(0.015625)"/>
       </defs>
       <use xlink:href="#DejaVuSans-39"/>
       <use xlink:href="#DejaVuSans-2e" x="63.623047"/>
       <use xlink:href="#DejaVuSans-35" x="95.410156"/>
      </g>
     </g>
    </g>
    <g id="ytick_5">
     <g id="line2d_41">
      <path d="M 36.465625 112.051312 
L 433.19952 112.051312 
" clip-path="url(#pbc0d5cb7d0)" style="fill: none; stroke: #b0b0b0; stroke-width: 0.8; stroke-linecap: square"/>
     </g>
     <g id="line2d_42">
      <g>
       <use xlink:href="#maf239fb245" x="36.465625" y="112.051312" style="stroke: #000000; stroke-width: 0.8"/>
      </g>
     </g>
     <g id="text_16">
      <!-- 10.0 -->
      <g transform="translate(7.2 115.85053)scale(0.1 -0.1)">
       <use xlink:href="#DejaVuSans-31"/>
       <use xlink:href="#DejaVuSans-30" x="63.623047"/>
       <use xlink:href="#DejaVuSans-2e" x="127.246094"/>
       <use xlink:href="#DejaVuSans-30" x="159.033203"/>
      </g>
     </g>
    </g>
   </g>
   <g id="LineCollection_4">
    <path d="M 215.868736 152.114506 
L 215.868736 105.413674 
" clip-path="url(#pbc0d5cb7d0)" style="fill: none; stroke: #000000; stroke-width: 1.5"/>
    <path d="M 274.219002 174.307721 
L 274.219002 142.150075 
" clip-path="url(#pbc0d5cb7d0)" style="fill: none; stroke: #000000; stroke-width: 1.5"/>
   </g>
   <g id="line2d_43">
    <g clip-path="url(#pbc0d5cb7d0)">
     <use xlink:href="#ma068d8c076" x="215.868736" y="152.114506" style="stroke: #000000"/>
     <use xlink:href="#ma068d8c076" x="274.219002" y="174.307721" style="stroke: #000000"/>
    </g>
   </g>
   <g id="line2d_44">
    <g clip-path="url(#pbc0d5cb7d0)">
     <use xlink:href="#ma068d8c076" x="215.868736" y="105.413674" style="stroke: #000000"/>
     <use xlink:href="#ma068d8c076" x="274.219002" y="142.150075" style="stroke: #000000"/>
    </g>
   </g>
   <g id="LineCollection_5">
    <path d="M 195.446143 135.882258 
L 195.446143 121.645922 
" clip-path="url(#pbc0d5cb7d0)" style="fill: none; stroke: #696969; stroke-width: 1.5"/>
    <path d="M 253.796409 163.130385 
L 253.796409 153.327411 
" clip-path="url(#pbc0d5cb7d0)" style="fill: none; stroke: #696969; stroke-width: 1.5"/>
   </g>
   <g id="line2d_45">
    <g clip-path="url(#pbc0d5cb7d0)">
     <use xlink:href="#ma6eabc9e64" x="195.446143" y="135.882258" style="fill: #696969; stroke: #696969"/>
     <use xlink:href="#ma6eabc9e64" x="253.796409" y="163.130385" style="fill: #696969; stroke: #696969"/>
    </g>
   </g>
   <g id="line2d_46">
    <g clip-path="url(#pbc0d5cb7d0)">
     <use xlink:href="#ma6eabc9e64" x="195.446143" y="121.645922" style="fill: #696969; stroke: #696969"/>
     <use xlink:href="#ma6eabc9e64" x="253.796409" y="153.327411" style="fill: #696969; stroke: #696969"/>
    </g>
   </g>
   <g id="LineCollection_6">
    <path d="M 205.657439 150.118595 
L 205.657439 107.409586 
" clip-path="url(#pbc0d5cb7d0)" style="fill: none; stroke: #dcdcdc; stroke-width: 1.5"/>
    <path d="M 264.007706 172.93336 
L 264.007706 143.524436 
" clip-path="url(#pbc0d5cb7d0)" style="fill: none; stroke: #dcdcdc; stroke-width: 1.5"/>
   </g>
   <g id="line2d_47">
    <g clip-path="url(#pbc0d5cb7d0)">
     <use xlink:href="#me65c5236e5" x="205.657439" y="150.118595" style="fill: #dcdcdc; stroke: #dcdcdc"/>
     <use xlink:href="#me65c5236e5" x="264.007706" y="172.93336" style="fill: #dcdcdc; stroke: #dcdcdc"/>
    </g>
   </g>
   <g id="line2d_48">
    <g clip-path="url(#pbc0d5cb7d0)">
     <use xlink:href="#me65c5236e5" x="205.657439" y="107.409586" style="fill: #dcdcdc; stroke: #dcdcdc"/>
     <use xlink:href="#me65c5236e5" x="264.007706" y="143.524436" style="fill: #dcdcdc; stroke: #dcdcdc"/>
    </g>
   </g>
   <g id="line2d_49">
    <path d="M 36.465625 125.471873 
L 433.19952 125.471873 
" clip-path="url(#pbc0d5cb7d0)" style="fill: none; stroke-dasharray: 5.55,2.4; stroke-dashoffset: 0; stroke: #000000; stroke-width: 1.5"/>
   </g>
   <g id="line2d_50">
    <g clip-path="url(#pbc0d5cb7d0)">
     <use xlink:href="#m3f68b8b4d1" x="215.868736" y="128.76409" style="stroke: #000000"/>
     <use xlink:href="#m3f68b8b4d1" x="274.219002" y="158.228898" style="stroke: #000000"/>
    </g>
   </g>
   <g id="line2d_51">
    <g clip-path="url(#pbc0d5cb7d0)">
     <use xlink:href="#m1038604ce5" x="195.446143" y="128.76409" style="fill: #696969; stroke: #696969"/>
     <use xlink:href="#m1038604ce5" x="253.796409" y="158.228898" style="fill: #696969; stroke: #696969"/>
    </g>
   </g>
   <g id="line2d_52">
    <g clip-path="url(#pbc0d5cb7d0)">
     <use xlink:href="#maffb952f0b" x="205.657439" y="128.76409" style="fill: #dcdcdc; stroke: #dcdcdc"/>
     <use xlink:href="#maffb952f0b" x="264.007706" y="158.228898" style="fill: #dcdcdc; stroke: #dcdcdc"/>
    </g>
   </g>
   <g id="patch_8">
    <path d="M 36.465625 176.521395 
L 36.465625 103.2 
" style="fill: none; stroke: #000000; stroke-width: 0.8; stroke-linejoin: miter; stroke-linecap: square"/>
   </g>
   <g id="patch_9">
    <path d="M 433.19952 176.521395 
L 433.19952 103.2 
" style="fill: none; stroke: #000000; stroke-width: 0.8; stroke-linejoin: miter; stroke-linecap: square"/>
   </g>
   <g id="patch_10">
    <path d="M 36.465625 176.521395 
L 433.19952 176.521395 
" style="fill: none; stroke: #000000; stroke-width: 0.8; stroke-linejoin: miter; stroke-linecap: square"/>
   </g>
   <g id="patch_11">
    <path d="M 36.465625 103.2 
L 433.19952 103.2 
" style="fill: none; stroke: #000000; stroke-width: 0.8; stroke-linejoin: miter; stroke-linecap: square"/>
   </g>
  </g>
  <g id="axes_3">
   <g id="patch_12">
    <path d="M 36.465625 272.521395 
L 433.19952 272.521395 
L 433.19952 199.2 
L 36.465625 199.2 
z
" style="fill: #ffffff"/>
   </g>
   <g id="matplotlib.axis_5">
    <g id="xtick_12">
     <g id="line2d_53">
      <path d="M 51.29622 272.521395 
L 51.29622 199.2 
" clip-path="url(#pe42d9d8858)" style="fill: none; stroke: #b0b0b0; stroke-width: 0.8; stroke-linecap: square"/>
     </g>
     <g id="line2d_54">
      <g>
       <use xlink:href="#mb654780098" x="51.29622" y="272.521395" style="stroke: #000000; stroke-width: 0.8"/>
      </g>
     </g>
     <g id="text_17">
      <!-- −2 -->
      <g transform="translate(43.925126 287.119833)scale(0.1 -0.1)">
       <use xlink:href="#DejaVuSans-2212"/>
       <use xlink:href="#DejaVuSans-32" x="83.789062"/>
      </g>
     </g>
    </g>
    <g id="xtick_13">
     <g id="line2d_55">
      <path d="M 143.064396 272.521395 
L 143.064396 199.2 
" clip-path="url(#pe42d9d8858)" style="fill: none; stroke: #b0b0b0; stroke-width: 0.8; stroke-linecap: square"/>
     </g>
     <g id="line2d_56">
      <g>
       <use xlink:href="#mb654780098" x="143.064396" y="272.521395" style="stroke: #000000; stroke-width: 0.8"/>
      </g>
     </g>
     <g id="text_18">
      <!-- −1 -->
      <g transform="translate(135.693302 287.119833)scale(0.1 -0.1)">
       <use xlink:href="#DejaVuSans-2212"/>
       <use xlink:href="#DejaVuSans-31" x="83.789062"/>
      </g>
     </g>
    </g>
    <g id="xtick_14">
     <g id="line2d_57">
      <path d="M 234.832573 272.521395 
L 234.832573 199.2 
" clip-path="url(#pe42d9d8858)" style="fill: none; stroke: #b0b0b0; stroke-width: 0.8; stroke-linecap: square"/>
     </g>
     <g id="line2d_58">
      <g>
       <use xlink:href="#mb654780098" x="234.832573" y="272.521395" style="stroke: #000000; stroke-width: 0.8"/>
      </g>
     </g>
     <g id="text_19">
      <!-- 0 -->
      <g transform="translate(231.651323 287.119833)scale(0.1 -0.1)">
       <use xlink:href="#DejaVuSans-30"/>
      </g>
     </g>
    </g>
    <g id="xtick_15">
     <g id="line2d_59">
      <path d="M 326.600749 272.521395 
L 326.600749 199.2 
" clip-path="url(#pe42d9d8858)" style="fill: none; stroke: #b0b0b0; stroke-width: 0.8; stroke-linecap: square"/>
     </g>
     <g id="line2d_60">
      <g>
       <use xlink:href="#mb654780098" x="326.600749" y="272.521395" style="stroke: #000000; stroke-width: 0.8"/>
      </g>
     </g>
     <g id="text_20">
      <!-- 1 -->
      <g transform="translate(323.419499 287.119833)scale(0.1 -0.1)">
       <use xlink:href="#DejaVuSans-31"/>
      </g>
     </g>
    </g>
    <g id="xtick_16">
     <g id="line2d_61">
      <path d="M 418.368925 272.521395 
L 418.368925 199.2 
" clip-path="url(#pe42d9d8858)" style="fill: none; stroke: #b0b0b0; stroke-width: 0.8; stroke-linecap: square"/>
     </g>
     <g id="line2d_62">
      <g>
       <use xlink:href="#mb654780098" x="418.368925" y="272.521395" style="stroke: #000000; stroke-width: 0.8"/>
      </g>
     </g>
     <g id="text_21">
      <!-- 2 -->
      <g transform="translate(415.187675 287.119833)scale(0.1 -0.1)">
       <use xlink:href="#DejaVuSans-32"/>
      </g>
     </g>
    </g>
   </g>
   <g id="matplotlib.axis_6">
    <g id="ytick_6">
     <g id="line2d_63">
      <path d="M 36.465625 255.232607 
L 433.19952 255.232607 
" clip-path="url(#pe42d9d8858)" style="fill: none; stroke: #b0b0b0; stroke-width: 0.8; stroke-linecap: square"/>
     </g>
     <g id="line2d_64">
      <g>
       <use xlink:href="#maf239fb245" x="36.465625" y="255.232607" style="stroke: #000000; stroke-width: 0.8"/>
      </g>
     </g>
     <g id="text_22">
      <!-- 9.25 -->
      <g transform="translate(7.2 259.031826)scale(0.1 -0.1)">
       <use xlink:href="#DejaVuSans-39"/>
       <use xlink:href="#DejaVuSans-2e" x="63.623047"/>
       <use xlink:href="#DejaVuSans-32" x="95.410156"/>
       <use xlink:href="#DejaVuSans-35" x="159.033203"/>
      </g>
     </g>
    </g>
    <g id="ytick_7">
     <g id="line2d_65">
      <path d="M 36.465625 232.290563 
L 433.19952 232.290563 
" clip-path="url(#pe42d9d8858)" style="fill: none; stroke: #b0b0b0; stroke-width: 0.8; stroke-linecap: square"/>
     </g>
     <g id="line2d_66">
      <g>
       <use xlink:href="#maf239fb245" x="36.465625" y="232.290563" style="stroke: #000000; stroke-width: 0.8"/>
      </g>
     </g>
     <g id="text_23">
      <!-- 9.50 -->
      <g transform="translate(7.2 236.089782)scale(0.1 -0.1)">
       <use xlink:href="#DejaVuSans-39"/>
       <use xlink:href="#DejaVuSans-2e" x="63.623047"/>
       <use xlink:href="#DejaVuSans-35" x="95.410156"/>
       <use xlink:href="#DejaVuSans-30" x="159.033203"/>
      </g>
     </g>
    </g>
    <g id="ytick_8">
     <g id="line2d_67">
      <path d="M 36.465625 209.348519 
L 433.19952 209.348519 
" clip-path="url(#pe42d9d8858)" style="fill: none; stroke: #b0b0b0; stroke-width: 0.8; stroke-linecap: square"/>
     </g>
     <g id="line2d_68">
      <g>
       <use xlink:href="#maf239fb245" x="36.465625" y="209.348519" style="stroke: #000000; stroke-width: 0.8"/>
      </g>
     </g>
     <g id="text_24">
      <!-- 9.75 -->
      <g transform="translate(7.2 213.147738)scale(0.1 -0.1)">
       <defs>
        <path id="DejaVuSans-37" d="M 525 4666 
L 3525 4666 
L 3525 4397 
L 1831 0 
L 1172 0 
L 2766 4134 
L 525 4134 
L 525 4666 
z
" transform="scale(0.015625)"/>
       </defs>
       <use xlink:href="#DejaVuSans-39"/>
       <use xlink:href="#DejaVuSans-2e" x="63.623047"/>
       <use xlink:href="#DejaVuSans-37" x="95.410156"/>
       <use xlink:href="#DejaVuSans-35" x="159.033203"/>
      </g>
     </g>
    </g>
   </g>
   <g id="LineCollection_7">
    <path d="M 250.892003 270.307721 
L 250.892003 201.413674 
" clip-path="url(#pe42d9d8858)" style="fill: none; stroke: #000000; stroke-width: 1.5"/>
   </g>
   <g id="line2d_69">
    <g clip-path="url(#pe42d9d8858)">
     <use xlink:href="#ma068d8c076" x="250.892003" y="270.307721" style="stroke: #000000"/>
    </g>
   </g>
   <g id="line2d_70">
    <g clip-path="url(#pe42d9d8858)">
     <use xlink:href="#ma068d8c076" x="250.892003" y="201.413674" style="stroke: #000000"/>
    </g>
   </g>
   <g id="LineCollection_8">
    <path d="M 218.773142 246.361568 
L 218.773142 225.359827 
" clip-path="url(#pe42d9d8858)" style="fill: none; stroke: #696969; stroke-width: 1.5"/>
   </g>
   <g id="line2d_71">
    <g clip-path="url(#pe42d9d8858)">
     <use xlink:href="#ma6eabc9e64" x="218.773142" y="246.361568" style="fill: #696969; stroke: #696969"/>
    </g>
   </g>
   <g id="line2d_72">
    <g clip-path="url(#pe42d9d8858)">
     <use xlink:href="#ma6eabc9e64" x="218.773142" y="225.359827" style="fill: #696969; stroke: #696969"/>
    </g>
   </g>
   <g id="LineCollection_9">
    <path d="M 234.832573 267.36331 
L 234.832573 204.358085 
" clip-path="url(#pe42d9d8858)" style="fill: none; stroke: #dcdcdc; stroke-width: 1.5"/>
   </g>
   <g id="line2d_73">
    <g clip-path="url(#pe42d9d8858)">
     <use xlink:href="#me65c5236e5" x="234.832573" y="267.36331" style="fill: #dcdcdc; stroke: #dcdcdc"/>
    </g>
   </g>
   <g id="line2d_74">
    <g clip-path="url(#pe42d9d8858)">
     <use xlink:href="#me65c5236e5" x="234.832573" y="204.358085" style="fill: #dcdcdc; stroke: #dcdcdc"/>
    </g>
   </g>
   <g id="line2d_75">
    <path d="M 36.465625 207.513156 
L 433.19952 207.513156 
" clip-path="url(#pe42d9d8858)" style="fill: none; stroke-dasharray: 5.55,2.4; stroke-dashoffset: 0; stroke: #000000; stroke-width: 1.5"/>
   </g>
   <g id="line2d_76">
    <g clip-path="url(#pe42d9d8858)">
     <use xlink:href="#m3f68b8b4d1" x="250.892003" y="235.860698" style="stroke: #000000"/>
    </g>
   </g>
   <g id="line2d_77">
    <g clip-path="url(#pe42d9d8858)">
     <use xlink:href="#m1038604ce5" x="218.773142" y="235.860698" style="fill: #696969; stroke: #696969"/>
    </g>
   </g>
   <g id="line2d_78">
    <g clip-path="url(#pe42d9d8858)">
     <use xlink:href="#maffb952f0b" x="234.832573" y="235.860698" style="fill: #dcdcdc; stroke: #dcdcdc"/>
    </g>
   </g>
   <g id="patch_13">
    <path d="M 36.465625 272.521395 
L 36.465625 199.2 
" style="fill: none; stroke: #000000; stroke-width: 0.8; stroke-linejoin: miter; stroke-linecap: square"/>
   </g>
   <g id="patch_14">
    <path d="M 433.19952 272.521395 
L 433.19952 199.2 
" style="fill: none; stroke: #000000; stroke-width: 0.8; stroke-linejoin: miter; stroke-linecap: square"/>
   </g>
   <g id="patch_15">
    <path d="M 36.465625 272.521395 
L 433.19952 272.521395 
" style="fill: none; stroke: #000000; stroke-width: 0.8; stroke-linejoin: miter; stroke-linecap: square"/>
   </g>
   <g id="patch_16">
    <path d="M 36.465625 199.2 
L 433.19952 199.2 
" style="fill: none; stroke: #000000; stroke-width: 0.8; stroke-linejoin: miter; stroke-linecap: square"/>
   </g>
  </g>
 </g>
 <defs>
  <clipPath id="pbb5818275f">
   <rect x="36.465625" y="7.2" width="396.733895" height="73.321395"/>
  </clipPath>
  <clipPath id="pbc0d5cb7d0">
   <rect x="36.465625" y="103.2" width="396.733895" height="73.321395"/>
  </clipPath>
  <clipPath id="pe42d9d8858">
   <rect x="36.465625" y="199.2" width="396.733895" height="73.321395"/>
  </clipPath>
 </defs>
</svg>
