<?xml version="1.0" encoding="utf-8" standalone="no"?>
<!DOCTYPE svg PUBLIC "-//W3C//DTD SVG 1.1//EN"
  "http://www.w3.org/Graphics/SVG/1.1/DTD/svg11.dtd">
<svg xmlns:xlink="http://www.w3.org/1999/xlink" width="440.39952pt" height="296.39952pt" viewBox="0 0 440.39952 296.39952" xmlns="http://www.w3.org/2000/svg" version="1.1">
 <metadata>
  <rdf:RDF xmlns:dc="http://purl.org/dc/elements/1.1/" xmlns:cc="http://creativecommons.org/ns#" xmlns:rdf="http://www.w3.org/1999/02/22-rdf-syntax-ns#">
   <cc:Work>
    <dc:type rdf:resource="http://purl.org/dc/dcmitype/StillImage"/>
    <dc:date>2021-12-11T22:20:55.708190</dc:date>
    <dc:format>image/svg+xml</dc:format>
    <dc:creator>
     <cc:Agent>
      <dc:title>Matplotlib v3.5.0, https://matplotlib.org/</dc:title>
     </cc:Agent>
    </dc:creator>
   </cc:Work>
  </rdf:RDF>
 </metadata>
 <defs>
  <style type="text/css">*{stroke-linejoin: round; stroke-linecap: butt}</style>
 </defs>
 <g id="figure_1">
  <g id="patch_1">
   <path d="M 0 296.39952 
L 440.39952 296.39952 
L 440.39952 0 
L 0 0 
L 0 296.39952 
z
" style="fill: none"/>
  </g>
  <g id="axes_1">
   <g id="patch_2">
    <path d="M 26.925 272.521395 
L 145.19952 272.521395 
L 145.19952 7.2 
L 26.925 7.2 
z
" style="fill: #ffffff"/>
   </g>
   <g id="matplotlib.axis_1">
    <g id="xtick_1">
     <g id="line2d_1">
      <path d="M 35.019646 272.521395 
L 35.019646 7.2 
" clip-path="url(#p7b08ea5b6d)" style="fill: none; stroke: #b0b0b0; stroke-width: 0.8; stroke-linecap: square"/>
     </g>
     <g id="line2d_2">
      <defs>
       <path id="m843bbe7368" d="M 0 0 
L 0 3.5 
" style="stroke: #000000; stroke-width: 0.8"/>
      </defs>
      <g>
       <use xlink:href="#m843bbe7368" x="35.019646" y="272.521395" style="stroke: #000000; stroke-width: 0.8"/>
      </g>
     </g>
     <g id="text_1">
      <!-- 0 -->
      <g transform="translate(31.838396 287.119832)scale(0.1 -0.1)">
       <defs>
        <path id="DejaVuSans-30" d="M 2034 4250 
Q 1547 4250 1301 3770 
Q 1056 3291 1056 2328 
Q 1056 1369 1301 889 
Q 1547 409 2034 409 
Q 2525 409 2770 889 
Q 3016 1369 3016 2328 
Q 3016 3291 2770 3770 
Q 2525 4250 2034 4250 
z
M 2034 4750 
Q 2819 4750 3233 4129 
Q 3647 3509 3647 2328 
Q 3647 1150 3233 529 
Q 2819 -91 2034 -91 
Q 1250 -91 836 529 
Q 422 1150 422 2328 
Q 422 3509 836 4129 
Q 1250 4750 2034 4750 
z
" transform="scale(0.015625)"/>
       </defs>
       <use xlink:href="#DejaVuSans-30"/>
      </g>
     </g>
    </g>
    <g id="xtick_2">
     <g id="line2d_3">
      <path d="M 75.853737 272.521395 
L 75.853737 7.2 
" clip-path="url(#p7b08ea5b6d)" style="fill: none; stroke: #b0b0b0; stroke-width: 0.8; stroke-linecap: square"/>
     </g>
     <g id="line2d_4">
      <g>
       <use xlink:href="#m843bbe7368" x="75.853737" y="272.521395" style="stroke: #000000; stroke-width: 0.8"/>
      </g>
     </g>
     <g id="text_2">
      <!-- 2 -->
      <g transform="translate(72.672487 287.119832)scale(0.1 -0.1)">
       <defs>
        <path id="DejaVuSans-32" d="M 1228 531 
L 3431 531 
L 3431 0 
L 469 0 
L 469 531 
Q 828 903 1448 1529 
Q 2069 2156 2228 2338 
Q 2531 2678 2651 2914 
Q 2772 3150 2772 3378 
Q 2772 3750 2511 3984 
Q 2250 4219 1831 4219 
Q 1534 4219 1204 4116 
Q 875 4013 500 3803 
L 500 4441 
Q 881 4594 1212 4672 
Q 1544 4750 1819 4750 
Q 2544 4750 2975 4387 
Q 3406 4025 3406 3419 
Q 3406 3131 3298 2873 
Q 3191 2616 2906 2266 
Q 2828 2175 2409 1742 
Q 1991 1309 1228 531 
z
" transform="scale(0.015625)"/>
       </defs>
       <use xlink:href="#DejaVuSans-32"/>
      </g>
     </g>
    </g>
    <g id="xtick_3">
     <g id="line2d_5">
      <path d="M 116.687828 272.521395 
L 116.687828 7.2 
" clip-path="url(#p7b08ea5b6d)" style="fill: none; stroke: #b0b0b0; stroke-width: 0.8; stroke-linecap: square"/>
     </g>
     <g id="line2d_6">
      <g>
       <use xlink:href="#m843bbe7368" x="116.687828" y="272.521395" style="stroke: #000000; stroke-width: 0.8"/>
      </g>
     </g>
     <g id="text_3">
      <!-- 4 -->
      <g transform="translate(113.506578 287.119832)scale(0.1 -0.1)">
       <defs>
        <path id="DejaVuSans-34" d="M 2419 4116 
L 825 1625 
L 2419 1625 
L 2419 4116 
z
M 2253 4666 
L 3047 4666 
L 3047 1625 
L 3713 1625 
L 3713 1100 
L 3047 1100 
L 3047 0 
L 2419 0 
L 2419 1100 
L 313 1100 
L 313 1709 
L 2253 4666 
z
" transform="scale(0.015625)"/>
       </defs>
       <use xlink:href="#DejaVuSans-34"/>
      </g>
     </g>
    </g>
   </g>
   <g id="matplotlib.axis_2">
    <g id="ytick_1">
     <g id="line2d_7">
      <path d="M 26.925 251.649935 
L 145.19952 251.649935 
" clip-path="url(#p7b08ea5b6d)" style="fill: none; stroke: #b0b0b0; stroke-width: 0.8; stroke-linecap: square"/>
     </g>
     <g id="line2d_8">
      <defs>
       <path id="m954062b52a" d="M 0 0 
L -3.5 0 
" style="stroke: #000000; stroke-width: 0.8"/>
      </defs>
      <g>
       <use xlink:href="#m954062b52a" x="26.925" y="251.649935" style="stroke: #000000; stroke-width: 0.8"/>
      </g>
     </g>
     <g id="text_4">
      <!-- 0 -->
      <g transform="translate(13.5625 255.449154)scale(0.1 -0.1)">
       <use xlink:href="#DejaVuSans-30"/>
      </g>
     </g>
    </g>
    <g id="ytick_2">
     <g id="line2d_9">
      <path d="M 26.925 210.815844 
L 145.19952 210.815844 
" clip-path="url(#p7b08ea5b6d)" style="fill: none; stroke: #b0b0b0; stroke-width: 0.8; stroke-linecap: square"/>
     </g>
     <g id="line2d_10">
      <g>
       <use xlink:href="#m954062b52a" x="26.925" y="210.815844" style="stroke: #000000; stroke-width: 0.8"/>
      </g>
     </g>
     <g id="text_5">
      <!-- 2 -->
      <g transform="translate(13.5625 214.615063)scale(0.1 -0.1)">
       <use xlink:href="#DejaVuSans-32"/>
      </g>
     </g>
    </g>
    <g id="ytick_3">
     <g id="line2d_11">
      <path d="M 26.925 169.981753 
L 145.19952 169.981753 
" clip-path="url(#p7b08ea5b6d)" style="fill: none; stroke: #b0b0b0; stroke-width: 0.8; stroke-linecap: square"/>
     </g>
     <g id="line2d_12">
      <g>
       <use xlink:href="#m954062b52a" x="26.925" y="169.981753" style="stroke: #000000; stroke-width: 0.8"/>
      </g>
     </g>
     <g id="text_6">
      <!-- 4 -->
      <g transform="translate(13.5625 173.780971)scale(0.1 -0.1)">
       <use xlink:href="#DejaVuSans-34"/>
      </g>
     </g>
    </g>
    <g id="ytick_4">
     <g id="line2d_13">
      <path d="M 26.925 129.147662 
L 145.19952 129.147662 
" clip-path="url(#p7b08ea5b6d)" style="fill: none; stroke: #b0b0b0; stroke-width: 0.8; stroke-linecap: square"/>
     </g>
     <g id="line2d_14">
      <g>
       <use xlink:href="#m954062b52a" x="26.925" y="129.147662" style="stroke: #000000; stroke-width: 0.8"/>
      </g>
     </g>
     <g id="text_7">
      <!-- 6 -->
      <g transform="translate(13.5625 132.94688)scale(0.1 -0.1)">
       <defs>
        <path id="DejaVuSans-36" d="M 2113 2584 
Q 1688 2584 1439 2293 
Q 1191 2003 1191 1497 
Q 1191 994 1439 701 
Q 1688 409 2113 409 
Q 2538 409 2786 701 
Q 3034 994 3034 1497 
Q 3034 2003 2786 2293 
Q 2538 2584 2113 2584 
z
M 3366 4563 
L 3366 3988 
Q 3128 4100 2886 4159 
Q 2644 4219 2406 4219 
Q 1781 4219 1451 3797 
Q 1122 3375 1075 2522 
Q 1259 2794 1537 2939 
Q 1816 3084 2150 3084 
Q 2853 3084 3261 2657 
Q 3669 2231 3669 1497 
Q 3669 778 3244 343 
Q 2819 -91 2113 -91 
Q 1303 -91 875 529 
Q 447 1150 447 2328 
Q 447 3434 972 4092 
Q 1497 4750 2381 4750 
Q 2619 4750 2861 4703 
Q 3103 4656 3366 4563 
z
" transform="scale(0.015625)"/>
       </defs>
       <use xlink:href="#DejaVuSans-36"/>
      </g>
     </g>
    </g>
    <g id="ytick_5">
     <g id="line2d_15">
      <path d="M 26.925 88.31357 
L 145.19952 88.31357 
" clip-path="url(#p7b08ea5b6d)" style="fill: none; stroke: #b0b0b0; stroke-width: 0.8; stroke-linecap: square"/>
     </g>
     <g id="line2d_16">
      <g>
       <use xlink:href="#m954062b52a" x="26.925" y="88.31357" style="stroke: #000000; stroke-width: 0.8"/>
      </g>
     </g>
     <g id="text_8">
      <!-- 8 -->
      <g transform="translate(13.5625 92.112789)scale(0.1 -0.1)">
       <defs>
        <path id="DejaVuSans-38" d="M 2034 2216 
Q 1584 2216 1326 1975 
Q 1069 1734 1069 1313 
Q 1069 891 1326 650 
Q 1584 409 2034 409 
Q 2484 409 2743 651 
Q 3003 894 3003 1313 
Q 3003 1734 2745 1975 
Q 2488 2216 2034 2216 
z
M 1403 2484 
Q 997 2584 770 2862 
Q 544 3141 544 3541 
Q 544 4100 942 4425 
Q 1341 4750 2034 4750 
Q 2731 4750 3128 4425 
Q 3525 4100 3525 3541 
Q 3525 3141 3298 2862 
Q 3072 2584 2669 2484 
Q 3125 2378 3379 2068 
Q 3634 1759 3634 1313 
Q 3634 634 3220 271 
Q 2806 -91 2034 -91 
Q 1263 -91 848 271 
Q 434 634 434 1313 
Q 434 1759 690 2068 
Q 947 2378 1403 2484 
z
M 1172 3481 
Q 1172 3119 1398 2916 
Q 1625 2713 2034 2713 
Q 2441 2713 2670 2916 
Q 2900 3119 2900 3481 
Q 2900 3844 2670 4047 
Q 2441 4250 2034 4250 
Q 1625 4250 1398 4047 
Q 1172 3844 1172 3481 
z
" transform="scale(0.015625)"/>
       </defs>
       <use xlink:href="#DejaVuSans-38"/>
      </g>
     </g>
    </g>
    <g id="ytick_6">
     <g id="line2d_17">
      <path d="M 26.925 47.479479 
L 145.19952 47.479479 
" clip-path="url(#p7b08ea5b6d)" style="fill: none; stroke: #b0b0b0; stroke-width: 0.8; stroke-linecap: square"/>
     </g>
     <g id="line2d_18">
      <g>
       <use xlink:href="#m954062b52a" x="26.925" y="47.479479" style="stroke: #000000; stroke-width: 0.8"/>
      </g>
     </g>
     <g id="text_9">
      <!-- 10 -->
      <g transform="translate(7.2 51.278698)scale(0.1 -0.1)">
       <defs>
        <path id="DejaVuSans-31" d="M 794 531 
L 1825 531 
L 1825 4091 
L 703 3866 
L 703 4441 
L 1819 4666 
L 2450 4666 
L 2450 531 
L 3481 531 
L 3481 0 
L 794 0 
L 794 531 
z
" transform="scale(0.015625)"/>
       </defs>
       <use xlink:href="#DejaVuSans-31"/>
       <use xlink:href="#DejaVuSans-30" x="63.623047"/>
      </g>
     </g>
    </g>
   </g>
   <g id="patch_3">
    <path d="M 31.446663 251.649935 
L 38.592629 251.649935 
L 38.592629 57.794507 
L 31.446663 57.794507 
z
" clip-path="url(#p7b08ea5b6d)" style="fill: #dcdcdc; stroke: #000000; stroke-linejoin: miter"/>
   </g>
   <g id="patch_4">
    <path d="M 51.863709 251.649935 
L 59.009675 251.649935 
L 59.009675 56.110226 
L 51.863709 56.110226 
z
" clip-path="url(#p7b08ea5b6d)" style="fill: #dcdcdc; stroke: #000000; stroke-linejoin: miter"/>
   </g>
   <g id="patch_5">
    <path d="M 72.280754 251.649935 
L 79.42672 251.649935 
L 79.42672 46.077356 
L 72.280754 46.077356 
z
" clip-path="url(#p7b08ea5b6d)" style="fill: #dcdcdc; stroke: #000000; stroke-linejoin: miter"/>
   </g>
   <g id="patch_6">
    <path d="M 92.6978 251.649935 
L 99.843766 251.649935 
L 99.843766 61.126661 
L 92.6978 61.126661 
z
" clip-path="url(#p7b08ea5b6d)" style="fill: #dcdcdc; stroke: #000000; stroke-linejoin: miter"/>
   </g>
   <g id="patch_7">
    <path d="M 113.114845 251.649935 
L 120.260811 251.649935 
L 120.260811 68.65841 
L 113.114845 68.65841 
z
" clip-path="url(#p7b08ea5b6d)" style="fill: #dcdcdc; stroke: #000000; stroke-linejoin: miter"/>
   </g>
   <g id="patch_8">
    <path d="M 133.531891 251.649935 
L 140.677857 251.649935 
L 140.677857 61.126661 
L 133.531891 61.126661 
z
" clip-path="url(#p7b08ea5b6d)" style="fill: #dcdcdc; stroke: #000000; stroke-linejoin: miter"/>
   </g>
   <g id="LineCollection_1">
    <path d="M 38.592629 66.806273 
L 38.592629 48.782741 
" clip-path="url(#p7b08ea5b6d)" style="fill: none; stroke: #000000; stroke-width: 1.5"/>
    <path d="M 59.009675 62.119071 
L 59.009675 50.101382 
" clip-path="url(#p7b08ea5b6d)" style="fill: none; stroke: #000000; stroke-width: 1.5"/>
    <path d="M 79.42672 53.436657 
L 79.42672 38.718054 
" clip-path="url(#p7b08ea5b6d)" style="fill: none; stroke: #000000; stroke-width: 1.5"/>
    <path d="M 99.843766 61.126661 
L 99.843766 61.126661 
" clip-path="url(#p7b08ea5b6d)" style="fill: none; stroke: #000000; stroke-width: 1.5"/>
    <path d="M 120.260811 77.680175 
L 120.260811 59.636644 
" clip-path="url(#p7b08ea5b6d)" style="fill: none; stroke: #000000; stroke-width: 1.5"/>
    <path d="M 140.677857 61.126661 
L 140.677857 61.126661 
" clip-path="url(#p7b08ea5b6d)" style="fill: none; stroke: #000000; stroke-width: 1.5"/>
   </g>
   <g id="line2d_19">
    <defs>
     <path id="mf1e997e643" d="M 1.5 0 
L -1.5 -0 
" style="stroke: #000000"/>
    </defs>
    <g clip-path="url(#p7b08ea5b6d)">
     <use xlink:href="#mf1e997e643" x="38.592629" y="66.806273" style="stroke: #000000"/>
     <use xlink:href="#mf1e997e643" x="59.009675" y="62.119071" style="stroke: #000000"/>
     <use xlink:href="#mf1e997e643" x="79.42672" y="53.436657" style="stroke: #000000"/>
     <use xlink:href="#mf1e997e643" x="99.843766" y="61.126661" style="stroke: #000000"/>
     <use xlink:href="#mf1e997e643" x="120.260811" y="77.680175" style="stroke: #000000"/>
     <use xlink:href="#mf1e997e643" x="140.677857" y="61.126661" style="stroke: #000000"/>
    </g>
   </g>
   <g id="line2d_20">
    <g clip-path="url(#p7b08ea5b6d)">
     <use xlink:href="#mf1e997e643" x="38.592629" y="48.782741" style="stroke: #000000"/>
     <use xlink:href="#mf1e997e643" x="59.009675" y="50.101382" style="stroke: #000000"/>
     <use xlink:href="#mf1e997e643" x="79.42672" y="38.718054" style="stroke: #000000"/>
     <use xlink:href="#mf1e997e643" x="99.843766" y="61.126661" style="stroke: #000000"/>
     <use xlink:href="#mf1e997e643" x="120.260811" y="59.636644" style="stroke: #000000"/>
     <use xlink:href="#mf1e997e643" x="140.677857" y="61.126661" style="stroke: #000000"/>
    </g>
   </g>
   <g id="LineCollection_2">
    <path d="M 31.446663 60.541664 
L 31.446663 55.04735 
" clip-path="url(#p7b08ea5b6d)" style="fill: none; stroke: #ff0000; stroke-width: 1.5"/>
    <path d="M 51.863709 57.941969 
L 51.863709 54.278483 
" clip-path="url(#p7b08ea5b6d)" style="fill: none; stroke: #ff0000; stroke-width: 1.5"/>
    <path d="M 72.280754 48.320774 
L 72.280754 43.833937 
" clip-path="url(#p7b08ea5b6d)" style="fill: none; stroke: #ff0000; stroke-width: 1.5"/>
    <path d="M 92.6978 61.126661 
L 92.6978 61.126661 
" clip-path="url(#p7b08ea5b6d)" style="fill: none; stroke: #ff0000; stroke-width: 1.5"/>
    <path d="M 113.114845 71.408615 
L 113.114845 65.908204 
" clip-path="url(#p7b08ea5b6d)" style="fill: none; stroke: #ff0000; stroke-width: 1.5"/>
    <path d="M 133.531891 61.126661 
L 133.531891 61.126661 
" clip-path="url(#p7b08ea5b6d)" style="fill: none; stroke: #ff0000; stroke-width: 1.5"/>
   </g>
   <g id="line2d_21">
    <defs>
     <path id="mf4f5b44e89" d="M 1.5 0 
L -1.5 -0 
" style="stroke: #ff0000"/>
    </defs>
    <g clip-path="url(#p7b08ea5b6d)">
     <use xlink:href="#mf4f5b44e89" x="31.446663" y="60.541664" style="fill: #ff0000; stroke: #ff0000"/>
     <use xlink:href="#mf4f5b44e89" x="51.863709" y="57.941969" style="fill: #ff0000; stroke: #ff0000"/>
     <use xlink:href="#mf4f5b44e89" x="72.280754" y="48.320774" style="fill: #ff0000; stroke: #ff0000"/>
     <use xlink:href="#mf4f5b44e89" x="92.6978" y="61.126661" style="fill: #ff0000; stroke: #ff0000"/>
     <use xlink:href="#mf4f5b44e89" x="113.114845" y="71.408615" style="fill: #ff0000; stroke: #ff0000"/>
     <use xlink:href="#mf4f5b44e89" x="133.531891" y="61.126661" style="fill: #ff0000; stroke: #ff0000"/>
    </g>
   </g>
   <g id="line2d_22">
    <g clip-path="url(#p7b08ea5b6d)">
     <use xlink:href="#mf4f5b44e89" x="31.446663" y="55.04735" style="fill: #ff0000; stroke: #ff0000"/>
     <use xlink:href="#mf4f5b44e89" x="51.863709" y="54.278483" style="fill: #ff0000; stroke: #ff0000"/>
     <use xlink:href="#mf4f5b44e89" x="72.280754" y="43.833937" style="fill: #ff0000; stroke: #ff0000"/>
     <use xlink:href="#mf4f5b44e89" x="92.6978" y="61.126661" style="fill: #ff0000; stroke: #ff0000"/>
     <use xlink:href="#mf4f5b44e89" x="113.114845" y="65.908204" style="fill: #ff0000; stroke: #ff0000"/>
     <use xlink:href="#mf4f5b44e89" x="133.531891" y="61.126661" style="fill: #ff0000; stroke: #ff0000"/>
    </g>
   </g>
   <g id="LineCollection_3">
    <path d="M 35.019646 66.035979 
L 35.019646 49.553035 
" clip-path="url(#p7b08ea5b6d)" style="fill: none; stroke: #0000ff; stroke-width: 1.5"/>
    <path d="M 55.436692 61.605456 
L 55.436692 50.614997 
" clip-path="url(#p7b08ea5b6d)" style="fill: none; stroke: #0000ff; stroke-width: 1.5"/>
    <path d="M 75.853737 52.80761 
L 75.853737 39.347101 
" clip-path="url(#p7b08ea5b6d)" style="fill: none; stroke: #0000ff; stroke-width: 1.5"/>
    <path d="M 96.270783 61.126661 
L 96.270783 61.126661 
" clip-path="url(#p7b08ea5b6d)" style="fill: none; stroke: #0000ff; stroke-width: 1.5"/>
    <path d="M 116.687828 76.909026 
L 116.687828 60.407793 
" clip-path="url(#p7b08ea5b6d)" style="fill: none; stroke: #0000ff; stroke-width: 1.5"/>
    <path d="M 137.104874 61.126661 
L 137.104874 61.126661 
" clip-path="url(#p7b08ea5b6d)" style="fill: none; stroke: #0000ff; stroke-width: 1.5"/>
   </g>
   <g id="line2d_23">
    <defs>
     <path id="m35be6c9705" d="M 1.5 0 
L -1.5 -0 
" style="stroke: #0000ff"/>
    </defs>
    <g clip-path="url(#p7b08ea5b6d)">
     <use xlink:href="#m35be6c9705" x="35.019646" y="66.035979" style="fill: #0000ff; stroke: #0000ff"/>
     <use xlink:href="#m35be6c9705" x="55.436692" y="61.605456" style="fill: #0000ff; stroke: #0000ff"/>
     <use xlink:href="#m35be6c9705" x="75.853737" y="52.80761" style="fill: #0000ff; stroke: #0000ff"/>
     <use xlink:href="#m35be6c9705" x="96.270783" y="61.126661" style="fill: #0000ff; stroke: #0000ff"/>
     <use xlink:href="#m35be6c9705" x="116.687828" y="76.909026" style="fill: #0000ff; stroke: #0000ff"/>
     <use xlink:href="#m35be6c9705" x="137.104874" y="61.126661" style="fill: #0000ff; stroke: #0000ff"/>
    </g>
   </g>
   <g id="line2d_24">
    <g clip-path="url(#p7b08ea5b6d)">
     <use xlink:href="#m35be6c9705" x="35.019646" y="49.553035" style="fill: #0000ff; stroke: #0000ff"/>
     <use xlink:href="#m35be6c9705" x="55.436692" y="50.614997" style="fill: #0000ff; stroke: #0000ff"/>
     <use xlink:href="#m35be6c9705" x="75.853737" y="39.347101" style="fill: #0000ff; stroke: #0000ff"/>
     <use xlink:href="#m35be6c9705" x="96.270783" y="61.126661" style="fill: #0000ff; stroke: #0000ff"/>
     <use xlink:href="#m35be6c9705" x="116.687828" y="60.407793" style="fill: #0000ff; stroke: #0000ff"/>
     <use xlink:href="#m35be6c9705" x="137.104874" y="61.126661" style="fill: #0000ff; stroke: #0000ff"/>
    </g>
   </g>
   <g id="line2d_25">
    <defs>
     <path id="m79aa7bbc1e" d="M 0 3 
C 0.795609 3 1.55874 2.683901 2.12132 2.12132 
C 2.683901 1.55874 3 0.795609 3 0 
C 3 -0.795609 2.683901 -1.55874 2.12132 -2.12132 
C 1.55874 -2.683901 0.795609 -3 0 -3 
C -0.795609 -3 -1.55874 -2.683901 -2.12132 -2.12132 
C -2.683901 -1.55874 -3 -0.795609 -3 0 
C -3 0.795609 -2.683901 1.55874 -2.12132 2.12132 
C -1.55874 2.683901 -0.795609 3 0 3 
z
" style="stroke: #000000"/>
    </defs>
    <g clip-path="url(#p7b08ea5b6d)">
     <use xlink:href="#m79aa7bbc1e" x="38.592629" y="57.794507" style="stroke: #000000"/>
     <use xlink:href="#m79aa7bbc1e" x="59.009675" y="56.110226" style="stroke: #000000"/>
     <use xlink:href="#m79aa7bbc1e" x="79.42672" y="46.077356" style="stroke: #000000"/>
     <use xlink:href="#m79aa7bbc1e" x="99.843766" y="61.126661" style="stroke: #000000"/>
     <use xlink:href="#m79aa7bbc1e" x="120.260811" y="68.65841" style="stroke: #000000"/>
     <use xlink:href="#m79aa7bbc1e" x="140.677857" y="61.126661" style="stroke: #000000"/>
    </g>
   </g>
   <g id="line2d_26">
    <defs>
     <path id="m1110bd9463" d="M 0 3 
C 0.795609 3 1.55874 2.683901 2.12132 2.12132 
C 2.683901 1.55874 3 0.795609 3 0 
C 3 -0.795609 2.683901 -1.55874 2.12132 -2.12132 
C 1.55874 -2.683901 0.795609 -3 0 -3 
C -0.795609 -3 -1.55874 -2.683901 -2.12132 -2.12132 
C -2.683901 -1.55874 -3 -0.795609 -3 0 
C -3 0.795609 -2.683901 1.55874 -2.12132 2.12132 
C -1.55874 2.683901 -0.795609 3 0 3 
z
" style="stroke: #ff0000"/>
    </defs>
    <g clip-path="url(#p7b08ea5b6d)">
     <use xlink:href="#m1110bd9463" x="31.446663" y="57.794507" style="fill: #ff0000; stroke: #ff0000"/>
     <use xlink:href="#m1110bd9463" x="51.863709" y="56.110226" style="fill: #ff0000; stroke: #ff0000"/>
     <use xlink:href="#m1110bd9463" x="72.280754" y="46.077356" style="fill: #ff0000; stroke: #ff0000"/>
     <use xlink:href="#m1110bd9463" x="92.6978" y="61.126661" style="fill: #ff0000; stroke: #ff0000"/>
     <use xlink:href="#m1110bd9463" x="113.114845" y="68.65841" style="fill: #ff0000; stroke: #ff0000"/>
     <use xlink:href="#m1110bd9463" x="133.531891" y="61.126661" style="fill: #ff0000; stroke: #ff0000"/>
    </g>
   </g>
   <g id="line2d_27">
    <defs>
     <path id="m1b7ffbcaec" d="M 0 3 
C 0.795609 3 1.55874 2.683901 2.12132 2.12132 
C 2.683901 1.55874 3 0.795609 3 0 
C 3 -0.795609 2.683901 -1.55874 2.12132 -2.12132 
C 1.55874 -2.683901 0.795609 -3 0 -3 
C -0.795609 -3 -1.55874 -2.683901 -2.12132 -2.12132 
C -2.683901 -1.55874 -3 -0.795609 -3 0 
C -3 0.795609 -2.683901 1.55874 -2.12132 2.12132 
C -1.55874 2.683901 -0.795609 3 0 3 
z
" style="stroke: #0000ff"/>
    </defs>
    <g clip-path="url(#p7b08ea5b6d)">
     <use xlink:href="#m1b7ffbcaec" x="35.019646" y="57.794507" style="fill: #0000ff; stroke: #0000ff"/>
     <use xlink:href="#m1b7ffbcaec" x="55.436692" y="56.110226" style="fill: #0000ff; stroke: #0000ff"/>
     <use xlink:href="#m1b7ffbcaec" x="75.853737" y="46.077356" style="fill: #0000ff; stroke: #0000ff"/>
     <use xlink:href="#m1b7ffbcaec" x="96.270783" y="61.126661" style="fill: #0000ff; stroke: #0000ff"/>
     <use xlink:href="#m1b7ffbcaec" x="116.687828" y="68.65841" style="fill: #0000ff; stroke: #0000ff"/>
     <use xlink:href="#m1b7ffbcaec" x="137.104874" y="61.126661" style="fill: #0000ff; stroke: #0000ff"/>
    </g>
   </g>
   <g id="patch_9">
    <path d="M 26.925 272.521395 
L 26.925 7.2 
" style="fill: none; stroke: #000000; stroke-width: 0.8; stroke-linejoin: miter; stroke-linecap: square"/>
   </g>
   <g id="patch_10">
    <path d="M 145.19952 272.521395 
L 145.19952 7.2 
" style="fill: none; stroke: #000000; stroke-width: 0.8; stroke-linejoin: miter; stroke-linecap: square"/>
   </g>
   <g id="patch_11">
    <path d="M 26.925 272.521395 
L 145.19952 272.521395 
" style="fill: none; stroke: #000000; stroke-width: 0.8; stroke-linejoin: miter; stroke-linecap: square"/>
   </g>
   <g id="patch_12">
    <path d="M 26.925 7.2 
L 145.19952 7.2 
" style="fill: none; stroke: #000000; stroke-width: 0.8; stroke-linejoin: miter; stroke-linecap: square"/>
   </g>
  </g>
  <g id="axes_2">
   <g id="patch_13">
    <path d="M 170.925 272.521395 
L 289.19952 272.521395 
L 289.19952 7.2 
L 170.925 7.2 
z
" style="fill: #ffffff"/>
   </g>
   <g id="matplotlib.axis_3">
    <g id="xtick_4">
     <g id="line2d_28">
      <path d="M 217.765452 272.521395 
L 217.765452 7.2 
" clip-path="url(#p58f07094e5)" style="fill: none; stroke: #b0b0b0; stroke-width: 0.8; stroke-linecap: square"/>
     </g>
     <g id="line2d_29">
      <g>
       <use xlink:href="#m843bbe7368" x="217.765452" y="272.521395" style="stroke: #000000; stroke-width: 0.8"/>
      </g>
     </g>
     <g id="text_10">
      <!-- 0 -->
      <g transform="translate(214.584202 287.119832)scale(0.1 -0.1)">
       <use xlink:href="#DejaVuSans-30"/>
      </g>
     </g>
    </g>
    <g id="xtick_5">
     <g id="line2d_30">
      <path d="M 266.952683 272.521395 
L 266.952683 7.2 
" clip-path="url(#p58f07094e5)" style="fill: none; stroke: #b0b0b0; stroke-width: 0.8; stroke-linecap: square"/>
     </g>
     <g id="line2d_31">
      <g>
       <use xlink:href="#m843bbe7368" x="266.952683" y="272.521395" style="stroke: #000000; stroke-width: 0.8"/>
      </g>
     </g>
     <g id="text_11">
      <!-- 2 -->
      <g transform="translate(263.771433 287.119832)scale(0.1 -0.1)">
       <use xlink:href="#DejaVuSans-32"/>
      </g>
     </g>
    </g>
   </g>
   <g id="matplotlib.axis_4">
    <g id="ytick_7">
     <g id="line2d_32">
      <path d="M 170.925 270.445942 
L 289.19952 270.445942 
" clip-path="url(#p58f07094e5)" style="fill: none; stroke: #b0b0b0; stroke-width: 0.8; stroke-linecap: square"/>
     </g>
     <g id="line2d_33">
      <g>
       <use xlink:href="#m954062b52a" x="170.925" y="270.445942" style="stroke: #000000; stroke-width: 0.8"/>
      </g>
     </g>
     <g id="text_12">
      <!-- 0 -->
      <g transform="translate(157.5625 274.24516)scale(0.1 -0.1)">
       <use xlink:href="#DejaVuSans-30"/>
      </g>
     </g>
    </g>
    <g id="ytick_8">
     <g id="line2d_34">
      <path d="M 170.925 221.258712 
L 289.19952 221.258712 
" clip-path="url(#p58f07094e5)" style="fill: none; stroke: #b0b0b0; stroke-width: 0.8; stroke-linecap: square"/>
     </g>
     <g id="line2d_35">
      <g>
       <use xlink:href="#m954062b52a" x="170.925" y="221.258712" style="stroke: #000000; stroke-width: 0.8"/>
      </g>
     </g>
     <g id="text_13">
      <!-- 2 -->
      <g transform="translate(157.5625 225.05793)scale(0.1 -0.1)">
       <use xlink:href="#DejaVuSans-32"/>
      </g>
     </g>
    </g>
    <g id="ytick_9">
     <g id="line2d_36">
      <path d="M 170.925 172.071481 
L 289.19952 172.071481 
" clip-path="url(#p58f07094e5)" style="fill: none; stroke: #b0b0b0; stroke-width: 0.8; stroke-linecap: square"/>
     </g>
     <g id="line2d_37">
      <g>
       <use xlink:href="#m954062b52a" x="170.925" y="172.071481" style="stroke: #000000; stroke-width: 0.8"/>
      </g>
     </g>
     <g id="text_14">
      <!-- 4 -->
      <g transform="translate(157.5625 175.8707)scale(0.1 -0.1)">
       <use xlink:href="#DejaVuSans-34"/>
      </g>
     </g>
    </g>
    <g id="ytick_10">
     <g id="line2d_38">
      <path d="M 170.925 122.884251 
L 289.19952 122.884251 
" clip-path="url(#p58f07094e5)" style="fill: none; stroke: #b0b0b0; stroke-width: 0.8; stroke-linecap: square"/>
     </g>
     <g id="line2d_39">
      <g>
       <use xlink:href="#m954062b52a" x="170.925" y="122.884251" style="stroke: #000000; stroke-width: 0.8"/>
      </g>
     </g>
     <g id="text_15">
      <!-- 6 -->
      <g transform="translate(157.5625 126.68347)scale(0.1 -0.1)">
       <use xlink:href="#DejaVuSans-36"/>
      </g>
     </g>
    </g>
    <g id="ytick_11">
     <g id="line2d_40">
      <path d="M 170.925 73.697021 
L 289.19952 73.697021 
" clip-path="url(#p58f07094e5)" style="fill: none; stroke: #b0b0b0; stroke-width: 0.8; stroke-linecap: square"/>
     </g>
     <g id="line2d_41">
      <g>
       <use xlink:href="#m954062b52a" x="170.925" y="73.697021" style="stroke: #000000; stroke-width: 0.8"/>
      </g>
     </g>
     <g id="text_16">
      <!-- 8 -->
      <g transform="translate(157.5625 77.49624)scale(0.1 -0.1)">
       <use xlink:href="#DejaVuSans-38"/>
      </g>
     </g>
    </g>
    <g id="ytick_12">
     <g id="line2d_42">
      <path d="M 170.925 24.509791 
L 289.19952 24.509791 
" clip-path="url(#p58f07094e5)" style="fill: none; stroke: #b0b0b0; stroke-width: 0.8; stroke-linecap: square"/>
     </g>
     <g id="line2d_43">
      <g>
       <use xlink:href="#m954062b52a" x="170.925" y="24.509791" style="stroke: #000000; stroke-width: 0.8"/>
      </g>
     </g>
     <g id="text_17">
      <!-- 10 -->
      <g transform="translate(151.2 28.30901)scale(0.1 -0.1)">
       <use xlink:href="#DejaVuSans-31"/>
       <use xlink:href="#DejaVuSans-30" x="63.623047"/>
      </g>
     </g>
    </g>
   </g>
   <g id="patch_14">
    <path d="M 213.46157 270.445942 
L 222.069335 270.445942 
L 222.069335 31.553934 
L 213.46157 31.553934 
z
" clip-path="url(#p58f07094e5)" style="fill: #dcdcdc; stroke: #000000; stroke-linejoin: miter"/>
   </g>
   <g id="patch_15">
    <path d="M 238.055185 270.445942 
L 246.66295 270.445942 
L 246.66295 43.972835 
L 238.055185 43.972835 
z
" clip-path="url(#p58f07094e5)" style="fill: #dcdcdc; stroke: #000000; stroke-linejoin: miter"/>
   </g>
   <g id="LineCollection_4">
    <path d="M 222.069335 41.395726 
L 222.069335 21.712143 
" clip-path="url(#p58f07094e5)" style="fill: none; stroke: #000000; stroke-width: 1.5"/>
    <path d="M 246.66295 50.749777 
L 246.66295 37.195893 
" clip-path="url(#p58f07094e5)" style="fill: none; stroke: #000000; stroke-width: 1.5"/>
   </g>
   <g id="line2d_44">
    <g clip-path="url(#p58f07094e5)">
     <use xlink:href="#mf1e997e643" x="222.069335" y="41.395726" style="stroke: #000000"/>
     <use xlink:href="#mf1e997e643" x="246.66295" y="50.749777" style="stroke: #000000"/>
    </g>
   </g>
   <g id="line2d_45">
    <g clip-path="url(#p58f07094e5)">
     <use xlink:href="#mf1e997e643" x="222.069335" y="21.712143" style="stroke: #000000"/>
     <use xlink:href="#mf1e997e643" x="246.66295" y="37.195893" style="stroke: #000000"/>
    </g>
   </g>
   <g id="LineCollection_5">
    <path d="M 213.46157 34.554118 
L 213.46157 28.553751 
" clip-path="url(#p58f07094e5)" style="fill: none; stroke: #ff0000; stroke-width: 1.5"/>
    <path d="M 238.055185 46.038726 
L 238.055185 41.906944 
" clip-path="url(#p58f07094e5)" style="fill: none; stroke: #ff0000; stroke-width: 1.5"/>
   </g>
   <g id="line2d_46">
    <g clip-path="url(#p58f07094e5)">
     <use xlink:href="#mf4f5b44e89" x="213.46157" y="34.554118" style="fill: #ff0000; stroke: #ff0000"/>
     <use xlink:href="#mf4f5b44e89" x="238.055185" y="46.038726" style="fill: #ff0000; stroke: #ff0000"/>
    </g>
   </g>
   <g id="line2d_47">
    <g clip-path="url(#p58f07094e5)">
     <use xlink:href="#mf4f5b44e89" x="213.46157" y="28.553751" style="fill: #ff0000; stroke: #ff0000"/>
     <use xlink:href="#mf4f5b44e89" x="238.055185" y="41.906944" style="fill: #ff0000; stroke: #ff0000"/>
    </g>
   </g>
   <g id="LineCollection_6">
    <path d="M 217.765452 40.554484 
L 217.765452 22.553385 
" clip-path="url(#p58f07094e5)" style="fill: none; stroke: #0000ff; stroke-width: 1.5"/>
    <path d="M 242.359068 50.170508 
L 242.359068 37.775162 
" clip-path="url(#p58f07094e5)" style="fill: none; stroke: #0000ff; stroke-width: 1.5"/>
   </g>
   <g id="line2d_48">
    <g clip-path="url(#p58f07094e5)">
     <use xlink:href="#m35be6c9705" x="217.765452" y="40.554484" style="fill: #0000ff; stroke: #0000ff"/>
     <use xlink:href="#m35be6c9705" x="242.359068" y="50.170508" style="fill: #0000ff; stroke: #0000ff"/>
    </g>
   </g>
   <g id="line2d_49">
    <g clip-path="url(#p58f07094e5)">
     <use xlink:href="#m35be6c9705" x="217.765452" y="22.553385" style="fill: #0000ff; stroke: #0000ff"/>
     <use xlink:href="#m35be6c9705" x="242.359068" y="37.775162" style="fill: #0000ff; stroke: #0000ff"/>
    </g>
   </g>
   <g id="line2d_50">
    <g clip-path="url(#p58f07094e5)">
     <use xlink:href="#m79aa7bbc1e" x="222.069335" y="31.553934" style="stroke: #000000"/>
     <use xlink:href="#m79aa7bbc1e" x="246.66295" y="43.972835" style="stroke: #000000"/>
    </g>
   </g>
   <g id="line2d_51">
    <g clip-path="url(#p58f07094e5)">
     <use xlink:href="#m1110bd9463" x="213.46157" y="31.553934" style="fill: #ff0000; stroke: #ff0000"/>
     <use xlink:href="#m1110bd9463" x="238.055185" y="43.972835" style="fill: #ff0000; stroke: #ff0000"/>
    </g>
   </g>
   <g id="line2d_52">
    <g clip-path="url(#p58f07094e5)">
     <use xlink:href="#m1b7ffbcaec" x="217.765452" y="31.553934" style="fill: #0000ff; stroke: #0000ff"/>
     <use xlink:href="#m1b7ffbcaec" x="242.359068" y="43.972835" style="fill: #0000ff; stroke: #0000ff"/>
    </g>
   </g>
   <g id="patch_16">
    <path d="M 170.925 272.521395 
L 170.925 7.2 
" style="fill: none; stroke: #000000; stroke-width: 0.8; stroke-linejoin: miter; stroke-linecap: square"/>
   </g>
   <g id="patch_17">
    <path d="M 289.19952 272.521395 
L 289.19952 7.2 
" style="fill: none; stroke: #000000; stroke-width: 0.8; stroke-linejoin: miter; stroke-linecap: square"/>
   </g>
   <g id="patch_18">
    <path d="M 170.925 272.521395 
L 289.19952 272.521395 
" style="fill: none; stroke: #000000; stroke-width: 0.8; stroke-linejoin: miter; stroke-linecap: square"/>
   </g>
   <g id="patch_19">
    <path d="M 170.925 7.2 
L 289.19952 7.2 
" style="fill: none; stroke: #000000; stroke-width: 0.8; stroke-linejoin: miter; stroke-linecap: square"/>
   </g>
  </g>
  <g id="axes_3">
   <g id="patch_20">
    <path d="M 314.925 272.521395 
L 433.19952 272.521395 
L 433.19952 7.2 
L 314.925 7.2 
z
" style="fill: #ffffff"/>
   </g>
   <g id="matplotlib.axis_5">
    <g id="xtick_6">
     <g id="line2d_53">
      <path d="M 323.488447 272.521395 
L 323.488447 7.2 
" clip-path="url(#p878344a3f1)" style="fill: none; stroke: #b0b0b0; stroke-width: 0.8; stroke-linecap: square"/>
     </g>
     <g id="line2d_54">
      <g>
       <use xlink:href="#m843bbe7368" x="323.488447" y="272.521395" style="stroke: #000000; stroke-width: 0.8"/>
      </g>
     </g>
     <g id="text_18">
      <!-- −2 -->
      <g transform="translate(316.117354 287.119832)scale(0.1 -0.1)">
       <defs>
        <path id="DejaVuSans-2212" d="M 678 2272 
L 4684 2272 
L 4684 1741 
L 678 1741 
L 678 2272 
z
" transform="scale(0.015625)"/>
       </defs>
       <use xlink:href="#DejaVuSans-2212"/>
       <use xlink:href="#DejaVuSans-32" x="83.789062"/>
      </g>
     </g>
    </g>
    <g id="xtick_7">
     <g id="line2d_55">
      <path d="M 374.06226 272.521395 
L 374.06226 7.2 
" clip-path="url(#p878344a3f1)" style="fill: none; stroke: #b0b0b0; stroke-width: 0.8; stroke-linecap: square"/>
     </g>
     <g id="line2d_56">
      <g>
       <use xlink:href="#m843bbe7368" x="374.06226" y="272.521395" style="stroke: #000000; stroke-width: 0.8"/>
      </g>
     </g>
     <g id="text_19">
      <!-- 0 -->
      <g transform="translate(370.88101 287.119832)scale(0.1 -0.1)">
       <use xlink:href="#DejaVuSans-30"/>
      </g>
     </g>
    </g>
    <g id="xtick_8">
     <g id="line2d_57">
      <path d="M 424.636073 272.521395 
L 424.636073 7.2 
" clip-path="url(#p878344a3f1)" style="fill: none; stroke: #b0b0b0; stroke-width: 0.8; stroke-linecap: square"/>
     </g>
     <g id="line2d_58">
      <g>
       <use xlink:href="#m843bbe7368" x="424.636073" y="272.521395" style="stroke: #000000; stroke-width: 0.8"/>
      </g>
     </g>
     <g id="text_20">
      <!-- 2 -->
      <g transform="translate(421.454823 287.119832)scale(0.1 -0.1)">
       <use xlink:href="#DejaVuSans-32"/>
      </g>
     </g>
    </g>
   </g>
   <g id="matplotlib.axis_6">
    <g id="ytick_13">
     <g id="line2d_59">
      <path d="M 314.925 270.445942 
L 433.19952 270.445942 
" clip-path="url(#p878344a3f1)" style="fill: none; stroke: #b0b0b0; stroke-width: 0.8; stroke-linecap: square"/>
     </g>
     <g id="line2d_60">
      <g>
       <use xlink:href="#m954062b52a" x="314.925" y="270.445942" style="stroke: #000000; stroke-width: 0.8"/>
      </g>
     </g>
     <g id="text_21">
      <!-- 0 -->
      <g transform="translate(301.5625 274.24516)scale(0.1 -0.1)">
       <use xlink:href="#DejaVuSans-30"/>
      </g>
     </g>
    </g>
    <g id="ytick_14">
     <g id="line2d_61">
      <path d="M 314.925 219.872129 
L 433.19952 219.872129 
" clip-path="url(#p878344a3f1)" style="fill: none; stroke: #b0b0b0; stroke-width: 0.8; stroke-linecap: square"/>
     </g>
     <g id="line2d_62">
      <g>
       <use xlink:href="#m954062b52a" x="314.925" y="219.872129" style="stroke: #000000; stroke-width: 0.8"/>
      </g>
     </g>
     <g id="text_22">
      <!-- 2 -->
      <g transform="translate(301.5625 223.671348)scale(0.1 -0.1)">
       <use xlink:href="#DejaVuSans-32"/>
      </g>
     </g>
    </g>
    <g id="ytick_15">
     <g id="line2d_63">
      <path d="M 314.925 169.298317 
L 433.19952 169.298317 
" clip-path="url(#p878344a3f1)" style="fill: none; stroke: #b0b0b0; stroke-width: 0.8; stroke-linecap: square"/>
     </g>
     <g id="line2d_64">
      <g>
       <use xlink:href="#m954062b52a" x="314.925" y="169.298317" style="stroke: #000000; stroke-width: 0.8"/>
      </g>
     </g>
     <g id="text_23">
      <!-- 4 -->
      <g transform="translate(301.5625 173.097535)scale(0.1 -0.1)">
       <use xlink:href="#DejaVuSans-34"/>
      </g>
     </g>
    </g>
    <g id="ytick_16">
     <g id="line2d_65">
      <path d="M 314.925 118.724504 
L 433.19952 118.724504 
" clip-path="url(#p878344a3f1)" style="fill: none; stroke: #b0b0b0; stroke-width: 0.8; stroke-linecap: square"/>
     </g>
     <g id="line2d_66">
      <g>
       <use xlink:href="#m954062b52a" x="314.925" y="118.724504" style="stroke: #000000; stroke-width: 0.8"/>
      </g>
     </g>
     <g id="text_24">
      <!-- 6 -->
      <g transform="translate(301.5625 122.523723)scale(0.1 -0.1)">
       <use xlink:href="#DejaVuSans-36"/>
      </g>
     </g>
    </g>
    <g id="ytick_17">
     <g id="line2d_67">
      <path d="M 314.925 68.150692 
L 433.19952 68.150692 
" clip-path="url(#p878344a3f1)" style="fill: none; stroke: #b0b0b0; stroke-width: 0.8; stroke-linecap: square"/>
     </g>
     <g id="line2d_68">
      <g>
       <use xlink:href="#m954062b52a" x="314.925" y="68.150692" style="stroke: #000000; stroke-width: 0.8"/>
      </g>
     </g>
     <g id="text_25">
      <!-- 8 -->
      <g transform="translate(301.5625 71.94991)scale(0.1 -0.1)">
       <use xlink:href="#DejaVuSans-38"/>
      </g>
     </g>
    </g>
    <g id="ytick_18">
     <g id="line2d_69">
      <path d="M 314.925 17.576879 
L 433.19952 17.576879 
" clip-path="url(#p878344a3f1)" style="fill: none; stroke: #b0b0b0; stroke-width: 0.8; stroke-linecap: square"/>
     </g>
     <g id="line2d_70">
      <g>
       <use xlink:href="#m954062b52a" x="314.925" y="17.576879" style="stroke: #000000; stroke-width: 0.8"/>
      </g>
     </g>
     <g id="text_26">
      <!-- 10 -->
      <g transform="translate(295.2 21.376098)scale(0.1 -0.1)">
       <use xlink:href="#DejaVuSans-31"/>
       <use xlink:href="#DejaVuSans-30" x="63.623047"/>
      </g>
     </g>
    </g>
   </g>
   <g id="patch_21">
    <path d="M 369.637051 270.445942 
L 378.487469 270.445942 
L 378.487469 31.20409 
L 369.637051 31.20409 
z
" clip-path="url(#p878344a3f1)" style="fill: #dcdcdc; stroke: #000000; stroke-linejoin: miter"/>
   </g>
   <g id="LineCollection_7">
    <path d="M 378.487469 40.696037 
L 378.487469 21.712143 
" clip-path="url(#p878344a3f1)" style="fill: none; stroke: #000000; stroke-width: 1.5"/>
   </g>
   <g id="line2d_71">
    <g clip-path="url(#p878344a3f1)">
     <use xlink:href="#mf1e997e643" x="378.487469" y="40.696037" style="stroke: #000000"/>
    </g>
   </g>
   <g id="line2d_72">
    <g clip-path="url(#p878344a3f1)">
     <use xlink:href="#mf1e997e643" x="378.487469" y="21.712143" style="stroke: #000000"/>
    </g>
   </g>
   <g id="LineCollection_8">
    <path d="M 369.637051 34.097626 
L 369.637051 28.310554 
" clip-path="url(#p878344a3f1)" style="fill: none; stroke: #ff0000; stroke-width: 1.5"/>
   </g>
   <g id="line2d_73">
    <g clip-path="url(#p878344a3f1)">
     <use xlink:href="#mf4f5b44e89" x="369.637051" y="34.097626" style="fill: #ff0000; stroke: #ff0000"/>
    </g>
   </g>
   <g id="line2d_74">
    <g clip-path="url(#p878344a3f1)">
     <use xlink:href="#mf4f5b44e89" x="369.637051" y="28.310554" style="fill: #ff0000; stroke: #ff0000"/>
    </g>
   </g>
   <g id="LineCollection_9">
    <path d="M 374.06226 39.884699 
L 374.06226 22.523481 
" clip-path="url(#p878344a3f1)" style="fill: none; stroke: #0000ff; stroke-width: 1.5"/>
   </g>
   <g id="line2d_75">
    <g clip-path="url(#p878344a3f1)">
     <use xlink:href="#m35be6c9705" x="374.06226" y="39.884699" style="fill: #0000ff; stroke: #0000ff"/>
    </g>
   </g>
   <g id="line2d_76">
    <g clip-path="url(#p878344a3f1)">
     <use xlink:href="#m35be6c9705" x="374.06226" y="22.523481" style="fill: #0000ff; stroke: #0000ff"/>
    </g>
   </g>
   <g id="line2d_77">
    <g clip-path="url(#p878344a3f1)">
     <use xlink:href="#m79aa7bbc1e" x="378.487469" y="31.20409" style="stroke: #000000"/>
    </g>
   </g>
   <g id="line2d_78">
    <g clip-path="url(#p878344a3f1)">
     <use xlink:href="#m1110bd9463" x="369.637051" y="31.20409" style="fill: #ff0000; stroke: #ff0000"/>
    </g>
   </g>
   <g id="line2d_79">
    <g clip-path="url(#p878344a3f1)">
     <use xlink:href="#m1b7ffbcaec" x="374.06226" y="31.20409" style="fill: #0000ff; stroke: #0000ff"/>
    </g>
   </g>
   <g id="patch_22">
    <path d="M 314.925 272.521395 
L 314.925 7.2 
" style="fill: none; stroke: #000000; stroke-width: 0.8; stroke-linejoin: miter; stroke-linecap: square"/>
   </g>
   <g id="patch_23">
    <path d="M 433.19952 272.521395 
L 433.19952 7.2 
" style="fill: none; stroke: #000000; stroke-width: 0.8; stroke-linejoin: miter; stroke-linecap: square"/>
   </g>
   <g id="patch_24">
    <path d="M 314.925 272.521395 
L 433.19952 272.521395 
" style="fill: none; stroke: #000000; stroke-width: 0.8; stroke-linejoin: miter; stroke-linecap: square"/>
   </g>
   <g id="patch_25">
    <path d="M 314.925 7.2 
L 433.19952 7.2 
" style="fill: none; stroke: #000000; stroke-width: 0.8; stroke-linejoin: miter; stroke-linecap: square"/>
   </g>
  </g>
 </g>
 <defs>
  <clipPath id="p7b08ea5b6d">
   <rect x="26.925" y="7.2" width="118.27452" height="265.321395"/>
  </clipPath>
  <clipPath id="p58f07094e5">
   <rect x="170.925" y="7.2" width="118.27452" height="265.321395"/>
  </clipPath>
  <clipPath id="p878344a3f1">
   <rect x="314.925" y="7.2" width="118.27452" height="265.321395"/>
  </clipPath>
 </defs>
</svg>
