<?xml version="1.0" encoding="utf-8" standalone="no"?>
<!DOCTYPE svg PUBLIC "-//W3C//DTD SVG 1.1//EN"
  "http://www.w3.org/Graphics/SVG/1.1/DTD/svg11.dtd">
<svg xmlns:xlink="http://www.w3.org/1999/xlink" width="440.39952pt" height="296.39952pt" viewBox="0 0 440.39952 296.39952" xmlns="http://www.w3.org/2000/svg" version="1.1">
 <metadata>
  <rdf:RDF xmlns:dc="http://purl.org/dc/elements/1.1/" xmlns:cc="http://creativecommons.org/ns#" xmlns:rdf="http://www.w3.org/1999/02/22-rdf-syntax-ns#">
   <cc:Work>
    <dc:type rdf:resource="http://purl.org/dc/dcmitype/StillImage"/>
    <dc:date>2021-12-12T10:12:57.135544</dc:date>
    <dc:format>image/svg+xml</dc:format>
    <dc:creator>
     <cc:Agent>
      <dc:title>Matplotlib v3.5.0, https://matplotlib.org/</dc:title>
     </cc:Agent>
    </dc:creator>
   </cc:Work>
  </rdf:RDF>
 </metadata>
 <defs>
  <style type="text/css">*{stroke-linejoin: round; stroke-linecap: butt}</style>
 </defs>
 <g id="figure_1">
  <g id="patch_1">
   <path d="M 0 296.39952 
L 440.39952 296.39952 
L 440.39952 0 
L 0 0 
L 0 296.39952 
z
" style="fill: none"/>
  </g>
  <g id="axes_1">
   <g id="patch_2">
    <path d="M 36.465625 80.521395 
L 433.19952 80.521395 
L 433.19952 7.2 
L 36.465625 7.2 
z
" style="fill: #ffffff"/>
   </g>
   <g id="matplotlib.axis_1">
    <g id="xtick_1">
     <g id="line2d_1">
      <defs>
       <path id="m78b7634824" d="M 0 0 
L 0 3.5 
" style="stroke: #000000; stroke-width: 0.8"/>
      </defs>
      <g>
       <use xlink:href="#m78b7634824" x="66.296508" y="80.521395" style="stroke: #000000; stroke-width: 0.8"/>
      </g>
     </g>
     <g id="text_1">
      <!-- 0 -->
      <g transform="translate(63.115258 95.119832)scale(0.1 -0.1)">
       <defs>
        <path id="DejaVuSans-30" d="M 2034 4250 
Q 1547 4250 1301 3770 
Q 1056 3291 1056 2328 
Q 1056 1369 1301 889 
Q 1547 409 2034 409 
Q 2525 409 2770 889 
Q 3016 1369 3016 2328 
Q 3016 3291 2770 3770 
Q 2525 4250 2034 4250 
z
M 2034 4750 
Q 2819 4750 3233 4129 
Q 3647 3509 3647 2328 
Q 3647 1150 3233 529 
Q 2819 -91 2034 -91 
Q 1250 -91 836 529 
Q 422 1150 422 2328 
Q 422 3509 836 4129 
Q 1250 4750 2034 4750 
z
" transform="scale(0.015625)"/>
       </defs>
       <use xlink:href="#DejaVuSans-30"/>
      </g>
     </g>
    </g>
    <g id="xtick_2">
     <g id="line2d_2">
      <g>
       <use xlink:href="#m78b7634824" x="133.710934" y="80.521395" style="stroke: #000000; stroke-width: 0.8"/>
      </g>
     </g>
     <g id="text_2">
      <!-- 1 -->
      <g transform="translate(130.529684 95.119832)scale(0.1 -0.1)">
       <defs>
        <path id="DejaVuSans-31" d="M 794 531 
L 1825 531 
L 1825 4091 
L 703 3866 
L 703 4441 
L 1819 4666 
L 2450 4666 
L 2450 531 
L 3481 531 
L 3481 0 
L 794 0 
L 794 531 
z
" transform="scale(0.015625)"/>
       </defs>
       <use xlink:href="#DejaVuSans-31"/>
      </g>
     </g>
    </g>
    <g id="xtick_3">
     <g id="line2d_3">
      <g>
       <use xlink:href="#m78b7634824" x="201.12536" y="80.521395" style="stroke: #000000; stroke-width: 0.8"/>
      </g>
     </g>
     <g id="text_3">
      <!-- 2 -->
      <g transform="translate(197.94411 95.119832)scale(0.1 -0.1)">
       <defs>
        <path id="DejaVuSans-32" d="M 1228 531 
L 3431 531 
L 3431 0 
L 469 0 
L 469 531 
Q 828 903 1448 1529 
Q 2069 2156 2228 2338 
Q 2531 2678 2651 2914 
Q 2772 3150 2772 3378 
Q 2772 3750 2511 3984 
Q 2250 4219 1831 4219 
Q 1534 4219 1204 4116 
Q 875 4013 500 3803 
L 500 4441 
Q 881 4594 1212 4672 
Q 1544 4750 1819 4750 
Q 2544 4750 2975 4387 
Q 3406 4025 3406 3419 
Q 3406 3131 3298 2873 
Q 3191 2616 2906 2266 
Q 2828 2175 2409 1742 
Q 1991 1309 1228 531 
z
" transform="scale(0.015625)"/>
       </defs>
       <use xlink:href="#DejaVuSans-32"/>
      </g>
     </g>
    </g>
    <g id="xtick_4">
     <g id="line2d_4">
      <g>
       <use xlink:href="#m78b7634824" x="268.539785" y="80.521395" style="stroke: #000000; stroke-width: 0.8"/>
      </g>
     </g>
     <g id="text_4">
      <!-- 3 -->
      <g transform="translate(265.358535 95.119832)scale(0.1 -0.1)">
       <defs>
        <path id="DejaVuSans-33" d="M 2597 2516 
Q 3050 2419 3304 2112 
Q 3559 1806 3559 1356 
Q 3559 666 3084 287 
Q 2609 -91 1734 -91 
Q 1441 -91 1130 -33 
Q 819 25 488 141 
L 488 750 
Q 750 597 1062 519 
Q 1375 441 1716 441 
Q 2309 441 2620 675 
Q 2931 909 2931 1356 
Q 2931 1769 2642 2001 
Q 2353 2234 1838 2234 
L 1294 2234 
L 1294 2753 
L 1863 2753 
Q 2328 2753 2575 2939 
Q 2822 3125 2822 3475 
Q 2822 3834 2567 4026 
Q 2313 4219 1838 4219 
Q 1578 4219 1281 4162 
Q 984 4106 628 3988 
L 628 4550 
Q 988 4650 1302 4700 
Q 1616 4750 1894 4750 
Q 2613 4750 3031 4423 
Q 3450 4097 3450 3541 
Q 3450 3153 3228 2886 
Q 3006 2619 2597 2516 
z
" transform="scale(0.015625)"/>
       </defs>
       <use xlink:href="#DejaVuSans-33"/>
      </g>
     </g>
    </g>
    <g id="xtick_5">
     <g id="line2d_5">
      <g>
       <use xlink:href="#m78b7634824" x="335.954211" y="80.521395" style="stroke: #000000; stroke-width: 0.8"/>
      </g>
     </g>
     <g id="text_5">
      <!-- 4 -->
      <g transform="translate(332.772961 95.119832)scale(0.1 -0.1)">
       <defs>
        <path id="DejaVuSans-34" d="M 2419 4116 
L 825 1625 
L 2419 1625 
L 2419 4116 
z
M 2253 4666 
L 3047 4666 
L 3047 1625 
L 3713 1625 
L 3713 1100 
L 3047 1100 
L 3047 0 
L 2419 0 
L 2419 1100 
L 313 1100 
L 313 1709 
L 2253 4666 
z
" transform="scale(0.015625)"/>
       </defs>
       <use xlink:href="#DejaVuSans-34"/>
      </g>
     </g>
    </g>
    <g id="xtick_6">
     <g id="line2d_6">
      <g>
       <use xlink:href="#m78b7634824" x="403.368637" y="80.521395" style="stroke: #000000; stroke-width: 0.8"/>
      </g>
     </g>
     <g id="text_6">
      <!-- 5 -->
      <g transform="translate(400.187387 95.119832)scale(0.1 -0.1)">
       <defs>
        <path id="DejaVuSans-35" d="M 691 4666 
L 3169 4666 
L 3169 4134 
L 1269 4134 
L 1269 2991 
Q 1406 3038 1543 3061 
Q 1681 3084 1819 3084 
Q 2600 3084 3056 2656 
Q 3513 2228 3513 1497 
Q 3513 744 3044 326 
Q 2575 -91 1722 -91 
Q 1428 -91 1123 -41 
Q 819 9 494 109 
L 494 744 
Q 775 591 1075 516 
Q 1375 441 1709 441 
Q 2250 441 2565 725 
Q 2881 1009 2881 1497 
Q 2881 1984 2565 2268 
Q 2250 2553 1709 2553 
Q 1456 2553 1204 2497 
Q 953 2441 691 2322 
L 691 4666 
z
" transform="scale(0.015625)"/>
       </defs>
       <use xlink:href="#DejaVuSans-35"/>
      </g>
     </g>
    </g>
   </g>
   <g id="matplotlib.axis_2">
    <g id="ytick_1">
     <g id="line2d_7">
      <defs>
       <path id="m9e3df829ce" d="M 0 0 
L -3.5 0 
" style="stroke: #000000; stroke-width: 0.8"/>
      </defs>
      <g>
       <use xlink:href="#m9e3df829ce" x="36.465625" y="74.930182" style="stroke: #000000; stroke-width: 0.8"/>
      </g>
     </g>
     <g id="text_7">
      <!-- 10.0 -->
      <g transform="translate(7.2 78.729401)scale(0.1 -0.1)">
       <defs>
        <path id="DejaVuSans-2e" d="M 684 794 
L 1344 794 
L 1344 0 
L 684 0 
L 684 794 
z
" transform="scale(0.015625)"/>
       </defs>
       <use xlink:href="#DejaVuSans-31"/>
       <use xlink:href="#DejaVuSans-30" x="63.623047"/>
       <use xlink:href="#DejaVuSans-2e" x="127.246094"/>
       <use xlink:href="#DejaVuSans-30" x="159.033203"/>
      </g>
     </g>
    </g>
    <g id="ytick_2">
     <g id="line2d_8">
      <g>
       <use xlink:href="#m9e3df829ce" x="36.465625" y="50.382117" style="stroke: #000000; stroke-width: 0.8"/>
      </g>
     </g>
     <g id="text_8">
      <!-- 12.5 -->
      <g transform="translate(7.2 54.181336)scale(0.1 -0.1)">
       <use xlink:href="#DejaVuSans-31"/>
       <use xlink:href="#DejaVuSans-32" x="63.623047"/>
       <use xlink:href="#DejaVuSans-2e" x="127.246094"/>
       <use xlink:href="#DejaVuSans-35" x="159.033203"/>
      </g>
     </g>
    </g>
    <g id="ytick_3">
     <g id="line2d_9">
      <g>
       <use xlink:href="#m9e3df829ce" x="36.465625" y="25.834052" style="stroke: #000000; stroke-width: 0.8"/>
      </g>
     </g>
     <g id="text_9">
      <!-- 15.0 -->
      <g transform="translate(7.2 29.633271)scale(0.1 -0.1)">
       <use xlink:href="#DejaVuSans-31"/>
       <use xlink:href="#DejaVuSans-35" x="63.623047"/>
       <use xlink:href="#DejaVuSans-2e" x="127.246094"/>
       <use xlink:href="#DejaVuSans-30" x="159.033203"/>
      </g>
     </g>
    </g>
   </g>
   <g id="line2d_10">
    <path d="M 36.465625 77.188604 
L 433.19952 77.188604 
" clip-path="url(#pfd0e658c76)" style="fill: none; stroke-dasharray: 5.55,2.4; stroke-dashoffset: 0; stroke: #000000; stroke-width: 1.5"/>
   </g>
   <g id="LineCollection_1">
    <path d="M 78.094033 50.369846 
L 78.094033 24.05385 
" clip-path="url(#pfd0e658c76)" style="fill: none; stroke: #000000; stroke-width: 1.5"/>
    <path d="M 145.508459 39.844298 
L 145.508459 10.532791 
" clip-path="url(#pfd0e658c76)" style="fill: none; stroke: #000000; stroke-width: 1.5"/>
    <path d="M 212.922884 44.78217 
L 212.922884 37.575583 
" clip-path="url(#pfd0e658c76)" style="fill: none; stroke: #000000; stroke-width: 1.5"/>
    <path d="M 280.33731 26.54555 
L 280.33731 14.379538 
" clip-path="url(#pfd0e658c76)" style="fill: none; stroke: #000000; stroke-width: 1.5"/>
    <path d="M 347.751735 41.561196 
L 347.751735 24.310926 
" clip-path="url(#pfd0e658c76)" style="fill: none; stroke: #000000; stroke-width: 1.5"/>
    <path d="M 415.166161 49.186396 
L 415.166161 25.124241 
" clip-path="url(#pfd0e658c76)" style="fill: none; stroke: #000000; stroke-width: 1.5"/>
   </g>
   <g id="line2d_11">
    <defs>
     <path id="m1b2c9552df" d="M 1.5 0 
L -1.5 -0 
" style="stroke: #000000"/>
    </defs>
    <g clip-path="url(#pfd0e658c76)">
     <use xlink:href="#m1b2c9552df" x="78.094033" y="50.369846" style="stroke: #000000"/>
     <use xlink:href="#m1b2c9552df" x="145.508459" y="39.844298" style="stroke: #000000"/>
     <use xlink:href="#m1b2c9552df" x="212.922884" y="44.78217" style="stroke: #000000"/>
     <use xlink:href="#m1b2c9552df" x="280.33731" y="26.54555" style="stroke: #000000"/>
     <use xlink:href="#m1b2c9552df" x="347.751735" y="41.561196" style="stroke: #000000"/>
     <use xlink:href="#m1b2c9552df" x="415.166161" y="49.186396" style="stroke: #000000"/>
    </g>
   </g>
   <g id="line2d_12">
    <g clip-path="url(#pfd0e658c76)">
     <use xlink:href="#m1b2c9552df" x="78.094033" y="24.05385" style="stroke: #000000"/>
     <use xlink:href="#m1b2c9552df" x="145.508459" y="10.532791" style="stroke: #000000"/>
     <use xlink:href="#m1b2c9552df" x="212.922884" y="37.575583" style="stroke: #000000"/>
     <use xlink:href="#m1b2c9552df" x="280.33731" y="14.379538" style="stroke: #000000"/>
     <use xlink:href="#m1b2c9552df" x="347.751735" y="24.310926" style="stroke: #000000"/>
     <use xlink:href="#m1b2c9552df" x="415.166161" y="25.124241" style="stroke: #000000"/>
    </g>
   </g>
   <g id="LineCollection_2">
    <path d="M 54.498984 41.222947 
L 54.498984 33.200748 
" clip-path="url(#pfd0e658c76)" style="fill: none; stroke: #696969; stroke-width: 1.5"/>
    <path d="M 121.91341 29.656221 
L 121.91341 20.720867 
" clip-path="url(#pfd0e658c76)" style="fill: none; stroke: #696969; stroke-width: 1.5"/>
    <path d="M 189.327835 42.277309 
L 189.327835 40.080444 
" clip-path="url(#pfd0e658c76)" style="fill: none; stroke: #696969; stroke-width: 1.5"/>
    <path d="M 256.742261 22.316895 
L 256.742261 18.608193 
" clip-path="url(#pfd0e658c76)" style="fill: none; stroke: #696969; stroke-width: 1.5"/>
    <path d="M 324.156686 35.565357 
L 324.156686 30.306764 
" clip-path="url(#pfd0e658c76)" style="fill: none; stroke: #696969; stroke-width: 1.5"/>
    <path d="M 391.571112 40.822886 
L 391.571112 33.487751 
" clip-path="url(#pfd0e658c76)" style="fill: none; stroke: #696969; stroke-width: 1.5"/>
   </g>
   <g id="line2d_13">
    <defs>
     <path id="m7a6e615c8c" d="M 1.5 0 
L -1.5 -0 
" style="stroke: #696969"/>
    </defs>
    <g clip-path="url(#pfd0e658c76)">
     <use xlink:href="#m7a6e615c8c" x="54.498984" y="41.222947" style="fill: #696969; stroke: #696969"/>
     <use xlink:href="#m7a6e615c8c" x="121.91341" y="29.656221" style="fill: #696969; stroke: #696969"/>
     <use xlink:href="#m7a6e615c8c" x="189.327835" y="42.277309" style="fill: #696969; stroke: #696969"/>
     <use xlink:href="#m7a6e615c8c" x="256.742261" y="22.316895" style="fill: #696969; stroke: #696969"/>
     <use xlink:href="#m7a6e615c8c" x="324.156686" y="35.565357" style="fill: #696969; stroke: #696969"/>
     <use xlink:href="#m7a6e615c8c" x="391.571112" y="40.822886" style="fill: #696969; stroke: #696969"/>
    </g>
   </g>
   <g id="line2d_14">
    <g clip-path="url(#pfd0e658c76)">
     <use xlink:href="#m7a6e615c8c" x="54.498984" y="33.200748" style="fill: #696969; stroke: #696969"/>
     <use xlink:href="#m7a6e615c8c" x="121.91341" y="20.720867" style="fill: #696969; stroke: #696969"/>
     <use xlink:href="#m7a6e615c8c" x="189.327835" y="40.080444" style="fill: #696969; stroke: #696969"/>
     <use xlink:href="#m7a6e615c8c" x="256.742261" y="18.608193" style="fill: #696969; stroke: #696969"/>
     <use xlink:href="#m7a6e615c8c" x="324.156686" y="30.306764" style="fill: #696969; stroke: #696969"/>
     <use xlink:href="#m7a6e615c8c" x="391.571112" y="33.487751" style="fill: #696969; stroke: #696969"/>
    </g>
   </g>
   <g id="LineCollection_3">
    <path d="M 66.296508 49.245146 
L 66.296508 25.178549 
" clip-path="url(#pfd0e658c76)" style="fill: none; stroke: #708090; stroke-width: 1.5"/>
    <path d="M 133.710934 38.591575 
L 133.710934 11.785513 
" clip-path="url(#pfd0e658c76)" style="fill: none; stroke: #708090; stroke-width: 1.5"/>
    <path d="M 201.12536 44.474173 
L 201.12536 37.883579 
" clip-path="url(#pfd0e658c76)" style="fill: none; stroke: #708090; stroke-width: 1.5"/>
    <path d="M 268.539785 26.025596 
L 268.539785 14.899492 
" clip-path="url(#pfd0e658c76)" style="fill: none; stroke: #708090; stroke-width: 1.5"/>
    <path d="M 335.954211 40.823949 
L 335.954211 25.048172 
" clip-path="url(#pfd0e658c76)" style="fill: none; stroke: #708090; stroke-width: 1.5"/>
    <path d="M 403.368637 48.158022 
L 403.368637 26.152615 
" clip-path="url(#pfd0e658c76)" style="fill: none; stroke: #708090; stroke-width: 1.5"/>
   </g>
   <g id="line2d_15">
    <defs>
     <path id="m8da024044f" d="M 1.5 0 
L -1.5 -0 
" style="stroke: #708090"/>
    </defs>
    <g clip-path="url(#pfd0e658c76)">
     <use xlink:href="#m8da024044f" x="66.296508" y="49.245146" style="fill: #708090; stroke: #708090"/>
     <use xlink:href="#m8da024044f" x="133.710934" y="38.591575" style="fill: #708090; stroke: #708090"/>
     <use xlink:href="#m8da024044f" x="201.12536" y="44.474173" style="fill: #708090; stroke: #708090"/>
     <use xlink:href="#m8da024044f" x="268.539785" y="26.025596" style="fill: #708090; stroke: #708090"/>
     <use xlink:href="#m8da024044f" x="335.954211" y="40.823949" style="fill: #708090; stroke: #708090"/>
     <use xlink:href="#m8da024044f" x="403.368637" y="48.158022" style="fill: #708090; stroke: #708090"/>
    </g>
   </g>
   <g id="line2d_16">
    <g clip-path="url(#pfd0e658c76)">
     <use xlink:href="#m8da024044f" x="66.296508" y="25.178549" style="fill: #708090; stroke: #708090"/>
     <use xlink:href="#m8da024044f" x="133.710934" y="11.785513" style="fill: #708090; stroke: #708090"/>
     <use xlink:href="#m8da024044f" x="201.12536" y="37.883579" style="fill: #708090; stroke: #708090"/>
     <use xlink:href="#m8da024044f" x="268.539785" y="14.899492" style="fill: #708090; stroke: #708090"/>
     <use xlink:href="#m8da024044f" x="335.954211" y="25.048172" style="fill: #708090; stroke: #708090"/>
     <use xlink:href="#m8da024044f" x="403.368637" y="26.152615" style="fill: #708090; stroke: #708090"/>
    </g>
   </g>
   <g id="line2d_17">
    <defs>
     <path id="mdfa903e3c6" d="M 0 1.5 
C 0.397805 1.5 0.77937 1.341951 1.06066 1.06066 
C 1.341951 0.77937 1.5 0.397805 1.5 0 
C 1.5 -0.397805 1.341951 -0.77937 1.06066 -1.06066 
C 0.77937 -1.341951 0.397805 -1.5 0 -1.5 
C -0.397805 -1.5 -0.77937 -1.341951 -1.06066 -1.06066 
C -1.341951 -0.77937 -1.5 -0.397805 -1.5 0 
C -1.5 0.397805 -1.341951 0.77937 -1.06066 1.06066 
C -0.77937 1.341951 -0.397805 1.5 0 1.5 
z
" style="stroke: #000000"/>
    </defs>
    <g clip-path="url(#pfd0e658c76)">
     <use xlink:href="#mdfa903e3c6" x="78.094033" y="37.211848" style="stroke: #000000"/>
     <use xlink:href="#mdfa903e3c6" x="145.508459" y="25.188544" style="stroke: #000000"/>
     <use xlink:href="#mdfa903e3c6" x="212.922884" y="41.178876" style="stroke: #000000"/>
     <use xlink:href="#mdfa903e3c6" x="280.33731" y="20.462544" style="stroke: #000000"/>
     <use xlink:href="#mdfa903e3c6" x="347.751735" y="32.936061" style="stroke: #000000"/>
     <use xlink:href="#mdfa903e3c6" x="415.166161" y="37.155319" style="stroke: #000000"/>
    </g>
   </g>
   <g id="line2d_18">
    <defs>
     <path id="mea4b81effd" d="M 0 1.5 
C 0.397805 1.5 0.77937 1.341951 1.06066 1.06066 
C 1.341951 0.77937 1.5 0.397805 1.5 0 
C 1.5 -0.397805 1.341951 -0.77937 1.06066 -1.06066 
C 0.77937 -1.341951 0.397805 -1.5 0 -1.5 
C -0.397805 -1.5 -0.77937 -1.341951 -1.06066 -1.06066 
C -1.341951 -0.77937 -1.5 -0.397805 -1.5 0 
C -1.5 0.397805 -1.341951 0.77937 -1.06066 1.06066 
C -0.77937 1.341951 -0.397805 1.5 0 1.5 
z
" style="stroke: #696969"/>
    </defs>
    <g clip-path="url(#pfd0e658c76)">
     <use xlink:href="#mea4b81effd" x="54.498984" y="37.211848" style="fill: #696969; stroke: #696969"/>
     <use xlink:href="#mea4b81effd" x="121.91341" y="25.188544" style="fill: #696969; stroke: #696969"/>
     <use xlink:href="#mea4b81effd" x="189.327835" y="41.178876" style="fill: #696969; stroke: #696969"/>
     <use xlink:href="#mea4b81effd" x="256.742261" y="20.462544" style="fill: #696969; stroke: #696969"/>
     <use xlink:href="#mea4b81effd" x="324.156686" y="32.936061" style="fill: #696969; stroke: #696969"/>
     <use xlink:href="#mea4b81effd" x="391.571112" y="37.155319" style="fill: #696969; stroke: #696969"/>
    </g>
   </g>
   <g id="line2d_19">
    <defs>
     <path id="mb15d576d51" d="M 0 1.5 
C 0.397805 1.5 0.77937 1.341951 1.06066 1.06066 
C 1.341951 0.77937 1.5 0.397805 1.5 0 
C 1.5 -0.397805 1.341951 -0.77937 1.06066 -1.06066 
C 0.77937 -1.341951 0.397805 -1.5 0 -1.5 
C -0.397805 -1.5 -0.77937 -1.341951 -1.06066 -1.06066 
C -1.341951 -0.77937 -1.5 -0.397805 -1.5 0 
C -1.5 0.397805 -1.341951 0.77937 -1.06066 1.06066 
C -0.77937 1.341951 -0.397805 1.5 0 1.5 
z
" style="stroke: #708090"/>
    </defs>
    <g clip-path="url(#pfd0e658c76)">
     <use xlink:href="#mb15d576d51" x="66.296508" y="37.211848" style="fill: #708090; stroke: #708090"/>
     <use xlink:href="#mb15d576d51" x="133.710934" y="25.188544" style="fill: #708090; stroke: #708090"/>
     <use xlink:href="#mb15d576d51" x="201.12536" y="41.178876" style="fill: #708090; stroke: #708090"/>
     <use xlink:href="#mb15d576d51" x="268.539785" y="20.462544" style="fill: #708090; stroke: #708090"/>
     <use xlink:href="#mb15d576d51" x="335.954211" y="32.936061" style="fill: #708090; stroke: #708090"/>
     <use xlink:href="#mb15d576d51" x="403.368637" y="37.155319" style="fill: #708090; stroke: #708090"/>
    </g>
   </g>
   <g id="patch_3">
    <path d="M 36.465625 80.521395 
L 36.465625 7.2 
" style="fill: none; stroke: #000000; stroke-width: 0.8; stroke-linejoin: miter; stroke-linecap: square"/>
   </g>
   <g id="patch_4">
    <path d="M 433.19952 80.521395 
L 433.19952 7.2 
" style="fill: none; stroke: #000000; stroke-width: 0.8; stroke-linejoin: miter; stroke-linecap: square"/>
   </g>
   <g id="patch_5">
    <path d="M 36.465625 80.521395 
L 433.19952 80.521395 
" style="fill: none; stroke: #000000; stroke-width: 0.8; stroke-linejoin: miter; stroke-linecap: square"/>
   </g>
   <g id="patch_6">
    <path d="M 36.465625 7.2 
L 433.19952 7.2 
" style="fill: none; stroke: #000000; stroke-width: 0.8; stroke-linejoin: miter; stroke-linecap: square"/>
   </g>
  </g>
  <g id="axes_2">
   <g id="patch_7">
    <path d="M 36.465625 176.521395 
L 433.19952 176.521395 
L 433.19952 103.2 
L 36.465625 103.2 
z
" style="fill: #ffffff"/>
   </g>
   <g id="matplotlib.axis_3">
    <g id="xtick_7">
     <g id="line2d_20">
      <g>
       <use xlink:href="#m78b7634824" x="101.252136" y="176.521395" style="stroke: #000000; stroke-width: 0.8"/>
      </g>
     </g>
     <g id="text_10">
      <!-- 0 -->
      <g transform="translate(98.070886 191.119832)scale(0.1 -0.1)">
       <use xlink:href="#DejaVuSans-30"/>
      </g>
     </g>
    </g>
    <g id="xtick_8">
     <g id="line2d_21">
      <g>
       <use xlink:href="#m78b7634824" x="368.413009" y="176.521395" style="stroke: #000000; stroke-width: 0.8"/>
      </g>
     </g>
     <g id="text_11">
      <!-- 1 -->
      <g transform="translate(365.231759 191.119832)scale(0.1 -0.1)">
       <use xlink:href="#DejaVuSans-31"/>
      </g>
     </g>
    </g>
   </g>
   <g id="matplotlib.axis_4">
    <g id="ytick_4">
     <g id="line2d_22">
      <g>
       <use xlink:href="#m9e3df829ce" x="36.465625" y="170.555569" style="stroke: #000000; stroke-width: 0.8"/>
      </g>
     </g>
     <g id="text_12">
      <!-- 10.0 -->
      <g transform="translate(7.2 174.354788)scale(0.1 -0.1)">
       <use xlink:href="#DejaVuSans-31"/>
       <use xlink:href="#DejaVuSans-30" x="63.623047"/>
       <use xlink:href="#DejaVuSans-2e" x="127.246094"/>
       <use xlink:href="#DejaVuSans-30" x="159.033203"/>
      </g>
     </g>
    </g>
    <g id="ytick_5">
     <g id="line2d_23">
      <g>
       <use xlink:href="#m9e3df829ce" x="36.465625" y="141.935621" style="stroke: #000000; stroke-width: 0.8"/>
      </g>
     </g>
     <g id="text_13">
      <!-- 12.5 -->
      <g transform="translate(7.2 145.73484)scale(0.1 -0.1)">
       <use xlink:href="#DejaVuSans-31"/>
       <use xlink:href="#DejaVuSans-32" x="63.623047"/>
       <use xlink:href="#DejaVuSans-2e" x="127.246094"/>
       <use xlink:href="#DejaVuSans-35" x="159.033203"/>
      </g>
     </g>
    </g>
    <g id="ytick_6">
     <g id="line2d_24">
      <g>
       <use xlink:href="#m9e3df829ce" x="36.465625" y="113.315673" style="stroke: #000000; stroke-width: 0.8"/>
      </g>
     </g>
     <g id="text_14">
      <!-- 15.0 -->
      <g transform="translate(7.2 117.114892)scale(0.1 -0.1)">
       <use xlink:href="#DejaVuSans-31"/>
       <use xlink:href="#DejaVuSans-35" x="63.623047"/>
       <use xlink:href="#DejaVuSans-2e" x="127.246094"/>
       <use xlink:href="#DejaVuSans-30" x="159.033203"/>
      </g>
     </g>
    </g>
   </g>
   <g id="line2d_25">
    <path d="M 36.465625 173.188604 
L 433.19952 173.188604 
" clip-path="url(#pfe4ea78d54)" style="fill: none; stroke-dasharray: 5.55,2.4; stroke-dashoffset: 0; stroke: #000000; stroke-width: 1.5"/>
   </g>
   <g id="LineCollection_4">
    <path d="M 148.005289 137.739108 
L 148.005289 109.160654 
" clip-path="url(#pfe4ea78d54)" style="fill: none; stroke: #000000; stroke-width: 1.5"/>
    <path d="M 415.166161 130.243032 
L 415.166161 106.532791 
" clip-path="url(#pfe4ea78d54)" style="fill: none; stroke: #000000; stroke-width: 1.5"/>
   </g>
   <g id="line2d_26">
    <g clip-path="url(#pfe4ea78d54)">
     <use xlink:href="#m1b2c9552df" x="148.005289" y="137.739108" style="stroke: #000000"/>
     <use xlink:href="#m1b2c9552df" x="415.166161" y="130.243032" style="stroke: #000000"/>
    </g>
   </g>
   <g id="line2d_27">
    <g clip-path="url(#pfe4ea78d54)">
     <use xlink:href="#m1b2c9552df" x="148.005289" y="109.160654" style="stroke: #000000"/>
     <use xlink:href="#m1b2c9552df" x="415.166161" y="106.532791" style="stroke: #000000"/>
    </g>
   </g>
   <g id="LineCollection_5">
    <path d="M 54.498984 127.805826 
L 54.498984 119.093936 
" clip-path="url(#pfe4ea78d54)" style="fill: none; stroke: #696969; stroke-width: 1.5"/>
    <path d="M 321.659856 122.00184 
L 321.659856 114.773982 
" clip-path="url(#pfe4ea78d54)" style="fill: none; stroke: #696969; stroke-width: 1.5"/>
   </g>
   <g id="line2d_28">
    <g clip-path="url(#pfe4ea78d54)">
     <use xlink:href="#m7a6e615c8c" x="54.498984" y="127.805826" style="fill: #696969; stroke: #696969"/>
     <use xlink:href="#m7a6e615c8c" x="321.659856" y="122.00184" style="fill: #696969; stroke: #696969"/>
    </g>
   </g>
   <g id="line2d_29">
    <g clip-path="url(#pfe4ea78d54)">
     <use xlink:href="#m7a6e615c8c" x="54.498984" y="119.093936" style="fill: #696969; stroke: #696969"/>
     <use xlink:href="#m7a6e615c8c" x="321.659856" y="114.773982" style="fill: #696969; stroke: #696969"/>
    </g>
   </g>
   <g id="LineCollection_6">
    <path d="M 101.252136 136.517715 
L 101.252136 110.382047 
" clip-path="url(#pfe4ea78d54)" style="fill: none; stroke: #708090; stroke-width: 1.5"/>
    <path d="M 368.413009 129.229698 
L 368.413009 107.546125 
" clip-path="url(#pfe4ea78d54)" style="fill: none; stroke: #708090; stroke-width: 1.5"/>
   </g>
   <g id="line2d_30">
    <g clip-path="url(#pfe4ea78d54)">
     <use xlink:href="#m8da024044f" x="101.252136" y="136.517715" style="fill: #708090; stroke: #708090"/>
     <use xlink:href="#m8da024044f" x="368.413009" y="129.229698" style="fill: #708090; stroke: #708090"/>
    </g>
   </g>
   <g id="line2d_31">
    <g clip-path="url(#pfe4ea78d54)">
     <use xlink:href="#m8da024044f" x="101.252136" y="110.382047" style="fill: #708090; stroke: #708090"/>
     <use xlink:href="#m8da024044f" x="368.413009" y="107.546125" style="fill: #708090; stroke: #708090"/>
    </g>
   </g>
   <g id="line2d_32">
    <g clip-path="url(#pfe4ea78d54)">
     <use xlink:href="#mdfa903e3c6" x="148.005289" y="123.449881" style="stroke: #000000"/>
     <use xlink:href="#mdfa903e3c6" x="415.166161" y="118.387911" style="stroke: #000000"/>
    </g>
   </g>
   <g id="line2d_33">
    <g clip-path="url(#pfe4ea78d54)">
     <use xlink:href="#mea4b81effd" x="54.498984" y="123.449881" style="fill: #696969; stroke: #696969"/>
     <use xlink:href="#mea4b81effd" x="321.659856" y="118.387911" style="fill: #696969; stroke: #696969"/>
    </g>
   </g>
   <g id="line2d_34">
    <g clip-path="url(#pfe4ea78d54)">
     <use xlink:href="#mb15d576d51" x="101.252136" y="123.449881" style="fill: #708090; stroke: #708090"/>
     <use xlink:href="#mb15d576d51" x="368.413009" y="118.387911" style="fill: #708090; stroke: #708090"/>
    </g>
   </g>
   <g id="patch_8">
    <path d="M 36.465625 176.521395 
L 36.465625 103.2 
" style="fill: none; stroke: #000000; stroke-width: 0.8; stroke-linejoin: miter; stroke-linecap: square"/>
   </g>
   <g id="patch_9">
    <path d="M 433.19952 176.521395 
L 433.19952 103.2 
" style="fill: none; stroke: #000000; stroke-width: 0.8; stroke-linejoin: miter; stroke-linecap: square"/>
   </g>
   <g id="patch_10">
    <path d="M 36.465625 176.521395 
L 433.19952 176.521395 
" style="fill: none; stroke: #000000; stroke-width: 0.8; stroke-linejoin: miter; stroke-linecap: square"/>
   </g>
   <g id="patch_11">
    <path d="M 36.465625 103.2 
L 433.19952 103.2 
" style="fill: none; stroke: #000000; stroke-width: 0.8; stroke-linejoin: miter; stroke-linecap: square"/>
   </g>
  </g>
  <g id="axes_3">
   <g id="patch_12">
    <path d="M 36.465625 272.521395 
L 433.19952 272.521395 
L 433.19952 199.2 
L 36.465625 199.2 
z
" style="fill: #ffffff"/>
   </g>
   <g id="matplotlib.axis_5">
    <g id="xtick_9">
     <g id="line2d_35">
      <g>
       <use xlink:href="#m78b7634824" x="69.956149" y="272.521395" style="stroke: #000000; stroke-width: 0.8"/>
      </g>
     </g>
     <g id="text_15">
      <!-- −0.16 -->
      <g transform="translate(54.633492 287.119832)scale(0.1 -0.1)">
       <defs>
        <path id="DejaVuSans-2212" d="M 678 2272 
L 4684 2272 
L 4684 1741 
L 678 1741 
L 678 2272 
z
" transform="scale(0.015625)"/>
        <path id="DejaVuSans-36" d="M 2113 2584 
Q 1688 2584 1439 2293 
Q 1191 2003 1191 1497 
Q 1191 994 1439 701 
Q 1688 409 2113 409 
Q 2538 409 2786 701 
Q 3034 994 3034 1497 
Q 3034 2003 2786 2293 
Q 2538 2584 2113 2584 
z
M 3366 4563 
L 3366 3988 
Q 3128 4100 2886 4159 
Q 2644 4219 2406 4219 
Q 1781 4219 1451 3797 
Q 1122 3375 1075 2522 
Q 1259 2794 1537 2939 
Q 1816 3084 2150 3084 
Q 2853 3084 3261 2657 
Q 3669 2231 3669 1497 
Q 3669 778 3244 343 
Q 2819 -91 2113 -91 
Q 1303 -91 875 529 
Q 447 1150 447 2328 
Q 447 3434 972 4092 
Q 1497 4750 2381 4750 
Q 2619 4750 2861 4703 
Q 3103 4656 3366 4563 
z
" transform="scale(0.015625)"/>
       </defs>
       <use xlink:href="#DejaVuSans-2212"/>
       <use xlink:href="#DejaVuSans-30" x="83.789062"/>
       <use xlink:href="#DejaVuSans-2e" x="147.412109"/>
       <use xlink:href="#DejaVuSans-31" x="179.199219"/>
       <use xlink:href="#DejaVuSans-36" x="242.822266"/>
      </g>
     </g>
    </g>
    <g id="xtick_10">
     <g id="line2d_36">
      <g>
       <use xlink:href="#m78b7634824" x="111.175255" y="272.521395" style="stroke: #000000; stroke-width: 0.8"/>
      </g>
     </g>
     <g id="text_16">
      <!-- −0.12 -->
      <g transform="translate(95.852598 287.119832)scale(0.1 -0.1)">
       <use xlink:href="#DejaVuSans-2212"/>
       <use xlink:href="#DejaVuSans-30" x="83.789062"/>
       <use xlink:href="#DejaVuSans-2e" x="147.412109"/>
       <use xlink:href="#DejaVuSans-31" x="179.199219"/>
       <use xlink:href="#DejaVuSans-32" x="242.822266"/>
      </g>
     </g>
    </g>
    <g id="xtick_11">
     <g id="line2d_37">
      <g>
       <use xlink:href="#m78b7634824" x="152.394361" y="272.521395" style="stroke: #000000; stroke-width: 0.8"/>
      </g>
     </g>
     <g id="text_17">
      <!-- −0.08 -->
      <g transform="translate(137.071704 287.119832)scale(0.1 -0.1)">
       <defs>
        <path id="DejaVuSans-38" d="M 2034 2216 
Q 1584 2216 1326 1975 
Q 1069 1734 1069 1313 
Q 1069 891 1326 650 
Q 1584 409 2034 409 
Q 2484 409 2743 651 
Q 3003 894 3003 1313 
Q 3003 1734 2745 1975 
Q 2488 2216 2034 2216 
z
M 1403 2484 
Q 997 2584 770 2862 
Q 544 3141 544 3541 
Q 544 4100 942 4425 
Q 1341 4750 2034 4750 
Q 2731 4750 3128 4425 
Q 3525 4100 3525 3541 
Q 3525 3141 3298 2862 
Q 3072 2584 2669 2484 
Q 3125 2378 3379 2068 
Q 3634 1759 3634 1313 
Q 3634 634 3220 271 
Q 2806 -91 2034 -91 
Q 1263 -91 848 271 
Q 434 634 434 1313 
Q 434 1759 690 2068 
Q 947 2378 1403 2484 
z
M 1172 3481 
Q 1172 3119 1398 2916 
Q 1625 2713 2034 2713 
Q 2441 2713 2670 2916 
Q 2900 3119 2900 3481 
Q 2900 3844 2670 4047 
Q 2441 4250 2034 4250 
Q 1625 4250 1398 4047 
Q 1172 3844 1172 3481 
z
" transform="scale(0.015625)"/>
       </defs>
       <use xlink:href="#DejaVuSans-2212"/>
       <use xlink:href="#DejaVuSans-30" x="83.789062"/>
       <use xlink:href="#DejaVuSans-2e" x="147.412109"/>
       <use xlink:href="#DejaVuSans-30" x="179.199219"/>
       <use xlink:href="#DejaVuSans-38" x="242.822266"/>
      </g>
     </g>
    </g>
    <g id="xtick_12">
     <g id="line2d_38">
      <g>
       <use xlink:href="#m78b7634824" x="193.613467" y="272.521395" style="stroke: #000000; stroke-width: 0.8"/>
      </g>
     </g>
     <g id="text_18">
      <!-- −0.04 -->
      <g transform="translate(178.29081 287.119832)scale(0.1 -0.1)">
       <use xlink:href="#DejaVuSans-2212"/>
       <use xlink:href="#DejaVuSans-30" x="83.789062"/>
       <use xlink:href="#DejaVuSans-2e" x="147.412109"/>
       <use xlink:href="#DejaVuSans-30" x="179.199219"/>
       <use xlink:href="#DejaVuSans-34" x="242.822266"/>
      </g>
     </g>
    </g>
    <g id="xtick_13">
     <g id="line2d_39">
      <g>
       <use xlink:href="#m78b7634824" x="234.832573" y="272.521395" style="stroke: #000000; stroke-width: 0.8"/>
      </g>
     </g>
     <g id="text_19">
      <!-- 0.00 -->
      <g transform="translate(223.69976 287.119832)scale(0.1 -0.1)">
       <use xlink:href="#DejaVuSans-30"/>
       <use xlink:href="#DejaVuSans-2e" x="63.623047"/>
       <use xlink:href="#DejaVuSans-30" x="95.410156"/>
       <use xlink:href="#DejaVuSans-30" x="159.033203"/>
      </g>
     </g>
    </g>
    <g id="xtick_14">
     <g id="line2d_40">
      <g>
       <use xlink:href="#m78b7634824" x="276.051678" y="272.521395" style="stroke: #000000; stroke-width: 0.8"/>
      </g>
     </g>
     <g id="text_20">
      <!-- 0.04 -->
      <g transform="translate(264.918866 287.119832)scale(0.1 -0.1)">
       <use xlink:href="#DejaVuSans-30"/>
       <use xlink:href="#DejaVuSans-2e" x="63.623047"/>
       <use xlink:href="#DejaVuSans-30" x="95.410156"/>
       <use xlink:href="#DejaVuSans-34" x="159.033203"/>
      </g>
     </g>
    </g>
    <g id="xtick_15">
     <g id="line2d_41">
      <g>
       <use xlink:href="#m78b7634824" x="317.270784" y="272.521395" style="stroke: #000000; stroke-width: 0.8"/>
      </g>
     </g>
     <g id="text_21">
      <!-- 0.08 -->
      <g transform="translate(306.137972 287.119832)scale(0.1 -0.1)">
       <use xlink:href="#DejaVuSans-30"/>
       <use xlink:href="#DejaVuSans-2e" x="63.623047"/>
       <use xlink:href="#DejaVuSans-30" x="95.410156"/>
       <use xlink:href="#DejaVuSans-38" x="159.033203"/>
      </g>
     </g>
    </g>
    <g id="xtick_16">
     <g id="line2d_42">
      <g>
       <use xlink:href="#m78b7634824" x="358.48989" y="272.521395" style="stroke: #000000; stroke-width: 0.8"/>
      </g>
     </g>
     <g id="text_22">
      <!-- 0.12 -->
      <g transform="translate(347.357078 287.119832)scale(0.1 -0.1)">
       <use xlink:href="#DejaVuSans-30"/>
       <use xlink:href="#DejaVuSans-2e" x="63.623047"/>
       <use xlink:href="#DejaVuSans-31" x="95.410156"/>
       <use xlink:href="#DejaVuSans-32" x="159.033203"/>
      </g>
     </g>
    </g>
    <g id="xtick_17">
     <g id="line2d_43">
      <g>
       <use xlink:href="#m78b7634824" x="399.708996" y="272.521395" style="stroke: #000000; stroke-width: 0.8"/>
      </g>
     </g>
     <g id="text_23">
      <!-- 0.16 -->
      <g transform="translate(388.576184 287.119832)scale(0.1 -0.1)">
       <use xlink:href="#DejaVuSans-30"/>
       <use xlink:href="#DejaVuSans-2e" x="63.623047"/>
       <use xlink:href="#DejaVuSans-31" x="95.410156"/>
       <use xlink:href="#DejaVuSans-36" x="159.033203"/>
      </g>
     </g>
    </g>
   </g>
   <g id="matplotlib.axis_6">
    <g id="ytick_7">
     <g id="line2d_44">
      <g>
       <use xlink:href="#m9e3df829ce" x="36.465625" y="266.508519" style="stroke: #000000; stroke-width: 0.8"/>
      </g>
     </g>
     <g id="text_24">
      <!-- 10.0 -->
      <g transform="translate(7.2 270.307738)scale(0.1 -0.1)">
       <use xlink:href="#DejaVuSans-31"/>
       <use xlink:href="#DejaVuSans-30" x="63.623047"/>
       <use xlink:href="#DejaVuSans-2e" x="127.246094"/>
       <use xlink:href="#DejaVuSans-30" x="159.033203"/>
      </g>
     </g>
    </g>
    <g id="ytick_8">
     <g id="line2d_45">
      <g>
       <use xlink:href="#m9e3df829ce" x="36.465625" y="237.377154" style="stroke: #000000; stroke-width: 0.8"/>
      </g>
     </g>
     <g id="text_25">
      <!-- 12.5 -->
      <g transform="translate(7.2 241.176373)scale(0.1 -0.1)">
       <use xlink:href="#DejaVuSans-31"/>
       <use xlink:href="#DejaVuSans-32" x="63.623047"/>
       <use xlink:href="#DejaVuSans-2e" x="127.246094"/>
       <use xlink:href="#DejaVuSans-35" x="159.033203"/>
      </g>
     </g>
    </g>
    <g id="ytick_9">
     <g id="line2d_46">
      <g>
       <use xlink:href="#m9e3df829ce" x="36.465625" y="208.24579" style="stroke: #000000; stroke-width: 0.8"/>
      </g>
     </g>
     <g id="text_26">
      <!-- 15.0 -->
      <g transform="translate(7.2 212.045009)scale(0.1 -0.1)">
       <use xlink:href="#DejaVuSans-31"/>
       <use xlink:href="#DejaVuSans-35" x="63.623047"/>
       <use xlink:href="#DejaVuSans-2e" x="127.246094"/>
       <use xlink:href="#DejaVuSans-30" x="159.033203"/>
      </g>
     </g>
    </g>
   </g>
   <g id="line2d_47">
    <path d="M 36.465625 269.188604 
L 433.19952 269.188604 
" clip-path="url(#pb80bed3dd4)" style="fill: none; stroke-dasharray: 5.55,2.4; stroke-dashoffset: 0; stroke: #000000; stroke-width: 1.5"/>
   </g>
   <g id="LineCollection_7">
    <path d="M 415.166161 229.436962 
L 415.166161 202.532791 
" clip-path="url(#pb80bed3dd4)" style="fill: none; stroke: #000000; stroke-width: 1.5"/>
   </g>
   <g id="line2d_48">
    <g clip-path="url(#pb80bed3dd4)">
     <use xlink:href="#m1b2c9552df" x="415.166161" y="229.436962" style="stroke: #000000"/>
    </g>
   </g>
   <g id="line2d_49">
    <g clip-path="url(#pb80bed3dd4)">
     <use xlink:href="#m1b2c9552df" x="415.166161" y="202.532791" style="stroke: #000000"/>
    </g>
   </g>
   <g id="LineCollection_8">
    <path d="M 54.498984 220.085626 
L 54.498984 211.884127 
" clip-path="url(#pb80bed3dd4)" style="fill: none; stroke: #696969; stroke-width: 1.5"/>
   </g>
   <g id="line2d_50">
    <g clip-path="url(#pb80bed3dd4)">
     <use xlink:href="#m7a6e615c8c" x="54.498984" y="220.085626" style="fill: #696969; stroke: #696969"/>
    </g>
   </g>
   <g id="line2d_51">
    <g clip-path="url(#pb80bed3dd4)">
     <use xlink:href="#m7a6e615c8c" x="54.498984" y="211.884127" style="fill: #696969; stroke: #696969"/>
    </g>
   </g>
   <g id="LineCollection_9">
    <path d="M 234.832573 228.287125 
L 234.832573 203.682628 
" clip-path="url(#pb80bed3dd4)" style="fill: none; stroke: #708090; stroke-width: 1.5"/>
   </g>
   <g id="line2d_52">
    <g clip-path="url(#pb80bed3dd4)">
     <use xlink:href="#m8da024044f" x="234.832573" y="228.287125" style="fill: #708090; stroke: #708090"/>
    </g>
   </g>
   <g id="line2d_53">
    <g clip-path="url(#pb80bed3dd4)">
     <use xlink:href="#m8da024044f" x="234.832573" y="203.682628" style="fill: #708090; stroke: #708090"/>
    </g>
   </g>
   <g id="line2d_54">
    <g clip-path="url(#pb80bed3dd4)">
     <use xlink:href="#mdfa903e3c6" x="415.166161" y="215.984876" style="stroke: #000000"/>
    </g>
   </g>
   <g id="line2d_55">
    <g clip-path="url(#pb80bed3dd4)">
     <use xlink:href="#mea4b81effd" x="54.498984" y="215.984876" style="fill: #696969; stroke: #696969"/>
    </g>
   </g>
   <g id="line2d_56">
    <g clip-path="url(#pb80bed3dd4)">
     <use xlink:href="#mb15d576d51" x="234.832573" y="215.984876" style="fill: #708090; stroke: #708090"/>
    </g>
   </g>
   <g id="patch_13">
    <path d="M 36.465625 272.521395 
L 36.465625 199.2 
" style="fill: none; stroke: #000000; stroke-width: 0.8; stroke-linejoin: miter; stroke-linecap: square"/>
   </g>
   <g id="patch_14">
    <path d="M 433.19952 272.521395 
L 433.19952 199.2 
" style="fill: none; stroke: #000000; stroke-width: 0.8; stroke-linejoin: miter; stroke-linecap: square"/>
   </g>
   <g id="patch_15">
    <path d="M 36.465625 272.521395 
L 433.19952 272.521395 
" style="fill: none; stroke: #000000; stroke-width: 0.8; stroke-linejoin: miter; stroke-linecap: square"/>
   </g>
   <g id="patch_16">
    <path d="M 36.465625 199.2 
L 433.19952 199.2 
" style="fill: none; stroke: #000000; stroke-width: 0.8; stroke-linejoin: miter; stroke-linecap: square"/>
   </g>
  </g>
 </g>
 <defs>
  <clipPath id="pfd0e658c76">
   <rect x="36.465625" y="7.2" width="396.733895" height="73.321395"/>
  </clipPath>
  <clipPath id="pfe4ea78d54">
   <rect x="36.465625" y="103.2" width="396.733895" height="73.321395"/>
  </clipPath>
  <clipPath id="pb80bed3dd4">
   <rect x="36.465625" y="199.2" width="396.733895" height="73.321395"/>
  </clipPath>
 </defs>
</svg>
