<?xml version="1.0" encoding="utf-8" standalone="no"?>
<!DOCTYPE svg PUBLIC "-//W3C//DTD SVG 1.1//EN"
  "http://www.w3.org/Graphics/SVG/1.1/DTD/svg11.dtd">
<svg xmlns:xlink="http://www.w3.org/1999/xlink" width="440.39952pt" height="293.974682pt" viewBox="0 0 440.39952 293.974682" xmlns="http://www.w3.org/2000/svg" version="1.1">
 <metadata>
  <rdf:RDF xmlns:dc="http://purl.org/dc/elements/1.1/" xmlns:cc="http://creativecommons.org/ns#" xmlns:rdf="http://www.w3.org/1999/02/22-rdf-syntax-ns#">
   <cc:Work>
    <dc:type rdf:resource="http://purl.org/dc/dcmitype/StillImage"/>
    <dc:date>2021-12-11T22:19:45.425204</dc:date>
    <dc:format>image/svg+xml</dc:format>
    <dc:creator>
     <cc:Agent>
      <dc:title>Matplotlib v3.5.0, https://matplotlib.org/</dc:title>
     </cc:Agent>
    </dc:creator>
   </cc:Work>
  </rdf:RDF>
 </metadata>
 <defs>
  <style type="text/css">*{stroke-linejoin: round; stroke-linecap: butt}</style>
 </defs>
 <g id="figure_1">
  <g id="patch_1">
   <path d="M 0 293.974682 
L 440.39952 293.974682 
L 440.39952 0 
L 0 0 
L 0 293.974682 
z
" style="fill: none"/>
  </g>
  <g id="axes_1">
   <g id="patch_2">
    <path d="M 28.942187 270.096557 
L 150.785978 270.096557 
L 150.785978 8.051856 
L 28.942187 8.051856 
z
" style="fill: #ffffff"/>
   </g>
   <g id="matplotlib.axis_1">
    <g id="xtick_1">
     <g id="line2d_1">
      <path d="M 38.103764 270.096557 
L 38.103764 8.051856 
" clip-path="url(#p87fa60240c)" style="fill: none; stroke: #b0b0b0; stroke-width: 0.8; stroke-linecap: square"/>
     </g>
     <g id="line2d_2">
      <defs>
       <path id="ma8d2ae9ac6" d="M 0 0 
L 0 3.5 
" style="stroke: #000000; stroke-width: 0.8"/>
      </defs>
      <g>
       <use xlink:href="#ma8d2ae9ac6" x="38.103764" y="270.096557" style="stroke: #000000; stroke-width: 0.8"/>
      </g>
     </g>
     <g id="text_1">
      <!-- 0 -->
      <g transform="translate(34.922514 284.694995)scale(0.1 -0.1)">
       <defs>
        <path id="DejaVuSans-30" d="M 2034 4250 
Q 1547 4250 1301 3770 
Q 1056 3291 1056 2328 
Q 1056 1369 1301 889 
Q 1547 409 2034 409 
Q 2525 409 2770 889 
Q 3016 1369 3016 2328 
Q 3016 3291 2770 3770 
Q 2525 4250 2034 4250 
z
M 2034 4750 
Q 2819 4750 3233 4129 
Q 3647 3509 3647 2328 
Q 3647 1150 3233 529 
Q 2819 -91 2034 -91 
Q 1250 -91 836 529 
Q 422 1150 422 2328 
Q 422 3509 836 4129 
Q 1250 4750 2034 4750 
z
" transform="scale(0.015625)"/>
       </defs>
       <use xlink:href="#DejaVuSans-30"/>
      </g>
     </g>
    </g>
    <g id="xtick_2">
     <g id="line2d_3">
      <path d="M 79.512019 270.096557 
L 79.512019 8.051856 
" clip-path="url(#p87fa60240c)" style="fill: none; stroke: #b0b0b0; stroke-width: 0.8; stroke-linecap: square"/>
     </g>
     <g id="line2d_4">
      <g>
       <use xlink:href="#ma8d2ae9ac6" x="79.512019" y="270.096557" style="stroke: #000000; stroke-width: 0.8"/>
      </g>
     </g>
     <g id="text_2">
      <!-- 2 -->
      <g transform="translate(76.330769 284.694995)scale(0.1 -0.1)">
       <defs>
        <path id="DejaVuSans-32" d="M 1228 531 
L 3431 531 
L 3431 0 
L 469 0 
L 469 531 
Q 828 903 1448 1529 
Q 2069 2156 2228 2338 
Q 2531 2678 2651 2914 
Q 2772 3150 2772 3378 
Q 2772 3750 2511 3984 
Q 2250 4219 1831 4219 
Q 1534 4219 1204 4116 
Q 875 4013 500 3803 
L 500 4441 
Q 881 4594 1212 4672 
Q 1544 4750 1819 4750 
Q 2544 4750 2975 4387 
Q 3406 4025 3406 3419 
Q 3406 3131 3298 2873 
Q 3191 2616 2906 2266 
Q 2828 2175 2409 1742 
Q 1991 1309 1228 531 
z
" transform="scale(0.015625)"/>
       </defs>
       <use xlink:href="#DejaVuSans-32"/>
      </g>
     </g>
    </g>
    <g id="xtick_3">
     <g id="line2d_5">
      <path d="M 120.920274 270.096557 
L 120.920274 8.051856 
" clip-path="url(#p87fa60240c)" style="fill: none; stroke: #b0b0b0; stroke-width: 0.8; stroke-linecap: square"/>
     </g>
     <g id="line2d_6">
      <g>
       <use xlink:href="#ma8d2ae9ac6" x="120.920274" y="270.096557" style="stroke: #000000; stroke-width: 0.8"/>
      </g>
     </g>
     <g id="text_3">
      <!-- 4 -->
      <g transform="translate(117.739024 284.694995)scale(0.1 -0.1)">
       <defs>
        <path id="DejaVuSans-34" d="M 2419 4116 
L 825 1625 
L 2419 1625 
L 2419 4116 
z
M 2253 4666 
L 3047 4666 
L 3047 1625 
L 3713 1625 
L 3713 1100 
L 3047 1100 
L 3047 0 
L 2419 0 
L 2419 1100 
L 313 1100 
L 313 1709 
L 2253 4666 
z
" transform="scale(0.015625)"/>
       </defs>
       <use xlink:href="#DejaVuSans-34"/>
      </g>
     </g>
    </g>
   </g>
   <g id="matplotlib.axis_2">
    <g id="ytick_1">
     <g id="line2d_7">
      <path d="M 28.942187 256.056525 
L 150.785978 256.056525 
" clip-path="url(#p87fa60240c)" style="fill: none; stroke: #b0b0b0; stroke-width: 0.8; stroke-linecap: square"/>
     </g>
     <g id="line2d_8">
      <defs>
       <path id="m84b513fdb7" d="M 0 0 
L -3.5 0 
" style="stroke: #000000; stroke-width: 0.8"/>
      </defs>
      <g>
       <use xlink:href="#m84b513fdb7" x="28.942187" y="256.056525" style="stroke: #000000; stroke-width: 0.8"/>
      </g>
     </g>
     <g id="text_4">
      <!-- −2 -->
      <g transform="translate(7.2 259.855744)scale(0.1 -0.1)">
       <defs>
        <path id="DejaVuSans-2212" d="M 678 2272 
L 4684 2272 
L 4684 1741 
L 678 1741 
L 678 2272 
z
" transform="scale(0.015625)"/>
       </defs>
       <use xlink:href="#DejaVuSans-2212"/>
       <use xlink:href="#DejaVuSans-32" x="83.789062"/>
      </g>
     </g>
    </g>
    <g id="ytick_2">
     <g id="line2d_9">
      <path d="M 28.942187 214.64827 
L 150.785978 214.64827 
" clip-path="url(#p87fa60240c)" style="fill: none; stroke: #b0b0b0; stroke-width: 0.8; stroke-linecap: square"/>
     </g>
     <g id="line2d_10">
      <g>
       <use xlink:href="#m84b513fdb7" x="28.942187" y="214.64827" style="stroke: #000000; stroke-width: 0.8"/>
      </g>
     </g>
     <g id="text_5">
      <!-- 0 -->
      <g transform="translate(15.579687 218.447488)scale(0.1 -0.1)">
       <use xlink:href="#DejaVuSans-30"/>
      </g>
     </g>
    </g>
    <g id="ytick_3">
     <g id="line2d_11">
      <path d="M 28.942187 173.240015 
L 150.785978 173.240015 
" clip-path="url(#p87fa60240c)" style="fill: none; stroke: #b0b0b0; stroke-width: 0.8; stroke-linecap: square"/>
     </g>
     <g id="line2d_12">
      <g>
       <use xlink:href="#m84b513fdb7" x="28.942187" y="173.240015" style="stroke: #000000; stroke-width: 0.8"/>
      </g>
     </g>
     <g id="text_6">
      <!-- 2 -->
      <g transform="translate(15.579687 177.039233)scale(0.1 -0.1)">
       <use xlink:href="#DejaVuSans-32"/>
      </g>
     </g>
    </g>
    <g id="ytick_4">
     <g id="line2d_13">
      <path d="M 28.942187 131.831759 
L 150.785978 131.831759 
" clip-path="url(#p87fa60240c)" style="fill: none; stroke: #b0b0b0; stroke-width: 0.8; stroke-linecap: square"/>
     </g>
     <g id="line2d_14">
      <g>
       <use xlink:href="#m84b513fdb7" x="28.942187" y="131.831759" style="stroke: #000000; stroke-width: 0.8"/>
      </g>
     </g>
     <g id="text_7">
      <!-- 4 -->
      <g transform="translate(15.579687 135.630978)scale(0.1 -0.1)">
       <use xlink:href="#DejaVuSans-34"/>
      </g>
     </g>
    </g>
    <g id="ytick_5">
     <g id="line2d_15">
      <path d="M 28.942187 90.423504 
L 150.785978 90.423504 
" clip-path="url(#p87fa60240c)" style="fill: none; stroke: #b0b0b0; stroke-width: 0.8; stroke-linecap: square"/>
     </g>
     <g id="line2d_16">
      <g>
       <use xlink:href="#m84b513fdb7" x="28.942187" y="90.423504" style="stroke: #000000; stroke-width: 0.8"/>
      </g>
     </g>
     <g id="text_8">
      <!-- 6 -->
      <g transform="translate(15.579687 94.222723)scale(0.1 -0.1)">
       <defs>
        <path id="DejaVuSans-36" d="M 2113 2584 
Q 1688 2584 1439 2293 
Q 1191 2003 1191 1497 
Q 1191 994 1439 701 
Q 1688 409 2113 409 
Q 2538 409 2786 701 
Q 3034 994 3034 1497 
Q 3034 2003 2786 2293 
Q 2538 2584 2113 2584 
z
M 3366 4563 
L 3366 3988 
Q 3128 4100 2886 4159 
Q 2644 4219 2406 4219 
Q 1781 4219 1451 3797 
Q 1122 3375 1075 2522 
Q 1259 2794 1537 2939 
Q 1816 3084 2150 3084 
Q 2853 3084 3261 2657 
Q 3669 2231 3669 1497 
Q 3669 778 3244 343 
Q 2819 -91 2113 -91 
Q 1303 -91 875 529 
Q 447 1150 447 2328 
Q 447 3434 972 4092 
Q 1497 4750 2381 4750 
Q 2619 4750 2861 4703 
Q 3103 4656 3366 4563 
z
" transform="scale(0.015625)"/>
       </defs>
       <use xlink:href="#DejaVuSans-36"/>
      </g>
     </g>
    </g>
    <g id="ytick_6">
     <g id="line2d_17">
      <path d="M 28.942187 49.015249 
L 150.785978 49.015249 
" clip-path="url(#p87fa60240c)" style="fill: none; stroke: #b0b0b0; stroke-width: 0.8; stroke-linecap: square"/>
     </g>
     <g id="line2d_18">
      <g>
       <use xlink:href="#m84b513fdb7" x="28.942187" y="49.015249" style="stroke: #000000; stroke-width: 0.8"/>
      </g>
     </g>
     <g id="text_9">
      <!-- 8 -->
      <g transform="translate(15.579687 52.814468)scale(0.1 -0.1)">
       <defs>
        <path id="DejaVuSans-38" d="M 2034 2216 
Q 1584 2216 1326 1975 
Q 1069 1734 1069 1313 
Q 1069 891 1326 650 
Q 1584 409 2034 409 
Q 2484 409 2743 651 
Q 3003 894 3003 1313 
Q 3003 1734 2745 1975 
Q 2488 2216 2034 2216 
z
M 1403 2484 
Q 997 2584 770 2862 
Q 544 3141 544 3541 
Q 544 4100 942 4425 
Q 1341 4750 2034 4750 
Q 2731 4750 3128 4425 
Q 3525 4100 3525 3541 
Q 3525 3141 3298 2862 
Q 3072 2584 2669 2484 
Q 3125 2378 3379 2068 
Q 3634 1759 3634 1313 
Q 3634 634 3220 271 
Q 2806 -91 2034 -91 
Q 1263 -91 848 271 
Q 434 634 434 1313 
Q 434 1759 690 2068 
Q 947 2378 1403 2484 
z
M 1172 3481 
Q 1172 3119 1398 2916 
Q 1625 2713 2034 2713 
Q 2441 2713 2670 2916 
Q 2900 3119 2900 3481 
Q 2900 3844 2670 4047 
Q 2441 4250 2034 4250 
Q 1625 4250 1398 4047 
Q 1172 3844 1172 3481 
z
" transform="scale(0.015625)"/>
       </defs>
       <use xlink:href="#DejaVuSans-38"/>
      </g>
     </g>
    </g>
   </g>
   <g id="patch_3">
    <path d="M 34.480542 214.64827 
L 41.726986 214.64827 
L 41.726986 83.59413 
L 34.480542 83.59413 
z
" clip-path="url(#p87fa60240c)" style="fill: #dcdcdc; stroke: #000000; stroke-linejoin: miter"/>
   </g>
   <g id="patch_4">
    <path d="M 55.184669 214.64827 
L 62.431114 214.64827 
L 62.431114 82.455488 
L 55.184669 82.455488 
z
" clip-path="url(#p87fa60240c)" style="fill: #dcdcdc; stroke: #000000; stroke-linejoin: miter"/>
   </g>
   <g id="patch_5">
    <path d="M 75.888797 214.64827 
L 83.135241 214.64827 
L 83.135241 75.67286 
L 75.888797 75.67286 
z
" clip-path="url(#p87fa60240c)" style="fill: #dcdcdc; stroke: #000000; stroke-linejoin: miter"/>
   </g>
   <g id="patch_6">
    <path d="M 96.592924 214.64827 
L 103.839369 214.64827 
L 103.839369 85.846802 
L 96.592924 85.846802 
z
" clip-path="url(#p87fa60240c)" style="fill: #dcdcdc; stroke: #000000; stroke-linejoin: miter"/>
   </g>
   <g id="patch_7">
    <path d="M 117.297052 214.64827 
L 124.543497 214.64827 
L 124.543497 90.938569 
L 117.297052 90.938569 
z
" clip-path="url(#p87fa60240c)" style="fill: #dcdcdc; stroke: #000000; stroke-linejoin: miter"/>
   </g>
   <g id="patch_8">
    <path d="M 138.00118 214.64827 
L 145.247624 214.64827 
L 145.247624 85.846802 
L 138.00118 85.846802 
z
" clip-path="url(#p87fa60240c)" style="fill: #dcdcdc; stroke: #000000; stroke-linejoin: miter"/>
   </g>
   <g id="LineCollection_1">
    <path d="M 41.726986 89.68645 
L 41.726986 77.50181 
" clip-path="url(#p87fa60240c)" style="fill: none; stroke: #000000; stroke-width: 1.5"/>
    <path d="M 62.431114 86.51771 
L 62.431114 78.393265 
" clip-path="url(#p87fa60240c)" style="fill: none; stroke: #000000; stroke-width: 1.5"/>
    <path d="M 83.135241 80.648046 
L 83.135241 70.697673 
" clip-path="url(#p87fa60240c)" style="fill: none; stroke: #000000; stroke-width: 1.5"/>
    <path d="M 103.839369 85.846802 
L 103.839369 85.846802 
" clip-path="url(#p87fa60240c)" style="fill: none; stroke: #000000; stroke-width: 1.5"/>
    <path d="M 124.543497 97.037649 
L 124.543497 84.839489 
" clip-path="url(#p87fa60240c)" style="fill: none; stroke: #000000; stroke-width: 1.5"/>
    <path d="M 145.247624 85.846802 
L 145.247624 85.846802 
" clip-path="url(#p87fa60240c)" style="fill: none; stroke: #000000; stroke-width: 1.5"/>
   </g>
   <g id="line2d_19">
    <defs>
     <path id="m2ecea9cf2b" d="M 1.5 0 
L -1.5 -0 
" style="stroke: #000000"/>
    </defs>
    <g clip-path="url(#p87fa60240c)">
     <use xlink:href="#m2ecea9cf2b" x="41.726986" y="89.68645" style="stroke: #000000"/>
     <use xlink:href="#m2ecea9cf2b" x="62.431114" y="86.51771" style="stroke: #000000"/>
     <use xlink:href="#m2ecea9cf2b" x="83.135241" y="80.648046" style="stroke: #000000"/>
     <use xlink:href="#m2ecea9cf2b" x="103.839369" y="85.846802" style="stroke: #000000"/>
     <use xlink:href="#m2ecea9cf2b" x="124.543497" y="97.037649" style="stroke: #000000"/>
     <use xlink:href="#m2ecea9cf2b" x="145.247624" y="85.846802" style="stroke: #000000"/>
    </g>
   </g>
   <g id="line2d_20">
    <g clip-path="url(#p87fa60240c)">
     <use xlink:href="#m2ecea9cf2b" x="41.726986" y="77.50181" style="stroke: #000000"/>
     <use xlink:href="#m2ecea9cf2b" x="62.431114" y="78.393265" style="stroke: #000000"/>
     <use xlink:href="#m2ecea9cf2b" x="83.135241" y="70.697673" style="stroke: #000000"/>
     <use xlink:href="#m2ecea9cf2b" x="103.839369" y="85.846802" style="stroke: #000000"/>
     <use xlink:href="#m2ecea9cf2b" x="124.543497" y="84.839489" style="stroke: #000000"/>
     <use xlink:href="#m2ecea9cf2b" x="145.247624" y="85.846802" style="stroke: #000000"/>
    </g>
   </g>
   <g id="LineCollection_2">
    <path d="M 34.480542 85.45132 
L 34.480542 81.73694 
" clip-path="url(#p87fa60240c)" style="fill: none; stroke: #ff0000; stroke-width: 1.5"/>
    <path d="M 55.184669 83.69382 
L 55.184669 81.217155 
" clip-path="url(#p87fa60240c)" style="fill: none; stroke: #ff0000; stroke-width: 1.5"/>
    <path d="M 75.888797 77.189502 
L 75.888797 74.156218 
" clip-path="url(#p87fa60240c)" style="fill: none; stroke: #ff0000; stroke-width: 1.5"/>
    <path d="M 96.592924 85.846802 
L 96.592924 85.846802 
" clip-path="url(#p87fa60240c)" style="fill: none; stroke: #ff0000; stroke-width: 1.5"/>
    <path d="M 117.297052 92.79782 
L 117.297052 89.079319 
" clip-path="url(#p87fa60240c)" style="fill: none; stroke: #ff0000; stroke-width: 1.5"/>
    <path d="M 138.00118 85.846802 
L 138.00118 85.846802 
" clip-path="url(#p87fa60240c)" style="fill: none; stroke: #ff0000; stroke-width: 1.5"/>
   </g>
   <g id="line2d_21">
    <defs>
     <path id="m83623e3bb8" d="M 1.5 0 
L -1.5 -0 
" style="stroke: #ff0000"/>
    </defs>
    <g clip-path="url(#p87fa60240c)">
     <use xlink:href="#m83623e3bb8" x="34.480542" y="85.45132" style="fill: #ff0000; stroke: #ff0000"/>
     <use xlink:href="#m83623e3bb8" x="55.184669" y="83.69382" style="fill: #ff0000; stroke: #ff0000"/>
     <use xlink:href="#m83623e3bb8" x="75.888797" y="77.189502" style="fill: #ff0000; stroke: #ff0000"/>
     <use xlink:href="#m83623e3bb8" x="96.592924" y="85.846802" style="fill: #ff0000; stroke: #ff0000"/>
     <use xlink:href="#m83623e3bb8" x="117.297052" y="92.79782" style="fill: #ff0000; stroke: #ff0000"/>
     <use xlink:href="#m83623e3bb8" x="138.00118" y="85.846802" style="fill: #ff0000; stroke: #ff0000"/>
    </g>
   </g>
   <g id="line2d_22">
    <g clip-path="url(#p87fa60240c)">
     <use xlink:href="#m83623e3bb8" x="34.480542" y="81.73694" style="fill: #ff0000; stroke: #ff0000"/>
     <use xlink:href="#m83623e3bb8" x="55.184669" y="81.217155" style="fill: #ff0000; stroke: #ff0000"/>
     <use xlink:href="#m83623e3bb8" x="75.888797" y="74.156218" style="fill: #ff0000; stroke: #ff0000"/>
     <use xlink:href="#m83623e3bb8" x="96.592924" y="85.846802" style="fill: #ff0000; stroke: #ff0000"/>
     <use xlink:href="#m83623e3bb8" x="117.297052" y="89.079319" style="fill: #ff0000; stroke: #ff0000"/>
     <use xlink:href="#m83623e3bb8" x="138.00118" y="85.846802" style="fill: #ff0000; stroke: #ff0000"/>
    </g>
   </g>
   <g id="LineCollection_3">
    <path d="M 38.103764 89.1657 
L 38.103764 78.02256 
" clip-path="url(#p87fa60240c)" style="fill: none; stroke: #0000ff; stroke-width: 1.5"/>
    <path d="M 58.807892 86.170486 
L 58.807892 78.740489 
" clip-path="url(#p87fa60240c)" style="fill: none; stroke: #0000ff; stroke-width: 1.5"/>
    <path d="M 79.512019 80.222785 
L 79.512019 71.122935 
" clip-path="url(#p87fa60240c)" style="fill: none; stroke: #0000ff; stroke-width: 1.5"/>
    <path d="M 100.216147 85.846802 
L 100.216147 85.846802 
" clip-path="url(#p87fa60240c)" style="fill: none; stroke: #0000ff; stroke-width: 1.5"/>
    <path d="M 120.920274 96.516321 
L 120.920274 85.360817 
" clip-path="url(#p87fa60240c)" style="fill: none; stroke: #0000ff; stroke-width: 1.5"/>
    <path d="M 141.624402 85.846802 
L 141.624402 85.846802 
" clip-path="url(#p87fa60240c)" style="fill: none; stroke: #0000ff; stroke-width: 1.5"/>
   </g>
   <g id="line2d_23">
    <defs>
     <path id="m7e8ecd44f7" d="M 1.5 0 
L -1.5 -0 
" style="stroke: #0000ff"/>
    </defs>
    <g clip-path="url(#p87fa60240c)">
     <use xlink:href="#m7e8ecd44f7" x="38.103764" y="89.1657" style="fill: #0000ff; stroke: #0000ff"/>
     <use xlink:href="#m7e8ecd44f7" x="58.807892" y="86.170486" style="fill: #0000ff; stroke: #0000ff"/>
     <use xlink:href="#m7e8ecd44f7" x="79.512019" y="80.222785" style="fill: #0000ff; stroke: #0000ff"/>
     <use xlink:href="#m7e8ecd44f7" x="100.216147" y="85.846802" style="fill: #0000ff; stroke: #0000ff"/>
     <use xlink:href="#m7e8ecd44f7" x="120.920274" y="96.516321" style="fill: #0000ff; stroke: #0000ff"/>
     <use xlink:href="#m7e8ecd44f7" x="141.624402" y="85.846802" style="fill: #0000ff; stroke: #0000ff"/>
    </g>
   </g>
   <g id="line2d_24">
    <g clip-path="url(#p87fa60240c)">
     <use xlink:href="#m7e8ecd44f7" x="38.103764" y="78.02256" style="fill: #0000ff; stroke: #0000ff"/>
     <use xlink:href="#m7e8ecd44f7" x="58.807892" y="78.740489" style="fill: #0000ff; stroke: #0000ff"/>
     <use xlink:href="#m7e8ecd44f7" x="79.512019" y="71.122935" style="fill: #0000ff; stroke: #0000ff"/>
     <use xlink:href="#m7e8ecd44f7" x="100.216147" y="85.846802" style="fill: #0000ff; stroke: #0000ff"/>
     <use xlink:href="#m7e8ecd44f7" x="120.920274" y="85.360817" style="fill: #0000ff; stroke: #0000ff"/>
     <use xlink:href="#m7e8ecd44f7" x="141.624402" y="85.846802" style="fill: #0000ff; stroke: #0000ff"/>
    </g>
   </g>
   <g id="line2d_25">
    <defs>
     <path id="m5a1f27f040" d="M 0 3 
C 0.795609 3 1.55874 2.683901 2.12132 2.12132 
C 2.683901 1.55874 3 0.795609 3 0 
C 3 -0.795609 2.683901 -1.55874 2.12132 -2.12132 
C 1.55874 -2.683901 0.795609 -3 0 -3 
C -0.795609 -3 -1.55874 -2.683901 -2.12132 -2.12132 
C -2.683901 -1.55874 -3 -0.795609 -3 0 
C -3 0.795609 -2.683901 1.55874 -2.12132 2.12132 
C -1.55874 2.683901 -0.795609 3 0 3 
z
" style="stroke: #000000"/>
    </defs>
    <g clip-path="url(#p87fa60240c)">
     <use xlink:href="#m5a1f27f040" x="41.726986" y="83.59413" style="stroke: #000000"/>
     <use xlink:href="#m5a1f27f040" x="62.431114" y="82.455488" style="stroke: #000000"/>
     <use xlink:href="#m5a1f27f040" x="83.135241" y="75.67286" style="stroke: #000000"/>
     <use xlink:href="#m5a1f27f040" x="103.839369" y="85.846802" style="stroke: #000000"/>
     <use xlink:href="#m5a1f27f040" x="124.543497" y="90.938569" style="stroke: #000000"/>
     <use xlink:href="#m5a1f27f040" x="145.247624" y="85.846802" style="stroke: #000000"/>
    </g>
   </g>
   <g id="line2d_26">
    <defs>
     <path id="mff7c7c28c9" d="M 0 3 
C 0.795609 3 1.55874 2.683901 2.12132 2.12132 
C 2.683901 1.55874 3 0.795609 3 0 
C 3 -0.795609 2.683901 -1.55874 2.12132 -2.12132 
C 1.55874 -2.683901 0.795609 -3 0 -3 
C -0.795609 -3 -1.55874 -2.683901 -2.12132 -2.12132 
C -2.683901 -1.55874 -3 -0.795609 -3 0 
C -3 0.795609 -2.683901 1.55874 -2.12132 2.12132 
C -1.55874 2.683901 -0.795609 3 0 3 
z
" style="stroke: #ff0000"/>
    </defs>
    <g clip-path="url(#p87fa60240c)">
     <use xlink:href="#mff7c7c28c9" x="34.480542" y="83.59413" style="fill: #ff0000; stroke: #ff0000"/>
     <use xlink:href="#mff7c7c28c9" x="55.184669" y="82.455488" style="fill: #ff0000; stroke: #ff0000"/>
     <use xlink:href="#mff7c7c28c9" x="75.888797" y="75.67286" style="fill: #ff0000; stroke: #ff0000"/>
     <use xlink:href="#mff7c7c28c9" x="96.592924" y="85.846802" style="fill: #ff0000; stroke: #ff0000"/>
     <use xlink:href="#mff7c7c28c9" x="117.297052" y="90.938569" style="fill: #ff0000; stroke: #ff0000"/>
     <use xlink:href="#mff7c7c28c9" x="138.00118" y="85.846802" style="fill: #ff0000; stroke: #ff0000"/>
    </g>
   </g>
   <g id="line2d_27">
    <defs>
     <path id="me32e9b9f98" d="M 0 3 
C 0.795609 3 1.55874 2.683901 2.12132 2.12132 
C 2.683901 1.55874 3 0.795609 3 0 
C 3 -0.795609 2.683901 -1.55874 2.12132 -2.12132 
C 1.55874 -2.683901 0.795609 -3 0 -3 
C -0.795609 -3 -1.55874 -2.683901 -2.12132 -2.12132 
C -2.683901 -1.55874 -3 -0.795609 -3 0 
C -3 0.795609 -2.683901 1.55874 -2.12132 2.12132 
C -1.55874 2.683901 -0.795609 3 0 3 
z
" style="stroke: #0000ff"/>
    </defs>
    <g clip-path="url(#p87fa60240c)">
     <use xlink:href="#me32e9b9f98" x="38.103764" y="83.59413" style="fill: #0000ff; stroke: #0000ff"/>
     <use xlink:href="#me32e9b9f98" x="58.807892" y="82.455488" style="fill: #0000ff; stroke: #0000ff"/>
     <use xlink:href="#me32e9b9f98" x="79.512019" y="75.67286" style="fill: #0000ff; stroke: #0000ff"/>
     <use xlink:href="#me32e9b9f98" x="100.216147" y="85.846802" style="fill: #0000ff; stroke: #0000ff"/>
     <use xlink:href="#me32e9b9f98" x="120.920274" y="90.938569" style="fill: #0000ff; stroke: #0000ff"/>
     <use xlink:href="#me32e9b9f98" x="141.624402" y="85.846802" style="fill: #0000ff; stroke: #0000ff"/>
    </g>
   </g>
   <g id="patch_9">
    <path d="M 28.942187 270.096557 
L 28.942187 8.051856 
" style="fill: none; stroke: #000000; stroke-width: 0.8; stroke-linejoin: miter; stroke-linecap: square"/>
   </g>
   <g id="patch_10">
    <path d="M 150.785978 270.096557 
L 150.785978 8.051856 
" style="fill: none; stroke: #000000; stroke-width: 0.8; stroke-linejoin: miter; stroke-linecap: square"/>
   </g>
   <g id="patch_11">
    <path d="M 28.942187 270.096557 
L 150.785978 270.096557 
" style="fill: none; stroke: #000000; stroke-width: 0.8; stroke-linejoin: miter; stroke-linecap: square"/>
   </g>
   <g id="patch_12">
    <path d="M 28.942187 8.051856 
L 150.785978 8.051856 
" style="fill: none; stroke: #000000; stroke-width: 0.8; stroke-linejoin: miter; stroke-linecap: square"/>
   </g>
  </g>
  <g id="axes_2">
   <g id="patch_13">
    <path d="M 170.148958 270.096557 
L 291.992749 270.096557 
L 291.992749 8.051856 
L 170.148958 8.051856 
z
" style="fill: #ffffff"/>
   </g>
   <g id="matplotlib.axis_3">
    <g id="xtick_4">
     <g id="line2d_28">
      <path d="M 175.549995 270.096557 
L 175.549995 8.051856 
" clip-path="url(#pe7d75bf88e)" style="fill: none; stroke: #b0b0b0; stroke-width: 0.8; stroke-linecap: square"/>
     </g>
     <g id="line2d_29">
      <g>
       <use xlink:href="#ma8d2ae9ac6" x="175.549995" y="270.096557" style="stroke: #000000; stroke-width: 0.8"/>
      </g>
     </g>
     <g id="text_10">
      <!-- −1 -->
      <g transform="translate(168.178902 284.694995)scale(0.1 -0.1)">
       <defs>
        <path id="DejaVuSans-31" d="M 794 531 
L 1825 531 
L 1825 4091 
L 703 3866 
L 703 4441 
L 1819 4666 
L 2450 4666 
L 2450 531 
L 3481 531 
L 3481 0 
L 794 0 
L 794 531 
z
" transform="scale(0.015625)"/>
       </defs>
       <use xlink:href="#DejaVuSans-2212"/>
       <use xlink:href="#DejaVuSans-31" x="83.789062"/>
      </g>
     </g>
    </g>
    <g id="xtick_5">
     <g id="line2d_30">
      <path d="M 212.563901 270.096557 
L 212.563901 8.051856 
" clip-path="url(#pe7d75bf88e)" style="fill: none; stroke: #b0b0b0; stroke-width: 0.8; stroke-linecap: square"/>
     </g>
     <g id="line2d_31">
      <g>
       <use xlink:href="#ma8d2ae9ac6" x="212.563901" y="270.096557" style="stroke: #000000; stroke-width: 0.8"/>
      </g>
     </g>
     <g id="text_11">
      <!-- 0 -->
      <g transform="translate(209.382651 284.694995)scale(0.1 -0.1)">
       <use xlink:href="#DejaVuSans-30"/>
      </g>
     </g>
    </g>
    <g id="xtick_6">
     <g id="line2d_32">
      <path d="M 249.577807 270.096557 
L 249.577807 8.051856 
" clip-path="url(#pe7d75bf88e)" style="fill: none; stroke: #b0b0b0; stroke-width: 0.8; stroke-linecap: square"/>
     </g>
     <g id="line2d_33">
      <g>
       <use xlink:href="#ma8d2ae9ac6" x="249.577807" y="270.096557" style="stroke: #000000; stroke-width: 0.8"/>
      </g>
     </g>
     <g id="text_12">
      <!-- 1 -->
      <g transform="translate(246.396557 284.694995)scale(0.1 -0.1)">
       <use xlink:href="#DejaVuSans-31"/>
      </g>
     </g>
    </g>
    <g id="xtick_7">
     <g id="line2d_34">
      <path d="M 286.591712 270.096557 
L 286.591712 8.051856 
" clip-path="url(#pe7d75bf88e)" style="fill: none; stroke: #b0b0b0; stroke-width: 0.8; stroke-linecap: square"/>
     </g>
     <g id="line2d_35">
      <g>
       <use xlink:href="#ma8d2ae9ac6" x="286.591712" y="270.096557" style="stroke: #000000; stroke-width: 0.8"/>
      </g>
     </g>
     <g id="text_13">
      <!-- 2 -->
      <g transform="translate(283.410462 284.694995)scale(0.1 -0.1)">
       <use xlink:href="#DejaVuSans-32"/>
      </g>
     </g>
    </g>
   </g>
   <g id="matplotlib.axis_4">
    <g id="ytick_7">
     <g id="line2d_36">
      <path d="M 170.148958 270.096557 
L 291.992749 270.096557 
" clip-path="url(#pe7d75bf88e)" style="fill: none; stroke: #b0b0b0; stroke-width: 0.8; stroke-linecap: square"/>
     </g>
     <g id="line2d_37">
      <g>
       <use xlink:href="#m84b513fdb7" x="170.148958" y="270.096557" style="stroke: #000000; stroke-width: 0.8"/>
      </g>
     </g>
     <g id="text_14">
      <!-- 0 -->
      <g transform="translate(156.786458 273.895776)scale(0.1 -0.1)">
       <use xlink:href="#DejaVuSans-30"/>
      </g>
     </g>
    </g>
    <g id="ytick_8">
     <g id="line2d_38">
      <path d="M 170.148958 233.082652 
L 291.992749 233.082652 
" clip-path="url(#pe7d75bf88e)" style="fill: none; stroke: #b0b0b0; stroke-width: 0.8; stroke-linecap: square"/>
     </g>
     <g id="line2d_39">
      <g>
       <use xlink:href="#m84b513fdb7" x="170.148958" y="233.082652" style="stroke: #000000; stroke-width: 0.8"/>
      </g>
     </g>
     <g id="text_15">
      <!-- 1 -->
      <g transform="translate(156.786458 236.881871)scale(0.1 -0.1)">
       <use xlink:href="#DejaVuSans-31"/>
      </g>
     </g>
    </g>
    <g id="ytick_9">
     <g id="line2d_40">
      <path d="M 170.148958 196.068746 
L 291.992749 196.068746 
" clip-path="url(#pe7d75bf88e)" style="fill: none; stroke: #b0b0b0; stroke-width: 0.8; stroke-linecap: square"/>
     </g>
     <g id="line2d_41">
      <g>
       <use xlink:href="#m84b513fdb7" x="170.148958" y="196.068746" style="stroke: #000000; stroke-width: 0.8"/>
      </g>
     </g>
     <g id="text_16">
      <!-- 2 -->
      <g transform="translate(156.786458 199.867965)scale(0.1 -0.1)">
       <use xlink:href="#DejaVuSans-32"/>
      </g>
     </g>
    </g>
    <g id="ytick_10">
     <g id="line2d_42">
      <path d="M 170.148958 159.054841 
L 291.992749 159.054841 
" clip-path="url(#pe7d75bf88e)" style="fill: none; stroke: #b0b0b0; stroke-width: 0.8; stroke-linecap: square"/>
     </g>
     <g id="line2d_43">
      <g>
       <use xlink:href="#m84b513fdb7" x="170.148958" y="159.054841" style="stroke: #000000; stroke-width: 0.8"/>
      </g>
     </g>
     <g id="text_17">
      <!-- 3 -->
      <g transform="translate(156.786458 162.85406)scale(0.1 -0.1)">
       <defs>
        <path id="DejaVuSans-33" d="M 2597 2516 
Q 3050 2419 3304 2112 
Q 3559 1806 3559 1356 
Q 3559 666 3084 287 
Q 2609 -91 1734 -91 
Q 1441 -91 1130 -33 
Q 819 25 488 141 
L 488 750 
Q 750 597 1062 519 
Q 1375 441 1716 441 
Q 2309 441 2620 675 
Q 2931 909 2931 1356 
Q 2931 1769 2642 2001 
Q 2353 2234 1838 2234 
L 1294 2234 
L 1294 2753 
L 1863 2753 
Q 2328 2753 2575 2939 
Q 2822 3125 2822 3475 
Q 2822 3834 2567 4026 
Q 2313 4219 1838 4219 
Q 1578 4219 1281 4162 
Q 984 4106 628 3988 
L 628 4550 
Q 988 4650 1302 4700 
Q 1616 4750 1894 4750 
Q 2613 4750 3031 4423 
Q 3450 4097 3450 3541 
Q 3450 3153 3228 2886 
Q 3006 2619 2597 2516 
z
" transform="scale(0.015625)"/>
       </defs>
       <use xlink:href="#DejaVuSans-33"/>
      </g>
     </g>
    </g>
    <g id="ytick_11">
     <g id="line2d_44">
      <path d="M 170.148958 122.040935 
L 291.992749 122.040935 
" clip-path="url(#pe7d75bf88e)" style="fill: none; stroke: #b0b0b0; stroke-width: 0.8; stroke-linecap: square"/>
     </g>
     <g id="line2d_45">
      <g>
       <use xlink:href="#m84b513fdb7" x="170.148958" y="122.040935" style="stroke: #000000; stroke-width: 0.8"/>
      </g>
     </g>
     <g id="text_18">
      <!-- 4 -->
      <g transform="translate(156.786458 125.840154)scale(0.1 -0.1)">
       <use xlink:href="#DejaVuSans-34"/>
      </g>
     </g>
    </g>
    <g id="ytick_12">
     <g id="line2d_46">
      <path d="M 170.148958 85.02703 
L 291.992749 85.02703 
" clip-path="url(#pe7d75bf88e)" style="fill: none; stroke: #b0b0b0; stroke-width: 0.8; stroke-linecap: square"/>
     </g>
     <g id="line2d_47">
      <g>
       <use xlink:href="#m84b513fdb7" x="170.148958" y="85.02703" style="stroke: #000000; stroke-width: 0.8"/>
      </g>
     </g>
     <g id="text_19">
      <!-- 5 -->
      <g transform="translate(156.786458 88.826249)scale(0.1 -0.1)">
       <defs>
        <path id="DejaVuSans-35" d="M 691 4666 
L 3169 4666 
L 3169 4134 
L 1269 4134 
L 1269 2991 
Q 1406 3038 1543 3061 
Q 1681 3084 1819 3084 
Q 2600 3084 3056 2656 
Q 3513 2228 3513 1497 
Q 3513 744 3044 326 
Q 2575 -91 1722 -91 
Q 1428 -91 1123 -41 
Q 819 9 494 109 
L 494 744 
Q 775 591 1075 516 
Q 1375 441 1709 441 
Q 2250 441 2565 725 
Q 2881 1009 2881 1497 
Q 2881 1984 2565 2268 
Q 2250 2553 1709 2553 
Q 1456 2553 1204 2497 
Q 953 2441 691 2322 
L 691 4666 
z
" transform="scale(0.015625)"/>
       </defs>
       <use xlink:href="#DejaVuSans-35"/>
      </g>
     </g>
    </g>
    <g id="ytick_13">
     <g id="line2d_48">
      <path d="M 170.148958 48.013124 
L 291.992749 48.013124 
" clip-path="url(#pe7d75bf88e)" style="fill: none; stroke: #b0b0b0; stroke-width: 0.8; stroke-linecap: square"/>
     </g>
     <g id="line2d_49">
      <g>
       <use xlink:href="#m84b513fdb7" x="170.148958" y="48.013124" style="stroke: #000000; stroke-width: 0.8"/>
      </g>
     </g>
     <g id="text_20">
      <!-- 6 -->
      <g transform="translate(156.786458 51.812343)scale(0.1 -0.1)">
       <use xlink:href="#DejaVuSans-36"/>
      </g>
     </g>
    </g>
    <g id="ytick_14">
     <g id="line2d_50">
      <path d="M 170.148958 10.999219 
L 291.992749 10.999219 
" clip-path="url(#pe7d75bf88e)" style="fill: none; stroke: #b0b0b0; stroke-width: 0.8; stroke-linecap: square"/>
     </g>
     <g id="line2d_51">
      <g>
       <use xlink:href="#m84b513fdb7" x="170.148958" y="10.999219" style="stroke: #000000; stroke-width: 0.8"/>
      </g>
     </g>
     <g id="text_21">
      <!-- 7 -->
      <g transform="translate(156.786458 14.798437)scale(0.1 -0.1)">
       <defs>
        <path id="DejaVuSans-37" d="M 525 4666 
L 3525 4666 
L 3525 4397 
L 1831 0 
L 1172 0 
L 2766 4134 
L 525 4134 
L 525 4666 
z
" transform="scale(0.015625)"/>
       </defs>
       <use xlink:href="#DejaVuSans-37"/>
      </g>
     </g>
    </g>
   </g>
   <g id="patch_14">
    <path d="M 206.086468 270.096557 
L 219.041334 270.096557 
L 219.041334 30.404909 
L 206.086468 30.404909 
z
" clip-path="url(#pe7d75bf88e)" style="fill: #dcdcdc; stroke: #000000; stroke-linejoin: miter"/>
   </g>
   <g id="patch_15">
    <path d="M 243.100373 270.096557 
L 256.05524 270.096557 
L 256.05524 42.865379 
L 243.100373 42.865379 
z
" clip-path="url(#pe7d75bf88e)" style="fill: #dcdcdc; stroke: #000000; stroke-linejoin: miter"/>
   </g>
   <g id="LineCollection_4">
    <path d="M 219.041334 40.279644 
L 219.041334 20.530175 
" clip-path="url(#pe7d75bf88e)" style="fill: none; stroke: #000000; stroke-width: 1.5"/>
    <path d="M 256.05524 49.665006 
L 256.05524 36.065753 
" clip-path="url(#pe7d75bf88e)" style="fill: none; stroke: #000000; stroke-width: 1.5"/>
   </g>
   <g id="line2d_52">
    <g clip-path="url(#pe7d75bf88e)">
     <use xlink:href="#m2ecea9cf2b" x="219.041334" y="40.279644" style="stroke: #000000"/>
     <use xlink:href="#m2ecea9cf2b" x="256.05524" y="49.665006" style="stroke: #000000"/>
    </g>
   </g>
   <g id="line2d_53">
    <g clip-path="url(#pe7d75bf88e)">
     <use xlink:href="#m2ecea9cf2b" x="219.041334" y="20.530175" style="stroke: #000000"/>
     <use xlink:href="#m2ecea9cf2b" x="256.05524" y="36.065753" style="stroke: #000000"/>
    </g>
   </g>
   <g id="LineCollection_5">
    <path d="M 206.086468 33.415135 
L 206.086468 27.394684 
" clip-path="url(#pe7d75bf88e)" style="fill: none; stroke: #ff0000; stroke-width: 1.5"/>
    <path d="M 243.100373 44.938185 
L 243.100373 40.792573 
" clip-path="url(#pe7d75bf88e)" style="fill: none; stroke: #ff0000; stroke-width: 1.5"/>
   </g>
   <g id="line2d_54">
    <g clip-path="url(#pe7d75bf88e)">
     <use xlink:href="#m83623e3bb8" x="206.086468" y="33.415135" style="fill: #ff0000; stroke: #ff0000"/>
     <use xlink:href="#m83623e3bb8" x="243.100373" y="44.938185" style="fill: #ff0000; stroke: #ff0000"/>
    </g>
   </g>
   <g id="line2d_55">
    <g clip-path="url(#pe7d75bf88e)">
     <use xlink:href="#m83623e3bb8" x="206.086468" y="27.394684" style="fill: #ff0000; stroke: #ff0000"/>
     <use xlink:href="#m83623e3bb8" x="243.100373" y="40.792573" style="fill: #ff0000; stroke: #ff0000"/>
    </g>
   </g>
   <g id="LineCollection_6">
    <path d="M 212.563901 39.435586 
L 212.563901 21.374232 
" clip-path="url(#pe7d75bf88e)" style="fill: none; stroke: #0000ff; stroke-width: 1.5"/>
    <path d="M 249.577807 49.083798 
L 249.577807 36.646961 
" clip-path="url(#pe7d75bf88e)" style="fill: none; stroke: #0000ff; stroke-width: 1.5"/>
   </g>
   <g id="line2d_56">
    <g clip-path="url(#pe7d75bf88e)">
     <use xlink:href="#m7e8ecd44f7" x="212.563901" y="39.435586" style="fill: #0000ff; stroke: #0000ff"/>
     <use xlink:href="#m7e8ecd44f7" x="249.577807" y="49.083798" style="fill: #0000ff; stroke: #0000ff"/>
    </g>
   </g>
   <g id="line2d_57">
    <g clip-path="url(#pe7d75bf88e)">
     <use xlink:href="#m7e8ecd44f7" x="212.563901" y="21.374232" style="fill: #0000ff; stroke: #0000ff"/>
     <use xlink:href="#m7e8ecd44f7" x="249.577807" y="36.646961" style="fill: #0000ff; stroke: #0000ff"/>
    </g>
   </g>
   <g id="line2d_58">
    <g clip-path="url(#pe7d75bf88e)">
     <use xlink:href="#m5a1f27f040" x="219.041334" y="30.404909" style="stroke: #000000"/>
     <use xlink:href="#m5a1f27f040" x="256.05524" y="42.865379" style="stroke: #000000"/>
    </g>
   </g>
   <g id="line2d_59">
    <g clip-path="url(#pe7d75bf88e)">
     <use xlink:href="#mff7c7c28c9" x="206.086468" y="30.404909" style="fill: #ff0000; stroke: #ff0000"/>
     <use xlink:href="#mff7c7c28c9" x="243.100373" y="42.865379" style="fill: #ff0000; stroke: #ff0000"/>
    </g>
   </g>
   <g id="line2d_60">
    <g clip-path="url(#pe7d75bf88e)">
     <use xlink:href="#me32e9b9f98" x="212.563901" y="30.404909" style="fill: #0000ff; stroke: #0000ff"/>
     <use xlink:href="#me32e9b9f98" x="249.577807" y="42.865379" style="fill: #0000ff; stroke: #0000ff"/>
    </g>
   </g>
   <g id="patch_16">
    <path d="M 170.148958 270.096557 
L 170.148958 8.051856 
" style="fill: none; stroke: #000000; stroke-width: 0.8; stroke-linejoin: miter; stroke-linecap: square"/>
   </g>
   <g id="patch_17">
    <path d="M 291.992749 270.096557 
L 291.992749 8.051856 
" style="fill: none; stroke: #000000; stroke-width: 0.8; stroke-linejoin: miter; stroke-linecap: square"/>
   </g>
   <g id="patch_18">
    <path d="M 170.148958 270.096557 
L 291.992749 270.096557 
" style="fill: none; stroke: #000000; stroke-width: 0.8; stroke-linejoin: miter; stroke-linecap: square"/>
   </g>
   <g id="patch_19">
    <path d="M 170.148958 8.051856 
L 291.992749 8.051856 
" style="fill: none; stroke: #000000; stroke-width: 0.8; stroke-linejoin: miter; stroke-linecap: square"/>
   </g>
  </g>
  <g id="axes_3">
   <g id="patch_20">
    <path d="M 311.355729 270.096557 
L 433.19952 270.096557 
L 433.19952 8.051856 
L 311.355729 8.051856 
z
" style="fill: #ffffff"/>
   </g>
   <g id="matplotlib.axis_5">
    <g id="xtick_8">
     <g id="line2d_61">
      <path d="M 334.220301 270.096557 
L 334.220301 8.051856 
" clip-path="url(#pe753550233)" style="fill: none; stroke: #b0b0b0; stroke-width: 0.8; stroke-linecap: square"/>
     </g>
     <g id="line2d_62">
      <g>
       <use xlink:href="#ma8d2ae9ac6" x="334.220301" y="270.096557" style="stroke: #000000; stroke-width: 0.8"/>
      </g>
     </g>
     <g id="text_22">
      <!-- −1 -->
      <g transform="translate(326.849208 284.694995)scale(0.1 -0.1)">
       <use xlink:href="#DejaVuSans-2212"/>
       <use xlink:href="#DejaVuSans-31" x="83.789062"/>
      </g>
     </g>
    </g>
    <g id="xtick_9">
     <g id="line2d_63">
      <path d="M 372.277625 270.096557 
L 372.277625 8.051856 
" clip-path="url(#pe753550233)" style="fill: none; stroke: #b0b0b0; stroke-width: 0.8; stroke-linecap: square"/>
     </g>
     <g id="line2d_64">
      <g>
       <use xlink:href="#ma8d2ae9ac6" x="372.277625" y="270.096557" style="stroke: #000000; stroke-width: 0.8"/>
      </g>
     </g>
     <g id="text_23">
      <!-- 0 -->
      <g transform="translate(369.096375 284.694995)scale(0.1 -0.1)">
       <use xlink:href="#DejaVuSans-30"/>
      </g>
     </g>
    </g>
    <g id="xtick_10">
     <g id="line2d_65">
      <path d="M 410.334948 270.096557 
L 410.334948 8.051856 
" clip-path="url(#pe753550233)" style="fill: none; stroke: #b0b0b0; stroke-width: 0.8; stroke-linecap: square"/>
     </g>
     <g id="line2d_66">
      <g>
       <use xlink:href="#ma8d2ae9ac6" x="410.334948" y="270.096557" style="stroke: #000000; stroke-width: 0.8"/>
      </g>
     </g>
     <g id="text_24">
      <!-- 1 -->
      <g transform="translate(407.153698 284.694995)scale(0.1 -0.1)">
       <use xlink:href="#DejaVuSans-31"/>
      </g>
     </g>
    </g>
   </g>
   <g id="matplotlib.axis_6">
    <g id="ytick_15">
     <g id="line2d_67">
      <path d="M 311.355729 270.096557 
L 433.19952 270.096557 
" clip-path="url(#pe753550233)" style="fill: none; stroke: #b0b0b0; stroke-width: 0.8; stroke-linecap: square"/>
     </g>
     <g id="line2d_68">
      <g>
       <use xlink:href="#m84b513fdb7" x="311.355729" y="270.096557" style="stroke: #000000; stroke-width: 0.8"/>
      </g>
     </g>
     <g id="text_25">
      <!-- 0 -->
      <g transform="translate(297.993229 273.895776)scale(0.1 -0.1)">
       <use xlink:href="#DejaVuSans-30"/>
      </g>
     </g>
    </g>
    <g id="ytick_16">
     <g id="line2d_69">
      <path d="M 311.355729 232.039234 
L 433.19952 232.039234 
" clip-path="url(#pe753550233)" style="fill: none; stroke: #b0b0b0; stroke-width: 0.8; stroke-linecap: square"/>
     </g>
     <g id="line2d_70">
      <g>
       <use xlink:href="#m84b513fdb7" x="311.355729" y="232.039234" style="stroke: #000000; stroke-width: 0.8"/>
      </g>
     </g>
     <g id="text_26">
      <!-- 1 -->
      <g transform="translate(297.993229 235.838453)scale(0.1 -0.1)">
       <use xlink:href="#DejaVuSans-31"/>
      </g>
     </g>
    </g>
    <g id="ytick_17">
     <g id="line2d_71">
      <path d="M 311.355729 193.981911 
L 433.19952 193.981911 
" clip-path="url(#pe753550233)" style="fill: none; stroke: #b0b0b0; stroke-width: 0.8; stroke-linecap: square"/>
     </g>
     <g id="line2d_72">
      <g>
       <use xlink:href="#m84b513fdb7" x="311.355729" y="193.981911" style="stroke: #000000; stroke-width: 0.8"/>
      </g>
     </g>
     <g id="text_27">
      <!-- 2 -->
      <g transform="translate(297.993229 197.78113)scale(0.1 -0.1)">
       <use xlink:href="#DejaVuSans-32"/>
      </g>
     </g>
    </g>
    <g id="ytick_18">
     <g id="line2d_73">
      <path d="M 311.355729 155.924588 
L 433.19952 155.924588 
" clip-path="url(#pe753550233)" style="fill: none; stroke: #b0b0b0; stroke-width: 0.8; stroke-linecap: square"/>
     </g>
     <g id="line2d_74">
      <g>
       <use xlink:href="#m84b513fdb7" x="311.355729" y="155.924588" style="stroke: #000000; stroke-width: 0.8"/>
      </g>
     </g>
     <g id="text_28">
      <!-- 3 -->
      <g transform="translate(297.993229 159.723806)scale(0.1 -0.1)">
       <use xlink:href="#DejaVuSans-33"/>
      </g>
     </g>
    </g>
    <g id="ytick_19">
     <g id="line2d_75">
      <path d="M 311.355729 117.867264 
L 433.19952 117.867264 
" clip-path="url(#pe753550233)" style="fill: none; stroke: #b0b0b0; stroke-width: 0.8; stroke-linecap: square"/>
     </g>
     <g id="line2d_76">
      <g>
       <use xlink:href="#m84b513fdb7" x="311.355729" y="117.867264" style="stroke: #000000; stroke-width: 0.8"/>
      </g>
     </g>
     <g id="text_29">
      <!-- 4 -->
      <g transform="translate(297.993229 121.666483)scale(0.1 -0.1)">
       <use xlink:href="#DejaVuSans-34"/>
      </g>
     </g>
    </g>
    <g id="ytick_20">
     <g id="line2d_77">
      <path d="M 311.355729 79.809941 
L 433.19952 79.809941 
" clip-path="url(#pe753550233)" style="fill: none; stroke: #b0b0b0; stroke-width: 0.8; stroke-linecap: square"/>
     </g>
     <g id="line2d_78">
      <g>
       <use xlink:href="#m84b513fdb7" x="311.355729" y="79.809941" style="stroke: #000000; stroke-width: 0.8"/>
      </g>
     </g>
     <g id="text_30">
      <!-- 5 -->
      <g transform="translate(297.993229 83.60916)scale(0.1 -0.1)">
       <use xlink:href="#DejaVuSans-35"/>
      </g>
     </g>
    </g>
    <g id="ytick_21">
     <g id="line2d_79">
      <path d="M 311.355729 41.752618 
L 433.19952 41.752618 
" clip-path="url(#pe753550233)" style="fill: none; stroke: #b0b0b0; stroke-width: 0.8; stroke-linecap: square"/>
     </g>
     <g id="line2d_80">
      <g>
       <use xlink:href="#m84b513fdb7" x="311.355729" y="41.752618" style="stroke: #000000; stroke-width: 0.8"/>
      </g>
     </g>
     <g id="text_31">
      <!-- 6 -->
      <g transform="translate(297.993229 45.551837)scale(0.1 -0.1)">
       <use xlink:href="#DejaVuSans-36"/>
      </g>
     </g>
    </g>
   </g>
   <g id="patch_21">
    <path d="M 365.617593 270.096557 
L 378.937656 270.096557 
L 378.937656 30.053894 
L 365.617593 30.053894 
z
" clip-path="url(#pe753550233)" style="fill: #dcdcdc; stroke: #000000; stroke-linejoin: miter"/>
   </g>
   <g id="LineCollection_7">
    <path d="M 378.937656 39.577613 
L 378.937656 20.530175 
" clip-path="url(#pe753550233)" style="fill: none; stroke: #000000; stroke-width: 1.5"/>
   </g>
   <g id="line2d_81">
    <g clip-path="url(#pe753550233)">
     <use xlink:href="#m2ecea9cf2b" x="378.937656" y="39.577613" style="stroke: #000000"/>
    </g>
   </g>
   <g id="line2d_82">
    <g clip-path="url(#pe753550233)">
     <use xlink:href="#m2ecea9cf2b" x="378.937656" y="20.530175" style="stroke: #000000"/>
    </g>
   </g>
   <g id="LineCollection_8">
    <path d="M 365.617593 32.957116 
L 365.617593 27.150672 
" clip-path="url(#pe753550233)" style="fill: none; stroke: #ff0000; stroke-width: 1.5"/>
   </g>
   <g id="line2d_83">
    <g clip-path="url(#pe753550233)">
     <use xlink:href="#m83623e3bb8" x="365.617593" y="32.957116" style="fill: #ff0000; stroke: #ff0000"/>
    </g>
   </g>
   <g id="line2d_84">
    <g clip-path="url(#pe753550233)">
     <use xlink:href="#m83623e3bb8" x="365.617593" y="27.150672" style="fill: #ff0000; stroke: #ff0000"/>
    </g>
   </g>
   <g id="LineCollection_9">
    <path d="M 372.277625 38.763559 
L 372.277625 21.344229 
" clip-path="url(#pe753550233)" style="fill: none; stroke: #0000ff; stroke-width: 1.5"/>
   </g>
   <g id="line2d_85">
    <g clip-path="url(#pe753550233)">
     <use xlink:href="#m7e8ecd44f7" x="372.277625" y="38.763559" style="fill: #0000ff; stroke: #0000ff"/>
    </g>
   </g>
   <g id="line2d_86">
    <g clip-path="url(#pe753550233)">
     <use xlink:href="#m7e8ecd44f7" x="372.277625" y="21.344229" style="fill: #0000ff; stroke: #0000ff"/>
    </g>
   </g>
   <g id="line2d_87">
    <g clip-path="url(#pe753550233)">
     <use xlink:href="#m5a1f27f040" x="378.937656" y="30.053894" style="stroke: #000000"/>
    </g>
   </g>
   <g id="line2d_88">
    <g clip-path="url(#pe753550233)">
     <use xlink:href="#mff7c7c28c9" x="365.617593" y="30.053894" style="fill: #ff0000; stroke: #ff0000"/>
    </g>
   </g>
   <g id="line2d_89">
    <g clip-path="url(#pe753550233)">
     <use xlink:href="#me32e9b9f98" x="372.277625" y="30.053894" style="fill: #0000ff; stroke: #0000ff"/>
    </g>
   </g>
   <g id="patch_22">
    <path d="M 311.355729 270.096557 
L 311.355729 8.051856 
" style="fill: none; stroke: #000000; stroke-width: 0.8; stroke-linejoin: miter; stroke-linecap: square"/>
   </g>
   <g id="patch_23">
    <path d="M 433.19952 270.096557 
L 433.19952 8.051856 
" style="fill: none; stroke: #000000; stroke-width: 0.8; stroke-linejoin: miter; stroke-linecap: square"/>
   </g>
   <g id="patch_24">
    <path d="M 311.355729 270.096557 
L 433.19952 270.096557 
" style="fill: none; stroke: #000000; stroke-width: 0.8; stroke-linejoin: miter; stroke-linecap: square"/>
   </g>
   <g id="patch_25">
    <path d="M 311.355729 8.051856 
L 433.19952 8.051856 
" style="fill: none; stroke: #000000; stroke-width: 0.8; stroke-linejoin: miter; stroke-linecap: square"/>
   </g>
  </g>
 </g>
 <defs>
  <clipPath id="p87fa60240c">
   <rect x="28.942187" y="8.051856" width="121.843791" height="262.044702"/>
  </clipPath>
  <clipPath id="pe7d75bf88e">
   <rect x="170.148958" y="8.051856" width="121.843791" height="262.044702"/>
  </clipPath>
  <clipPath id="pe753550233">
   <rect x="311.355729" y="8.051856" width="121.843791" height="262.044702"/>
  </clipPath>
 </defs>
</svg>
