<?xml version="1.0" encoding="utf-8" standalone="no"?>
<!DOCTYPE svg PUBLIC "-//W3C//DTD SVG 1.1//EN"
  "http://www.w3.org/Graphics/SVG/1.1/DTD/svg11.dtd">
<svg xmlns:xlink="http://www.w3.org/1999/xlink" width="440.39952pt" height="296.39952pt" viewBox="0 0 440.39952 296.39952" xmlns="http://www.w3.org/2000/svg" version="1.1">
 <metadata>
  <rdf:RDF xmlns:dc="http://purl.org/dc/elements/1.1/" xmlns:cc="http://creativecommons.org/ns#" xmlns:rdf="http://www.w3.org/1999/02/22-rdf-syntax-ns#">
   <cc:Work>
    <dc:type rdf:resource="http://purl.org/dc/dcmitype/StillImage"/>
    <dc:date>2021-12-11T10:51:31.730763</dc:date>
    <dc:format>image/svg+xml</dc:format>
    <dc:creator>
     <cc:Agent>
      <dc:title>Matplotlib v3.5.0, https://matplotlib.org/</dc:title>
     </cc:Agent>
    </dc:creator>
   </cc:Work>
  </rdf:RDF>
 </metadata>
 <defs>
  <style type="text/css">*{stroke-linejoin: round; stroke-linecap: butt}</style>
 </defs>
 <g id="figure_1">
  <g id="patch_1">
   <path d="M 0 296.39952 
L 440.39952 296.39952 
L 440.39952 0 
L 0 0 
L 0 296.39952 
z
" style="fill: none"/>
  </g>
  <g id="axes_1">
   <g id="patch_2">
    <path d="M 36.465625 80.521395 
L 433.19952 80.521395 
L 433.19952 7.2 
L 36.465625 7.2 
z
" style="fill: #ffffff"/>
   </g>
   <g id="matplotlib.axis_1">
    <g id="xtick_1">
     <g id="line2d_1">
      <path d="M 66.296508 80.521395 
L 66.296508 7.2 
" clip-path="url(#pb3e888cf86)" style="fill: none; stroke: #b0b0b0; stroke-width: 0.8; stroke-linecap: square"/>
     </g>
     <g id="line2d_2">
      <defs>
       <path id="m640c948872" d="M 0 0 
L 0 3.5 
" style="stroke: #000000; stroke-width: 0.8"/>
      </defs>
      <g>
       <use xlink:href="#m640c948872" x="66.296508" y="80.521395" style="stroke: #000000; stroke-width: 0.8"/>
      </g>
     </g>
     <g id="text_1">
      <!-- 0 -->
      <g transform="translate(63.115258 95.119832)scale(0.1 -0.1)">
       <defs>
        <path id="DejaVuSans-30" d="M 2034 4250 
Q 1547 4250 1301 3770 
Q 1056 3291 1056 2328 
Q 1056 1369 1301 889 
Q 1547 409 2034 409 
Q 2525 409 2770 889 
Q 3016 1369 3016 2328 
Q 3016 3291 2770 3770 
Q 2525 4250 2034 4250 
z
M 2034 4750 
Q 2819 4750 3233 4129 
Q 3647 3509 3647 2328 
Q 3647 1150 3233 529 
Q 2819 -91 2034 -91 
Q 1250 -91 836 529 
Q 422 1150 422 2328 
Q 422 3509 836 4129 
Q 1250 4750 2034 4750 
z
" transform="scale(0.015625)"/>
       </defs>
       <use xlink:href="#DejaVuSans-30"/>
      </g>
     </g>
    </g>
    <g id="xtick_2">
     <g id="line2d_3">
      <path d="M 133.710934 80.521395 
L 133.710934 7.2 
" clip-path="url(#pb3e888cf86)" style="fill: none; stroke: #b0b0b0; stroke-width: 0.8; stroke-linecap: square"/>
     </g>
     <g id="line2d_4">
      <g>
       <use xlink:href="#m640c948872" x="133.710934" y="80.521395" style="stroke: #000000; stroke-width: 0.8"/>
      </g>
     </g>
     <g id="text_2">
      <!-- 1 -->
      <g transform="translate(130.529684 95.119832)scale(0.1 -0.1)">
       <defs>
        <path id="DejaVuSans-31" d="M 794 531 
L 1825 531 
L 1825 4091 
L 703 3866 
L 703 4441 
L 1819 4666 
L 2450 4666 
L 2450 531 
L 3481 531 
L 3481 0 
L 794 0 
L 794 531 
z
" transform="scale(0.015625)"/>
       </defs>
       <use xlink:href="#DejaVuSans-31"/>
      </g>
     </g>
    </g>
    <g id="xtick_3">
     <g id="line2d_5">
      <path d="M 201.12536 80.521395 
L 201.12536 7.2 
" clip-path="url(#pb3e888cf86)" style="fill: none; stroke: #b0b0b0; stroke-width: 0.8; stroke-linecap: square"/>
     </g>
     <g id="line2d_6">
      <g>
       <use xlink:href="#m640c948872" x="201.12536" y="80.521395" style="stroke: #000000; stroke-width: 0.8"/>
      </g>
     </g>
     <g id="text_3">
      <!-- 2 -->
      <g transform="translate(197.94411 95.119832)scale(0.1 -0.1)">
       <defs>
        <path id="DejaVuSans-32" d="M 1228 531 
L 3431 531 
L 3431 0 
L 469 0 
L 469 531 
Q 828 903 1448 1529 
Q 2069 2156 2228 2338 
Q 2531 2678 2651 2914 
Q 2772 3150 2772 3378 
Q 2772 3750 2511 3984 
Q 2250 4219 1831 4219 
Q 1534 4219 1204 4116 
Q 875 4013 500 3803 
L 500 4441 
Q 881 4594 1212 4672 
Q 1544 4750 1819 4750 
Q 2544 4750 2975 4387 
Q 3406 4025 3406 3419 
Q 3406 3131 3298 2873 
Q 3191 2616 2906 2266 
Q 2828 2175 2409 1742 
Q 1991 1309 1228 531 
z
" transform="scale(0.015625)"/>
       </defs>
       <use xlink:href="#DejaVuSans-32"/>
      </g>
     </g>
    </g>
    <g id="xtick_4">
     <g id="line2d_7">
      <path d="M 268.539785 80.521395 
L 268.539785 7.2 
" clip-path="url(#pb3e888cf86)" style="fill: none; stroke: #b0b0b0; stroke-width: 0.8; stroke-linecap: square"/>
     </g>
     <g id="line2d_8">
      <g>
       <use xlink:href="#m640c948872" x="268.539785" y="80.521395" style="stroke: #000000; stroke-width: 0.8"/>
      </g>
     </g>
     <g id="text_4">
      <!-- 3 -->
      <g transform="translate(265.358535 95.119832)scale(0.1 -0.1)">
       <defs>
        <path id="DejaVuSans-33" d="M 2597 2516 
Q 3050 2419 3304 2112 
Q 3559 1806 3559 1356 
Q 3559 666 3084 287 
Q 2609 -91 1734 -91 
Q 1441 -91 1130 -33 
Q 819 25 488 141 
L 488 750 
Q 750 597 1062 519 
Q 1375 441 1716 441 
Q 2309 441 2620 675 
Q 2931 909 2931 1356 
Q 2931 1769 2642 2001 
Q 2353 2234 1838 2234 
L 1294 2234 
L 1294 2753 
L 1863 2753 
Q 2328 2753 2575 2939 
Q 2822 3125 2822 3475 
Q 2822 3834 2567 4026 
Q 2313 4219 1838 4219 
Q 1578 4219 1281 4162 
Q 984 4106 628 3988 
L 628 4550 
Q 988 4650 1302 4700 
Q 1616 4750 1894 4750 
Q 2613 4750 3031 4423 
Q 3450 4097 3450 3541 
Q 3450 3153 3228 2886 
Q 3006 2619 2597 2516 
z
" transform="scale(0.015625)"/>
       </defs>
       <use xlink:href="#DejaVuSans-33"/>
      </g>
     </g>
    </g>
    <g id="xtick_5">
     <g id="line2d_9">
      <path d="M 335.954211 80.521395 
L 335.954211 7.2 
" clip-path="url(#pb3e888cf86)" style="fill: none; stroke: #b0b0b0; stroke-width: 0.8; stroke-linecap: square"/>
     </g>
     <g id="line2d_10">
      <g>
       <use xlink:href="#m640c948872" x="335.954211" y="80.521395" style="stroke: #000000; stroke-width: 0.8"/>
      </g>
     </g>
     <g id="text_5">
      <!-- 4 -->
      <g transform="translate(332.772961 95.119832)scale(0.1 -0.1)">
       <defs>
        <path id="DejaVuSans-34" d="M 2419 4116 
L 825 1625 
L 2419 1625 
L 2419 4116 
z
M 2253 4666 
L 3047 4666 
L 3047 1625 
L 3713 1625 
L 3713 1100 
L 3047 1100 
L 3047 0 
L 2419 0 
L 2419 1100 
L 313 1100 
L 313 1709 
L 2253 4666 
z
" transform="scale(0.015625)"/>
       </defs>
       <use xlink:href="#DejaVuSans-34"/>
      </g>
     </g>
    </g>
    <g id="xtick_6">
     <g id="line2d_11">
      <path d="M 403.368637 80.521395 
L 403.368637 7.2 
" clip-path="url(#pb3e888cf86)" style="fill: none; stroke: #b0b0b0; stroke-width: 0.8; stroke-linecap: square"/>
     </g>
     <g id="line2d_12">
      <g>
       <use xlink:href="#m640c948872" x="403.368637" y="80.521395" style="stroke: #000000; stroke-width: 0.8"/>
      </g>
     </g>
     <g id="text_6">
      <!-- 5 -->
      <g transform="translate(400.187387 95.119832)scale(0.1 -0.1)">
       <defs>
        <path id="DejaVuSans-35" d="M 691 4666 
L 3169 4666 
L 3169 4134 
L 1269 4134 
L 1269 2991 
Q 1406 3038 1543 3061 
Q 1681 3084 1819 3084 
Q 2600 3084 3056 2656 
Q 3513 2228 3513 1497 
Q 3513 744 3044 326 
Q 2575 -91 1722 -91 
Q 1428 -91 1123 -41 
Q 819 9 494 109 
L 494 744 
Q 775 591 1075 516 
Q 1375 441 1709 441 
Q 2250 441 2565 725 
Q 2881 1009 2881 1497 
Q 2881 1984 2565 2268 
Q 2250 2553 1709 2553 
Q 1456 2553 1204 2497 
Q 953 2441 691 2322 
L 691 4666 
z
" transform="scale(0.015625)"/>
       </defs>
       <use xlink:href="#DejaVuSans-35"/>
      </g>
     </g>
    </g>
   </g>
   <g id="matplotlib.axis_2">
    <g id="ytick_1">
     <g id="line2d_13">
      <path d="M 36.465625 80.521395 
L 433.19952 80.521395 
" clip-path="url(#pb3e888cf86)" style="fill: none; stroke: #b0b0b0; stroke-width: 0.8; stroke-linecap: square"/>
     </g>
     <g id="line2d_14">
      <defs>
       <path id="ma982c528c6" d="M 0 0 
L -3.5 0 
" style="stroke: #000000; stroke-width: 0.8"/>
      </defs>
      <g>
       <use xlink:href="#ma982c528c6" x="36.465625" y="80.521395" style="stroke: #000000; stroke-width: 0.8"/>
      </g>
     </g>
     <g id="text_7">
      <!-- 0.0 -->
      <g transform="translate(13.5625 84.320614)scale(0.1 -0.1)">
       <defs>
        <path id="DejaVuSans-2e" d="M 684 794 
L 1344 794 
L 1344 0 
L 684 0 
L 684 794 
z
" transform="scale(0.015625)"/>
       </defs>
       <use xlink:href="#DejaVuSans-30"/>
       <use xlink:href="#DejaVuSans-2e" x="63.623047"/>
       <use xlink:href="#DejaVuSans-30" x="95.410156"/>
      </g>
     </g>
    </g>
    <g id="ytick_2">
     <g id="line2d_15">
      <path d="M 36.465625 46.010824 
L 433.19952 46.010824 
" clip-path="url(#pb3e888cf86)" style="fill: none; stroke: #b0b0b0; stroke-width: 0.8; stroke-linecap: square"/>
     </g>
     <g id="line2d_16">
      <g>
       <use xlink:href="#ma982c528c6" x="36.465625" y="46.010824" style="stroke: #000000; stroke-width: 0.8"/>
      </g>
     </g>
     <g id="text_8">
      <!-- 0.5 -->
      <g transform="translate(13.5625 49.810043)scale(0.1 -0.1)">
       <use xlink:href="#DejaVuSans-30"/>
       <use xlink:href="#DejaVuSans-2e" x="63.623047"/>
       <use xlink:href="#DejaVuSans-35" x="95.410156"/>
      </g>
     </g>
    </g>
    <g id="ytick_3">
     <g id="line2d_17">
      <path d="M 36.465625 11.500253 
L 433.19952 11.500253 
" clip-path="url(#pb3e888cf86)" style="fill: none; stroke: #b0b0b0; stroke-width: 0.8; stroke-linecap: square"/>
     </g>
     <g id="line2d_18">
      <g>
       <use xlink:href="#ma982c528c6" x="36.465625" y="11.500253" style="stroke: #000000; stroke-width: 0.8"/>
      </g>
     </g>
     <g id="text_9">
      <!-- 1.0 -->
      <g transform="translate(13.5625 15.299472)scale(0.1 -0.1)">
       <use xlink:href="#DejaVuSans-31"/>
       <use xlink:href="#DejaVuSans-2e" x="63.623047"/>
       <use xlink:href="#DejaVuSans-30" x="95.410156"/>
      </g>
     </g>
    </g>
   </g>
   <g id="patch_3">
    <path d="M 54.498984 80.521395 
L 78.094033 80.521395 
L 78.094033 41.071978 
L 54.498984 41.071978 
z
" clip-path="url(#pb3e888cf86)" style="fill: #dcdcdc; stroke: #000000; stroke-linejoin: miter"/>
   </g>
   <g id="patch_4">
    <path d="M 121.91341 80.521395 
L 145.508459 80.521395 
L 145.508459 44.675159 
L 121.91341 44.675159 
z
" clip-path="url(#pb3e888cf86)" style="fill: #dcdcdc; stroke: #000000; stroke-linejoin: miter"/>
   </g>
   <g id="patch_5">
    <path d="M 189.327835 80.521395 
L 212.922884 80.521395 
L 212.922884 59.477616 
L 189.327835 59.477616 
z
" clip-path="url(#pb3e888cf86)" style="fill: #dcdcdc; stroke: #000000; stroke-linejoin: miter"/>
   </g>
   <g id="patch_6">
    <path d="M 256.742261 80.521395 
L 280.33731 80.521395 
L 280.33731 75.929807 
L 256.742261 75.929807 
z
" clip-path="url(#pb3e888cf86)" style="fill: #dcdcdc; stroke: #000000; stroke-linejoin: miter"/>
   </g>
   <g id="patch_7">
    <path d="M 324.156686 80.521395 
L 347.751735 80.521395 
L 347.751735 40.876844 
L 324.156686 40.876844 
z
" clip-path="url(#pb3e888cf86)" style="fill: #dcdcdc; stroke: #000000; stroke-linejoin: miter"/>
   </g>
   <g id="patch_8">
    <path d="M 391.571112 80.521395 
L 415.166161 80.521395 
L 415.166161 77.31449 
L 391.571112 77.31449 
z
" clip-path="url(#pb3e888cf86)" style="fill: #dcdcdc; stroke: #000000; stroke-linejoin: miter"/>
   </g>
   <g id="LineCollection_1">
    <path d="M 66.296508 71.31078 
L 66.296508 10.833176 
" clip-path="url(#pb3e888cf86)" style="fill: none; stroke: #000000; stroke-width: 1.5"/>
    <path d="M 133.710934 76.182206 
L 133.710934 13.168112 
" clip-path="url(#pb3e888cf86)" style="fill: none; stroke: #000000; stroke-width: 1.5"/>
    <path d="M 201.12536 66.404124 
L 201.12536 52.551108 
" clip-path="url(#pb3e888cf86)" style="fill: none; stroke: #000000; stroke-width: 1.5"/>
    <path d="M 268.539785 77.316504 
L 268.539785 74.543109 
" clip-path="url(#pb3e888cf86)" style="fill: none; stroke: #000000; stroke-width: 1.5"/>
    <path d="M 335.954211 71.062193 
L 335.954211 10.691495 
" clip-path="url(#pb3e888cf86)" style="fill: none; stroke: #000000; stroke-width: 1.5"/>
    <path d="M 403.368637 78.129743 
L 403.368637 76.499237 
" clip-path="url(#pb3e888cf86)" style="fill: none; stroke: #000000; stroke-width: 1.5"/>
   </g>
   <g id="line2d_19">
    <defs>
     <path id="m79021fbac3" d="M 1.5 0 
L -1.5 -0 
" style="stroke: #000000"/>
    </defs>
    <g clip-path="url(#pb3e888cf86)">
     <use xlink:href="#m79021fbac3" x="66.296508" y="71.31078" style="stroke: #000000"/>
     <use xlink:href="#m79021fbac3" x="133.710934" y="76.182206" style="stroke: #000000"/>
     <use xlink:href="#m79021fbac3" x="201.12536" y="66.404124" style="stroke: #000000"/>
     <use xlink:href="#m79021fbac3" x="268.539785" y="77.316504" style="stroke: #000000"/>
     <use xlink:href="#m79021fbac3" x="335.954211" y="71.062193" style="stroke: #000000"/>
     <use xlink:href="#m79021fbac3" x="403.368637" y="78.129743" style="stroke: #000000"/>
    </g>
   </g>
   <g id="line2d_20">
    <g clip-path="url(#pb3e888cf86)">
     <use xlink:href="#m79021fbac3" x="66.296508" y="10.833176" style="stroke: #000000"/>
     <use xlink:href="#m79021fbac3" x="133.710934" y="13.168112" style="stroke: #000000"/>
     <use xlink:href="#m79021fbac3" x="201.12536" y="52.551108" style="stroke: #000000"/>
     <use xlink:href="#m79021fbac3" x="268.539785" y="74.543109" style="stroke: #000000"/>
     <use xlink:href="#m79021fbac3" x="335.954211" y="10.691495" style="stroke: #000000"/>
     <use xlink:href="#m79021fbac3" x="403.368637" y="76.499237" style="stroke: #000000"/>
    </g>
   </g>
   <g id="LineCollection_2">
    <path d="M 66.296508 50.29001 
L 66.296508 31.853946 
" clip-path="url(#pb3e888cf86)" style="fill: none; stroke: #ff0000; stroke-width: 1.5"/>
    <path d="M 133.710934 54.279804 
L 133.710934 35.070514 
" clip-path="url(#pb3e888cf86)" style="fill: none; stroke: #ff0000; stroke-width: 1.5"/>
    <path d="M 201.12536 61.589101 
L 201.12536 57.366131 
" clip-path="url(#pb3e888cf86)" style="fill: none; stroke: #ff0000; stroke-width: 1.5"/>
    <path d="M 268.539785 76.352529 
L 268.539785 75.507084 
" clip-path="url(#pb3e888cf86)" style="fill: none; stroke: #ff0000; stroke-width: 1.5"/>
    <path d="M 335.954211 50.078581 
L 335.954211 31.675107 
" clip-path="url(#pb3e888cf86)" style="fill: none; stroke: #ff0000; stroke-width: 1.5"/>
    <path d="M 403.368637 77.563013 
L 403.368637 77.065967 
" clip-path="url(#pb3e888cf86)" style="fill: none; stroke: #ff0000; stroke-width: 1.5"/>
   </g>
   <g id="line2d_21">
    <defs>
     <path id="mba883cec1d" d="M 1.5 0 
L -1.5 -0 
" style="stroke: #ff0000"/>
    </defs>
    <g clip-path="url(#pb3e888cf86)">
     <use xlink:href="#mba883cec1d" x="66.296508" y="50.29001" style="fill: #ff0000; stroke: #ff0000"/>
     <use xlink:href="#mba883cec1d" x="133.710934" y="54.279804" style="fill: #ff0000; stroke: #ff0000"/>
     <use xlink:href="#mba883cec1d" x="201.12536" y="61.589101" style="fill: #ff0000; stroke: #ff0000"/>
     <use xlink:href="#mba883cec1d" x="268.539785" y="76.352529" style="fill: #ff0000; stroke: #ff0000"/>
     <use xlink:href="#mba883cec1d" x="335.954211" y="50.078581" style="fill: #ff0000; stroke: #ff0000"/>
     <use xlink:href="#mba883cec1d" x="403.368637" y="77.563013" style="fill: #ff0000; stroke: #ff0000"/>
    </g>
   </g>
   <g id="line2d_22">
    <g clip-path="url(#pb3e888cf86)">
     <use xlink:href="#mba883cec1d" x="66.296508" y="31.853946" style="fill: #ff0000; stroke: #ff0000"/>
     <use xlink:href="#mba883cec1d" x="133.710934" y="35.070514" style="fill: #ff0000; stroke: #ff0000"/>
     <use xlink:href="#mba883cec1d" x="201.12536" y="57.366131" style="fill: #ff0000; stroke: #ff0000"/>
     <use xlink:href="#mba883cec1d" x="268.539785" y="75.507084" style="fill: #ff0000; stroke: #ff0000"/>
     <use xlink:href="#mba883cec1d" x="335.954211" y="31.675107" style="fill: #ff0000; stroke: #ff0000"/>
     <use xlink:href="#mba883cec1d" x="403.368637" y="77.065967" style="fill: #ff0000; stroke: #ff0000"/>
    </g>
   </g>
   <g id="LineCollection_3">
    <path d="M 66.296508 68.726074 
L 66.296508 13.417882 
" clip-path="url(#pb3e888cf86)" style="fill: none; stroke: #0000ff; stroke-width: 1.5"/>
    <path d="M 133.710934 73.489095 
L 133.710934 15.861223 
" clip-path="url(#pb3e888cf86)" style="fill: none; stroke: #0000ff; stroke-width: 1.5"/>
    <path d="M 201.12536 65.812071 
L 201.12536 53.143161 
" clip-path="url(#pb3e888cf86)" style="fill: none; stroke: #0000ff; stroke-width: 1.5"/>
    <path d="M 268.539785 77.197974 
L 268.539785 74.661639 
" clip-path="url(#pb3e888cf86)" style="fill: none; stroke: #0000ff; stroke-width: 1.5"/>
    <path d="M 335.954211 68.482056 
L 335.954211 13.271632 
" clip-path="url(#pb3e888cf86)" style="fill: none; stroke: #0000ff; stroke-width: 1.5"/>
    <path d="M 403.368637 78.060058 
L 403.368637 76.568922 
" clip-path="url(#pb3e888cf86)" style="fill: none; stroke: #0000ff; stroke-width: 1.5"/>
   </g>
   <g id="line2d_23">
    <defs>
     <path id="m040bf00dcf" d="M 1.5 0 
L -1.5 -0 
" style="stroke: #0000ff"/>
    </defs>
    <g clip-path="url(#pb3e888cf86)">
     <use xlink:href="#m040bf00dcf" x="66.296508" y="68.726074" style="fill: #0000ff; stroke: #0000ff"/>
     <use xlink:href="#m040bf00dcf" x="133.710934" y="73.489095" style="fill: #0000ff; stroke: #0000ff"/>
     <use xlink:href="#m040bf00dcf" x="201.12536" y="65.812071" style="fill: #0000ff; stroke: #0000ff"/>
     <use xlink:href="#m040bf00dcf" x="268.539785" y="77.197974" style="fill: #0000ff; stroke: #0000ff"/>
     <use xlink:href="#m040bf00dcf" x="335.954211" y="68.482056" style="fill: #0000ff; stroke: #0000ff"/>
     <use xlink:href="#m040bf00dcf" x="403.368637" y="78.060058" style="fill: #0000ff; stroke: #0000ff"/>
    </g>
   </g>
   <g id="line2d_24">
    <g clip-path="url(#pb3e888cf86)">
     <use xlink:href="#m040bf00dcf" x="66.296508" y="13.417882" style="fill: #0000ff; stroke: #0000ff"/>
     <use xlink:href="#m040bf00dcf" x="133.710934" y="15.861223" style="fill: #0000ff; stroke: #0000ff"/>
     <use xlink:href="#m040bf00dcf" x="201.12536" y="53.143161" style="fill: #0000ff; stroke: #0000ff"/>
     <use xlink:href="#m040bf00dcf" x="268.539785" y="74.661639" style="fill: #0000ff; stroke: #0000ff"/>
     <use xlink:href="#m040bf00dcf" x="335.954211" y="13.271632" style="fill: #0000ff; stroke: #0000ff"/>
     <use xlink:href="#m040bf00dcf" x="403.368637" y="76.568922" style="fill: #0000ff; stroke: #0000ff"/>
    </g>
   </g>
   <g id="line2d_25">
    <defs>
     <path id="md14dcb5d97" d="M 0 3 
C 0.795609 3 1.55874 2.683901 2.12132 2.12132 
C 2.683901 1.55874 3 0.795609 3 0 
C 3 -0.795609 2.683901 -1.55874 2.12132 -2.12132 
C 1.55874 -2.683901 0.795609 -3 0 -3 
C -0.795609 -3 -1.55874 -2.683901 -2.12132 -2.12132 
C -2.683901 -1.55874 -3 -0.795609 -3 0 
C -3 0.795609 -2.683901 1.55874 -2.12132 2.12132 
C -1.55874 2.683901 -0.795609 3 0 3 
z
" style="stroke: #000000"/>
    </defs>
    <g clip-path="url(#pb3e888cf86)">
     <use xlink:href="#md14dcb5d97" x="66.296508" y="41.071978" style="stroke: #000000"/>
     <use xlink:href="#md14dcb5d97" x="133.710934" y="44.675159" style="stroke: #000000"/>
     <use xlink:href="#md14dcb5d97" x="201.12536" y="59.477616" style="stroke: #000000"/>
     <use xlink:href="#md14dcb5d97" x="268.539785" y="75.929807" style="stroke: #000000"/>
     <use xlink:href="#md14dcb5d97" x="335.954211" y="40.876844" style="stroke: #000000"/>
     <use xlink:href="#md14dcb5d97" x="403.368637" y="77.31449" style="stroke: #000000"/>
    </g>
   </g>
   <g id="line2d_26">
    <defs>
     <path id="m2fdaa0b8ec" d="M 0 3 
C 0.795609 3 1.55874 2.683901 2.12132 2.12132 
C 2.683901 1.55874 3 0.795609 3 0 
C 3 -0.795609 2.683901 -1.55874 2.12132 -2.12132 
C 1.55874 -2.683901 0.795609 -3 0 -3 
C -0.795609 -3 -1.55874 -2.683901 -2.12132 -2.12132 
C -2.683901 -1.55874 -3 -0.795609 -3 0 
C -3 0.795609 -2.683901 1.55874 -2.12132 2.12132 
C -1.55874 2.683901 -0.795609 3 0 3 
z
" style="stroke: #ff0000"/>
    </defs>
    <g clip-path="url(#pb3e888cf86)">
     <use xlink:href="#m2fdaa0b8ec" x="66.296508" y="41.071978" style="fill: #ff0000; stroke: #ff0000"/>
     <use xlink:href="#m2fdaa0b8ec" x="133.710934" y="44.675159" style="fill: #ff0000; stroke: #ff0000"/>
     <use xlink:href="#m2fdaa0b8ec" x="201.12536" y="59.477616" style="fill: #ff0000; stroke: #ff0000"/>
     <use xlink:href="#m2fdaa0b8ec" x="268.539785" y="75.929807" style="fill: #ff0000; stroke: #ff0000"/>
     <use xlink:href="#m2fdaa0b8ec" x="335.954211" y="40.876844" style="fill: #ff0000; stroke: #ff0000"/>
     <use xlink:href="#m2fdaa0b8ec" x="403.368637" y="77.31449" style="fill: #ff0000; stroke: #ff0000"/>
    </g>
   </g>
   <g id="line2d_27">
    <defs>
     <path id="m37e514dd09" d="M 0 3 
C 0.795609 3 1.55874 2.683901 2.12132 2.12132 
C 2.683901 1.55874 3 0.795609 3 0 
C 3 -0.795609 2.683901 -1.55874 2.12132 -2.12132 
C 1.55874 -2.683901 0.795609 -3 0 -3 
C -0.795609 -3 -1.55874 -2.683901 -2.12132 -2.12132 
C -2.683901 -1.55874 -3 -0.795609 -3 0 
C -3 0.795609 -2.683901 1.55874 -2.12132 2.12132 
C -1.55874 2.683901 -0.795609 3 0 3 
z
" style="stroke: #0000ff"/>
    </defs>
    <g clip-path="url(#pb3e888cf86)">
     <use xlink:href="#m37e514dd09" x="66.296508" y="41.071978" style="fill: #0000ff; stroke: #0000ff"/>
     <use xlink:href="#m37e514dd09" x="133.710934" y="44.675159" style="fill: #0000ff; stroke: #0000ff"/>
     <use xlink:href="#m37e514dd09" x="201.12536" y="59.477616" style="fill: #0000ff; stroke: #0000ff"/>
     <use xlink:href="#m37e514dd09" x="268.539785" y="75.929807" style="fill: #0000ff; stroke: #0000ff"/>
     <use xlink:href="#m37e514dd09" x="335.954211" y="40.876844" style="fill: #0000ff; stroke: #0000ff"/>
     <use xlink:href="#m37e514dd09" x="403.368637" y="77.31449" style="fill: #0000ff; stroke: #0000ff"/>
    </g>
   </g>
   <g id="patch_9">
    <path d="M 36.465625 80.521395 
L 36.465625 7.2 
" style="fill: none; stroke: #000000; stroke-width: 0.8; stroke-linejoin: miter; stroke-linecap: square"/>
   </g>
   <g id="patch_10">
    <path d="M 433.19952 80.521395 
L 433.19952 7.2 
" style="fill: none; stroke: #000000; stroke-width: 0.8; stroke-linejoin: miter; stroke-linecap: square"/>
   </g>
   <g id="patch_11">
    <path d="M 36.465625 80.521395 
L 433.19952 80.521395 
" style="fill: none; stroke: #000000; stroke-width: 0.8; stroke-linejoin: miter; stroke-linecap: square"/>
   </g>
   <g id="patch_12">
    <path d="M 36.465625 7.2 
L 433.19952 7.2 
" style="fill: none; stroke: #000000; stroke-width: 0.8; stroke-linejoin: miter; stroke-linecap: square"/>
   </g>
  </g>
  <g id="axes_2">
   <g id="patch_13">
    <path d="M 36.465625 176.521395 
L 433.19952 176.521395 
L 433.19952 103.2 
L 36.465625 103.2 
z
" style="fill: #ffffff"/>
   </g>
   <g id="matplotlib.axis_3">
    <g id="xtick_7">
     <g id="line2d_28">
      <path d="M 47.819962 176.521395 
L 47.819962 103.2 
" clip-path="url(#p011d11042e)" style="fill: none; stroke: #b0b0b0; stroke-width: 0.8; stroke-linecap: square"/>
     </g>
     <g id="line2d_29">
      <g>
       <use xlink:href="#m640c948872" x="47.819962" y="176.521395" style="stroke: #000000; stroke-width: 0.8"/>
      </g>
     </g>
     <g id="text_10">
      <!-- −0.2 -->
      <g transform="translate(35.678556 191.119832)scale(0.1 -0.1)">
       <defs>
        <path id="DejaVuSans-2212" d="M 678 2272 
L 4684 2272 
L 4684 1741 
L 678 1741 
L 678 2272 
z
" transform="scale(0.015625)"/>
       </defs>
       <use xlink:href="#DejaVuSans-2212"/>
       <use xlink:href="#DejaVuSans-30" x="83.789062"/>
       <use xlink:href="#DejaVuSans-2e" x="147.412109"/>
       <use xlink:href="#DejaVuSans-32" x="179.199219"/>
      </g>
     </g>
    </g>
    <g id="xtick_8">
     <g id="line2d_30">
      <path d="M 101.252136 176.521395 
L 101.252136 103.2 
" clip-path="url(#p011d11042e)" style="fill: none; stroke: #b0b0b0; stroke-width: 0.8; stroke-linecap: square"/>
     </g>
     <g id="line2d_31">
      <g>
       <use xlink:href="#m640c948872" x="101.252136" y="176.521395" style="stroke: #000000; stroke-width: 0.8"/>
      </g>
     </g>
     <g id="text_11">
      <!-- 0.0 -->
      <g transform="translate(93.300574 191.119832)scale(0.1 -0.1)">
       <use xlink:href="#DejaVuSans-30"/>
       <use xlink:href="#DejaVuSans-2e" x="63.623047"/>
       <use xlink:href="#DejaVuSans-30" x="95.410156"/>
      </g>
     </g>
    </g>
    <g id="xtick_9">
     <g id="line2d_32">
      <path d="M 154.684311 176.521395 
L 154.684311 103.2 
" clip-path="url(#p011d11042e)" style="fill: none; stroke: #b0b0b0; stroke-width: 0.8; stroke-linecap: square"/>
     </g>
     <g id="line2d_33">
      <g>
       <use xlink:href="#m640c948872" x="154.684311" y="176.521395" style="stroke: #000000; stroke-width: 0.8"/>
      </g>
     </g>
     <g id="text_12">
      <!-- 0.2 -->
      <g transform="translate(146.732748 191.119832)scale(0.1 -0.1)">
       <use xlink:href="#DejaVuSans-30"/>
       <use xlink:href="#DejaVuSans-2e" x="63.623047"/>
       <use xlink:href="#DejaVuSans-32" x="95.410156"/>
      </g>
     </g>
    </g>
    <g id="xtick_10">
     <g id="line2d_34">
      <path d="M 208.116485 176.521395 
L 208.116485 103.2 
" clip-path="url(#p011d11042e)" style="fill: none; stroke: #b0b0b0; stroke-width: 0.8; stroke-linecap: square"/>
     </g>
     <g id="line2d_35">
      <g>
       <use xlink:href="#m640c948872" x="208.116485" y="176.521395" style="stroke: #000000; stroke-width: 0.8"/>
      </g>
     </g>
     <g id="text_13">
      <!-- 0.4 -->
      <g transform="translate(200.164923 191.119832)scale(0.1 -0.1)">
       <use xlink:href="#DejaVuSans-30"/>
       <use xlink:href="#DejaVuSans-2e" x="63.623047"/>
       <use xlink:href="#DejaVuSans-34" x="95.410156"/>
      </g>
     </g>
    </g>
    <g id="xtick_11">
     <g id="line2d_36">
      <path d="M 261.54866 176.521395 
L 261.54866 103.2 
" clip-path="url(#p011d11042e)" style="fill: none; stroke: #b0b0b0; stroke-width: 0.8; stroke-linecap: square"/>
     </g>
     <g id="line2d_37">
      <g>
       <use xlink:href="#m640c948872" x="261.54866" y="176.521395" style="stroke: #000000; stroke-width: 0.8"/>
      </g>
     </g>
     <g id="text_14">
      <!-- 0.6 -->
      <g transform="translate(253.597097 191.119832)scale(0.1 -0.1)">
       <defs>
        <path id="DejaVuSans-36" d="M 2113 2584 
Q 1688 2584 1439 2293 
Q 1191 2003 1191 1497 
Q 1191 994 1439 701 
Q 1688 409 2113 409 
Q 2538 409 2786 701 
Q 3034 994 3034 1497 
Q 3034 2003 2786 2293 
Q 2538 2584 2113 2584 
z
M 3366 4563 
L 3366 3988 
Q 3128 4100 2886 4159 
Q 2644 4219 2406 4219 
Q 1781 4219 1451 3797 
Q 1122 3375 1075 2522 
Q 1259 2794 1537 2939 
Q 1816 3084 2150 3084 
Q 2853 3084 3261 2657 
Q 3669 2231 3669 1497 
Q 3669 778 3244 343 
Q 2819 -91 2113 -91 
Q 1303 -91 875 529 
Q 447 1150 447 2328 
Q 447 3434 972 4092 
Q 1497 4750 2381 4750 
Q 2619 4750 2861 4703 
Q 3103 4656 3366 4563 
z
" transform="scale(0.015625)"/>
       </defs>
       <use xlink:href="#DejaVuSans-30"/>
       <use xlink:href="#DejaVuSans-2e" x="63.623047"/>
       <use xlink:href="#DejaVuSans-36" x="95.410156"/>
      </g>
     </g>
    </g>
    <g id="xtick_12">
     <g id="line2d_38">
      <path d="M 314.980834 176.521395 
L 314.980834 103.2 
" clip-path="url(#p011d11042e)" style="fill: none; stroke: #b0b0b0; stroke-width: 0.8; stroke-linecap: square"/>
     </g>
     <g id="line2d_39">
      <g>
       <use xlink:href="#m640c948872" x="314.980834" y="176.521395" style="stroke: #000000; stroke-width: 0.8"/>
      </g>
     </g>
     <g id="text_15">
      <!-- 0.8 -->
      <g transform="translate(307.029272 191.119832)scale(0.1 -0.1)">
       <defs>
        <path id="DejaVuSans-38" d="M 2034 2216 
Q 1584 2216 1326 1975 
Q 1069 1734 1069 1313 
Q 1069 891 1326 650 
Q 1584 409 2034 409 
Q 2484 409 2743 651 
Q 3003 894 3003 1313 
Q 3003 1734 2745 1975 
Q 2488 2216 2034 2216 
z
M 1403 2484 
Q 997 2584 770 2862 
Q 544 3141 544 3541 
Q 544 4100 942 4425 
Q 1341 4750 2034 4750 
Q 2731 4750 3128 4425 
Q 3525 4100 3525 3541 
Q 3525 3141 3298 2862 
Q 3072 2584 2669 2484 
Q 3125 2378 3379 2068 
Q 3634 1759 3634 1313 
Q 3634 634 3220 271 
Q 2806 -91 2034 -91 
Q 1263 -91 848 271 
Q 434 634 434 1313 
Q 434 1759 690 2068 
Q 947 2378 1403 2484 
z
M 1172 3481 
Q 1172 3119 1398 2916 
Q 1625 2713 2034 2713 
Q 2441 2713 2670 2916 
Q 2900 3119 2900 3481 
Q 2900 3844 2670 4047 
Q 2441 4250 2034 4250 
Q 1625 4250 1398 4047 
Q 1172 3844 1172 3481 
z
" transform="scale(0.015625)"/>
       </defs>
       <use xlink:href="#DejaVuSans-30"/>
       <use xlink:href="#DejaVuSans-2e" x="63.623047"/>
       <use xlink:href="#DejaVuSans-38" x="95.410156"/>
      </g>
     </g>
    </g>
    <g id="xtick_13">
     <g id="line2d_40">
      <path d="M 368.413009 176.521395 
L 368.413009 103.2 
" clip-path="url(#p011d11042e)" style="fill: none; stroke: #b0b0b0; stroke-width: 0.8; stroke-linecap: square"/>
     </g>
     <g id="line2d_41">
      <g>
       <use xlink:href="#m640c948872" x="368.413009" y="176.521395" style="stroke: #000000; stroke-width: 0.8"/>
      </g>
     </g>
     <g id="text_16">
      <!-- 1.0 -->
      <g transform="translate(360.461446 191.119832)scale(0.1 -0.1)">
       <use xlink:href="#DejaVuSans-31"/>
       <use xlink:href="#DejaVuSans-2e" x="63.623047"/>
       <use xlink:href="#DejaVuSans-30" x="95.410156"/>
      </g>
     </g>
    </g>
    <g id="xtick_14">
     <g id="line2d_42">
      <path d="M 421.845183 176.521395 
L 421.845183 103.2 
" clip-path="url(#p011d11042e)" style="fill: none; stroke: #b0b0b0; stroke-width: 0.8; stroke-linecap: square"/>
     </g>
     <g id="line2d_43">
      <g>
       <use xlink:href="#m640c948872" x="421.845183" y="176.521395" style="stroke: #000000; stroke-width: 0.8"/>
      </g>
     </g>
     <g id="text_17">
      <!-- 1.2 -->
      <g transform="translate(413.89362 191.119832)scale(0.1 -0.1)">
       <use xlink:href="#DejaVuSans-31"/>
       <use xlink:href="#DejaVuSans-2e" x="63.623047"/>
       <use xlink:href="#DejaVuSans-32" x="95.410156"/>
      </g>
     </g>
    </g>
   </g>
   <g id="matplotlib.axis_4">
    <g id="ytick_4">
     <g id="line2d_44">
      <path d="M 36.465625 168.545773 
L 433.19952 168.545773 
" clip-path="url(#p011d11042e)" style="fill: none; stroke: #b0b0b0; stroke-width: 0.8; stroke-linecap: square"/>
     </g>
     <g id="line2d_45">
      <g>
       <use xlink:href="#ma982c528c6" x="36.465625" y="168.545773" style="stroke: #000000; stroke-width: 0.8"/>
      </g>
     </g>
     <g id="text_18">
      <!-- 0.0 -->
      <g transform="translate(13.5625 172.344992)scale(0.1 -0.1)">
       <use xlink:href="#DejaVuSans-30"/>
       <use xlink:href="#DejaVuSans-2e" x="63.623047"/>
       <use xlink:href="#DejaVuSans-30" x="95.410156"/>
      </g>
     </g>
    </g>
    <g id="ytick_5">
     <g id="line2d_46">
      <path d="M 36.465625 131.700213 
L 433.19952 131.700213 
" clip-path="url(#p011d11042e)" style="fill: none; stroke: #b0b0b0; stroke-width: 0.8; stroke-linecap: square"/>
     </g>
     <g id="line2d_47">
      <g>
       <use xlink:href="#ma982c528c6" x="36.465625" y="131.700213" style="stroke: #000000; stroke-width: 0.8"/>
      </g>
     </g>
     <g id="text_19">
      <!-- 0.5 -->
      <g transform="translate(13.5625 135.499432)scale(0.1 -0.1)">
       <use xlink:href="#DejaVuSans-30"/>
       <use xlink:href="#DejaVuSans-2e" x="63.623047"/>
       <use xlink:href="#DejaVuSans-35" x="95.410156"/>
      </g>
     </g>
    </g>
   </g>
   <g id="patch_14">
    <path d="M 54.498984 168.545773 
L 148.005289 168.545773 
L 148.005289 134.25985 
L 54.498984 134.25985 
z
" clip-path="url(#p011d11042e)" style="fill: #dcdcdc; stroke: #000000; stroke-linejoin: miter"/>
   </g>
   <g id="patch_15">
    <path d="M 321.659856 168.545773 
L 415.166161 168.545773 
L 415.166161 151.661425 
L 321.659856 151.661425 
z
" clip-path="url(#p011d11042e)" style="fill: #dcdcdc; stroke: #000000; stroke-linejoin: miter"/>
   </g>
   <g id="LineCollection_4">
    <path d="M 101.252136 161.98691 
L 101.252136 106.532791 
" clip-path="url(#p011d11042e)" style="fill: none; stroke: #000000; stroke-width: 1.5"/>
    <path d="M 368.413009 173.188604 
L 368.413009 130.134245 
" clip-path="url(#p011d11042e)" style="fill: none; stroke: #000000; stroke-width: 1.5"/>
   </g>
   <g id="line2d_48">
    <g clip-path="url(#p011d11042e)">
     <use xlink:href="#m79021fbac3" x="101.252136" y="161.98691" style="stroke: #000000"/>
     <use xlink:href="#m79021fbac3" x="368.413009" y="173.188604" style="stroke: #000000"/>
    </g>
   </g>
   <g id="line2d_49">
    <g clip-path="url(#p011d11042e)">
     <use xlink:href="#m79021fbac3" x="101.252136" y="106.532791" style="stroke: #000000"/>
     <use xlink:href="#m79021fbac3" x="368.413009" y="130.134245" style="stroke: #000000"/>
    </g>
   </g>
   <g id="LineCollection_5">
    <path d="M 101.252136 142.712199 
L 101.252136 125.807501 
" clip-path="url(#p011d11042e)" style="fill: none; stroke: #ff0000; stroke-width: 1.5"/>
    <path d="M 368.413009 158.223795 
L 368.413009 145.099054 
" clip-path="url(#p011d11042e)" style="fill: none; stroke: #ff0000; stroke-width: 1.5"/>
   </g>
   <g id="line2d_50">
    <g clip-path="url(#p011d11042e)">
     <use xlink:href="#mba883cec1d" x="101.252136" y="142.712199" style="fill: #ff0000; stroke: #ff0000"/>
     <use xlink:href="#mba883cec1d" x="368.413009" y="158.223795" style="fill: #ff0000; stroke: #ff0000"/>
    </g>
   </g>
   <g id="line2d_51">
    <g clip-path="url(#p011d11042e)">
     <use xlink:href="#mba883cec1d" x="101.252136" y="125.807501" style="fill: #ff0000; stroke: #ff0000"/>
     <use xlink:href="#mba883cec1d" x="368.413009" y="145.099054" style="fill: #ff0000; stroke: #ff0000"/>
    </g>
   </g>
   <g id="LineCollection_6">
    <path d="M 101.252136 159.616898 
L 101.252136 108.902802 
" clip-path="url(#p011d11042e)" style="fill: none; stroke: #0000ff; stroke-width: 1.5"/>
    <path d="M 368.413009 171.348537 
L 368.413009 131.974312 
" clip-path="url(#p011d11042e)" style="fill: none; stroke: #0000ff; stroke-width: 1.5"/>
   </g>
   <g id="line2d_52">
    <g clip-path="url(#p011d11042e)">
     <use xlink:href="#m040bf00dcf" x="101.252136" y="159.616898" style="fill: #0000ff; stroke: #0000ff"/>
     <use xlink:href="#m040bf00dcf" x="368.413009" y="171.348537" style="fill: #0000ff; stroke: #0000ff"/>
    </g>
   </g>
   <g id="line2d_53">
    <g clip-path="url(#p011d11042e)">
     <use xlink:href="#m040bf00dcf" x="101.252136" y="108.902802" style="fill: #0000ff; stroke: #0000ff"/>
     <use xlink:href="#m040bf00dcf" x="368.413009" y="131.974312" style="fill: #0000ff; stroke: #0000ff"/>
    </g>
   </g>
   <g id="line2d_54">
    <g clip-path="url(#p011d11042e)">
     <use xlink:href="#md14dcb5d97" x="101.252136" y="134.25985" style="stroke: #000000"/>
     <use xlink:href="#md14dcb5d97" x="368.413009" y="151.661425" style="stroke: #000000"/>
    </g>
   </g>
   <g id="line2d_55">
    <g clip-path="url(#p011d11042e)">
     <use xlink:href="#m2fdaa0b8ec" x="101.252136" y="134.25985" style="fill: #ff0000; stroke: #ff0000"/>
     <use xlink:href="#m2fdaa0b8ec" x="368.413009" y="151.661425" style="fill: #ff0000; stroke: #ff0000"/>
    </g>
   </g>
   <g id="line2d_56">
    <g clip-path="url(#p011d11042e)">
     <use xlink:href="#m37e514dd09" x="101.252136" y="134.25985" style="fill: #0000ff; stroke: #0000ff"/>
     <use xlink:href="#m37e514dd09" x="368.413009" y="151.661425" style="fill: #0000ff; stroke: #0000ff"/>
    </g>
   </g>
   <g id="patch_16">
    <path d="M 36.465625 176.521395 
L 36.465625 103.2 
" style="fill: none; stroke: #000000; stroke-width: 0.8; stroke-linejoin: miter; stroke-linecap: square"/>
   </g>
   <g id="patch_17">
    <path d="M 433.19952 176.521395 
L 433.19952 103.2 
" style="fill: none; stroke: #000000; stroke-width: 0.8; stroke-linejoin: miter; stroke-linecap: square"/>
   </g>
   <g id="patch_18">
    <path d="M 36.465625 176.521395 
L 433.19952 176.521395 
" style="fill: none; stroke: #000000; stroke-width: 0.8; stroke-linejoin: miter; stroke-linecap: square"/>
   </g>
   <g id="patch_19">
    <path d="M 36.465625 103.2 
L 433.19952 103.2 
" style="fill: none; stroke: #000000; stroke-width: 0.8; stroke-linejoin: miter; stroke-linecap: square"/>
   </g>
  </g>
  <g id="axes_3">
   <g id="patch_20">
    <path d="M 36.465625 272.521395 
L 433.19952 272.521395 
L 433.19952 199.2 
L 36.465625 199.2 
z
" style="fill: #ffffff"/>
   </g>
   <g id="matplotlib.axis_5">
    <g id="xtick_15">
     <g id="line2d_57">
      <path d="M 80.260925 272.521395 
L 80.260925 199.2 
" clip-path="url(#p22be8f6cb5)" style="fill: none; stroke: #b0b0b0; stroke-width: 0.8; stroke-linecap: square"/>
     </g>
     <g id="line2d_58">
      <g>
       <use xlink:href="#m640c948872" x="80.260925" y="272.521395" style="stroke: #000000; stroke-width: 0.8"/>
      </g>
     </g>
     <g id="text_20">
      <!-- −0.15 -->
      <g transform="translate(64.938269 287.119832)scale(0.1 -0.1)">
       <use xlink:href="#DejaVuSans-2212"/>
       <use xlink:href="#DejaVuSans-30" x="83.789062"/>
       <use xlink:href="#DejaVuSans-2e" x="147.412109"/>
       <use xlink:href="#DejaVuSans-31" x="179.199219"/>
       <use xlink:href="#DejaVuSans-35" x="242.822266"/>
      </g>
     </g>
    </g>
    <g id="xtick_16">
     <g id="line2d_59">
      <path d="M 131.784808 272.521395 
L 131.784808 199.2 
" clip-path="url(#p22be8f6cb5)" style="fill: none; stroke: #b0b0b0; stroke-width: 0.8; stroke-linecap: square"/>
     </g>
     <g id="line2d_60">
      <g>
       <use xlink:href="#m640c948872" x="131.784808" y="272.521395" style="stroke: #000000; stroke-width: 0.8"/>
      </g>
     </g>
     <g id="text_21">
      <!-- −0.10 -->
      <g transform="translate(116.462151 287.119832)scale(0.1 -0.1)">
       <use xlink:href="#DejaVuSans-2212"/>
       <use xlink:href="#DejaVuSans-30" x="83.789062"/>
       <use xlink:href="#DejaVuSans-2e" x="147.412109"/>
       <use xlink:href="#DejaVuSans-31" x="179.199219"/>
       <use xlink:href="#DejaVuSans-30" x="242.822266"/>
      </g>
     </g>
    </g>
    <g id="xtick_17">
     <g id="line2d_61">
      <path d="M 183.30869 272.521395 
L 183.30869 199.2 
" clip-path="url(#p22be8f6cb5)" style="fill: none; stroke: #b0b0b0; stroke-width: 0.8; stroke-linecap: square"/>
     </g>
     <g id="line2d_62">
      <g>
       <use xlink:href="#m640c948872" x="183.30869" y="272.521395" style="stroke: #000000; stroke-width: 0.8"/>
      </g>
     </g>
     <g id="text_22">
      <!-- −0.05 -->
      <g transform="translate(167.986034 287.119832)scale(0.1 -0.1)">
       <use xlink:href="#DejaVuSans-2212"/>
       <use xlink:href="#DejaVuSans-30" x="83.789062"/>
       <use xlink:href="#DejaVuSans-2e" x="147.412109"/>
       <use xlink:href="#DejaVuSans-30" x="179.199219"/>
       <use xlink:href="#DejaVuSans-35" x="242.822266"/>
      </g>
     </g>
    </g>
    <g id="xtick_18">
     <g id="line2d_63">
      <path d="M 234.832573 272.521395 
L 234.832573 199.2 
" clip-path="url(#p22be8f6cb5)" style="fill: none; stroke: #b0b0b0; stroke-width: 0.8; stroke-linecap: square"/>
     </g>
     <g id="line2d_64">
      <g>
       <use xlink:href="#m640c948872" x="234.832573" y="272.521395" style="stroke: #000000; stroke-width: 0.8"/>
      </g>
     </g>
     <g id="text_23">
      <!-- 0.00 -->
      <g transform="translate(223.69976 287.119832)scale(0.1 -0.1)">
       <use xlink:href="#DejaVuSans-30"/>
       <use xlink:href="#DejaVuSans-2e" x="63.623047"/>
       <use xlink:href="#DejaVuSans-30" x="95.410156"/>
       <use xlink:href="#DejaVuSans-30" x="159.033203"/>
      </g>
     </g>
    </g>
    <g id="xtick_19">
     <g id="line2d_65">
      <path d="M 286.356455 272.521395 
L 286.356455 199.2 
" clip-path="url(#p22be8f6cb5)" style="fill: none; stroke: #b0b0b0; stroke-width: 0.8; stroke-linecap: square"/>
     </g>
     <g id="line2d_66">
      <g>
       <use xlink:href="#m640c948872" x="286.356455" y="272.521395" style="stroke: #000000; stroke-width: 0.8"/>
      </g>
     </g>
     <g id="text_24">
      <!-- 0.05 -->
      <g transform="translate(275.223642 287.119832)scale(0.1 -0.1)">
       <use xlink:href="#DejaVuSans-30"/>
       <use xlink:href="#DejaVuSans-2e" x="63.623047"/>
       <use xlink:href="#DejaVuSans-30" x="95.410156"/>
       <use xlink:href="#DejaVuSans-35" x="159.033203"/>
      </g>
     </g>
    </g>
    <g id="xtick_20">
     <g id="line2d_67">
      <path d="M 337.880337 272.521395 
L 337.880337 199.2 
" clip-path="url(#p22be8f6cb5)" style="fill: none; stroke: #b0b0b0; stroke-width: 0.8; stroke-linecap: square"/>
     </g>
     <g id="line2d_68">
      <g>
       <use xlink:href="#m640c948872" x="337.880337" y="272.521395" style="stroke: #000000; stroke-width: 0.8"/>
      </g>
     </g>
     <g id="text_25">
      <!-- 0.10 -->
      <g transform="translate(326.747525 287.119832)scale(0.1 -0.1)">
       <use xlink:href="#DejaVuSans-30"/>
       <use xlink:href="#DejaVuSans-2e" x="63.623047"/>
       <use xlink:href="#DejaVuSans-31" x="95.410156"/>
       <use xlink:href="#DejaVuSans-30" x="159.033203"/>
      </g>
     </g>
    </g>
    <g id="xtick_21">
     <g id="line2d_69">
      <path d="M 389.40422 272.521395 
L 389.40422 199.2 
" clip-path="url(#p22be8f6cb5)" style="fill: none; stroke: #b0b0b0; stroke-width: 0.8; stroke-linecap: square"/>
     </g>
     <g id="line2d_70">
      <g>
       <use xlink:href="#m640c948872" x="389.40422" y="272.521395" style="stroke: #000000; stroke-width: 0.8"/>
      </g>
     </g>
     <g id="text_26">
      <!-- 0.15 -->
      <g transform="translate(378.271407 287.119832)scale(0.1 -0.1)">
       <use xlink:href="#DejaVuSans-30"/>
       <use xlink:href="#DejaVuSans-2e" x="63.623047"/>
       <use xlink:href="#DejaVuSans-31" x="95.410156"/>
       <use xlink:href="#DejaVuSans-35" x="159.033203"/>
      </g>
     </g>
    </g>
   </g>
   <g id="matplotlib.axis_6">
    <g id="ytick_6">
     <g id="line2d_71">
      <path d="M 36.465625 272.521395 
L 433.19952 272.521395 
" clip-path="url(#p22be8f6cb5)" style="fill: none; stroke: #b0b0b0; stroke-width: 0.8; stroke-linecap: square"/>
     </g>
     <g id="line2d_72">
      <g>
       <use xlink:href="#ma982c528c6" x="36.465625" y="272.521395" style="stroke: #000000; stroke-width: 0.8"/>
      </g>
     </g>
     <g id="text_27">
      <!-- 0.00 -->
      <g transform="translate(7.2 276.320614)scale(0.1 -0.1)">
       <use xlink:href="#DejaVuSans-30"/>
       <use xlink:href="#DejaVuSans-2e" x="63.623047"/>
       <use xlink:href="#DejaVuSans-30" x="95.410156"/>
       <use xlink:href="#DejaVuSans-30" x="159.033203"/>
      </g>
     </g>
    </g>
    <g id="ytick_7">
     <g id="line2d_73">
      <path d="M 36.465625 247.270777 
L 433.19952 247.270777 
" clip-path="url(#p22be8f6cb5)" style="fill: none; stroke: #b0b0b0; stroke-width: 0.8; stroke-linecap: square"/>
     </g>
     <g id="line2d_74">
      <g>
       <use xlink:href="#ma982c528c6" x="36.465625" y="247.270777" style="stroke: #000000; stroke-width: 0.8"/>
      </g>
     </g>
     <g id="text_28">
      <!-- 0.25 -->
      <g transform="translate(7.2 251.069995)scale(0.1 -0.1)">
       <use xlink:href="#DejaVuSans-30"/>
       <use xlink:href="#DejaVuSans-2e" x="63.623047"/>
       <use xlink:href="#DejaVuSans-32" x="95.410156"/>
       <use xlink:href="#DejaVuSans-35" x="159.033203"/>
      </g>
     </g>
    </g>
    <g id="ytick_8">
     <g id="line2d_75">
      <path d="M 36.465625 222.020158 
L 433.19952 222.020158 
" clip-path="url(#p22be8f6cb5)" style="fill: none; stroke: #b0b0b0; stroke-width: 0.8; stroke-linecap: square"/>
     </g>
     <g id="line2d_76">
      <g>
       <use xlink:href="#ma982c528c6" x="36.465625" y="222.020158" style="stroke: #000000; stroke-width: 0.8"/>
      </g>
     </g>
     <g id="text_29">
      <!-- 0.50 -->
      <g transform="translate(7.2 225.819377)scale(0.1 -0.1)">
       <use xlink:href="#DejaVuSans-30"/>
       <use xlink:href="#DejaVuSans-2e" x="63.623047"/>
       <use xlink:href="#DejaVuSans-35" x="95.410156"/>
       <use xlink:href="#DejaVuSans-30" x="159.033203"/>
      </g>
     </g>
    </g>
   </g>
   <g id="patch_21">
    <path d="M 54.498984 272.521395 
L 415.166161 272.521395 
L 415.166161 237.453913 
L 54.498984 237.453913 
z
" clip-path="url(#p22be8f6cb5)" style="fill: #dcdcdc; stroke: #000000; stroke-linejoin: miter"/>
   </g>
   <g id="LineCollection_7">
    <path d="M 234.832573 272.216331 
L 234.832573 202.691495 
" clip-path="url(#p22be8f6cb5)" style="fill: none; stroke: #000000; stroke-width: 1.5"/>
   </g>
   <g id="line2d_77">
    <g clip-path="url(#p22be8f6cb5)">
     <use xlink:href="#m79021fbac3" x="234.832573" y="272.216331" style="stroke: #000000"/>
    </g>
   </g>
   <g id="line2d_78">
    <g clip-path="url(#p22be8f6cb5)">
     <use xlink:href="#m79021fbac3" x="234.832573" y="202.691495" style="stroke: #000000"/>
    </g>
   </g>
   <g id="LineCollection_8">
    <path d="M 234.832573 248.050929 
L 234.832573 226.856897 
" clip-path="url(#p22be8f6cb5)" style="fill: none; stroke: #ff0000; stroke-width: 1.5"/>
   </g>
   <g id="line2d_79">
    <g clip-path="url(#p22be8f6cb5)">
     <use xlink:href="#mba883cec1d" x="234.832573" y="248.050929" style="fill: #ff0000; stroke: #ff0000"/>
    </g>
   </g>
   <g id="line2d_80">
    <g clip-path="url(#p22be8f6cb5)">
     <use xlink:href="#mba883cec1d" x="234.832573" y="226.856897" style="fill: #ff0000; stroke: #ff0000"/>
    </g>
   </g>
   <g id="LineCollection_9">
    <path d="M 234.832573 269.244962 
L 234.832573 205.662864 
" clip-path="url(#p22be8f6cb5)" style="fill: none; stroke: #0000ff; stroke-width: 1.5"/>
   </g>
   <g id="line2d_81">
    <g clip-path="url(#p22be8f6cb5)">
     <use xlink:href="#m040bf00dcf" x="234.832573" y="269.244962" style="fill: #0000ff; stroke: #0000ff"/>
    </g>
   </g>
   <g id="line2d_82">
    <g clip-path="url(#p22be8f6cb5)">
     <use xlink:href="#m040bf00dcf" x="234.832573" y="205.662864" style="fill: #0000ff; stroke: #0000ff"/>
    </g>
   </g>
   <g id="line2d_83">
    <g clip-path="url(#p22be8f6cb5)">
     <use xlink:href="#md14dcb5d97" x="234.832573" y="237.453913" style="stroke: #000000"/>
    </g>
   </g>
   <g id="line2d_84">
    <g clip-path="url(#p22be8f6cb5)">
     <use xlink:href="#m2fdaa0b8ec" x="234.832573" y="237.453913" style="fill: #ff0000; stroke: #ff0000"/>
    </g>
   </g>
   <g id="line2d_85">
    <g clip-path="url(#p22be8f6cb5)">
     <use xlink:href="#m37e514dd09" x="234.832573" y="237.453913" style="fill: #0000ff; stroke: #0000ff"/>
    </g>
   </g>
   <g id="patch_22">
    <path d="M 36.465625 272.521395 
L 36.465625 199.2 
" style="fill: none; stroke: #000000; stroke-width: 0.8; stroke-linejoin: miter; stroke-linecap: square"/>
   </g>
   <g id="patch_23">
    <path d="M 433.19952 272.521395 
L 433.19952 199.2 
" style="fill: none; stroke: #000000; stroke-width: 0.8; stroke-linejoin: miter; stroke-linecap: square"/>
   </g>
   <g id="patch_24">
    <path d="M 36.465625 272.521395 
L 433.19952 272.521395 
" style="fill: none; stroke: #000000; stroke-width: 0.8; stroke-linejoin: miter; stroke-linecap: square"/>
   </g>
   <g id="patch_25">
    <path d="M 36.465625 199.2 
L 433.19952 199.2 
" style="fill: none; stroke: #000000; stroke-width: 0.8; stroke-linejoin: miter; stroke-linecap: square"/>
   </g>
  </g>
 </g>
 <defs>
  <clipPath id="pb3e888cf86">
   <rect x="36.465625" y="7.2" width="396.733895" height="73.321395"/>
  </clipPath>
  <clipPath id="p011d11042e">
   <rect x="36.465625" y="103.2" width="396.733895" height="73.321395"/>
  </clipPath>
  <clipPath id="p22be8f6cb5">
   <rect x="36.465625" y="199.2" width="396.733895" height="73.321395"/>
  </clipPath>
 </defs>
</svg>
