<?xml version="1.0" encoding="utf-8" standalone="no"?>
<!DOCTYPE svg PUBLIC "-//W3C//DTD SVG 1.1//EN"
  "http://www.w3.org/Graphics/SVG/1.1/DTD/svg11.dtd">
<svg xmlns:xlink="http://www.w3.org/1999/xlink" width="380.482813pt" height="248.518125pt" viewBox="0 0 380.482813 248.518125" xmlns="http://www.w3.org/2000/svg" version="1.1">
 <metadata>
  <rdf:RDF xmlns:dc="http://purl.org/dc/elements/1.1/" xmlns:cc="http://creativecommons.org/ns#" xmlns:rdf="http://www.w3.org/1999/02/22-rdf-syntax-ns#">
   <cc:Work>
    <dc:type rdf:resource="http://purl.org/dc/dcmitype/StillImage"/>
    <dc:date>2022-01-21T18:43:53.621768</dc:date>
    <dc:format>image/svg+xml</dc:format>
    <dc:creator>
     <cc:Agent>
      <dc:title>Matplotlib v3.5.1, https://matplotlib.org/</dc:title>
     </cc:Agent>
    </dc:creator>
   </cc:Work>
  </rdf:RDF>
 </metadata>
 <defs>
  <style type="text/css">*{stroke-linejoin: round; stroke-linecap: butt}</style>
 </defs>
 <g id="figure_1">
  <g id="patch_1">
   <path d="M -0 248.518125 
L 380.482813 248.518125 
L 380.482813 0 
L -0 0 
L -0 248.518125 
z
" style="fill: none"/>
  </g>
  <g id="axes_1">
   <g id="patch_2">
    <path d="M 38.482813 224.64 
L 373.282813 224.64 
L 373.282813 7.2 
L 38.482813 7.2 
z
" style="fill: #ffffff"/>
   </g>
   <g id="matplotlib.axis_1">
    <g id="xtick_1">
     <g id="line2d_1">
      <path d="M 40.173722 224.64 
L 40.173722 7.2 
" clip-path="url(#pfaf26fc12e)" style="fill: none; stroke: #b0b0b0; stroke-width: 0.8; stroke-linecap: square"/>
     </g>
     <g id="line2d_2">
      <defs>
       <path id="mfe68f28614" d="M 0 0 
L 0 3.5 
" style="stroke: #000000; stroke-width: 0.8"/>
      </defs>
      <g>
       <use xlink:href="#mfe68f28614" x="40.173722" y="224.64" style="stroke: #000000; stroke-width: 0.8"/>
      </g>
     </g>
     <g id="text_1">
      <!-- −0.4 -->
      <g transform="translate(28.032315 239.238437)scale(0.1 -0.1)">
       <defs>
        <path id="DejaVuSans-2212" d="M 678 2272 
L 4684 2272 
L 4684 1741 
L 678 1741 
L 678 2272 
z
" transform="scale(0.015625)"/>
        <path id="DejaVuSans-30" d="M 2034 4250 
Q 1547 4250 1301 3770 
Q 1056 3291 1056 2328 
Q 1056 1369 1301 889 
Q 1547 409 2034 409 
Q 2525 409 2770 889 
Q 3016 1369 3016 2328 
Q 3016 3291 2770 3770 
Q 2525 4250 2034 4250 
z
M 2034 4750 
Q 2819 4750 3233 4129 
Q 3647 3509 3647 2328 
Q 3647 1150 3233 529 
Q 2819 -91 2034 -91 
Q 1250 -91 836 529 
Q 422 1150 422 2328 
Q 422 3509 836 4129 
Q 1250 4750 2034 4750 
z
" transform="scale(0.015625)"/>
        <path id="DejaVuSans-2e" d="M 684 794 
L 1344 794 
L 1344 0 
L 684 0 
L 684 794 
z
" transform="scale(0.015625)"/>
        <path id="DejaVuSans-34" d="M 2419 4116 
L 825 1625 
L 2419 1625 
L 2419 4116 
z
M 2253 4666 
L 3047 4666 
L 3047 1625 
L 3713 1625 
L 3713 1100 
L 3047 1100 
L 3047 0 
L 2419 0 
L 2419 1100 
L 313 1100 
L 313 1709 
L 2253 4666 
z
" transform="scale(0.015625)"/>
       </defs>
       <use xlink:href="#DejaVuSans-2212"/>
       <use xlink:href="#DejaVuSans-30" x="83.789062"/>
       <use xlink:href="#DejaVuSans-2e" x="147.412109"/>
       <use xlink:href="#DejaVuSans-34" x="179.199219"/>
      </g>
     </g>
    </g>
    <g id="xtick_2">
     <g id="line2d_3">
      <path d="M 107.810085 224.64 
L 107.810085 7.2 
" clip-path="url(#pfaf26fc12e)" style="fill: none; stroke: #b0b0b0; stroke-width: 0.8; stroke-linecap: square"/>
     </g>
     <g id="line2d_4">
      <g>
       <use xlink:href="#mfe68f28614" x="107.810085" y="224.64" style="stroke: #000000; stroke-width: 0.8"/>
      </g>
     </g>
     <g id="text_2">
      <!-- −0.2 -->
      <g transform="translate(95.668679 239.238437)scale(0.1 -0.1)">
       <defs>
        <path id="DejaVuSans-32" d="M 1228 531 
L 3431 531 
L 3431 0 
L 469 0 
L 469 531 
Q 828 903 1448 1529 
Q 2069 2156 2228 2338 
Q 2531 2678 2651 2914 
Q 2772 3150 2772 3378 
Q 2772 3750 2511 3984 
Q 2250 4219 1831 4219 
Q 1534 4219 1204 4116 
Q 875 4013 500 3803 
L 500 4441 
Q 881 4594 1212 4672 
Q 1544 4750 1819 4750 
Q 2544 4750 2975 4387 
Q 3406 4025 3406 3419 
Q 3406 3131 3298 2873 
Q 3191 2616 2906 2266 
Q 2828 2175 2409 1742 
Q 1991 1309 1228 531 
z
" transform="scale(0.015625)"/>
       </defs>
       <use xlink:href="#DejaVuSans-2212"/>
       <use xlink:href="#DejaVuSans-30" x="83.789062"/>
       <use xlink:href="#DejaVuSans-2e" x="147.412109"/>
       <use xlink:href="#DejaVuSans-32" x="179.199219"/>
      </g>
     </g>
    </g>
    <g id="xtick_3">
     <g id="line2d_5">
      <path d="M 175.446449 224.64 
L 175.446449 7.2 
" clip-path="url(#pfaf26fc12e)" style="fill: none; stroke: #b0b0b0; stroke-width: 0.8; stroke-linecap: square"/>
     </g>
     <g id="line2d_6">
      <g>
       <use xlink:href="#mfe68f28614" x="175.446449" y="224.64" style="stroke: #000000; stroke-width: 0.8"/>
      </g>
     </g>
     <g id="text_3">
      <!-- 0.0 -->
      <g transform="translate(167.494886 239.238437)scale(0.1 -0.1)">
       <use xlink:href="#DejaVuSans-30"/>
       <use xlink:href="#DejaVuSans-2e" x="63.623047"/>
       <use xlink:href="#DejaVuSans-30" x="95.410156"/>
      </g>
     </g>
    </g>
    <g id="xtick_4">
     <g id="line2d_7">
      <path d="M 243.082812 224.64 
L 243.082812 7.2 
" clip-path="url(#pfaf26fc12e)" style="fill: none; stroke: #b0b0b0; stroke-width: 0.8; stroke-linecap: square"/>
     </g>
     <g id="line2d_8">
      <g>
       <use xlink:href="#mfe68f28614" x="243.082812" y="224.64" style="stroke: #000000; stroke-width: 0.8"/>
      </g>
     </g>
     <g id="text_4">
      <!-- 0.2 -->
      <g transform="translate(235.13125 239.238437)scale(0.1 -0.1)">
       <use xlink:href="#DejaVuSans-30"/>
       <use xlink:href="#DejaVuSans-2e" x="63.623047"/>
       <use xlink:href="#DejaVuSans-32" x="95.410156"/>
      </g>
     </g>
    </g>
    <g id="xtick_5">
     <g id="line2d_9">
      <path d="M 310.719176 224.64 
L 310.719176 7.2 
" clip-path="url(#pfaf26fc12e)" style="fill: none; stroke: #b0b0b0; stroke-width: 0.8; stroke-linecap: square"/>
     </g>
     <g id="line2d_10">
      <g>
       <use xlink:href="#mfe68f28614" x="310.719176" y="224.64" style="stroke: #000000; stroke-width: 0.8"/>
      </g>
     </g>
     <g id="text_5">
      <!-- 0.4 -->
      <g transform="translate(302.767614 239.238437)scale(0.1 -0.1)">
       <use xlink:href="#DejaVuSans-30"/>
       <use xlink:href="#DejaVuSans-2e" x="63.623047"/>
       <use xlink:href="#DejaVuSans-34" x="95.410156"/>
      </g>
     </g>
    </g>
   </g>
   <g id="matplotlib.axis_2">
    <g id="ytick_1">
     <g id="line2d_11">
      <path d="M 38.482813 219.89072 
L 373.282813 219.89072 
" clip-path="url(#pfaf26fc12e)" style="fill: none; stroke: #b0b0b0; stroke-width: 0.8; stroke-linecap: square"/>
     </g>
     <g id="line2d_12">
      <defs>
       <path id="m4242fffe1c" d="M 0 0 
L -3.5 0 
" style="stroke: #000000; stroke-width: 0.8"/>
      </defs>
      <g>
       <use xlink:href="#m4242fffe1c" x="38.482813" y="219.89072" style="stroke: #000000; stroke-width: 0.8"/>
      </g>
     </g>
     <g id="text_6">
      <!-- −0.1 -->
      <g transform="translate(7.2 223.689939)scale(0.1 -0.1)">
       <defs>
        <path id="DejaVuSans-31" d="M 794 531 
L 1825 531 
L 1825 4091 
L 703 3866 
L 703 4441 
L 1819 4666 
L 2450 4666 
L 2450 531 
L 3481 531 
L 3481 0 
L 794 0 
L 794 531 
z
" transform="scale(0.015625)"/>
       </defs>
       <use xlink:href="#DejaVuSans-2212"/>
       <use xlink:href="#DejaVuSans-30" x="83.789062"/>
       <use xlink:href="#DejaVuSans-2e" x="147.412109"/>
       <use xlink:href="#DejaVuSans-31" x="179.199219"/>
      </g>
     </g>
    </g>
    <g id="ytick_2">
     <g id="line2d_13">
      <path d="M 38.482813 194.218937 
L 373.282813 194.218937 
" clip-path="url(#pfaf26fc12e)" style="fill: none; stroke: #b0b0b0; stroke-width: 0.8; stroke-linecap: square"/>
     </g>
     <g id="line2d_14">
      <g>
       <use xlink:href="#m4242fffe1c" x="38.482813" y="194.218937" style="stroke: #000000; stroke-width: 0.8"/>
      </g>
     </g>
     <g id="text_7">
      <!-- 0.0 -->
      <g transform="translate(15.579688 198.018156)scale(0.1 -0.1)">
       <use xlink:href="#DejaVuSans-30"/>
       <use xlink:href="#DejaVuSans-2e" x="63.623047"/>
       <use xlink:href="#DejaVuSans-30" x="95.410156"/>
      </g>
     </g>
    </g>
    <g id="ytick_3">
     <g id="line2d_15">
      <path d="M 38.482813 168.547155 
L 373.282813 168.547155 
" clip-path="url(#pfaf26fc12e)" style="fill: none; stroke: #b0b0b0; stroke-width: 0.8; stroke-linecap: square"/>
     </g>
     <g id="line2d_16">
      <g>
       <use xlink:href="#m4242fffe1c" x="38.482813" y="168.547155" style="stroke: #000000; stroke-width: 0.8"/>
      </g>
     </g>
     <g id="text_8">
      <!-- 0.1 -->
      <g transform="translate(15.579688 172.346373)scale(0.1 -0.1)">
       <use xlink:href="#DejaVuSans-30"/>
       <use xlink:href="#DejaVuSans-2e" x="63.623047"/>
       <use xlink:href="#DejaVuSans-31" x="95.410156"/>
      </g>
     </g>
    </g>
    <g id="ytick_4">
     <g id="line2d_17">
      <path d="M 38.482813 142.875372 
L 373.282813 142.875372 
" clip-path="url(#pfaf26fc12e)" style="fill: none; stroke: #b0b0b0; stroke-width: 0.8; stroke-linecap: square"/>
     </g>
     <g id="line2d_18">
      <g>
       <use xlink:href="#m4242fffe1c" x="38.482813" y="142.875372" style="stroke: #000000; stroke-width: 0.8"/>
      </g>
     </g>
     <g id="text_9">
      <!-- 0.2 -->
      <g transform="translate(15.579688 146.674591)scale(0.1 -0.1)">
       <use xlink:href="#DejaVuSans-30"/>
       <use xlink:href="#DejaVuSans-2e" x="63.623047"/>
       <use xlink:href="#DejaVuSans-32" x="95.410156"/>
      </g>
     </g>
    </g>
    <g id="ytick_5">
     <g id="line2d_19">
      <path d="M 38.482813 117.203589 
L 373.282813 117.203589 
" clip-path="url(#pfaf26fc12e)" style="fill: none; stroke: #b0b0b0; stroke-width: 0.8; stroke-linecap: square"/>
     </g>
     <g id="line2d_20">
      <g>
       <use xlink:href="#m4242fffe1c" x="38.482813" y="117.203589" style="stroke: #000000; stroke-width: 0.8"/>
      </g>
     </g>
     <g id="text_10">
      <!-- 0.3 -->
      <g transform="translate(15.579688 121.002808)scale(0.1 -0.1)">
       <defs>
        <path id="DejaVuSans-33" d="M 2597 2516 
Q 3050 2419 3304 2112 
Q 3559 1806 3559 1356 
Q 3559 666 3084 287 
Q 2609 -91 1734 -91 
Q 1441 -91 1130 -33 
Q 819 25 488 141 
L 488 750 
Q 750 597 1062 519 
Q 1375 441 1716 441 
Q 2309 441 2620 675 
Q 2931 909 2931 1356 
Q 2931 1769 2642 2001 
Q 2353 2234 1838 2234 
L 1294 2234 
L 1294 2753 
L 1863 2753 
Q 2328 2753 2575 2939 
Q 2822 3125 2822 3475 
Q 2822 3834 2567 4026 
Q 2313 4219 1838 4219 
Q 1578 4219 1281 4162 
Q 984 4106 628 3988 
L 628 4550 
Q 988 4650 1302 4700 
Q 1616 4750 1894 4750 
Q 2613 4750 3031 4423 
Q 3450 4097 3450 3541 
Q 3450 3153 3228 2886 
Q 3006 2619 2597 2516 
z
" transform="scale(0.015625)"/>
       </defs>
       <use xlink:href="#DejaVuSans-30"/>
       <use xlink:href="#DejaVuSans-2e" x="63.623047"/>
       <use xlink:href="#DejaVuSans-33" x="95.410156"/>
      </g>
     </g>
    </g>
    <g id="ytick_6">
     <g id="line2d_21">
      <path d="M 38.482813 91.531806 
L 373.282813 91.531806 
" clip-path="url(#pfaf26fc12e)" style="fill: none; stroke: #b0b0b0; stroke-width: 0.8; stroke-linecap: square"/>
     </g>
     <g id="line2d_22">
      <g>
       <use xlink:href="#m4242fffe1c" x="38.482813" y="91.531806" style="stroke: #000000; stroke-width: 0.8"/>
      </g>
     </g>
     <g id="text_11">
      <!-- 0.4 -->
      <g transform="translate(15.579688 95.331025)scale(0.1 -0.1)">
       <use xlink:href="#DejaVuSans-30"/>
       <use xlink:href="#DejaVuSans-2e" x="63.623047"/>
       <use xlink:href="#DejaVuSans-34" x="95.410156"/>
      </g>
     </g>
    </g>
    <g id="ytick_7">
     <g id="line2d_23">
      <path d="M 38.482813 65.860024 
L 373.282813 65.860024 
" clip-path="url(#pfaf26fc12e)" style="fill: none; stroke: #b0b0b0; stroke-width: 0.8; stroke-linecap: square"/>
     </g>
     <g id="line2d_24">
      <g>
       <use xlink:href="#m4242fffe1c" x="38.482813" y="65.860024" style="stroke: #000000; stroke-width: 0.8"/>
      </g>
     </g>
     <g id="text_12">
      <!-- 0.5 -->
      <g transform="translate(15.579688 69.659242)scale(0.1 -0.1)">
       <defs>
        <path id="DejaVuSans-35" d="M 691 4666 
L 3169 4666 
L 3169 4134 
L 1269 4134 
L 1269 2991 
Q 1406 3038 1543 3061 
Q 1681 3084 1819 3084 
Q 2600 3084 3056 2656 
Q 3513 2228 3513 1497 
Q 3513 744 3044 326 
Q 2575 -91 1722 -91 
Q 1428 -91 1123 -41 
Q 819 9 494 109 
L 494 744 
Q 775 591 1075 516 
Q 1375 441 1709 441 
Q 2250 441 2565 725 
Q 2881 1009 2881 1497 
Q 2881 1984 2565 2268 
Q 2250 2553 1709 2553 
Q 1456 2553 1204 2497 
Q 953 2441 691 2322 
L 691 4666 
z
" transform="scale(0.015625)"/>
       </defs>
       <use xlink:href="#DejaVuSans-30"/>
       <use xlink:href="#DejaVuSans-2e" x="63.623047"/>
       <use xlink:href="#DejaVuSans-35" x="95.410156"/>
      </g>
     </g>
    </g>
    <g id="ytick_8">
     <g id="line2d_25">
      <path d="M 38.482813 40.188241 
L 373.282813 40.188241 
" clip-path="url(#pfaf26fc12e)" style="fill: none; stroke: #b0b0b0; stroke-width: 0.8; stroke-linecap: square"/>
     </g>
     <g id="line2d_26">
      <g>
       <use xlink:href="#m4242fffe1c" x="38.482813" y="40.188241" style="stroke: #000000; stroke-width: 0.8"/>
      </g>
     </g>
     <g id="text_13">
      <!-- 0.6 -->
      <g transform="translate(15.579688 43.98746)scale(0.1 -0.1)">
       <defs>
        <path id="DejaVuSans-36" d="M 2113 2584 
Q 1688 2584 1439 2293 
Q 1191 2003 1191 1497 
Q 1191 994 1439 701 
Q 1688 409 2113 409 
Q 2538 409 2786 701 
Q 3034 994 3034 1497 
Q 3034 2003 2786 2293 
Q 2538 2584 2113 2584 
z
M 3366 4563 
L 3366 3988 
Q 3128 4100 2886 4159 
Q 2644 4219 2406 4219 
Q 1781 4219 1451 3797 
Q 1122 3375 1075 2522 
Q 1259 2794 1537 2939 
Q 1816 3084 2150 3084 
Q 2853 3084 3261 2657 
Q 3669 2231 3669 1497 
Q 3669 778 3244 343 
Q 2819 -91 2113 -91 
Q 1303 -91 875 529 
Q 447 1150 447 2328 
Q 447 3434 972 4092 
Q 1497 4750 2381 4750 
Q 2619 4750 2861 4703 
Q 3103 4656 3366 4563 
z
" transform="scale(0.015625)"/>
       </defs>
       <use xlink:href="#DejaVuSans-30"/>
       <use xlink:href="#DejaVuSans-2e" x="63.623047"/>
       <use xlink:href="#DejaVuSans-36" x="95.410156"/>
      </g>
     </g>
    </g>
    <g id="ytick_9">
     <g id="line2d_27">
      <path d="M 38.482813 14.516458 
L 373.282813 14.516458 
" clip-path="url(#pfaf26fc12e)" style="fill: none; stroke: #b0b0b0; stroke-width: 0.8; stroke-linecap: square"/>
     </g>
     <g id="line2d_28">
      <g>
       <use xlink:href="#m4242fffe1c" x="38.482813" y="14.516458" style="stroke: #000000; stroke-width: 0.8"/>
      </g>
     </g>
     <g id="text_14">
      <!-- 0.7 -->
      <g transform="translate(15.579688 18.315677)scale(0.1 -0.1)">
       <defs>
        <path id="DejaVuSans-37" d="M 525 4666 
L 3525 4666 
L 3525 4397 
L 1831 0 
L 1172 0 
L 2766 4134 
L 525 4134 
L 525 4666 
z
" transform="scale(0.015625)"/>
       </defs>
       <use xlink:href="#DejaVuSans-30"/>
       <use xlink:href="#DejaVuSans-2e" x="63.623047"/>
       <use xlink:href="#DejaVuSans-37" x="95.410156"/>
      </g>
     </g>
    </g>
   </g>
   <g id="LineCollection_1">
    <path d="M 53.700994 214.756364 
L 53.700994 204.487651 
" clip-path="url(#pfaf26fc12e)" style="fill: none; stroke: #000000; stroke-width: 1.5"/>
    <path d="M 87.519176 204.487651 
L 87.519176 189.084581 
" clip-path="url(#pfaf26fc12e)" style="fill: none; stroke: #000000; stroke-width: 1.5"/>
    <path d="M 87.519176 204.487651 
L 87.519176 163.412798 
" clip-path="url(#pfaf26fc12e)" style="fill: none; stroke: #000000; stroke-width: 1.5"/>
    <path d="M 87.519176 199.353294 
L 87.519176 163.412798 
" clip-path="url(#pfaf26fc12e)" style="fill: none; stroke: #000000; stroke-width: 1.5"/>
    <path d="M 104.428267 178.815868 
L 104.428267 148.009728 
" clip-path="url(#pfaf26fc12e)" style="fill: none; stroke: #000000; stroke-width: 1.5"/>
    <path d="M 121.337358 186.517403 
L 121.337358 145.44255 
" clip-path="url(#pfaf26fc12e)" style="fill: none; stroke: #000000; stroke-width: 1.5"/>
    <path d="M 121.337358 155.711263 
L 121.337358 135.173837 
" clip-path="url(#pfaf26fc12e)" style="fill: none; stroke: #000000; stroke-width: 1.5"/>
    <path d="M 138.246449 191.651759 
L 138.246449 165.979976 
" clip-path="url(#pfaf26fc12e)" style="fill: none; stroke: #000000; stroke-width: 1.5"/>
    <path d="M 172.064631 181.383046 
L 172.064631 135.173837 
" clip-path="url(#pfaf26fc12e)" style="fill: none; stroke: #000000; stroke-width: 1.5"/>
    <path d="M 172.064631 153.144085 
L 172.064631 117.203589 
" clip-path="url(#pfaf26fc12e)" style="fill: none; stroke: #000000; stroke-width: 1.5"/>
    <path d="M 188.973722 165.979976 
L 188.973722 130.039481 
" clip-path="url(#pfaf26fc12e)" style="fill: none; stroke: #000000; stroke-width: 1.5"/>
    <path d="M 205.882812 158.278442 
L 205.882812 106.934876 
" clip-path="url(#pfaf26fc12e)" style="fill: none; stroke: #000000; stroke-width: 1.5"/>
    <path d="M 205.882812 191.651759 
L 205.882812 160.84562 
" clip-path="url(#pfaf26fc12e)" style="fill: none; stroke: #000000; stroke-width: 1.5"/>
    <path d="M 226.173722 158.278442 
L 226.173722 122.337946 
" clip-path="url(#pfaf26fc12e)" style="fill: none; stroke: #000000; stroke-width: 1.5"/>
    <path d="M 273.519176 135.173837 
L 273.519176 58.158489 
" clip-path="url(#pfaf26fc12e)" style="fill: none; stroke: #000000; stroke-width: 1.5"/>
    <path d="M 276.900994 91.531806 
L 276.900994 35.053884 
" clip-path="url(#pfaf26fc12e)" style="fill: none; stroke: #000000; stroke-width: 1.5"/>
    <path d="M 276.900994 160.84562 
L 276.900994 114.636411 
" clip-path="url(#pfaf26fc12e)" style="fill: none; stroke: #000000; stroke-width: 1.5"/>
    <path d="M 290.428267 114.636411 
L 290.428267 83.830272 
" clip-path="url(#pfaf26fc12e)" style="fill: none; stroke: #000000; stroke-width: 1.5"/>
    <path d="M 290.428267 130.039481 
L 290.428267 99.233341 
" clip-path="url(#pfaf26fc12e)" style="fill: none; stroke: #000000; stroke-width: 1.5"/>
    <path d="M 307.337358 153.144085 
L 307.337358 117.203589 
" clip-path="url(#pfaf26fc12e)" style="fill: none; stroke: #000000; stroke-width: 1.5"/>
    <path d="M 341.15554 112.069233 
L 341.15554 35.053884 
" clip-path="url(#pfaf26fc12e)" style="fill: none; stroke: #000000; stroke-width: 1.5"/>
    <path d="M 358.064631 83.830272 
L 358.064631 17.083636 
" clip-path="url(#pfaf26fc12e)" style="fill: none; stroke: #000000; stroke-width: 1.5"/>
   </g>
   <g id="line2d_29">
    <defs>
     <path id="ma9b2151e66" d="M 2 0 
L -2 -0 
" style="stroke: #000000"/>
    </defs>
    <g clip-path="url(#pfaf26fc12e)">
     <use xlink:href="#ma9b2151e66" x="53.700994" y="214.756364" style="stroke: #000000"/>
     <use xlink:href="#ma9b2151e66" x="87.519176" y="204.487651" style="stroke: #000000"/>
     <use xlink:href="#ma9b2151e66" x="87.519176" y="204.487651" style="stroke: #000000"/>
     <use xlink:href="#ma9b2151e66" x="87.519176" y="199.353294" style="stroke: #000000"/>
     <use xlink:href="#ma9b2151e66" x="104.428267" y="178.815868" style="stroke: #000000"/>
     <use xlink:href="#ma9b2151e66" x="121.337358" y="186.517403" style="stroke: #000000"/>
     <use xlink:href="#ma9b2151e66" x="121.337358" y="155.711263" style="stroke: #000000"/>
     <use xlink:href="#ma9b2151e66" x="138.246449" y="191.651759" style="stroke: #000000"/>
     <use xlink:href="#ma9b2151e66" x="172.064631" y="181.383046" style="stroke: #000000"/>
     <use xlink:href="#ma9b2151e66" x="172.064631" y="153.144085" style="stroke: #000000"/>
     <use xlink:href="#ma9b2151e66" x="188.973722" y="165.979976" style="stroke: #000000"/>
     <use xlink:href="#ma9b2151e66" x="205.882812" y="158.278442" style="stroke: #000000"/>
     <use xlink:href="#ma9b2151e66" x="205.882812" y="191.651759" style="stroke: #000000"/>
     <use xlink:href="#ma9b2151e66" x="226.173722" y="158.278442" style="stroke: #000000"/>
     <use xlink:href="#ma9b2151e66" x="273.519176" y="135.173837" style="stroke: #000000"/>
     <use xlink:href="#ma9b2151e66" x="276.900994" y="91.531806" style="stroke: #000000"/>
     <use xlink:href="#ma9b2151e66" x="276.900994" y="160.84562" style="stroke: #000000"/>
     <use xlink:href="#ma9b2151e66" x="290.428267" y="114.636411" style="stroke: #000000"/>
     <use xlink:href="#ma9b2151e66" x="290.428267" y="130.039481" style="stroke: #000000"/>
     <use xlink:href="#ma9b2151e66" x="307.337358" y="153.144085" style="stroke: #000000"/>
     <use xlink:href="#ma9b2151e66" x="341.15554" y="112.069233" style="stroke: #000000"/>
     <use xlink:href="#ma9b2151e66" x="358.064631" y="83.830272" style="stroke: #000000"/>
    </g>
   </g>
   <g id="line2d_30">
    <g clip-path="url(#pfaf26fc12e)">
     <use xlink:href="#ma9b2151e66" x="53.700994" y="204.487651" style="stroke: #000000"/>
     <use xlink:href="#ma9b2151e66" x="87.519176" y="189.084581" style="stroke: #000000"/>
     <use xlink:href="#ma9b2151e66" x="87.519176" y="163.412798" style="stroke: #000000"/>
     <use xlink:href="#ma9b2151e66" x="87.519176" y="163.412798" style="stroke: #000000"/>
     <use xlink:href="#ma9b2151e66" x="104.428267" y="148.009728" style="stroke: #000000"/>
     <use xlink:href="#ma9b2151e66" x="121.337358" y="145.44255" style="stroke: #000000"/>
     <use xlink:href="#ma9b2151e66" x="121.337358" y="135.173837" style="stroke: #000000"/>
     <use xlink:href="#ma9b2151e66" x="138.246449" y="165.979976" style="stroke: #000000"/>
     <use xlink:href="#ma9b2151e66" x="172.064631" y="135.173837" style="stroke: #000000"/>
     <use xlink:href="#ma9b2151e66" x="172.064631" y="117.203589" style="stroke: #000000"/>
     <use xlink:href="#ma9b2151e66" x="188.973722" y="130.039481" style="stroke: #000000"/>
     <use xlink:href="#ma9b2151e66" x="205.882812" y="106.934876" style="stroke: #000000"/>
     <use xlink:href="#ma9b2151e66" x="205.882812" y="160.84562" style="stroke: #000000"/>
     <use xlink:href="#ma9b2151e66" x="226.173722" y="122.337946" style="stroke: #000000"/>
     <use xlink:href="#ma9b2151e66" x="273.519176" y="58.158489" style="stroke: #000000"/>
     <use xlink:href="#ma9b2151e66" x="276.900994" y="35.053884" style="stroke: #000000"/>
     <use xlink:href="#ma9b2151e66" x="276.900994" y="114.636411" style="stroke: #000000"/>
     <use xlink:href="#ma9b2151e66" x="290.428267" y="83.830272" style="stroke: #000000"/>
     <use xlink:href="#ma9b2151e66" x="290.428267" y="99.233341" style="stroke: #000000"/>
     <use xlink:href="#ma9b2151e66" x="307.337358" y="117.203589" style="stroke: #000000"/>
     <use xlink:href="#ma9b2151e66" x="341.15554" y="35.053884" style="stroke: #000000"/>
     <use xlink:href="#ma9b2151e66" x="358.064631" y="17.083636" style="stroke: #000000"/>
    </g>
   </g>
   <g id="line2d_31">
    <defs>
     <path id="mc3e1ab6cbc" d="M 0 3 
C 0.795609 3 1.55874 2.683901 2.12132 2.12132 
C 2.683901 1.55874 3 0.795609 3 0 
C 3 -0.795609 2.683901 -1.55874 2.12132 -2.12132 
C 1.55874 -2.683901 0.795609 -3 0 -3 
C -0.795609 -3 -1.55874 -2.683901 -2.12132 -2.12132 
C -2.683901 -1.55874 -3 -0.795609 -3 0 
C -3 0.795609 -2.683901 1.55874 -2.12132 2.12132 
C -1.55874 2.683901 -0.795609 3 0 3 
z
" style="stroke: #000000"/>
    </defs>
    <g clip-path="url(#pfaf26fc12e)">
     <use xlink:href="#mc3e1ab6cbc" x="53.700994" y="209.622007" style="stroke: #000000"/>
     <use xlink:href="#mc3e1ab6cbc" x="87.519176" y="196.786116" style="stroke: #000000"/>
     <use xlink:href="#mc3e1ab6cbc" x="87.519176" y="183.950224" style="stroke: #000000"/>
     <use xlink:href="#mc3e1ab6cbc" x="87.519176" y="181.383046" style="stroke: #000000"/>
     <use xlink:href="#mc3e1ab6cbc" x="104.428267" y="163.412798" style="stroke: #000000"/>
     <use xlink:href="#mc3e1ab6cbc" x="121.337358" y="165.979976" style="stroke: #000000"/>
     <use xlink:href="#mc3e1ab6cbc" x="121.337358" y="145.44255" style="stroke: #000000"/>
     <use xlink:href="#mc3e1ab6cbc" x="138.246449" y="178.815868" style="stroke: #000000"/>
     <use xlink:href="#mc3e1ab6cbc" x="172.064631" y="158.278442" style="stroke: #000000"/>
     <use xlink:href="#mc3e1ab6cbc" x="172.064631" y="135.173837" style="stroke: #000000"/>
     <use xlink:href="#mc3e1ab6cbc" x="188.973722" y="148.009728" style="stroke: #000000"/>
     <use xlink:href="#mc3e1ab6cbc" x="205.882812" y="132.606659" style="stroke: #000000"/>
     <use xlink:href="#mc3e1ab6cbc" x="205.882812" y="176.248689" style="stroke: #000000"/>
     <use xlink:href="#mc3e1ab6cbc" x="226.173722" y="140.308194" style="stroke: #000000"/>
     <use xlink:href="#mc3e1ab6cbc" x="273.519176" y="96.666163" style="stroke: #000000"/>
     <use xlink:href="#mc3e1ab6cbc" x="276.900994" y="63.292845" style="stroke: #000000"/>
     <use xlink:href="#mc3e1ab6cbc" x="276.900994" y="137.741015" style="stroke: #000000"/>
     <use xlink:href="#mc3e1ab6cbc" x="290.428267" y="99.233341" style="stroke: #000000"/>
     <use xlink:href="#mc3e1ab6cbc" x="290.428267" y="114.636411" style="stroke: #000000"/>
     <use xlink:href="#mc3e1ab6cbc" x="307.337358" y="135.173837" style="stroke: #000000"/>
     <use xlink:href="#mc3e1ab6cbc" x="341.15554" y="73.561558" style="stroke: #000000"/>
     <use xlink:href="#mc3e1ab6cbc" x="358.064631" y="50.456954" style="stroke: #000000"/>
    </g>
   </g>
   <g id="patch_3">
    <path d="M 38.482813 224.64 
L 38.482813 7.2 
" style="fill: none; stroke: #000000; stroke-width: 0.8; stroke-linejoin: miter; stroke-linecap: square"/>
   </g>
   <g id="patch_4">
    <path d="M 373.282813 224.64 
L 373.282813 7.2 
" style="fill: none; stroke: #000000; stroke-width: 0.8; stroke-linejoin: miter; stroke-linecap: square"/>
   </g>
   <g id="patch_5">
    <path d="M 38.482812 224.64 
L 373.282813 224.64 
" style="fill: none; stroke: #000000; stroke-width: 0.8; stroke-linejoin: miter; stroke-linecap: square"/>
   </g>
   <g id="patch_6">
    <path d="M 38.482812 7.2 
L 373.282813 7.2 
" style="fill: none; stroke: #000000; stroke-width: 0.8; stroke-linejoin: miter; stroke-linecap: square"/>
   </g>
  </g>
 </g>
 <defs>
  <clipPath id="pfaf26fc12e">
   <rect x="38.482813" y="7.2" width="334.8" height="217.44"/>
  </clipPath>
 </defs>
</svg>
