<?xml version="1.0" encoding="utf-8" standalone="no"?>
<!DOCTYPE svg PUBLIC "-//W3C//DTD SVG 1.1//EN"
  "http://www.w3.org/Graphics/SVG/1.1/DTD/svg11.dtd">
<svg xmlns:xlink="http://www.w3.org/1999/xlink" width="384.828125pt" height="248.518125pt" viewBox="0 0 384.828125 248.518125" xmlns="http://www.w3.org/2000/svg" version="1.1">
 <metadata>
  <rdf:RDF xmlns:dc="http://purl.org/dc/elements/1.1/" xmlns:cc="http://creativecommons.org/ns#" xmlns:rdf="http://www.w3.org/1999/02/22-rdf-syntax-ns#">
   <cc:Work>
    <dc:type rdf:resource="http://purl.org/dc/dcmitype/StillImage"/>
    <dc:date>2021-12-29T18:14:06.518678</dc:date>
    <dc:format>image/svg+xml</dc:format>
    <dc:creator>
     <cc:Agent>
      <dc:title>Matplotlib v3.5.1, https://matplotlib.org/</dc:title>
     </cc:Agent>
    </dc:creator>
   </cc:Work>
  </rdf:RDF>
 </metadata>
 <defs>
  <style type="text/css">*{stroke-linejoin: round; stroke-linecap: butt}</style>
 </defs>
 <g id="figure_1">
  <g id="patch_1">
   <path d="M 0 248.518125 
L 384.828125 248.518125 
L 384.828125 0 
L 0 0 
L 0 248.518125 
z
" style="fill: none"/>
  </g>
  <g id="axes_1">
   <g id="patch_2">
    <path d="M 42.828125 224.64 
L 377.628125 224.64 
L 377.628125 7.2 
L 42.828125 7.2 
z
" style="fill: #ffffff"/>
   </g>
   <g id="matplotlib.axis_1">
    <g id="xtick_1">
     <g id="line2d_1">
      <path d="M 51.705398 224.64 
L 51.705398 7.2 
" clip-path="url(#p4f653c611c)" style="fill: none; stroke: #b0b0b0; stroke-width: 0.8; stroke-linecap: square"/>
     </g>
     <g id="line2d_2">
      <defs>
       <path id="m3f4cf8ffc0" d="M 0 0 
L 0 3.5 
" style="stroke: #000000; stroke-width: 0.8"/>
      </defs>
      <g>
       <use xlink:href="#m3f4cf8ffc0" x="51.705398" y="224.64" style="stroke: #000000; stroke-width: 0.8"/>
      </g>
     </g>
     <g id="text_1">
      <!-- 0.0 -->
      <g transform="translate(43.753835 239.238437)scale(0.1 -0.1)">
       <defs>
        <path id="DejaVuSans-30" d="M 2034 4250 
Q 1547 4250 1301 3770 
Q 1056 3291 1056 2328 
Q 1056 1369 1301 889 
Q 1547 409 2034 409 
Q 2525 409 2770 889 
Q 3016 1369 3016 2328 
Q 3016 3291 2770 3770 
Q 2525 4250 2034 4250 
z
M 2034 4750 
Q 2819 4750 3233 4129 
Q 3647 3509 3647 2328 
Q 3647 1150 3233 529 
Q 2819 -91 2034 -91 
Q 1250 -91 836 529 
Q 422 1150 422 2328 
Q 422 3509 836 4129 
Q 1250 4750 2034 4750 
z
" transform="scale(0.015625)"/>
        <path id="DejaVuSans-2e" d="M 684 794 
L 1344 794 
L 1344 0 
L 684 0 
L 684 794 
z
" transform="scale(0.015625)"/>
       </defs>
       <use xlink:href="#DejaVuSans-30"/>
       <use xlink:href="#DejaVuSans-2e" x="63.623047"/>
       <use xlink:href="#DejaVuSans-30" x="95.410156"/>
      </g>
     </g>
    </g>
    <g id="xtick_2">
     <g id="line2d_3">
      <path d="M 113.524846 224.64 
L 113.524846 7.2 
" clip-path="url(#p4f653c611c)" style="fill: none; stroke: #b0b0b0; stroke-width: 0.8; stroke-linecap: square"/>
     </g>
     <g id="line2d_4">
      <g>
       <use xlink:href="#m3f4cf8ffc0" x="113.524846" y="224.64" style="stroke: #000000; stroke-width: 0.8"/>
      </g>
     </g>
     <g id="text_2">
      <!-- 0.1 -->
      <g transform="translate(105.573283 239.238437)scale(0.1 -0.1)">
       <defs>
        <path id="DejaVuSans-31" d="M 794 531 
L 1825 531 
L 1825 4091 
L 703 3866 
L 703 4441 
L 1819 4666 
L 2450 4666 
L 2450 531 
L 3481 531 
L 3481 0 
L 794 0 
L 794 531 
z
" transform="scale(0.015625)"/>
       </defs>
       <use xlink:href="#DejaVuSans-30"/>
       <use xlink:href="#DejaVuSans-2e" x="63.623047"/>
       <use xlink:href="#DejaVuSans-31" x="95.410156"/>
      </g>
     </g>
    </g>
    <g id="xtick_3">
     <g id="line2d_5">
      <path d="M 175.344294 224.64 
L 175.344294 7.2 
" clip-path="url(#p4f653c611c)" style="fill: none; stroke: #b0b0b0; stroke-width: 0.8; stroke-linecap: square"/>
     </g>
     <g id="line2d_6">
      <g>
       <use xlink:href="#m3f4cf8ffc0" x="175.344294" y="224.64" style="stroke: #000000; stroke-width: 0.8"/>
      </g>
     </g>
     <g id="text_3">
      <!-- 0.2 -->
      <g transform="translate(167.392731 239.238437)scale(0.1 -0.1)">
       <defs>
        <path id="DejaVuSans-32" d="M 1228 531 
L 3431 531 
L 3431 0 
L 469 0 
L 469 531 
Q 828 903 1448 1529 
Q 2069 2156 2228 2338 
Q 2531 2678 2651 2914 
Q 2772 3150 2772 3378 
Q 2772 3750 2511 3984 
Q 2250 4219 1831 4219 
Q 1534 4219 1204 4116 
Q 875 4013 500 3803 
L 500 4441 
Q 881 4594 1212 4672 
Q 1544 4750 1819 4750 
Q 2544 4750 2975 4387 
Q 3406 4025 3406 3419 
Q 3406 3131 3298 2873 
Q 3191 2616 2906 2266 
Q 2828 2175 2409 1742 
Q 1991 1309 1228 531 
z
" transform="scale(0.015625)"/>
       </defs>
       <use xlink:href="#DejaVuSans-30"/>
       <use xlink:href="#DejaVuSans-2e" x="63.623047"/>
       <use xlink:href="#DejaVuSans-32" x="95.410156"/>
      </g>
     </g>
    </g>
    <g id="xtick_4">
     <g id="line2d_7">
      <path d="M 237.163742 224.64 
L 237.163742 7.2 
" clip-path="url(#p4f653c611c)" style="fill: none; stroke: #b0b0b0; stroke-width: 0.8; stroke-linecap: square"/>
     </g>
     <g id="line2d_8">
      <g>
       <use xlink:href="#m3f4cf8ffc0" x="237.163742" y="224.64" style="stroke: #000000; stroke-width: 0.8"/>
      </g>
     </g>
     <g id="text_4">
      <!-- 0.3 -->
      <g transform="translate(229.212179 239.238437)scale(0.1 -0.1)">
       <defs>
        <path id="DejaVuSans-33" d="M 2597 2516 
Q 3050 2419 3304 2112 
Q 3559 1806 3559 1356 
Q 3559 666 3084 287 
Q 2609 -91 1734 -91 
Q 1441 -91 1130 -33 
Q 819 25 488 141 
L 488 750 
Q 750 597 1062 519 
Q 1375 441 1716 441 
Q 2309 441 2620 675 
Q 2931 909 2931 1356 
Q 2931 1769 2642 2001 
Q 2353 2234 1838 2234 
L 1294 2234 
L 1294 2753 
L 1863 2753 
Q 2328 2753 2575 2939 
Q 2822 3125 2822 3475 
Q 2822 3834 2567 4026 
Q 2313 4219 1838 4219 
Q 1578 4219 1281 4162 
Q 984 4106 628 3988 
L 628 4550 
Q 988 4650 1302 4700 
Q 1616 4750 1894 4750 
Q 2613 4750 3031 4423 
Q 3450 4097 3450 3541 
Q 3450 3153 3228 2886 
Q 3006 2619 2597 2516 
z
" transform="scale(0.015625)"/>
       </defs>
       <use xlink:href="#DejaVuSans-30"/>
       <use xlink:href="#DejaVuSans-2e" x="63.623047"/>
       <use xlink:href="#DejaVuSans-33" x="95.410156"/>
      </g>
     </g>
    </g>
    <g id="xtick_5">
     <g id="line2d_9">
      <path d="M 298.98319 224.64 
L 298.98319 7.2 
" clip-path="url(#p4f653c611c)" style="fill: none; stroke: #b0b0b0; stroke-width: 0.8; stroke-linecap: square"/>
     </g>
     <g id="line2d_10">
      <g>
       <use xlink:href="#m3f4cf8ffc0" x="298.98319" y="224.64" style="stroke: #000000; stroke-width: 0.8"/>
      </g>
     </g>
     <g id="text_5">
      <!-- 0.4 -->
      <g transform="translate(291.031627 239.238437)scale(0.1 -0.1)">
       <defs>
        <path id="DejaVuSans-34" d="M 2419 4116 
L 825 1625 
L 2419 1625 
L 2419 4116 
z
M 2253 4666 
L 3047 4666 
L 3047 1625 
L 3713 1625 
L 3713 1100 
L 3047 1100 
L 3047 0 
L 2419 0 
L 2419 1100 
L 313 1100 
L 313 1709 
L 2253 4666 
z
" transform="scale(0.015625)"/>
       </defs>
       <use xlink:href="#DejaVuSans-30"/>
       <use xlink:href="#DejaVuSans-2e" x="63.623047"/>
       <use xlink:href="#DejaVuSans-34" x="95.410156"/>
      </g>
     </g>
    </g>
    <g id="xtick_6">
     <g id="line2d_11">
      <path d="M 360.802638 224.64 
L 360.802638 7.2 
" clip-path="url(#p4f653c611c)" style="fill: none; stroke: #b0b0b0; stroke-width: 0.8; stroke-linecap: square"/>
     </g>
     <g id="line2d_12">
      <g>
       <use xlink:href="#m3f4cf8ffc0" x="360.802638" y="224.64" style="stroke: #000000; stroke-width: 0.8"/>
      </g>
     </g>
     <g id="text_6">
      <!-- 0.5 -->
      <g transform="translate(352.851075 239.238437)scale(0.1 -0.1)">
       <defs>
        <path id="DejaVuSans-35" d="M 691 4666 
L 3169 4666 
L 3169 4134 
L 1269 4134 
L 1269 2991 
Q 1406 3038 1543 3061 
Q 1681 3084 1819 3084 
Q 2600 3084 3056 2656 
Q 3513 2228 3513 1497 
Q 3513 744 3044 326 
Q 2575 -91 1722 -91 
Q 1428 -91 1123 -41 
Q 819 9 494 109 
L 494 744 
Q 775 591 1075 516 
Q 1375 441 1709 441 
Q 2250 441 2565 725 
Q 2881 1009 2881 1497 
Q 2881 1984 2565 2268 
Q 2250 2553 1709 2553 
Q 1456 2553 1204 2497 
Q 953 2441 691 2322 
L 691 4666 
z
" transform="scale(0.015625)"/>
       </defs>
       <use xlink:href="#DejaVuSans-30"/>
       <use xlink:href="#DejaVuSans-2e" x="63.623047"/>
       <use xlink:href="#DejaVuSans-35" x="95.410156"/>
      </g>
     </g>
    </g>
   </g>
   <g id="matplotlib.axis_2">
    <g id="ytick_1">
     <g id="line2d_13">
      <path d="M 42.828125 214.80827 
L 377.628125 214.80827 
" clip-path="url(#p4f653c611c)" style="fill: none; stroke: #b0b0b0; stroke-width: 0.8; stroke-linecap: square"/>
     </g>
     <g id="line2d_14">
      <defs>
       <path id="mf5bd3b6769" d="M 0 0 
L -3.5 0 
" style="stroke: #000000; stroke-width: 0.8"/>
      </defs>
      <g>
       <use xlink:href="#mf5bd3b6769" x="42.828125" y="214.80827" style="stroke: #000000; stroke-width: 0.8"/>
      </g>
     </g>
     <g id="text_7">
      <!-- 0.000 -->
      <g transform="translate(7.2 218.607488)scale(0.1 -0.1)">
       <use xlink:href="#DejaVuSans-30"/>
       <use xlink:href="#DejaVuSans-2e" x="63.623047"/>
       <use xlink:href="#DejaVuSans-30" x="95.410156"/>
       <use xlink:href="#DejaVuSans-30" x="159.033203"/>
       <use xlink:href="#DejaVuSans-30" x="222.65625"/>
      </g>
     </g>
    </g>
    <g id="ytick_2">
     <g id="line2d_15">
      <path d="M 42.828125 182.133572 
L 377.628125 182.133572 
" clip-path="url(#p4f653c611c)" style="fill: none; stroke: #b0b0b0; stroke-width: 0.8; stroke-linecap: square"/>
     </g>
     <g id="line2d_16">
      <g>
       <use xlink:href="#mf5bd3b6769" x="42.828125" y="182.133572" style="stroke: #000000; stroke-width: 0.8"/>
      </g>
     </g>
     <g id="text_8">
      <!-- 0.005 -->
      <g transform="translate(7.2 185.932791)scale(0.1 -0.1)">
       <use xlink:href="#DejaVuSans-30"/>
       <use xlink:href="#DejaVuSans-2e" x="63.623047"/>
       <use xlink:href="#DejaVuSans-30" x="95.410156"/>
       <use xlink:href="#DejaVuSans-30" x="159.033203"/>
       <use xlink:href="#DejaVuSans-35" x="222.65625"/>
      </g>
     </g>
    </g>
    <g id="ytick_3">
     <g id="line2d_17">
      <path d="M 42.828125 149.458875 
L 377.628125 149.458875 
" clip-path="url(#p4f653c611c)" style="fill: none; stroke: #b0b0b0; stroke-width: 0.8; stroke-linecap: square"/>
     </g>
     <g id="line2d_18">
      <g>
       <use xlink:href="#mf5bd3b6769" x="42.828125" y="149.458875" style="stroke: #000000; stroke-width: 0.8"/>
      </g>
     </g>
     <g id="text_9">
      <!-- 0.010 -->
      <g transform="translate(7.2 153.258094)scale(0.1 -0.1)">
       <use xlink:href="#DejaVuSans-30"/>
       <use xlink:href="#DejaVuSans-2e" x="63.623047"/>
       <use xlink:href="#DejaVuSans-30" x="95.410156"/>
       <use xlink:href="#DejaVuSans-31" x="159.033203"/>
       <use xlink:href="#DejaVuSans-30" x="222.65625"/>
      </g>
     </g>
    </g>
    <g id="ytick_4">
     <g id="line2d_19">
      <path d="M 42.828125 116.784178 
L 377.628125 116.784178 
" clip-path="url(#p4f653c611c)" style="fill: none; stroke: #b0b0b0; stroke-width: 0.8; stroke-linecap: square"/>
     </g>
     <g id="line2d_20">
      <g>
       <use xlink:href="#mf5bd3b6769" x="42.828125" y="116.784178" style="stroke: #000000; stroke-width: 0.8"/>
      </g>
     </g>
     <g id="text_10">
      <!-- 0.015 -->
      <g transform="translate(7.2 120.583397)scale(0.1 -0.1)">
       <use xlink:href="#DejaVuSans-30"/>
       <use xlink:href="#DejaVuSans-2e" x="63.623047"/>
       <use xlink:href="#DejaVuSans-30" x="95.410156"/>
       <use xlink:href="#DejaVuSans-31" x="159.033203"/>
       <use xlink:href="#DejaVuSans-35" x="222.65625"/>
      </g>
     </g>
    </g>
    <g id="ytick_5">
     <g id="line2d_21">
      <path d="M 42.828125 84.109481 
L 377.628125 84.109481 
" clip-path="url(#p4f653c611c)" style="fill: none; stroke: #b0b0b0; stroke-width: 0.8; stroke-linecap: square"/>
     </g>
     <g id="line2d_22">
      <g>
       <use xlink:href="#mf5bd3b6769" x="42.828125" y="84.109481" style="stroke: #000000; stroke-width: 0.8"/>
      </g>
     </g>
     <g id="text_11">
      <!-- 0.020 -->
      <g transform="translate(7.2 87.9087)scale(0.1 -0.1)">
       <use xlink:href="#DejaVuSans-30"/>
       <use xlink:href="#DejaVuSans-2e" x="63.623047"/>
       <use xlink:href="#DejaVuSans-30" x="95.410156"/>
       <use xlink:href="#DejaVuSans-32" x="159.033203"/>
       <use xlink:href="#DejaVuSans-30" x="222.65625"/>
      </g>
     </g>
    </g>
    <g id="ytick_6">
     <g id="line2d_23">
      <path d="M 42.828125 51.434784 
L 377.628125 51.434784 
" clip-path="url(#p4f653c611c)" style="fill: none; stroke: #b0b0b0; stroke-width: 0.8; stroke-linecap: square"/>
     </g>
     <g id="line2d_24">
      <g>
       <use xlink:href="#mf5bd3b6769" x="42.828125" y="51.434784" style="stroke: #000000; stroke-width: 0.8"/>
      </g>
     </g>
     <g id="text_12">
      <!-- 0.025 -->
      <g transform="translate(7.2 55.234003)scale(0.1 -0.1)">
       <use xlink:href="#DejaVuSans-30"/>
       <use xlink:href="#DejaVuSans-2e" x="63.623047"/>
       <use xlink:href="#DejaVuSans-30" x="95.410156"/>
       <use xlink:href="#DejaVuSans-32" x="159.033203"/>
       <use xlink:href="#DejaVuSans-35" x="222.65625"/>
      </g>
     </g>
    </g>
    <g id="ytick_7">
     <g id="line2d_25">
      <path d="M 42.828125 18.760087 
L 377.628125 18.760087 
" clip-path="url(#p4f653c611c)" style="fill: none; stroke: #b0b0b0; stroke-width: 0.8; stroke-linecap: square"/>
     </g>
     <g id="line2d_26">
      <g>
       <use xlink:href="#mf5bd3b6769" x="42.828125" y="18.760087" style="stroke: #000000; stroke-width: 0.8"/>
      </g>
     </g>
     <g id="text_13">
      <!-- 0.030 -->
      <g transform="translate(7.2 22.559305)scale(0.1 -0.1)">
       <use xlink:href="#DejaVuSans-30"/>
       <use xlink:href="#DejaVuSans-2e" x="63.623047"/>
       <use xlink:href="#DejaVuSans-30" x="95.410156"/>
       <use xlink:href="#DejaVuSans-33" x="159.033203"/>
       <use xlink:href="#DejaVuSans-30" x="222.65625"/>
      </g>
     </g>
    </g>
   </g>
   <g id="line2d_27">
    <defs>
     <path id="mb9a5f4b07a" d="M 0 1.5 
C 0.397805 1.5 0.77937 1.341951 1.06066 1.06066 
C 1.341951 0.77937 1.5 0.397805 1.5 0 
C 1.5 -0.397805 1.341951 -0.77937 1.06066 -1.06066 
C 0.77937 -1.341951 0.397805 -1.5 0 -1.5 
C -0.397805 -1.5 -0.77937 -1.341951 -1.06066 -1.06066 
C -1.341951 -0.77937 -1.5 -0.397805 -1.5 0 
C -1.5 0.397805 -1.341951 0.77937 -1.06066 1.06066 
C -0.77937 1.341951 -0.397805 1.5 0 1.5 
z
" style="stroke: #ff0000"/>
    </defs>
    <g clip-path="url(#p4f653c611c)">
     <use xlink:href="#mb9a5f4b07a" x="58.046307" y="20.057785" style="fill: #ff0000; stroke: #ff0000"/>
     <use xlink:href="#mb9a5f4b07a" x="64.387216" y="19.867139" style="fill: #ff0000; stroke: #ff0000"/>
     <use xlink:href="#mb9a5f4b07a" x="70.728125" y="19.668745" style="fill: #ff0000; stroke: #ff0000"/>
     <use xlink:href="#mb9a5f4b07a" x="77.069034" y="19.487667" style="fill: #ff0000; stroke: #ff0000"/>
     <use xlink:href="#mb9a5f4b07a" x="83.409943" y="19.294553" style="fill: #ff0000; stroke: #ff0000"/>
     <use xlink:href="#mb9a5f4b07a" x="89.750852" y="19.105271" style="fill: #ff0000; stroke: #ff0000"/>
     <use xlink:href="#mb9a5f4b07a" x="96.091761" y="18.920752" style="fill: #ff0000; stroke: #ff0000"/>
     <use xlink:href="#mb9a5f4b07a" x="102.43267" y="18.719719" style="fill: #ff0000; stroke: #ff0000"/>
     <use xlink:href="#mb9a5f4b07a" x="108.77358" y="18.546803" style="fill: #ff0000; stroke: #ff0000"/>
     <use xlink:href="#mb9a5f4b07a" x="115.114489" y="18.362724" style="fill: #ff0000; stroke: #ff0000"/>
     <use xlink:href="#mb9a5f4b07a" x="121.455398" y="18.204272" style="fill: #ff0000; stroke: #ff0000"/>
     <use xlink:href="#mb9a5f4b07a" x="127.796307" y="18.068776" style="fill: #ff0000; stroke: #ff0000"/>
     <use xlink:href="#mb9a5f4b07a" x="134.137216" y="17.927446" style="fill: #ff0000; stroke: #ff0000"/>
     <use xlink:href="#mb9a5f4b07a" x="140.478125" y="17.832396" style="fill: #ff0000; stroke: #ff0000"/>
     <use xlink:href="#mb9a5f4b07a" x="146.819034" y="17.710531" style="fill: #ff0000; stroke: #ff0000"/>
     <use xlink:href="#mb9a5f4b07a" x="153.159943" y="17.609954" style="fill: #ff0000; stroke: #ff0000"/>
     <use xlink:href="#mb9a5f4b07a" x="159.500852" y="17.509486" style="fill: #ff0000; stroke: #ff0000"/>
     <use xlink:href="#mb9a5f4b07a" x="165.841761" y="17.37873" style="fill: #ff0000; stroke: #ff0000"/>
     <use xlink:href="#mb9a5f4b07a" x="172.18267" y="17.301282" style="fill: #ff0000; stroke: #ff0000"/>
     <use xlink:href="#mb9a5f4b07a" x="178.52358" y="17.186985" style="fill: #ff0000; stroke: #ff0000"/>
     <use xlink:href="#mb9a5f4b07a" x="184.864489" y="17.133751" style="fill: #ff0000; stroke: #ff0000"/>
     <use xlink:href="#mb9a5f4b07a" x="191.205398" y="17.111722" style="fill: #ff0000; stroke: #ff0000"/>
     <use xlink:href="#mb9a5f4b07a" x="197.546307" y="17.083636" style="fill: #ff0000; stroke: #ff0000"/>
     <use xlink:href="#mb9a5f4b07a" x="203.887216" y="17.148334" style="fill: #ff0000; stroke: #ff0000"/>
     <use xlink:href="#mb9a5f4b07a" x="210.228125" y="17.145877" style="fill: #ff0000; stroke: #ff0000"/>
     <use xlink:href="#mb9a5f4b07a" x="216.569034" y="17.188237" style="fill: #ff0000; stroke: #ff0000"/>
     <use xlink:href="#mb9a5f4b07a" x="222.909943" y="17.211357" style="fill: #ff0000; stroke: #ff0000"/>
     <use xlink:href="#mb9a5f4b07a" x="229.250852" y="17.165765" style="fill: #ff0000; stroke: #ff0000"/>
     <use xlink:href="#mb9a5f4b07a" x="235.591761" y="17.213949" style="fill: #ff0000; stroke: #ff0000"/>
     <use xlink:href="#mb9a5f4b07a" x="241.93267" y="17.184468" style="fill: #ff0000; stroke: #ff0000"/>
     <use xlink:href="#mb9a5f4b07a" x="248.27358" y="17.256878" style="fill: #ff0000; stroke: #ff0000"/>
     <use xlink:href="#mb9a5f4b07a" x="254.614489" y="17.382669" style="fill: #ff0000; stroke: #ff0000"/>
     <use xlink:href="#mb9a5f4b07a" x="260.955398" y="17.478231" style="fill: #ff0000; stroke: #ff0000"/>
     <use xlink:href="#mb9a5f4b07a" x="267.296307" y="17.713748" style="fill: #ff0000; stroke: #ff0000"/>
     <use xlink:href="#mb9a5f4b07a" x="273.637216" y="17.830939" style="fill: #ff0000; stroke: #ff0000"/>
     <use xlink:href="#mb9a5f4b07a" x="279.978125" y="17.976672" style="fill: #ff0000; stroke: #ff0000"/>
     <use xlink:href="#mb9a5f4b07a" x="286.319034" y="18.113433" style="fill: #ff0000; stroke: #ff0000"/>
     <use xlink:href="#mb9a5f4b07a" x="292.659943" y="18.12497" style="fill: #ff0000; stroke: #ff0000"/>
     <use xlink:href="#mb9a5f4b07a" x="299.000852" y="18.278929" style="fill: #ff0000; stroke: #ff0000"/>
     <use xlink:href="#mb9a5f4b07a" x="305.341761" y="18.385996" style="fill: #ff0000; stroke: #ff0000"/>
     <use xlink:href="#mb9a5f4b07a" x="311.68267" y="18.55474" style="fill: #ff0000; stroke: #ff0000"/>
     <use xlink:href="#mb9a5f4b07a" x="318.02358" y="18.836275" style="fill: #ff0000; stroke: #ff0000"/>
     <use xlink:href="#mb9a5f4b07a" x="324.364489" y="19.017183" style="fill: #ff0000; stroke: #ff0000"/>
     <use xlink:href="#mb9a5f4b07a" x="330.705398" y="19.248166" style="fill: #ff0000; stroke: #ff0000"/>
     <use xlink:href="#mb9a5f4b07a" x="337.046307" y="19.392881" style="fill: #ff0000; stroke: #ff0000"/>
     <use xlink:href="#mb9a5f4b07a" x="343.387216" y="19.559698" style="fill: #ff0000; stroke: #ff0000"/>
     <use xlink:href="#mb9a5f4b07a" x="349.728125" y="19.770084" style="fill: #ff0000; stroke: #ff0000"/>
     <use xlink:href="#mb9a5f4b07a" x="356.069034" y="19.967904" style="fill: #ff0000; stroke: #ff0000"/>
     <use xlink:href="#mb9a5f4b07a" x="362.409943" y="20.166752" style="fill: #ff0000; stroke: #ff0000"/>
    </g>
   </g>
   <g id="line2d_28">
    <defs>
     <path id="mc1bf7c79d1" d="M 0 1.5 
C 0.397805 1.5 0.77937 1.341951 1.06066 1.06066 
C 1.341951 0.77937 1.5 0.397805 1.5 0 
C 1.5 -0.397805 1.341951 -0.77937 1.06066 -1.06066 
C 0.77937 -1.341951 0.397805 -1.5 0 -1.5 
C -0.397805 -1.5 -0.77937 -1.341951 -1.06066 -1.06066 
C -1.341951 -0.77937 -1.5 -0.397805 -1.5 0 
C -1.5 0.397805 -1.341951 0.77937 -1.06066 1.06066 
C -0.77937 1.341951 -0.397805 1.5 0 1.5 
z
" style="stroke: #0000ff"/>
    </defs>
    <g clip-path="url(#p4f653c611c)">
     <use xlink:href="#mc1bf7c79d1" x="58.046307" y="20.258375" style="fill: #0000ff; stroke: #0000ff"/>
     <use xlink:href="#mc1bf7c79d1" x="64.387216" y="20.668645" style="fill: #0000ff; stroke: #0000ff"/>
     <use xlink:href="#mc1bf7c79d1" x="70.728125" y="21.468999" style="fill: #0000ff; stroke: #0000ff"/>
     <use xlink:href="#mc1bf7c79d1" x="77.069034" y="22.680287" style="fill: #0000ff; stroke: #0000ff"/>
     <use xlink:href="#mc1bf7c79d1" x="83.409943" y="24.267408" style="fill: #0000ff; stroke: #0000ff"/>
     <use xlink:href="#mc1bf7c79d1" x="89.750852" y="26.238837" style="fill: #0000ff; stroke: #0000ff"/>
     <use xlink:href="#mc1bf7c79d1" x="96.091761" y="28.586535" style="fill: #0000ff; stroke: #0000ff"/>
     <use xlink:href="#mc1bf7c79d1" x="102.43267" y="31.278897" style="fill: #0000ff; stroke: #0000ff"/>
     <use xlink:href="#mc1bf7c79d1" x="108.77358" y="34.348412" style="fill: #0000ff; stroke: #0000ff"/>
     <use xlink:href="#mc1bf7c79d1" x="115.114489" y="37.742543" style="fill: #0000ff; stroke: #0000ff"/>
     <use xlink:href="#mc1bf7c79d1" x="121.455398" y="41.48309" style="fill: #0000ff; stroke: #0000ff"/>
     <use xlink:href="#mc1bf7c79d1" x="127.796307" y="45.551039" style="fill: #0000ff; stroke: #0000ff"/>
     <use xlink:href="#mc1bf7c79d1" x="134.137216" y="49.900344" style="fill: #0000ff; stroke: #0000ff"/>
     <use xlink:href="#mc1bf7c79d1" x="140.478125" y="54.56397" style="fill: #0000ff; stroke: #0000ff"/>
     <use xlink:href="#mc1bf7c79d1" x="146.819034" y="59.449615" style="fill: #0000ff; stroke: #0000ff"/>
     <use xlink:href="#mc1bf7c79d1" x="153.159943" y="64.584481" style="fill: #0000ff; stroke: #0000ff"/>
     <use xlink:href="#mc1bf7c79d1" x="159.500852" y="69.925921" style="fill: #0000ff; stroke: #0000ff"/>
     <use xlink:href="#mc1bf7c79d1" x="165.841761" y="75.421906" style="fill: #0000ff; stroke: #0000ff"/>
     <use xlink:href="#mc1bf7c79d1" x="172.18267" y="81.132044" style="fill: #0000ff; stroke: #0000ff"/>
     <use xlink:href="#mc1bf7c79d1" x="178.52358" y="86.943436" style="fill: #0000ff; stroke: #0000ff"/>
     <use xlink:href="#mc1bf7c79d1" x="184.864489" y="92.928534" style="fill: #0000ff; stroke: #0000ff"/>
     <use xlink:href="#mc1bf7c79d1" x="191.205398" y="99.032117" style="fill: #0000ff; stroke: #0000ff"/>
     <use xlink:href="#mc1bf7c79d1" x="197.546307" y="105.192161" style="fill: #0000ff; stroke: #0000ff"/>
     <use xlink:href="#mc1bf7c79d1" x="203.887216" y="111.479674" style="fill: #0000ff; stroke: #0000ff"/>
     <use xlink:href="#mc1bf7c79d1" x="210.228125" y="117.711356" style="fill: #0000ff; stroke: #0000ff"/>
     <use xlink:href="#mc1bf7c79d1" x="216.569034" y="123.972498" style="fill: #0000ff; stroke: #0000ff"/>
     <use xlink:href="#mc1bf7c79d1" x="222.909943" y="130.174529" style="fill: #0000ff; stroke: #0000ff"/>
     <use xlink:href="#mc1bf7c79d1" x="229.250852" y="136.245722" style="fill: #0000ff; stroke: #0000ff"/>
     <use xlink:href="#mc1bf7c79d1" x="235.591761" y="142.320572" style="fill: #0000ff; stroke: #0000ff"/>
     <use xlink:href="#mc1bf7c79d1" x="241.93267" y="148.206823" style="fill: #0000ff; stroke: #0000ff"/>
     <use xlink:href="#mc1bf7c79d1" x="248.27358" y="154.056132" style="fill: #0000ff; stroke: #0000ff"/>
     <use xlink:href="#mc1bf7c79d1" x="254.614489" y="159.794321" style="fill: #0000ff; stroke: #0000ff"/>
     <use xlink:href="#mc1bf7c79d1" x="260.955398" y="165.316802" style="fill: #0000ff; stroke: #0000ff"/>
     <use xlink:href="#mc1bf7c79d1" x="267.296307" y="170.764333" style="fill: #0000ff; stroke: #0000ff"/>
     <use xlink:href="#mc1bf7c79d1" x="273.637216" y="175.864361" style="fill: #0000ff; stroke: #0000ff"/>
     <use xlink:href="#mc1bf7c79d1" x="279.978125" y="180.742218" style="fill: #0000ff; stroke: #0000ff"/>
     <use xlink:href="#mc1bf7c79d1" x="286.319034" y="185.34227" style="fill: #0000ff; stroke: #0000ff"/>
     <use xlink:href="#mc1bf7c79d1" x="292.659943" y="189.540414" style="fill: #0000ff; stroke: #0000ff"/>
     <use xlink:href="#mc1bf7c79d1" x="299.000852" y="193.577172" style="fill: #0000ff; stroke: #0000ff"/>
     <use xlink:href="#mc1bf7c79d1" x="305.341761" y="197.25249" style="fill: #0000ff; stroke: #0000ff"/>
     <use xlink:href="#mc1bf7c79d1" x="311.68267" y="200.655458" style="fill: #0000ff; stroke: #0000ff"/>
     <use xlink:href="#mc1bf7c79d1" x="318.02358" y="203.811716" style="fill: #0000ff; stroke: #0000ff"/>
     <use xlink:href="#mc1bf7c79d1" x="324.364489" y="206.508273" style="fill: #0000ff; stroke: #0000ff"/>
     <use xlink:href="#mc1bf7c79d1" x="330.705398" y="208.878699" style="fill: #0000ff; stroke: #0000ff"/>
     <use xlink:href="#mc1bf7c79d1" x="337.046307" y="210.792994" style="fill: #0000ff; stroke: #0000ff"/>
     <use xlink:href="#mc1bf7c79d1" x="343.387216" y="212.350083" style="fill: #0000ff; stroke: #0000ff"/>
     <use xlink:href="#mc1bf7c79d1" x="349.728125" y="213.555871" style="fill: #0000ff; stroke: #0000ff"/>
     <use xlink:href="#mc1bf7c79d1" x="356.069034" y="214.354247" style="fill: #0000ff; stroke: #0000ff"/>
     <use xlink:href="#mc1bf7c79d1" x="362.409943" y="214.756364" style="fill: #0000ff; stroke: #0000ff"/>
    </g>
   </g>
   <g id="line2d_29">
    <defs>
     <path id="m91d3b08f13" d="M 0 1.5 
C 0.397805 1.5 0.77937 1.341951 1.06066 1.06066 
C 1.341951 0.77937 1.5 0.397805 1.5 0 
C 1.5 -0.397805 1.341951 -0.77937 1.06066 -1.06066 
C 0.77937 -1.341951 0.397805 -1.5 0 -1.5 
C -0.397805 -1.5 -0.77937 -1.341951 -1.06066 -1.06066 
C -1.341951 -0.77937 -1.5 -0.397805 -1.5 0 
C -1.5 0.397805 -1.341951 0.77937 -1.06066 1.06066 
C -0.77937 1.341951 -0.397805 1.5 0 1.5 
z
" style="stroke: #008000"/>
    </defs>
    <g clip-path="url(#p4f653c611c)">
     <use xlink:href="#m91d3b08f13" x="58.046307" y="214.60768" style="fill: #008000; stroke: #008000"/>
     <use xlink:href="#m91d3b08f13" x="64.387216" y="214.006763" style="fill: #008000; stroke: #008000"/>
     <use xlink:href="#m91d3b08f13" x="70.728125" y="213.008016" style="fill: #008000; stroke: #008000"/>
     <use xlink:href="#m91d3b08f13" x="77.069034" y="211.615649" style="fill: #008000; stroke: #008000"/>
     <use xlink:href="#m91d3b08f13" x="83.409943" y="209.835415" style="fill: #008000; stroke: #008000"/>
     <use xlink:href="#m91d3b08f13" x="89.750852" y="207.674704" style="fill: #008000; stroke: #008000"/>
     <use xlink:href="#m91d3b08f13" x="96.091761" y="205.142487" style="fill: #008000; stroke: #008000"/>
     <use xlink:href="#m91d3b08f13" x="102.43267" y="202.249092" style="fill: #008000; stroke: #008000"/>
     <use xlink:href="#m91d3b08f13" x="108.77358" y="199.00666" style="fill: #008000; stroke: #008000"/>
     <use xlink:href="#m91d3b08f13" x="115.114489" y="195.428451" style="fill: #008000; stroke: #008000"/>
     <use xlink:href="#m91d3b08f13" x="121.455398" y="191.529451" style="fill: #008000; stroke: #008000"/>
     <use xlink:href="#m91d3b08f13" x="127.796307" y="187.326007" style="fill: #008000; stroke: #008000"/>
     <use xlink:href="#m91d3b08f13" x="134.137216" y="182.835372" style="fill: #008000; stroke: #008000"/>
     <use xlink:href="#m91d3b08f13" x="140.478125" y="178.076696" style="fill: #008000; stroke: #008000"/>
     <use xlink:href="#m91d3b08f13" x="146.819034" y="173.069186" style="fill: #008000; stroke: #008000"/>
     <use xlink:href="#m91d3b08f13" x="153.159943" y="167.833742" style="fill: #008000; stroke: #008000"/>
     <use xlink:href="#m91d3b08f13" x="159.500852" y="162.391834" style="fill: #008000; stroke: #008000"/>
     <use xlink:href="#m91d3b08f13" x="165.841761" y="156.765094" style="fill: #008000; stroke: #008000"/>
     <use xlink:href="#m91d3b08f13" x="172.18267" y="150.977508" style="fill: #008000; stroke: #008000"/>
     <use xlink:href="#m91d3b08f13" x="178.52358" y="145.051819" style="fill: #008000; stroke: #008000"/>
     <use xlink:href="#m91d3b08f13" x="184.864489" y="139.013486" style="fill: #008000; stroke: #008000"/>
     <use xlink:href="#m91d3b08f13" x="191.205398" y="132.887874" style="fill: #008000; stroke: #008000"/>
     <use xlink:href="#m91d3b08f13" x="197.546307" y="126.699745" style="fill: #008000; stroke: #008000"/>
     <use xlink:href="#m91d3b08f13" x="203.887216" y="120.476929" style="fill: #008000; stroke: #008000"/>
     <use xlink:href="#m91d3b08f13" x="210.228125" y="114.24279" style="fill: #008000; stroke: #008000"/>
     <use xlink:href="#m91d3b08f13" x="216.569034" y="108.024008" style="fill: #008000; stroke: #008000"/>
     <use xlink:href="#m91d3b08f13" x="222.909943" y="101.845098" style="fill: #008000; stroke: #008000"/>
     <use xlink:href="#m91d3b08f13" x="229.250852" y="95.728312" style="fill: #008000; stroke: #008000"/>
     <use xlink:href="#m91d3b08f13" x="235.591761" y="89.701646" style="fill: #008000; stroke: #008000"/>
     <use xlink:href="#m91d3b08f13" x="241.93267" y="83.785915" style="fill: #008000; stroke: #008000"/>
     <use xlink:href="#m91d3b08f13" x="248.27358" y="78.009016" style="fill: #008000; stroke: #008000"/>
     <use xlink:href="#m91d3b08f13" x="254.614489" y="72.396617" style="fill: #008000; stroke: #008000"/>
     <use xlink:href="#m91d3b08f13" x="260.955398" y="66.969698" style="fill: #008000; stroke: #008000"/>
     <use xlink:href="#m91d3b08f13" x="267.296307" y="61.757685" style="fill: #008000; stroke: #008000"/>
     <use xlink:href="#m91d3b08f13" x="273.637216" y="56.774848" style="fill: #008000; stroke: #008000"/>
     <use xlink:href="#m91d3b08f13" x="279.978125" y="52.042724" style="fill: #008000; stroke: #008000"/>
     <use xlink:href="#m91d3b08f13" x="286.319034" y="47.579432" style="fill: #008000; stroke: #008000"/>
     <use xlink:href="#m91d3b08f13" x="292.659943" y="43.392826" style="fill: #008000; stroke: #008000"/>
     <use xlink:href="#m91d3b08f13" x="299.000852" y="39.510027" style="fill: #008000; stroke: #008000"/>
     <use xlink:href="#m91d3b08f13" x="305.341761" y="35.941776" style="fill: #008000; stroke: #008000"/>
     <use xlink:href="#m91d3b08f13" x="311.68267" y="32.707552" style="fill: #008000; stroke: #008000"/>
     <use xlink:href="#m91d3b08f13" x="318.02358" y="29.832829" style="fill: #008000; stroke: #008000"/>
     <use xlink:href="#m91d3b08f13" x="324.364489" y="27.317179" style="fill: #008000; stroke: #008000"/>
     <use xlink:href="#m91d3b08f13" x="330.705398" y="25.177736" style="fill: #008000; stroke: #008000"/>
     <use xlink:href="#m91d3b08f13" x="337.046307" y="23.408157" style="fill: #008000; stroke: #008000"/>
     <use xlink:href="#m91d3b08f13" x="343.387216" y="22.017884" style="fill: #008000; stroke: #008000"/>
     <use xlink:href="#m91d3b08f13" x="349.728125" y="21.022483" style="fill: #008000; stroke: #008000"/>
     <use xlink:href="#m91d3b08f13" x="356.069034" y="20.421927" style="fill: #008000; stroke: #008000"/>
     <use xlink:href="#m91d3b08f13" x="362.409943" y="20.218658" style="fill: #008000; stroke: #008000"/>
    </g>
   </g>
   <g id="patch_3">
    <path d="M 42.828125 224.64 
L 42.828125 7.2 
" style="fill: none; stroke: #000000; stroke-width: 0.8; stroke-linejoin: miter; stroke-linecap: square"/>
   </g>
   <g id="patch_4">
    <path d="M 377.628125 224.64 
L 377.628125 7.2 
" style="fill: none; stroke: #000000; stroke-width: 0.8; stroke-linejoin: miter; stroke-linecap: square"/>
   </g>
   <g id="patch_5">
    <path d="M 42.828125 224.64 
L 377.628125 224.64 
" style="fill: none; stroke: #000000; stroke-width: 0.8; stroke-linejoin: miter; stroke-linecap: square"/>
   </g>
   <g id="patch_6">
    <path d="M 42.828125 7.2 
L 377.628125 7.2 
" style="fill: none; stroke: #000000; stroke-width: 0.8; stroke-linejoin: miter; stroke-linecap: square"/>
   </g>
   <g id="legend_1">
    <g id="patch_7">
     <path d="M 244.3375 139.437187 
L 370.628125 139.437187 
Q 372.628125 139.437187 372.628125 137.437187 
L 372.628125 94.402812 
Q 372.628125 92.402812 370.628125 92.402812 
L 244.3375 92.402812 
Q 242.3375 92.402812 242.3375 94.402812 
L 242.3375 137.437187 
Q 242.3375 139.437187 244.3375 139.437187 
z
" style="fill: #ffffff; opacity: 0.8; stroke: #cccccc; stroke-linejoin: miter"/>
    </g>
    <g id="line2d_30">
     <g>
      <use xlink:href="#mb9a5f4b07a" x="256.3375" y="100.50125" style="fill: #ff0000; stroke: #ff0000"/>
     </g>
    </g>
    <g id="text_14">
     <!-- Mechanical energy -->
     <g transform="translate(274.3375 104.00125)scale(0.1 -0.1)">
      <defs>
       <path id="DejaVuSans-4d" d="M 628 4666 
L 1569 4666 
L 2759 1491 
L 3956 4666 
L 4897 4666 
L 4897 0 
L 4281 0 
L 4281 4097 
L 3078 897 
L 2444 897 
L 1241 4097 
L 1241 0 
L 628 0 
L 628 4666 
z
" transform="scale(0.015625)"/>
       <path id="DejaVuSans-65" d="M 3597 1894 
L 3597 1613 
L 953 1613 
Q 991 1019 1311 708 
Q 1631 397 2203 397 
Q 2534 397 2845 478 
Q 3156 559 3463 722 
L 3463 178 
Q 3153 47 2828 -22 
Q 2503 -91 2169 -91 
Q 1331 -91 842 396 
Q 353 884 353 1716 
Q 353 2575 817 3079 
Q 1281 3584 2069 3584 
Q 2775 3584 3186 3129 
Q 3597 2675 3597 1894 
z
M 3022 2063 
Q 3016 2534 2758 2815 
Q 2500 3097 2075 3097 
Q 1594 3097 1305 2825 
Q 1016 2553 972 2059 
L 3022 2063 
z
" transform="scale(0.015625)"/>
       <path id="DejaVuSans-63" d="M 3122 3366 
L 3122 2828 
Q 2878 2963 2633 3030 
Q 2388 3097 2138 3097 
Q 1578 3097 1268 2742 
Q 959 2388 959 1747 
Q 959 1106 1268 751 
Q 1578 397 2138 397 
Q 2388 397 2633 464 
Q 2878 531 3122 666 
L 3122 134 
Q 2881 22 2623 -34 
Q 2366 -91 2075 -91 
Q 1284 -91 818 406 
Q 353 903 353 1747 
Q 353 2603 823 3093 
Q 1294 3584 2113 3584 
Q 2378 3584 2631 3529 
Q 2884 3475 3122 3366 
z
" transform="scale(0.015625)"/>
       <path id="DejaVuSans-68" d="M 3513 2113 
L 3513 0 
L 2938 0 
L 2938 2094 
Q 2938 2591 2744 2837 
Q 2550 3084 2163 3084 
Q 1697 3084 1428 2787 
Q 1159 2491 1159 1978 
L 1159 0 
L 581 0 
L 581 4863 
L 1159 4863 
L 1159 2956 
Q 1366 3272 1645 3428 
Q 1925 3584 2291 3584 
Q 2894 3584 3203 3211 
Q 3513 2838 3513 2113 
z
" transform="scale(0.015625)"/>
       <path id="DejaVuSans-61" d="M 2194 1759 
Q 1497 1759 1228 1600 
Q 959 1441 959 1056 
Q 959 750 1161 570 
Q 1363 391 1709 391 
Q 2188 391 2477 730 
Q 2766 1069 2766 1631 
L 2766 1759 
L 2194 1759 
z
M 3341 1997 
L 3341 0 
L 2766 0 
L 2766 531 
Q 2569 213 2275 61 
Q 1981 -91 1556 -91 
Q 1019 -91 701 211 
Q 384 513 384 1019 
Q 384 1609 779 1909 
Q 1175 2209 1959 2209 
L 2766 2209 
L 2766 2266 
Q 2766 2663 2505 2880 
Q 2244 3097 1772 3097 
Q 1472 3097 1187 3025 
Q 903 2953 641 2809 
L 641 3341 
Q 956 3463 1253 3523 
Q 1550 3584 1831 3584 
Q 2591 3584 2966 3190 
Q 3341 2797 3341 1997 
z
" transform="scale(0.015625)"/>
       <path id="DejaVuSans-6e" d="M 3513 2113 
L 3513 0 
L 2938 0 
L 2938 2094 
Q 2938 2591 2744 2837 
Q 2550 3084 2163 3084 
Q 1697 3084 1428 2787 
Q 1159 2491 1159 1978 
L 1159 0 
L 581 0 
L 581 3500 
L 1159 3500 
L 1159 2956 
Q 1366 3272 1645 3428 
Q 1925 3584 2291 3584 
Q 2894 3584 3203 3211 
Q 3513 2838 3513 2113 
z
" transform="scale(0.015625)"/>
       <path id="DejaVuSans-69" d="M 603 3500 
L 1178 3500 
L 1178 0 
L 603 0 
L 603 3500 
z
M 603 4863 
L 1178 4863 
L 1178 4134 
L 603 4134 
L 603 4863 
z
" transform="scale(0.015625)"/>
       <path id="DejaVuSans-6c" d="M 603 4863 
L 1178 4863 
L 1178 0 
L 603 0 
L 603 4863 
z
" transform="scale(0.015625)"/>
       <path id="DejaVuSans-20" transform="scale(0.015625)"/>
       <path id="DejaVuSans-72" d="M 2631 2963 
Q 2534 3019 2420 3045 
Q 2306 3072 2169 3072 
Q 1681 3072 1420 2755 
Q 1159 2438 1159 1844 
L 1159 0 
L 581 0 
L 581 3500 
L 1159 3500 
L 1159 2956 
Q 1341 3275 1631 3429 
Q 1922 3584 2338 3584 
Q 2397 3584 2469 3576 
Q 2541 3569 2628 3553 
L 2631 2963 
z
" transform="scale(0.015625)"/>
       <path id="DejaVuSans-67" d="M 2906 1791 
Q 2906 2416 2648 2759 
Q 2391 3103 1925 3103 
Q 1463 3103 1205 2759 
Q 947 2416 947 1791 
Q 947 1169 1205 825 
Q 1463 481 1925 481 
Q 2391 481 2648 825 
Q 2906 1169 2906 1791 
z
M 3481 434 
Q 3481 -459 3084 -895 
Q 2688 -1331 1869 -1331 
Q 1566 -1331 1297 -1286 
Q 1028 -1241 775 -1147 
L 775 -588 
Q 1028 -725 1275 -790 
Q 1522 -856 1778 -856 
Q 2344 -856 2625 -561 
Q 2906 -266 2906 331 
L 2906 616 
Q 2728 306 2450 153 
Q 2172 0 1784 0 
Q 1141 0 747 490 
Q 353 981 353 1791 
Q 353 2603 747 3093 
Q 1141 3584 1784 3584 
Q 2172 3584 2450 3431 
Q 2728 3278 2906 2969 
L 2906 3500 
L 3481 3500 
L 3481 434 
z
" transform="scale(0.015625)"/>
       <path id="DejaVuSans-79" d="M 2059 -325 
Q 1816 -950 1584 -1140 
Q 1353 -1331 966 -1331 
L 506 -1331 
L 506 -850 
L 844 -850 
Q 1081 -850 1212 -737 
Q 1344 -625 1503 -206 
L 1606 56 
L 191 3500 
L 800 3500 
L 1894 763 
L 2988 3500 
L 3597 3500 
L 2059 -325 
z
" transform="scale(0.015625)"/>
      </defs>
      <use xlink:href="#DejaVuSans-4d"/>
      <use xlink:href="#DejaVuSans-65" x="86.279297"/>
      <use xlink:href="#DejaVuSans-63" x="147.802734"/>
      <use xlink:href="#DejaVuSans-68" x="202.783203"/>
      <use xlink:href="#DejaVuSans-61" x="266.162109"/>
      <use xlink:href="#DejaVuSans-6e" x="327.441406"/>
      <use xlink:href="#DejaVuSans-69" x="390.820312"/>
      <use xlink:href="#DejaVuSans-63" x="418.603516"/>
      <use xlink:href="#DejaVuSans-61" x="473.583984"/>
      <use xlink:href="#DejaVuSans-6c" x="534.863281"/>
      <use xlink:href="#DejaVuSans-20" x="562.646484"/>
      <use xlink:href="#DejaVuSans-65" x="594.433594"/>
      <use xlink:href="#DejaVuSans-6e" x="655.957031"/>
      <use xlink:href="#DejaVuSans-65" x="719.335938"/>
      <use xlink:href="#DejaVuSans-72" x="780.859375"/>
      <use xlink:href="#DejaVuSans-67" x="820.222656"/>
      <use xlink:href="#DejaVuSans-79" x="883.699219"/>
     </g>
    </g>
    <g id="line2d_31">
     <g>
      <use xlink:href="#mc1bf7c79d1" x="256.3375" y="115.179375" style="fill: #0000ff; stroke: #0000ff"/>
     </g>
    </g>
    <g id="text_15">
     <!-- Kinetic energy -->
     <g transform="translate(274.3375 118.679375)scale(0.1 -0.1)">
      <defs>
       <path id="DejaVuSans-4b" d="M 628 4666 
L 1259 4666 
L 1259 2694 
L 3353 4666 
L 4166 4666 
L 1850 2491 
L 4331 0 
L 3500 0 
L 1259 2247 
L 1259 0 
L 628 0 
L 628 4666 
z
" transform="scale(0.015625)"/>
       <path id="DejaVuSans-74" d="M 1172 4494 
L 1172 3500 
L 2356 3500 
L 2356 3053 
L 1172 3053 
L 1172 1153 
Q 1172 725 1289 603 
Q 1406 481 1766 481 
L 2356 481 
L 2356 0 
L 1766 0 
Q 1100 0 847 248 
Q 594 497 594 1153 
L 594 3053 
L 172 3053 
L 172 3500 
L 594 3500 
L 594 4494 
L 1172 4494 
z
" transform="scale(0.015625)"/>
      </defs>
      <use xlink:href="#DejaVuSans-4b"/>
      <use xlink:href="#DejaVuSans-69" x="65.576172"/>
      <use xlink:href="#DejaVuSans-6e" x="93.359375"/>
      <use xlink:href="#DejaVuSans-65" x="156.738281"/>
      <use xlink:href="#DejaVuSans-74" x="218.261719"/>
      <use xlink:href="#DejaVuSans-69" x="257.470703"/>
      <use xlink:href="#DejaVuSans-63" x="285.253906"/>
      <use xlink:href="#DejaVuSans-20" x="340.234375"/>
      <use xlink:href="#DejaVuSans-65" x="372.021484"/>
      <use xlink:href="#DejaVuSans-6e" x="433.544922"/>
      <use xlink:href="#DejaVuSans-65" x="496.923828"/>
      <use xlink:href="#DejaVuSans-72" x="558.447266"/>
      <use xlink:href="#DejaVuSans-67" x="597.810547"/>
      <use xlink:href="#DejaVuSans-79" x="661.287109"/>
     </g>
    </g>
    <g id="line2d_32">
     <g>
      <use xlink:href="#m91d3b08f13" x="256.3375" y="129.8575" style="fill: #008000; stroke: #008000"/>
     </g>
    </g>
    <g id="text_16">
     <!-- Potential energy -->
     <g transform="translate(274.3375 133.3575)scale(0.1 -0.1)">
      <defs>
       <path id="DejaVuSans-50" d="M 1259 4147 
L 1259 2394 
L 2053 2394 
Q 2494 2394 2734 2622 
Q 2975 2850 2975 3272 
Q 2975 3691 2734 3919 
Q 2494 4147 2053 4147 
L 1259 4147 
z
M 628 4666 
L 2053 4666 
Q 2838 4666 3239 4311 
Q 3641 3956 3641 3272 
Q 3641 2581 3239 2228 
Q 2838 1875 2053 1875 
L 1259 1875 
L 1259 0 
L 628 0 
L 628 4666 
z
" transform="scale(0.015625)"/>
       <path id="DejaVuSans-6f" d="M 1959 3097 
Q 1497 3097 1228 2736 
Q 959 2375 959 1747 
Q 959 1119 1226 758 
Q 1494 397 1959 397 
Q 2419 397 2687 759 
Q 2956 1122 2956 1747 
Q 2956 2369 2687 2733 
Q 2419 3097 1959 3097 
z
M 1959 3584 
Q 2709 3584 3137 3096 
Q 3566 2609 3566 1747 
Q 3566 888 3137 398 
Q 2709 -91 1959 -91 
Q 1206 -91 779 398 
Q 353 888 353 1747 
Q 353 2609 779 3096 
Q 1206 3584 1959 3584 
z
" transform="scale(0.015625)"/>
      </defs>
      <use xlink:href="#DejaVuSans-50"/>
      <use xlink:href="#DejaVuSans-6f" x="56.677734"/>
      <use xlink:href="#DejaVuSans-74" x="117.859375"/>
      <use xlink:href="#DejaVuSans-65" x="157.068359"/>
      <use xlink:href="#DejaVuSans-6e" x="218.591797"/>
      <use xlink:href="#DejaVuSans-74" x="281.970703"/>
      <use xlink:href="#DejaVuSans-69" x="321.179688"/>
      <use xlink:href="#DejaVuSans-61" x="348.962891"/>
      <use xlink:href="#DejaVuSans-6c" x="410.242188"/>
      <use xlink:href="#DejaVuSans-20" x="438.025391"/>
      <use xlink:href="#DejaVuSans-65" x="469.8125"/>
      <use xlink:href="#DejaVuSans-6e" x="531.335938"/>
      <use xlink:href="#DejaVuSans-65" x="594.714844"/>
      <use xlink:href="#DejaVuSans-72" x="656.238281"/>
      <use xlink:href="#DejaVuSans-67" x="695.601562"/>
      <use xlink:href="#DejaVuSans-79" x="759.078125"/>
     </g>
    </g>
   </g>
  </g>
 </g>
 <defs>
  <clipPath id="p4f653c611c">
   <rect x="42.828125" y="7.2" width="334.8" height="217.44"/>
  </clipPath>
 </defs>
</svg>
